  0
SECTION
  2
BLOCKS
  0
ENDSEC
  0
SECTION
  2
ENTITIES
  0
LINE
  8
0
 10
-8
 20
10
 11
-7.97433
 21
9.60843
  0
LINE
  8
0
 10
-7.97433
 20
9.60843
 11
-7.89778
 21
9.22354
  0
LINE
  8
0
 10
-7.89778
 20
9.22354
 11
-7.77164
 21
8.85194
  0
LINE
  8
0
 10
-7.77164
 20
8.85194
 11
-7.59808
 21
8.5
  0
LINE
  8
0
 10
-7.59808
 20
8.5
 11
-7.38007
 21
8.17372
  0
LINE
  8
0
 10
-7.38007
 20
8.17372
 11
-7.12132
 21
7.87868
  0
LINE
  8
0
 10
-7.12132
 20
7.87868
 11
-6.82628
 21
7.61993
  0
LINE
  8
0
 10
-6.82628
 20
7.61993
 11
-6.5
 21
7.40192
  0
LINE
  8
0
 10
-6.5
 20
7.40192
 11
-6.14806
 21
7.22836
  0
LINE
  8
0
 10
-6.14806
 20
7.22836
 11
-5.77646
 21
7.10222
  0
LINE
  8
0
 10
-5.77646
 20
7.10222
 11
-5.39157
 21
7.02567
  0
LINE
  8
0
 10
-5.39157
 20
7.02567
 11
-5
 21
7
  0
LINE
  8
0
 10
-5
 20
7
 11
185
 21
7
  0
LINE
  8
0
 10
185
 20
7
 11
185.392
 21
7.02567
  0
LINE
  8
0
 10
185.392
 20
7.02567
 11
185.776
 21
7.10222
  0
LINE
  8
0
 10
185.776
 20
7.10222
 11
186.148
 21
7.22836
  0
LINE
  8
0
 10
186.148
 20
7.22836
 11
186.5
 21
7.40192
  0
LINE
  8
0
 10
186.5
 20
7.40192
 11
186.826
 21
7.61993
  0
LINE
  8
0
 10
186.826
 20
7.61993
 11
187.121
 21
7.87868
  0
LINE
  8
0
 10
187.121
 20
7.87868
 11
187.38
 21
8.17372
  0
LINE
  8
0
 10
187.38
 20
8.17372
 11
187.598
 21
8.5
  0
LINE
  8
0
 10
187.598
 20
8.5
 11
187.772
 21
8.85194
  0
LINE
  8
0
 10
187.772
 20
8.85194
 11
187.898
 21
9.22354
  0
LINE
  8
0
 10
187.898
 20
9.22354
 11
187.974
 21
9.60843
  0
LINE
  8
0
 10
187.974
 20
9.60843
 11
188
 21
10
  0
LINE
  8
0
 10
188
 20
10
 11
188
 21
120
  0
LINE
  8
0
 10
188
 20
120
 11
187.974
 21
120.392
  0
LINE
  8
0
 10
187.974
 20
120.392
 11
187.898
 21
120.776
  0
LINE
  8
0
 10
187.898
 20
120.776
 11
187.772
 21
121.148
  0
LINE
  8
0
 10
187.772
 20
121.148
 11
187.598
 21
121.5
  0
LINE
  8
0
 10
187.598
 20
121.5
 11
187.38
 21
121.826
  0
LINE
  8
0
 10
187.38
 20
121.826
 11
187.121
 21
122.121
  0
LINE
  8
0
 10
187.121
 20
122.121
 11
186.826
 21
122.38
  0
LINE
  8
0
 10
186.826
 20
122.38
 11
186.5
 21
122.598
  0
LINE
  8
0
 10
186.5
 20
122.598
 11
186.148
 21
122.772
  0
LINE
  8
0
 10
186.148
 20
122.772
 11
185.776
 21
122.898
  0
LINE
  8
0
 10
185.776
 20
122.898
 11
185.392
 21
122.974
  0
LINE
  8
0
 10
185.392
 20
122.974
 11
185
 21
123
  0
LINE
  8
0
 10
185
 20
123
 11
-5
 21
123
  0
LINE
  8
0
 10
-5
 20
123
 11
-5.39157
 21
122.974
  0
LINE
  8
0
 10
-5.39157
 20
122.974
 11
-5.77646
 21
122.898
  0
LINE
  8
0
 10
-5.77646
 20
122.898
 11
-6.14806
 21
122.772
  0
LINE
  8
0
 10
-6.14806
 20
122.772
 11
-6.5
 21
122.598
  0
LINE
  8
0
 10
-6.5
 20
122.598
 11
-6.82628
 21
122.38
  0
LINE
  8
0
 10
-6.82628
 20
122.38
 11
-7.12132
 21
122.121
  0
LINE
  8
0
 10
-7.12132
 20
122.121
 11
-7.38007
 21
121.826
  0
LINE
  8
0
 10
-7.38007
 20
121.826
 11
-7.59808
 21
121.5
  0
LINE
  8
0
 10
-7.59808
 20
121.5
 11
-7.77164
 21
121.148
  0
LINE
  8
0
 10
-7.77164
 20
121.148
 11
-7.89778
 21
120.776
  0
LINE
  8
0
 10
-7.89778
 20
120.776
 11
-7.97433
 21
120.392
  0
LINE
  8
0
 10
-7.97433
 20
120.392
 11
-8
 21
120
  0
LINE
  8
0
 10
-8
 20
120
 11
-8
 21
10
  0
LINE
  8
0
 10
-3.85
 20
13
 11
-3.83417
 21
13.2415
  0
LINE
  8
0
 10
-3.83417
 20
13.2415
 11
-3.78696
 21
13.4788
  0
LINE
  8
0
 10
-3.78696
 20
13.4788
 11
-3.70918
 21
13.708
  0
LINE
  8
0
 10
-3.70918
 20
13.708
 11
-3.60215
 21
13.925
  0
LINE
  8
0
 10
-3.60215
 20
13.925
 11
-3.4677
 21
14.1262
  0
LINE
  8
0
 10
-3.4677
 20
14.1262
 11
-3.30815
 21
14.3081
  0
LINE
  8
0
 10
-3.30815
 20
14.3081
 11
-3.12621
 21
14.4677
  0
LINE
  8
0
 10
-3.12621
 20
14.4677
 11
-2.925
 21
14.6021
  0
LINE
  8
0
 10
-2.925
 20
14.6021
 11
-2.70796
 21
14.7092
  0
LINE
  8
0
 10
-2.70796
 20
14.7092
 11
-2.47882
 21
14.787
  0
LINE
  8
0
 10
-2.47882
 20
14.787
 11
-2.24147
 21
14.8342
  0
LINE
  8
0
 10
-2.24147
 20
14.8342
 11
-2
 21
14.85
  0
LINE
  8
0
 10
-2
 20
14.85
 11
-1.75853
 21
14.8342
  0
LINE
  8
0
 10
-1.75853
 20
14.8342
 11
-1.52118
 21
14.787
  0
LINE
  8
0
 10
-1.52118
 20
14.787
 11
-1.29204
 21
14.7092
  0
LINE
  8
0
 10
-1.29204
 20
14.7092
 11
-1.075
 21
14.6021
  0
LINE
  8
0
 10
-1.075
 20
14.6021
 11
-0.873791
 21
14.4677
  0
LINE
  8
0
 10
-0.873791
 20
14.4677
 11
-0.691852
 21
14.3081
  0
LINE
  8
0
 10
-0.691852
 20
14.3081
 11
-0.532296
 21
14.1262
  0
LINE
  8
0
 10
-0.532296
 20
14.1262
 11
-0.397853
 21
13.925
  0
LINE
  8
0
 10
-0.397853
 20
13.925
 11
-0.290822
 21
13.708
  0
LINE
  8
0
 10
-0.290822
 20
13.708
 11
-0.213037
 21
13.4788
  0
LINE
  8
0
 10
-0.213037
 20
13.4788
 11
-0.165827
 21
13.2415
  0
LINE
  8
0
 10
-0.165827
 20
13.2415
 11
-0.15
 21
13
  0
LINE
  8
0
 10
-0.15
 20
13
 11
-0.165827
 21
12.7585
  0
LINE
  8
0
 10
-0.165827
 20
12.7585
 11
-0.213037
 21
12.5212
  0
LINE
  8
0
 10
-0.213037
 20
12.5212
 11
-0.290822
 21
12.292
  0
LINE
  8
0
 10
-0.290822
 20
12.292
 11
-0.397853
 21
12.075
  0
LINE
  8
0
 10
-0.397853
 20
12.075
 11
-0.532296
 21
11.8738
  0
LINE
  8
0
 10
-0.532296
 20
11.8738
 11
-0.691852
 21
11.6919
  0
LINE
  8
0
 10
-0.691852
 20
11.6919
 11
-0.873791
 21
11.5323
  0
LINE
  8
0
 10
-0.873791
 20
11.5323
 11
-1.075
 21
11.3979
  0
LINE
  8
0
 10
-1.075
 20
11.3979
 11
-1.29204
 21
11.2908
  0
LINE
  8
0
 10
-1.29204
 20
11.2908
 11
-1.52118
 21
11.213
  0
LINE
  8
0
 10
-1.52118
 20
11.213
 11
-1.75853
 21
11.1658
  0
LINE
  8
0
 10
-1.75853
 20
11.1658
 11
-2
 21
11.15
  0
LINE
  8
0
 10
-2
 20
11.15
 11
-2.24147
 21
11.1658
  0
LINE
  8
0
 10
-2.24147
 20
11.1658
 11
-2.47882
 21
11.213
  0
LINE
  8
0
 10
-2.47882
 20
11.213
 11
-2.70796
 21
11.2908
  0
LINE
  8
0
 10
-2.70796
 20
11.2908
 11
-2.925
 21
11.3979
  0
LINE
  8
0
 10
-2.925
 20
11.3979
 11
-3.12621
 21
11.5323
  0
LINE
  8
0
 10
-3.12621
 20
11.5323
 11
-3.30815
 21
11.6919
  0
LINE
  8
0
 10
-3.30815
 20
11.6919
 11
-3.4677
 21
11.8738
  0
LINE
  8
0
 10
-3.4677
 20
11.8738
 11
-3.60215
 21
12.075
  0
LINE
  8
0
 10
-3.60215
 20
12.075
 11
-3.70918
 21
12.292
  0
LINE
  8
0
 10
-3.70918
 20
12.292
 11
-3.78696
 21
12.5212
  0
LINE
  8
0
 10
-3.78696
 20
12.5212
 11
-3.83417
 21
12.7585
  0
LINE
  8
0
 10
-3.83417
 20
12.7585
 11
-3.85
 21
13
  0
LINE
  8
0
 10
-3.85
 20
117
 11
-3.83417
 21
117.241
  0
LINE
  8
0
 10
-3.83417
 20
117.241
 11
-3.78696
 21
117.479
  0
LINE
  8
0
 10
-3.78696
 20
117.479
 11
-3.70918
 21
117.708
  0
LINE
  8
0
 10
-3.70918
 20
117.708
 11
-3.60215
 21
117.925
  0
LINE
  8
0
 10
-3.60215
 20
117.925
 11
-3.4677
 21
118.126
  0
LINE
  8
0
 10
-3.4677
 20
118.126
 11
-3.30815
 21
118.308
  0
LINE
  8
0
 10
-3.30815
 20
118.308
 11
-3.12621
 21
118.468
  0
LINE
  8
0
 10
-3.12621
 20
118.468
 11
-2.925
 21
118.602
  0
LINE
  8
0
 10
-2.925
 20
118.602
 11
-2.70796
 21
118.709
  0
LINE
  8
0
 10
-2.70796
 20
118.709
 11
-2.47882
 21
118.787
  0
LINE
  8
0
 10
-2.47882
 20
118.787
 11
-2.24147
 21
118.834
  0
LINE
  8
0
 10
-2.24147
 20
118.834
 11
-2
 21
118.85
  0
LINE
  8
0
 10
-2
 20
118.85
 11
-1.75853
 21
118.834
  0
LINE
  8
0
 10
-1.75853
 20
118.834
 11
-1.52118
 21
118.787
  0
LINE
  8
0
 10
-1.52118
 20
118.787
 11
-1.29204
 21
118.709
  0
LINE
  8
0
 10
-1.29204
 20
118.709
 11
-1.075
 21
118.602
  0
LINE
  8
0
 10
-1.075
 20
118.602
 11
-0.873791
 21
118.468
  0
LINE
  8
0
 10
-0.873791
 20
118.468
 11
-0.691852
 21
118.308
  0
LINE
  8
0
 10
-0.691852
 20
118.308
 11
-0.532296
 21
118.126
  0
LINE
  8
0
 10
-0.532296
 20
118.126
 11
-0.397853
 21
117.925
  0
LINE
  8
0
 10
-0.397853
 20
117.925
 11
-0.290822
 21
117.708
  0
LINE
  8
0
 10
-0.290822
 20
117.708
 11
-0.213037
 21
117.479
  0
LINE
  8
0
 10
-0.213037
 20
117.479
 11
-0.165827
 21
117.241
  0
LINE
  8
0
 10
-0.165827
 20
117.241
 11
-0.15
 21
117
  0
LINE
  8
0
 10
-0.15
 20
117
 11
-0.165827
 21
116.759
  0
LINE
  8
0
 10
-0.165827
 20
116.759
 11
-0.213037
 21
116.521
  0
LINE
  8
0
 10
-0.213037
 20
116.521
 11
-0.290822
 21
116.292
  0
LINE
  8
0
 10
-0.290822
 20
116.292
 11
-0.397853
 21
116.075
  0
LINE
  8
0
 10
-0.397853
 20
116.075
 11
-0.532296
 21
115.874
  0
LINE
  8
0
 10
-0.532296
 20
115.874
 11
-0.691852
 21
115.692
  0
LINE
  8
0
 10
-0.691852
 20
115.692
 11
-0.873791
 21
115.532
  0
LINE
  8
0
 10
-0.873791
 20
115.532
 11
-1.075
 21
115.398
  0
LINE
  8
0
 10
-1.075
 20
115.398
 11
-1.29204
 21
115.291
  0
LINE
  8
0
 10
-1.29204
 20
115.291
 11
-1.52118
 21
115.213
  0
LINE
  8
0
 10
-1.52118
 20
115.213
 11
-1.75853
 21
115.166
  0
LINE
  8
0
 10
-1.75853
 20
115.166
 11
-2
 21
115.15
  0
LINE
  8
0
 10
-2
 20
115.15
 11
-2.24147
 21
115.166
  0
LINE
  8
0
 10
-2.24147
 20
115.166
 11
-2.47882
 21
115.213
  0
LINE
  8
0
 10
-2.47882
 20
115.213
 11
-2.70796
 21
115.291
  0
LINE
  8
0
 10
-2.70796
 20
115.291
 11
-2.925
 21
115.398
  0
LINE
  8
0
 10
-2.925
 20
115.398
 11
-3.12621
 21
115.532
  0
LINE
  8
0
 10
-3.12621
 20
115.532
 11
-3.30815
 21
115.692
  0
LINE
  8
0
 10
-3.30815
 20
115.692
 11
-3.4677
 21
115.874
  0
LINE
  8
0
 10
-3.4677
 20
115.874
 11
-3.60215
 21
116.075
  0
LINE
  8
0
 10
-3.60215
 20
116.075
 11
-3.70918
 21
116.292
  0
LINE
  8
0
 10
-3.70918
 20
116.292
 11
-3.78696
 21
116.521
  0
LINE
  8
0
 10
-3.78696
 20
116.521
 11
-3.83417
 21
116.759
  0
LINE
  8
0
 10
-3.83417
 20
116.759
 11
-3.85
 21
117
  0
LINE
  8
0
 10
2.15
 20
19
 11
2.16583
 21
19.2415
  0
LINE
  8
0
 10
2.16583
 20
19.2415
 11
2.21304
 21
19.4788
  0
LINE
  8
0
 10
2.21304
 20
19.4788
 11
2.29082
 21
19.708
  0
LINE
  8
0
 10
2.29082
 20
19.708
 11
2.39785
 21
19.925
  0
LINE
  8
0
 10
2.39785
 20
19.925
 11
2.5323
 21
20.1262
  0
LINE
  8
0
 10
2.5323
 20
20.1262
 11
2.69185
 21
20.3081
  0
LINE
  8
0
 10
2.69185
 20
20.3081
 11
2.87379
 21
20.4677
  0
LINE
  8
0
 10
2.87379
 20
20.4677
 11
3.075
 21
20.6021
  0
LINE
  8
0
 10
3.075
 20
20.6021
 11
3.29204
 21
20.7092
  0
LINE
  8
0
 10
3.29204
 20
20.7092
 11
3.52118
 21
20.787
  0
LINE
  8
0
 10
3.52118
 20
20.787
 11
3.75853
 21
20.8342
  0
LINE
  8
0
 10
3.75853
 20
20.8342
 11
4
 21
20.85
  0
LINE
  8
0
 10
4
 20
20.85
 11
4.24147
 21
20.8342
  0
LINE
  8
0
 10
4.24147
 20
20.8342
 11
4.47882
 21
20.787
  0
LINE
  8
0
 10
4.47882
 20
20.787
 11
4.70796
 21
20.7092
  0
LINE
  8
0
 10
4.70796
 20
20.7092
 11
4.925
 21
20.6021
  0
LINE
  8
0
 10
4.925
 20
20.6021
 11
5.12621
 21
20.4677
  0
LINE
  8
0
 10
5.12621
 20
20.4677
 11
5.30815
 21
20.3081
  0
LINE
  8
0
 10
5.30815
 20
20.3081
 11
5.4677
 21
20.1262
  0
LINE
  8
0
 10
5.4677
 20
20.1262
 11
5.60215
 21
19.925
  0
LINE
  8
0
 10
5.60215
 20
19.925
 11
5.70918
 21
19.708
  0
LINE
  8
0
 10
5.70918
 20
19.708
 11
5.78696
 21
19.4788
  0
LINE
  8
0
 10
5.78696
 20
19.4788
 11
5.83417
 21
19.2415
  0
LINE
  8
0
 10
5.83417
 20
19.2415
 11
5.85
 21
19
  0
LINE
  8
0
 10
5.85
 20
19
 11
5.83417
 21
18.7585
  0
LINE
  8
0
 10
5.83417
 20
18.7585
 11
5.78696
 21
18.5212
  0
LINE
  8
0
 10
5.78696
 20
18.5212
 11
5.70918
 21
18.292
  0
LINE
  8
0
 10
5.70918
 20
18.292
 11
5.60215
 21
18.075
  0
LINE
  8
0
 10
5.60215
 20
18.075
 11
5.4677
 21
17.8738
  0
LINE
  8
0
 10
5.4677
 20
17.8738
 11
5.30815
 21
17.6919
  0
LINE
  8
0
 10
5.30815
 20
17.6919
 11
5.12621
 21
17.5323
  0
LINE
  8
0
 10
5.12621
 20
17.5323
 11
4.925
 21
17.3979
  0
LINE
  8
0
 10
4.925
 20
17.3979
 11
4.70796
 21
17.2908
  0
LINE
  8
0
 10
4.70796
 20
17.2908
 11
4.47882
 21
17.213
  0
LINE
  8
0
 10
4.47882
 20
17.213
 11
4.24147
 21
17.1658
  0
LINE
  8
0
 10
4.24147
 20
17.1658
 11
4
 21
17.15
  0
LINE
  8
0
 10
4
 20
17.15
 11
3.75853
 21
17.1658
  0
LINE
  8
0
 10
3.75853
 20
17.1658
 11
3.52118
 21
17.213
  0
LINE
  8
0
 10
3.52118
 20
17.213
 11
3.29204
 21
17.2908
  0
LINE
  8
0
 10
3.29204
 20
17.2908
 11
3.075
 21
17.3979
  0
LINE
  8
0
 10
3.075
 20
17.3979
 11
2.87379
 21
17.5323
  0
LINE
  8
0
 10
2.87379
 20
17.5323
 11
2.69185
 21
17.6919
  0
LINE
  8
0
 10
2.69185
 20
17.6919
 11
2.5323
 21
17.8738
  0
LINE
  8
0
 10
2.5323
 20
17.8738
 11
2.39785
 21
18.075
  0
LINE
  8
0
 10
2.39785
 20
18.075
 11
2.29082
 21
18.292
  0
LINE
  8
0
 10
2.29082
 20
18.292
 11
2.21304
 21
18.5212
  0
LINE
  8
0
 10
2.21304
 20
18.5212
 11
2.16583
 21
18.7585
  0
LINE
  8
0
 10
2.16583
 20
18.7585
 11
2.15
 21
19
  0
LINE
  8
0
 10
2.15
 20
111
 11
2.16583
 21
111.241
  0
LINE
  8
0
 10
2.16583
 20
111.241
 11
2.21304
 21
111.479
  0
LINE
  8
0
 10
2.21304
 20
111.479
 11
2.29082
 21
111.708
  0
LINE
  8
0
 10
2.29082
 20
111.708
 11
2.39785
 21
111.925
  0
LINE
  8
0
 10
2.39785
 20
111.925
 11
2.5323
 21
112.126
  0
LINE
  8
0
 10
2.5323
 20
112.126
 11
2.69185
 21
112.308
  0
LINE
  8
0
 10
2.69185
 20
112.308
 11
2.87379
 21
112.468
  0
LINE
  8
0
 10
2.87379
 20
112.468
 11
3.075
 21
112.602
  0
LINE
  8
0
 10
3.075
 20
112.602
 11
3.29204
 21
112.709
  0
LINE
  8
0
 10
3.29204
 20
112.709
 11
3.52118
 21
112.787
  0
LINE
  8
0
 10
3.52118
 20
112.787
 11
3.75853
 21
112.834
  0
LINE
  8
0
 10
3.75853
 20
112.834
 11
4
 21
112.85
  0
LINE
  8
0
 10
4
 20
112.85
 11
4.24147
 21
112.834
  0
LINE
  8
0
 10
4.24147
 20
112.834
 11
4.47882
 21
112.787
  0
LINE
  8
0
 10
4.47882
 20
112.787
 11
4.70796
 21
112.709
  0
LINE
  8
0
 10
4.70796
 20
112.709
 11
4.925
 21
112.602
  0
LINE
  8
0
 10
4.925
 20
112.602
 11
5.12621
 21
112.468
  0
LINE
  8
0
 10
5.12621
 20
112.468
 11
5.30815
 21
112.308
  0
LINE
  8
0
 10
5.30815
 20
112.308
 11
5.4677
 21
112.126
  0
LINE
  8
0
 10
5.4677
 20
112.126
 11
5.60215
 21
111.925
  0
LINE
  8
0
 10
5.60215
 20
111.925
 11
5.70918
 21
111.708
  0
LINE
  8
0
 10
5.70918
 20
111.708
 11
5.78696
 21
111.479
  0
LINE
  8
0
 10
5.78696
 20
111.479
 11
5.83417
 21
111.241
  0
LINE
  8
0
 10
5.83417
 20
111.241
 11
5.85
 21
111
  0
LINE
  8
0
 10
5.85
 20
111
 11
5.83417
 21
110.759
  0
LINE
  8
0
 10
5.83417
 20
110.759
 11
5.78696
 21
110.521
  0
LINE
  8
0
 10
5.78696
 20
110.521
 11
5.70918
 21
110.292
  0
LINE
  8
0
 10
5.70918
 20
110.292
 11
5.60215
 21
110.075
  0
LINE
  8
0
 10
5.60215
 20
110.075
 11
5.4677
 21
109.874
  0
LINE
  8
0
 10
5.4677
 20
109.874
 11
5.30815
 21
109.692
  0
LINE
  8
0
 10
5.30815
 20
109.692
 11
5.12621
 21
109.532
  0
LINE
  8
0
 10
5.12621
 20
109.532
 11
4.925
 21
109.398
  0
LINE
  8
0
 10
4.925
 20
109.398
 11
4.70796
 21
109.291
  0
LINE
  8
0
 10
4.70796
 20
109.291
 11
4.47882
 21
109.213
  0
LINE
  8
0
 10
4.47882
 20
109.213
 11
4.24147
 21
109.166
  0
LINE
  8
0
 10
4.24147
 20
109.166
 11
4
 21
109.15
  0
LINE
  8
0
 10
4
 20
109.15
 11
3.75853
 21
109.166
  0
LINE
  8
0
 10
3.75853
 20
109.166
 11
3.52118
 21
109.213
  0
LINE
  8
0
 10
3.52118
 20
109.213
 11
3.29204
 21
109.291
  0
LINE
  8
0
 10
3.29204
 20
109.291
 11
3.075
 21
109.398
  0
LINE
  8
0
 10
3.075
 20
109.398
 11
2.87379
 21
109.532
  0
LINE
  8
0
 10
2.87379
 20
109.532
 11
2.69185
 21
109.692
  0
LINE
  8
0
 10
2.69185
 20
109.692
 11
2.5323
 21
109.874
  0
LINE
  8
0
 10
2.5323
 20
109.874
 11
2.39785
 21
110.075
  0
LINE
  8
0
 10
2.39785
 20
110.075
 11
2.29082
 21
110.292
  0
LINE
  8
0
 10
2.29082
 20
110.292
 11
2.21304
 21
110.521
  0
LINE
  8
0
 10
2.21304
 20
110.521
 11
2.16583
 21
110.759
  0
LINE
  8
0
 10
2.16583
 20
110.759
 11
2.15
 21
111
  0
LINE
  8
0
 10
9.35
 20
25.67
 11
9.39278
 21
26.3226
  0
LINE
  8
0
 10
9.39278
 20
26.3226
 11
9.52037
 21
26.9641
  0
LINE
  8
0
 10
9.52037
 20
26.9641
 11
9.7306
 21
27.5834
  0
LINE
  8
0
 10
9.7306
 20
27.5834
 11
10.0199
 21
28.17
  0
LINE
  8
0
 10
10.0199
 20
28.17
 11
10.3832
 21
28.7138
  0
LINE
  8
0
 10
10.3832
 20
28.7138
 11
10.8145
 21
29.2055
  0
LINE
  8
0
 10
10.8145
 20
29.2055
 11
11.3062
 21
29.6368
  0
LINE
  8
0
 10
11.3062
 20
29.6368
 11
11.85
 21
30.0001
  0
LINE
  8
0
 10
11.85
 20
30.0001
 11
12.4366
 21
30.2894
  0
LINE
  8
0
 10
12.4366
 20
30.2894
 11
13.0559
 21
30.4996
  0
LINE
  8
0
 10
13.0559
 20
30.4996
 11
13.6974
 21
30.6272
  0
LINE
  8
0
 10
13.6974
 20
30.6272
 11
14.35
 21
30.67
  0
LINE
  8
0
 10
14.35
 20
30.67
 11
15.0026
 21
30.6272
  0
LINE
  8
0
 10
15.0026
 20
30.6272
 11
15.6441
 21
30.4996
  0
LINE
  8
0
 10
15.6441
 20
30.4996
 11
16.2634
 21
30.2894
  0
LINE
  8
0
 10
16.2634
 20
30.2894
 11
16.85
 21
30.0001
  0
LINE
  8
0
 10
16.85
 20
30.0001
 11
17.3938
 21
29.6368
  0
LINE
  8
0
 10
17.3938
 20
29.6368
 11
17.8855
 21
29.2055
  0
LINE
  8
0
 10
17.8855
 20
29.2055
 11
18.3168
 21
28.7138
  0
LINE
  8
0
 10
18.3168
 20
28.7138
 11
18.6801
 21
28.17
  0
LINE
  8
0
 10
18.6801
 20
28.17
 11
18.9694
 21
27.5834
  0
LINE
  8
0
 10
18.9694
 20
27.5834
 11
19.1796
 21
26.9641
  0
LINE
  8
0
 10
19.1796
 20
26.9641
 11
19.3072
 21
26.3226
  0
LINE
  8
0
 10
19.3072
 20
26.3226
 11
19.35
 21
25.67
  0
LINE
  8
0
 10
19.35
 20
25.67
 11
19.3072
 21
25.0174
  0
LINE
  8
0
 10
19.3072
 20
25.0174
 11
19.1796
 21
24.3759
  0
LINE
  8
0
 10
19.1796
 20
24.3759
 11
18.9694
 21
23.7566
  0
LINE
  8
0
 10
18.9694
 20
23.7566
 11
18.6801
 21
23.17
  0
LINE
  8
0
 10
18.6801
 20
23.17
 11
18.3168
 21
22.6262
  0
LINE
  8
0
 10
18.3168
 20
22.6262
 11
17.8855
 21
22.1345
  0
LINE
  8
0
 10
17.8855
 20
22.1345
 11
17.3938
 21
21.7032
  0
LINE
  8
0
 10
17.3938
 20
21.7032
 11
16.85
 21
21.3399
  0
LINE
  8
0
 10
16.85
 20
21.3399
 11
16.2634
 21
21.0506
  0
LINE
  8
0
 10
16.2634
 20
21.0506
 11
15.6441
 21
20.8404
  0
LINE
  8
0
 10
15.6441
 20
20.8404
 11
15.0026
 21
20.7128
  0
LINE
  8
0
 10
15.0026
 20
20.7128
 11
14.35
 21
20.67
  0
LINE
  8
0
 10
14.35
 20
20.67
 11
13.6974
 21
20.7128
  0
LINE
  8
0
 10
13.6974
 20
20.7128
 11
13.0559
 21
20.8404
  0
LINE
  8
0
 10
13.0559
 20
20.8404
 11
12.4366
 21
21.0506
  0
LINE
  8
0
 10
12.4366
 20
21.0506
 11
11.85
 21
21.3399
  0
LINE
  8
0
 10
11.85
 20
21.3399
 11
11.3062
 21
21.7032
  0
LINE
  8
0
 10
11.3062
 20
21.7032
 11
10.8145
 21
22.1345
  0
LINE
  8
0
 10
10.8145
 20
22.1345
 11
10.3832
 21
22.6262
  0
LINE
  8
0
 10
10.3832
 20
22.6262
 11
10.0199
 21
23.17
  0
LINE
  8
0
 10
10.0199
 20
23.17
 11
9.7306
 21
23.7566
  0
LINE
  8
0
 10
9.7306
 20
23.7566
 11
9.52037
 21
24.3759
  0
LINE
  8
0
 10
9.52037
 20
24.3759
 11
9.39278
 21
25.0174
  0
LINE
  8
0
 10
9.39278
 20
25.0174
 11
9.35
 21
25.67
  0
LINE
  8
0
 10
9.35
 20
43.67
 11
9.39278
 21
44.3226
  0
LINE
  8
0
 10
9.39278
 20
44.3226
 11
9.52037
 21
44.9641
  0
LINE
  8
0
 10
9.52037
 20
44.9641
 11
9.7306
 21
45.5834
  0
LINE
  8
0
 10
9.7306
 20
45.5834
 11
10.0199
 21
46.17
  0
LINE
  8
0
 10
10.0199
 20
46.17
 11
10.3832
 21
46.7138
  0
LINE
  8
0
 10
10.3832
 20
46.7138
 11
10.8145
 21
47.2055
  0
LINE
  8
0
 10
10.8145
 20
47.2055
 11
11.3062
 21
47.6368
  0
LINE
  8
0
 10
11.3062
 20
47.6368
 11
11.85
 21
48.0001
  0
LINE
  8
0
 10
11.85
 20
48.0001
 11
12.4366
 21
48.2894
  0
LINE
  8
0
 10
12.4366
 20
48.2894
 11
13.0559
 21
48.4996
  0
LINE
  8
0
 10
13.0559
 20
48.4996
 11
13.6974
 21
48.6272
  0
LINE
  8
0
 10
13.6974
 20
48.6272
 11
14.35
 21
48.67
  0
LINE
  8
0
 10
14.35
 20
48.67
 11
15.0026
 21
48.6272
  0
LINE
  8
0
 10
15.0026
 20
48.6272
 11
15.6441
 21
48.4996
  0
LINE
  8
0
 10
15.6441
 20
48.4996
 11
16.2634
 21
48.2894
  0
LINE
  8
0
 10
16.2634
 20
48.2894
 11
16.85
 21
48.0001
  0
LINE
  8
0
 10
16.85
 20
48.0001
 11
17.3938
 21
47.6368
  0
LINE
  8
0
 10
17.3938
 20
47.6368
 11
17.8855
 21
47.2055
  0
LINE
  8
0
 10
17.8855
 20
47.2055
 11
18.3168
 21
46.7138
  0
LINE
  8
0
 10
18.3168
 20
46.7138
 11
18.6801
 21
46.17
  0
LINE
  8
0
 10
18.6801
 20
46.17
 11
18.9694
 21
45.5834
  0
LINE
  8
0
 10
18.9694
 20
45.5834
 11
19.1796
 21
44.9641
  0
LINE
  8
0
 10
19.1796
 20
44.9641
 11
19.3072
 21
44.3226
  0
LINE
  8
0
 10
19.3072
 20
44.3226
 11
19.35
 21
43.67
  0
LINE
  8
0
 10
19.35
 20
43.67
 11
19.3072
 21
43.0174
  0
LINE
  8
0
 10
19.3072
 20
43.0174
 11
19.1796
 21
42.3759
  0
LINE
  8
0
 10
19.1796
 20
42.3759
 11
18.9694
 21
41.7566
  0
LINE
  8
0
 10
18.9694
 20
41.7566
 11
18.6801
 21
41.17
  0
LINE
  8
0
 10
18.6801
 20
41.17
 11
18.3168
 21
40.6262
  0
LINE
  8
0
 10
18.3168
 20
40.6262
 11
17.8855
 21
40.1345
  0
LINE
  8
0
 10
17.8855
 20
40.1345
 11
17.3938
 21
39.7032
  0
LINE
  8
0
 10
17.3938
 20
39.7032
 11
16.85
 21
39.3399
  0
LINE
  8
0
 10
16.85
 20
39.3399
 11
16.2634
 21
39.0506
  0
LINE
  8
0
 10
16.2634
 20
39.0506
 11
15.6441
 21
38.8404
  0
LINE
  8
0
 10
15.6441
 20
38.8404
 11
15.0026
 21
38.7128
  0
LINE
  8
0
 10
15.0026
 20
38.7128
 11
14.35
 21
38.67
  0
LINE
  8
0
 10
14.35
 20
38.67
 11
13.6974
 21
38.7128
  0
LINE
  8
0
 10
13.6974
 20
38.7128
 11
13.0559
 21
38.8404
  0
LINE
  8
0
 10
13.0559
 20
38.8404
 11
12.4366
 21
39.0506
  0
LINE
  8
0
 10
12.4366
 20
39.0506
 11
11.85
 21
39.3399
  0
LINE
  8
0
 10
11.85
 20
39.3399
 11
11.3062
 21
39.7032
  0
LINE
  8
0
 10
11.3062
 20
39.7032
 11
10.8145
 21
40.1345
  0
LINE
  8
0
 10
10.8145
 20
40.1345
 11
10.3832
 21
40.6262
  0
LINE
  8
0
 10
10.3832
 20
40.6262
 11
10.0199
 21
41.17
  0
LINE
  8
0
 10
10.0199
 20
41.17
 11
9.7306
 21
41.7566
  0
LINE
  8
0
 10
9.7306
 20
41.7566
 11
9.52037
 21
42.3759
  0
LINE
  8
0
 10
9.52037
 20
42.3759
 11
9.39278
 21
43.0174
  0
LINE
  8
0
 10
9.39278
 20
43.0174
 11
9.35
 21
43.67
  0
LINE
  8
0
 10
15.45
 20
64.42
 11
15.45
 21
86.42
  0
LINE
  8
0
 10
15.45
 20
86.42
 11
42.45
 21
86.42
  0
LINE
  8
0
 10
42.45
 20
86.42
 11
42.45
 21
64.42
  0
LINE
  8
0
 10
42.45
 20
64.42
 11
15.45
 21
64.42
  0
LINE
  8
0
 10
22.4
 20
107
 11
22.4
 21
117
  0
LINE
  8
0
 10
22.4
 20
117
 11
49.4
 21
117
  0
LINE
  8
0
 10
49.4
 20
117
 11
49.4
 21
107
  0
LINE
  8
0
 10
49.4
 20
107
 11
22.4
 21
107
  0
LINE
  8
0
 10
27.35
 20
25.67
 11
27.3928
 21
26.3226
  0
LINE
  8
0
 10
27.3928
 20
26.3226
 11
27.5204
 21
26.9641
  0
LINE
  8
0
 10
27.5204
 20
26.9641
 11
27.7306
 21
27.5834
  0
LINE
  8
0
 10
27.7306
 20
27.5834
 11
28.0199
 21
28.17
  0
LINE
  8
0
 10
28.0199
 20
28.17
 11
28.3832
 21
28.7138
  0
LINE
  8
0
 10
28.3832
 20
28.7138
 11
28.8145
 21
29.2055
  0
LINE
  8
0
 10
28.8145
 20
29.2055
 11
29.3062
 21
29.6368
  0
LINE
  8
0
 10
29.3062
 20
29.6368
 11
29.85
 21
30.0001
  0
LINE
  8
0
 10
29.85
 20
30.0001
 11
30.4366
 21
30.2894
  0
LINE
  8
0
 10
30.4366
 20
30.2894
 11
31.0559
 21
30.4996
  0
LINE
  8
0
 10
31.0559
 20
30.4996
 11
31.6974
 21
30.6272
  0
LINE
  8
0
 10
31.6974
 20
30.6272
 11
32.35
 21
30.67
  0
LINE
  8
0
 10
32.35
 20
30.67
 11
33.0026
 21
30.6272
  0
LINE
  8
0
 10
33.0026
 20
30.6272
 11
33.6441
 21
30.4996
  0
LINE
  8
0
 10
33.6441
 20
30.4996
 11
34.2634
 21
30.2894
  0
LINE
  8
0
 10
34.2634
 20
30.2894
 11
34.85
 21
30.0001
  0
LINE
  8
0
 10
34.85
 20
30.0001
 11
35.3938
 21
29.6368
  0
LINE
  8
0
 10
35.3938
 20
29.6368
 11
35.8855
 21
29.2055
  0
LINE
  8
0
 10
35.8855
 20
29.2055
 11
36.3168
 21
28.7138
  0
LINE
  8
0
 10
36.3168
 20
28.7138
 11
36.6801
 21
28.17
  0
LINE
  8
0
 10
36.6801
 20
28.17
 11
36.9694
 21
27.5834
  0
LINE
  8
0
 10
36.9694
 20
27.5834
 11
37.1796
 21
26.9641
  0
LINE
  8
0
 10
37.1796
 20
26.9641
 11
37.3072
 21
26.3226
  0
LINE
  8
0
 10
37.3072
 20
26.3226
 11
37.35
 21
25.67
  0
LINE
  8
0
 10
37.35
 20
25.67
 11
37.3072
 21
25.0174
  0
LINE
  8
0
 10
37.3072
 20
25.0174
 11
37.1796
 21
24.3759
  0
LINE
  8
0
 10
37.1796
 20
24.3759
 11
36.9694
 21
23.7566
  0
LINE
  8
0
 10
36.9694
 20
23.7566
 11
36.6801
 21
23.17
  0
LINE
  8
0
 10
36.6801
 20
23.17
 11
36.3168
 21
22.6262
  0
LINE
  8
0
 10
36.3168
 20
22.6262
 11
35.8855
 21
22.1345
  0
LINE
  8
0
 10
35.8855
 20
22.1345
 11
35.3938
 21
21.7032
  0
LINE
  8
0
 10
35.3938
 20
21.7032
 11
34.85
 21
21.3399
  0
LINE
  8
0
 10
34.85
 20
21.3399
 11
34.2634
 21
21.0506
  0
LINE
  8
0
 10
34.2634
 20
21.0506
 11
33.6441
 21
20.8404
  0
LINE
  8
0
 10
33.6441
 20
20.8404
 11
33.0026
 21
20.7128
  0
LINE
  8
0
 10
33.0026
 20
20.7128
 11
32.35
 21
20.67
  0
LINE
  8
0
 10
32.35
 20
20.67
 11
31.6974
 21
20.7128
  0
LINE
  8
0
 10
31.6974
 20
20.7128
 11
31.0559
 21
20.8404
  0
LINE
  8
0
 10
31.0559
 20
20.8404
 11
30.4366
 21
21.0506
  0
LINE
  8
0
 10
30.4366
 20
21.0506
 11
29.85
 21
21.3399
  0
LINE
  8
0
 10
29.85
 20
21.3399
 11
29.3062
 21
21.7032
  0
LINE
  8
0
 10
29.3062
 20
21.7032
 11
28.8145
 21
22.1345
  0
LINE
  8
0
 10
28.8145
 20
22.1345
 11
28.3832
 21
22.6262
  0
LINE
  8
0
 10
28.3832
 20
22.6262
 11
28.0199
 21
23.17
  0
LINE
  8
0
 10
28.0199
 20
23.17
 11
27.7306
 21
23.7566
  0
LINE
  8
0
 10
27.7306
 20
23.7566
 11
27.5204
 21
24.3759
  0
LINE
  8
0
 10
27.5204
 20
24.3759
 11
27.3928
 21
25.0174
  0
LINE
  8
0
 10
27.3928
 20
25.0174
 11
27.35
 21
25.67
  0
LINE
  8
0
 10
27.35
 20
43.67
 11
27.3928
 21
44.3226
  0
LINE
  8
0
 10
27.3928
 20
44.3226
 11
27.5204
 21
44.9641
  0
LINE
  8
0
 10
27.5204
 20
44.9641
 11
27.7306
 21
45.5834
  0
LINE
  8
0
 10
27.7306
 20
45.5834
 11
28.0199
 21
46.17
  0
LINE
  8
0
 10
28.0199
 20
46.17
 11
28.3832
 21
46.7138
  0
LINE
  8
0
 10
28.3832
 20
46.7138
 11
28.8145
 21
47.2055
  0
LINE
  8
0
 10
28.8145
 20
47.2055
 11
29.3062
 21
47.6368
  0
LINE
  8
0
 10
29.3062
 20
47.6368
 11
29.85
 21
48.0001
  0
LINE
  8
0
 10
29.85
 20
48.0001
 11
30.4366
 21
48.2894
  0
LINE
  8
0
 10
30.4366
 20
48.2894
 11
31.0559
 21
48.4996
  0
LINE
  8
0
 10
31.0559
 20
48.4996
 11
31.6974
 21
48.6272
  0
LINE
  8
0
 10
31.6974
 20
48.6272
 11
32.35
 21
48.67
  0
LINE
  8
0
 10
32.35
 20
48.67
 11
33.0026
 21
48.6272
  0
LINE
  8
0
 10
33.0026
 20
48.6272
 11
33.6441
 21
48.4996
  0
LINE
  8
0
 10
33.6441
 20
48.4996
 11
34.2634
 21
48.2894
  0
LINE
  8
0
 10
34.2634
 20
48.2894
 11
34.85
 21
48.0001
  0
LINE
  8
0
 10
34.85
 20
48.0001
 11
35.3938
 21
47.6368
  0
LINE
  8
0
 10
35.3938
 20
47.6368
 11
35.8855
 21
47.2055
  0
LINE
  8
0
 10
35.8855
 20
47.2055
 11
36.3168
 21
46.7138
  0
LINE
  8
0
 10
36.3168
 20
46.7138
 11
36.6801
 21
46.17
  0
LINE
  8
0
 10
36.6801
 20
46.17
 11
36.9694
 21
45.5834
  0
LINE
  8
0
 10
36.9694
 20
45.5834
 11
37.1796
 21
44.9641
  0
LINE
  8
0
 10
37.1796
 20
44.9641
 11
37.3072
 21
44.3226
  0
LINE
  8
0
 10
37.3072
 20
44.3226
 11
37.35
 21
43.67
  0
LINE
  8
0
 10
37.35
 20
43.67
 11
37.3072
 21
43.0174
  0
LINE
  8
0
 10
37.3072
 20
43.0174
 11
37.1796
 21
42.3759
  0
LINE
  8
0
 10
37.1796
 20
42.3759
 11
36.9694
 21
41.7566
  0
LINE
  8
0
 10
36.9694
 20
41.7566
 11
36.6801
 21
41.17
  0
LINE
  8
0
 10
36.6801
 20
41.17
 11
36.3168
 21
40.6262
  0
LINE
  8
0
 10
36.3168
 20
40.6262
 11
35.8855
 21
40.1345
  0
LINE
  8
0
 10
35.8855
 20
40.1345
 11
35.3938
 21
39.7032
  0
LINE
  8
0
 10
35.3938
 20
39.7032
 11
34.85
 21
39.3399
  0
LINE
  8
0
 10
34.85
 20
39.3399
 11
34.2634
 21
39.0506
  0
LINE
  8
0
 10
34.2634
 20
39.0506
 11
33.6441
 21
38.8404
  0
LINE
  8
0
 10
33.6441
 20
38.8404
 11
33.0026
 21
38.7128
  0
LINE
  8
0
 10
33.0026
 20
38.7128
 11
32.35
 21
38.67
  0
LINE
  8
0
 10
32.35
 20
38.67
 11
31.6974
 21
38.7128
  0
LINE
  8
0
 10
31.6974
 20
38.7128
 11
31.0559
 21
38.8404
  0
LINE
  8
0
 10
31.0559
 20
38.8404
 11
30.4366
 21
39.0506
  0
LINE
  8
0
 10
30.4366
 20
39.0506
 11
29.85
 21
39.3399
  0
LINE
  8
0
 10
29.85
 20
39.3399
 11
29.3062
 21
39.7032
  0
LINE
  8
0
 10
29.3062
 20
39.7032
 11
28.8145
 21
40.1345
  0
LINE
  8
0
 10
28.8145
 20
40.1345
 11
28.3832
 21
40.6262
  0
LINE
  8
0
 10
28.3832
 20
40.6262
 11
28.0199
 21
41.17
  0
LINE
  8
0
 10
28.0199
 20
41.17
 11
27.7306
 21
41.7566
  0
LINE
  8
0
 10
27.7306
 20
41.7566
 11
27.5204
 21
42.3759
  0
LINE
  8
0
 10
27.5204
 20
42.3759
 11
27.3928
 21
43.0174
  0
LINE
  8
0
 10
27.3928
 20
43.0174
 11
27.35
 21
43.67
  0
LINE
  8
0
 10
45.35
 20
25.67
 11
45.3928
 21
26.3226
  0
LINE
  8
0
 10
45.3928
 20
26.3226
 11
45.5204
 21
26.9641
  0
LINE
  8
0
 10
45.5204
 20
26.9641
 11
45.7306
 21
27.5834
  0
LINE
  8
0
 10
45.7306
 20
27.5834
 11
46.0199
 21
28.17
  0
LINE
  8
0
 10
46.0199
 20
28.17
 11
46.3832
 21
28.7138
  0
LINE
  8
0
 10
46.3832
 20
28.7138
 11
46.8145
 21
29.2055
  0
LINE
  8
0
 10
46.8145
 20
29.2055
 11
47.3062
 21
29.6368
  0
LINE
  8
0
 10
47.3062
 20
29.6368
 11
47.85
 21
30.0001
  0
LINE
  8
0
 10
47.85
 20
30.0001
 11
48.4366
 21
30.2894
  0
LINE
  8
0
 10
48.4366
 20
30.2894
 11
49.0559
 21
30.4996
  0
LINE
  8
0
 10
49.0559
 20
30.4996
 11
49.6974
 21
30.6272
  0
LINE
  8
0
 10
49.6974
 20
30.6272
 11
50.35
 21
30.67
  0
LINE
  8
0
 10
50.35
 20
30.67
 11
51.0026
 21
30.6272
  0
LINE
  8
0
 10
51.0026
 20
30.6272
 11
51.6441
 21
30.4996
  0
LINE
  8
0
 10
51.6441
 20
30.4996
 11
52.2634
 21
30.2894
  0
LINE
  8
0
 10
52.2634
 20
30.2894
 11
52.85
 21
30.0001
  0
LINE
  8
0
 10
52.85
 20
30.0001
 11
53.3938
 21
29.6368
  0
LINE
  8
0
 10
53.3938
 20
29.6368
 11
53.8855
 21
29.2055
  0
LINE
  8
0
 10
53.8855
 20
29.2055
 11
54.3168
 21
28.7138
  0
LINE
  8
0
 10
54.3168
 20
28.7138
 11
54.6801
 21
28.17
  0
LINE
  8
0
 10
54.6801
 20
28.17
 11
54.9694
 21
27.5834
  0
LINE
  8
0
 10
54.9694
 20
27.5834
 11
55.1796
 21
26.9641
  0
LINE
  8
0
 10
55.1796
 20
26.9641
 11
55.3072
 21
26.3226
  0
LINE
  8
0
 10
55.3072
 20
26.3226
 11
55.35
 21
25.67
  0
LINE
  8
0
 10
55.35
 20
25.67
 11
55.3072
 21
25.0174
  0
LINE
  8
0
 10
55.3072
 20
25.0174
 11
55.1796
 21
24.3759
  0
LINE
  8
0
 10
55.1796
 20
24.3759
 11
54.9694
 21
23.7566
  0
LINE
  8
0
 10
54.9694
 20
23.7566
 11
54.6801
 21
23.17
  0
LINE
  8
0
 10
54.6801
 20
23.17
 11
54.3168
 21
22.6262
  0
LINE
  8
0
 10
54.3168
 20
22.6262
 11
53.8855
 21
22.1345
  0
LINE
  8
0
 10
53.8855
 20
22.1345
 11
53.3938
 21
21.7032
  0
LINE
  8
0
 10
53.3938
 20
21.7032
 11
52.85
 21
21.3399
  0
LINE
  8
0
 10
52.85
 20
21.3399
 11
52.2634
 21
21.0506
  0
LINE
  8
0
 10
52.2634
 20
21.0506
 11
51.6441
 21
20.8404
  0
LINE
  8
0
 10
51.6441
 20
20.8404
 11
51.0026
 21
20.7128
  0
LINE
  8
0
 10
51.0026
 20
20.7128
 11
50.35
 21
20.67
  0
LINE
  8
0
 10
50.35
 20
20.67
 11
49.6974
 21
20.7128
  0
LINE
  8
0
 10
49.6974
 20
20.7128
 11
49.0559
 21
20.8404
  0
LINE
  8
0
 10
49.0559
 20
20.8404
 11
48.4366
 21
21.0506
  0
LINE
  8
0
 10
48.4366
 20
21.0506
 11
47.85
 21
21.3399
  0
LINE
  8
0
 10
47.85
 20
21.3399
 11
47.3062
 21
21.7032
  0
LINE
  8
0
 10
47.3062
 20
21.7032
 11
46.8145
 21
22.1345
  0
LINE
  8
0
 10
46.8145
 20
22.1345
 11
46.3832
 21
22.6262
  0
LINE
  8
0
 10
46.3832
 20
22.6262
 11
46.0199
 21
23.17
  0
LINE
  8
0
 10
46.0199
 20
23.17
 11
45.7306
 21
23.7566
  0
LINE
  8
0
 10
45.7306
 20
23.7566
 11
45.5204
 21
24.3759
  0
LINE
  8
0
 10
45.5204
 20
24.3759
 11
45.3928
 21
25.0174
  0
LINE
  8
0
 10
45.3928
 20
25.0174
 11
45.35
 21
25.67
  0
LINE
  8
0
 10
45.35
 20
43.67
 11
45.3928
 21
44.3226
  0
LINE
  8
0
 10
45.3928
 20
44.3226
 11
45.5204
 21
44.9641
  0
LINE
  8
0
 10
45.5204
 20
44.9641
 11
45.7306
 21
45.5834
  0
LINE
  8
0
 10
45.7306
 20
45.5834
 11
46.0199
 21
46.17
  0
LINE
  8
0
 10
46.0199
 20
46.17
 11
46.3832
 21
46.7138
  0
LINE
  8
0
 10
46.3832
 20
46.7138
 11
46.8145
 21
47.2055
  0
LINE
  8
0
 10
46.8145
 20
47.2055
 11
47.3062
 21
47.6368
  0
LINE
  8
0
 10
47.3062
 20
47.6368
 11
47.85
 21
48.0001
  0
LINE
  8
0
 10
47.85
 20
48.0001
 11
48.4366
 21
48.2894
  0
LINE
  8
0
 10
48.4366
 20
48.2894
 11
49.0559
 21
48.4996
  0
LINE
  8
0
 10
49.0559
 20
48.4996
 11
49.6974
 21
48.6272
  0
LINE
  8
0
 10
49.6974
 20
48.6272
 11
50.35
 21
48.67
  0
LINE
  8
0
 10
50.35
 20
48.67
 11
51.0026
 21
48.6272
  0
LINE
  8
0
 10
51.0026
 20
48.6272
 11
51.6441
 21
48.4996
  0
LINE
  8
0
 10
51.6441
 20
48.4996
 11
52.2634
 21
48.2894
  0
LINE
  8
0
 10
52.2634
 20
48.2894
 11
52.85
 21
48.0001
  0
LINE
  8
0
 10
52.85
 20
48.0001
 11
53.3938
 21
47.6368
  0
LINE
  8
0
 10
53.3938
 20
47.6368
 11
53.8855
 21
47.2055
  0
LINE
  8
0
 10
53.8855
 20
47.2055
 11
54.3168
 21
46.7138
  0
LINE
  8
0
 10
54.3168
 20
46.7138
 11
54.6801
 21
46.17
  0
LINE
  8
0
 10
54.6801
 20
46.17
 11
54.9694
 21
45.5834
  0
LINE
  8
0
 10
54.9694
 20
45.5834
 11
55.1796
 21
44.9641
  0
LINE
  8
0
 10
55.1796
 20
44.9641
 11
55.3072
 21
44.3226
  0
LINE
  8
0
 10
55.3072
 20
44.3226
 11
55.35
 21
43.67
  0
LINE
  8
0
 10
55.35
 20
43.67
 11
55.3072
 21
43.0174
  0
LINE
  8
0
 10
55.3072
 20
43.0174
 11
55.1796
 21
42.3759
  0
LINE
  8
0
 10
55.1796
 20
42.3759
 11
54.9694
 21
41.7566
  0
LINE
  8
0
 10
54.9694
 20
41.7566
 11
54.6801
 21
41.17
  0
LINE
  8
0
 10
54.6801
 20
41.17
 11
54.3168
 21
40.6262
  0
LINE
  8
0
 10
54.3168
 20
40.6262
 11
53.8855
 21
40.1345
  0
LINE
  8
0
 10
53.8855
 20
40.1345
 11
53.3938
 21
39.7032
  0
LINE
  8
0
 10
53.3938
 20
39.7032
 11
52.85
 21
39.3399
  0
LINE
  8
0
 10
52.85
 20
39.3399
 11
52.2634
 21
39.0506
  0
LINE
  8
0
 10
52.2634
 20
39.0506
 11
51.6441
 21
38.8404
  0
LINE
  8
0
 10
51.6441
 20
38.8404
 11
51.0026
 21
38.7128
  0
LINE
  8
0
 10
51.0026
 20
38.7128
 11
50.35
 21
38.67
  0
LINE
  8
0
 10
50.35
 20
38.67
 11
49.6974
 21
38.7128
  0
LINE
  8
0
 10
49.6974
 20
38.7128
 11
49.0559
 21
38.8404
  0
LINE
  8
0
 10
49.0559
 20
38.8404
 11
48.4366
 21
39.0506
  0
LINE
  8
0
 10
48.4366
 20
39.0506
 11
47.85
 21
39.3399
  0
LINE
  8
0
 10
47.85
 20
39.3399
 11
47.3062
 21
39.7032
  0
LINE
  8
0
 10
47.3062
 20
39.7032
 11
46.8145
 21
40.1345
  0
LINE
  8
0
 10
46.8145
 20
40.1345
 11
46.3832
 21
40.6262
  0
LINE
  8
0
 10
46.3832
 20
40.6262
 11
46.0199
 21
41.17
  0
LINE
  8
0
 10
46.0199
 20
41.17
 11
45.7306
 21
41.7566
  0
LINE
  8
0
 10
45.7306
 20
41.7566
 11
45.5204
 21
42.3759
  0
LINE
  8
0
 10
45.5204
 20
42.3759
 11
45.3928
 21
43.0174
  0
LINE
  8
0
 10
45.3928
 20
43.0174
 11
45.35
 21
43.67
  0
LINE
  8
0
 10
45.35
 20
61.67
 11
45.3928
 21
62.3226
  0
LINE
  8
0
 10
45.3928
 20
62.3226
 11
45.5204
 21
62.9641
  0
LINE
  8
0
 10
45.5204
 20
62.9641
 11
45.7306
 21
63.5834
  0
LINE
  8
0
 10
45.7306
 20
63.5834
 11
46.0199
 21
64.17
  0
LINE
  8
0
 10
46.0199
 20
64.17
 11
46.3832
 21
64.7138
  0
LINE
  8
0
 10
46.3832
 20
64.7138
 11
46.8145
 21
65.2055
  0
LINE
  8
0
 10
46.8145
 20
65.2055
 11
47.3062
 21
65.6368
  0
LINE
  8
0
 10
47.3062
 20
65.6368
 11
47.85
 21
66.0001
  0
LINE
  8
0
 10
47.85
 20
66.0001
 11
48.4366
 21
66.2894
  0
LINE
  8
0
 10
48.4366
 20
66.2894
 11
49.0559
 21
66.4996
  0
LINE
  8
0
 10
49.0559
 20
66.4996
 11
49.6974
 21
66.6272
  0
LINE
  8
0
 10
49.6974
 20
66.6272
 11
50.35
 21
66.67
  0
LINE
  8
0
 10
50.35
 20
66.67
 11
51.0026
 21
66.6272
  0
LINE
  8
0
 10
51.0026
 20
66.6272
 11
51.6441
 21
66.4996
  0
LINE
  8
0
 10
51.6441
 20
66.4996
 11
52.2634
 21
66.2894
  0
LINE
  8
0
 10
52.2634
 20
66.2894
 11
52.85
 21
66.0001
  0
LINE
  8
0
 10
52.85
 20
66.0001
 11
53.3938
 21
65.6368
  0
LINE
  8
0
 10
53.3938
 20
65.6368
 11
53.8855
 21
65.2055
  0
LINE
  8
0
 10
53.8855
 20
65.2055
 11
54.3168
 21
64.7138
  0
LINE
  8
0
 10
54.3168
 20
64.7138
 11
54.6801
 21
64.17
  0
LINE
  8
0
 10
54.6801
 20
64.17
 11
54.9694
 21
63.5834
  0
LINE
  8
0
 10
54.9694
 20
63.5834
 11
55.1796
 21
62.9641
  0
LINE
  8
0
 10
55.1796
 20
62.9641
 11
55.3072
 21
62.3226
  0
LINE
  8
0
 10
55.3072
 20
62.3226
 11
55.35
 21
61.67
  0
LINE
  8
0
 10
55.35
 20
61.67
 11
55.3072
 21
61.0174
  0
LINE
  8
0
 10
55.3072
 20
61.0174
 11
55.1796
 21
60.3759
  0
LINE
  8
0
 10
55.1796
 20
60.3759
 11
54.9694
 21
59.7566
  0
LINE
  8
0
 10
54.9694
 20
59.7566
 11
54.6801
 21
59.17
  0
LINE
  8
0
 10
54.6801
 20
59.17
 11
54.3168
 21
58.6262
  0
LINE
  8
0
 10
54.3168
 20
58.6262
 11
53.8855
 21
58.1345
  0
LINE
  8
0
 10
53.8855
 20
58.1345
 11
53.3938
 21
57.7032
  0
LINE
  8
0
 10
53.3938
 20
57.7032
 11
52.85
 21
57.3399
  0
LINE
  8
0
 10
52.85
 20
57.3399
 11
52.2634
 21
57.0506
  0
LINE
  8
0
 10
52.2634
 20
57.0506
 11
51.6441
 21
56.8404
  0
LINE
  8
0
 10
51.6441
 20
56.8404
 11
51.0026
 21
56.7128
  0
LINE
  8
0
 10
51.0026
 20
56.7128
 11
50.35
 21
56.67
  0
LINE
  8
0
 10
50.35
 20
56.67
 11
49.6974
 21
56.7128
  0
LINE
  8
0
 10
49.6974
 20
56.7128
 11
49.0559
 21
56.8404
  0
LINE
  8
0
 10
49.0559
 20
56.8404
 11
48.4366
 21
57.0506
  0
LINE
  8
0
 10
48.4366
 20
57.0506
 11
47.85
 21
57.3399
  0
LINE
  8
0
 10
47.85
 20
57.3399
 11
47.3062
 21
57.7032
  0
LINE
  8
0
 10
47.3062
 20
57.7032
 11
46.8145
 21
58.1345
  0
LINE
  8
0
 10
46.8145
 20
58.1345
 11
46.3832
 21
58.6262
  0
LINE
  8
0
 10
46.3832
 20
58.6262
 11
46.0199
 21
59.17
  0
LINE
  8
0
 10
46.0199
 20
59.17
 11
45.7306
 21
59.7566
  0
LINE
  8
0
 10
45.7306
 20
59.7566
 11
45.5204
 21
60.3759
  0
LINE
  8
0
 10
45.5204
 20
60.3759
 11
45.3928
 21
61.0174
  0
LINE
  8
0
 10
45.3928
 20
61.0174
 11
45.35
 21
61.67
  0
LINE
  8
0
 10
54.95
 20
71.75
 11
54.95
 21
83.75
  0
LINE
  8
0
 10
54.95
 20
83.75
 11
62.95
 21
83.75
  0
LINE
  8
0
 10
62.95
 20
83.75
 11
62.95
 21
71.75
  0
LINE
  8
0
 10
62.95
 20
71.75
 11
54.95
 21
71.75
  0
LINE
  8
0
 10
62.1
 20
86.95
 11
62.112
 21
87.1327
  0
LINE
  8
0
 10
62.112
 20
87.1327
 11
62.1477
 21
87.3123
  0
LINE
  8
0
 10
62.1477
 20
87.3123
 11
62.2066
 21
87.4858
  0
LINE
  8
0
 10
62.2066
 20
87.4858
 11
62.2876
 21
87.65
  0
LINE
  8
0
 10
62.2876
 20
87.65
 11
62.3893
 21
87.8023
  0
LINE
  8
0
 10
62.3893
 20
87.8023
 11
62.51
 21
87.9399
  0
LINE
  8
0
 10
62.51
 20
87.9399
 11
62.6477
 21
88.0607
  0
LINE
  8
0
 10
62.6477
 20
88.0607
 11
62.8
 21
88.1624
  0
LINE
  8
0
 10
62.8
 20
88.1624
 11
62.9642
 21
88.2434
  0
LINE
  8
0
 10
62.9642
 20
88.2434
 11
63.1377
 21
88.3023
  0
LINE
  8
0
 10
63.1377
 20
88.3023
 11
63.3173
 21
88.338
  0
LINE
  8
0
 10
63.3173
 20
88.338
 11
63.5
 21
88.35
  0
LINE
  8
0
 10
63.5
 20
88.35
 11
63.6827
 21
88.338
  0
LINE
  8
0
 10
63.6827
 20
88.338
 11
63.8623
 21
88.3023
  0
LINE
  8
0
 10
63.8623
 20
88.3023
 11
64.0358
 21
88.2434
  0
LINE
  8
0
 10
64.0358
 20
88.2434
 11
64.2
 21
88.1624
  0
LINE
  8
0
 10
64.2
 20
88.1624
 11
64.3523
 21
88.0607
  0
LINE
  8
0
 10
64.3523
 20
88.0607
 11
64.4899
 21
87.9399
  0
LINE
  8
0
 10
64.4899
 20
87.9399
 11
64.6107
 21
87.8023
  0
LINE
  8
0
 10
64.6107
 20
87.8023
 11
64.7124
 21
87.65
  0
LINE
  8
0
 10
64.7124
 20
87.65
 11
64.7934
 21
87.4858
  0
LINE
  8
0
 10
64.7934
 20
87.4858
 11
64.8523
 21
87.3123
  0
LINE
  8
0
 10
64.8523
 20
87.3123
 11
64.888
 21
87.1327
  0
LINE
  8
0
 10
64.888
 20
87.1327
 11
64.9
 21
86.95
  0
LINE
  8
0
 10
64.9
 20
86.95
 11
64.888
 21
86.7673
  0
LINE
  8
0
 10
64.888
 20
86.7673
 11
64.8523
 21
86.5877
  0
LINE
  8
0
 10
64.8523
 20
86.5877
 11
64.7934
 21
86.4142
  0
LINE
  8
0
 10
64.7934
 20
86.4142
 11
64.7124
 21
86.25
  0
LINE
  8
0
 10
64.7124
 20
86.25
 11
64.6107
 21
86.0977
  0
LINE
  8
0
 10
64.6107
 20
86.0977
 11
64.4899
 21
85.96
  0
LINE
  8
0
 10
64.4899
 20
85.96
 11
64.3523
 21
85.8393
  0
LINE
  8
0
 10
64.3523
 20
85.8393
 11
64.2
 21
85.7376
  0
LINE
  8
0
 10
64.2
 20
85.7376
 11
64.0358
 21
85.6566
  0
LINE
  8
0
 10
64.0358
 20
85.6566
 11
63.8623
 21
85.5977
  0
LINE
  8
0
 10
63.8623
 20
85.5977
 11
63.6827
 21
85.562
  0
LINE
  8
0
 10
63.6827
 20
85.562
 11
63.5
 21
85.55
  0
LINE
  8
0
 10
63.5
 20
85.55
 11
63.3173
 21
85.562
  0
LINE
  8
0
 10
63.3173
 20
85.562
 11
63.1377
 21
85.5977
  0
LINE
  8
0
 10
63.1377
 20
85.5977
 11
62.9642
 21
85.6566
  0
LINE
  8
0
 10
62.9642
 20
85.6566
 11
62.8
 21
85.7376
  0
LINE
  8
0
 10
62.8
 20
85.7376
 11
62.6477
 21
85.8393
  0
LINE
  8
0
 10
62.6477
 20
85.8393
 11
62.51
 21
85.96
  0
LINE
  8
0
 10
62.51
 20
85.96
 11
62.3893
 21
86.0977
  0
LINE
  8
0
 10
62.3893
 20
86.0977
 11
62.2876
 21
86.25
  0
LINE
  8
0
 10
62.2876
 20
86.25
 11
62.2066
 21
86.4142
  0
LINE
  8
0
 10
62.2066
 20
86.4142
 11
62.1477
 21
86.5877
  0
LINE
  8
0
 10
62.1477
 20
86.5877
 11
62.112
 21
86.7673
  0
LINE
  8
0
 10
62.112
 20
86.7673
 11
62.1
 21
86.95
  0
LINE
  8
0
 10
62.1
 20
89.9
 11
62.112
 21
90.0827
  0
LINE
  8
0
 10
62.112
 20
90.0827
 11
62.1477
 21
90.2623
  0
LINE
  8
0
 10
62.1477
 20
90.2623
 11
62.2066
 21
90.4358
  0
LINE
  8
0
 10
62.2066
 20
90.4358
 11
62.2876
 21
90.6
  0
LINE
  8
0
 10
62.2876
 20
90.6
 11
62.3893
 21
90.7523
  0
LINE
  8
0
 10
62.3893
 20
90.7523
 11
62.51
 21
90.8899
  0
LINE
  8
0
 10
62.51
 20
90.8899
 11
62.6477
 21
91.0107
  0
LINE
  8
0
 10
62.6477
 20
91.0107
 11
62.8
 21
91.1124
  0
LINE
  8
0
 10
62.8
 20
91.1124
 11
62.9642
 21
91.1934
  0
LINE
  8
0
 10
62.9642
 20
91.1934
 11
63.1377
 21
91.2523
  0
LINE
  8
0
 10
63.1377
 20
91.2523
 11
63.3173
 21
91.288
  0
LINE
  8
0
 10
63.3173
 20
91.288
 11
63.5
 21
91.3
  0
LINE
  8
0
 10
63.5
 20
91.3
 11
63.6827
 21
91.288
  0
LINE
  8
0
 10
63.6827
 20
91.288
 11
63.8623
 21
91.2523
  0
LINE
  8
0
 10
63.8623
 20
91.2523
 11
64.0358
 21
91.1934
  0
LINE
  8
0
 10
64.0358
 20
91.1934
 11
64.2
 21
91.1124
  0
LINE
  8
0
 10
64.2
 20
91.1124
 11
64.3523
 21
91.0107
  0
LINE
  8
0
 10
64.3523
 20
91.0107
 11
64.4899
 21
90.8899
  0
LINE
  8
0
 10
64.4899
 20
90.8899
 11
64.6107
 21
90.7523
  0
LINE
  8
0
 10
64.6107
 20
90.7523
 11
64.7124
 21
90.6
  0
LINE
  8
0
 10
64.7124
 20
90.6
 11
64.7934
 21
90.4358
  0
LINE
  8
0
 10
64.7934
 20
90.4358
 11
64.8523
 21
90.2623
  0
LINE
  8
0
 10
64.8523
 20
90.2623
 11
64.888
 21
90.0827
  0
LINE
  8
0
 10
64.888
 20
90.0827
 11
64.9
 21
89.9
  0
LINE
  8
0
 10
64.9
 20
89.9
 11
64.888
 21
89.7173
  0
LINE
  8
0
 10
64.888
 20
89.7173
 11
64.8523
 21
89.5377
  0
LINE
  8
0
 10
64.8523
 20
89.5377
 11
64.7934
 21
89.3642
  0
LINE
  8
0
 10
64.7934
 20
89.3642
 11
64.7124
 21
89.2
  0
LINE
  8
0
 10
64.7124
 20
89.2
 11
64.6107
 21
89.0477
  0
LINE
  8
0
 10
64.6107
 20
89.0477
 11
64.4899
 21
88.9101
  0
LINE
  8
0
 10
64.4899
 20
88.9101
 11
64.3523
 21
88.7893
  0
LINE
  8
0
 10
64.3523
 20
88.7893
 11
64.2
 21
88.6876
  0
LINE
  8
0
 10
64.2
 20
88.6876
 11
64.0358
 21
88.6066
  0
LINE
  8
0
 10
64.0358
 20
88.6066
 11
63.8623
 21
88.5477
  0
LINE
  8
0
 10
63.8623
 20
88.5477
 11
63.6827
 21
88.512
  0
LINE
  8
0
 10
63.6827
 20
88.512
 11
63.5
 21
88.5
  0
LINE
  8
0
 10
63.5
 20
88.5
 11
63.3173
 21
88.512
  0
LINE
  8
0
 10
63.3173
 20
88.512
 11
63.1377
 21
88.5477
  0
LINE
  8
0
 10
63.1377
 20
88.5477
 11
62.9642
 21
88.6066
  0
LINE
  8
0
 10
62.9642
 20
88.6066
 11
62.8
 21
88.6876
  0
LINE
  8
0
 10
62.8
 20
88.6876
 11
62.6477
 21
88.7893
  0
LINE
  8
0
 10
62.6477
 20
88.7893
 11
62.51
 21
88.9101
  0
LINE
  8
0
 10
62.51
 20
88.9101
 11
62.3893
 21
89.0477
  0
LINE
  8
0
 10
62.3893
 20
89.0477
 11
62.2876
 21
89.2
  0
LINE
  8
0
 10
62.2876
 20
89.2
 11
62.2066
 21
89.3642
  0
LINE
  8
0
 10
62.2066
 20
89.3642
 11
62.1477
 21
89.5377
  0
LINE
  8
0
 10
62.1477
 20
89.5377
 11
62.112
 21
89.7173
  0
LINE
  8
0
 10
62.112
 20
89.7173
 11
62.1
 21
89.9
  0
LINE
  8
0
 10
62.1
 20
92.85
 11
62.112
 21
93.0327
  0
LINE
  8
0
 10
62.112
 20
93.0327
 11
62.1477
 21
93.2123
  0
LINE
  8
0
 10
62.1477
 20
93.2123
 11
62.2066
 21
93.3858
  0
LINE
  8
0
 10
62.2066
 20
93.3858
 11
62.2876
 21
93.55
  0
LINE
  8
0
 10
62.2876
 20
93.55
 11
62.3893
 21
93.7023
  0
LINE
  8
0
 10
62.3893
 20
93.7023
 11
62.51
 21
93.8399
  0
LINE
  8
0
 10
62.51
 20
93.8399
 11
62.6477
 21
93.9607
  0
LINE
  8
0
 10
62.6477
 20
93.9607
 11
62.8
 21
94.0624
  0
LINE
  8
0
 10
62.8
 20
94.0624
 11
62.9642
 21
94.1434
  0
LINE
  8
0
 10
62.9642
 20
94.1434
 11
63.1377
 21
94.2023
  0
LINE
  8
0
 10
63.1377
 20
94.2023
 11
63.3173
 21
94.238
  0
LINE
  8
0
 10
63.3173
 20
94.238
 11
63.5
 21
94.25
  0
LINE
  8
0
 10
63.5
 20
94.25
 11
63.6827
 21
94.238
  0
LINE
  8
0
 10
63.6827
 20
94.238
 11
63.8623
 21
94.2023
  0
LINE
  8
0
 10
63.8623
 20
94.2023
 11
64.0358
 21
94.1434
  0
LINE
  8
0
 10
64.0358
 20
94.1434
 11
64.2
 21
94.0624
  0
LINE
  8
0
 10
64.2
 20
94.0624
 11
64.3523
 21
93.9607
  0
LINE
  8
0
 10
64.3523
 20
93.9607
 11
64.4899
 21
93.8399
  0
LINE
  8
0
 10
64.4899
 20
93.8399
 11
64.6107
 21
93.7023
  0
LINE
  8
0
 10
64.6107
 20
93.7023
 11
64.7124
 21
93.55
  0
LINE
  8
0
 10
64.7124
 20
93.55
 11
64.7934
 21
93.3858
  0
LINE
  8
0
 10
64.7934
 20
93.3858
 11
64.8523
 21
93.2123
  0
LINE
  8
0
 10
64.8523
 20
93.2123
 11
64.888
 21
93.0327
  0
LINE
  8
0
 10
64.888
 20
93.0327
 11
64.9
 21
92.85
  0
LINE
  8
0
 10
64.9
 20
92.85
 11
64.888
 21
92.6673
  0
LINE
  8
0
 10
64.888
 20
92.6673
 11
64.8523
 21
92.4877
  0
LINE
  8
0
 10
64.8523
 20
92.4877
 11
64.7934
 21
92.3142
  0
LINE
  8
0
 10
64.7934
 20
92.3142
 11
64.7124
 21
92.15
  0
LINE
  8
0
 10
64.7124
 20
92.15
 11
64.6107
 21
91.9977
  0
LINE
  8
0
 10
64.6107
 20
91.9977
 11
64.4899
 21
91.8601
  0
LINE
  8
0
 10
64.4899
 20
91.8601
 11
64.3523
 21
91.7393
  0
LINE
  8
0
 10
64.3523
 20
91.7393
 11
64.2
 21
91.6376
  0
LINE
  8
0
 10
64.2
 20
91.6376
 11
64.0358
 21
91.5566
  0
LINE
  8
0
 10
64.0358
 20
91.5566
 11
63.8623
 21
91.4977
  0
LINE
  8
0
 10
63.8623
 20
91.4977
 11
63.6827
 21
91.462
  0
LINE
  8
0
 10
63.6827
 20
91.462
 11
63.5
 21
91.45
  0
LINE
  8
0
 10
63.5
 20
91.45
 11
63.3173
 21
91.462
  0
LINE
  8
0
 10
63.3173
 20
91.462
 11
63.1377
 21
91.4977
  0
LINE
  8
0
 10
63.1377
 20
91.4977
 11
62.9642
 21
91.5566
  0
LINE
  8
0
 10
62.9642
 20
91.5566
 11
62.8
 21
91.6376
  0
LINE
  8
0
 10
62.8
 20
91.6376
 11
62.6477
 21
91.7393
  0
LINE
  8
0
 10
62.6477
 20
91.7393
 11
62.51
 21
91.8601
  0
LINE
  8
0
 10
62.51
 20
91.8601
 11
62.3893
 21
91.9977
  0
LINE
  8
0
 10
62.3893
 20
91.9977
 11
62.2876
 21
92.15
  0
LINE
  8
0
 10
62.2876
 20
92.15
 11
62.2066
 21
92.3142
  0
LINE
  8
0
 10
62.2066
 20
92.3142
 11
62.1477
 21
92.4877
  0
LINE
  8
0
 10
62.1477
 20
92.4877
 11
62.112
 21
92.6673
  0
LINE
  8
0
 10
62.112
 20
92.6673
 11
62.1
 21
92.85
  0
LINE
  8
0
 10
63.15
 20
103.35
 11
63.15
 21
115.35
  0
LINE
  8
0
 10
63.15
 20
115.35
 11
75.15
 21
115.35
  0
LINE
  8
0
 10
75.15
 20
115.35
 11
75.15
 21
103.35
  0
LINE
  8
0
 10
75.15
 20
103.35
 11
63.15
 21
103.35
  0
LINE
  8
0
 10
63.35
 20
25.67
 11
63.3928
 21
26.3226
  0
LINE
  8
0
 10
63.3928
 20
26.3226
 11
63.5204
 21
26.9641
  0
LINE
  8
0
 10
63.5204
 20
26.9641
 11
63.7306
 21
27.5834
  0
LINE
  8
0
 10
63.7306
 20
27.5834
 11
64.0199
 21
28.17
  0
LINE
  8
0
 10
64.0199
 20
28.17
 11
64.3832
 21
28.7138
  0
LINE
  8
0
 10
64.3832
 20
28.7138
 11
64.8145
 21
29.2055
  0
LINE
  8
0
 10
64.8145
 20
29.2055
 11
65.3062
 21
29.6368
  0
LINE
  8
0
 10
65.3062
 20
29.6368
 11
65.85
 21
30.0001
  0
LINE
  8
0
 10
65.85
 20
30.0001
 11
66.4366
 21
30.2894
  0
LINE
  8
0
 10
66.4366
 20
30.2894
 11
67.0559
 21
30.4996
  0
LINE
  8
0
 10
67.0559
 20
30.4996
 11
67.6974
 21
30.6272
  0
LINE
  8
0
 10
67.6974
 20
30.6272
 11
68.35
 21
30.67
  0
LINE
  8
0
 10
68.35
 20
30.67
 11
69.0026
 21
30.6272
  0
LINE
  8
0
 10
69.0026
 20
30.6272
 11
69.6441
 21
30.4996
  0
LINE
  8
0
 10
69.6441
 20
30.4996
 11
70.2634
 21
30.2894
  0
LINE
  8
0
 10
70.2634
 20
30.2894
 11
70.85
 21
30.0001
  0
LINE
  8
0
 10
70.85
 20
30.0001
 11
71.3938
 21
29.6368
  0
LINE
  8
0
 10
71.3938
 20
29.6368
 11
71.8855
 21
29.2055
  0
LINE
  8
0
 10
71.8855
 20
29.2055
 11
72.3168
 21
28.7138
  0
LINE
  8
0
 10
72.3168
 20
28.7138
 11
72.6801
 21
28.17
  0
LINE
  8
0
 10
72.6801
 20
28.17
 11
72.9694
 21
27.5834
  0
LINE
  8
0
 10
72.9694
 20
27.5834
 11
73.1796
 21
26.9641
  0
LINE
  8
0
 10
73.1796
 20
26.9641
 11
73.3072
 21
26.3226
  0
LINE
  8
0
 10
73.3072
 20
26.3226
 11
73.35
 21
25.67
  0
LINE
  8
0
 10
73.35
 20
25.67
 11
73.3072
 21
25.0174
  0
LINE
  8
0
 10
73.3072
 20
25.0174
 11
73.1796
 21
24.3759
  0
LINE
  8
0
 10
73.1796
 20
24.3759
 11
72.9694
 21
23.7566
  0
LINE
  8
0
 10
72.9694
 20
23.7566
 11
72.6801
 21
23.17
  0
LINE
  8
0
 10
72.6801
 20
23.17
 11
72.3168
 21
22.6262
  0
LINE
  8
0
 10
72.3168
 20
22.6262
 11
71.8855
 21
22.1345
  0
LINE
  8
0
 10
71.8855
 20
22.1345
 11
71.3938
 21
21.7032
  0
LINE
  8
0
 10
71.3938
 20
21.7032
 11
70.85
 21
21.3399
  0
LINE
  8
0
 10
70.85
 20
21.3399
 11
70.2634
 21
21.0506
  0
LINE
  8
0
 10
70.2634
 20
21.0506
 11
69.6441
 21
20.8404
  0
LINE
  8
0
 10
69.6441
 20
20.8404
 11
69.0026
 21
20.7128
  0
LINE
  8
0
 10
69.0026
 20
20.7128
 11
68.35
 21
20.67
  0
LINE
  8
0
 10
68.35
 20
20.67
 11
67.6974
 21
20.7128
  0
LINE
  8
0
 10
67.6974
 20
20.7128
 11
67.0559
 21
20.8404
  0
LINE
  8
0
 10
67.0559
 20
20.8404
 11
66.4366
 21
21.0506
  0
LINE
  8
0
 10
66.4366
 20
21.0506
 11
65.85
 21
21.3399
  0
LINE
  8
0
 10
65.85
 20
21.3399
 11
65.3062
 21
21.7032
  0
LINE
  8
0
 10
65.3062
 20
21.7032
 11
64.8145
 21
22.1345
  0
LINE
  8
0
 10
64.8145
 20
22.1345
 11
64.3832
 21
22.6262
  0
LINE
  8
0
 10
64.3832
 20
22.6262
 11
64.0199
 21
23.17
  0
LINE
  8
0
 10
64.0199
 20
23.17
 11
63.7306
 21
23.7566
  0
LINE
  8
0
 10
63.7306
 20
23.7566
 11
63.5204
 21
24.3759
  0
LINE
  8
0
 10
63.5204
 20
24.3759
 11
63.3928
 21
25.0174
  0
LINE
  8
0
 10
63.3928
 20
25.0174
 11
63.35
 21
25.67
  0
LINE
  8
0
 10
63.35
 20
43.67
 11
63.3928
 21
44.3226
  0
LINE
  8
0
 10
63.3928
 20
44.3226
 11
63.5204
 21
44.9641
  0
LINE
  8
0
 10
63.5204
 20
44.9641
 11
63.7306
 21
45.5834
  0
LINE
  8
0
 10
63.7306
 20
45.5834
 11
64.0199
 21
46.17
  0
LINE
  8
0
 10
64.0199
 20
46.17
 11
64.3832
 21
46.7138
  0
LINE
  8
0
 10
64.3832
 20
46.7138
 11
64.8145
 21
47.2055
  0
LINE
  8
0
 10
64.8145
 20
47.2055
 11
65.3062
 21
47.6368
  0
LINE
  8
0
 10
65.3062
 20
47.6368
 11
65.85
 21
48.0001
  0
LINE
  8
0
 10
65.85
 20
48.0001
 11
66.4366
 21
48.2894
  0
LINE
  8
0
 10
66.4366
 20
48.2894
 11
67.0559
 21
48.4996
  0
LINE
  8
0
 10
67.0559
 20
48.4996
 11
67.6974
 21
48.6272
  0
LINE
  8
0
 10
67.6974
 20
48.6272
 11
68.35
 21
48.67
  0
LINE
  8
0
 10
68.35
 20
48.67
 11
69.0026
 21
48.6272
  0
LINE
  8
0
 10
69.0026
 20
48.6272
 11
69.6441
 21
48.4996
  0
LINE
  8
0
 10
69.6441
 20
48.4996
 11
70.2634
 21
48.2894
  0
LINE
  8
0
 10
70.2634
 20
48.2894
 11
70.85
 21
48.0001
  0
LINE
  8
0
 10
70.85
 20
48.0001
 11
71.3938
 21
47.6368
  0
LINE
  8
0
 10
71.3938
 20
47.6368
 11
71.8855
 21
47.2055
  0
LINE
  8
0
 10
71.8855
 20
47.2055
 11
72.3168
 21
46.7138
  0
LINE
  8
0
 10
72.3168
 20
46.7138
 11
72.6801
 21
46.17
  0
LINE
  8
0
 10
72.6801
 20
46.17
 11
72.9694
 21
45.5834
  0
LINE
  8
0
 10
72.9694
 20
45.5834
 11
73.1796
 21
44.9641
  0
LINE
  8
0
 10
73.1796
 20
44.9641
 11
73.3072
 21
44.3226
  0
LINE
  8
0
 10
73.3072
 20
44.3226
 11
73.35
 21
43.67
  0
LINE
  8
0
 10
73.35
 20
43.67
 11
73.3072
 21
43.0174
  0
LINE
  8
0
 10
73.3072
 20
43.0174
 11
73.1796
 21
42.3759
  0
LINE
  8
0
 10
73.1796
 20
42.3759
 11
72.9694
 21
41.7566
  0
LINE
  8
0
 10
72.9694
 20
41.7566
 11
72.6801
 21
41.17
  0
LINE
  8
0
 10
72.6801
 20
41.17
 11
72.3168
 21
40.6262
  0
LINE
  8
0
 10
72.3168
 20
40.6262
 11
71.8855
 21
40.1345
  0
LINE
  8
0
 10
71.8855
 20
40.1345
 11
71.3938
 21
39.7032
  0
LINE
  8
0
 10
71.3938
 20
39.7032
 11
70.85
 21
39.3399
  0
LINE
  8
0
 10
70.85
 20
39.3399
 11
70.2634
 21
39.0506
  0
LINE
  8
0
 10
70.2634
 20
39.0506
 11
69.6441
 21
38.8404
  0
LINE
  8
0
 10
69.6441
 20
38.8404
 11
69.0026
 21
38.7128
  0
LINE
  8
0
 10
69.0026
 20
38.7128
 11
68.35
 21
38.67
  0
LINE
  8
0
 10
68.35
 20
38.67
 11
67.6974
 21
38.7128
  0
LINE
  8
0
 10
67.6974
 20
38.7128
 11
67.0559
 21
38.8404
  0
LINE
  8
0
 10
67.0559
 20
38.8404
 11
66.4366
 21
39.0506
  0
LINE
  8
0
 10
66.4366
 20
39.0506
 11
65.85
 21
39.3399
  0
LINE
  8
0
 10
65.85
 20
39.3399
 11
65.3062
 21
39.7032
  0
LINE
  8
0
 10
65.3062
 20
39.7032
 11
64.8145
 21
40.1345
  0
LINE
  8
0
 10
64.8145
 20
40.1345
 11
64.3832
 21
40.6262
  0
LINE
  8
0
 10
64.3832
 20
40.6262
 11
64.0199
 21
41.17
  0
LINE
  8
0
 10
64.0199
 20
41.17
 11
63.7306
 21
41.7566
  0
LINE
  8
0
 10
63.7306
 20
41.7566
 11
63.5204
 21
42.3759
  0
LINE
  8
0
 10
63.5204
 20
42.3759
 11
63.3928
 21
43.0174
  0
LINE
  8
0
 10
63.3928
 20
43.0174
 11
63.35
 21
43.67
  0
LINE
  8
0
 10
63.35
 20
61.67
 11
63.3928
 21
62.3226
  0
LINE
  8
0
 10
63.3928
 20
62.3226
 11
63.5204
 21
62.9641
  0
LINE
  8
0
 10
63.5204
 20
62.9641
 11
63.7306
 21
63.5834
  0
LINE
  8
0
 10
63.7306
 20
63.5834
 11
64.0199
 21
64.17
  0
LINE
  8
0
 10
64.0199
 20
64.17
 11
64.3832
 21
64.7138
  0
LINE
  8
0
 10
64.3832
 20
64.7138
 11
64.8145
 21
65.2055
  0
LINE
  8
0
 10
64.8145
 20
65.2055
 11
65.3062
 21
65.6368
  0
LINE
  8
0
 10
65.3062
 20
65.6368
 11
65.85
 21
66.0001
  0
LINE
  8
0
 10
65.85
 20
66.0001
 11
66.4366
 21
66.2894
  0
LINE
  8
0
 10
66.4366
 20
66.2894
 11
67.0559
 21
66.4996
  0
LINE
  8
0
 10
67.0559
 20
66.4996
 11
67.6974
 21
66.6272
  0
LINE
  8
0
 10
67.6974
 20
66.6272
 11
68.35
 21
66.67
  0
LINE
  8
0
 10
68.35
 20
66.67
 11
69.0026
 21
66.6272
  0
LINE
  8
0
 10
69.0026
 20
66.6272
 11
69.6441
 21
66.4996
  0
LINE
  8
0
 10
69.6441
 20
66.4996
 11
70.2634
 21
66.2894
  0
LINE
  8
0
 10
70.2634
 20
66.2894
 11
70.85
 21
66.0001
  0
LINE
  8
0
 10
70.85
 20
66.0001
 11
71.3938
 21
65.6368
  0
LINE
  8
0
 10
71.3938
 20
65.6368
 11
71.8855
 21
65.2055
  0
LINE
  8
0
 10
71.8855
 20
65.2055
 11
72.3168
 21
64.7138
  0
LINE
  8
0
 10
72.3168
 20
64.7138
 11
72.6801
 21
64.17
  0
LINE
  8
0
 10
72.6801
 20
64.17
 11
72.9694
 21
63.5834
  0
LINE
  8
0
 10
72.9694
 20
63.5834
 11
73.1796
 21
62.9641
  0
LINE
  8
0
 10
73.1796
 20
62.9641
 11
73.3072
 21
62.3226
  0
LINE
  8
0
 10
73.3072
 20
62.3226
 11
73.35
 21
61.67
  0
LINE
  8
0
 10
73.35
 20
61.67
 11
73.3072
 21
61.0174
  0
LINE
  8
0
 10
73.3072
 20
61.0174
 11
73.1796
 21
60.3759
  0
LINE
  8
0
 10
73.1796
 20
60.3759
 11
72.9694
 21
59.7566
  0
LINE
  8
0
 10
72.9694
 20
59.7566
 11
72.6801
 21
59.17
  0
LINE
  8
0
 10
72.6801
 20
59.17
 11
72.3168
 21
58.6262
  0
LINE
  8
0
 10
72.3168
 20
58.6262
 11
71.8855
 21
58.1345
  0
LINE
  8
0
 10
71.8855
 20
58.1345
 11
71.3938
 21
57.7032
  0
LINE
  8
0
 10
71.3938
 20
57.7032
 11
70.85
 21
57.3399
  0
LINE
  8
0
 10
70.85
 20
57.3399
 11
70.2634
 21
57.0506
  0
LINE
  8
0
 10
70.2634
 20
57.0506
 11
69.6441
 21
56.8404
  0
LINE
  8
0
 10
69.6441
 20
56.8404
 11
69.0026
 21
56.7128
  0
LINE
  8
0
 10
69.0026
 20
56.7128
 11
68.35
 21
56.67
  0
LINE
  8
0
 10
68.35
 20
56.67
 11
67.6974
 21
56.7128
  0
LINE
  8
0
 10
67.6974
 20
56.7128
 11
67.0559
 21
56.8404
  0
LINE
  8
0
 10
67.0559
 20
56.8404
 11
66.4366
 21
57.0506
  0
LINE
  8
0
 10
66.4366
 20
57.0506
 11
65.85
 21
57.3399
  0
LINE
  8
0
 10
65.85
 20
57.3399
 11
65.3062
 21
57.7032
  0
LINE
  8
0
 10
65.3062
 20
57.7032
 11
64.8145
 21
58.1345
  0
LINE
  8
0
 10
64.8145
 20
58.1345
 11
64.3832
 21
58.6262
  0
LINE
  8
0
 10
64.3832
 20
58.6262
 11
64.0199
 21
59.17
  0
LINE
  8
0
 10
64.0199
 20
59.17
 11
63.7306
 21
59.7566
  0
LINE
  8
0
 10
63.7306
 20
59.7566
 11
63.5204
 21
60.3759
  0
LINE
  8
0
 10
63.5204
 20
60.3759
 11
63.3928
 21
61.0174
  0
LINE
  8
0
 10
63.3928
 20
61.0174
 11
63.35
 21
61.67
  0
LINE
  8
0
 10
81.35
 20
25.67
 11
81.3928
 21
26.3226
  0
LINE
  8
0
 10
81.3928
 20
26.3226
 11
81.5204
 21
26.9641
  0
LINE
  8
0
 10
81.5204
 20
26.9641
 11
81.7306
 21
27.5834
  0
LINE
  8
0
 10
81.7306
 20
27.5834
 11
82.0199
 21
28.17
  0
LINE
  8
0
 10
82.0199
 20
28.17
 11
82.3832
 21
28.7138
  0
LINE
  8
0
 10
82.3832
 20
28.7138
 11
82.8145
 21
29.2055
  0
LINE
  8
0
 10
82.8145
 20
29.2055
 11
83.3062
 21
29.6368
  0
LINE
  8
0
 10
83.3062
 20
29.6368
 11
83.85
 21
30.0001
  0
LINE
  8
0
 10
83.85
 20
30.0001
 11
84.4366
 21
30.2894
  0
LINE
  8
0
 10
84.4366
 20
30.2894
 11
85.0559
 21
30.4996
  0
LINE
  8
0
 10
85.0559
 20
30.4996
 11
85.6974
 21
30.6272
  0
LINE
  8
0
 10
85.6974
 20
30.6272
 11
86.35
 21
30.67
  0
LINE
  8
0
 10
86.35
 20
30.67
 11
87.0026
 21
30.6272
  0
LINE
  8
0
 10
87.0026
 20
30.6272
 11
87.6441
 21
30.4996
  0
LINE
  8
0
 10
87.6441
 20
30.4996
 11
88.2634
 21
30.2894
  0
LINE
  8
0
 10
88.2634
 20
30.2894
 11
88.85
 21
30.0001
  0
LINE
  8
0
 10
88.85
 20
30.0001
 11
89.3938
 21
29.6368
  0
LINE
  8
0
 10
89.3938
 20
29.6368
 11
89.8855
 21
29.2055
  0
LINE
  8
0
 10
89.8855
 20
29.2055
 11
90.3168
 21
28.7138
  0
LINE
  8
0
 10
90.3168
 20
28.7138
 11
90.6801
 21
28.17
  0
LINE
  8
0
 10
90.6801
 20
28.17
 11
90.9694
 21
27.5834
  0
LINE
  8
0
 10
90.9694
 20
27.5834
 11
91.1796
 21
26.9641
  0
LINE
  8
0
 10
91.1796
 20
26.9641
 11
91.3072
 21
26.3226
  0
LINE
  8
0
 10
91.3072
 20
26.3226
 11
91.35
 21
25.67
  0
LINE
  8
0
 10
91.35
 20
25.67
 11
91.3072
 21
25.0174
  0
LINE
  8
0
 10
91.3072
 20
25.0174
 11
91.1796
 21
24.3759
  0
LINE
  8
0
 10
91.1796
 20
24.3759
 11
90.9694
 21
23.7566
  0
LINE
  8
0
 10
90.9694
 20
23.7566
 11
90.6801
 21
23.17
  0
LINE
  8
0
 10
90.6801
 20
23.17
 11
90.3168
 21
22.6262
  0
LINE
  8
0
 10
90.3168
 20
22.6262
 11
89.8855
 21
22.1345
  0
LINE
  8
0
 10
89.8855
 20
22.1345
 11
89.3938
 21
21.7032
  0
LINE
  8
0
 10
89.3938
 20
21.7032
 11
88.85
 21
21.3399
  0
LINE
  8
0
 10
88.85
 20
21.3399
 11
88.2634
 21
21.0506
  0
LINE
  8
0
 10
88.2634
 20
21.0506
 11
87.6441
 21
20.8404
  0
LINE
  8
0
 10
87.6441
 20
20.8404
 11
87.0026
 21
20.7128
  0
LINE
  8
0
 10
87.0026
 20
20.7128
 11
86.35
 21
20.67
  0
LINE
  8
0
 10
86.35
 20
20.67
 11
85.6974
 21
20.7128
  0
LINE
  8
0
 10
85.6974
 20
20.7128
 11
85.0559
 21
20.8404
  0
LINE
  8
0
 10
85.0559
 20
20.8404
 11
84.4366
 21
21.0506
  0
LINE
  8
0
 10
84.4366
 20
21.0506
 11
83.85
 21
21.3399
  0
LINE
  8
0
 10
83.85
 20
21.3399
 11
83.3062
 21
21.7032
  0
LINE
  8
0
 10
83.3062
 20
21.7032
 11
82.8145
 21
22.1345
  0
LINE
  8
0
 10
82.8145
 20
22.1345
 11
82.3832
 21
22.6262
  0
LINE
  8
0
 10
82.3832
 20
22.6262
 11
82.0199
 21
23.17
  0
LINE
  8
0
 10
82.0199
 20
23.17
 11
81.7306
 21
23.7566
  0
LINE
  8
0
 10
81.7306
 20
23.7566
 11
81.5204
 21
24.3759
  0
LINE
  8
0
 10
81.5204
 20
24.3759
 11
81.3928
 21
25.0174
  0
LINE
  8
0
 10
81.3928
 20
25.0174
 11
81.35
 21
25.67
  0
LINE
  8
0
 10
81.35
 20
43.67
 11
81.3928
 21
44.3226
  0
LINE
  8
0
 10
81.3928
 20
44.3226
 11
81.5204
 21
44.9641
  0
LINE
  8
0
 10
81.5204
 20
44.9641
 11
81.7306
 21
45.5834
  0
LINE
  8
0
 10
81.7306
 20
45.5834
 11
82.0199
 21
46.17
  0
LINE
  8
0
 10
82.0199
 20
46.17
 11
82.3832
 21
46.7138
  0
LINE
  8
0
 10
82.3832
 20
46.7138
 11
82.8145
 21
47.2055
  0
LINE
  8
0
 10
82.8145
 20
47.2055
 11
83.3062
 21
47.6368
  0
LINE
  8
0
 10
83.3062
 20
47.6368
 11
83.85
 21
48.0001
  0
LINE
  8
0
 10
83.85
 20
48.0001
 11
84.4366
 21
48.2894
  0
LINE
  8
0
 10
84.4366
 20
48.2894
 11
85.0559
 21
48.4996
  0
LINE
  8
0
 10
85.0559
 20
48.4996
 11
85.6974
 21
48.6272
  0
LINE
  8
0
 10
85.6974
 20
48.6272
 11
86.35
 21
48.67
  0
LINE
  8
0
 10
86.35
 20
48.67
 11
87.0026
 21
48.6272
  0
LINE
  8
0
 10
87.0026
 20
48.6272
 11
87.6441
 21
48.4996
  0
LINE
  8
0
 10
87.6441
 20
48.4996
 11
88.2634
 21
48.2894
  0
LINE
  8
0
 10
88.2634
 20
48.2894
 11
88.85
 21
48.0001
  0
LINE
  8
0
 10
88.85
 20
48.0001
 11
89.3938
 21
47.6368
  0
LINE
  8
0
 10
89.3938
 20
47.6368
 11
89.8855
 21
47.2055
  0
LINE
  8
0
 10
89.8855
 20
47.2055
 11
90.3168
 21
46.7138
  0
LINE
  8
0
 10
90.3168
 20
46.7138
 11
90.6801
 21
46.17
  0
LINE
  8
0
 10
90.6801
 20
46.17
 11
90.9694
 21
45.5834
  0
LINE
  8
0
 10
90.9694
 20
45.5834
 11
91.1796
 21
44.9641
  0
LINE
  8
0
 10
91.1796
 20
44.9641
 11
91.3072
 21
44.3226
  0
LINE
  8
0
 10
91.3072
 20
44.3226
 11
91.35
 21
43.67
  0
LINE
  8
0
 10
91.35
 20
43.67
 11
91.3072
 21
43.0174
  0
LINE
  8
0
 10
91.3072
 20
43.0174
 11
91.1796
 21
42.3759
  0
LINE
  8
0
 10
91.1796
 20
42.3759
 11
90.9694
 21
41.7566
  0
LINE
  8
0
 10
90.9694
 20
41.7566
 11
90.6801
 21
41.17
  0
LINE
  8
0
 10
90.6801
 20
41.17
 11
90.3168
 21
40.6262
  0
LINE
  8
0
 10
90.3168
 20
40.6262
 11
89.8855
 21
40.1345
  0
LINE
  8
0
 10
89.8855
 20
40.1345
 11
89.3938
 21
39.7032
  0
LINE
  8
0
 10
89.3938
 20
39.7032
 11
88.85
 21
39.3399
  0
LINE
  8
0
 10
88.85
 20
39.3399
 11
88.2634
 21
39.0506
  0
LINE
  8
0
 10
88.2634
 20
39.0506
 11
87.6441
 21
38.8404
  0
LINE
  8
0
 10
87.6441
 20
38.8404
 11
87.0026
 21
38.7128
  0
LINE
  8
0
 10
87.0026
 20
38.7128
 11
86.35
 21
38.67
  0
LINE
  8
0
 10
86.35
 20
38.67
 11
85.6974
 21
38.7128
  0
LINE
  8
0
 10
85.6974
 20
38.7128
 11
85.0559
 21
38.8404
  0
LINE
  8
0
 10
85.0559
 20
38.8404
 11
84.4366
 21
39.0506
  0
LINE
  8
0
 10
84.4366
 20
39.0506
 11
83.85
 21
39.3399
  0
LINE
  8
0
 10
83.85
 20
39.3399
 11
83.3062
 21
39.7032
  0
LINE
  8
0
 10
83.3062
 20
39.7032
 11
82.8145
 21
40.1345
  0
LINE
  8
0
 10
82.8145
 20
40.1345
 11
82.3832
 21
40.6262
  0
LINE
  8
0
 10
82.3832
 20
40.6262
 11
82.0199
 21
41.17
  0
LINE
  8
0
 10
82.0199
 20
41.17
 11
81.7306
 21
41.7566
  0
LINE
  8
0
 10
81.7306
 20
41.7566
 11
81.5204
 21
42.3759
  0
LINE
  8
0
 10
81.5204
 20
42.3759
 11
81.3928
 21
43.0174
  0
LINE
  8
0
 10
81.3928
 20
43.0174
 11
81.35
 21
43.67
  0
LINE
  8
0
 10
81.35
 20
61.67
 11
81.3928
 21
62.3226
  0
LINE
  8
0
 10
81.3928
 20
62.3226
 11
81.5204
 21
62.9641
  0
LINE
  8
0
 10
81.5204
 20
62.9641
 11
81.7306
 21
63.5834
  0
LINE
  8
0
 10
81.7306
 20
63.5834
 11
82.0199
 21
64.17
  0
LINE
  8
0
 10
82.0199
 20
64.17
 11
82.3832
 21
64.7138
  0
LINE
  8
0
 10
82.3832
 20
64.7138
 11
82.8145
 21
65.2055
  0
LINE
  8
0
 10
82.8145
 20
65.2055
 11
83.3062
 21
65.6368
  0
LINE
  8
0
 10
83.3062
 20
65.6368
 11
83.85
 21
66.0001
  0
LINE
  8
0
 10
83.85
 20
66.0001
 11
84.4366
 21
66.2894
  0
LINE
  8
0
 10
84.4366
 20
66.2894
 11
85.0559
 21
66.4996
  0
LINE
  8
0
 10
85.0559
 20
66.4996
 11
85.6974
 21
66.6272
  0
LINE
  8
0
 10
85.6974
 20
66.6272
 11
86.35
 21
66.67
  0
LINE
  8
0
 10
86.35
 20
66.67
 11
87.0026
 21
66.6272
  0
LINE
  8
0
 10
87.0026
 20
66.6272
 11
87.6441
 21
66.4996
  0
LINE
  8
0
 10
87.6441
 20
66.4996
 11
88.2634
 21
66.2894
  0
LINE
  8
0
 10
88.2634
 20
66.2894
 11
88.85
 21
66.0001
  0
LINE
  8
0
 10
88.85
 20
66.0001
 11
89.3938
 21
65.6368
  0
LINE
  8
0
 10
89.3938
 20
65.6368
 11
89.8855
 21
65.2055
  0
LINE
  8
0
 10
89.8855
 20
65.2055
 11
90.3168
 21
64.7138
  0
LINE
  8
0
 10
90.3168
 20
64.7138
 11
90.6801
 21
64.17
  0
LINE
  8
0
 10
90.6801
 20
64.17
 11
90.9694
 21
63.5834
  0
LINE
  8
0
 10
90.9694
 20
63.5834
 11
91.1796
 21
62.9641
  0
LINE
  8
0
 10
91.1796
 20
62.9641
 11
91.3072
 21
62.3226
  0
LINE
  8
0
 10
91.3072
 20
62.3226
 11
91.35
 21
61.67
  0
LINE
  8
0
 10
91.35
 20
61.67
 11
91.3072
 21
61.0174
  0
LINE
  8
0
 10
91.3072
 20
61.0174
 11
91.1796
 21
60.3759
  0
LINE
  8
0
 10
91.1796
 20
60.3759
 11
90.9694
 21
59.7566
  0
LINE
  8
0
 10
90.9694
 20
59.7566
 11
90.6801
 21
59.17
  0
LINE
  8
0
 10
90.6801
 20
59.17
 11
90.3168
 21
58.6262
  0
LINE
  8
0
 10
90.3168
 20
58.6262
 11
89.8855
 21
58.1345
  0
LINE
  8
0
 10
89.8855
 20
58.1345
 11
89.3938
 21
57.7032
  0
LINE
  8
0
 10
89.3938
 20
57.7032
 11
88.85
 21
57.3399
  0
LINE
  8
0
 10
88.85
 20
57.3399
 11
88.2634
 21
57.0506
  0
LINE
  8
0
 10
88.2634
 20
57.0506
 11
87.6441
 21
56.8404
  0
LINE
  8
0
 10
87.6441
 20
56.8404
 11
87.0026
 21
56.7128
  0
LINE
  8
0
 10
87.0026
 20
56.7128
 11
86.35
 21
56.67
  0
LINE
  8
0
 10
86.35
 20
56.67
 11
85.6974
 21
56.7128
  0
LINE
  8
0
 10
85.6974
 20
56.7128
 11
85.0559
 21
56.8404
  0
LINE
  8
0
 10
85.0559
 20
56.8404
 11
84.4366
 21
57.0506
  0
LINE
  8
0
 10
84.4366
 20
57.0506
 11
83.85
 21
57.3399
  0
LINE
  8
0
 10
83.85
 20
57.3399
 11
83.3062
 21
57.7032
  0
LINE
  8
0
 10
83.3062
 20
57.7032
 11
82.8145
 21
58.1345
  0
LINE
  8
0
 10
82.8145
 20
58.1345
 11
82.3832
 21
58.6262
  0
LINE
  8
0
 10
82.3832
 20
58.6262
 11
82.0199
 21
59.17
  0
LINE
  8
0
 10
82.0199
 20
59.17
 11
81.7306
 21
59.7566
  0
LINE
  8
0
 10
81.7306
 20
59.7566
 11
81.5204
 21
60.3759
  0
LINE
  8
0
 10
81.5204
 20
60.3759
 11
81.3928
 21
61.0174
  0
LINE
  8
0
 10
81.3928
 20
61.0174
 11
81.35
 21
61.67
  0
LINE
  8
0
 10
87.15
 20
104.68
 11
87.15
 21
116.68
  0
LINE
  8
0
 10
87.15
 20
116.68
 11
99.15
 21
116.68
  0
LINE
  8
0
 10
99.15
 20
116.68
 11
99.15
 21
104.68
  0
LINE
  8
0
 10
99.15
 20
104.68
 11
87.15
 21
104.68
  0
LINE
  8
0
 10
99.35
 20
25.67
 11
99.3928
 21
26.3226
  0
LINE
  8
0
 10
99.3928
 20
26.3226
 11
99.5204
 21
26.9641
  0
LINE
  8
0
 10
99.5204
 20
26.9641
 11
99.7306
 21
27.5834
  0
LINE
  8
0
 10
99.7306
 20
27.5834
 11
100.02
 21
28.17
  0
LINE
  8
0
 10
100.02
 20
28.17
 11
100.383
 21
28.7138
  0
LINE
  8
0
 10
100.383
 20
28.7138
 11
100.814
 21
29.2055
  0
LINE
  8
0
 10
100.814
 20
29.2055
 11
101.306
 21
29.6368
  0
LINE
  8
0
 10
101.306
 20
29.6368
 11
101.85
 21
30.0001
  0
LINE
  8
0
 10
101.85
 20
30.0001
 11
102.437
 21
30.2894
  0
LINE
  8
0
 10
102.437
 20
30.2894
 11
103.056
 21
30.4996
  0
LINE
  8
0
 10
103.056
 20
30.4996
 11
103.697
 21
30.6272
  0
LINE
  8
0
 10
103.697
 20
30.6272
 11
104.35
 21
30.67
  0
LINE
  8
0
 10
104.35
 20
30.67
 11
105.003
 21
30.6272
  0
LINE
  8
0
 10
105.003
 20
30.6272
 11
105.644
 21
30.4996
  0
LINE
  8
0
 10
105.644
 20
30.4996
 11
106.263
 21
30.2894
  0
LINE
  8
0
 10
106.263
 20
30.2894
 11
106.85
 21
30.0001
  0
LINE
  8
0
 10
106.85
 20
30.0001
 11
107.394
 21
29.6368
  0
LINE
  8
0
 10
107.394
 20
29.6368
 11
107.886
 21
29.2055
  0
LINE
  8
0
 10
107.886
 20
29.2055
 11
108.317
 21
28.7138
  0
LINE
  8
0
 10
108.317
 20
28.7138
 11
108.68
 21
28.17
  0
LINE
  8
0
 10
108.68
 20
28.17
 11
108.969
 21
27.5834
  0
LINE
  8
0
 10
108.969
 20
27.5834
 11
109.18
 21
26.9641
  0
LINE
  8
0
 10
109.18
 20
26.9641
 11
109.307
 21
26.3226
  0
LINE
  8
0
 10
109.307
 20
26.3226
 11
109.35
 21
25.67
  0
LINE
  8
0
 10
109.35
 20
25.67
 11
109.307
 21
25.0174
  0
LINE
  8
0
 10
109.307
 20
25.0174
 11
109.18
 21
24.3759
  0
LINE
  8
0
 10
109.18
 20
24.3759
 11
108.969
 21
23.7566
  0
LINE
  8
0
 10
108.969
 20
23.7566
 11
108.68
 21
23.17
  0
LINE
  8
0
 10
108.68
 20
23.17
 11
108.317
 21
22.6262
  0
LINE
  8
0
 10
108.317
 20
22.6262
 11
107.886
 21
22.1345
  0
LINE
  8
0
 10
107.886
 20
22.1345
 11
107.394
 21
21.7032
  0
LINE
  8
0
 10
107.394
 20
21.7032
 11
106.85
 21
21.3399
  0
LINE
  8
0
 10
106.85
 20
21.3399
 11
106.263
 21
21.0506
  0
LINE
  8
0
 10
106.263
 20
21.0506
 11
105.644
 21
20.8404
  0
LINE
  8
0
 10
105.644
 20
20.8404
 11
105.003
 21
20.7128
  0
LINE
  8
0
 10
105.003
 20
20.7128
 11
104.35
 21
20.67
  0
LINE
  8
0
 10
104.35
 20
20.67
 11
103.697
 21
20.7128
  0
LINE
  8
0
 10
103.697
 20
20.7128
 11
103.056
 21
20.8404
  0
LINE
  8
0
 10
103.056
 20
20.8404
 11
102.437
 21
21.0506
  0
LINE
  8
0
 10
102.437
 20
21.0506
 11
101.85
 21
21.3399
  0
LINE
  8
0
 10
101.85
 20
21.3399
 11
101.306
 21
21.7032
  0
LINE
  8
0
 10
101.306
 20
21.7032
 11
100.814
 21
22.1345
  0
LINE
  8
0
 10
100.814
 20
22.1345
 11
100.383
 21
22.6262
  0
LINE
  8
0
 10
100.383
 20
22.6262
 11
100.02
 21
23.17
  0
LINE
  8
0
 10
100.02
 20
23.17
 11
99.7306
 21
23.7566
  0
LINE
  8
0
 10
99.7306
 20
23.7566
 11
99.5204
 21
24.3759
  0
LINE
  8
0
 10
99.5204
 20
24.3759
 11
99.3928
 21
25.0174
  0
LINE
  8
0
 10
99.3928
 20
25.0174
 11
99.35
 21
25.67
  0
LINE
  8
0
 10
99.35
 20
43.67
 11
99.3928
 21
44.3226
  0
LINE
  8
0
 10
99.3928
 20
44.3226
 11
99.5204
 21
44.9641
  0
LINE
  8
0
 10
99.5204
 20
44.9641
 11
99.7306
 21
45.5834
  0
LINE
  8
0
 10
99.7306
 20
45.5834
 11
100.02
 21
46.17
  0
LINE
  8
0
 10
100.02
 20
46.17
 11
100.383
 21
46.7138
  0
LINE
  8
0
 10
100.383
 20
46.7138
 11
100.814
 21
47.2055
  0
LINE
  8
0
 10
100.814
 20
47.2055
 11
101.306
 21
47.6368
  0
LINE
  8
0
 10
101.306
 20
47.6368
 11
101.85
 21
48.0001
  0
LINE
  8
0
 10
101.85
 20
48.0001
 11
102.437
 21
48.2894
  0
LINE
  8
0
 10
102.437
 20
48.2894
 11
103.056
 21
48.4996
  0
LINE
  8
0
 10
103.056
 20
48.4996
 11
103.697
 21
48.6272
  0
LINE
  8
0
 10
103.697
 20
48.6272
 11
104.35
 21
48.67
  0
LINE
  8
0
 10
104.35
 20
48.67
 11
105.003
 21
48.6272
  0
LINE
  8
0
 10
105.003
 20
48.6272
 11
105.644
 21
48.4996
  0
LINE
  8
0
 10
105.644
 20
48.4996
 11
106.263
 21
48.2894
  0
LINE
  8
0
 10
106.263
 20
48.2894
 11
106.85
 21
48.0001
  0
LINE
  8
0
 10
106.85
 20
48.0001
 11
107.394
 21
47.6368
  0
LINE
  8
0
 10
107.394
 20
47.6368
 11
107.886
 21
47.2055
  0
LINE
  8
0
 10
107.886
 20
47.2055
 11
108.317
 21
46.7138
  0
LINE
  8
0
 10
108.317
 20
46.7138
 11
108.68
 21
46.17
  0
LINE
  8
0
 10
108.68
 20
46.17
 11
108.969
 21
45.5834
  0
LINE
  8
0
 10
108.969
 20
45.5834
 11
109.18
 21
44.9641
  0
LINE
  8
0
 10
109.18
 20
44.9641
 11
109.307
 21
44.3226
  0
LINE
  8
0
 10
109.307
 20
44.3226
 11
109.35
 21
43.67
  0
LINE
  8
0
 10
109.35
 20
43.67
 11
109.307
 21
43.0174
  0
LINE
  8
0
 10
109.307
 20
43.0174
 11
109.18
 21
42.3759
  0
LINE
  8
0
 10
109.18
 20
42.3759
 11
108.969
 21
41.7566
  0
LINE
  8
0
 10
108.969
 20
41.7566
 11
108.68
 21
41.17
  0
LINE
  8
0
 10
108.68
 20
41.17
 11
108.317
 21
40.6262
  0
LINE
  8
0
 10
108.317
 20
40.6262
 11
107.886
 21
40.1345
  0
LINE
  8
0
 10
107.886
 20
40.1345
 11
107.394
 21
39.7032
  0
LINE
  8
0
 10
107.394
 20
39.7032
 11
106.85
 21
39.3399
  0
LINE
  8
0
 10
106.85
 20
39.3399
 11
106.263
 21
39.0506
  0
LINE
  8
0
 10
106.263
 20
39.0506
 11
105.644
 21
38.8404
  0
LINE
  8
0
 10
105.644
 20
38.8404
 11
105.003
 21
38.7128
  0
LINE
  8
0
 10
105.003
 20
38.7128
 11
104.35
 21
38.67
  0
LINE
  8
0
 10
104.35
 20
38.67
 11
103.697
 21
38.7128
  0
LINE
  8
0
 10
103.697
 20
38.7128
 11
103.056
 21
38.8404
  0
LINE
  8
0
 10
103.056
 20
38.8404
 11
102.437
 21
39.0506
  0
LINE
  8
0
 10
102.437
 20
39.0506
 11
101.85
 21
39.3399
  0
LINE
  8
0
 10
101.85
 20
39.3399
 11
101.306
 21
39.7032
  0
LINE
  8
0
 10
101.306
 20
39.7032
 11
100.814
 21
40.1345
  0
LINE
  8
0
 10
100.814
 20
40.1345
 11
100.383
 21
40.6262
  0
LINE
  8
0
 10
100.383
 20
40.6262
 11
100.02
 21
41.17
  0
LINE
  8
0
 10
100.02
 20
41.17
 11
99.7306
 21
41.7566
  0
LINE
  8
0
 10
99.7306
 20
41.7566
 11
99.5204
 21
42.3759
  0
LINE
  8
0
 10
99.5204
 20
42.3759
 11
99.3928
 21
43.0174
  0
LINE
  8
0
 10
99.3928
 20
43.0174
 11
99.35
 21
43.67
  0
LINE
  8
0
 10
99.35
 20
61.67
 11
99.3928
 21
62.3226
  0
LINE
  8
0
 10
99.3928
 20
62.3226
 11
99.5204
 21
62.9641
  0
LINE
  8
0
 10
99.5204
 20
62.9641
 11
99.7306
 21
63.5834
  0
LINE
  8
0
 10
99.7306
 20
63.5834
 11
100.02
 21
64.17
  0
LINE
  8
0
 10
100.02
 20
64.17
 11
100.383
 21
64.7138
  0
LINE
  8
0
 10
100.383
 20
64.7138
 11
100.814
 21
65.2055
  0
LINE
  8
0
 10
100.814
 20
65.2055
 11
101.306
 21
65.6368
  0
LINE
  8
0
 10
101.306
 20
65.6368
 11
101.85
 21
66.0001
  0
LINE
  8
0
 10
101.85
 20
66.0001
 11
102.437
 21
66.2894
  0
LINE
  8
0
 10
102.437
 20
66.2894
 11
103.056
 21
66.4996
  0
LINE
  8
0
 10
103.056
 20
66.4996
 11
103.697
 21
66.6272
  0
LINE
  8
0
 10
103.697
 20
66.6272
 11
104.35
 21
66.67
  0
LINE
  8
0
 10
104.35
 20
66.67
 11
105.003
 21
66.6272
  0
LINE
  8
0
 10
105.003
 20
66.6272
 11
105.644
 21
66.4996
  0
LINE
  8
0
 10
105.644
 20
66.4996
 11
106.263
 21
66.2894
  0
LINE
  8
0
 10
106.263
 20
66.2894
 11
106.85
 21
66.0001
  0
LINE
  8
0
 10
106.85
 20
66.0001
 11
107.394
 21
65.6368
  0
LINE
  8
0
 10
107.394
 20
65.6368
 11
107.886
 21
65.2055
  0
LINE
  8
0
 10
107.886
 20
65.2055
 11
108.317
 21
64.7138
  0
LINE
  8
0
 10
108.317
 20
64.7138
 11
108.68
 21
64.17
  0
LINE
  8
0
 10
108.68
 20
64.17
 11
108.969
 21
63.5834
  0
LINE
  8
0
 10
108.969
 20
63.5834
 11
109.18
 21
62.9641
  0
LINE
  8
0
 10
109.18
 20
62.9641
 11
109.307
 21
62.3226
  0
LINE
  8
0
 10
109.307
 20
62.3226
 11
109.35
 21
61.67
  0
LINE
  8
0
 10
109.35
 20
61.67
 11
109.307
 21
61.0174
  0
LINE
  8
0
 10
109.307
 20
61.0174
 11
109.18
 21
60.3759
  0
LINE
  8
0
 10
109.18
 20
60.3759
 11
108.969
 21
59.7566
  0
LINE
  8
0
 10
108.969
 20
59.7566
 11
108.68
 21
59.17
  0
LINE
  8
0
 10
108.68
 20
59.17
 11
108.317
 21
58.6262
  0
LINE
  8
0
 10
108.317
 20
58.6262
 11
107.886
 21
58.1345
  0
LINE
  8
0
 10
107.886
 20
58.1345
 11
107.394
 21
57.7032
  0
LINE
  8
0
 10
107.394
 20
57.7032
 11
106.85
 21
57.3399
  0
LINE
  8
0
 10
106.85
 20
57.3399
 11
106.263
 21
57.0506
  0
LINE
  8
0
 10
106.263
 20
57.0506
 11
105.644
 21
56.8404
  0
LINE
  8
0
 10
105.644
 20
56.8404
 11
105.003
 21
56.7128
  0
LINE
  8
0
 10
105.003
 20
56.7128
 11
104.35
 21
56.67
  0
LINE
  8
0
 10
104.35
 20
56.67
 11
103.697
 21
56.7128
  0
LINE
  8
0
 10
103.697
 20
56.7128
 11
103.056
 21
56.8404
  0
LINE
  8
0
 10
103.056
 20
56.8404
 11
102.437
 21
57.0506
  0
LINE
  8
0
 10
102.437
 20
57.0506
 11
101.85
 21
57.3399
  0
LINE
  8
0
 10
101.85
 20
57.3399
 11
101.306
 21
57.7032
  0
LINE
  8
0
 10
101.306
 20
57.7032
 11
100.814
 21
58.1345
  0
LINE
  8
0
 10
100.814
 20
58.1345
 11
100.383
 21
58.6262
  0
LINE
  8
0
 10
100.383
 20
58.6262
 11
100.02
 21
59.17
  0
LINE
  8
0
 10
100.02
 20
59.17
 11
99.7306
 21
59.7566
  0
LINE
  8
0
 10
99.7306
 20
59.7566
 11
99.5204
 21
60.3759
  0
LINE
  8
0
 10
99.5204
 20
60.3759
 11
99.3928
 21
61.0174
  0
LINE
  8
0
 10
99.3928
 20
61.0174
 11
99.35
 21
61.67
  0
LINE
  8
0
 10
114.62
 20
104.61
 11
114.62
 21
116.61
  0
LINE
  8
0
 10
114.62
 20
116.61
 11
126.62
 21
116.61
  0
LINE
  8
0
 10
126.62
 20
116.61
 11
126.62
 21
104.61
  0
LINE
  8
0
 10
126.62
 20
104.61
 11
114.62
 21
104.61
  0
LINE
  8
0
 10
128.4
 20
101.55
 11
128.4
 21
112.55
  0
LINE
  8
0
 10
128.4
 20
112.55
 11
151.4
 21
112.55
  0
LINE
  8
0
 10
151.4
 20
112.55
 11
151.4
 21
101.55
  0
LINE
  8
0
 10
151.4
 20
101.55
 11
128.4
 21
101.55
  0
LINE
  8
0
 10
174.15
 20
19
 11
174.166
 21
19.2415
  0
LINE
  8
0
 10
174.166
 20
19.2415
 11
174.213
 21
19.4788
  0
LINE
  8
0
 10
174.213
 20
19.4788
 11
174.291
 21
19.708
  0
LINE
  8
0
 10
174.291
 20
19.708
 11
174.398
 21
19.925
  0
LINE
  8
0
 10
174.398
 20
19.925
 11
174.532
 21
20.1262
  0
LINE
  8
0
 10
174.532
 20
20.1262
 11
174.692
 21
20.3081
  0
LINE
  8
0
 10
174.692
 20
20.3081
 11
174.874
 21
20.4677
  0
LINE
  8
0
 10
174.874
 20
20.4677
 11
175.075
 21
20.6021
  0
LINE
  8
0
 10
175.075
 20
20.6021
 11
175.292
 21
20.7092
  0
LINE
  8
0
 10
175.292
 20
20.7092
 11
175.521
 21
20.787
  0
LINE
  8
0
 10
175.521
 20
20.787
 11
175.759
 21
20.8342
  0
LINE
  8
0
 10
175.759
 20
20.8342
 11
176
 21
20.85
  0
LINE
  8
0
 10
176
 20
20.85
 11
176.241
 21
20.8342
  0
LINE
  8
0
 10
176.241
 20
20.8342
 11
176.479
 21
20.787
  0
LINE
  8
0
 10
176.479
 20
20.787
 11
176.708
 21
20.7092
  0
LINE
  8
0
 10
176.708
 20
20.7092
 11
176.925
 21
20.6021
  0
LINE
  8
0
 10
176.925
 20
20.6021
 11
177.126
 21
20.4677
  0
LINE
  8
0
 10
177.126
 20
20.4677
 11
177.308
 21
20.3081
  0
LINE
  8
0
 10
177.308
 20
20.3081
 11
177.468
 21
20.1262
  0
LINE
  8
0
 10
177.468
 20
20.1262
 11
177.602
 21
19.925
  0
LINE
  8
0
 10
177.602
 20
19.925
 11
177.709
 21
19.708
  0
LINE
  8
0
 10
177.709
 20
19.708
 11
177.787
 21
19.4788
  0
LINE
  8
0
 10
177.787
 20
19.4788
 11
177.834
 21
19.2415
  0
LINE
  8
0
 10
177.834
 20
19.2415
 11
177.85
 21
19
  0
LINE
  8
0
 10
177.85
 20
19
 11
177.834
 21
18.7585
  0
LINE
  8
0
 10
177.834
 20
18.7585
 11
177.787
 21
18.5212
  0
LINE
  8
0
 10
177.787
 20
18.5212
 11
177.709
 21
18.292
  0
LINE
  8
0
 10
177.709
 20
18.292
 11
177.602
 21
18.075
  0
LINE
  8
0
 10
177.602
 20
18.075
 11
177.468
 21
17.8738
  0
LINE
  8
0
 10
177.468
 20
17.8738
 11
177.308
 21
17.6919
  0
LINE
  8
0
 10
177.308
 20
17.6919
 11
177.126
 21
17.5323
  0
LINE
  8
0
 10
177.126
 20
17.5323
 11
176.925
 21
17.3979
  0
LINE
  8
0
 10
176.925
 20
17.3979
 11
176.708
 21
17.2908
  0
LINE
  8
0
 10
176.708
 20
17.2908
 11
176.479
 21
17.213
  0
LINE
  8
0
 10
176.479
 20
17.213
 11
176.241
 21
17.1658
  0
LINE
  8
0
 10
176.241
 20
17.1658
 11
176
 21
17.15
  0
LINE
  8
0
 10
176
 20
17.15
 11
175.759
 21
17.1658
  0
LINE
  8
0
 10
175.759
 20
17.1658
 11
175.521
 21
17.213
  0
LINE
  8
0
 10
175.521
 20
17.213
 11
175.292
 21
17.2908
  0
LINE
  8
0
 10
175.292
 20
17.2908
 11
175.075
 21
17.3979
  0
LINE
  8
0
 10
175.075
 20
17.3979
 11
174.874
 21
17.5323
  0
LINE
  8
0
 10
174.874
 20
17.5323
 11
174.692
 21
17.6919
  0
LINE
  8
0
 10
174.692
 20
17.6919
 11
174.532
 21
17.8738
  0
LINE
  8
0
 10
174.532
 20
17.8738
 11
174.398
 21
18.075
  0
LINE
  8
0
 10
174.398
 20
18.075
 11
174.291
 21
18.292
  0
LINE
  8
0
 10
174.291
 20
18.292
 11
174.213
 21
18.5212
  0
LINE
  8
0
 10
174.213
 20
18.5212
 11
174.166
 21
18.7585
  0
LINE
  8
0
 10
174.166
 20
18.7585
 11
174.15
 21
19
  0
LINE
  8
0
 10
174.15
 20
111
 11
174.166
 21
111.241
  0
LINE
  8
0
 10
174.166
 20
111.241
 11
174.213
 21
111.479
  0
LINE
  8
0
 10
174.213
 20
111.479
 11
174.291
 21
111.708
  0
LINE
  8
0
 10
174.291
 20
111.708
 11
174.398
 21
111.925
  0
LINE
  8
0
 10
174.398
 20
111.925
 11
174.532
 21
112.126
  0
LINE
  8
0
 10
174.532
 20
112.126
 11
174.692
 21
112.308
  0
LINE
  8
0
 10
174.692
 20
112.308
 11
174.874
 21
112.468
  0
LINE
  8
0
 10
174.874
 20
112.468
 11
175.075
 21
112.602
  0
LINE
  8
0
 10
175.075
 20
112.602
 11
175.292
 21
112.709
  0
LINE
  8
0
 10
175.292
 20
112.709
 11
175.521
 21
112.787
  0
LINE
  8
0
 10
175.521
 20
112.787
 11
175.759
 21
112.834
  0
LINE
  8
0
 10
175.759
 20
112.834
 11
176
 21
112.85
  0
LINE
  8
0
 10
176
 20
112.85
 11
176.241
 21
112.834
  0
LINE
  8
0
 10
176.241
 20
112.834
 11
176.479
 21
112.787
  0
LINE
  8
0
 10
176.479
 20
112.787
 11
176.708
 21
112.709
  0
LINE
  8
0
 10
176.708
 20
112.709
 11
176.925
 21
112.602
  0
LINE
  8
0
 10
176.925
 20
112.602
 11
177.126
 21
112.468
  0
LINE
  8
0
 10
177.126
 20
112.468
 11
177.308
 21
112.308
  0
LINE
  8
0
 10
177.308
 20
112.308
 11
177.468
 21
112.126
  0
LINE
  8
0
 10
177.468
 20
112.126
 11
177.602
 21
111.925
  0
LINE
  8
0
 10
177.602
 20
111.925
 11
177.709
 21
111.708
  0
LINE
  8
0
 10
177.709
 20
111.708
 11
177.787
 21
111.479
  0
LINE
  8
0
 10
177.787
 20
111.479
 11
177.834
 21
111.241
  0
LINE
  8
0
 10
177.834
 20
111.241
 11
177.85
 21
111
  0
LINE
  8
0
 10
177.85
 20
111
 11
177.834
 21
110.759
  0
LINE
  8
0
 10
177.834
 20
110.759
 11
177.787
 21
110.521
  0
LINE
  8
0
 10
177.787
 20
110.521
 11
177.709
 21
110.292
  0
LINE
  8
0
 10
177.709
 20
110.292
 11
177.602
 21
110.075
  0
LINE
  8
0
 10
177.602
 20
110.075
 11
177.468
 21
109.874
  0
LINE
  8
0
 10
177.468
 20
109.874
 11
177.308
 21
109.692
  0
LINE
  8
0
 10
177.308
 20
109.692
 11
177.126
 21
109.532
  0
LINE
  8
0
 10
177.126
 20
109.532
 11
176.925
 21
109.398
  0
LINE
  8
0
 10
176.925
 20
109.398
 11
176.708
 21
109.291
  0
LINE
  8
0
 10
176.708
 20
109.291
 11
176.479
 21
109.213
  0
LINE
  8
0
 10
176.479
 20
109.213
 11
176.241
 21
109.166
  0
LINE
  8
0
 10
176.241
 20
109.166
 11
176
 21
109.15
  0
LINE
  8
0
 10
176
 20
109.15
 11
175.759
 21
109.166
  0
LINE
  8
0
 10
175.759
 20
109.166
 11
175.521
 21
109.213
  0
LINE
  8
0
 10
175.521
 20
109.213
 11
175.292
 21
109.291
  0
LINE
  8
0
 10
175.292
 20
109.291
 11
175.075
 21
109.398
  0
LINE
  8
0
 10
175.075
 20
109.398
 11
174.874
 21
109.532
  0
LINE
  8
0
 10
174.874
 20
109.532
 11
174.692
 21
109.692
  0
LINE
  8
0
 10
174.692
 20
109.692
 11
174.532
 21
109.874
  0
LINE
  8
0
 10
174.532
 20
109.874
 11
174.398
 21
110.075
  0
LINE
  8
0
 10
174.398
 20
110.075
 11
174.291
 21
110.292
  0
LINE
  8
0
 10
174.291
 20
110.292
 11
174.213
 21
110.521
  0
LINE
  8
0
 10
174.213
 20
110.521
 11
174.166
 21
110.759
  0
LINE
  8
0
 10
174.166
 20
110.759
 11
174.15
 21
111
  0
LINE
  8
0
 10
180.15
 20
13
 11
180.166
 21
13.2415
  0
LINE
  8
0
 10
180.166
 20
13.2415
 11
180.213
 21
13.4788
  0
LINE
  8
0
 10
180.213
 20
13.4788
 11
180.291
 21
13.708
  0
LINE
  8
0
 10
180.291
 20
13.708
 11
180.398
 21
13.925
  0
LINE
  8
0
 10
180.398
 20
13.925
 11
180.532
 21
14.1262
  0
LINE
  8
0
 10
180.532
 20
14.1262
 11
180.692
 21
14.3081
  0
LINE
  8
0
 10
180.692
 20
14.3081
 11
180.874
 21
14.4677
  0
LINE
  8
0
 10
180.874
 20
14.4677
 11
181.075
 21
14.6021
  0
LINE
  8
0
 10
181.075
 20
14.6021
 11
181.292
 21
14.7092
  0
LINE
  8
0
 10
181.292
 20
14.7092
 11
181.521
 21
14.787
  0
LINE
  8
0
 10
181.521
 20
14.787
 11
181.759
 21
14.8342
  0
LINE
  8
0
 10
181.759
 20
14.8342
 11
182
 21
14.85
  0
LINE
  8
0
 10
182
 20
14.85
 11
182.241
 21
14.8342
  0
LINE
  8
0
 10
182.241
 20
14.8342
 11
182.479
 21
14.787
  0
LINE
  8
0
 10
182.479
 20
14.787
 11
182.708
 21
14.7092
  0
LINE
  8
0
 10
182.708
 20
14.7092
 11
182.925
 21
14.6021
  0
LINE
  8
0
 10
182.925
 20
14.6021
 11
183.126
 21
14.4677
  0
LINE
  8
0
 10
183.126
 20
14.4677
 11
183.308
 21
14.3081
  0
LINE
  8
0
 10
183.308
 20
14.3081
 11
183.468
 21
14.1262
  0
LINE
  8
0
 10
183.468
 20
14.1262
 11
183.602
 21
13.925
  0
LINE
  8
0
 10
183.602
 20
13.925
 11
183.709
 21
13.708
  0
LINE
  8
0
 10
183.709
 20
13.708
 11
183.787
 21
13.4788
  0
LINE
  8
0
 10
183.787
 20
13.4788
 11
183.834
 21
13.2415
  0
LINE
  8
0
 10
183.834
 20
13.2415
 11
183.85
 21
13
  0
LINE
  8
0
 10
183.85
 20
13
 11
183.834
 21
12.7585
  0
LINE
  8
0
 10
183.834
 20
12.7585
 11
183.787
 21
12.5212
  0
LINE
  8
0
 10
183.787
 20
12.5212
 11
183.709
 21
12.292
  0
LINE
  8
0
 10
183.709
 20
12.292
 11
183.602
 21
12.075
  0
LINE
  8
0
 10
183.602
 20
12.075
 11
183.468
 21
11.8738
  0
LINE
  8
0
 10
183.468
 20
11.8738
 11
183.308
 21
11.6919
  0
LINE
  8
0
 10
183.308
 20
11.6919
 11
183.126
 21
11.5323
  0
LINE
  8
0
 10
183.126
 20
11.5323
 11
182.925
 21
11.3979
  0
LINE
  8
0
 10
182.925
 20
11.3979
 11
182.708
 21
11.2908
  0
LINE
  8
0
 10
182.708
 20
11.2908
 11
182.479
 21
11.213
  0
LINE
  8
0
 10
182.479
 20
11.213
 11
182.241
 21
11.1658
  0
LINE
  8
0
 10
182.241
 20
11.1658
 11
182
 21
11.15
  0
LINE
  8
0
 10
182
 20
11.15
 11
181.759
 21
11.1658
  0
LINE
  8
0
 10
181.759
 20
11.1658
 11
181.521
 21
11.213
  0
LINE
  8
0
 10
181.521
 20
11.213
 11
181.292
 21
11.2908
  0
LINE
  8
0
 10
181.292
 20
11.2908
 11
181.075
 21
11.3979
  0
LINE
  8
0
 10
181.075
 20
11.3979
 11
180.874
 21
11.5323
  0
LINE
  8
0
 10
180.874
 20
11.5323
 11
180.692
 21
11.6919
  0
LINE
  8
0
 10
180.692
 20
11.6919
 11
180.532
 21
11.8738
  0
LINE
  8
0
 10
180.532
 20
11.8738
 11
180.398
 21
12.075
  0
LINE
  8
0
 10
180.398
 20
12.075
 11
180.291
 21
12.292
  0
LINE
  8
0
 10
180.291
 20
12.292
 11
180.213
 21
12.5212
  0
LINE
  8
0
 10
180.213
 20
12.5212
 11
180.166
 21
12.7585
  0
LINE
  8
0
 10
180.166
 20
12.7585
 11
180.15
 21
13
  0
LINE
  8
0
 10
180.15
 20
117
 11
180.166
 21
117.241
  0
LINE
  8
0
 10
180.166
 20
117.241
 11
180.213
 21
117.479
  0
LINE
  8
0
 10
180.213
 20
117.479
 11
180.291
 21
117.708
  0
LINE
  8
0
 10
180.291
 20
117.708
 11
180.398
 21
117.925
  0
LINE
  8
0
 10
180.398
 20
117.925
 11
180.532
 21
118.126
  0
LINE
  8
0
 10
180.532
 20
118.126
 11
180.692
 21
118.308
  0
LINE
  8
0
 10
180.692
 20
118.308
 11
180.874
 21
118.468
  0
LINE
  8
0
 10
180.874
 20
118.468
 11
181.075
 21
118.602
  0
LINE
  8
0
 10
181.075
 20
118.602
 11
181.292
 21
118.709
  0
LINE
  8
0
 10
181.292
 20
118.709
 11
181.521
 21
118.787
  0
LINE
  8
0
 10
181.521
 20
118.787
 11
181.759
 21
118.834
  0
LINE
  8
0
 10
181.759
 20
118.834
 11
182
 21
118.85
  0
LINE
  8
0
 10
182
 20
118.85
 11
182.241
 21
118.834
  0
LINE
  8
0
 10
182.241
 20
118.834
 11
182.479
 21
118.787
  0
LINE
  8
0
 10
182.479
 20
118.787
 11
182.708
 21
118.709
  0
LINE
  8
0
 10
182.708
 20
118.709
 11
182.925
 21
118.602
  0
LINE
  8
0
 10
182.925
 20
118.602
 11
183.126
 21
118.468
  0
LINE
  8
0
 10
183.126
 20
118.468
 11
183.308
 21
118.308
  0
LINE
  8
0
 10
183.308
 20
118.308
 11
183.468
 21
118.126
  0
LINE
  8
0
 10
183.468
 20
118.126
 11
183.602
 21
117.925
  0
LINE
  8
0
 10
183.602
 20
117.925
 11
183.709
 21
117.708
  0
LINE
  8
0
 10
183.709
 20
117.708
 11
183.787
 21
117.479
  0
LINE
  8
0
 10
183.787
 20
117.479
 11
183.834
 21
117.241
  0
LINE
  8
0
 10
183.834
 20
117.241
 11
183.85
 21
117
  0
LINE
  8
0
 10
183.85
 20
117
 11
183.834
 21
116.759
  0
LINE
  8
0
 10
183.834
 20
116.759
 11
183.787
 21
116.521
  0
LINE
  8
0
 10
183.787
 20
116.521
 11
183.709
 21
116.292
  0
LINE
  8
0
 10
183.709
 20
116.292
 11
183.602
 21
116.075
  0
LINE
  8
0
 10
183.602
 20
116.075
 11
183.468
 21
115.874
  0
LINE
  8
0
 10
183.468
 20
115.874
 11
183.308
 21
115.692
  0
LINE
  8
0
 10
183.308
 20
115.692
 11
183.126
 21
115.532
  0
LINE
  8
0
 10
183.126
 20
115.532
 11
182.925
 21
115.398
  0
LINE
  8
0
 10
182.925
 20
115.398
 11
182.708
 21
115.291
  0
LINE
  8
0
 10
182.708
 20
115.291
 11
182.479
 21
115.213
  0
LINE
  8
0
 10
182.479
 20
115.213
 11
182.241
 21
115.166
  0
LINE
  8
0
 10
182.241
 20
115.166
 11
182
 21
115.15
  0
LINE
  8
0
 10
182
 20
115.15
 11
181.759
 21
115.166
  0
LINE
  8
0
 10
181.759
 20
115.166
 11
181.521
 21
115.213
  0
LINE
  8
0
 10
181.521
 20
115.213
 11
181.292
 21
115.291
  0
LINE
  8
0
 10
181.292
 20
115.291
 11
181.075
 21
115.398
  0
LINE
  8
0
 10
181.075
 20
115.398
 11
180.874
 21
115.532
  0
LINE
  8
0
 10
180.874
 20
115.532
 11
180.692
 21
115.692
  0
LINE
  8
0
 10
180.692
 20
115.692
 11
180.532
 21
115.874
  0
LINE
  8
0
 10
180.532
 20
115.874
 11
180.398
 21
116.075
  0
LINE
  8
0
 10
180.398
 20
116.075
 11
180.291
 21
116.292
  0
LINE
  8
0
 10
180.291
 20
116.292
 11
180.213
 21
116.521
  0
LINE
  8
0
 10
180.213
 20
116.521
 11
180.166
 21
116.759
  0
LINE
  8
0
 10
180.166
 20
116.759
 11
180.15
 21
117
  0
ENDSEC
  0
SECTION
  2
OBJECTS
  0
DICTIONARY
  0
ENDSEC
  0
EOF
