  0
SECTION
  2
BLOCKS
  0
ENDSEC
  0
SECTION
  2
ENTITIES
  0
LINE
  8
0
 10
194.5
 20
-9
 11
-14.5
 21
-9
  0
LINE
  8
0
 10
-14.5
 20
-9
 11
-14.5
 21
-121
  0
LINE
  8
0
 10
-14.5
 20
-121
 11
194.5
 21
-121
  0
LINE
  8
0
 10
194.5
 20
-121
 11
194.5
 21
-9
  0
LINE
  8
0
 10
-6.8414
 20
-18.7164
 11
-7.16969
 21
-18.6168
  0
LINE
  8
0
 10
-7.16969
 20
-18.6168
 11
-7.47224
 21
-18.4551
  0
LINE
  8
0
 10
-7.47224
 20
-18.4551
 11
-7.73743
 21
-18.2374
  0
LINE
  8
0
 10
-7.73743
 20
-18.2374
 11
-7.95506
 21
-17.9722
  0
LINE
  8
0
 10
-7.95506
 20
-17.9722
 11
-8.11678
 21
-17.6697
  0
LINE
  8
0
 10
-8.11678
 20
-17.6697
 11
-8.21637
 21
-17.3414
  0
LINE
  8
0
 10
-8.21637
 20
-17.3414
 11
-8.25
 21
-17
  0
LINE
  8
0
 10
-8.25
 20
-17
 11
-8.21637
 21
-16.6586
  0
LINE
  8
0
 10
-8.21637
 20
-16.6586
 11
-8.11678
 21
-16.3303
  0
LINE
  8
0
 10
-8.11678
 20
-16.3303
 11
-7.95506
 21
-16.0277
  0
LINE
  8
0
 10
-7.95506
 20
-16.0277
 11
-7.73743
 21
-15.7626
  0
LINE
  8
0
 10
-7.73743
 20
-15.7626
 11
-7.47224
 21
-15.5449
  0
LINE
  8
0
 10
-7.47224
 20
-15.5449
 11
-7.16969
 21
-15.3832
  0
LINE
  8
0
 10
-7.16969
 20
-15.3832
 11
-6.8414
 21
-15.2836
  0
LINE
  8
0
 10
-6.8414
 20
-15.2836
 11
-6.5
 21
-15.25
  0
LINE
  8
0
 10
-6.5
 20
-15.25
 11
-6.15858
 21
-15.2836
  0
LINE
  8
0
 10
-6.15858
 20
-15.2836
 11
-5.83029
 21
-15.3832
  0
LINE
  8
0
 10
-5.83029
 20
-15.3832
 11
-5.52774
 21
-15.5449
  0
LINE
  8
0
 10
-5.52774
 20
-15.5449
 11
-5.26256
 21
-15.7626
  0
LINE
  8
0
 10
-5.26256
 20
-15.7626
 11
-5.04492
 21
-16.0277
  0
LINE
  8
0
 10
-5.04492
 20
-16.0277
 11
-4.88321
 21
-16.3303
  0
LINE
  8
0
 10
-4.88321
 20
-16.3303
 11
-4.78362
 21
-16.6586
  0
LINE
  8
0
 10
-4.78362
 20
-16.6586
 11
-4.75
 21
-17
  0
LINE
  8
0
 10
-4.75
 20
-17
 11
-4.78362
 21
-17.3414
  0
LINE
  8
0
 10
-4.78362
 20
-17.3414
 11
-4.88321
 21
-17.6697
  0
LINE
  8
0
 10
-4.88321
 20
-17.6697
 11
-5.04492
 21
-17.9722
  0
LINE
  8
0
 10
-5.04492
 20
-17.9722
 11
-5.26256
 21
-18.2374
  0
LINE
  8
0
 10
-5.26256
 20
-18.2374
 11
-5.52774
 21
-18.4551
  0
LINE
  8
0
 10
-5.52774
 20
-18.4551
 11
-5.83029
 21
-18.6168
  0
LINE
  8
0
 10
-5.83029
 20
-18.6168
 11
-6.15858
 21
-18.7164
  0
LINE
  8
0
 10
-6.15858
 20
-18.7164
 11
-6.5
 21
-18.75
  0
LINE
  8
0
 10
-6.5
 20
-18.75
 11
-6.8414
 21
-18.7164
  0
LINE
  8
0
 10
186.159
 20
-18.7164
 11
185.83
 21
-18.6168
  0
LINE
  8
0
 10
185.83
 20
-18.6168
 11
185.528
 21
-18.4551
  0
LINE
  8
0
 10
185.528
 20
-18.4551
 11
185.263
 21
-18.2374
  0
LINE
  8
0
 10
185.263
 20
-18.2374
 11
185.045
 21
-17.9722
  0
LINE
  8
0
 10
185.045
 20
-17.9722
 11
184.883
 21
-17.6697
  0
LINE
  8
0
 10
184.883
 20
-17.6697
 11
184.784
 21
-17.3414
  0
LINE
  8
0
 10
184.784
 20
-17.3414
 11
184.75
 21
-17
  0
LINE
  8
0
 10
184.75
 20
-17
 11
184.784
 21
-16.6586
  0
LINE
  8
0
 10
184.784
 20
-16.6586
 11
184.883
 21
-16.3303
  0
LINE
  8
0
 10
184.883
 20
-16.3303
 11
185.045
 21
-16.0277
  0
LINE
  8
0
 10
185.045
 20
-16.0277
 11
185.263
 21
-15.7626
  0
LINE
  8
0
 10
185.263
 20
-15.7626
 11
185.528
 21
-15.5449
  0
LINE
  8
0
 10
185.528
 20
-15.5449
 11
185.83
 21
-15.3832
  0
LINE
  8
0
 10
185.83
 20
-15.3832
 11
186.159
 21
-15.2836
  0
LINE
  8
0
 10
186.159
 20
-15.2836
 11
186.5
 21
-15.25
  0
LINE
  8
0
 10
186.5
 20
-15.25
 11
186.841
 21
-15.2836
  0
LINE
  8
0
 10
186.841
 20
-15.2836
 11
187.17
 21
-15.3832
  0
LINE
  8
0
 10
187.17
 20
-15.3832
 11
187.472
 21
-15.5449
  0
LINE
  8
0
 10
187.472
 20
-15.5449
 11
187.737
 21
-15.7626
  0
LINE
  8
0
 10
187.737
 20
-15.7626
 11
187.955
 21
-16.0277
  0
LINE
  8
0
 10
187.955
 20
-16.0277
 11
188.117
 21
-16.3303
  0
LINE
  8
0
 10
188.117
 20
-16.3303
 11
188.216
 21
-16.6586
  0
LINE
  8
0
 10
188.216
 20
-16.6586
 11
188.25
 21
-17
  0
LINE
  8
0
 10
188.25
 20
-17
 11
188.216
 21
-17.3414
  0
LINE
  8
0
 10
188.216
 20
-17.3414
 11
188.117
 21
-17.6697
  0
LINE
  8
0
 10
188.117
 20
-17.6697
 11
187.955
 21
-17.9722
  0
LINE
  8
0
 10
187.955
 20
-17.9722
 11
187.737
 21
-18.2374
  0
LINE
  8
0
 10
187.737
 20
-18.2374
 11
187.472
 21
-18.4551
  0
LINE
  8
0
 10
187.472
 20
-18.4551
 11
187.17
 21
-18.6168
  0
LINE
  8
0
 10
187.17
 20
-18.6168
 11
186.841
 21
-18.7164
  0
LINE
  8
0
 10
186.841
 20
-18.7164
 11
186.5
 21
-18.75
  0
LINE
  8
0
 10
186.5
 20
-18.75
 11
186.159
 21
-18.7164
  0
LINE
  8
0
 10
104.774
 20
-22.7986
 11
104.453
 21
-22.7348
  0
LINE
  8
0
 10
104.453
 20
-22.7348
 11
104.143
 21
-22.6297
  0
LINE
  8
0
 10
104.143
 20
-22.6297
 11
103.85
 21
-22.4851
  0
LINE
  8
0
 10
103.85
 20
-22.4851
 11
103.578
 21
-22.3034
  0
LINE
  8
0
 10
103.578
 20
-22.3034
 11
103.332
 21
-22.0878
  0
LINE
  8
0
 10
103.332
 20
-22.0878
 11
103.117
 21
-21.8419
  0
LINE
  8
0
 10
103.117
 20
-21.8419
 11
102.935
 21
-21.57
  0
LINE
  8
0
 10
102.935
 20
-21.57
 11
102.79
 21
-21.2767
  0
LINE
  8
0
 10
102.79
 20
-21.2767
 11
102.685
 21
-20.967
  0
LINE
  8
0
 10
102.685
 20
-20.967
 11
102.621
 21
-20.6463
  0
LINE
  8
0
 10
102.621
 20
-20.6463
 11
102.6
 21
-20.32
  0
LINE
  8
0
 10
102.6
 20
-20.32
 11
102.621
 21
-19.9937
  0
LINE
  8
0
 10
102.621
 20
-19.9937
 11
102.685
 21
-19.6729
  0
LINE
  8
0
 10
102.685
 20
-19.6729
 11
102.79
 21
-19.3633
  0
LINE
  8
0
 10
102.79
 20
-19.3633
 11
102.935
 21
-19.07
  0
LINE
  8
0
 10
102.935
 20
-19.07
 11
103.117
 21
-18.7981
  0
LINE
  8
0
 10
103.117
 20
-18.7981
 11
103.332
 21
-18.5522
  0
LINE
  8
0
 10
103.332
 20
-18.5522
 11
103.578
 21
-18.3366
  0
LINE
  8
0
 10
103.578
 20
-18.3366
 11
103.85
 21
-18.1549
  0
LINE
  8
0
 10
103.85
 20
-18.1549
 11
104.143
 21
-18.0103
  0
LINE
  8
0
 10
104.143
 20
-18.0103
 11
104.453
 21
-17.9052
  0
LINE
  8
0
 10
104.453
 20
-17.9052
 11
104.774
 21
-17.8414
  0
LINE
  8
0
 10
104.774
 20
-17.8414
 11
105.1
 21
-17.82
  0
LINE
  8
0
 10
105.1
 20
-17.82
 11
105.426
 21
-17.8414
  0
LINE
  8
0
 10
105.426
 20
-17.8414
 11
105.747
 21
-17.9052
  0
LINE
  8
0
 10
105.747
 20
-17.9052
 11
106.057
 21
-18.0103
  0
LINE
  8
0
 10
106.057
 20
-18.0103
 11
106.35
 21
-18.1549
  0
LINE
  8
0
 10
106.35
 20
-18.1549
 11
106.622
 21
-18.3366
  0
LINE
  8
0
 10
106.622
 20
-18.3366
 11
106.868
 21
-18.5522
  0
LINE
  8
0
 10
106.868
 20
-18.5522
 11
107.083
 21
-18.7981
  0
LINE
  8
0
 10
107.083
 20
-18.7981
 11
107.265
 21
-19.07
  0
LINE
  8
0
 10
107.265
 20
-19.07
 11
107.41
 21
-19.3633
  0
LINE
  8
0
 10
107.41
 20
-19.3633
 11
107.515
 21
-19.6729
  0
LINE
  8
0
 10
107.515
 20
-19.6729
 11
107.579
 21
-19.9937
  0
LINE
  8
0
 10
107.579
 20
-19.9937
 11
107.6
 21
-20.32
  0
LINE
  8
0
 10
107.6
 20
-20.32
 11
107.579
 21
-20.6463
  0
LINE
  8
0
 10
107.579
 20
-20.6463
 11
107.515
 21
-20.967
  0
LINE
  8
0
 10
107.515
 20
-20.967
 11
107.41
 21
-21.2767
  0
LINE
  8
0
 10
107.41
 20
-21.2767
 11
107.265
 21
-21.57
  0
LINE
  8
0
 10
107.265
 20
-21.57
 11
107.083
 21
-21.8419
  0
LINE
  8
0
 10
107.083
 20
-21.8419
 11
106.868
 21
-22.0878
  0
LINE
  8
0
 10
106.868
 20
-22.0878
 11
106.622
 21
-22.3034
  0
LINE
  8
0
 10
106.622
 20
-22.3034
 11
106.35
 21
-22.4851
  0
LINE
  8
0
 10
106.35
 20
-22.4851
 11
106.057
 21
-22.6297
  0
LINE
  8
0
 10
106.057
 20
-22.6297
 11
105.747
 21
-22.7348
  0
LINE
  8
0
 10
105.747
 20
-22.7348
 11
105.426
 21
-22.7986
  0
LINE
  8
0
 10
105.426
 20
-22.7986
 11
105.1
 21
-22.82
  0
LINE
  8
0
 10
105.1
 20
-22.82
 11
104.774
 21
-22.7986
  0
LINE
  8
0
 10
99.7737
 20
-22.7986
 11
99.4529
 21
-22.7348
  0
LINE
  8
0
 10
99.4529
 20
-22.7348
 11
99.1433
 21
-22.6297
  0
LINE
  8
0
 10
99.1433
 20
-22.6297
 11
98.85
 21
-22.4851
  0
LINE
  8
0
 10
98.85
 20
-22.4851
 11
98.5781
 21
-22.3034
  0
LINE
  8
0
 10
98.5781
 20
-22.3034
 11
98.3322
 21
-22.0878
  0
LINE
  8
0
 10
98.3322
 20
-22.0878
 11
98.1166
 21
-21.8419
  0
LINE
  8
0
 10
98.1166
 20
-21.8419
 11
97.9349
 21
-21.57
  0
LINE
  8
0
 10
97.9349
 20
-21.57
 11
97.7903
 21
-21.2767
  0
LINE
  8
0
 10
97.7903
 20
-21.2767
 11
97.6852
 21
-20.967
  0
LINE
  8
0
 10
97.6852
 20
-20.967
 11
97.6214
 21
-20.6463
  0
LINE
  8
0
 10
97.6214
 20
-20.6463
 11
97.6
 21
-20.32
  0
LINE
  8
0
 10
97.6
 20
-20.32
 11
97.6214
 21
-19.9937
  0
LINE
  8
0
 10
97.6214
 20
-19.9937
 11
97.6852
 21
-19.6729
  0
LINE
  8
0
 10
97.6852
 20
-19.6729
 11
97.7903
 21
-19.3633
  0
LINE
  8
0
 10
97.7903
 20
-19.3633
 11
97.9349
 21
-19.07
  0
LINE
  8
0
 10
97.9349
 20
-19.07
 11
98.1166
 21
-18.7981
  0
LINE
  8
0
 10
98.1166
 20
-18.7981
 11
98.3322
 21
-18.5522
  0
LINE
  8
0
 10
98.3322
 20
-18.5522
 11
98.5781
 21
-18.3366
  0
LINE
  8
0
 10
98.5781
 20
-18.3366
 11
98.85
 21
-18.1549
  0
LINE
  8
0
 10
98.85
 20
-18.1549
 11
99.1433
 21
-18.0103
  0
LINE
  8
0
 10
99.1433
 20
-18.0103
 11
99.4529
 21
-17.9052
  0
LINE
  8
0
 10
99.4529
 20
-17.9052
 11
99.7737
 21
-17.8414
  0
LINE
  8
0
 10
99.7737
 20
-17.8414
 11
100.1
 21
-17.82
  0
LINE
  8
0
 10
100.1
 20
-17.82
 11
100.426
 21
-17.8414
  0
LINE
  8
0
 10
100.426
 20
-17.8414
 11
100.747
 21
-17.9052
  0
LINE
  8
0
 10
100.747
 20
-17.9052
 11
101.057
 21
-18.0103
  0
LINE
  8
0
 10
101.057
 20
-18.0103
 11
101.35
 21
-18.1549
  0
LINE
  8
0
 10
101.35
 20
-18.1549
 11
101.622
 21
-18.3366
  0
LINE
  8
0
 10
101.622
 20
-18.3366
 11
101.868
 21
-18.5522
  0
LINE
  8
0
 10
101.868
 20
-18.5522
 11
102.083
 21
-18.7981
  0
LINE
  8
0
 10
102.083
 20
-18.7981
 11
102.265
 21
-19.07
  0
LINE
  8
0
 10
102.265
 20
-19.07
 11
102.41
 21
-19.3633
  0
LINE
  8
0
 10
102.41
 20
-19.3633
 11
102.515
 21
-19.6729
  0
LINE
  8
0
 10
102.515
 20
-19.6729
 11
102.579
 21
-19.9937
  0
LINE
  8
0
 10
102.579
 20
-19.9937
 11
102.6
 21
-20.32
  0
LINE
  8
0
 10
102.6
 20
-20.32
 11
102.579
 21
-20.6463
  0
LINE
  8
0
 10
102.579
 20
-20.6463
 11
102.515
 21
-20.967
  0
LINE
  8
0
 10
102.515
 20
-20.967
 11
102.41
 21
-21.2767
  0
LINE
  8
0
 10
102.41
 20
-21.2767
 11
102.265
 21
-21.57
  0
LINE
  8
0
 10
102.265
 20
-21.57
 11
102.083
 21
-21.8419
  0
LINE
  8
0
 10
102.083
 20
-21.8419
 11
101.868
 21
-22.0878
  0
LINE
  8
0
 10
101.868
 20
-22.0878
 11
101.622
 21
-22.3034
  0
LINE
  8
0
 10
101.622
 20
-22.3034
 11
101.35
 21
-22.4851
  0
LINE
  8
0
 10
101.35
 20
-22.4851
 11
101.057
 21
-22.6297
  0
LINE
  8
0
 10
101.057
 20
-22.6297
 11
100.747
 21
-22.7348
  0
LINE
  8
0
 10
100.747
 20
-22.7348
 11
100.426
 21
-22.7986
  0
LINE
  8
0
 10
100.426
 20
-22.7986
 11
100.1
 21
-22.82
  0
LINE
  8
0
 10
100.1
 20
-22.82
 11
99.7737
 21
-22.7986
  0
LINE
  8
0
 10
94.7737
 20
-22.7986
 11
94.4529
 21
-22.7348
  0
LINE
  8
0
 10
94.4529
 20
-22.7348
 11
94.1433
 21
-22.6297
  0
LINE
  8
0
 10
94.1433
 20
-22.6297
 11
93.85
 21
-22.4851
  0
LINE
  8
0
 10
93.85
 20
-22.4851
 11
93.5781
 21
-22.3034
  0
LINE
  8
0
 10
93.5781
 20
-22.3034
 11
93.3322
 21
-22.0878
  0
LINE
  8
0
 10
93.3322
 20
-22.0878
 11
93.1166
 21
-21.8419
  0
LINE
  8
0
 10
93.1166
 20
-21.8419
 11
92.9349
 21
-21.57
  0
LINE
  8
0
 10
92.9349
 20
-21.57
 11
92.7903
 21
-21.2767
  0
LINE
  8
0
 10
92.7903
 20
-21.2767
 11
92.6852
 21
-20.967
  0
LINE
  8
0
 10
92.6852
 20
-20.967
 11
92.6214
 21
-20.6463
  0
LINE
  8
0
 10
92.6214
 20
-20.6463
 11
92.6
 21
-20.32
  0
LINE
  8
0
 10
92.6
 20
-20.32
 11
92.6214
 21
-19.9937
  0
LINE
  8
0
 10
92.6214
 20
-19.9937
 11
92.6852
 21
-19.6729
  0
LINE
  8
0
 10
92.6852
 20
-19.6729
 11
92.7903
 21
-19.3633
  0
LINE
  8
0
 10
92.7903
 20
-19.3633
 11
92.9349
 21
-19.07
  0
LINE
  8
0
 10
92.9349
 20
-19.07
 11
93.1166
 21
-18.7981
  0
LINE
  8
0
 10
93.1166
 20
-18.7981
 11
93.3322
 21
-18.5522
  0
LINE
  8
0
 10
93.3322
 20
-18.5522
 11
93.5781
 21
-18.3366
  0
LINE
  8
0
 10
93.5781
 20
-18.3366
 11
93.85
 21
-18.1549
  0
LINE
  8
0
 10
93.85
 20
-18.1549
 11
94.1433
 21
-18.0103
  0
LINE
  8
0
 10
94.1433
 20
-18.0103
 11
94.4529
 21
-17.9052
  0
LINE
  8
0
 10
94.4529
 20
-17.9052
 11
94.7737
 21
-17.8414
  0
LINE
  8
0
 10
94.7737
 20
-17.8414
 11
95.1
 21
-17.82
  0
LINE
  8
0
 10
95.1
 20
-17.82
 11
95.4263
 21
-17.8414
  0
LINE
  8
0
 10
95.4263
 20
-17.8414
 11
95.747
 21
-17.9052
  0
LINE
  8
0
 10
95.747
 20
-17.9052
 11
96.0567
 21
-18.0103
  0
LINE
  8
0
 10
96.0567
 20
-18.0103
 11
96.35
 21
-18.1549
  0
LINE
  8
0
 10
96.35
 20
-18.1549
 11
96.6219
 21
-18.3366
  0
LINE
  8
0
 10
96.6219
 20
-18.3366
 11
96.8678
 21
-18.5522
  0
LINE
  8
0
 10
96.8678
 20
-18.5522
 11
97.0834
 21
-18.7981
  0
LINE
  8
0
 10
97.0834
 20
-18.7981
 11
97.2651
 21
-19.07
  0
LINE
  8
0
 10
97.2651
 20
-19.07
 11
97.4097
 21
-19.3633
  0
LINE
  8
0
 10
97.4097
 20
-19.3633
 11
97.5148
 21
-19.6729
  0
LINE
  8
0
 10
97.5148
 20
-19.6729
 11
97.5786
 21
-19.9937
  0
LINE
  8
0
 10
97.5786
 20
-19.9937
 11
97.6
 21
-20.32
  0
LINE
  8
0
 10
97.6
 20
-20.32
 11
97.5786
 21
-20.6463
  0
LINE
  8
0
 10
97.5786
 20
-20.6463
 11
97.5148
 21
-20.967
  0
LINE
  8
0
 10
97.5148
 20
-20.967
 11
97.4097
 21
-21.2767
  0
LINE
  8
0
 10
97.4097
 20
-21.2767
 11
97.2651
 21
-21.57
  0
LINE
  8
0
 10
97.2651
 20
-21.57
 11
97.0834
 21
-21.8419
  0
LINE
  8
0
 10
97.0834
 20
-21.8419
 11
96.8678
 21
-22.0878
  0
LINE
  8
0
 10
96.8678
 20
-22.0878
 11
96.6219
 21
-22.3034
  0
LINE
  8
0
 10
96.6219
 20
-22.3034
 11
96.35
 21
-22.4851
  0
LINE
  8
0
 10
96.35
 20
-22.4851
 11
96.0567
 21
-22.6297
  0
LINE
  8
0
 10
96.0567
 20
-22.6297
 11
95.747
 21
-22.7348
  0
LINE
  8
0
 10
95.747
 20
-22.7348
 11
95.4263
 21
-22.7986
  0
LINE
  8
0
 10
95.4263
 20
-22.7986
 11
95.1
 21
-22.82
  0
LINE
  8
0
 10
95.1
 20
-22.82
 11
94.7737
 21
-22.7986
  0
LINE
  8
0
 10
117.894
 20
-22.8486
 11
117.573
 21
-22.7848
  0
LINE
  8
0
 10
117.573
 20
-22.7848
 11
117.263
 21
-22.6797
  0
LINE
  8
0
 10
117.263
 20
-22.6797
 11
116.97
 21
-22.535
  0
LINE
  8
0
 10
116.97
 20
-22.535
 11
116.698
 21
-22.3534
  0
LINE
  8
0
 10
116.698
 20
-22.3534
 11
116.452
 21
-22.1378
  0
LINE
  8
0
 10
116.452
 20
-22.1378
 11
116.237
 21
-21.8919
  0
LINE
  8
0
 10
116.237
 20
-21.8919
 11
116.055
 21
-21.62
  0
LINE
  8
0
 10
116.055
 20
-21.62
 11
115.91
 21
-21.3267
  0
LINE
  8
0
 10
115.91
 20
-21.3267
 11
115.805
 21
-21.017
  0
LINE
  8
0
 10
115.805
 20
-21.017
 11
115.741
 21
-20.6963
  0
LINE
  8
0
 10
115.741
 20
-20.6963
 11
115.72
 21
-20.37
  0
LINE
  8
0
 10
115.72
 20
-20.37
 11
115.741
 21
-20.0437
  0
LINE
  8
0
 10
115.741
 20
-20.0437
 11
115.805
 21
-19.7229
  0
LINE
  8
0
 10
115.805
 20
-19.7229
 11
115.91
 21
-19.4133
  0
LINE
  8
0
 10
115.91
 20
-19.4133
 11
116.055
 21
-19.12
  0
LINE
  8
0
 10
116.055
 20
-19.12
 11
116.237
 21
-18.8481
  0
LINE
  8
0
 10
116.237
 20
-18.8481
 11
116.452
 21
-18.6022
  0
LINE
  8
0
 10
116.452
 20
-18.6022
 11
116.698
 21
-18.3866
  0
LINE
  8
0
 10
116.698
 20
-18.3866
 11
116.97
 21
-18.2049
  0
LINE
  8
0
 10
116.97
 20
-18.2049
 11
117.263
 21
-18.0603
  0
LINE
  8
0
 10
117.263
 20
-18.0603
 11
117.573
 21
-17.9552
  0
LINE
  8
0
 10
117.573
 20
-17.9552
 11
117.894
 21
-17.8914
  0
LINE
  8
0
 10
117.894
 20
-17.8914
 11
118.22
 21
-17.87
  0
LINE
  8
0
 10
118.22
 20
-17.87
 11
118.546
 21
-17.8914
  0
LINE
  8
0
 10
118.546
 20
-17.8914
 11
118.867
 21
-17.9552
  0
LINE
  8
0
 10
118.867
 20
-17.9552
 11
119.177
 21
-18.0603
  0
LINE
  8
0
 10
119.177
 20
-18.0603
 11
119.47
 21
-18.2049
  0
LINE
  8
0
 10
119.47
 20
-18.2049
 11
119.742
 21
-18.3866
  0
LINE
  8
0
 10
119.742
 20
-18.3866
 11
119.988
 21
-18.6022
  0
LINE
  8
0
 10
119.988
 20
-18.6022
 11
120.203
 21
-18.8481
  0
LINE
  8
0
 10
120.203
 20
-18.8481
 11
120.385
 21
-19.12
  0
LINE
  8
0
 10
120.385
 20
-19.12
 11
120.53
 21
-19.4133
  0
LINE
  8
0
 10
120.53
 20
-19.4133
 11
120.635
 21
-19.7229
  0
LINE
  8
0
 10
120.635
 20
-19.7229
 11
120.699
 21
-20.0437
  0
LINE
  8
0
 10
120.699
 20
-20.0437
 11
120.72
 21
-20.37
  0
LINE
  8
0
 10
120.72
 20
-20.37
 11
120.699
 21
-20.6963
  0
LINE
  8
0
 10
120.699
 20
-20.6963
 11
120.635
 21
-21.017
  0
LINE
  8
0
 10
120.635
 20
-21.017
 11
120.53
 21
-21.3267
  0
LINE
  8
0
 10
120.53
 20
-21.3267
 11
120.385
 21
-21.62
  0
LINE
  8
0
 10
120.385
 20
-21.62
 11
120.203
 21
-21.8919
  0
LINE
  8
0
 10
120.203
 20
-21.8919
 11
119.988
 21
-22.1378
  0
LINE
  8
0
 10
119.988
 20
-22.1378
 11
119.742
 21
-22.3534
  0
LINE
  8
0
 10
119.742
 20
-22.3534
 11
119.47
 21
-22.535
  0
LINE
  8
0
 10
119.47
 20
-22.535
 11
119.177
 21
-22.6797
  0
LINE
  8
0
 10
119.177
 20
-22.6797
 11
118.867
 21
-22.7848
  0
LINE
  8
0
 10
118.867
 20
-22.7848
 11
118.546
 21
-22.8486
  0
LINE
  8
0
 10
118.546
 20
-22.8486
 11
118.22
 21
-22.87
  0
LINE
  8
0
 10
118.22
 20
-22.87
 11
117.894
 21
-22.8486
  0
LINE
  8
0
 10
112.894
 20
-22.8486
 11
112.573
 21
-22.7848
  0
LINE
  8
0
 10
112.573
 20
-22.7848
 11
112.263
 21
-22.6797
  0
LINE
  8
0
 10
112.263
 20
-22.6797
 11
111.97
 21
-22.535
  0
LINE
  8
0
 10
111.97
 20
-22.535
 11
111.698
 21
-22.3534
  0
LINE
  8
0
 10
111.698
 20
-22.3534
 11
111.452
 21
-22.1378
  0
LINE
  8
0
 10
111.452
 20
-22.1378
 11
111.237
 21
-21.8919
  0
LINE
  8
0
 10
111.237
 20
-21.8919
 11
111.055
 21
-21.62
  0
LINE
  8
0
 10
111.055
 20
-21.62
 11
110.91
 21
-21.3267
  0
LINE
  8
0
 10
110.91
 20
-21.3267
 11
110.805
 21
-21.017
  0
LINE
  8
0
 10
110.805
 20
-21.017
 11
110.741
 21
-20.6963
  0
LINE
  8
0
 10
110.741
 20
-20.6963
 11
110.72
 21
-20.37
  0
LINE
  8
0
 10
110.72
 20
-20.37
 11
110.741
 21
-20.0437
  0
LINE
  8
0
 10
110.741
 20
-20.0437
 11
110.805
 21
-19.7229
  0
LINE
  8
0
 10
110.805
 20
-19.7229
 11
110.91
 21
-19.4133
  0
LINE
  8
0
 10
110.91
 20
-19.4133
 11
111.055
 21
-19.12
  0
LINE
  8
0
 10
111.055
 20
-19.12
 11
111.237
 21
-18.8481
  0
LINE
  8
0
 10
111.237
 20
-18.8481
 11
111.452
 21
-18.6022
  0
LINE
  8
0
 10
111.452
 20
-18.6022
 11
111.698
 21
-18.3866
  0
LINE
  8
0
 10
111.698
 20
-18.3866
 11
111.97
 21
-18.2049
  0
LINE
  8
0
 10
111.97
 20
-18.2049
 11
112.263
 21
-18.0603
  0
LINE
  8
0
 10
112.263
 20
-18.0603
 11
112.573
 21
-17.9552
  0
LINE
  8
0
 10
112.573
 20
-17.9552
 11
112.894
 21
-17.8914
  0
LINE
  8
0
 10
112.894
 20
-17.8914
 11
113.22
 21
-17.87
  0
LINE
  8
0
 10
113.22
 20
-17.87
 11
113.546
 21
-17.8914
  0
LINE
  8
0
 10
113.546
 20
-17.8914
 11
113.867
 21
-17.9552
  0
LINE
  8
0
 10
113.867
 20
-17.9552
 11
114.177
 21
-18.0603
  0
LINE
  8
0
 10
114.177
 20
-18.0603
 11
114.47
 21
-18.2049
  0
LINE
  8
0
 10
114.47
 20
-18.2049
 11
114.742
 21
-18.3866
  0
LINE
  8
0
 10
114.742
 20
-18.3866
 11
114.988
 21
-18.6022
  0
LINE
  8
0
 10
114.988
 20
-18.6022
 11
115.203
 21
-18.8481
  0
LINE
  8
0
 10
115.203
 20
-18.8481
 11
115.385
 21
-19.12
  0
LINE
  8
0
 10
115.385
 20
-19.12
 11
115.53
 21
-19.4133
  0
LINE
  8
0
 10
115.53
 20
-19.4133
 11
115.635
 21
-19.7229
  0
LINE
  8
0
 10
115.635
 20
-19.7229
 11
115.699
 21
-20.0437
  0
LINE
  8
0
 10
115.699
 20
-20.0437
 11
115.72
 21
-20.37
  0
LINE
  8
0
 10
115.72
 20
-20.37
 11
115.699
 21
-20.6963
  0
LINE
  8
0
 10
115.699
 20
-20.6963
 11
115.635
 21
-21.017
  0
LINE
  8
0
 10
115.635
 20
-21.017
 11
115.53
 21
-21.3267
  0
LINE
  8
0
 10
115.53
 20
-21.3267
 11
115.385
 21
-21.62
  0
LINE
  8
0
 10
115.385
 20
-21.62
 11
115.203
 21
-21.8919
  0
LINE
  8
0
 10
115.203
 20
-21.8919
 11
114.988
 21
-22.1378
  0
LINE
  8
0
 10
114.988
 20
-22.1378
 11
114.742
 21
-22.3534
  0
LINE
  8
0
 10
114.742
 20
-22.3534
 11
114.47
 21
-22.535
  0
LINE
  8
0
 10
114.47
 20
-22.535
 11
114.177
 21
-22.6797
  0
LINE
  8
0
 10
114.177
 20
-22.6797
 11
113.867
 21
-22.7848
  0
LINE
  8
0
 10
113.867
 20
-22.7848
 11
113.546
 21
-22.8486
  0
LINE
  8
0
 10
113.546
 20
-22.8486
 11
113.22
 21
-22.87
  0
LINE
  8
0
 10
113.22
 20
-22.87
 11
112.894
 21
-22.8486
  0
LINE
  8
0
 10
132.294
 20
-22.9986
 11
131.973
 21
-22.9348
  0
LINE
  8
0
 10
131.973
 20
-22.9348
 11
131.663
 21
-22.8297
  0
LINE
  8
0
 10
131.663
 20
-22.8297
 11
131.37
 21
-22.6851
  0
LINE
  8
0
 10
131.37
 20
-22.6851
 11
131.098
 21
-22.5034
  0
LINE
  8
0
 10
131.098
 20
-22.5034
 11
130.852
 21
-22.2878
  0
LINE
  8
0
 10
130.852
 20
-22.2878
 11
130.637
 21
-22.0419
  0
LINE
  8
0
 10
130.637
 20
-22.0419
 11
130.455
 21
-21.77
  0
LINE
  8
0
 10
130.455
 20
-21.77
 11
130.31
 21
-21.4767
  0
LINE
  8
0
 10
130.31
 20
-21.4767
 11
130.205
 21
-21.167
  0
LINE
  8
0
 10
130.205
 20
-21.167
 11
130.141
 21
-20.8463
  0
LINE
  8
0
 10
130.141
 20
-20.8463
 11
130.12
 21
-20.52
  0
LINE
  8
0
 10
130.12
 20
-20.52
 11
130.141
 21
-20.1937
  0
LINE
  8
0
 10
130.141
 20
-20.1937
 11
130.205
 21
-19.8729
  0
LINE
  8
0
 10
130.205
 20
-19.8729
 11
130.31
 21
-19.5633
  0
LINE
  8
0
 10
130.31
 20
-19.5633
 11
130.455
 21
-19.27
  0
LINE
  8
0
 10
130.455
 20
-19.27
 11
130.637
 21
-18.9981
  0
LINE
  8
0
 10
130.637
 20
-18.9981
 11
130.852
 21
-18.7522
  0
LINE
  8
0
 10
130.852
 20
-18.7522
 11
131.098
 21
-18.5366
  0
LINE
  8
0
 10
131.098
 20
-18.5366
 11
131.37
 21
-18.3549
  0
LINE
  8
0
 10
131.37
 20
-18.3549
 11
131.663
 21
-18.2103
  0
LINE
  8
0
 10
131.663
 20
-18.2103
 11
131.973
 21
-18.1052
  0
LINE
  8
0
 10
131.973
 20
-18.1052
 11
132.294
 21
-18.0414
  0
LINE
  8
0
 10
132.294
 20
-18.0414
 11
132.62
 21
-18.02
  0
LINE
  8
0
 10
132.62
 20
-18.02
 11
132.946
 21
-18.0414
  0
LINE
  8
0
 10
132.946
 20
-18.0414
 11
133.267
 21
-18.1052
  0
LINE
  8
0
 10
133.267
 20
-18.1052
 11
133.577
 21
-18.2103
  0
LINE
  8
0
 10
133.577
 20
-18.2103
 11
133.87
 21
-18.3549
  0
LINE
  8
0
 10
133.87
 20
-18.3549
 11
134.142
 21
-18.5366
  0
LINE
  8
0
 10
134.142
 20
-18.5366
 11
134.388
 21
-18.7522
  0
LINE
  8
0
 10
134.388
 20
-18.7522
 11
134.603
 21
-18.9981
  0
LINE
  8
0
 10
134.603
 20
-18.9981
 11
134.785
 21
-19.27
  0
LINE
  8
0
 10
134.785
 20
-19.27
 11
134.93
 21
-19.5633
  0
LINE
  8
0
 10
134.93
 20
-19.5633
 11
135.035
 21
-19.8729
  0
LINE
  8
0
 10
135.035
 20
-19.8729
 11
135.099
 21
-20.1937
  0
LINE
  8
0
 10
135.099
 20
-20.1937
 11
135.12
 21
-20.52
  0
LINE
  8
0
 10
135.12
 20
-20.52
 11
135.099
 21
-20.8463
  0
LINE
  8
0
 10
135.099
 20
-20.8463
 11
135.035
 21
-21.167
  0
LINE
  8
0
 10
135.035
 20
-21.167
 11
134.93
 21
-21.4767
  0
LINE
  8
0
 10
134.93
 20
-21.4767
 11
134.785
 21
-21.77
  0
LINE
  8
0
 10
134.785
 20
-21.77
 11
134.603
 21
-22.0419
  0
LINE
  8
0
 10
134.603
 20
-22.0419
 11
134.388
 21
-22.2878
  0
LINE
  8
0
 10
134.388
 20
-22.2878
 11
134.142
 21
-22.5034
  0
LINE
  8
0
 10
134.142
 20
-22.5034
 11
133.87
 21
-22.6851
  0
LINE
  8
0
 10
133.87
 20
-22.6851
 11
133.577
 21
-22.8297
  0
LINE
  8
0
 10
133.577
 20
-22.8297
 11
133.267
 21
-22.9348
  0
LINE
  8
0
 10
133.267
 20
-22.9348
 11
132.946
 21
-22.9986
  0
LINE
  8
0
 10
132.946
 20
-22.9986
 11
132.62
 21
-23.02
  0
LINE
  8
0
 10
132.62
 20
-23.02
 11
132.294
 21
-22.9986
  0
LINE
  8
0
 10
127.294
 20
-22.9986
 11
126.973
 21
-22.9348
  0
LINE
  8
0
 10
126.973
 20
-22.9348
 11
126.663
 21
-22.8297
  0
LINE
  8
0
 10
126.663
 20
-22.8297
 11
126.37
 21
-22.6851
  0
LINE
  8
0
 10
126.37
 20
-22.6851
 11
126.098
 21
-22.5034
  0
LINE
  8
0
 10
126.098
 20
-22.5034
 11
125.852
 21
-22.2878
  0
LINE
  8
0
 10
125.852
 20
-22.2878
 11
125.637
 21
-22.0419
  0
LINE
  8
0
 10
125.637
 20
-22.0419
 11
125.455
 21
-21.77
  0
LINE
  8
0
 10
125.455
 20
-21.77
 11
125.31
 21
-21.4767
  0
LINE
  8
0
 10
125.31
 20
-21.4767
 11
125.205
 21
-21.167
  0
LINE
  8
0
 10
125.205
 20
-21.167
 11
125.141
 21
-20.8463
  0
LINE
  8
0
 10
125.141
 20
-20.8463
 11
125.12
 21
-20.52
  0
LINE
  8
0
 10
125.12
 20
-20.52
 11
125.141
 21
-20.1937
  0
LINE
  8
0
 10
125.141
 20
-20.1937
 11
125.205
 21
-19.8729
  0
LINE
  8
0
 10
125.205
 20
-19.8729
 11
125.31
 21
-19.5633
  0
LINE
  8
0
 10
125.31
 20
-19.5633
 11
125.455
 21
-19.27
  0
LINE
  8
0
 10
125.455
 20
-19.27
 11
125.637
 21
-18.9981
  0
LINE
  8
0
 10
125.637
 20
-18.9981
 11
125.852
 21
-18.7522
  0
LINE
  8
0
 10
125.852
 20
-18.7522
 11
126.098
 21
-18.5366
  0
LINE
  8
0
 10
126.098
 20
-18.5366
 11
126.37
 21
-18.3549
  0
LINE
  8
0
 10
126.37
 20
-18.3549
 11
126.663
 21
-18.2103
  0
LINE
  8
0
 10
126.663
 20
-18.2103
 11
126.973
 21
-18.1052
  0
LINE
  8
0
 10
126.973
 20
-18.1052
 11
127.294
 21
-18.0414
  0
LINE
  8
0
 10
127.294
 20
-18.0414
 11
127.62
 21
-18.02
  0
LINE
  8
0
 10
127.62
 20
-18.02
 11
127.946
 21
-18.0414
  0
LINE
  8
0
 10
127.946
 20
-18.0414
 11
128.267
 21
-18.1052
  0
LINE
  8
0
 10
128.267
 20
-18.1052
 11
128.577
 21
-18.2103
  0
LINE
  8
0
 10
128.577
 20
-18.2103
 11
128.87
 21
-18.3549
  0
LINE
  8
0
 10
128.87
 20
-18.3549
 11
129.142
 21
-18.5366
  0
LINE
  8
0
 10
129.142
 20
-18.5366
 11
129.388
 21
-18.7522
  0
LINE
  8
0
 10
129.388
 20
-18.7522
 11
129.603
 21
-18.9981
  0
LINE
  8
0
 10
129.603
 20
-18.9981
 11
129.785
 21
-19.27
  0
LINE
  8
0
 10
129.785
 20
-19.27
 11
129.93
 21
-19.5633
  0
LINE
  8
0
 10
129.93
 20
-19.5633
 11
130.035
 21
-19.8729
  0
LINE
  8
0
 10
130.035
 20
-19.8729
 11
130.099
 21
-20.1937
  0
LINE
  8
0
 10
130.099
 20
-20.1937
 11
130.12
 21
-20.52
  0
LINE
  8
0
 10
130.12
 20
-20.52
 11
130.099
 21
-20.8463
  0
LINE
  8
0
 10
130.099
 20
-20.8463
 11
130.035
 21
-21.167
  0
LINE
  8
0
 10
130.035
 20
-21.167
 11
129.93
 21
-21.4767
  0
LINE
  8
0
 10
129.93
 20
-21.4767
 11
129.785
 21
-21.77
  0
LINE
  8
0
 10
129.785
 20
-21.77
 11
129.603
 21
-22.0419
  0
LINE
  8
0
 10
129.603
 20
-22.0419
 11
129.388
 21
-22.2878
  0
LINE
  8
0
 10
129.388
 20
-22.2878
 11
129.142
 21
-22.5034
  0
LINE
  8
0
 10
129.142
 20
-22.5034
 11
128.87
 21
-22.6851
  0
LINE
  8
0
 10
128.87
 20
-22.6851
 11
128.577
 21
-22.8297
  0
LINE
  8
0
 10
128.577
 20
-22.8297
 11
128.267
 21
-22.9348
  0
LINE
  8
0
 10
128.267
 20
-22.9348
 11
127.946
 21
-22.9986
  0
LINE
  8
0
 10
127.946
 20
-22.9986
 11
127.62
 21
-23.02
  0
LINE
  8
0
 10
127.62
 20
-23.02
 11
127.294
 21
-22.9986
  0
LINE
  8
0
 10
-6.8414
 20
-114.716
 11
-7.16969
 21
-114.617
  0
LINE
  8
0
 10
-7.16969
 20
-114.617
 11
-7.47224
 21
-114.455
  0
LINE
  8
0
 10
-7.47224
 20
-114.455
 11
-7.73743
 21
-114.237
  0
LINE
  8
0
 10
-7.73743
 20
-114.237
 11
-7.95506
 21
-113.972
  0
LINE
  8
0
 10
-7.95506
 20
-113.972
 11
-8.11678
 21
-113.67
  0
LINE
  8
0
 10
-8.11678
 20
-113.67
 11
-8.21637
 21
-113.341
  0
LINE
  8
0
 10
-8.21637
 20
-113.341
 11
-8.25
 21
-113
  0
LINE
  8
0
 10
-8.25
 20
-113
 11
-8.21637
 21
-112.659
  0
LINE
  8
0
 10
-8.21637
 20
-112.659
 11
-8.11678
 21
-112.33
  0
LINE
  8
0
 10
-8.11678
 20
-112.33
 11
-7.95506
 21
-112.028
  0
LINE
  8
0
 10
-7.95506
 20
-112.028
 11
-7.73743
 21
-111.763
  0
LINE
  8
0
 10
-7.73743
 20
-111.763
 11
-7.47224
 21
-111.545
  0
LINE
  8
0
 10
-7.47224
 20
-111.545
 11
-7.16969
 21
-111.383
  0
LINE
  8
0
 10
-7.16969
 20
-111.383
 11
-6.8414
 21
-111.284
  0
LINE
  8
0
 10
-6.8414
 20
-111.284
 11
-6.5
 21
-111.25
  0
LINE
  8
0
 10
-6.5
 20
-111.25
 11
-6.15858
 21
-111.284
  0
LINE
  8
0
 10
-6.15858
 20
-111.284
 11
-5.83029
 21
-111.383
  0
LINE
  8
0
 10
-5.83029
 20
-111.383
 11
-5.52774
 21
-111.545
  0
LINE
  8
0
 10
-5.52774
 20
-111.545
 11
-5.26256
 21
-111.763
  0
LINE
  8
0
 10
-5.26256
 20
-111.763
 11
-5.04492
 21
-112.028
  0
LINE
  8
0
 10
-5.04492
 20
-112.028
 11
-4.88321
 21
-112.33
  0
LINE
  8
0
 10
-4.88321
 20
-112.33
 11
-4.78362
 21
-112.659
  0
LINE
  8
0
 10
-4.78362
 20
-112.659
 11
-4.75
 21
-113
  0
LINE
  8
0
 10
-4.75
 20
-113
 11
-4.78362
 21
-113.341
  0
LINE
  8
0
 10
-4.78362
 20
-113.341
 11
-4.88321
 21
-113.67
  0
LINE
  8
0
 10
-4.88321
 20
-113.67
 11
-5.04492
 21
-113.972
  0
LINE
  8
0
 10
-5.04492
 20
-113.972
 11
-5.26256
 21
-114.237
  0
LINE
  8
0
 10
-5.26256
 20
-114.237
 11
-5.52774
 21
-114.455
  0
LINE
  8
0
 10
-5.52774
 20
-114.455
 11
-5.83029
 21
-114.617
  0
LINE
  8
0
 10
-5.83029
 20
-114.617
 11
-6.15858
 21
-114.716
  0
LINE
  8
0
 10
-6.15858
 20
-114.716
 11
-6.5
 21
-114.75
  0
LINE
  8
0
 10
-6.5
 20
-114.75
 11
-6.8414
 21
-114.716
  0
LINE
  8
0
 10
186.159
 20
-114.716
 11
185.83
 21
-114.617
  0
LINE
  8
0
 10
185.83
 20
-114.617
 11
185.528
 21
-114.455
  0
LINE
  8
0
 10
185.528
 20
-114.455
 11
185.263
 21
-114.237
  0
LINE
  8
0
 10
185.263
 20
-114.237
 11
185.045
 21
-113.972
  0
LINE
  8
0
 10
185.045
 20
-113.972
 11
184.883
 21
-113.67
  0
LINE
  8
0
 10
184.883
 20
-113.67
 11
184.784
 21
-113.341
  0
LINE
  8
0
 10
184.784
 20
-113.341
 11
184.75
 21
-113
  0
LINE
  8
0
 10
184.75
 20
-113
 11
184.784
 21
-112.659
  0
LINE
  8
0
 10
184.784
 20
-112.659
 11
184.883
 21
-112.33
  0
LINE
  8
0
 10
184.883
 20
-112.33
 11
185.045
 21
-112.028
  0
LINE
  8
0
 10
185.045
 20
-112.028
 11
185.263
 21
-111.763
  0
LINE
  8
0
 10
185.263
 20
-111.763
 11
185.528
 21
-111.545
  0
LINE
  8
0
 10
185.528
 20
-111.545
 11
185.83
 21
-111.383
  0
LINE
  8
0
 10
185.83
 20
-111.383
 11
186.159
 21
-111.284
  0
LINE
  8
0
 10
186.159
 20
-111.284
 11
186.5
 21
-111.25
  0
LINE
  8
0
 10
186.5
 20
-111.25
 11
186.841
 21
-111.284
  0
LINE
  8
0
 10
186.841
 20
-111.284
 11
187.17
 21
-111.383
  0
LINE
  8
0
 10
187.17
 20
-111.383
 11
187.472
 21
-111.545
  0
LINE
  8
0
 10
187.472
 20
-111.545
 11
187.737
 21
-111.763
  0
LINE
  8
0
 10
187.737
 20
-111.763
 11
187.955
 21
-112.028
  0
LINE
  8
0
 10
187.955
 20
-112.028
 11
188.117
 21
-112.33
  0
LINE
  8
0
 10
188.117
 20
-112.33
 11
188.216
 21
-112.659
  0
LINE
  8
0
 10
188.216
 20
-112.659
 11
188.25
 21
-113
  0
LINE
  8
0
 10
188.25
 20
-113
 11
188.216
 21
-113.341
  0
LINE
  8
0
 10
188.216
 20
-113.341
 11
188.117
 21
-113.67
  0
LINE
  8
0
 10
188.117
 20
-113.67
 11
187.955
 21
-113.972
  0
LINE
  8
0
 10
187.955
 20
-113.972
 11
187.737
 21
-114.237
  0
LINE
  8
0
 10
187.737
 20
-114.237
 11
187.472
 21
-114.455
  0
LINE
  8
0
 10
187.472
 20
-114.455
 11
187.17
 21
-114.617
  0
LINE
  8
0
 10
187.17
 20
-114.617
 11
186.841
 21
-114.716
  0
LINE
  8
0
 10
186.841
 20
-114.716
 11
186.5
 21
-114.75
  0
LINE
  8
0
 10
186.5
 20
-114.75
 11
186.159
 21
-114.716
  0
ENDSEC
  0
SECTION
  2
OBJECTS
  0
DICTIONARY
  0
ENDSEC
  0
EOF
