#VRML V2.0 utf8
# 3D model generated by easyeda2kicad.py (https://github.com/uPesy/easyeda2kicad.py)

Shape{
    appearance Appearance {
        material  Material 	{
            diffuseColor 0.10980392156862745 0.10980392156862745 0.10980392156862745
            specularColor 0.0784313725490196 0.0784313725490196 0.0784313725490196
            ambientIntensity 0.1098
            transparency 0.0
            shininess 0.5
        }
    }
    geometry IndexedFaceSet {
        ccw TRUE
        solid FALSE
        coord DEF co Coordinate {
            point [
                0.1492 -1.0076 0.0492, 0.1492 -0.6427 0.0492, 0.6427 -0.6427 0.0492, 0.0447 -0.6427 0.0492, 0.0447 -1.0076 0.0492, -0.0417 -0.6427 0.0492, -0.0417 -1.0076 0.0492, -0.1526 -0.6427 0.0492, 0.0563 -1.1073 0.0492, 0.0447 -1.1271 0.0492, 0.0563 -1.1203 0.0492, 0.0689 -1.1254 0.0492, 0.0929 -1.0076 0.0492, 0.0841 -1.0068 0.0492, 0.0736 -1.0076 0.0492, 0.0699 -1.0078 0.0492, 0.0563 -1.0115 0.0492, 0.0563 -1.0274 0.0492, 0.0696 -1.0217 0.0492, 0.0584 -1.1085 0.0492, 0.0839 -1.0198 0.0492, 0.0956 -1.0211 0.0492, 0.1044 -1.0243 0.0492, 0.1126 -1.0298 0.0492, 0.1197 -1.0376 0.0492, 0.1283 -1.0686 0.0492, 0.1271 -1.0814 0.0492, 0.1239 -1.0915 0.0492, 0.0976 -1.1136 0.0492, 0.0866 -1.1149 0.0492, 0.1062 -1.1105 0.0492, 0.1135 -1.1056 0.0492, 0.119 -1.0997 0.0492, 0.0709 -1.1131 0.0492, 0.1246 -1.0468 0.0492, 0.1277 -1.0594 0.0492, 0.1148 -1.1224 0.0492, 0.1243 -1.1163 0.0492, 0.1492 -1.1271 0.0492, 0.1331 -1.107 0.0492, 0.1394 -1.0957 0.0492, 0.1379 -1.0394 0.0492, 0.131 -1.0283 0.0492, 0.1203 -1.0181 0.0492, 0.1091 -1.0116 0.0492, 0.0959 -1.0078 0.0492, 0.143 -1.0832 0.0492, 0.1441 -1.0696 0.0492, 0.1424 -1.0528 0.0492, 0.0808 -1.1271 0.0492, 0.0855 -1.1278 0.0492, 0.0447 -1.4764 0.0492, 0.1492 -1.4764 0.0492, 0.0888 -1.1278 0.0492, 0.0957 -1.1271 0.0492, 0.1033 -1.1263 0.0492, -2.4852 -1.4764 0.0492, -2.4852 -1.1271 0.0492, -0.4531 -1.4764 0.0492, -0.4531 -1.1271 0.0492, -0.1526 -1.4764 0.0492, -0.1526 -1.1271 0.0492, -0.0417 -1.4764 0.0492, -0.0417 -1.1271 0.0492, 0.2147 -1.0083 0.0492, 2.4852 -1.0076 0.0492, 0.2147 -1.1264 0.0492, 2.4852 -1.1271 0.0492, 2.4852 -1.4764 0.0492, -0.1526 -1.0076 0.0492, -0.4531 -0.6427 0.0492, -0.4531 -1.0076 0.0492, -0.6427 -0.6427 0.0492, -2.4852 -1.0076 0.0492, -0.6427 0.6427 0.0492, -2.4852 1.4764 0.0492, -0.4531 0.6427 0.0492, -0.4531 1.4764 0.0492, -0.1526 0.6427 0.0492, -0.1526 1.4764 0.0492, -0.0417 0.6427 0.0492, -0.0417 1.4764 0.0492, 0.0447 0.6427 0.0492, 0.0447 1.4764 0.0492, 0.1492 0.6427 0.0492, 0.1492 1.4764 0.0492, 0.6427 0.6427 0.0492, 2.4852 1.4764 0.0492, 0.1989 -1.0083 0.0492, 0.1989 -1.1134 0.0492, 0.1542 -1.1134 0.0492, 0.1542 -1.1264 0.0492, 0.0174 -1.0212 0.0492, 0.0174 -1.0601 0.0492, -0.0273 -1.0212 0.0492, -0.0244 -1.0601 0.0492, -0.0273 -1.0083 0.0492, -0.0244 -1.0731 0.0492, 0.0174 -1.0731 0.0492, 0.0174 -1.1134 0.0492, -0.0302 -1.1134 0.0492, -0.0302 -1.1264 0.0492, 0.0332 -1.1264 0.0492, 0.0332 -1.0083 0.0492, -0.1424 -1.094 0.0492, -0.1466 -1.0816 0.0492, -0.1483 -1.0658 0.0492, -0.1356 -1.1046 0.0492, -0.1259 -1.1139 0.0492, -0.1135 -1.1211 0.0492, -0.0865 -1.0083 0.0492, -0.1036 -1.0101 0.0492, -0.1174 -1.0149 0.0492, -0.1303 -1.0236 0.0492, -0.1304 -1.0237 0.0492, -0.1387 -1.0329 0.0492, -0.1442 -1.0431 0.0492, -0.1474 -1.0547 0.0492, -0.0999 -1.1251 0.0492, -0.0853 -1.1264 0.0492, -0.0532 -1.1264 0.0492, -0.0532 -1.0083 0.0492, -0.2462 -1.1264 0.0492, -0.2343 -1.0933 0.0492, -0.1855 -1.0933 0.0492, -0.1742 -1.1264 0.0492, -0.1569 -1.1264 0.0492, -0.2635 -1.1264 0.0492, -0.2174 -1.0083 0.0492, -0.2016 -1.0083 0.0492, 2.3346 1.5157 0.561, 2.5246 1.5157 0.561, 2.3346 1.5157 0.5413, 2.5246 1.5157 0.5413, 2.1654 1.5157 0.5413, 1.8346 1.5157 0.5413, 2.1654 1.5157 0.561, 1.8346 1.5157 0.561, 1.6654 1.5157 0.5413, 1.3346 1.5157 0.5413, 1.6654 1.5157 0.561, 1.3346 1.5157 0.561, 1.1654 1.5157 0.5413, 0.8346 1.5157 0.5413, 1.1654 1.5157 0.561, 0.8346 1.5157 0.561, 0.6654 1.5157 0.5413, 0.3346 1.5157 0.5413, 0.6654 1.5157 0.561, 0.3346 1.5157 0.561, 0.1654 1.5157 0.5413, -0.1654 1.5157 0.5413, 0.1654 1.5157 0.561, -0.1654 1.5157 0.561, -0.3346 1.5157 0.5413, -0.6654 1.5157 0.5413, -0.3346 1.5157 0.561, -0.6654 1.5157 0.561, -0.8346 1.5157 0.5413, -1.1654 1.5157 0.5413, -0.8346 1.5157 0.561, -1.1654 1.5157 0.561, -1.3346 1.5157 0.5413, -1.6654 1.5157 0.5413, -1.3346 1.5157 0.561, -1.6654 1.5157 0.561, -1.8346 1.5157 0.5413, -2.1654 1.5157 0.5413, -1.8346 1.5157 0.561, -2.1654 1.5157 0.561, -2.5246 1.5157 0.5413, -2.5246 1.5157 0.561, -2.3346 1.5157 0.5413, -2.3346 1.5157 0.561, 2.1654 -1.5157 0.561, 1.8346 -1.5157 0.561, 2.1654 -1.5157 0.5413, 1.8346 -1.5157 0.5413, 1.6654 -1.5157 0.561, 1.3346 -1.5157 0.561, 1.6654 -1.5157 0.5413, 1.3346 -1.5157 0.5413, 1.1654 -1.5157 0.561, 0.8346 -1.5157 0.561, 1.1654 -1.5157 0.5413, 0.8346 -1.5157 0.5413, 0.6654 -1.5157 0.561, 0.3346 -1.5157 0.561, 0.6654 -1.5157 0.5413, 0.3346 -1.5157 0.5413, 0.1654 -1.5157 0.561, -0.1654 -1.5157 0.561, 0.1654 -1.5157 0.5413, -0.1654 -1.5157 0.5413, -0.3346 -1.5157 0.561, -0.6654 -1.5157 0.561, -0.3346 -1.5157 0.5413, -0.6654 -1.5157 0.5413, -0.8346 -1.5157 0.561, -1.1654 -1.5157 0.561, -0.8346 -1.5157 0.5413, -1.1654 -1.5157 0.5413, -1.3346 -1.5157 0.561, -1.6654 -1.5157 0.561, -1.3346 -1.5157 0.5413, -1.6654 -1.5157 0.5413, -1.8346 -1.5157 0.561, -2.1654 -1.5157 0.561, -1.8346 -1.5157 0.5413, -2.1654 -1.5157 0.5413, 2.3346 -1.5157 0.5413, 2.5246 -1.5157 0.5413, 2.3346 -1.5157 0.561, 2.5246 -1.5157 0.561, -2.5246 -1.5157 0.561, -2.5246 -1.5157 0.5413, -2.3346 -1.5157 0.561, -2.3346 -1.5157 0.5413, -1.9737 -1.2099 1.0531, -1.9992 -1.2432 1.0531, 2.4852 -1.4764 1.0531, -1.9577 -1.1713 1.0531, -2.1541 -1.2847 1.0531, -2.1928 -1.2687 1.0531, -2.4852 -1.4764 1.0531, -2.226 -1.0163 1.0531, -2.1928 -0.9908 1.0531, -2.4852 1.4764 1.0531, -2.1541 -0.9748 1.0531, -2.226 -1.2432 1.0531, -2.2515 -1.2099 1.0531, -2.2675 -1.1713 1.0531, -1.9992 -1.0163 1.0531, -1.9737 -1.0495 1.0531, 2.4852 1.4764 1.0531, -1.9577 -1.0882 1.0531, -1.9522 -1.1297 1.0531, -2.0324 -1.2687 1.0531, -2.0711 -1.2847 1.0531, -2.1126 -1.2901 1.0531, -2.273 -1.1297 1.0531, -2.2675 -1.0882 1.0531, -2.2515 -1.0495 1.0531, -2.1126 -0.9693 1.0531, -2.0711 -0.9748 1.0531, -2.0324 -0.9908 1.0531
            ]
        }
        coordIndex [
            0,1,2,-1,3,4,5,-1,5,4,6,-1,5,6,7,-1,4,8,9,-1,9,8,10,-1,9,10,11,-1,12,13,3,-1,3,13,14,-1,3,14,4,-1,4,14,15,-1,15,16,4,-1,4,16,17,-1,4,17,8,-1,8,17,18,-1,8,18,19,-1,19,18,20,-1,19,20,21,-1,21,22,19,-1,19,22,23,-1,19,23,24,-1,25,26,19,-1,19,26,27,-1,28,29,30,-1,30,29,31,-1,27,32,19,-1,19,32,31,-1,19,31,33,-1,33,31,29,-1,24,34,19,-1,19,34,35,-1,19,35,25,-1,36,37,38,-1,38,37,39,-1,38,39,40,-1,41,42,0,-1,0,42,43,-1,0,43,44,-1,3,1,12,-1,12,1,0,-1,12,0,45,-1,45,0,44,-1,40,46,38,-1,38,46,47,-1,38,47,0,-1,0,47,48,-1,0,48,41,-1,49,50,51,-1,51,50,52,-1,50,53,52,-1,52,53,54,-1,52,54,38,-1,38,54,55,-1,38,55,36,-1,56,57,58,-1,58,57,59,-1,58,59,60,-1,60,59,61,-1,60,61,62,-1,62,61,63,-1,62,63,51,-1,51,63,9,-1,51,9,49,-1,49,9,11,-1,64,65,66,-1,66,65,67,-1,66,67,38,-1,38,67,68,-1,38,68,52,-1,7,69,70,-1,70,69,71,-1,70,71,72,-1,72,71,73,-1,72,73,74,-1,74,73,75,-1,74,75,76,-1,76,75,77,-1,76,77,78,-1,78,77,79,-1,78,79,80,-1,80,79,81,-1,80,81,82,-1,82,81,83,-1,82,83,84,-1,84,83,85,-1,84,85,86,-1,86,85,87,-1,86,87,2,-1,2,87,65,-1,2,65,0,-1,0,65,64,-1,0,64,88,-1,88,89,0,-1,0,89,90,-1,0,90,38,-1,38,90,91,-1,38,91,66,-1,92,93,94,-1,94,93,95,-1,4,96,6,-1,6,96,94,-1,6,94,63,-1,63,94,95,-1,63,95,97,-1,98,99,97,-1,97,99,100,-1,97,100,63,-1,63,100,101,-1,63,101,9,-1,9,101,102,-1,9,102,4,-1,4,102,103,-1,4,103,96,-1,104,61,105,-1,105,61,106,-1,104,107,61,-1,61,107,108,-1,61,108,109,-1,7,6,69,-1,69,6,110,-1,69,110,111,-1,111,112,69,-1,69,112,113,-1,69,113,114,-1,114,115,69,-1,69,115,116,-1,69,116,117,-1,109,118,61,-1,61,118,119,-1,61,119,63,-1,63,119,120,-1,63,120,6,-1,6,120,121,-1,6,121,110,-1,122,123,124,-1,125,126,61,-1,61,126,69,-1,61,69,106,-1,106,69,117,-1,124,125,122,-1,122,125,61,-1,122,61,127,-1,127,61,59,-1,127,59,128,-1,57,73,59,-1,59,73,71,-1,59,71,128,-1,128,71,69,-1,128,69,129,-1,129,69,126,-1,130,131,132,-1,132,131,133,-1,134,135,136,-1,136,135,137,-1,138,139,140,-1,140,139,141,-1,142,143,144,-1,144,143,145,-1,146,147,148,-1,148,147,149,-1,150,151,152,-1,152,151,153,-1,154,155,156,-1,156,155,157,-1,158,159,160,-1,160,159,161,-1,162,163,164,-1,164,163,165,-1,166,167,168,-1,168,167,169,-1,170,171,172,-1,172,171,173,-1,174,175,176,-1,176,175,177,-1,178,179,180,-1,180,179,181,-1,182,183,184,-1,184,183,185,-1,186,187,188,-1,188,187,189,-1,190,191,192,-1,192,191,193,-1,194,195,196,-1,196,195,197,-1,198,199,200,-1,200,199,201,-1,202,203,204,-1,204,203,205,-1,206,207,208,-1,208,207,209,-1,210,211,212,-1,212,211,213,-1,214,215,216,-1,216,215,217,-1,133,131,211,-1,211,131,213,-1,215,214,170,-1,170,214,171,-1,218,219,220,-1,218,220,221,-1,222,223,224,-1,225,226,227,-1,227,226,228,-1,223,229,224,-1,224,229,230,-1,224,230,231,-1,232,233,234,-1,234,233,235,-1,234,235,220,-1,220,235,236,-1,220,236,221,-1,219,237,220,-1,220,237,238,-1,220,238,224,-1,224,238,239,-1,224,239,222,-1,231,240,224,-1,224,240,241,-1,224,241,227,-1,227,241,242,-1,227,242,225,-1,228,243,227,-1,227,243,244,-1,227,244,234,-1,234,244,245,-1,234,245,232,-1,
        ]
    }
}
Shape{
    appearance Appearance {
        material  Material 	{
            diffuseColor 0.7764705882352941 0.7568627450980392 0.7372549019607844
            specularColor 0.38823529411764707 0.3764705882352941 0.3686274509803922
            ambientIntensity 0.7605
            transparency 0.0
            shininess 0.5
        }
    }
    geometry IndexedFaceSet {
        ccw TRUE
        solid FALSE
        coord DEF co Coordinate {
            point [
                -0.6427 0.6427 0.0492, 0.6427 0.6427 0.0492, -0.6427 -0.6427 0.0492, 0.6427 -0.6427 0.0492
            ]
        }
        coordIndex [
            0,1,2,-1,2,1,3,-1,
        ]
    }
}
Shape{
    appearance Appearance {
        material  Material 	{
            diffuseColor 0.10980392156862745 0.10980392156862745 0.10980392156862745
            specularColor 0.0784313725490196 0.0784313725490196 0.0784313725490196
            ambientIntensity 0.1098
            transparency 0.0
            shininess 0.5
        }
    }
    geometry IndexedFaceSet {
        ccw TRUE
        solid FALSE
        coord DEF co Coordinate {
            point [
                -2.4852 -1.4764 0.0492, -2.5246 -1.5157 0.5413, -2.4852 1.4764 0.0492, -2.5246 1.5157 0.5413, 2.5246 -1.5157 0.5413, 2.3346 -1.5157 0.5413, 2.4852 -1.4764 0.0492, 2.1654 -1.5157 0.5413, 1.8346 -1.5157 0.5413, 1.6654 -1.5157 0.5413, 1.3346 -1.5157 0.5413, 1.1654 -1.5157 0.5413, 0.8346 -1.5157 0.5413, 0.6654 -1.5157 0.5413, 0.3346 -1.5157 0.5413, 0.1654 -1.5157 0.5413, -0.1654 -1.5157 0.5413, -0.3346 -1.5157 0.5413, -0.6654 -1.5157 0.5413, -0.8346 -1.5157 0.5413, -1.1654 -1.5157 0.5413, -1.3346 -1.5157 0.5413, -1.6654 -1.5157 0.5413, -1.8346 -1.5157 0.5413, -2.1654 -1.5157 0.5413, -2.3346 -1.5157 0.5413, -2.3346 1.5157 0.5413, -2.1654 1.5157 0.5413, -1.8346 1.5157 0.5413, -1.6654 1.5157 0.5413, -1.3346 1.5157 0.5413, -1.1654 1.5157 0.5413, -0.8346 1.5157 0.5413, -0.6654 1.5157 0.5413, -0.3346 1.5157 0.5413, -0.1654 1.5157 0.5413, 2.4852 1.4764 0.0492, 0.1654 1.5157 0.5413, 0.3346 1.5157 0.5413, 0.6654 1.5157 0.5413, 0.8346 1.5157 0.5413, 1.1654 1.5157 0.5413, 1.3346 1.5157 0.5413, 1.6654 1.5157 0.5413, 1.8346 1.5157 0.5413, 2.1654 1.5157 0.5413, 2.3346 1.5157 0.5413, 2.5246 1.5157 0.5413, -2.5246 -1.5157 0.561, -2.3346 -1.5157 0.561, -2.4852 -1.4764 1.0531, -2.1654 -1.5157 0.561, -1.8346 -1.5157 0.561, -1.6654 -1.5157 0.561, -1.3346 -1.5157 0.561, -1.1654 -1.5157 0.561, -0.8346 -1.5157 0.561, -0.6654 -1.5157 0.561, -0.3346 -1.5157 0.561, -0.1654 -1.5157 0.561, 2.4852 -1.4764 1.0531, 0.1654 -1.5157 0.561, 0.3346 -1.5157 0.561, 0.6654 -1.5157 0.561, 0.8346 -1.5157 0.561, 1.1654 -1.5157 0.561, 1.3346 -1.5157 0.561, 1.6654 -1.5157 0.561, 1.8346 -1.5157 0.561, 2.1654 -1.5157 0.561, 2.3346 -1.5157 0.561, 2.5246 -1.5157 0.561, 2.5246 1.5157 0.561, 2.4852 1.4764 1.0531, -2.4852 1.4764 1.0531, -2.5246 1.5157 0.561, 2.3346 1.5157 0.561, 2.1654 1.5157 0.561, 1.8346 1.5157 0.561, 1.6654 1.5157 0.561, 1.3346 1.5157 0.561, 1.1654 1.5157 0.561, 0.8346 1.5157 0.561, 0.6654 1.5157 0.561, 0.3346 1.5157 0.561, 0.1654 1.5157 0.561, -0.1654 1.5157 0.561, -0.3346 1.5157 0.561, -0.6654 1.5157 0.561, -0.8346 1.5157 0.561, -1.1654 1.5157 0.561, -1.3346 1.5157 0.561, -1.6654 1.5157 0.561, -1.8346 1.5157 0.561, -2.1654 1.5157 0.561, -2.3346 1.5157 0.561
            ]
        }
        coordIndex [
            0,1,2,-1,2,1,3,-1,4,5,6,-1,6,5,7,-1,7,8,6,-1,6,8,9,-1,6,9,10,-1,10,11,6,-1,6,11,12,-1,6,12,13,-1,13,14,6,-1,6,14,15,-1,6,15,0,-1,0,15,16,-1,0,16,17,-1,17,18,0,-1,0,18,19,-1,0,19,20,-1,20,21,0,-1,0,21,22,-1,0,22,23,-1,23,24,0,-1,0,24,25,-1,0,25,1,-1,3,26,2,-1,2,26,27,-1,27,28,2,-1,2,28,29,-1,2,29,30,-1,30,31,2,-1,2,31,32,-1,2,32,33,-1,33,34,2,-1,2,34,35,-1,2,35,36,-1,36,35,37,-1,36,37,38,-1,38,39,36,-1,36,39,40,-1,36,40,41,-1,41,42,36,-1,36,42,43,-1,36,43,44,-1,44,45,36,-1,36,45,46,-1,36,46,47,-1,36,47,6,-1,6,47,4,-1,48,49,50,-1,50,49,51,-1,51,52,50,-1,50,52,53,-1,50,53,54,-1,54,55,50,-1,50,55,56,-1,50,56,57,-1,57,58,50,-1,50,58,59,-1,50,59,60,-1,60,59,61,-1,60,61,62,-1,62,63,60,-1,60,63,64,-1,60,64,65,-1,65,66,60,-1,60,66,67,-1,60,67,68,-1,68,69,60,-1,60,69,70,-1,60,70,71,-1,72,73,71,-1,71,73,60,-1,74,75,50,-1,50,75,48,-1,72,76,73,-1,73,76,77,-1,77,78,73,-1,73,78,79,-1,73,79,80,-1,80,81,73,-1,73,81,82,-1,73,82,83,-1,83,84,73,-1,73,84,85,-1,73,85,74,-1,74,85,86,-1,74,86,87,-1,87,88,74,-1,74,88,89,-1,74,89,90,-1,90,91,74,-1,74,91,92,-1,74,92,93,-1,93,94,74,-1,74,94,95,-1,74,95,75,-1,
        ]
    }
}
Shape{
    appearance Appearance {
        material  Material 	{
            diffuseColor 0.7764705882352941 0.7568627450980392 0.7372549019607844
            specularColor 0.38823529411764707 0.3764705882352941 0.3686274509803922
            ambientIntensity 0.7605
            transparency 0.0
            shininess 0.5
        }
    }
    geometry IndexedFaceSet {
        ccw TRUE
        solid FALSE
        coord DEF co Coordinate {
            point [
                -2.1654 -1.5157 0.5413, -2.1654 -1.5157 0.502, -2.3346 -1.5157 0.5413, -2.3346 -1.5157 0.502, -2.3346 -1.5157 0.561, -2.3346 -1.5157 0.6004, -2.1654 -1.5157 0.561, -2.1654 -1.5157 0.6004, -2.3346 -2.0482 0.0984, -2.3346 -2.0482 0.0, -2.1654 -2.0482 0.0984, -2.1654 -2.0482 0.0, -2.3346 -1.6215 0.502, -2.3346 -1.6215 0.6004, -2.1654 -1.6215 0.502, -2.1654 -1.6215 0.6004, -2.3346 -1.6313 0.493, -2.3346 -1.7293 0.5016, -2.3346 -1.6308 0.4954, -2.3346 -1.7237 0.5277, -2.3346 -1.6297 0.4975, -2.3346 -1.7119 0.5516, -2.3346 -1.6281 0.4994, -2.3346 -1.6946 0.5719, -2.3346 -1.6261 0.5008, -2.3346 -1.6728 0.5874, -2.3346 -1.6239 0.5017, -2.3346 -1.648 0.5971, -2.1654 -1.6239 0.5017, -2.1654 -1.6261 0.5008, -2.1654 -1.6281 0.4994, -2.1654 -1.6297 0.4975, -2.1654 -1.6308 0.4954, -2.1654 -1.6313 0.493, -2.1654 -1.648 0.5971, -2.1654 -1.6728 0.5874, -2.1654 -1.6946 0.5719, -2.1654 -1.7119 0.5516, -2.1654 -1.7237 0.5277, -2.1654 -1.7293 0.5016, -2.3346 -1.7638 0.1074, -2.3346 -1.6657 0.0988, -2.1654 -1.6657 0.0988, -2.1654 -1.7638 0.1074, -2.3346 -1.7643 0.105, -2.3346 -1.6713 0.0727, -2.3346 -1.7654 0.1029, -2.3346 -1.6831 0.0488, -2.3346 -1.767 0.101, -2.3346 -1.7005 0.0284, -2.3346 -1.7689 0.0996, -2.3346 -1.7222 0.013, -2.3346 -1.7712 0.0987, -2.3346 -1.7471 0.0033, -2.3346 -1.7736 0.0984, -2.3346 -1.7736 0.0, -2.1654 -1.7736 0.0, -2.1654 -1.7471 0.0033, -2.1654 -1.7222 0.013, -2.1654 -1.7005 0.0284, -2.1654 -1.6831 0.0488, -2.1654 -1.6713 0.0727, -2.1654 -1.7736 0.0984, -2.1654 -1.7712 0.0987, -2.1654 -1.7689 0.0996, -2.1654 -1.767 0.101, -2.1654 -1.7654 0.1029, -2.1654 -1.7643 0.105, -1.6654 -1.5157 0.502, -1.8346 -1.5157 0.502, -1.6654 -1.5157 0.5413, -1.8346 -1.5157 0.5413, -1.8346 -1.5157 0.6004, -1.6654 -1.5157 0.6004, -1.8346 -1.5157 0.561, -1.6654 -1.5157 0.561, -1.8346 -2.0482 0.0984, -1.8346 -2.0482 0.0, -1.6654 -2.0482 0.0984, -1.6654 -2.0482 0.0, -1.8346 -1.6215 0.502, -1.8346 -1.6215 0.6004, -1.6654 -1.6215 0.502, -1.6654 -1.6215 0.6004, -1.8346 -1.6313 0.493, -1.8346 -1.7293 0.5016, -1.8346 -1.6308 0.4954, -1.8346 -1.7237 0.5277, -1.8346 -1.6297 0.4975, -1.8346 -1.7119 0.5516, -1.8346 -1.6281 0.4994, -1.8346 -1.6946 0.5719, -1.8346 -1.6261 0.5008, -1.8346 -1.6728 0.5874, -1.8346 -1.6239 0.5017, -1.8346 -1.648 0.5971, -1.6654 -1.6239 0.5017, -1.6654 -1.6261 0.5008, -1.6654 -1.6281 0.4994, -1.6654 -1.6297 0.4975, -1.6654 -1.6308 0.4954, -1.6654 -1.6313 0.493, -1.6654 -1.648 0.5971, -1.6654 -1.6728 0.5874, -1.6654 -1.6946 0.5719, -1.6654 -1.7119 0.5516, -1.6654 -1.7237 0.5277, -1.6654 -1.7293 0.5016, -1.8346 -1.7638 0.1074, -1.8346 -1.6657 0.0988, -1.6654 -1.6657 0.0988, -1.6654 -1.7638 0.1074, -1.8346 -1.7643 0.105, -1.8346 -1.6713 0.0727, -1.8346 -1.7654 0.1029, -1.8346 -1.6831 0.0488, -1.8346 -1.767 0.101, -1.8346 -1.7005 0.0284, -1.8346 -1.7689 0.0996, -1.8346 -1.7222 0.013, -1.8346 -1.7712 0.0987, -1.8346 -1.7471 0.0033, -1.8346 -1.7736 0.0984, -1.8346 -1.7736 0.0, -1.6654 -1.7736 0.0, -1.6654 -1.7471 0.0033, -1.6654 -1.7222 0.013, -1.6654 -1.7005 0.0284, -1.6654 -1.6831 0.0488, -1.6654 -1.6713 0.0727, -1.6654 -1.7736 0.0984, -1.6654 -1.7712 0.0987, -1.6654 -1.7689 0.0996, -1.6654 -1.767 0.101, -1.6654 -1.7654 0.1029, -1.6654 -1.7643 0.105, -1.1654 -1.5157 0.502, -1.3346 -1.5157 0.502, -1.1654 -1.5157 0.5413, -1.3346 -1.5157 0.5413, -1.3346 -1.5157 0.6004, -1.1654 -1.5157 0.6004, -1.3346 -1.5157 0.561, -1.1654 -1.5157 0.561, -1.3346 -2.0482 0.0984, -1.3346 -2.0482 0.0, -1.1654 -2.0482 0.0984, -1.1654 -2.0482 0.0, -1.3346 -1.6215 0.502, -1.3346 -1.6215 0.6004, -1.1654 -1.6215 0.502, -1.1654 -1.6215 0.6004, -1.3346 -1.6313 0.493, -1.3346 -1.7293 0.5016, -1.3346 -1.6308 0.4954, -1.3346 -1.7237 0.5277, -1.3346 -1.6297 0.4975, -1.3346 -1.7119 0.5516, -1.3346 -1.6281 0.4994, -1.3346 -1.6946 0.5719, -1.3346 -1.6261 0.5008, -1.3346 -1.6728 0.5874, -1.3346 -1.6239 0.5017, -1.3346 -1.648 0.5971, -1.1654 -1.6239 0.5017, -1.1654 -1.6261 0.5008, -1.1654 -1.6281 0.4994, -1.1654 -1.6297 0.4975, -1.1654 -1.6308 0.4954, -1.1654 -1.6313 0.493, -1.1654 -1.648 0.5971, -1.1654 -1.6728 0.5874, -1.1654 -1.6946 0.5719, -1.1654 -1.7119 0.5516, -1.1654 -1.7237 0.5277, -1.1654 -1.7293 0.5016, -1.3346 -1.7638 0.1074, -1.3346 -1.6657 0.0988, -1.1654 -1.6657 0.0988, -1.1654 -1.7638 0.1074, -1.3346 -1.7643 0.105, -1.3346 -1.6713 0.0727, -1.3346 -1.7654 0.1029, -1.3346 -1.6831 0.0488, -1.3346 -1.767 0.101, -1.3346 -1.7005 0.0284, -1.3346 -1.7689 0.0996, -1.3346 -1.7222 0.013, -1.3346 -1.7712 0.0987, -1.3346 -1.7471 0.0033, -1.3346 -1.7736 0.0984, -1.3346 -1.7736 0.0, -1.1654 -1.7736 0.0, -1.1654 -1.7471 0.0033, -1.1654 -1.7222 0.013, -1.1654 -1.7005 0.0284, -1.1654 -1.6831 0.0488, -1.1654 -1.6713 0.0727, -1.1654 -1.7736 0.0984, -1.1654 -1.7712 0.0987, -1.1654 -1.7689 0.0996, -1.1654 -1.767 0.101, -1.1654 -1.7654 0.1029, -1.1654 -1.7643 0.105, -0.6654 -1.5157 0.502, -0.8346 -1.5157 0.502, -0.6654 -1.5157 0.5413, -0.8346 -1.5157 0.5413, -0.8346 -1.5157 0.6004, -0.6654 -1.5157 0.6004, -0.8346 -1.5157 0.561, -0.6654 -1.5157 0.561, -0.8346 -2.0482 0.0984, -0.8346 -2.0482 0.0, -0.6654 -2.0482 0.0984, -0.6654 -2.0482 0.0, -0.8346 -1.6215 0.502, -0.8346 -1.6215 0.6004, -0.6654 -1.6215 0.502, -0.6654 -1.6215 0.6004, -0.8346 -1.6313 0.493, -0.8346 -1.7293 0.5016, -0.8346 -1.6308 0.4954, -0.8346 -1.7237 0.5277, -0.8346 -1.6297 0.4975, -0.8346 -1.7119 0.5516, -0.8346 -1.6281 0.4994, -0.8346 -1.6946 0.5719, -0.8346 -1.6261 0.5008, -0.8346 -1.6728 0.5874, -0.8346 -1.6239 0.5017, -0.8346 -1.648 0.5971, -0.6654 -1.6239 0.5017, -0.6654 -1.6261 0.5008, -0.6654 -1.6281 0.4994, -0.6654 -1.6297 0.4975, -0.6654 -1.6308 0.4954, -0.6654 -1.6313 0.493, -0.6654 -1.648 0.5971, -0.6654 -1.6728 0.5874, -0.6654 -1.6946 0.5719, -0.6654 -1.7119 0.5516, -0.6654 -1.7237 0.5277, -0.6654 -1.7293 0.5016, -0.8346 -1.7638 0.1074, -0.8346 -1.6657 0.0988, -0.6654 -1.6657 0.0988, -0.6654 -1.7638 0.1074, -0.8346 -1.7643 0.105, -0.8346 -1.6713 0.0727, -0.8346 -1.7654 0.1029, -0.8346 -1.6831 0.0488, -0.8346 -1.767 0.101, -0.8346 -1.7005 0.0284, -0.8346 -1.7689 0.0996, -0.8346 -1.7222 0.013, -0.8346 -1.7712 0.0987, -0.8346 -1.7471 0.0033, -0.8346 -1.7736 0.0984, -0.8346 -1.7736 0.0, -0.6654 -1.7736 0.0, -0.6654 -1.7471 0.0033, -0.6654 -1.7222 0.013, -0.6654 -1.7005 0.0284, -0.6654 -1.6831 0.0488, -0.6654 -1.6713 0.0727, -0.6654 -1.7736 0.0984, -0.6654 -1.7712 0.0987, -0.6654 -1.7689 0.0996, -0.6654 -1.767 0.101, -0.6654 -1.7654 0.1029, -0.6654 -1.7643 0.105, -0.1654 -1.5157 0.502, -0.3346 -1.5157 0.502, -0.1654 -1.5157 0.5413, -0.3346 -1.5157 0.5413, -0.3346 -1.5157 0.6004, -0.1654 -1.5157 0.6004, -0.3346 -1.5157 0.561, -0.1654 -1.5157 0.561, -0.3346 -2.0482 0.0984, -0.3346 -2.0482 0.0, -0.1654 -2.0482 0.0984, -0.1654 -2.0482 0.0, -0.3346 -1.6215 0.502, -0.3346 -1.6215 0.6004, -0.1654 -1.6215 0.502, -0.1654 -1.6215 0.6004, -0.3346 -1.6313 0.493, -0.3346 -1.7293 0.5016, -0.3346 -1.6308 0.4954, -0.3346 -1.7237 0.5277, -0.3346 -1.6297 0.4975, -0.3346 -1.7119 0.5516, -0.3346 -1.6281 0.4994, -0.3346 -1.6946 0.5719, -0.3346 -1.6261 0.5008, -0.3346 -1.6728 0.5874, -0.3346 -1.6239 0.5017, -0.3346 -1.648 0.5971, -0.1654 -1.6239 0.5017, -0.1654 -1.6261 0.5008, -0.1654 -1.6281 0.4994, -0.1654 -1.6297 0.4975, -0.1654 -1.6308 0.4954, -0.1654 -1.6313 0.493, -0.1654 -1.648 0.5971, -0.1654 -1.6728 0.5874, -0.1654 -1.6946 0.5719, -0.1654 -1.7119 0.5516, -0.1654 -1.7237 0.5277, -0.1654 -1.7293 0.5016, -0.3346 -1.7638 0.1074, -0.3346 -1.6657 0.0988, -0.1654 -1.6657 0.0988, -0.1654 -1.7638 0.1074, -0.3346 -1.7643 0.105, -0.3346 -1.6713 0.0727, -0.3346 -1.7654 0.1029, -0.3346 -1.6831 0.0488, -0.3346 -1.767 0.101, -0.3346 -1.7005 0.0284, -0.3346 -1.7689 0.0996, -0.3346 -1.7222 0.013, -0.3346 -1.7712 0.0987, -0.3346 -1.7471 0.0033, -0.3346 -1.7736 0.0984, -0.3346 -1.7736 0.0, -0.1654 -1.7736 0.0, -0.1654 -1.7471 0.0033, -0.1654 -1.7222 0.013, -0.1654 -1.7005 0.0284, -0.1654 -1.6831 0.0488, -0.1654 -1.6713 0.0727, -0.1654 -1.7736 0.0984, -0.1654 -1.7712 0.0987, -0.1654 -1.7689 0.0996, -0.1654 -1.767 0.101, -0.1654 -1.7654 0.1029, -0.1654 -1.7643 0.105, 0.3346 -1.5157 0.502, 0.1654 -1.5157 0.502, 0.3346 -1.5157 0.5413, 0.1654 -1.5157 0.5413, 0.1654 -1.5157 0.6004, 0.3346 -1.5157 0.6004, 0.1654 -1.5157 0.561, 0.3346 -1.5157 0.561, 0.1654 -2.0482 0.0984, 0.1654 -2.0482 0.0, 0.3346 -2.0482 0.0984, 0.3346 -2.0482 0.0, 0.1654 -1.6215 0.502, 0.1654 -1.6215 0.6004, 0.3346 -1.6215 0.502, 0.3346 -1.6215 0.6004, 0.1654 -1.6313 0.493, 0.1654 -1.7293 0.5016, 0.1654 -1.6308 0.4954, 0.1654 -1.7237 0.5277, 0.1654 -1.6297 0.4975, 0.1654 -1.7119 0.5516, 0.1654 -1.6281 0.4994, 0.1654 -1.6946 0.5719, 0.1654 -1.6261 0.5008, 0.1654 -1.6728 0.5874, 0.1654 -1.6239 0.5017, 0.1654 -1.648 0.5971, 0.3346 -1.6239 0.5017, 0.3346 -1.6261 0.5008, 0.3346 -1.6281 0.4994, 0.3346 -1.6297 0.4975, 0.3346 -1.6308 0.4954, 0.3346 -1.6313 0.493, 0.3346 -1.648 0.5971, 0.3346 -1.6728 0.5874, 0.3346 -1.6946 0.5719, 0.3346 -1.7119 0.5516, 0.3346 -1.7237 0.5277, 0.3346 -1.7293 0.5016, 0.1654 -1.7638 0.1074, 0.1654 -1.6657 0.0988, 0.3346 -1.6657 0.0988, 0.3346 -1.7638 0.1074, 0.1654 -1.7643 0.105, 0.1654 -1.6713 0.0727, 0.1654 -1.7654 0.1029, 0.1654 -1.6831 0.0488, 0.1654 -1.767 0.101, 0.1654 -1.7005 0.0284, 0.1654 -1.7689 0.0996, 0.1654 -1.7222 0.013, 0.1654 -1.7712 0.0987, 0.1654 -1.7471 0.0033, 0.1654 -1.7736 0.0984, 0.1654 -1.7736 0.0, 0.3346 -1.7736 0.0, 0.3346 -1.7471 0.0033, 0.3346 -1.7222 0.013, 0.3346 -1.7005 0.0284, 0.3346 -1.6831 0.0488, 0.3346 -1.6713 0.0727, 0.3346 -1.7736 0.0984, 0.3346 -1.7712 0.0987, 0.3346 -1.7689 0.0996, 0.3346 -1.767 0.101, 0.3346 -1.7654 0.1029, 0.3346 -1.7643 0.105, 0.8346 -1.5157 0.502, 0.6654 -1.5157 0.502, 0.8346 -1.5157 0.5413, 0.6654 -1.5157 0.5413, 0.6654 -1.5157 0.6004, 0.8346 -1.5157 0.6004, 0.6654 -1.5157 0.561, 0.8346 -1.5157 0.561, 0.6654 -2.0482 0.0984, 0.6654 -2.0482 0.0, 0.8346 -2.0482 0.0984, 0.8346 -2.0482 0.0, 0.6654 -1.6215 0.502, 0.6654 -1.6215 0.6004, 0.8346 -1.6215 0.502, 0.8346 -1.6215 0.6004, 0.6654 -1.6313 0.493, 0.6654 -1.7293 0.5016, 0.6654 -1.6308 0.4954, 0.6654 -1.7237 0.5277, 0.6654 -1.6297 0.4975, 0.6654 -1.7119 0.5516, 0.6654 -1.6281 0.4994, 0.6654 -1.6946 0.5719, 0.6654 -1.6261 0.5008, 0.6654 -1.6728 0.5874, 0.6654 -1.6239 0.5017, 0.6654 -1.648 0.5971, 0.8346 -1.6239 0.5017, 0.8346 -1.6261 0.5008, 0.8346 -1.6281 0.4994, 0.8346 -1.6297 0.4975, 0.8346 -1.6308 0.4954, 0.8346 -1.6313 0.493, 0.8346 -1.648 0.5971, 0.8346 -1.6728 0.5874, 0.8346 -1.6946 0.5719, 0.8346 -1.7119 0.5516, 0.8346 -1.7237 0.5277, 0.8346 -1.7293 0.5016, 0.6654 -1.7638 0.1074, 0.6654 -1.6657 0.0988, 0.8346 -1.6657 0.0988, 0.8346 -1.7638 0.1074, 0.6654 -1.7643 0.105, 0.6654 -1.6713 0.0727, 0.6654 -1.7654 0.1029, 0.6654 -1.6831 0.0488, 0.6654 -1.767 0.101, 0.6654 -1.7005 0.0284, 0.6654 -1.7689 0.0996, 0.6654 -1.7222 0.013, 0.6654 -1.7712 0.0987, 0.6654 -1.7471 0.0033, 0.6654 -1.7736 0.0984, 0.6654 -1.7736 0.0, 0.8346 -1.7736 0.0, 0.8346 -1.7471 0.0033, 0.8346 -1.7222 0.013, 0.8346 -1.7005 0.0284, 0.8346 -1.6831 0.0488, 0.8346 -1.6713 0.0727, 0.8346 -1.7736 0.0984, 0.8346 -1.7712 0.0987, 0.8346 -1.7689 0.0996, 0.8346 -1.767 0.101, 0.8346 -1.7654 0.1029, 0.8346 -1.7643 0.105, 1.3346 -1.5157 0.502, 1.1654 -1.5157 0.502, 1.3346 -1.5157 0.5413, 1.1654 -1.5157 0.5413, 1.1654 -1.5157 0.6004, 1.3346 -1.5157 0.6004, 1.1654 -1.5157 0.561, 1.3346 -1.5157 0.561, 1.1654 -2.0482 0.0984, 1.1654 -2.0482 0.0, 1.3346 -2.0482 0.0984, 1.3346 -2.0482 0.0, 1.1654 -1.6215 0.502, 1.1654 -1.6215 0.6004, 1.3346 -1.6215 0.502, 1.3346 -1.6215 0.6004, 1.1654 -1.6313 0.493, 1.1654 -1.7293 0.5016, 1.1654 -1.6308 0.4954, 1.1654 -1.7237 0.5277, 1.1654 -1.6297 0.4975, 1.1654 -1.7119 0.5516, 1.1654 -1.6281 0.4994, 1.1654 -1.6946 0.5719, 1.1654 -1.6261 0.5008, 1.1654 -1.6728 0.5874, 1.1654 -1.6239 0.5017, 1.1654 -1.648 0.5971, 1.3346 -1.6239 0.5017, 1.3346 -1.6261 0.5008, 1.3346 -1.6281 0.4994, 1.3346 -1.6297 0.4975, 1.3346 -1.6308 0.4954, 1.3346 -1.6313 0.493, 1.3346 -1.648 0.5971, 1.3346 -1.6728 0.5874, 1.3346 -1.6946 0.5719, 1.3346 -1.7119 0.5516, 1.3346 -1.7237 0.5277, 1.3346 -1.7293 0.5016, 1.1654 -1.7638 0.1074, 1.1654 -1.6657 0.0988, 1.3346 -1.6657 0.0988, 1.3346 -1.7638 0.1074, 1.1654 -1.7643 0.105, 1.1654 -1.6713 0.0727, 1.1654 -1.7654 0.1029, 1.1654 -1.6831 0.0488, 1.1654 -1.767 0.101, 1.1654 -1.7005 0.0284, 1.1654 -1.7689 0.0996, 1.1654 -1.7222 0.013, 1.1654 -1.7712 0.0987, 1.1654 -1.7471 0.0033, 1.1654 -1.7736 0.0984, 1.1654 -1.7736 0.0, 1.3346 -1.7736 0.0, 1.3346 -1.7471 0.0033, 1.3346 -1.7222 0.013, 1.3346 -1.7005 0.0284, 1.3346 -1.6831 0.0488, 1.3346 -1.6713 0.0727, 1.3346 -1.7736 0.0984, 1.3346 -1.7712 0.0987, 1.3346 -1.7689 0.0996, 1.3346 -1.767 0.101, 1.3346 -1.7654 0.1029, 1.3346 -1.7643 0.105, 1.8346 -1.5157 0.502, 1.6654 -1.5157 0.502, 1.8346 -1.5157 0.5413, 1.6654 -1.5157 0.5413, 1.6654 -1.5157 0.6004, 1.8346 -1.5157 0.6004, 1.6654 -1.5157 0.561, 1.8346 -1.5157 0.561, 1.6654 -2.0482 0.0984, 1.6654 -2.0482 0.0, 1.8346 -2.0482 0.0984, 1.8346 -2.0482 0.0, 1.6654 -1.6215 0.502, 1.6654 -1.6215 0.6004, 1.8346 -1.6215 0.502, 1.8346 -1.6215 0.6004, 1.6654 -1.6313 0.493, 1.6654 -1.7293 0.5016, 1.6654 -1.6308 0.4954, 1.6654 -1.7237 0.5277, 1.6654 -1.6297 0.4975, 1.6654 -1.7119 0.5516, 1.6654 -1.6281 0.4994, 1.6654 -1.6946 0.5719, 1.6654 -1.6261 0.5008, 1.6654 -1.6728 0.5874, 1.6654 -1.6239 0.5017, 1.6654 -1.648 0.5971, 1.8346 -1.6239 0.5017, 1.8346 -1.6261 0.5008, 1.8346 -1.6281 0.4994, 1.8346 -1.6297 0.4975, 1.8346 -1.6308 0.4954, 1.8346 -1.6313 0.493, 1.8346 -1.648 0.5971, 1.8346 -1.6728 0.5874, 1.8346 -1.6946 0.5719, 1.8346 -1.7119 0.5516, 1.8346 -1.7237 0.5277, 1.8346 -1.7293 0.5016, 1.6654 -1.7638 0.1074, 1.6654 -1.6657 0.0988, 1.8346 -1.6657 0.0988, 1.8346 -1.7638 0.1074, 1.6654 -1.7643 0.105, 1.6654 -1.6713 0.0727, 1.6654 -1.7654 0.1029, 1.6654 -1.6831 0.0488, 1.6654 -1.767 0.101, 1.6654 -1.7005 0.0284, 1.6654 -1.7689 0.0996, 1.6654 -1.7222 0.013, 1.6654 -1.7712 0.0987, 1.6654 -1.7471 0.0033, 1.6654 -1.7736 0.0984, 1.6654 -1.7736 0.0, 1.8346 -1.7736 0.0, 1.8346 -1.7471 0.0033, 1.8346 -1.7222 0.013, 1.8346 -1.7005 0.0284, 1.8346 -1.6831 0.0488, 1.8346 -1.6713 0.0727, 1.8346 -1.7736 0.0984, 1.8346 -1.7712 0.0987, 1.8346 -1.7689 0.0996, 1.8346 -1.767 0.101, 1.8346 -1.7654 0.1029, 1.8346 -1.7643 0.105, 2.3346 -1.5157 0.502, 2.1654 -1.5157 0.502, 2.3346 -1.5157 0.5413, 2.1654 -1.5157 0.5413, 2.1654 -1.5157 0.6004, 2.3346 -1.5157 0.6004, 2.1654 -1.5157 0.561, 2.3346 -1.5157 0.561, 2.1654 -2.0482 0.0984, 2.1654 -2.0482 0.0, 2.3346 -2.0482 0.0984, 2.3346 -2.0482 0.0, 2.1654 -1.6215 0.502, 2.1654 -1.6215 0.6004, 2.3346 -1.6215 0.502, 2.3346 -1.6215 0.6004, 2.1654 -1.6313 0.493, 2.1654 -1.7293 0.5016, 2.1654 -1.6308 0.4954, 2.1654 -1.7237 0.5277, 2.1654 -1.6297 0.4975, 2.1654 -1.7119 0.5516, 2.1654 -1.6281 0.4994, 2.1654 -1.6946 0.5719, 2.1654 -1.6261 0.5008, 2.1654 -1.6728 0.5874, 2.1654 -1.6239 0.5017, 2.1654 -1.648 0.5971, 2.3346 -1.6239 0.5017, 2.3346 -1.6261 0.5008, 2.3346 -1.6281 0.4994, 2.3346 -1.6297 0.4975, 2.3346 -1.6308 0.4954, 2.3346 -1.6313 0.493, 2.3346 -1.648 0.5971, 2.3346 -1.6728 0.5874, 2.3346 -1.6946 0.5719, 2.3346 -1.7119 0.5516, 2.3346 -1.7237 0.5277, 2.3346 -1.7293 0.5016, 2.1654 -1.7638 0.1074, 2.1654 -1.6657 0.0988, 2.3346 -1.6657 0.0988, 2.3346 -1.7638 0.1074, 2.1654 -1.7643 0.105, 2.1654 -1.6713 0.0727, 2.1654 -1.7654 0.1029, 2.1654 -1.6831 0.0488, 2.1654 -1.767 0.101, 2.1654 -1.7005 0.0284, 2.1654 -1.7689 0.0996, 2.1654 -1.7222 0.013, 2.1654 -1.7712 0.0987, 2.1654 -1.7471 0.0033, 2.1654 -1.7736 0.0984, 2.1654 -1.7736 0.0, 2.3346 -1.7736 0.0, 2.3346 -1.7471 0.0033, 2.3346 -1.7222 0.013, 2.3346 -1.7005 0.0284, 2.3346 -1.6831 0.0488, 2.3346 -1.6713 0.0727, 2.3346 -1.7736 0.0984, 2.3346 -1.7712 0.0987, 2.3346 -1.7689 0.0996, 2.3346 -1.767 0.101, 2.3346 -1.7654 0.1029, 2.3346 -1.7643 0.105, -2.3346 1.5157 0.5413, -2.3346 1.5157 0.502, -2.1654 1.5157 0.5413, -2.1654 1.5157 0.502, -2.1654 1.5157 0.561, -2.1654 1.5157 0.6004, -2.3346 1.5157 0.561, -2.3346 1.5157 0.6004, -2.3346 2.0482 0.0, -2.3346 2.0482 0.0984, -2.1654 2.0482 0.0, -2.1654 2.0482 0.0984, -2.1654 1.6215 0.502, -2.1654 1.6215 0.6004, -2.3346 1.6215 0.502, -2.3346 1.6215 0.6004, -2.1654 1.6313 0.493, -2.1654 1.7293 0.5016, -2.1654 1.6308 0.4954, -2.1654 1.7237 0.5277, -2.1654 1.6297 0.4975, -2.1654 1.7119 0.5516, -2.1654 1.6281 0.4994, -2.1654 1.6946 0.5719, -2.1654 1.6261 0.5008, -2.1654 1.6728 0.5874, -2.1654 1.6239 0.5017, -2.1654 1.648 0.5971, -2.3346 1.6239 0.5017, -2.3346 1.6261 0.5008, -2.3346 1.6281 0.4994, -2.3346 1.6297 0.4975, -2.3346 1.6308 0.4954, -2.3346 1.6313 0.493, -2.3346 1.648 0.5971, -2.3346 1.6728 0.5874, -2.3346 1.6946 0.5719, -2.3346 1.7119 0.5516, -2.3346 1.7237 0.5277, -2.3346 1.7293 0.5016, -2.1654 1.7638 0.1074, -2.1654 1.6657 0.0988, -2.3346 1.6657 0.0988, -2.3346 1.7638 0.1074, -2.1654 1.7643 0.105, -2.1654 1.6713 0.0727, -2.1654 1.7654 0.1029, -2.1654 1.6831 0.0488, -2.1654 1.767 0.101, -2.1654 1.7005 0.0284, -2.1654 1.7689 0.0996, -2.1654 1.7222 0.013, -2.1654 1.7712 0.0987, -2.1654 1.7471 0.0033, -2.1654 1.7736 0.0984, -2.1654 1.7736 0.0, -2.3346 1.7736 0.0, -2.3346 1.7471 0.0033, -2.3346 1.7222 0.013, -2.3346 1.7005 0.0284, -2.3346 1.6831 0.0488, -2.3346 1.6713 0.0727, -2.3346 1.7736 0.0984, -2.3346 1.7712 0.0987, -2.3346 1.7689 0.0996, -2.3346 1.767 0.101, -2.3346 1.7654 0.1029, -2.3346 1.7643 0.105, -1.8346 1.5157 0.502, -1.6654 1.5157 0.502, -1.8346 1.5157 0.5413, -1.6654 1.5157 0.5413, -1.6654 1.5157 0.6004, -1.8346 1.5157 0.6004, -1.6654 1.5157 0.561, -1.8346 1.5157 0.561, -1.8346 2.0482 0.0, -1.8346 2.0482 0.0984, -1.6654 2.0482 0.0, -1.6654 2.0482 0.0984, -1.6654 1.6215 0.502, -1.6654 1.6215 0.6004, -1.8346 1.6215 0.502, -1.8346 1.6215 0.6004, -1.6654 1.6313 0.493, -1.6654 1.7293 0.5016, -1.6654 1.6308 0.4954, -1.6654 1.7237 0.5277, -1.6654 1.6297 0.4975, -1.6654 1.7119 0.5516, -1.6654 1.6281 0.4994, -1.6654 1.6946 0.5719, -1.6654 1.6261 0.5008, -1.6654 1.6728 0.5874, -1.6654 1.6239 0.5017, -1.6654 1.648 0.5971, -1.8346 1.6239 0.5017, -1.8346 1.6261 0.5008, -1.8346 1.6281 0.4994, -1.8346 1.6297 0.4975, -1.8346 1.6308 0.4954, -1.8346 1.6313 0.493, -1.8346 1.648 0.5971, -1.8346 1.6728 0.5874, -1.8346 1.6946 0.5719, -1.8346 1.7119 0.5516, -1.8346 1.7237 0.5277, -1.8346 1.7293 0.5016, -1.6654 1.7638 0.1074, -1.6654 1.6657 0.0988, -1.8346 1.6657 0.0988, -1.8346 1.7638 0.1074, -1.6654 1.7643 0.105, -1.6654 1.6713 0.0727, -1.6654 1.7654 0.1029, -1.6654 1.6831 0.0488, -1.6654 1.767 0.101, -1.6654 1.7005 0.0284, -1.6654 1.7689 0.0996, -1.6654 1.7222 0.013, -1.6654 1.7712 0.0987, -1.6654 1.7471 0.0033, -1.6654 1.7736 0.0984, -1.6654 1.7736 0.0, -1.8346 1.7736 0.0, -1.8346 1.7471 0.0033, -1.8346 1.7222 0.013, -1.8346 1.7005 0.0284, -1.8346 1.6831 0.0488, -1.8346 1.6713 0.0727, -1.8346 1.7736 0.0984, -1.8346 1.7712 0.0987, -1.8346 1.7689 0.0996, -1.8346 1.767 0.101, -1.8346 1.7654 0.1029, -1.8346 1.7643 0.105, -1.3346 1.5157 0.502, -1.1654 1.5157 0.502, -1.3346 1.5157 0.5413, -1.1654 1.5157 0.5413, -1.1654 1.5157 0.6004, -1.3346 1.5157 0.6004, -1.1654 1.5157 0.561, -1.3346 1.5157 0.561, -1.3346 2.0482 0.0, -1.3346 2.0482 0.0984, -1.1654 2.0482 0.0, -1.1654 2.0482 0.0984, -1.1654 1.6215 0.502, -1.1654 1.6215 0.6004, -1.3346 1.6215 0.502, -1.3346 1.6215 0.6004, -1.1654 1.6313 0.493, -1.1654 1.7293 0.5016, -1.1654 1.6308 0.4954, -1.1654 1.7237 0.5277, -1.1654 1.6297 0.4975, -1.1654 1.7119 0.5516, -1.1654 1.6281 0.4994, -1.1654 1.6946 0.5719, -1.1654 1.6261 0.5008, -1.1654 1.6728 0.5874, -1.1654 1.6239 0.5017, -1.1654 1.648 0.5971, -1.3346 1.6239 0.5017, -1.3346 1.6261 0.5008, -1.3346 1.6281 0.4994, -1.3346 1.6297 0.4975, -1.3346 1.6308 0.4954, -1.3346 1.6313 0.493, -1.3346 1.648 0.5971, -1.3346 1.6728 0.5874, -1.3346 1.6946 0.5719, -1.3346 1.7119 0.5516, -1.3346 1.7237 0.5277, -1.3346 1.7293 0.5016, -1.1654 1.7638 0.1074, -1.1654 1.6657 0.0988, -1.3346 1.6657 0.0988, -1.3346 1.7638 0.1074, -1.1654 1.7643 0.105, -1.1654 1.6713 0.0727, -1.1654 1.7654 0.1029, -1.1654 1.6831 0.0488, -1.1654 1.767 0.101, -1.1654 1.7005 0.0284, -1.1654 1.7689 0.0996, -1.1654 1.7222 0.013, -1.1654 1.7712 0.0987, -1.1654 1.7471 0.0033, -1.1654 1.7736 0.0984, -1.1654 1.7736 0.0, -1.3346 1.7736 0.0, -1.3346 1.7471 0.0033, -1.3346 1.7222 0.013, -1.3346 1.7005 0.0284, -1.3346 1.6831 0.0488, -1.3346 1.6713 0.0727, -1.3346 1.7736 0.0984, -1.3346 1.7712 0.0987, -1.3346 1.7689 0.0996, -1.3346 1.767 0.101, -1.3346 1.7654 0.1029, -1.3346 1.7643 0.105, -0.8346 1.5157 0.502, -0.6654 1.5157 0.502, -0.8346 1.5157 0.5413, -0.6654 1.5157 0.5413, -0.6654 1.5157 0.6004, -0.8346 1.5157 0.6004, -0.6654 1.5157 0.561, -0.8346 1.5157 0.561, -0.8346 2.0482 0.0, -0.8346 2.0482 0.0984, -0.6654 2.0482 0.0, -0.6654 2.0482 0.0984, -0.6654 1.6215 0.502, -0.6654 1.6215 0.6004, -0.8346 1.6215 0.502, -0.8346 1.6215 0.6004, -0.6654 1.6313 0.493, -0.6654 1.7293 0.5016, -0.6654 1.6308 0.4954, -0.6654 1.7237 0.5277, -0.6654 1.6297 0.4975, -0.6654 1.7119 0.5516, -0.6654 1.6281 0.4994, -0.6654 1.6946 0.5719, -0.6654 1.6261 0.5008, -0.6654 1.6728 0.5874, -0.6654 1.6239 0.5017, -0.6654 1.648 0.5971, -0.8346 1.6239 0.5017, -0.8346 1.6261 0.5008, -0.8346 1.6281 0.4994, -0.8346 1.6297 0.4975, -0.8346 1.6308 0.4954, -0.8346 1.6313 0.493, -0.8346 1.648 0.5971, -0.8346 1.6728 0.5874, -0.8346 1.6946 0.5719, -0.8346 1.7119 0.5516, -0.8346 1.7237 0.5277, -0.8346 1.7293 0.5016, -0.6654 1.7638 0.1074, -0.6654 1.6657 0.0988, -0.8346 1.6657 0.0988, -0.8346 1.7638 0.1074, -0.6654 1.7643 0.105, -0.6654 1.6713 0.0727, -0.6654 1.7654 0.1029, -0.6654 1.6831 0.0488, -0.6654 1.767 0.101, -0.6654 1.7005 0.0284, -0.6654 1.7689 0.0996, -0.6654 1.7222 0.013, -0.6654 1.7712 0.0987, -0.6654 1.7471 0.0033, -0.6654 1.7736 0.0984, -0.6654 1.7736 0.0, -0.8346 1.7736 0.0, -0.8346 1.7471 0.0033, -0.8346 1.7222 0.013, -0.8346 1.7005 0.0284, -0.8346 1.6831 0.0488, -0.8346 1.6713 0.0727, -0.8346 1.7736 0.0984, -0.8346 1.7712 0.0987, -0.8346 1.7689 0.0996, -0.8346 1.767 0.101, -0.8346 1.7654 0.1029, -0.8346 1.7643 0.105, -0.3346 1.5157 0.502, -0.1654 1.5157 0.502, -0.3346 1.5157 0.5413, -0.1654 1.5157 0.5413, -0.1654 1.5157 0.6004, -0.3346 1.5157 0.6004, -0.1654 1.5157 0.561, -0.3346 1.5157 0.561, -0.3346 2.0482 0.0, -0.3346 2.0482 0.0984, -0.1654 2.0482 0.0, -0.1654 2.0482 0.0984, -0.1654 1.6215 0.502, -0.1654 1.6215 0.6004, -0.3346 1.6215 0.502, -0.3346 1.6215 0.6004, -0.1654 1.6313 0.493, -0.1654 1.7293 0.5016, -0.1654 1.6308 0.4954, -0.1654 1.7237 0.5277, -0.1654 1.6297 0.4975, -0.1654 1.7119 0.5516, -0.1654 1.6281 0.4994, -0.1654 1.6946 0.5719, -0.1654 1.6261 0.5008, -0.1654 1.6728 0.5874, -0.1654 1.6239 0.5017, -0.1654 1.648 0.5971, -0.3346 1.6239 0.5017, -0.3346 1.6261 0.5008, -0.3346 1.6281 0.4994, -0.3346 1.6297 0.4975, -0.3346 1.6308 0.4954, -0.3346 1.6313 0.493, -0.3346 1.648 0.5971, -0.3346 1.6728 0.5874, -0.3346 1.6946 0.5719, -0.3346 1.7119 0.5516, -0.3346 1.7237 0.5277, -0.3346 1.7293 0.5016, -0.1654 1.7638 0.1074, -0.1654 1.6657 0.0988, -0.3346 1.6657 0.0988, -0.3346 1.7638 0.1074, -0.1654 1.7643 0.105, -0.1654 1.6713 0.0727, -0.1654 1.7654 0.1029, -0.1654 1.6831 0.0488, -0.1654 1.767 0.101, -0.1654 1.7005 0.0284, -0.1654 1.7689 0.0996, -0.1654 1.7222 0.013, -0.1654 1.7712 0.0987, -0.1654 1.7471 0.0033, -0.1654 1.7736 0.0984, -0.1654 1.7736 0.0, -0.3346 1.7736 0.0, -0.3346 1.7471 0.0033, -0.3346 1.7222 0.013, -0.3346 1.7005 0.0284, -0.3346 1.6831 0.0488, -0.3346 1.6713 0.0727, -0.3346 1.7736 0.0984, -0.3346 1.7712 0.0987, -0.3346 1.7689 0.0996, -0.3346 1.767 0.101, -0.3346 1.7654 0.1029, -0.3346 1.7643 0.105, 0.1654 1.5157 0.502, 0.3346 1.5157 0.502, 0.1654 1.5157 0.5413, 0.3346 1.5157 0.5413, 0.3346 1.5157 0.6004, 0.1654 1.5157 0.6004, 0.3346 1.5157 0.561, 0.1654 1.5157 0.561, 0.1654 2.0482 0.0, 0.1654 2.0482 0.0984, 0.3346 2.0482 0.0, 0.3346 2.0482 0.0984, 0.3346 1.6215 0.502, 0.3346 1.6215 0.6004, 0.1654 1.6215 0.502, 0.1654 1.6215 0.6004, 0.3346 1.6313 0.493, 0.3346 1.7293 0.5016, 0.3346 1.6308 0.4954, 0.3346 1.7237 0.5277, 0.3346 1.6297 0.4975, 0.3346 1.7119 0.5516, 0.3346 1.6281 0.4994, 0.3346 1.6946 0.5719, 0.3346 1.6261 0.5008, 0.3346 1.6728 0.5874, 0.3346 1.6239 0.5017, 0.3346 1.648 0.5971, 0.1654 1.6239 0.5017, 0.1654 1.6261 0.5008, 0.1654 1.6281 0.4994, 0.1654 1.6297 0.4975, 0.1654 1.6308 0.4954, 0.1654 1.6313 0.493, 0.1654 1.648 0.5971, 0.1654 1.6728 0.5874, 0.1654 1.6946 0.5719, 0.1654 1.7119 0.5516, 0.1654 1.7237 0.5277, 0.1654 1.7293 0.5016, 0.3346 1.7638 0.1074, 0.3346 1.6657 0.0988, 0.1654 1.6657 0.0988, 0.1654 1.7638 0.1074, 0.3346 1.7643 0.105, 0.3346 1.6713 0.0727, 0.3346 1.7654 0.1029, 0.3346 1.6831 0.0488, 0.3346 1.767 0.101, 0.3346 1.7005 0.0284, 0.3346 1.7689 0.0996, 0.3346 1.7222 0.013, 0.3346 1.7712 0.0987, 0.3346 1.7471 0.0033, 0.3346 1.7736 0.0984, 0.3346 1.7736 0.0, 0.1654 1.7736 0.0, 0.1654 1.7471 0.0033, 0.1654 1.7222 0.013, 0.1654 1.7005 0.0284, 0.1654 1.6831 0.0488, 0.1654 1.6713 0.0727, 0.1654 1.7736 0.0984, 0.1654 1.7712 0.0987, 0.1654 1.7689 0.0996, 0.1654 1.767 0.101, 0.1654 1.7654 0.1029, 0.1654 1.7643 0.105, 0.6654 1.5157 0.502, 0.8346 1.5157 0.502, 0.6654 1.5157 0.5413, 0.8346 1.5157 0.5413, 0.8346 1.5157 0.6004, 0.6654 1.5157 0.6004, 0.8346 1.5157 0.561, 0.6654 1.5157 0.561, 0.6654 2.0482 0.0, 0.6654 2.0482 0.0984, 0.8346 2.0482 0.0, 0.8346 2.0482 0.0984, 0.8346 1.6215 0.502, 0.8346 1.6215 0.6004, 0.6654 1.6215 0.502, 0.6654 1.6215 0.6004, 0.8346 1.6313 0.493, 0.8346 1.7293 0.5016, 0.8346 1.6308 0.4954, 0.8346 1.7237 0.5277, 0.8346 1.6297 0.4975, 0.8346 1.7119 0.5516, 0.8346 1.6281 0.4994, 0.8346 1.6946 0.5719, 0.8346 1.6261 0.5008, 0.8346 1.6728 0.5874, 0.8346 1.6239 0.5017, 0.8346 1.648 0.5971, 0.6654 1.6239 0.5017, 0.6654 1.6261 0.5008, 0.6654 1.6281 0.4994, 0.6654 1.6297 0.4975, 0.6654 1.6308 0.4954, 0.6654 1.6313 0.493, 0.6654 1.648 0.5971, 0.6654 1.6728 0.5874, 0.6654 1.6946 0.5719, 0.6654 1.7119 0.5516, 0.6654 1.7237 0.5277, 0.6654 1.7293 0.5016, 0.8346 1.7638 0.1074, 0.8346 1.6657 0.0988, 0.6654 1.6657 0.0988, 0.6654 1.7638 0.1074, 0.8346 1.7643 0.105, 0.8346 1.6713 0.0727, 0.8346 1.7654 0.1029, 0.8346 1.6831 0.0488, 0.8346 1.767 0.101, 0.8346 1.7005 0.0284, 0.8346 1.7689 0.0996, 0.8346 1.7222 0.013, 0.8346 1.7712 0.0987, 0.8346 1.7471 0.0033, 0.8346 1.7736 0.0984, 0.8346 1.7736 0.0, 0.6654 1.7736 0.0, 0.6654 1.7471 0.0033, 0.6654 1.7222 0.013, 0.6654 1.7005 0.0284, 0.6654 1.6831 0.0488, 0.6654 1.6713 0.0727, 0.6654 1.7736 0.0984, 0.6654 1.7712 0.0987, 0.6654 1.7689 0.0996, 0.6654 1.767 0.101, 0.6654 1.7654 0.1029, 0.6654 1.7643 0.105, 1.1654 1.5157 0.502, 1.3346 1.5157 0.502, 1.1654 1.5157 0.5413, 1.3346 1.5157 0.5413, 1.3346 1.5157 0.6004, 1.1654 1.5157 0.6004, 1.3346 1.5157 0.561, 1.1654 1.5157 0.561, 1.1654 2.0482 0.0, 1.1654 2.0482 0.0984, 1.3346 2.0482 0.0, 1.3346 2.0482 0.0984, 1.3346 1.6215 0.502, 1.3346 1.6215 0.6004, 1.1654 1.6215 0.502, 1.1654 1.6215 0.6004, 1.3346 1.6313 0.493, 1.3346 1.7293 0.5016, 1.3346 1.6308 0.4954, 1.3346 1.7237 0.5277, 1.3346 1.6297 0.4975, 1.3346 1.7119 0.5516, 1.3346 1.6281 0.4994, 1.3346 1.6946 0.5719, 1.3346 1.6261 0.5008, 1.3346 1.6728 0.5874, 1.3346 1.6239 0.5017, 1.3346 1.648 0.5971, 1.1654 1.6239 0.5017, 1.1654 1.6261 0.5008, 1.1654 1.6281 0.4994, 1.1654 1.6297 0.4975, 1.1654 1.6308 0.4954, 1.1654 1.6313 0.493, 1.1654 1.648 0.5971, 1.1654 1.6728 0.5874, 1.1654 1.6946 0.5719, 1.1654 1.7119 0.5516, 1.1654 1.7237 0.5277, 1.1654 1.7293 0.5016, 1.3346 1.7638 0.1074, 1.3346 1.6657 0.0988, 1.1654 1.6657 0.0988, 1.1654 1.7638 0.1074, 1.3346 1.7643 0.105, 1.3346 1.6713 0.0727, 1.3346 1.7654 0.1029, 1.3346 1.6831 0.0488, 1.3346 1.767 0.101, 1.3346 1.7005 0.0284, 1.3346 1.7689 0.0996, 1.3346 1.7222 0.013, 1.3346 1.7712 0.0987, 1.3346 1.7471 0.0033, 1.3346 1.7736 0.0984, 1.3346 1.7736 0.0, 1.1654 1.7736 0.0, 1.1654 1.7471 0.0033, 1.1654 1.7222 0.013, 1.1654 1.7005 0.0284, 1.1654 1.6831 0.0488, 1.1654 1.6713 0.0727, 1.1654 1.7736 0.0984, 1.1654 1.7712 0.0987, 1.1654 1.7689 0.0996, 1.1654 1.767 0.101, 1.1654 1.7654 0.1029, 1.1654 1.7643 0.105, 1.6654 1.5157 0.502, 1.8346 1.5157 0.502, 1.6654 1.5157 0.5413, 1.8346 1.5157 0.5413, 1.8346 1.5157 0.6004, 1.6654 1.5157 0.6004, 1.8346 1.5157 0.561, 1.6654 1.5157 0.561, 1.6654 2.0482 0.0, 1.6654 2.0482 0.0984, 1.8346 2.0482 0.0, 1.8346 2.0482 0.0984, 1.8346 1.6215 0.502, 1.8346 1.6215 0.6004, 1.6654 1.6215 0.502, 1.6654 1.6215 0.6004, 1.8346 1.6313 0.493, 1.8346 1.7293 0.5016, 1.8346 1.6308 0.4954, 1.8346 1.7237 0.5277, 1.8346 1.6297 0.4975, 1.8346 1.7119 0.5516, 1.8346 1.6281 0.4994, 1.8346 1.6946 0.5719, 1.8346 1.6261 0.5008, 1.8346 1.6728 0.5874, 1.8346 1.6239 0.5017, 1.8346 1.648 0.5971, 1.6654 1.6239 0.5017, 1.6654 1.6261 0.5008, 1.6654 1.6281 0.4994, 1.6654 1.6297 0.4975, 1.6654 1.6308 0.4954, 1.6654 1.6313 0.493, 1.6654 1.648 0.5971, 1.6654 1.6728 0.5874, 1.6654 1.6946 0.5719, 1.6654 1.7119 0.5516, 1.6654 1.7237 0.5277, 1.6654 1.7293 0.5016, 1.8346 1.7638 0.1074, 1.8346 1.6657 0.0988, 1.6654 1.6657 0.0988, 1.6654 1.7638 0.1074, 1.8346 1.7643 0.105, 1.8346 1.6713 0.0727, 1.8346 1.7654 0.1029, 1.8346 1.6831 0.0488, 1.8346 1.767 0.101, 1.8346 1.7005 0.0284, 1.8346 1.7689 0.0996, 1.8346 1.7222 0.013, 1.8346 1.7712 0.0987, 1.8346 1.7471 0.0033, 1.8346 1.7736 0.0984, 1.8346 1.7736 0.0, 1.6654 1.7736 0.0, 1.6654 1.7471 0.0033, 1.6654 1.7222 0.013, 1.6654 1.7005 0.0284, 1.6654 1.6831 0.0488, 1.6654 1.6713 0.0727, 1.6654 1.7736 0.0984, 1.6654 1.7712 0.0987, 1.6654 1.7689 0.0996, 1.6654 1.767 0.101, 1.6654 1.7654 0.1029, 1.6654 1.7643 0.105, 2.1654 1.5157 0.502, 2.3346 1.5157 0.502, 2.1654 1.5157 0.5413, 2.3346 1.5157 0.5413, 2.3346 1.5157 0.6004, 2.1654 1.5157 0.6004, 2.3346 1.5157 0.561, 2.1654 1.5157 0.561, 2.1654 2.0482 0.0, 2.1654 2.0482 0.0984, 2.3346 2.0482 0.0, 2.3346 2.0482 0.0984, 2.3346 1.6215 0.502, 2.3346 1.6215 0.6004, 2.1654 1.6215 0.502, 2.1654 1.6215 0.6004, 2.3346 1.6313 0.493, 2.3346 1.7293 0.5016, 2.3346 1.6308 0.4954, 2.3346 1.7237 0.5277, 2.3346 1.6297 0.4975, 2.3346 1.7119 0.5516, 2.3346 1.6281 0.4994, 2.3346 1.6946 0.5719, 2.3346 1.6261 0.5008, 2.3346 1.6728 0.5874, 2.3346 1.6239 0.5017, 2.3346 1.648 0.5971, 2.1654 1.6239 0.5017, 2.1654 1.6261 0.5008, 2.1654 1.6281 0.4994, 2.1654 1.6297 0.4975, 2.1654 1.6308 0.4954, 2.1654 1.6313 0.493, 2.1654 1.648 0.5971, 2.1654 1.6728 0.5874, 2.1654 1.6946 0.5719, 2.1654 1.7119 0.5516, 2.1654 1.7237 0.5277, 2.1654 1.7293 0.5016, 2.3346 1.7638 0.1074, 2.3346 1.6657 0.0988, 2.1654 1.6657 0.0988, 2.1654 1.7638 0.1074, 2.3346 1.7643 0.105, 2.3346 1.6713 0.0727, 2.3346 1.7654 0.1029, 2.3346 1.6831 0.0488, 2.3346 1.767 0.101, 2.3346 1.7005 0.0284, 2.3346 1.7689 0.0996, 2.3346 1.7222 0.013, 2.3346 1.7712 0.0987, 2.3346 1.7471 0.0033, 2.3346 1.7736 0.0984, 2.3346 1.7736 0.0, 2.1654 1.7736 0.0, 2.1654 1.7471 0.0033, 2.1654 1.7222 0.013, 2.1654 1.7005 0.0284, 2.1654 1.6831 0.0488, 2.1654 1.6713 0.0727, 2.1654 1.7736 0.0984, 2.1654 1.7712 0.0987, 2.1654 1.7689 0.0996, 2.1654 1.767 0.101, 2.1654 1.7654 0.1029, 2.1654 1.7643 0.105
            ]
        }
        coordIndex [
            0,1,2,-1,2,1,3,-1,4,5,6,-1,6,5,7,-1,8,9,10,-1,10,9,11,-1,3,12,2,-1,2,12,13,-1,2,13,4,-1,4,13,5,-1,12,3,14,-1,14,3,1,-1,7,15,6,-1,6,15,14,-1,6,14,0,-1,0,14,1,-1,7,5,15,-1,15,5,13,-1,16,17,18,-1,18,17,19,-1,18,19,20,-1,20,19,21,-1,20,21,22,-1,22,21,23,-1,22,23,24,-1,24,23,25,-1,24,25,26,-1,26,25,27,-1,26,27,12,-1,12,27,13,-1,12,14,26,-1,26,14,28,-1,26,28,24,-1,24,28,29,-1,24,29,22,-1,22,29,30,-1,22,30,20,-1,20,30,31,-1,20,31,18,-1,18,31,32,-1,18,32,16,-1,16,32,33,-1,14,15,28,-1,28,15,34,-1,28,34,29,-1,29,34,35,-1,29,35,30,-1,30,35,36,-1,30,36,31,-1,31,36,37,-1,31,37,32,-1,32,37,38,-1,32,38,33,-1,33,38,39,-1,17,39,38,-1,17,38,19,-1,19,38,37,-1,19,37,21,-1,21,37,36,-1,21,36,23,-1,23,36,35,-1,23,35,25,-1,25,35,34,-1,25,34,27,-1,27,34,15,-1,27,15,13,-1,40,17,41,-1,41,17,16,-1,41,16,42,-1,42,16,33,-1,42,33,43,-1,43,33,39,-1,39,17,43,-1,43,17,40,-1,40,41,44,-1,44,41,45,-1,44,45,46,-1,46,45,47,-1,46,47,48,-1,48,47,49,-1,48,49,50,-1,50,49,51,-1,50,51,52,-1,52,51,53,-1,52,53,54,-1,54,53,55,-1,56,55,53,-1,56,53,57,-1,57,53,51,-1,57,51,58,-1,58,51,49,-1,58,49,59,-1,59,49,47,-1,59,47,60,-1,60,47,45,-1,60,45,61,-1,61,45,41,-1,61,41,42,-1,62,56,63,-1,63,56,57,-1,63,57,64,-1,64,57,58,-1,64,58,65,-1,65,58,59,-1,65,59,66,-1,66,59,60,-1,66,60,67,-1,67,60,61,-1,67,61,43,-1,43,61,42,-1,43,40,67,-1,67,40,44,-1,67,44,66,-1,66,44,46,-1,66,46,65,-1,65,46,48,-1,65,48,64,-1,64,48,50,-1,64,50,63,-1,63,50,52,-1,63,52,62,-1,62,52,54,-1,8,54,9,-1,9,54,55,-1,9,55,11,-1,11,55,56,-1,11,56,10,-1,10,56,62,-1,62,54,10,-1,10,54,8,-1,68,69,70,-1,70,69,71,-1,72,73,74,-1,74,73,75,-1,76,77,78,-1,78,77,79,-1,69,80,71,-1,71,80,81,-1,71,81,74,-1,74,81,72,-1,80,69,82,-1,82,69,68,-1,73,83,75,-1,75,83,82,-1,75,82,70,-1,70,82,68,-1,73,72,83,-1,83,72,81,-1,84,85,86,-1,86,85,87,-1,86,87,88,-1,88,87,89,-1,88,89,90,-1,90,89,91,-1,90,91,92,-1,92,91,93,-1,92,93,94,-1,94,93,95,-1,94,95,80,-1,80,95,81,-1,80,82,94,-1,94,82,96,-1,94,96,92,-1,92,96,97,-1,92,97,90,-1,90,97,98,-1,90,98,88,-1,88,98,99,-1,88,99,86,-1,86,99,100,-1,86,100,84,-1,84,100,101,-1,82,83,96,-1,96,83,102,-1,96,102,97,-1,97,102,103,-1,97,103,98,-1,98,103,104,-1,98,104,99,-1,99,104,105,-1,99,105,100,-1,100,105,106,-1,100,106,101,-1,101,106,107,-1,85,107,106,-1,85,106,87,-1,87,106,105,-1,87,105,89,-1,89,105,104,-1,89,104,91,-1,91,104,103,-1,91,103,93,-1,93,103,102,-1,93,102,95,-1,95,102,83,-1,95,83,81,-1,108,85,109,-1,109,85,84,-1,109,84,110,-1,110,84,101,-1,110,101,111,-1,111,101,107,-1,107,85,111,-1,111,85,108,-1,108,109,112,-1,112,109,113,-1,112,113,114,-1,114,113,115,-1,114,115,116,-1,116,115,117,-1,116,117,118,-1,118,117,119,-1,118,119,120,-1,120,119,121,-1,120,121,122,-1,122,121,123,-1,124,123,121,-1,124,121,125,-1,125,121,119,-1,125,119,126,-1,126,119,117,-1,126,117,127,-1,127,117,115,-1,127,115,128,-1,128,115,113,-1,128,113,129,-1,129,113,109,-1,129,109,110,-1,130,124,131,-1,131,124,125,-1,131,125,132,-1,132,125,126,-1,132,126,133,-1,133,126,127,-1,133,127,134,-1,134,127,128,-1,134,128,135,-1,135,128,129,-1,135,129,111,-1,111,129,110,-1,111,108,135,-1,135,108,112,-1,135,112,134,-1,134,112,114,-1,134,114,133,-1,133,114,116,-1,133,116,132,-1,132,116,118,-1,132,118,131,-1,131,118,120,-1,131,120,130,-1,130,120,122,-1,76,122,77,-1,77,122,123,-1,77,123,79,-1,79,123,124,-1,79,124,78,-1,78,124,130,-1,130,122,78,-1,78,122,76,-1,136,137,138,-1,138,137,139,-1,140,141,142,-1,142,141,143,-1,144,145,146,-1,146,145,147,-1,137,148,139,-1,139,148,149,-1,139,149,142,-1,142,149,140,-1,148,137,150,-1,150,137,136,-1,141,151,143,-1,143,151,150,-1,143,150,138,-1,138,150,136,-1,141,140,151,-1,151,140,149,-1,152,153,154,-1,154,153,155,-1,154,155,156,-1,156,155,157,-1,156,157,158,-1,158,157,159,-1,158,159,160,-1,160,159,161,-1,160,161,162,-1,162,161,163,-1,162,163,148,-1,148,163,149,-1,148,150,162,-1,162,150,164,-1,162,164,160,-1,160,164,165,-1,160,165,158,-1,158,165,166,-1,158,166,156,-1,156,166,167,-1,156,167,154,-1,154,167,168,-1,154,168,152,-1,152,168,169,-1,150,151,164,-1,164,151,170,-1,164,170,165,-1,165,170,171,-1,165,171,166,-1,166,171,172,-1,166,172,167,-1,167,172,173,-1,167,173,168,-1,168,173,174,-1,168,174,169,-1,169,174,175,-1,153,175,174,-1,153,174,155,-1,155,174,173,-1,155,173,157,-1,157,173,172,-1,157,172,159,-1,159,172,171,-1,159,171,161,-1,161,171,170,-1,161,170,163,-1,163,170,151,-1,163,151,149,-1,176,153,177,-1,177,153,152,-1,177,152,178,-1,178,152,169,-1,178,169,179,-1,179,169,175,-1,175,153,179,-1,179,153,176,-1,176,177,180,-1,180,177,181,-1,180,181,182,-1,182,181,183,-1,182,183,184,-1,184,183,185,-1,184,185,186,-1,186,185,187,-1,186,187,188,-1,188,187,189,-1,188,189,190,-1,190,189,191,-1,192,191,189,-1,192,189,193,-1,193,189,187,-1,193,187,194,-1,194,187,185,-1,194,185,195,-1,195,185,183,-1,195,183,196,-1,196,183,181,-1,196,181,197,-1,197,181,177,-1,197,177,178,-1,198,192,199,-1,199,192,193,-1,199,193,200,-1,200,193,194,-1,200,194,201,-1,201,194,195,-1,201,195,202,-1,202,195,196,-1,202,196,203,-1,203,196,197,-1,203,197,179,-1,179,197,178,-1,179,176,203,-1,203,176,180,-1,203,180,202,-1,202,180,182,-1,202,182,201,-1,201,182,184,-1,201,184,200,-1,200,184,186,-1,200,186,199,-1,199,186,188,-1,199,188,198,-1,198,188,190,-1,144,190,145,-1,145,190,191,-1,145,191,147,-1,147,191,192,-1,147,192,146,-1,146,192,198,-1,198,190,146,-1,146,190,144,-1,204,205,206,-1,206,205,207,-1,208,209,210,-1,210,209,211,-1,212,213,214,-1,214,213,215,-1,205,216,207,-1,207,216,217,-1,207,217,210,-1,210,217,208,-1,216,205,218,-1,218,205,204,-1,209,219,211,-1,211,219,218,-1,211,218,206,-1,206,218,204,-1,209,208,219,-1,219,208,217,-1,220,221,222,-1,222,221,223,-1,222,223,224,-1,224,223,225,-1,224,225,226,-1,226,225,227,-1,226,227,228,-1,228,227,229,-1,228,229,230,-1,230,229,231,-1,230,231,216,-1,216,231,217,-1,216,218,230,-1,230,218,232,-1,230,232,228,-1,228,232,233,-1,228,233,226,-1,226,233,234,-1,226,234,224,-1,224,234,235,-1,224,235,222,-1,222,235,236,-1,222,236,220,-1,220,236,237,-1,218,219,232,-1,232,219,238,-1,232,238,233,-1,233,238,239,-1,233,239,234,-1,234,239,240,-1,234,240,235,-1,235,240,241,-1,235,241,236,-1,236,241,242,-1,236,242,237,-1,237,242,243,-1,221,243,242,-1,221,242,223,-1,223,242,241,-1,223,241,225,-1,225,241,240,-1,225,240,227,-1,227,240,239,-1,227,239,229,-1,229,239,238,-1,229,238,231,-1,231,238,219,-1,231,219,217,-1,244,221,245,-1,245,221,220,-1,245,220,246,-1,246,220,237,-1,246,237,247,-1,247,237,243,-1,243,221,247,-1,247,221,244,-1,244,245,248,-1,248,245,249,-1,248,249,250,-1,250,249,251,-1,250,251,252,-1,252,251,253,-1,252,253,254,-1,254,253,255,-1,254,255,256,-1,256,255,257,-1,256,257,258,-1,258,257,259,-1,260,259,257,-1,260,257,261,-1,261,257,255,-1,261,255,262,-1,262,255,253,-1,262,253,263,-1,263,253,251,-1,263,251,264,-1,264,251,249,-1,264,249,265,-1,265,249,245,-1,265,245,246,-1,266,260,267,-1,267,260,261,-1,267,261,268,-1,268,261,262,-1,268,262,269,-1,269,262,263,-1,269,263,270,-1,270,263,264,-1,270,264,271,-1,271,264,265,-1,271,265,247,-1,247,265,246,-1,247,244,271,-1,271,244,248,-1,271,248,270,-1,270,248,250,-1,270,250,269,-1,269,250,252,-1,269,252,268,-1,268,252,254,-1,268,254,267,-1,267,254,256,-1,267,256,266,-1,266,256,258,-1,212,258,213,-1,213,258,259,-1,213,259,215,-1,215,259,260,-1,215,260,214,-1,214,260,266,-1,266,258,214,-1,214,258,212,-1,272,273,274,-1,274,273,275,-1,276,277,278,-1,278,277,279,-1,280,281,282,-1,282,281,283,-1,273,284,275,-1,275,284,285,-1,275,285,278,-1,278,285,276,-1,284,273,286,-1,286,273,272,-1,277,287,279,-1,279,287,286,-1,279,286,274,-1,274,286,272,-1,277,276,287,-1,287,276,285,-1,288,289,290,-1,290,289,291,-1,290,291,292,-1,292,291,293,-1,292,293,294,-1,294,293,295,-1,294,295,296,-1,296,295,297,-1,296,297,298,-1,298,297,299,-1,298,299,284,-1,284,299,285,-1,284,286,298,-1,298,286,300,-1,298,300,296,-1,296,300,301,-1,296,301,294,-1,294,301,302,-1,294,302,292,-1,292,302,303,-1,292,303,290,-1,290,303,304,-1,290,304,288,-1,288,304,305,-1,286,287,300,-1,300,287,306,-1,300,306,301,-1,301,306,307,-1,301,307,302,-1,302,307,308,-1,302,308,303,-1,303,308,309,-1,303,309,304,-1,304,309,310,-1,304,310,305,-1,305,310,311,-1,289,311,310,-1,289,310,291,-1,291,310,309,-1,291,309,293,-1,293,309,308,-1,293,308,295,-1,295,308,307,-1,295,307,297,-1,297,307,306,-1,297,306,299,-1,299,306,287,-1,299,287,285,-1,312,289,313,-1,313,289,288,-1,313,288,314,-1,314,288,305,-1,314,305,315,-1,315,305,311,-1,311,289,315,-1,315,289,312,-1,312,313,316,-1,316,313,317,-1,316,317,318,-1,318,317,319,-1,318,319,320,-1,320,319,321,-1,320,321,322,-1,322,321,323,-1,322,323,324,-1,324,323,325,-1,324,325,326,-1,326,325,327,-1,328,327,325,-1,328,325,329,-1,329,325,323,-1,329,323,330,-1,330,323,321,-1,330,321,331,-1,331,321,319,-1,331,319,332,-1,332,319,317,-1,332,317,333,-1,333,317,313,-1,333,313,314,-1,334,328,335,-1,335,328,329,-1,335,329,336,-1,336,329,330,-1,336,330,337,-1,337,330,331,-1,337,331,338,-1,338,331,332,-1,338,332,339,-1,339,332,333,-1,339,333,315,-1,315,333,314,-1,315,312,339,-1,339,312,316,-1,339,316,338,-1,338,316,318,-1,338,318,337,-1,337,318,320,-1,337,320,336,-1,336,320,322,-1,336,322,335,-1,335,322,324,-1,335,324,334,-1,334,324,326,-1,280,326,281,-1,281,326,327,-1,281,327,283,-1,283,327,328,-1,283,328,282,-1,282,328,334,-1,334,326,282,-1,282,326,280,-1,340,341,342,-1,342,341,343,-1,344,345,346,-1,346,345,347,-1,348,349,350,-1,350,349,351,-1,341,352,343,-1,343,352,353,-1,343,353,346,-1,346,353,344,-1,352,341,354,-1,354,341,340,-1,345,355,347,-1,347,355,354,-1,347,354,342,-1,342,354,340,-1,345,344,355,-1,355,344,353,-1,356,357,358,-1,358,357,359,-1,358,359,360,-1,360,359,361,-1,360,361,362,-1,362,361,363,-1,362,363,364,-1,364,363,365,-1,364,365,366,-1,366,365,367,-1,366,367,352,-1,352,367,353,-1,352,354,366,-1,366,354,368,-1,366,368,364,-1,364,368,369,-1,364,369,362,-1,362,369,370,-1,362,370,360,-1,360,370,371,-1,360,371,358,-1,358,371,372,-1,358,372,356,-1,356,372,373,-1,354,355,368,-1,368,355,374,-1,368,374,369,-1,369,374,375,-1,369,375,370,-1,370,375,376,-1,370,376,371,-1,371,376,377,-1,371,377,372,-1,372,377,378,-1,372,378,373,-1,373,378,379,-1,357,379,378,-1,357,378,359,-1,359,378,377,-1,359,377,361,-1,361,377,376,-1,361,376,363,-1,363,376,375,-1,363,375,365,-1,365,375,374,-1,365,374,367,-1,367,374,355,-1,367,355,353,-1,380,357,381,-1,381,357,356,-1,381,356,382,-1,382,356,373,-1,382,373,383,-1,383,373,379,-1,379,357,383,-1,383,357,380,-1,380,381,384,-1,384,381,385,-1,384,385,386,-1,386,385,387,-1,386,387,388,-1,388,387,389,-1,388,389,390,-1,390,389,391,-1,390,391,392,-1,392,391,393,-1,392,393,394,-1,394,393,395,-1,396,395,393,-1,396,393,397,-1,397,393,391,-1,397,391,398,-1,398,391,389,-1,398,389,399,-1,399,389,387,-1,399,387,400,-1,400,387,385,-1,400,385,401,-1,401,385,381,-1,401,381,382,-1,402,396,403,-1,403,396,397,-1,403,397,404,-1,404,397,398,-1,404,398,405,-1,405,398,399,-1,405,399,406,-1,406,399,400,-1,406,400,407,-1,407,400,401,-1,407,401,383,-1,383,401,382,-1,383,380,407,-1,407,380,384,-1,407,384,406,-1,406,384,386,-1,406,386,405,-1,405,386,388,-1,405,388,404,-1,404,388,390,-1,404,390,403,-1,403,390,392,-1,403,392,402,-1,402,392,394,-1,348,394,349,-1,349,394,395,-1,349,395,351,-1,351,395,396,-1,351,396,350,-1,350,396,402,-1,402,394,350,-1,350,394,348,-1,408,409,410,-1,410,409,411,-1,412,413,414,-1,414,413,415,-1,416,417,418,-1,418,417,419,-1,409,420,411,-1,411,420,421,-1,411,421,414,-1,414,421,412,-1,420,409,422,-1,422,409,408,-1,413,423,415,-1,415,423,422,-1,415,422,410,-1,410,422,408,-1,413,412,423,-1,423,412,421,-1,424,425,426,-1,426,425,427,-1,426,427,428,-1,428,427,429,-1,428,429,430,-1,430,429,431,-1,430,431,432,-1,432,431,433,-1,432,433,434,-1,434,433,435,-1,434,435,420,-1,420,435,421,-1,420,422,434,-1,434,422,436,-1,434,436,432,-1,432,436,437,-1,432,437,430,-1,430,437,438,-1,430,438,428,-1,428,438,439,-1,428,439,426,-1,426,439,440,-1,426,440,424,-1,424,440,441,-1,422,423,436,-1,436,423,442,-1,436,442,437,-1,437,442,443,-1,437,443,438,-1,438,443,444,-1,438,444,439,-1,439,444,445,-1,439,445,440,-1,440,445,446,-1,440,446,441,-1,441,446,447,-1,425,447,446,-1,425,446,427,-1,427,446,445,-1,427,445,429,-1,429,445,444,-1,429,444,431,-1,431,444,443,-1,431,443,433,-1,433,443,442,-1,433,442,435,-1,435,442,423,-1,435,423,421,-1,448,425,449,-1,449,425,424,-1,449,424,450,-1,450,424,441,-1,450,441,451,-1,451,441,447,-1,447,425,451,-1,451,425,448,-1,448,449,452,-1,452,449,453,-1,452,453,454,-1,454,453,455,-1,454,455,456,-1,456,455,457,-1,456,457,458,-1,458,457,459,-1,458,459,460,-1,460,459,461,-1,460,461,462,-1,462,461,463,-1,464,463,461,-1,464,461,465,-1,465,461,459,-1,465,459,466,-1,466,459,457,-1,466,457,467,-1,467,457,455,-1,467,455,468,-1,468,455,453,-1,468,453,469,-1,469,453,449,-1,469,449,450,-1,470,464,471,-1,471,464,465,-1,471,465,472,-1,472,465,466,-1,472,466,473,-1,473,466,467,-1,473,467,474,-1,474,467,468,-1,474,468,475,-1,475,468,469,-1,475,469,451,-1,451,469,450,-1,451,448,475,-1,475,448,452,-1,475,452,474,-1,474,452,454,-1,474,454,473,-1,473,454,456,-1,473,456,472,-1,472,456,458,-1,472,458,471,-1,471,458,460,-1,471,460,470,-1,470,460,462,-1,416,462,417,-1,417,462,463,-1,417,463,419,-1,419,463,464,-1,419,464,418,-1,418,464,470,-1,470,462,418,-1,418,462,416,-1,476,477,478,-1,478,477,479,-1,480,481,482,-1,482,481,483,-1,484,485,486,-1,486,485,487,-1,477,488,479,-1,479,488,489,-1,479,489,482,-1,482,489,480,-1,488,477,490,-1,490,477,476,-1,481,491,483,-1,483,491,490,-1,483,490,478,-1,478,490,476,-1,481,480,491,-1,491,480,489,-1,492,493,494,-1,494,493,495,-1,494,495,496,-1,496,495,497,-1,496,497,498,-1,498,497,499,-1,498,499,500,-1,500,499,501,-1,500,501,502,-1,502,501,503,-1,502,503,488,-1,488,503,489,-1,488,490,502,-1,502,490,504,-1,502,504,500,-1,500,504,505,-1,500,505,498,-1,498,505,506,-1,498,506,496,-1,496,506,507,-1,496,507,494,-1,494,507,508,-1,494,508,492,-1,492,508,509,-1,490,491,504,-1,504,491,510,-1,504,510,505,-1,505,510,511,-1,505,511,506,-1,506,511,512,-1,506,512,507,-1,507,512,513,-1,507,513,508,-1,508,513,514,-1,508,514,509,-1,509,514,515,-1,493,515,514,-1,493,514,495,-1,495,514,513,-1,495,513,497,-1,497,513,512,-1,497,512,499,-1,499,512,511,-1,499,511,501,-1,501,511,510,-1,501,510,503,-1,503,510,491,-1,503,491,489,-1,516,493,517,-1,517,493,492,-1,517,492,518,-1,518,492,509,-1,518,509,519,-1,519,509,515,-1,515,493,519,-1,519,493,516,-1,516,517,520,-1,520,517,521,-1,520,521,522,-1,522,521,523,-1,522,523,524,-1,524,523,525,-1,524,525,526,-1,526,525,527,-1,526,527,528,-1,528,527,529,-1,528,529,530,-1,530,529,531,-1,532,531,529,-1,532,529,533,-1,533,529,527,-1,533,527,534,-1,534,527,525,-1,534,525,535,-1,535,525,523,-1,535,523,536,-1,536,523,521,-1,536,521,537,-1,537,521,517,-1,537,517,518,-1,538,532,539,-1,539,532,533,-1,539,533,540,-1,540,533,534,-1,540,534,541,-1,541,534,535,-1,541,535,542,-1,542,535,536,-1,542,536,543,-1,543,536,537,-1,543,537,519,-1,519,537,518,-1,519,516,543,-1,543,516,520,-1,543,520,542,-1,542,520,522,-1,542,522,541,-1,541,522,524,-1,541,524,540,-1,540,524,526,-1,540,526,539,-1,539,526,528,-1,539,528,538,-1,538,528,530,-1,484,530,485,-1,485,530,531,-1,485,531,487,-1,487,531,532,-1,487,532,486,-1,486,532,538,-1,538,530,486,-1,486,530,484,-1,544,545,546,-1,546,545,547,-1,548,549,550,-1,550,549,551,-1,552,553,554,-1,554,553,555,-1,545,556,547,-1,547,556,557,-1,547,557,550,-1,550,557,548,-1,556,545,558,-1,558,545,544,-1,549,559,551,-1,551,559,558,-1,551,558,546,-1,546,558,544,-1,549,548,559,-1,559,548,557,-1,560,561,562,-1,562,561,563,-1,562,563,564,-1,564,563,565,-1,564,565,566,-1,566,565,567,-1,566,567,568,-1,568,567,569,-1,568,569,570,-1,570,569,571,-1,570,571,556,-1,556,571,557,-1,556,558,570,-1,570,558,572,-1,570,572,568,-1,568,572,573,-1,568,573,566,-1,566,573,574,-1,566,574,564,-1,564,574,575,-1,564,575,562,-1,562,575,576,-1,562,576,560,-1,560,576,577,-1,558,559,572,-1,572,559,578,-1,572,578,573,-1,573,578,579,-1,573,579,574,-1,574,579,580,-1,574,580,575,-1,575,580,581,-1,575,581,576,-1,576,581,582,-1,576,582,577,-1,577,582,583,-1,561,583,582,-1,561,582,563,-1,563,582,581,-1,563,581,565,-1,565,581,580,-1,565,580,567,-1,567,580,579,-1,567,579,569,-1,569,579,578,-1,569,578,571,-1,571,578,559,-1,571,559,557,-1,584,561,585,-1,585,561,560,-1,585,560,586,-1,586,560,577,-1,586,577,587,-1,587,577,583,-1,583,561,587,-1,587,561,584,-1,584,585,588,-1,588,585,589,-1,588,589,590,-1,590,589,591,-1,590,591,592,-1,592,591,593,-1,592,593,594,-1,594,593,595,-1,594,595,596,-1,596,595,597,-1,596,597,598,-1,598,597,599,-1,600,599,597,-1,600,597,601,-1,601,597,595,-1,601,595,602,-1,602,595,593,-1,602,593,603,-1,603,593,591,-1,603,591,604,-1,604,591,589,-1,604,589,605,-1,605,589,585,-1,605,585,586,-1,606,600,607,-1,607,600,601,-1,607,601,608,-1,608,601,602,-1,608,602,609,-1,609,602,603,-1,609,603,610,-1,610,603,604,-1,610,604,611,-1,611,604,605,-1,611,605,587,-1,587,605,586,-1,587,584,611,-1,611,584,588,-1,611,588,610,-1,610,588,590,-1,610,590,609,-1,609,590,592,-1,609,592,608,-1,608,592,594,-1,608,594,607,-1,607,594,596,-1,607,596,606,-1,606,596,598,-1,552,598,553,-1,553,598,599,-1,553,599,555,-1,555,599,600,-1,555,600,554,-1,554,600,606,-1,606,598,554,-1,554,598,552,-1,612,613,614,-1,614,613,615,-1,616,617,618,-1,618,617,619,-1,620,621,622,-1,622,621,623,-1,613,624,615,-1,615,624,625,-1,615,625,618,-1,618,625,616,-1,624,613,626,-1,626,613,612,-1,617,627,619,-1,619,627,626,-1,619,626,614,-1,614,626,612,-1,617,616,627,-1,627,616,625,-1,628,629,630,-1,630,629,631,-1,630,631,632,-1,632,631,633,-1,632,633,634,-1,634,633,635,-1,634,635,636,-1,636,635,637,-1,636,637,638,-1,638,637,639,-1,638,639,624,-1,624,639,625,-1,624,626,638,-1,638,626,640,-1,638,640,636,-1,636,640,641,-1,636,641,634,-1,634,641,642,-1,634,642,632,-1,632,642,643,-1,632,643,630,-1,630,643,644,-1,630,644,628,-1,628,644,645,-1,626,627,640,-1,640,627,646,-1,640,646,641,-1,641,646,647,-1,641,647,642,-1,642,647,648,-1,642,648,643,-1,643,648,649,-1,643,649,644,-1,644,649,650,-1,644,650,645,-1,645,650,651,-1,629,651,650,-1,629,650,631,-1,631,650,649,-1,631,649,633,-1,633,649,648,-1,633,648,635,-1,635,648,647,-1,635,647,637,-1,637,647,646,-1,637,646,639,-1,639,646,627,-1,639,627,625,-1,652,629,653,-1,653,629,628,-1,653,628,654,-1,654,628,645,-1,654,645,655,-1,655,645,651,-1,651,629,655,-1,655,629,652,-1,652,653,656,-1,656,653,657,-1,656,657,658,-1,658,657,659,-1,658,659,660,-1,660,659,661,-1,660,661,662,-1,662,661,663,-1,662,663,664,-1,664,663,665,-1,664,665,666,-1,666,665,667,-1,668,667,665,-1,668,665,669,-1,669,665,663,-1,669,663,670,-1,670,663,661,-1,670,661,671,-1,671,661,659,-1,671,659,672,-1,672,659,657,-1,672,657,673,-1,673,657,653,-1,673,653,654,-1,674,668,675,-1,675,668,669,-1,675,669,676,-1,676,669,670,-1,676,670,677,-1,677,670,671,-1,677,671,678,-1,678,671,672,-1,678,672,679,-1,679,672,673,-1,679,673,655,-1,655,673,654,-1,655,652,679,-1,679,652,656,-1,679,656,678,-1,678,656,658,-1,678,658,677,-1,677,658,660,-1,677,660,676,-1,676,660,662,-1,676,662,675,-1,675,662,664,-1,675,664,674,-1,674,664,666,-1,620,666,621,-1,621,666,667,-1,621,667,623,-1,623,667,668,-1,623,668,622,-1,622,668,674,-1,674,666,622,-1,622,666,620,-1,680,681,682,-1,682,681,683,-1,684,685,686,-1,686,685,687,-1,688,689,690,-1,690,689,691,-1,683,692,682,-1,682,692,693,-1,682,693,684,-1,684,693,685,-1,692,683,694,-1,694,683,681,-1,687,695,686,-1,686,695,694,-1,686,694,680,-1,680,694,681,-1,687,685,695,-1,695,685,693,-1,696,697,698,-1,698,697,699,-1,698,699,700,-1,700,699,701,-1,700,701,702,-1,702,701,703,-1,702,703,704,-1,704,703,705,-1,704,705,706,-1,706,705,707,-1,706,707,692,-1,692,707,693,-1,692,694,706,-1,706,694,708,-1,706,708,704,-1,704,708,709,-1,704,709,702,-1,702,709,710,-1,702,710,700,-1,700,710,711,-1,700,711,698,-1,698,711,712,-1,698,712,696,-1,696,712,713,-1,694,695,708,-1,708,695,714,-1,708,714,709,-1,709,714,715,-1,709,715,710,-1,710,715,716,-1,710,716,711,-1,711,716,717,-1,711,717,712,-1,712,717,718,-1,712,718,713,-1,713,718,719,-1,697,719,718,-1,697,718,699,-1,699,718,717,-1,699,717,701,-1,701,717,716,-1,701,716,703,-1,703,716,715,-1,703,715,705,-1,705,715,714,-1,705,714,707,-1,707,714,695,-1,707,695,693,-1,720,697,721,-1,721,697,696,-1,721,696,722,-1,722,696,713,-1,722,713,723,-1,723,713,719,-1,719,697,723,-1,723,697,720,-1,720,721,724,-1,724,721,725,-1,724,725,726,-1,726,725,727,-1,726,727,728,-1,728,727,729,-1,728,729,730,-1,730,729,731,-1,730,731,732,-1,732,731,733,-1,732,733,734,-1,734,733,735,-1,736,735,733,-1,736,733,737,-1,737,733,731,-1,737,731,738,-1,738,731,729,-1,738,729,739,-1,739,729,727,-1,739,727,740,-1,740,727,725,-1,740,725,741,-1,741,725,721,-1,741,721,722,-1,742,736,743,-1,743,736,737,-1,743,737,744,-1,744,737,738,-1,744,738,745,-1,745,738,739,-1,745,739,746,-1,746,739,740,-1,746,740,747,-1,747,740,741,-1,747,741,723,-1,723,741,722,-1,723,720,747,-1,747,720,724,-1,747,724,746,-1,746,724,726,-1,746,726,745,-1,745,726,728,-1,745,728,744,-1,744,728,730,-1,744,730,743,-1,743,730,732,-1,743,732,742,-1,742,732,734,-1,691,734,690,-1,690,734,735,-1,690,735,688,-1,688,735,736,-1,688,736,689,-1,689,736,742,-1,742,734,689,-1,689,734,691,-1,748,749,750,-1,750,749,751,-1,752,753,754,-1,754,753,755,-1,756,757,758,-1,758,757,759,-1,749,760,751,-1,751,760,761,-1,751,761,754,-1,754,761,752,-1,760,749,762,-1,762,749,748,-1,753,763,755,-1,755,763,762,-1,755,762,750,-1,750,762,748,-1,753,752,763,-1,763,752,761,-1,764,765,766,-1,766,765,767,-1,766,767,768,-1,768,767,769,-1,768,769,770,-1,770,769,771,-1,770,771,772,-1,772,771,773,-1,772,773,774,-1,774,773,775,-1,774,775,760,-1,760,775,761,-1,760,762,774,-1,774,762,776,-1,774,776,772,-1,772,776,777,-1,772,777,770,-1,770,777,778,-1,770,778,768,-1,768,778,779,-1,768,779,766,-1,766,779,780,-1,766,780,764,-1,764,780,781,-1,762,763,776,-1,776,763,782,-1,776,782,777,-1,777,782,783,-1,777,783,778,-1,778,783,784,-1,778,784,779,-1,779,784,785,-1,779,785,780,-1,780,785,786,-1,780,786,781,-1,781,786,787,-1,765,787,786,-1,765,786,767,-1,767,786,785,-1,767,785,769,-1,769,785,784,-1,769,784,771,-1,771,784,783,-1,771,783,773,-1,773,783,782,-1,773,782,775,-1,775,782,763,-1,775,763,761,-1,788,765,789,-1,789,765,764,-1,789,764,790,-1,790,764,781,-1,790,781,791,-1,791,781,787,-1,787,765,791,-1,791,765,788,-1,788,789,792,-1,792,789,793,-1,792,793,794,-1,794,793,795,-1,794,795,796,-1,796,795,797,-1,796,797,798,-1,798,797,799,-1,798,799,800,-1,800,799,801,-1,800,801,802,-1,802,801,803,-1,804,803,801,-1,804,801,805,-1,805,801,799,-1,805,799,806,-1,806,799,797,-1,806,797,807,-1,807,797,795,-1,807,795,808,-1,808,795,793,-1,808,793,809,-1,809,793,789,-1,809,789,790,-1,810,804,811,-1,811,804,805,-1,811,805,812,-1,812,805,806,-1,812,806,813,-1,813,806,807,-1,813,807,814,-1,814,807,808,-1,814,808,815,-1,815,808,809,-1,815,809,791,-1,791,809,790,-1,791,788,815,-1,815,788,792,-1,815,792,814,-1,814,792,794,-1,814,794,813,-1,813,794,796,-1,813,796,812,-1,812,796,798,-1,812,798,811,-1,811,798,800,-1,811,800,810,-1,810,800,802,-1,759,802,758,-1,758,802,803,-1,758,803,756,-1,756,803,804,-1,756,804,757,-1,757,804,810,-1,810,802,757,-1,757,802,759,-1,816,817,818,-1,818,817,819,-1,820,821,822,-1,822,821,823,-1,824,825,826,-1,826,825,827,-1,817,828,819,-1,819,828,829,-1,819,829,822,-1,822,829,820,-1,828,817,830,-1,830,817,816,-1,821,831,823,-1,823,831,830,-1,823,830,818,-1,818,830,816,-1,821,820,831,-1,831,820,829,-1,832,833,834,-1,834,833,835,-1,834,835,836,-1,836,835,837,-1,836,837,838,-1,838,837,839,-1,838,839,840,-1,840,839,841,-1,840,841,842,-1,842,841,843,-1,842,843,828,-1,828,843,829,-1,828,830,842,-1,842,830,844,-1,842,844,840,-1,840,844,845,-1,840,845,838,-1,838,845,846,-1,838,846,836,-1,836,846,847,-1,836,847,834,-1,834,847,848,-1,834,848,832,-1,832,848,849,-1,830,831,844,-1,844,831,850,-1,844,850,845,-1,845,850,851,-1,845,851,846,-1,846,851,852,-1,846,852,847,-1,847,852,853,-1,847,853,848,-1,848,853,854,-1,848,854,849,-1,849,854,855,-1,833,855,854,-1,833,854,835,-1,835,854,853,-1,835,853,837,-1,837,853,852,-1,837,852,839,-1,839,852,851,-1,839,851,841,-1,841,851,850,-1,841,850,843,-1,843,850,831,-1,843,831,829,-1,856,833,857,-1,857,833,832,-1,857,832,858,-1,858,832,849,-1,858,849,859,-1,859,849,855,-1,855,833,859,-1,859,833,856,-1,856,857,860,-1,860,857,861,-1,860,861,862,-1,862,861,863,-1,862,863,864,-1,864,863,865,-1,864,865,866,-1,866,865,867,-1,866,867,868,-1,868,867,869,-1,868,869,870,-1,870,869,871,-1,872,871,869,-1,872,869,873,-1,873,869,867,-1,873,867,874,-1,874,867,865,-1,874,865,875,-1,875,865,863,-1,875,863,876,-1,876,863,861,-1,876,861,877,-1,877,861,857,-1,877,857,858,-1,878,872,879,-1,879,872,873,-1,879,873,880,-1,880,873,874,-1,880,874,881,-1,881,874,875,-1,881,875,882,-1,882,875,876,-1,882,876,883,-1,883,876,877,-1,883,877,859,-1,859,877,858,-1,859,856,883,-1,883,856,860,-1,883,860,882,-1,882,860,862,-1,882,862,881,-1,881,862,864,-1,881,864,880,-1,880,864,866,-1,880,866,879,-1,879,866,868,-1,879,868,878,-1,878,868,870,-1,827,870,826,-1,826,870,871,-1,826,871,824,-1,824,871,872,-1,824,872,825,-1,825,872,878,-1,878,870,825,-1,825,870,827,-1,884,885,886,-1,886,885,887,-1,888,889,890,-1,890,889,891,-1,892,893,894,-1,894,893,895,-1,885,896,887,-1,887,896,897,-1,887,897,890,-1,890,897,888,-1,896,885,898,-1,898,885,884,-1,889,899,891,-1,891,899,898,-1,891,898,886,-1,886,898,884,-1,889,888,899,-1,899,888,897,-1,900,901,902,-1,902,901,903,-1,902,903,904,-1,904,903,905,-1,904,905,906,-1,906,905,907,-1,906,907,908,-1,908,907,909,-1,908,909,910,-1,910,909,911,-1,910,911,896,-1,896,911,897,-1,896,898,910,-1,910,898,912,-1,910,912,908,-1,908,912,913,-1,908,913,906,-1,906,913,914,-1,906,914,904,-1,904,914,915,-1,904,915,902,-1,902,915,916,-1,902,916,900,-1,900,916,917,-1,898,899,912,-1,912,899,918,-1,912,918,913,-1,913,918,919,-1,913,919,914,-1,914,919,920,-1,914,920,915,-1,915,920,921,-1,915,921,916,-1,916,921,922,-1,916,922,917,-1,917,922,923,-1,901,923,922,-1,901,922,903,-1,903,922,921,-1,903,921,905,-1,905,921,920,-1,905,920,907,-1,907,920,919,-1,907,919,909,-1,909,919,918,-1,909,918,911,-1,911,918,899,-1,911,899,897,-1,924,901,925,-1,925,901,900,-1,925,900,926,-1,926,900,917,-1,926,917,927,-1,927,917,923,-1,923,901,927,-1,927,901,924,-1,924,925,928,-1,928,925,929,-1,928,929,930,-1,930,929,931,-1,930,931,932,-1,932,931,933,-1,932,933,934,-1,934,933,935,-1,934,935,936,-1,936,935,937,-1,936,937,938,-1,938,937,939,-1,940,939,937,-1,940,937,941,-1,941,937,935,-1,941,935,942,-1,942,935,933,-1,942,933,943,-1,943,933,931,-1,943,931,944,-1,944,931,929,-1,944,929,945,-1,945,929,925,-1,945,925,926,-1,946,940,947,-1,947,940,941,-1,947,941,948,-1,948,941,942,-1,948,942,949,-1,949,942,943,-1,949,943,950,-1,950,943,944,-1,950,944,951,-1,951,944,945,-1,951,945,927,-1,927,945,926,-1,927,924,951,-1,951,924,928,-1,951,928,950,-1,950,928,930,-1,950,930,949,-1,949,930,932,-1,949,932,948,-1,948,932,934,-1,948,934,947,-1,947,934,936,-1,947,936,946,-1,946,936,938,-1,895,938,894,-1,894,938,939,-1,894,939,892,-1,892,939,940,-1,892,940,893,-1,893,940,946,-1,946,938,893,-1,893,938,895,-1,952,953,954,-1,954,953,955,-1,956,957,958,-1,958,957,959,-1,960,961,962,-1,962,961,963,-1,953,964,955,-1,955,964,965,-1,955,965,958,-1,958,965,956,-1,964,953,966,-1,966,953,952,-1,957,967,959,-1,959,967,966,-1,959,966,954,-1,954,966,952,-1,957,956,967,-1,967,956,965,-1,968,969,970,-1,970,969,971,-1,970,971,972,-1,972,971,973,-1,972,973,974,-1,974,973,975,-1,974,975,976,-1,976,975,977,-1,976,977,978,-1,978,977,979,-1,978,979,964,-1,964,979,965,-1,964,966,978,-1,978,966,980,-1,978,980,976,-1,976,980,981,-1,976,981,974,-1,974,981,982,-1,974,982,972,-1,972,982,983,-1,972,983,970,-1,970,983,984,-1,970,984,968,-1,968,984,985,-1,966,967,980,-1,980,967,986,-1,980,986,981,-1,981,986,987,-1,981,987,982,-1,982,987,988,-1,982,988,983,-1,983,988,989,-1,983,989,984,-1,984,989,990,-1,984,990,985,-1,985,990,991,-1,969,991,990,-1,969,990,971,-1,971,990,989,-1,971,989,973,-1,973,989,988,-1,973,988,975,-1,975,988,987,-1,975,987,977,-1,977,987,986,-1,977,986,979,-1,979,986,967,-1,979,967,965,-1,992,969,993,-1,993,969,968,-1,993,968,994,-1,994,968,985,-1,994,985,995,-1,995,985,991,-1,991,969,995,-1,995,969,992,-1,992,993,996,-1,996,993,997,-1,996,997,998,-1,998,997,999,-1,998,999,1000,-1,1000,999,1001,-1,1000,1001,1002,-1,1002,1001,1003,-1,1002,1003,1004,-1,1004,1003,1005,-1,1004,1005,1006,-1,1006,1005,1007,-1,1008,1007,1005,-1,1008,1005,1009,-1,1009,1005,1003,-1,1009,1003,1010,-1,1010,1003,1001,-1,1010,1001,1011,-1,1011,1001,999,-1,1011,999,1012,-1,1012,999,997,-1,1012,997,1013,-1,1013,997,993,-1,1013,993,994,-1,1014,1008,1015,-1,1015,1008,1009,-1,1015,1009,1016,-1,1016,1009,1010,-1,1016,1010,1017,-1,1017,1010,1011,-1,1017,1011,1018,-1,1018,1011,1012,-1,1018,1012,1019,-1,1019,1012,1013,-1,1019,1013,995,-1,995,1013,994,-1,995,992,1019,-1,1019,992,996,-1,1019,996,1018,-1,1018,996,998,-1,1018,998,1017,-1,1017,998,1000,-1,1017,1000,1016,-1,1016,1000,1002,-1,1016,1002,1015,-1,1015,1002,1004,-1,1015,1004,1014,-1,1014,1004,1006,-1,963,1006,962,-1,962,1006,1007,-1,962,1007,960,-1,960,1007,1008,-1,960,1008,961,-1,961,1008,1014,-1,1014,1006,961,-1,961,1006,963,-1,1020,1021,1022,-1,1022,1021,1023,-1,1024,1025,1026,-1,1026,1025,1027,-1,1028,1029,1030,-1,1030,1029,1031,-1,1021,1032,1023,-1,1023,1032,1033,-1,1023,1033,1026,-1,1026,1033,1024,-1,1032,1021,1034,-1,1034,1021,1020,-1,1025,1035,1027,-1,1027,1035,1034,-1,1027,1034,1022,-1,1022,1034,1020,-1,1025,1024,1035,-1,1035,1024,1033,-1,1036,1037,1038,-1,1038,1037,1039,-1,1038,1039,1040,-1,1040,1039,1041,-1,1040,1041,1042,-1,1042,1041,1043,-1,1042,1043,1044,-1,1044,1043,1045,-1,1044,1045,1046,-1,1046,1045,1047,-1,1046,1047,1032,-1,1032,1047,1033,-1,1032,1034,1046,-1,1046,1034,1048,-1,1046,1048,1044,-1,1044,1048,1049,-1,1044,1049,1042,-1,1042,1049,1050,-1,1042,1050,1040,-1,1040,1050,1051,-1,1040,1051,1038,-1,1038,1051,1052,-1,1038,1052,1036,-1,1036,1052,1053,-1,1034,1035,1048,-1,1048,1035,1054,-1,1048,1054,1049,-1,1049,1054,1055,-1,1049,1055,1050,-1,1050,1055,1056,-1,1050,1056,1051,-1,1051,1056,1057,-1,1051,1057,1052,-1,1052,1057,1058,-1,1052,1058,1053,-1,1053,1058,1059,-1,1037,1059,1058,-1,1037,1058,1039,-1,1039,1058,1057,-1,1039,1057,1041,-1,1041,1057,1056,-1,1041,1056,1043,-1,1043,1056,1055,-1,1043,1055,1045,-1,1045,1055,1054,-1,1045,1054,1047,-1,1047,1054,1035,-1,1047,1035,1033,-1,1060,1037,1061,-1,1061,1037,1036,-1,1061,1036,1062,-1,1062,1036,1053,-1,1062,1053,1063,-1,1063,1053,1059,-1,1059,1037,1063,-1,1063,1037,1060,-1,1060,1061,1064,-1,1064,1061,1065,-1,1064,1065,1066,-1,1066,1065,1067,-1,1066,1067,1068,-1,1068,1067,1069,-1,1068,1069,1070,-1,1070,1069,1071,-1,1070,1071,1072,-1,1072,1071,1073,-1,1072,1073,1074,-1,1074,1073,1075,-1,1076,1075,1073,-1,1076,1073,1077,-1,1077,1073,1071,-1,1077,1071,1078,-1,1078,1071,1069,-1,1078,1069,1079,-1,1079,1069,1067,-1,1079,1067,1080,-1,1080,1067,1065,-1,1080,1065,1081,-1,1081,1065,1061,-1,1081,1061,1062,-1,1082,1076,1083,-1,1083,1076,1077,-1,1083,1077,1084,-1,1084,1077,1078,-1,1084,1078,1085,-1,1085,1078,1079,-1,1085,1079,1086,-1,1086,1079,1080,-1,1086,1080,1087,-1,1087,1080,1081,-1,1087,1081,1063,-1,1063,1081,1062,-1,1063,1060,1087,-1,1087,1060,1064,-1,1087,1064,1086,-1,1086,1064,1066,-1,1086,1066,1085,-1,1085,1066,1068,-1,1085,1068,1084,-1,1084,1068,1070,-1,1084,1070,1083,-1,1083,1070,1072,-1,1083,1072,1082,-1,1082,1072,1074,-1,1031,1074,1030,-1,1030,1074,1075,-1,1030,1075,1028,-1,1028,1075,1076,-1,1028,1076,1029,-1,1029,1076,1082,-1,1082,1074,1029,-1,1029,1074,1031,-1,1088,1089,1090,-1,1090,1089,1091,-1,1092,1093,1094,-1,1094,1093,1095,-1,1096,1097,1098,-1,1098,1097,1099,-1,1089,1100,1091,-1,1091,1100,1101,-1,1091,1101,1094,-1,1094,1101,1092,-1,1100,1089,1102,-1,1102,1089,1088,-1,1093,1103,1095,-1,1095,1103,1102,-1,1095,1102,1090,-1,1090,1102,1088,-1,1093,1092,1103,-1,1103,1092,1101,-1,1104,1105,1106,-1,1106,1105,1107,-1,1106,1107,1108,-1,1108,1107,1109,-1,1108,1109,1110,-1,1110,1109,1111,-1,1110,1111,1112,-1,1112,1111,1113,-1,1112,1113,1114,-1,1114,1113,1115,-1,1114,1115,1100,-1,1100,1115,1101,-1,1100,1102,1114,-1,1114,1102,1116,-1,1114,1116,1112,-1,1112,1116,1117,-1,1112,1117,1110,-1,1110,1117,1118,-1,1110,1118,1108,-1,1108,1118,1119,-1,1108,1119,1106,-1,1106,1119,1120,-1,1106,1120,1104,-1,1104,1120,1121,-1,1102,1103,1116,-1,1116,1103,1122,-1,1116,1122,1117,-1,1117,1122,1123,-1,1117,1123,1118,-1,1118,1123,1124,-1,1118,1124,1119,-1,1119,1124,1125,-1,1119,1125,1120,-1,1120,1125,1126,-1,1120,1126,1121,-1,1121,1126,1127,-1,1105,1127,1126,-1,1105,1126,1107,-1,1107,1126,1125,-1,1107,1125,1109,-1,1109,1125,1124,-1,1109,1124,1111,-1,1111,1124,1123,-1,1111,1123,1113,-1,1113,1123,1122,-1,1113,1122,1115,-1,1115,1122,1103,-1,1115,1103,1101,-1,1128,1105,1129,-1,1129,1105,1104,-1,1129,1104,1130,-1,1130,1104,1121,-1,1130,1121,1131,-1,1131,1121,1127,-1,1127,1105,1131,-1,1131,1105,1128,-1,1128,1129,1132,-1,1132,1129,1133,-1,1132,1133,1134,-1,1134,1133,1135,-1,1134,1135,1136,-1,1136,1135,1137,-1,1136,1137,1138,-1,1138,1137,1139,-1,1138,1139,1140,-1,1140,1139,1141,-1,1140,1141,1142,-1,1142,1141,1143,-1,1144,1143,1141,-1,1144,1141,1145,-1,1145,1141,1139,-1,1145,1139,1146,-1,1146,1139,1137,-1,1146,1137,1147,-1,1147,1137,1135,-1,1147,1135,1148,-1,1148,1135,1133,-1,1148,1133,1149,-1,1149,1133,1129,-1,1149,1129,1130,-1,1150,1144,1151,-1,1151,1144,1145,-1,1151,1145,1152,-1,1152,1145,1146,-1,1152,1146,1153,-1,1153,1146,1147,-1,1153,1147,1154,-1,1154,1147,1148,-1,1154,1148,1155,-1,1155,1148,1149,-1,1155,1149,1131,-1,1131,1149,1130,-1,1131,1128,1155,-1,1155,1128,1132,-1,1155,1132,1154,-1,1154,1132,1134,-1,1154,1134,1153,-1,1153,1134,1136,-1,1153,1136,1152,-1,1152,1136,1138,-1,1152,1138,1151,-1,1151,1138,1140,-1,1151,1140,1150,-1,1150,1140,1142,-1,1099,1142,1098,-1,1098,1142,1143,-1,1098,1143,1096,-1,1096,1143,1144,-1,1096,1144,1097,-1,1097,1144,1150,-1,1150,1142,1097,-1,1097,1142,1099,-1,1156,1157,1158,-1,1158,1157,1159,-1,1160,1161,1162,-1,1162,1161,1163,-1,1164,1165,1166,-1,1166,1165,1167,-1,1157,1168,1159,-1,1159,1168,1169,-1,1159,1169,1162,-1,1162,1169,1160,-1,1168,1157,1170,-1,1170,1157,1156,-1,1161,1171,1163,-1,1163,1171,1170,-1,1163,1170,1158,-1,1158,1170,1156,-1,1161,1160,1171,-1,1171,1160,1169,-1,1172,1173,1174,-1,1174,1173,1175,-1,1174,1175,1176,-1,1176,1175,1177,-1,1176,1177,1178,-1,1178,1177,1179,-1,1178,1179,1180,-1,1180,1179,1181,-1,1180,1181,1182,-1,1182,1181,1183,-1,1182,1183,1168,-1,1168,1183,1169,-1,1168,1170,1182,-1,1182,1170,1184,-1,1182,1184,1180,-1,1180,1184,1185,-1,1180,1185,1178,-1,1178,1185,1186,-1,1178,1186,1176,-1,1176,1186,1187,-1,1176,1187,1174,-1,1174,1187,1188,-1,1174,1188,1172,-1,1172,1188,1189,-1,1170,1171,1184,-1,1184,1171,1190,-1,1184,1190,1185,-1,1185,1190,1191,-1,1185,1191,1186,-1,1186,1191,1192,-1,1186,1192,1187,-1,1187,1192,1193,-1,1187,1193,1188,-1,1188,1193,1194,-1,1188,1194,1189,-1,1189,1194,1195,-1,1173,1195,1194,-1,1173,1194,1175,-1,1175,1194,1193,-1,1175,1193,1177,-1,1177,1193,1192,-1,1177,1192,1179,-1,1179,1192,1191,-1,1179,1191,1181,-1,1181,1191,1190,-1,1181,1190,1183,-1,1183,1190,1171,-1,1183,1171,1169,-1,1196,1173,1197,-1,1197,1173,1172,-1,1197,1172,1198,-1,1198,1172,1189,-1,1198,1189,1199,-1,1199,1189,1195,-1,1195,1173,1199,-1,1199,1173,1196,-1,1196,1197,1200,-1,1200,1197,1201,-1,1200,1201,1202,-1,1202,1201,1203,-1,1202,1203,1204,-1,1204,1203,1205,-1,1204,1205,1206,-1,1206,1205,1207,-1,1206,1207,1208,-1,1208,1207,1209,-1,1208,1209,1210,-1,1210,1209,1211,-1,1212,1211,1209,-1,1212,1209,1213,-1,1213,1209,1207,-1,1213,1207,1214,-1,1214,1207,1205,-1,1214,1205,1215,-1,1215,1205,1203,-1,1215,1203,1216,-1,1216,1203,1201,-1,1216,1201,1217,-1,1217,1201,1197,-1,1217,1197,1198,-1,1218,1212,1219,-1,1219,1212,1213,-1,1219,1213,1220,-1,1220,1213,1214,-1,1220,1214,1221,-1,1221,1214,1215,-1,1221,1215,1222,-1,1222,1215,1216,-1,1222,1216,1223,-1,1223,1216,1217,-1,1223,1217,1199,-1,1199,1217,1198,-1,1199,1196,1223,-1,1223,1196,1200,-1,1223,1200,1222,-1,1222,1200,1202,-1,1222,1202,1221,-1,1221,1202,1204,-1,1221,1204,1220,-1,1220,1204,1206,-1,1220,1206,1219,-1,1219,1206,1208,-1,1219,1208,1218,-1,1218,1208,1210,-1,1167,1210,1166,-1,1166,1210,1211,-1,1166,1211,1164,-1,1164,1211,1212,-1,1164,1212,1165,-1,1165,1212,1218,-1,1218,1210,1165,-1,1165,1210,1167,-1,1224,1225,1226,-1,1226,1225,1227,-1,1228,1229,1230,-1,1230,1229,1231,-1,1232,1233,1234,-1,1234,1233,1235,-1,1225,1236,1227,-1,1227,1236,1237,-1,1227,1237,1230,-1,1230,1237,1228,-1,1236,1225,1238,-1,1238,1225,1224,-1,1229,1239,1231,-1,1231,1239,1238,-1,1231,1238,1226,-1,1226,1238,1224,-1,1229,1228,1239,-1,1239,1228,1237,-1,1240,1241,1242,-1,1242,1241,1243,-1,1242,1243,1244,-1,1244,1243,1245,-1,1244,1245,1246,-1,1246,1245,1247,-1,1246,1247,1248,-1,1248,1247,1249,-1,1248,1249,1250,-1,1250,1249,1251,-1,1250,1251,1236,-1,1236,1251,1237,-1,1236,1238,1250,-1,1250,1238,1252,-1,1250,1252,1248,-1,1248,1252,1253,-1,1248,1253,1246,-1,1246,1253,1254,-1,1246,1254,1244,-1,1244,1254,1255,-1,1244,1255,1242,-1,1242,1255,1256,-1,1242,1256,1240,-1,1240,1256,1257,-1,1238,1239,1252,-1,1252,1239,1258,-1,1252,1258,1253,-1,1253,1258,1259,-1,1253,1259,1254,-1,1254,1259,1260,-1,1254,1260,1255,-1,1255,1260,1261,-1,1255,1261,1256,-1,1256,1261,1262,-1,1256,1262,1257,-1,1257,1262,1263,-1,1241,1263,1262,-1,1241,1262,1243,-1,1243,1262,1261,-1,1243,1261,1245,-1,1245,1261,1260,-1,1245,1260,1247,-1,1247,1260,1259,-1,1247,1259,1249,-1,1249,1259,1258,-1,1249,1258,1251,-1,1251,1258,1239,-1,1251,1239,1237,-1,1264,1241,1265,-1,1265,1241,1240,-1,1265,1240,1266,-1,1266,1240,1257,-1,1266,1257,1267,-1,1267,1257,1263,-1,1263,1241,1267,-1,1267,1241,1264,-1,1264,1265,1268,-1,1268,1265,1269,-1,1268,1269,1270,-1,1270,1269,1271,-1,1270,1271,1272,-1,1272,1271,1273,-1,1272,1273,1274,-1,1274,1273,1275,-1,1274,1275,1276,-1,1276,1275,1277,-1,1276,1277,1278,-1,1278,1277,1279,-1,1280,1279,1277,-1,1280,1277,1281,-1,1281,1277,1275,-1,1281,1275,1282,-1,1282,1275,1273,-1,1282,1273,1283,-1,1283,1273,1271,-1,1283,1271,1284,-1,1284,1271,1269,-1,1284,1269,1285,-1,1285,1269,1265,-1,1285,1265,1266,-1,1286,1280,1287,-1,1287,1280,1281,-1,1287,1281,1288,-1,1288,1281,1282,-1,1288,1282,1289,-1,1289,1282,1283,-1,1289,1283,1290,-1,1290,1283,1284,-1,1290,1284,1291,-1,1291,1284,1285,-1,1291,1285,1267,-1,1267,1285,1266,-1,1267,1264,1291,-1,1291,1264,1268,-1,1291,1268,1290,-1,1290,1268,1270,-1,1290,1270,1289,-1,1289,1270,1272,-1,1289,1272,1288,-1,1288,1272,1274,-1,1288,1274,1287,-1,1287,1274,1276,-1,1287,1276,1286,-1,1286,1276,1278,-1,1235,1278,1234,-1,1234,1278,1279,-1,1234,1279,1232,-1,1232,1279,1280,-1,1232,1280,1233,-1,1233,1280,1286,-1,1286,1278,1233,-1,1233,1278,1235,-1,1292,1293,1294,-1,1294,1293,1295,-1,1296,1297,1298,-1,1298,1297,1299,-1,1300,1301,1302,-1,1302,1301,1303,-1,1293,1304,1295,-1,1295,1304,1305,-1,1295,1305,1298,-1,1298,1305,1296,-1,1304,1293,1306,-1,1306,1293,1292,-1,1297,1307,1299,-1,1299,1307,1306,-1,1299,1306,1294,-1,1294,1306,1292,-1,1297,1296,1307,-1,1307,1296,1305,-1,1308,1309,1310,-1,1310,1309,1311,-1,1310,1311,1312,-1,1312,1311,1313,-1,1312,1313,1314,-1,1314,1313,1315,-1,1314,1315,1316,-1,1316,1315,1317,-1,1316,1317,1318,-1,1318,1317,1319,-1,1318,1319,1304,-1,1304,1319,1305,-1,1304,1306,1318,-1,1318,1306,1320,-1,1318,1320,1316,-1,1316,1320,1321,-1,1316,1321,1314,-1,1314,1321,1322,-1,1314,1322,1312,-1,1312,1322,1323,-1,1312,1323,1310,-1,1310,1323,1324,-1,1310,1324,1308,-1,1308,1324,1325,-1,1306,1307,1320,-1,1320,1307,1326,-1,1320,1326,1321,-1,1321,1326,1327,-1,1321,1327,1322,-1,1322,1327,1328,-1,1322,1328,1323,-1,1323,1328,1329,-1,1323,1329,1324,-1,1324,1329,1330,-1,1324,1330,1325,-1,1325,1330,1331,-1,1309,1331,1330,-1,1309,1330,1311,-1,1311,1330,1329,-1,1311,1329,1313,-1,1313,1329,1328,-1,1313,1328,1315,-1,1315,1328,1327,-1,1315,1327,1317,-1,1317,1327,1326,-1,1317,1326,1319,-1,1319,1326,1307,-1,1319,1307,1305,-1,1332,1309,1333,-1,1333,1309,1308,-1,1333,1308,1334,-1,1334,1308,1325,-1,1334,1325,1335,-1,1335,1325,1331,-1,1331,1309,1335,-1,1335,1309,1332,-1,1332,1333,1336,-1,1336,1333,1337,-1,1336,1337,1338,-1,1338,1337,1339,-1,1338,1339,1340,-1,1340,1339,1341,-1,1340,1341,1342,-1,1342,1341,1343,-1,1342,1343,1344,-1,1344,1343,1345,-1,1344,1345,1346,-1,1346,1345,1347,-1,1348,1347,1345,-1,1348,1345,1349,-1,1349,1345,1343,-1,1349,1343,1350,-1,1350,1343,1341,-1,1350,1341,1351,-1,1351,1341,1339,-1,1351,1339,1352,-1,1352,1339,1337,-1,1352,1337,1353,-1,1353,1337,1333,-1,1353,1333,1334,-1,1354,1348,1355,-1,1355,1348,1349,-1,1355,1349,1356,-1,1356,1349,1350,-1,1356,1350,1357,-1,1357,1350,1351,-1,1357,1351,1358,-1,1358,1351,1352,-1,1358,1352,1359,-1,1359,1352,1353,-1,1359,1353,1335,-1,1335,1353,1334,-1,1335,1332,1359,-1,1359,1332,1336,-1,1359,1336,1358,-1,1358,1336,1338,-1,1358,1338,1357,-1,1357,1338,1340,-1,1357,1340,1356,-1,1356,1340,1342,-1,1356,1342,1355,-1,1355,1342,1344,-1,1355,1344,1354,-1,1354,1344,1346,-1,1303,1346,1302,-1,1302,1346,1347,-1,1302,1347,1300,-1,1300,1347,1348,-1,1300,1348,1301,-1,1301,1348,1354,-1,1354,1346,1301,-1,1301,1346,1303,-1,
        ]
    }
}
Shape{
    appearance Appearance {
        material  Material 	{
            diffuseColor 0.4117647058823529 0.4117647058823529 0.4117647058823529
            specularColor 0.16470588235294117 0.16470588235294117 0.16470588235294117
            ambientIntensity 0.4118
            transparency 0.0
            shininess 0.5
        }
    }
    geometry IndexedFaceSet {
        ccw TRUE
        solid FALSE
        coord DEF co Coordinate {
            point [
                -1.9522 -1.1297 1.0453, -1.9522 -1.1297 1.0531, -1.9577 -1.0882 1.0453, -1.9577 -1.0882 1.0531, -1.9737 -1.0495 1.0453, -1.9737 -1.0495 1.0531, -1.9992 -1.0163 1.0453, -1.9992 -1.0163 1.0531, -2.0324 -0.9908 1.0453, -2.0324 -0.9908 1.0531, -2.0711 -0.9748 1.0453, -2.0711 -0.9748 1.0531, -2.1126 -0.9693 1.0453, -2.1126 -0.9693 1.0531, -2.1541 -0.9748 1.0453, -2.1541 -0.9748 1.0531, -2.1928 -0.9908 1.0453, -2.1928 -0.9908 1.0531, -2.226 -1.0163 1.0453, -2.226 -1.0163 1.0531, -2.2515 -1.0495 1.0453, -2.2515 -1.0495 1.0531, -2.2675 -1.0882 1.0453, -2.2675 -1.0882 1.0531, -2.273 -1.1297 1.0453, -2.273 -1.1297 1.0531, -2.2675 -1.1713 1.0453, -2.2675 -1.1713 1.0531, -2.2515 -1.2099 1.0453, -2.2515 -1.2099 1.0531, -2.226 -1.2432 1.0453, -2.226 -1.2432 1.0531, -2.1928 -1.2687 1.0453, -2.1928 -1.2687 1.0531, -2.1541 -1.2847 1.0453, -2.1541 -1.2847 1.0531, -2.1126 -1.2901 1.0453, -2.1126 -1.2901 1.0531, -2.0711 -1.2847 1.0453, -2.0711 -1.2847 1.0531, -2.0324 -1.2687 1.0453, -2.0324 -1.2687 1.0531, -1.9992 -1.2432 1.0453, -1.9992 -1.2432 1.0531, -1.9737 -1.2099 1.0453, -1.9737 -1.2099 1.0531, -1.9577 -1.1713 1.0453, -1.9577 -1.1713 1.0531, -2.1126 -1.1297 1.0453
            ]
        }
        coordIndex [
            0,1,2,-1,2,1,3,-1,2,3,4,-1,4,3,5,-1,4,5,6,-1,6,5,7,-1,6,7,8,-1,8,7,9,-1,8,9,10,-1,10,9,11,-1,10,11,12,-1,12,11,13,-1,12,13,14,-1,14,13,15,-1,14,15,16,-1,16,15,17,-1,16,17,18,-1,18,17,19,-1,18,19,20,-1,20,19,21,-1,20,21,22,-1,22,21,23,-1,22,23,24,-1,24,23,25,-1,24,25,26,-1,26,25,27,-1,26,27,28,-1,28,27,29,-1,28,29,30,-1,30,29,31,-1,30,31,32,-1,32,31,33,-1,32,33,34,-1,34,33,35,-1,34,35,36,-1,36,35,37,-1,36,37,38,-1,38,37,39,-1,38,39,40,-1,40,39,41,-1,40,41,42,-1,42,41,43,-1,42,43,44,-1,44,43,45,-1,44,45,46,-1,46,45,47,-1,46,47,0,-1,0,47,1,-1,44,46,48,-1,48,46,0,-1,48,0,2,-1,38,40,48,-1,48,40,42,-1,48,42,44,-1,32,34,48,-1,48,34,36,-1,48,36,38,-1,26,28,48,-1,48,28,30,-1,48,30,32,-1,20,22,48,-1,48,22,24,-1,48,24,26,-1,14,16,48,-1,48,16,18,-1,48,18,20,-1,8,10,48,-1,48,10,12,-1,48,12,14,-1,2,4,48,-1,48,4,6,-1,48,6,8,-1,
        ]
    }
}
Shape{
    appearance Appearance {
        material  Material 	{
            diffuseColor 0.7764705882352941 0.7568627450980392 0.7372549019607844
            specularColor 0.38823529411764707 0.3764705882352941 0.3686274509803922
            ambientIntensity 0.7605
            transparency 0.0
            shininess 0.5
        }
    }
    geometry IndexedFaceSet {
        ccw TRUE
        solid FALSE
        coord DEF co Coordinate {
            point [
                -0.1894 -1.0803 0.0531, -0.1855 -1.0933 0.0531, -0.2289 -1.0803 0.0531, -0.2343 -1.0933 0.0531, -0.2071 -1.031 0.0531, -0.2016 -1.0083 0.0531, -0.1569 -1.1264 0.0531, -0.1742 -1.1264 0.0531, -0.2082 -1.0269 0.0531, -0.209 -1.0227 0.0531, -0.2174 -1.0083 0.0531, -0.2093 -1.0227 0.0531, -0.2101 -1.0268 0.0531, -0.2112 -1.031 0.0531, -0.2635 -1.1264 0.0531, -0.2462 -1.1264 0.0531, -0.2343 -1.0933 0.0492, -0.2462 -1.1264 0.0492, -0.1855 -1.0933 0.0492, -0.1742 -1.1264 0.0492, -0.1569 -1.1264 0.0492, -0.2016 -1.0083 0.0492, -0.2174 -1.0083 0.0492, -0.2635 -1.1264 0.0492, -0.2112 -1.031 0.0492, -0.2101 -1.0268 0.0492, -0.2093 -1.0227 0.0492, -0.209 -1.0227 0.0492, -0.2082 -1.0269 0.0492, -0.2071 -1.031 0.0492, -0.1894 -1.0803 0.0492, -0.2289 -1.0803 0.0492, -0.0865 -1.0083 0.0531, -0.0865 -1.0083 0.0492, -0.0532 -1.0083 0.0531, -0.0532 -1.0083 0.0492, -0.1036 -1.0101 0.0531, -0.1036 -1.0101 0.0492, -0.1174 -1.0149 0.0531, -0.1174 -1.0149 0.0492, -0.1303 -1.0236 0.0531, -0.1303 -1.0236 0.0492, -0.1304 -1.0237 0.0531, -0.1304 -1.0237 0.0492, -0.1387 -1.0329 0.0531, -0.1387 -1.0329 0.0492, -0.1442 -1.0431 0.0531, -0.1442 -1.0431 0.0492, -0.1474 -1.0547 0.0531, -0.1474 -1.0547 0.0492, -0.1483 -1.0658 0.0531, -0.1483 -1.0658 0.0492, -0.1466 -1.0816 0.0531, -0.1466 -1.0816 0.0492, -0.1424 -1.094 0.0531, -0.1424 -1.094 0.0492, -0.1356 -1.1046 0.0531, -0.1356 -1.1046 0.0492, -0.1259 -1.1139 0.0531, -0.1259 -1.1139 0.0492, -0.1135 -1.1211 0.0531, -0.1135 -1.1211 0.0492, -0.0999 -1.1251 0.0531, -0.0999 -1.1251 0.0492, -0.0853 -1.1264 0.0531, -0.0853 -1.1264 0.0492, -0.0532 -1.1264 0.0531, -0.0532 -1.1264 0.0492, -0.1246 -1.0378 0.0531, -0.1188 -1.0317 0.0531, -0.1102 -1.0261 0.0531, -0.1004 -1.0227 0.0531, -0.0865 -1.0212 0.0531, -0.069 -1.0212 0.0531, -0.069 -1.1134 0.0531, -0.0858 -1.1134 0.0531, -0.0983 -1.1123 0.0531, -0.1082 -1.1092 0.0531, -0.1163 -1.1044 0.0531, -0.1229 -1.0978 0.0531, -0.1279 -1.0897 0.0531, -0.1313 -1.0786 0.0531, -0.1324 -1.0662 0.0531, -0.1314 -1.0544 0.0531, -0.1287 -1.0451 0.0531, -0.0858 -1.1134 0.0492, -0.069 -1.1134 0.0492, -0.0983 -1.1123 0.0492, -0.1082 -1.1092 0.0492, -0.1163 -1.1044 0.0492, -0.1229 -1.0978 0.0492, -0.1279 -1.0897 0.0492, -0.1313 -1.0786 0.0492, -0.1324 -1.0662 0.0492, -0.1314 -1.0544 0.0492, -0.1287 -1.0451 0.0492, -0.1246 -1.0378 0.0492, -0.1188 -1.0317 0.0492, -0.1102 -1.0261 0.0492, -0.1004 -1.0227 0.0492, -0.0865 -1.0212 0.0492, -0.069 -1.0212 0.0492, 0.0332 -1.0083 0.0531, 0.0332 -1.0083 0.0492, 0.0332 -1.1264 0.0531, 0.0332 -1.1264 0.0492, -0.0273 -1.0083 0.0531, -0.0273 -1.0083 0.0492, -0.0273 -1.0212 0.0531, -0.0273 -1.0212 0.0492, 0.0174 -1.0212 0.0531, 0.0174 -1.0212 0.0492, 0.0174 -1.0601 0.0531, 0.0174 -1.0601 0.0492, -0.0244 -1.0601 0.0531, -0.0244 -1.0601 0.0492, -0.0244 -1.0731 0.0531, -0.0244 -1.0731 0.0492, 0.0174 -1.0731 0.0531, 0.0174 -1.0731 0.0492, 0.0174 -1.1134 0.0531, 0.0174 -1.1134 0.0492, -0.0302 -1.1134 0.0531, -0.0302 -1.1134 0.0492, -0.0302 -1.1264 0.0531, -0.0302 -1.1264 0.0492, 0.0957 -1.1271 0.0492, 0.0888 -1.1278 0.0492, 0.0888 -1.1278 0.0531, 0.1033 -1.1263 0.0492, 0.1033 -1.1263 0.0531, 0.1148 -1.1224 0.0531, 0.1148 -1.1224 0.0492, 0.1243 -1.1163 0.0531, 0.1243 -1.1163 0.0492, 0.1331 -1.107 0.0531, 0.1331 -1.107 0.0492, 0.1394 -1.0957 0.0531, 0.1394 -1.0957 0.0492, 0.143 -1.0832 0.0531, 0.143 -1.0832 0.0492, 0.1441 -1.0696 0.0531, 0.1441 -1.0696 0.0492, 0.1424 -1.0528 0.0531, 0.1424 -1.0528 0.0492, 0.1379 -1.0394 0.0531, 0.1379 -1.0394 0.0492, 0.131 -1.0283 0.0531, 0.131 -1.0283 0.0492, 0.1203 -1.0181 0.0531, 0.1203 -1.0181 0.0492, 0.1091 -1.0116 0.0531, 0.1091 -1.0116 0.0492, 0.0959 -1.0078 0.0531, 0.0959 -1.0078 0.0492, 0.0841 -1.0068 0.0531, 0.0841 -1.0068 0.0492, 0.0929 -1.0076 0.0492, 0.0736 -1.0076 0.0492, 0.0699 -1.0078 0.0531, 0.0699 -1.0078 0.0492, 0.0563 -1.0115 0.0531, 0.0563 -1.0115 0.0492, 0.0563 -1.0274 0.0531, 0.0563 -1.0274 0.0492, 0.0696 -1.0217 0.0531, 0.0696 -1.0217 0.0492, 0.0839 -1.0198 0.0531, 0.0839 -1.0198 0.0492, 0.0956 -1.0211 0.0531, 0.0956 -1.0211 0.0492, 0.1044 -1.0243 0.0531, 0.1044 -1.0243 0.0492, 0.1126 -1.0298 0.0531, 0.1126 -1.0298 0.0492, 0.1197 -1.0376 0.0531, 0.1197 -1.0376 0.0492, 0.1246 -1.0468 0.0531, 0.1246 -1.0468 0.0492, 0.1277 -1.0594 0.0531, 0.1277 -1.0594 0.0492, 0.1283 -1.0686 0.0531, 0.1283 -1.0686 0.0492, 0.1271 -1.0814 0.0531, 0.1271 -1.0814 0.0492, 0.1239 -1.0915 0.0531, 0.1239 -1.0915 0.0492, 0.119 -1.0997 0.0531, 0.119 -1.0997 0.0492, 0.1135 -1.1056 0.0531, 0.1135 -1.1056 0.0492, 0.1062 -1.1105 0.0531, 0.1062 -1.1105 0.0492, 0.0976 -1.1136 0.0531, 0.0976 -1.1136 0.0492, 0.0866 -1.1149 0.0531, 0.0866 -1.1149 0.0492, 0.0709 -1.1131 0.0531, 0.0709 -1.1131 0.0492, 0.0584 -1.1085 0.0531, 0.0584 -1.1085 0.0492, 0.0563 -1.1073 0.0531, 0.0563 -1.1073 0.0492, 0.0563 -1.1203 0.0531, 0.0563 -1.1203 0.0492, 0.0689 -1.1254 0.0492, 0.0689 -1.1254 0.0531, 0.0808 -1.1271 0.0492, 0.0855 -1.1278 0.0531, 0.0855 -1.1278 0.0492, 0.2147 -1.0083 0.0531, 0.2147 -1.0083 0.0492, 0.2147 -1.1264 0.0531, 0.2147 -1.1264 0.0492, 0.1989 -1.0083 0.0531, 0.1989 -1.0083 0.0492, 0.1989 -1.1134 0.0531, 0.1989 -1.1134 0.0492, 0.1542 -1.1134 0.0531, 0.1542 -1.1134 0.0492, 0.1542 -1.1264 0.0531, 0.1542 -1.1264 0.0492
            ]
        }
        coordIndex [
            0,1,2,-1,2,1,3,-1,4,5,0,-1,0,5,6,-1,0,6,1,-1,1,6,7,-1,4,8,5,-1,5,8,9,-1,5,9,10,-1,10,9,11,-1,10,11,12,-1,12,13,10,-1,10,13,2,-1,10,2,14,-1,14,2,3,-1,14,3,15,-1,3,16,15,-1,15,16,17,-1,1,18,3,-1,3,18,16,-1,7,19,1,-1,1,19,18,-1,6,20,7,-1,7,20,19,-1,5,21,6,-1,6,21,20,-1,10,22,5,-1,5,22,21,-1,14,23,10,-1,10,23,22,-1,14,15,23,-1,23,15,17,-1,24,13,12,-1,24,12,25,-1,25,12,11,-1,25,11,26,-1,9,27,11,-1,11,27,26,-1,27,9,8,-1,27,8,28,-1,28,8,4,-1,28,4,29,-1,0,30,4,-1,4,30,29,-1,2,31,0,-1,0,31,30,-1,24,31,13,-1,13,31,2,-1,32,33,34,-1,34,33,35,-1,33,32,36,-1,33,36,37,-1,37,36,38,-1,37,38,39,-1,39,38,40,-1,39,40,41,-1,41,40,42,-1,41,42,43,-1,43,42,44,-1,43,44,45,-1,45,44,46,-1,45,46,47,-1,47,46,48,-1,47,48,49,-1,49,48,50,-1,49,50,51,-1,51,50,52,-1,51,52,53,-1,53,52,54,-1,53,54,55,-1,55,54,56,-1,55,56,57,-1,57,56,58,-1,57,58,59,-1,59,58,60,-1,59,60,61,-1,61,60,62,-1,61,62,63,-1,63,62,64,-1,63,64,65,-1,66,67,64,-1,64,67,65,-1,66,34,67,-1,67,34,35,-1,46,44,68,-1,68,44,42,-1,68,42,69,-1,69,42,40,-1,69,40,70,-1,70,40,38,-1,70,38,71,-1,71,38,36,-1,71,36,72,-1,72,36,32,-1,72,32,73,-1,73,32,34,-1,73,34,74,-1,74,34,66,-1,74,66,75,-1,75,66,64,-1,75,64,76,-1,76,64,62,-1,76,62,77,-1,77,62,60,-1,77,60,78,-1,78,60,58,-1,78,58,79,-1,79,58,56,-1,79,56,80,-1,80,56,54,-1,80,54,81,-1,81,54,52,-1,81,52,82,-1,82,52,50,-1,82,50,83,-1,83,50,48,-1,83,48,84,-1,84,48,46,-1,84,46,68,-1,75,85,74,-1,74,85,86,-1,85,75,76,-1,85,76,87,-1,87,76,77,-1,87,77,88,-1,88,77,78,-1,88,78,89,-1,89,78,79,-1,89,79,90,-1,90,79,80,-1,90,80,91,-1,91,80,81,-1,91,81,92,-1,92,81,82,-1,92,82,93,-1,93,82,83,-1,93,83,94,-1,94,83,84,-1,94,84,95,-1,95,84,68,-1,95,68,96,-1,96,68,69,-1,96,69,97,-1,97,69,70,-1,97,70,98,-1,98,70,71,-1,98,71,99,-1,99,71,72,-1,99,72,100,-1,73,101,72,-1,72,101,100,-1,86,101,74,-1,74,101,73,-1,102,103,104,-1,104,103,105,-1,106,107,102,-1,102,107,103,-1,108,109,106,-1,106,109,107,-1,110,111,108,-1,108,111,109,-1,112,113,110,-1,110,113,111,-1,114,115,112,-1,112,115,113,-1,116,117,114,-1,114,117,115,-1,118,119,116,-1,116,119,117,-1,120,121,118,-1,118,121,119,-1,122,123,120,-1,120,123,121,-1,124,125,122,-1,122,125,123,-1,124,104,125,-1,125,104,105,-1,104,124,122,-1,122,120,104,-1,104,120,118,-1,104,118,102,-1,108,106,110,-1,110,106,102,-1,110,102,112,-1,112,102,118,-1,112,118,114,-1,114,118,116,-1,126,127,128,-1,126,128,129,-1,128,130,129,-1,129,130,131,-1,129,131,132,-1,132,131,133,-1,132,133,134,-1,134,133,135,-1,134,135,136,-1,136,135,137,-1,136,137,138,-1,138,137,139,-1,138,139,140,-1,140,139,141,-1,140,141,142,-1,142,141,143,-1,142,143,144,-1,144,143,145,-1,144,145,146,-1,146,145,147,-1,146,147,148,-1,148,147,149,-1,148,149,150,-1,150,149,151,-1,150,151,152,-1,152,151,153,-1,152,153,154,-1,155,156,153,-1,153,156,157,-1,153,157,154,-1,156,155,158,-1,158,155,159,-1,158,159,160,-1,160,159,161,-1,160,161,162,-1,163,164,161,-1,161,164,162,-1,164,163,165,-1,164,165,166,-1,166,165,167,-1,166,167,168,-1,168,167,169,-1,168,169,170,-1,170,169,171,-1,170,171,172,-1,172,171,173,-1,172,173,174,-1,174,173,175,-1,174,175,176,-1,176,175,177,-1,176,177,178,-1,178,177,179,-1,178,179,180,-1,180,179,181,-1,180,181,182,-1,182,181,183,-1,182,183,184,-1,184,183,185,-1,184,185,186,-1,186,185,187,-1,186,187,188,-1,188,187,189,-1,188,189,190,-1,190,189,191,-1,190,191,192,-1,192,191,193,-1,192,193,194,-1,194,193,195,-1,194,195,196,-1,196,195,197,-1,196,197,198,-1,198,197,199,-1,198,199,200,-1,200,199,201,-1,200,201,202,-1,203,204,201,-1,201,204,202,-1,205,204,206,-1,206,204,203,-1,205,206,207,-1,207,206,208,-1,207,208,209,-1,209,208,128,-1,209,128,127,-1,193,128,195,-1,195,128,208,-1,195,208,197,-1,197,208,206,-1,197,206,199,-1,199,206,203,-1,199,203,201,-1,163,161,165,-1,165,161,159,-1,165,159,167,-1,167,159,155,-1,167,155,169,-1,169,155,153,-1,169,153,171,-1,171,153,151,-1,171,151,173,-1,173,151,149,-1,173,149,175,-1,175,149,147,-1,175,147,177,-1,177,147,145,-1,177,145,179,-1,179,145,143,-1,179,143,181,-1,181,143,141,-1,181,141,183,-1,183,141,139,-1,183,139,185,-1,185,139,137,-1,185,137,187,-1,187,137,135,-1,187,135,189,-1,189,135,133,-1,189,133,191,-1,191,133,131,-1,191,131,193,-1,193,131,130,-1,193,130,128,-1,210,211,212,-1,212,211,213,-1,214,215,210,-1,210,215,211,-1,216,217,214,-1,214,217,215,-1,218,219,216,-1,216,219,217,-1,220,221,218,-1,218,221,219,-1,220,212,221,-1,221,212,213,-1,214,210,216,-1,216,210,212,-1,216,212,218,-1,218,212,220,-1,
        ]
    }
}
Shape{
    appearance Appearance {
        material  Material 	{
            diffuseColor 0.10980392156862745 0.10980392156862745 0.10980392156862745
            specularColor 0.0784313725490196 0.0784313725490196 0.0784313725490196
            ambientIntensity 0.1098
            transparency 0.0
            shininess 0.5
        }
    }
    geometry IndexedFaceSet {
        ccw TRUE
        solid FALSE
        coord DEF co Coordinate {
            point [
                -0.1894 -1.0803 0.0492, -0.2289 -1.0803 0.0492, -0.2071 -1.031 0.0492, -0.2112 -1.031 0.0492, -0.2082 -1.0269 0.0492, -0.2101 -1.0268 0.0492, -0.209 -1.0227 0.0492, -0.2093 -1.0227 0.0492, -0.069 -1.0212 0.0492, -0.069 -1.1134 0.0492, -0.0865 -1.0212 0.0492, -0.0858 -1.1134 0.0492, -0.0983 -1.1123 0.0492, -0.1324 -1.0662 0.0492, -0.1314 -1.0544 0.0492, -0.1287 -1.0451 0.0492, -0.1004 -1.0227 0.0492, -0.1082 -1.1092 0.0492, -0.1163 -1.1044 0.0492, -0.1229 -1.0978 0.0492, -0.1279 -1.0897 0.0492, -0.1313 -1.0786 0.0492, -0.1246 -1.0378 0.0492, -0.1188 -1.0317 0.0492, -0.1102 -1.0261 0.0492
            ]
        }
        coordIndex [
            0,1,2,-1,2,1,3,-1,2,3,4,-1,4,3,5,-1,4,5,6,-1,6,5,7,-1,8,9,10,-1,10,9,11,-1,10,11,12,-1,13,14,10,-1,10,14,15,-1,10,15,16,-1,12,17,10,-1,10,17,18,-1,10,18,19,-1,19,20,10,-1,10,20,21,-1,10,21,13,-1,22,23,15,-1,15,23,24,-1,15,24,16,-1,
        ]
    }
}