#VRML V2.0 utf8
# 0.96 in I2C OLED module (27.3 x 27.8 mm) on an 8.5 mm 1x4 socket - box model, gen: scripts/make_oled_model.py
Shape {
  appearance Appearance {
    material Material {
      diffuseColor 0.150 0.150 0.150
      ambientIntensity 0.3
      specularColor 0.2 0.2 0.2
      shininess 0.1
    }
  }
  geometry IndexedFaceSet {
    solid FALSE
    coord Coordinate { point [
      -2.0079 -0.5000 3.3465,
      2.0079 -0.5000 3.3465,
      2.0079 0.5000 3.3465,
      -2.0079 0.5000 3.3465,
      -2.0079 -0.5000 4.3307,
      2.0079 -0.5000 4.3307,
      2.0079 0.5000 4.3307,
      -2.0079 0.5000 4.3307
    ] }
    coordIndex [
      0, 3, 2, 1, -1,
      4, 5, 6, 7, -1,
      0, 1, 5, 4, -1,
      1, 2, 6, 5, -1,
      2, 3, 7, 6, -1,
      3, 0, 4, 7, -1
    ]
  }
}
Shape {
  appearance Appearance {
    material Material {
      diffuseColor 0.050 0.150 0.450
      ambientIntensity 0.3
      specularColor 0.2 0.2 0.2
      shininess 0.1
    }
  }
  geometry IndexedFaceSet {
    solid FALSE
    coord Coordinate { point [
      -5.3740 -10.0787 4.3307,
      5.3740 -10.0787 4.3307,
      5.3740 0.8661 4.3307,
      -5.3740 0.8661 4.3307,
      -5.3740 -10.0787 4.8031,
      5.3740 -10.0787 4.8031,
      5.3740 0.8661 4.8031,
      -5.3740 0.8661 4.8031
    ] }
    coordIndex [
      0, 3, 2, 1, -1,
      4, 5, 6, 7, -1,
      0, 1, 5, 4, -1,
      1, 2, 6, 5, -1,
      2, 3, 7, 6, -1,
      3, 0, 4, 7, -1
    ]
  }
}
Shape {
  appearance Appearance {
    material Material {
      diffuseColor 0.020 0.020 0.020
      ambientIntensity 0.3
      specularColor 0.2 0.2 0.2
      shininess 0.1
    }
  }
  geometry IndexedFaceSet {
    solid FALSE
    coord Coordinate { point [
      -5.2559 -8.8976 4.8031,
      5.2559 -8.8976 4.8031,
      5.2559 -1.2992 4.8031,
      -5.2559 -1.2992 4.8031,
      -5.2559 -8.8976 5.4331,
      5.2559 -8.8976 5.4331,
      5.2559 -1.2992 5.4331,
      -5.2559 -1.2992 5.4331
    ] }
    coordIndex [
      0, 3, 2, 1, -1,
      4, 5, 6, 7, -1,
      0, 1, 5, 4, -1,
      1, 2, 6, 5, -1,
      2, 3, 7, 6, -1,
      3, 0, 4, 7, -1
    ]
  }
}
Shape {
  appearance Appearance {
    material Material {
      diffuseColor 0.250 0.280 0.320
      ambientIntensity 0.3
      specularColor 0.2 0.2 0.2
      shininess 0.1
    }
  }
  geometry IndexedFaceSet {
    solid FALSE
    coord Coordinate { point [
      -4.2717 -7.3031 5.4331,
      4.2717 -7.3031 5.4331,
      4.2717 -2.8937 5.4331,
      -4.2717 -2.8937 5.4331,
      -4.2717 -7.3031 5.4409,
      4.2717 -7.3031 5.4409,
      4.2717 -2.8937 5.4409,
      -4.2717 -2.8937 5.4409
    ] }
    coordIndex [
      0, 3, 2, 1, -1,
      4, 5, 6, 7, -1,
      0, 1, 5, 4, -1,
      1, 2, 6, 5, -1,
      2, 3, 7, 6, -1,
      3, 0, 4, 7, -1
    ]
  }
}
