#VRML V2.0 utf8
# 3D model generated by easyeda2kicad.py (https://github.com/uPesy/easyeda2kicad.py)

Shape{
    appearance Appearance {
        material  Material 	{
            diffuseColor 0.11372549019607843 0.11372549019607843 0.11372549019607843
            specularColor 0.058823529411764705 0.058823529411764705 0.058823529411764705
            ambientIntensity 0.1137
            transparency 0.0
            shininess 0.5
        }
    }
    geometry IndexedFaceSet {
        ccw TRUE
        solid FALSE
        coord DEF co Coordinate {
            point [
                0.9766 -1.2007 0.1969, 0.9993 -0.5142 0.1969, 0.9993 -1.4049 0.1969, 0.793 -1.0002 0.1969, 0.793 -0.5142 0.1969, 0.8839 -1.0292 0.1969, 0.9512 -1.1001 0.1969, 0.9142 -1.3544 0.1969, 0.9266 -1.3411 0.1969, 0.9646 -1.2756 0.1969, 0.7924 -1.4049 0.1969, 0.793 -1.4048 0.1969, 0.793 -1.4049 0.1969, 0.8534 -1.3939 0.1969, 0.8917 -1.373 0.1969, 0.793 -2.3945 0.1969, 0.7643 -1.41 0.1969, 0.7445 -1.4092 0.1969, 0.5526 -2.3945 0.1969, 0.7146 -1.4049 0.1969, 0.593 -1.3274 0.1969, 0.6685 -1.3895 0.1969, 0.5526 -1.4049 0.1969, 0.7133 -1.4047 0.1969, 0.593 -1.0784 0.1969, 0.6239 -1.1021 0.1969, 0.6239 -1.304 0.1969, 0.5526 -0.5142 0.1969, 0.6054 -1.063 0.1969, 0.6283 -1.0412 0.1969, 0.7821 -0.9967 0.1969, 0.7647 -0.9961 0.1969, 0.6687 -1.0163 0.1969, 0.6867 -1.3529 0.1969, 0.6877 -1.0527 0.1969, 0.7645 -1.3696 0.1969, 0.7248 -1.0407 0.1969, 0.7893 -1.3683 0.1969, 0.793 -1.0429 0.1969, 0.9412 -1.2034 0.1969, 0.9208 -1.2845 0.1969, 0.8542 -1.058 0.1969, 0.9152 -1.113 0.1969, 0.9406 -1.1875 0.1969, 0.7507 -1.0371 0.1969, 0.7669 -1.0364 0.1969, 0.793 -1.367 0.1969, 0.8666 -1.3414 0.1969, 0.793 0.3811 0.1969, 0.6095 0.0858 0.1969, 0.5526 0.3811 0.1969, 0.5526 0.0858 0.1969, 0.2548 0.3811 0.1969, 0.4126 0.0858 0.1969, 0.6095 -0.0323 0.1969, 0.5526 -0.0323 0.1969, 0.4126 -0.0323 0.1969, 0.2548 -0.5142 0.1969, -3.1622 -0.5142 0.1969, -3.1622 0.3811 0.1969, -2.5874 0.0858 0.1969, -2.3905 0.0858 0.1969, -1.989 0.3811 0.1969, -2.3905 -0.0323 0.1969, -1.989 -0.5142 0.1969, -2.5874 -0.0323 0.1969, -1.5874 -0.0323 0.1969, -1.3905 -0.0323 0.1969, -0.9591 -0.5142 0.1969, -0.9591 0.3811 0.1969, -1.3905 0.0858 0.1969, -1.5874 0.0858 0.1969, -0.1288 -0.5142 0.1969, -0.1288 0.3811 0.1969, 1.8107 0.3811 0.1969, 0.9993 0.3811 0.1969, 2.6095 -0.0323 0.1969, 3.3949 -0.5142 0.1969, 2.4126 -0.0323 0.1969, 1.8107 -0.5142 0.1969, 2.4126 0.0858 0.1969, 2.6095 0.0858 0.1969, 3.3949 0.3811 0.1969, 4.1803 0.3811 0.1969, 4.1803 -0.5142 0.1969, -3.1622 -1.4049 0.1969, -1.989 -1.4049 0.1969, -0.9591 -1.4049 0.1969, -0.4892 -1.3999 0.1969, -0.431 -1.2737 0.1969, -0.2525 -1.2737 0.1969, -0.1926 -1.3999 0.1969, -0.1288 -1.4049 0.1969, -0.5276 -1.3999 0.1969, -0.3459 -1.0062 0.1969, -0.3408 -1.0062 0.1969, -0.1541 -1.3999 0.1969, 0.015 -1.0204 0.1969, -0.0559 -1.0681 0.1969, -0.0962 -1.146 0.1969, -0.1036 -1.208 0.1969, -0.0814 -1.307 0.1969, -0.0243 -1.3723 0.1969, 0.0549 -1.3977 0.1969, 0.0974 -1.3999 0.1969, 0.2548 -1.4049 0.1969, 0.2194 -1.3999 0.1969, 0.2194 -1.0062 0.1969, 0.14 -1.0062 0.1969, 0.0769 -1.0086 0.1969, 0.2901 -1.3595 0.1969, 0.2901 -1.3999 0.1969, 0.5122 -1.3999 0.1969, 0.5122 -1.0062 0.1969, 0.2901 -1.0465 0.1969, 0.2901 -1.0062 0.1969, 0.2901 -1.2081 0.1969, 0.4769 -1.2081 0.1969, 0.4769 -1.3595 0.1969, 0.2901 -1.1677 0.1969, 0.4769 -1.1677 0.1969, 0.4769 -1.0465 0.1969, 1.2087 -1.3999 0.1969, 1.8107 -1.4049 0.1969, 1.2087 -1.0062 0.1969, 1.1734 -1.0062 0.1969, 1.1734 -1.3595 0.1969, 1.022 -1.3595 0.1969, 1.022 -1.3999 0.1969, 3.3949 -1.4049 0.1969, 4.1803 -1.4049 0.1969, 0.2548 -2.3945 0.1969, -0.1288 -2.3945 0.1969, -0.9591 -2.3945 0.1969, -1.989 -2.3945 0.1969, -3.1622 -2.3945 0.1969, 0.9993 -2.3945 0.1969, 1.8107 -2.3945 0.1969, 3.3949 -2.3945 0.1969, 4.1803 -2.3945 0.1969, 4.1803 -2.3945 0.0, 4.1803 0.3811 0.0, 4.2591 0.3811 0.0, 4.3772 -2.2764 0.0, 4.3613 -2.3354 0.0, 4.3181 -2.3787 0.0, 4.3181 0.3653 0.0, 4.3613 0.3221 0.0, 4.3772 0.263 0.0, 4.2591 -2.3945 0.0, 4.3772 -2.2764 3.937, 4.3772 0.263 3.937, -3.2409 0.3811 3.937, -2.5372 0.3811 1.7152, -2.6408 0.3811 1.6117, -3.1622 0.3811 0.0, -3.2409 0.3811 0.0, -2.6787 0.3811 1.4703, -2.6408 0.3811 1.3288, -2.5372 0.3811 1.2253, -2.113 0.3811 1.4703, 4.2591 0.3811 3.937, -2.1509 0.3811 1.6117, -2.2544 0.3811 1.7152, -2.3958 0.3811 1.7531, -2.3958 0.3811 1.1874, -2.2544 0.3811 1.2253, -2.1509 0.3811 1.3288, -3.3591 -2.2764 3.937, -3.3591 0.263 3.937, -3.3591 -2.2764 0.0, -3.3591 0.263 0.0, -3.2409 -2.3945 0.0, -3.1622 -2.3945 0.0, -3.2409 -2.3945 3.937, 4.2591 -2.3945 3.937, 4.2591 -2.2764 4.0551, 4.2591 0.263 4.0551, -3.2409 -2.2764 4.0551, -3.2409 0.263 4.0551, -3.3432 0.3221 0.0, -3.3 0.3653 0.0, -3.3 -2.3787 0.0, -3.3432 -2.3354 0.0
            ]
        }
        coordIndex [
            0,1,2,-1,3,4,5,-1,5,4,1,-1,5,1,6,-1,6,1,0,-1,7,8,2,-1,2,8,9,-1,2,9,0,-1,10,11,12,-1,12,11,13,-1,12,13,2,-1,2,13,14,-1,2,14,7,-1,15,16,10,-1,16,15,17,-1,17,15,18,-1,17,18,19,-1,20,21,22,-1,22,21,23,-1,22,23,19,-1,24,25,26,-1,24,27,28,-1,28,27,29,-1,3,30,4,-1,4,30,31,-1,4,31,27,-1,27,31,32,-1,27,32,29,-1,26,25,33,-1,33,25,34,-1,33,34,35,-1,35,34,36,-1,35,36,37,-1,38,39,40,-1,41,42,38,-1,38,42,43,-1,38,43,39,-1,36,44,37,-1,37,44,45,-1,37,45,46,-1,46,45,38,-1,46,38,47,-1,47,38,40,-1,48,49,50,-1,50,49,51,-1,50,51,52,-1,52,51,53,-1,54,4,55,-1,55,4,27,-1,55,27,56,-1,56,27,57,-1,56,57,53,-1,58,59,60,-1,60,59,61,-1,61,59,62,-1,61,62,63,-1,63,62,64,-1,63,64,65,-1,66,67,68,-1,69,70,62,-1,62,70,71,-1,62,71,64,-1,53,57,52,-1,52,57,72,-1,52,72,73,-1,73,72,68,-1,73,68,69,-1,69,68,67,-1,69,67,70,-1,74,1,75,-1,75,1,4,-1,75,4,48,-1,48,4,54,-1,48,54,49,-1,76,77,78,-1,78,77,79,-1,78,79,80,-1,76,81,82,-1,82,81,74,-1,76,82,77,-1,77,82,83,-1,77,83,84,-1,60,65,58,-1,58,65,64,-1,58,64,85,-1,85,64,86,-1,71,66,64,-1,64,66,68,-1,64,68,86,-1,86,68,87,-1,88,89,90,-1,90,91,88,-1,88,91,92,-1,88,92,93,-1,93,92,87,-1,93,87,94,-1,94,87,68,-1,94,68,95,-1,95,68,72,-1,95,72,96,-1,96,72,92,-1,96,92,91,-1,97,98,72,-1,98,99,72,-1,72,99,100,-1,72,100,92,-1,92,100,101,-1,92,101,102,-1,102,103,92,-1,92,103,104,-1,92,104,105,-1,104,106,105,-1,105,106,107,-1,105,107,57,-1,57,107,108,-1,57,108,72,-1,72,108,109,-1,72,109,97,-1,110,111,105,-1,105,111,112,-1,105,112,22,-1,22,112,113,-1,114,105,115,-1,115,105,57,-1,115,57,113,-1,113,57,27,-1,113,27,22,-1,22,27,24,-1,22,24,20,-1,20,24,26,-1,116,117,118,-1,118,110,116,-1,116,110,105,-1,116,105,119,-1,119,105,114,-1,119,114,120,-1,120,114,121,-1,122,123,2,-1,122,124,79,-1,81,80,74,-1,74,80,79,-1,74,79,1,-1,1,79,124,-1,1,124,125,-1,125,126,1,-1,1,126,127,-1,1,127,2,-1,2,127,128,-1,2,128,122,-1,122,79,123,-1,123,79,77,-1,123,77,129,-1,129,77,84,-1,129,84,130,-1,19,18,22,-1,22,18,131,-1,22,131,105,-1,105,131,132,-1,105,132,92,-1,92,132,133,-1,92,133,87,-1,87,133,134,-1,87,134,86,-1,86,134,135,-1,86,135,85,-1,10,12,15,-1,15,12,2,-1,15,2,136,-1,136,2,123,-1,136,123,137,-1,137,123,129,-1,137,129,138,-1,138,129,130,-1,138,130,139,-1,140,141,142,-1,143,144,145,-1,146,147,142,-1,142,147,148,-1,142,148,140,-1,140,148,143,-1,140,143,149,-1,149,143,145,-1,143,148,150,-1,150,148,151,-1,142,141,83,-1,152,153,154,-1,155,156,59,-1,59,156,152,-1,59,152,157,-1,157,152,154,-1,157,158,59,-1,59,158,159,-1,59,159,62,-1,82,160,83,-1,83,160,161,-1,83,161,142,-1,160,162,161,-1,161,162,163,-1,161,163,152,-1,152,163,164,-1,152,164,153,-1,159,165,62,-1,62,165,166,-1,62,166,69,-1,69,166,167,-1,82,74,160,-1,160,74,75,-1,160,75,48,-1,48,50,160,-1,160,50,52,-1,160,52,167,-1,167,52,73,-1,167,73,69,-1,168,169,170,-1,170,169,171,-1,172,173,135,-1,172,135,174,-1,174,135,134,-1,174,134,133,-1,133,132,174,-1,174,132,131,-1,174,131,175,-1,175,131,18,-1,18,15,175,-1,175,15,136,-1,175,136,137,-1,140,149,139,-1,139,149,175,-1,139,175,138,-1,138,175,137,-1,176,177,178,-1,178,177,179,-1,155,173,172,-1,171,180,181,-1,182,183,172,-1,172,183,170,-1,172,170,155,-1,155,170,171,-1,155,171,156,-1,156,171,181,-1,84,83,141,-1,84,141,130,-1,130,141,140,-1,130,140,139,-1,59,58,155,-1,155,58,85,-1,155,85,173,-1,173,85,135,-1,
        ]
    }
}
Shape{
    appearance Appearance {
        material  Material 	{
            diffuseColor 0.7529411764705882 0.7529411764705882 0.7529411764705882
            specularColor 0.3764705882352941 0.3764705882352941 0.3764705882352941
            ambientIntensity 0.7529
            transparency 0.0
            shininess 0.5
        }
    }
    geometry IndexedFaceSet {
        ccw TRUE
        solid FALSE
        coord DEF co Coordinate {
            point [
                -2.5874 0.0858 -1.378, -2.5874 -0.0323 -1.378, -2.5874 0.0858 0.1969, -2.5874 -0.0323 0.1969, -2.3905 0.0858 -1.378, -2.3905 0.0858 0.1969, -2.3905 -0.0323 -1.378, -2.3905 -0.0323 0.1969, -1.5874 -0.0323 -1.378, -1.3905 -0.0323 -1.378, -1.5874 -0.0323 0.1969, -1.3905 -0.0323 0.1969, -1.5874 0.0858 -1.378, -1.5874 0.0858 0.1969, -1.3905 0.0858 -1.378, -1.3905 0.0858 0.1969, 2.4126 -0.0323 -1.378, 2.6095 -0.0323 -1.378, 2.4126 -0.0323 0.1969, 2.6095 -0.0323 0.1969, 2.4126 0.0858 -1.378, 2.4126 0.0858 0.1969, 2.6095 0.0858 -1.378, 2.6095 0.0858 0.1969, 0.4126 0.0858 -1.378, 0.4126 -0.0323 -1.378, 0.4126 0.0858 0.1969, 0.4126 -0.0323 0.1969, 0.6095 0.0858 0.1969, 0.6095 0.0858 -1.378, 0.5526 0.0858 0.1969, 0.6095 -0.0323 -1.378, 0.6095 -0.0323 0.1969, 0.5526 -0.0323 0.1969, -2.3958 0.3417 1.7531, -2.3958 0.3811 1.7531, -2.2544 0.3417 1.7152, -2.2544 0.3811 1.7152, -2.1509 0.3417 1.6117, -2.1509 0.3811 1.6117, -2.113 0.3417 1.4703, -2.113 0.3811 1.4703, -2.1509 0.3417 1.3288, -2.1509 0.3811 1.3288, -2.2544 0.3417 1.2253, -2.2544 0.3811 1.2253, -2.3958 0.3417 1.1874, -2.3958 0.3811 1.1874, -2.5372 0.3417 1.2253, -2.5372 0.3811 1.2253, -2.6408 0.3417 1.3288, -2.6408 0.3811 1.3288, -2.6787 0.3417 1.4703, -2.6787 0.3811 1.4703, -2.6408 0.3417 1.6117, -2.6408 0.3811 1.6117, -2.5372 0.3417 1.7152, -2.5372 0.3811 1.7152, -2.3958 0.3417 1.4703, -0.3408 -1.0062 0.2362, -0.3459 -1.0062 0.2362, -0.3408 -1.0062 0.1969, -0.3459 -1.0062 0.1969, -0.5276 -1.3999 0.2362, -0.5276 -1.3999 0.1969, -0.4892 -1.3999 0.2362, -0.4892 -1.3999 0.1969, -0.431 -1.2737 0.2362, -0.431 -1.2737 0.1969, -0.2525 -1.2737 0.2362, -0.2525 -1.2737 0.1969, -0.1926 -1.3999 0.2362, -0.1926 -1.3999 0.1969, -0.1541 -1.3999 0.2362, -0.1541 -1.3999 0.1969, -0.4123 -1.2333 0.2362, -0.2717 -1.2333 0.2362, -0.3429 -1.0829 0.2362, -0.4123 -1.2333 0.1969, -0.3429 -1.0829 0.1969, -0.2717 -1.2333 0.1969, 0.0974 -1.3999 0.2362, 0.2194 -1.3999 0.2362, 0.0974 -1.3999 0.1969, 0.2194 -1.3999 0.1969, 0.2194 -1.0062 0.2362, 0.2194 -1.0062 0.1969, 0.14 -1.0062 0.2362, 0.14 -1.0062 0.1969, 0.015 -1.0204 0.2362, 0.015 -1.0204 0.1969, 0.0769 -1.0086 0.1969, 0.0769 -1.0086 0.2362, -0.1036 -1.208 0.2362, -0.1036 -1.208 0.1969, -0.0962 -1.146 0.1969, -0.0962 -1.146 0.2362, -0.0559 -1.0681 0.1969, -0.0559 -1.0681 0.2362, 0.0549 -1.3977 0.1969, 0.0549 -1.3977 0.2362, -0.0243 -1.3723 0.1969, -0.0243 -1.3723 0.2362, -0.0814 -1.307 0.1969, -0.0814 -1.307 0.2362, -0.062 -1.2569 0.2362, -0.0299 -1.3145 0.2362, 0.0264 -1.3495 0.2362, 0.0823 -1.3579 0.2362, 0.1389 -1.3595 0.2362, 0.1841 -1.3595 0.2362, 0.1841 -1.0465 0.2362, 0.1564 -1.0465 0.2362, 0.0956 -1.0484 0.2362, 0.0355 -1.0576 0.2362, -0.0081 -1.0786 0.2362, -0.051 -1.1293 0.2362, -0.0683 -1.2079 0.2362, 0.1841 -1.0465 0.1969, 0.1841 -1.3595 0.1969, 0.1564 -1.0465 0.1969, 0.0956 -1.0484 0.1969, 0.0355 -1.0576 0.1969, -0.0081 -1.0786 0.1969, -0.051 -1.1293 0.1969, -0.0683 -1.2079 0.1969, -0.062 -1.2569 0.1969, -0.0299 -1.3145 0.1969, 0.0264 -1.3495 0.1969, 0.0823 -1.3579 0.1969, 0.1389 -1.3595 0.1969, 0.5122 -1.3999 0.2362, 0.5122 -1.0062 0.2362, 0.5122 -1.3999 0.1969, 0.5122 -1.0062 0.1969, 0.2901 -1.0062 0.2362, 0.2901 -1.0062 0.1969, 0.2901 -1.0465 0.2362, 0.2901 -1.0465 0.1969, 0.4769 -1.0465 0.2362, 0.4769 -1.0465 0.1969, 0.4769 -1.1677 0.2362, 0.4769 -1.1677 0.1969, 0.2901 -1.1677 0.2362, 0.2901 -1.1677 0.1969, 0.2901 -1.2081 0.2362, 0.2901 -1.2081 0.1969, 0.4769 -1.2081 0.2362, 0.4769 -1.2081 0.1969, 0.4769 -1.3595 0.2362, 0.4769 -1.3595 0.1969, 0.2901 -1.3595 0.2362, 0.2901 -1.3595 0.1969, 0.2901 -1.3999 0.2362, 0.2901 -1.3999 0.1969, 0.593 -1.0784 0.2362, 0.593 -1.0784 0.1969, 0.6054 -1.063 0.1969, 0.6054 -1.063 0.2362, 0.6283 -1.0412 0.1969, 0.6283 -1.0412 0.2362, 0.6687 -1.0163 0.1969, 0.6687 -1.0163 0.2362, 0.7647 -0.9961 0.1969, 0.7647 -0.9961 0.2362, 0.6239 -1.1021 0.2362, 0.6239 -1.1021 0.1969, 0.7669 -1.0364 0.2362, 0.7669 -1.0364 0.1969, 0.7507 -1.0371 0.1969, 0.7507 -1.0371 0.2362, 0.7248 -1.0407 0.1969, 0.7248 -1.0407 0.2362, 0.6877 -1.0527 0.1969, 0.6877 -1.0527 0.2362, 0.9412 -1.2034 0.2362, 0.9412 -1.2034 0.1969, 0.9406 -1.1875 0.1969, 0.9406 -1.1875 0.2362, 0.9152 -1.113 0.1969, 0.9152 -1.113 0.2362, 0.8542 -1.058 0.1969, 0.8542 -1.058 0.2362, 0.793 -1.0429 0.1969, 0.7645 -1.3696 0.2362, 0.7645 -1.3696 0.1969, 0.7893 -1.3683 0.1969, 0.7893 -1.3683 0.2362, 0.793 -1.367 0.1969, 0.8666 -1.3414 0.2362, 0.8666 -1.3414 0.1969, 0.9208 -1.2845 0.1969, 0.9208 -1.2845 0.2362, 0.6239 -1.304 0.2362, 0.6239 -1.304 0.1969, 0.6867 -1.3529 0.1969, 0.6867 -1.3529 0.2362, 0.593 -1.3274 0.2362, 0.593 -1.3274 0.1969, 0.7643 -1.41 0.2362, 0.7643 -1.41 0.1969, 0.7445 -1.4092 0.1969, 0.7445 -1.4092 0.2362, 0.7146 -1.4049 0.1969, 0.7133 -1.4047 0.2362, 0.7133 -1.4047 0.1969, 0.6685 -1.3895 0.1969, 0.6685 -1.3895 0.2362, 0.7924 -1.4049 0.1969, 0.9266 -1.3411 0.2362, 0.9266 -1.3411 0.1969, 0.9142 -1.3544 0.1969, 0.9142 -1.3544 0.2362, 0.8917 -1.373 0.1969, 0.8917 -1.373 0.2362, 0.8534 -1.3939 0.1969, 0.8534 -1.3939 0.2362, 0.793 -1.4048 0.1969, 0.9766 -1.2007 0.2362, 0.9766 -1.2007 0.1969, 0.9646 -1.2756 0.1969, 0.9646 -1.2756 0.2362, 0.7821 -0.9967 0.1969, 0.7821 -0.9967 0.2362, 0.793 -1.0002 0.1969, 0.8839 -1.0292 0.2362, 0.8839 -1.0292 0.1969, 0.9512 -1.1001 0.1969, 0.9512 -1.1001 0.2362, 1.2087 -1.3999 0.2362, 1.2087 -1.0062 0.2362, 1.2087 -1.3999 0.1969, 1.2087 -1.0062 0.1969, 1.1734 -1.0062 0.2362, 1.1734 -1.0062 0.1969, 1.1734 -1.3595 0.2362, 1.1734 -1.3595 0.1969, 1.022 -1.3595 0.2362, 1.022 -1.3595 0.1969, 1.022 -1.3999 0.2362, 1.022 -1.3999 0.1969
            ]
        }
        coordIndex [
            0,1,2,-1,2,1,3,-1,4,0,5,-1,5,0,2,-1,6,4,7,-1,7,4,5,-1,1,6,3,-1,3,6,7,-1,4,6,0,-1,0,6,1,-1,8,9,10,-1,10,9,11,-1,12,8,13,-1,13,8,10,-1,14,12,15,-1,15,12,13,-1,9,14,11,-1,11,14,15,-1,12,14,8,-1,8,14,9,-1,16,17,18,-1,18,17,19,-1,20,16,21,-1,21,16,18,-1,22,20,23,-1,23,20,21,-1,17,22,19,-1,19,22,23,-1,20,22,16,-1,16,22,17,-1,24,25,26,-1,26,25,27,-1,28,29,30,-1,30,29,24,-1,30,24,26,-1,31,29,32,-1,32,29,28,-1,27,25,33,-1,33,25,31,-1,33,31,32,-1,29,31,24,-1,24,31,25,-1,34,35,36,-1,36,35,37,-1,36,37,38,-1,38,37,39,-1,38,39,40,-1,40,39,41,-1,40,41,42,-1,42,41,43,-1,42,43,44,-1,44,43,45,-1,44,45,46,-1,46,45,47,-1,46,47,48,-1,48,47,49,-1,48,49,50,-1,50,49,51,-1,50,51,52,-1,52,51,53,-1,52,53,54,-1,54,53,55,-1,54,55,56,-1,56,55,57,-1,56,57,34,-1,34,57,35,-1,54,56,58,-1,58,56,34,-1,58,34,36,-1,48,50,58,-1,58,50,52,-1,58,52,54,-1,42,44,58,-1,58,44,46,-1,58,46,48,-1,36,38,58,-1,58,38,40,-1,58,40,42,-1,59,60,61,-1,61,60,62,-1,60,63,62,-1,62,63,64,-1,63,65,64,-1,64,65,66,-1,65,67,66,-1,66,67,68,-1,67,69,68,-1,68,69,70,-1,69,71,70,-1,70,71,72,-1,71,73,72,-1,72,73,74,-1,73,59,74,-1,74,59,61,-1,75,63,60,-1,59,76,60,-1,60,76,77,-1,60,77,75,-1,73,71,69,-1,65,63,67,-1,67,63,75,-1,67,75,69,-1,69,75,76,-1,69,76,73,-1,73,76,59,-1,75,77,78,-1,78,77,79,-1,76,75,80,-1,80,75,78,-1,77,76,79,-1,79,76,80,-1,81,82,83,-1,83,82,84,-1,82,85,84,-1,84,85,86,-1,85,87,86,-1,86,87,88,-1,89,90,91,-1,89,91,92,-1,92,91,88,-1,92,88,87,-1,93,94,95,-1,93,95,96,-1,96,95,97,-1,96,97,98,-1,98,97,90,-1,98,90,89,-1,81,83,99,-1,81,99,100,-1,100,99,101,-1,100,101,102,-1,102,101,103,-1,102,103,104,-1,104,103,94,-1,104,94,93,-1,105,106,102,-1,102,106,107,-1,102,107,100,-1,100,107,108,-1,100,108,81,-1,81,108,109,-1,81,109,82,-1,82,109,110,-1,82,110,85,-1,85,110,111,-1,85,111,87,-1,87,111,112,-1,87,112,92,-1,92,112,113,-1,92,113,89,-1,89,113,114,-1,89,114,98,-1,98,114,115,-1,98,115,96,-1,96,115,116,-1,96,116,93,-1,93,116,117,-1,93,117,104,-1,104,117,105,-1,104,105,102,-1,111,110,118,-1,118,110,119,-1,112,111,120,-1,120,111,118,-1,112,120,121,-1,112,121,113,-1,113,121,122,-1,113,122,114,-1,114,122,123,-1,114,123,115,-1,115,123,124,-1,115,124,116,-1,116,124,125,-1,116,125,117,-1,117,125,126,-1,117,126,105,-1,105,126,127,-1,105,127,106,-1,106,127,128,-1,106,128,107,-1,107,128,129,-1,107,129,108,-1,108,129,130,-1,108,130,109,-1,110,109,119,-1,119,109,130,-1,131,132,133,-1,133,132,134,-1,132,135,134,-1,134,135,136,-1,135,137,136,-1,136,137,138,-1,137,139,138,-1,138,139,140,-1,139,141,140,-1,140,141,142,-1,141,143,142,-1,142,143,144,-1,143,145,144,-1,144,145,146,-1,145,147,146,-1,146,147,148,-1,147,149,148,-1,148,149,150,-1,149,151,150,-1,150,151,152,-1,151,153,152,-1,152,153,154,-1,153,131,154,-1,154,131,133,-1,131,153,151,-1,151,149,131,-1,131,149,147,-1,131,147,132,-1,137,135,139,-1,139,135,132,-1,139,132,141,-1,141,132,147,-1,141,147,143,-1,143,147,145,-1,155,156,157,-1,155,157,158,-1,158,157,159,-1,158,159,160,-1,160,159,161,-1,160,161,162,-1,162,161,163,-1,162,163,164,-1,155,165,156,-1,156,165,166,-1,167,168,169,-1,167,169,170,-1,170,169,171,-1,170,171,172,-1,172,171,173,-1,172,173,174,-1,174,173,166,-1,174,166,165,-1,175,176,177,-1,175,177,178,-1,178,177,179,-1,178,179,180,-1,180,179,181,-1,180,181,182,-1,182,181,167,-1,167,181,183,-1,167,183,168,-1,184,185,186,-1,184,186,187,-1,187,186,188,-1,187,188,189,-1,188,190,189,-1,189,190,191,-1,189,191,192,-1,192,191,176,-1,192,176,175,-1,193,194,195,-1,193,195,196,-1,196,195,185,-1,196,185,184,-1,193,197,194,-1,194,197,198,-1,199,200,201,-1,199,201,202,-1,202,201,203,-1,202,203,204,-1,203,205,204,-1,204,205,206,-1,204,206,207,-1,207,206,198,-1,207,198,197,-1,208,200,199,-1,209,210,211,-1,209,211,212,-1,212,211,213,-1,212,213,214,-1,214,213,215,-1,214,215,216,-1,216,215,199,-1,199,215,217,-1,199,217,208,-1,218,219,220,-1,218,220,221,-1,221,220,210,-1,221,210,209,-1,164,163,222,-1,164,222,223,-1,223,222,224,-1,223,224,225,-1,224,226,225,-1,225,226,227,-1,225,227,228,-1,228,227,219,-1,228,219,218,-1,197,193,207,-1,207,193,196,-1,218,221,192,-1,192,221,189,-1,189,221,209,-1,189,209,212,-1,165,155,158,-1,165,158,174,-1,174,158,160,-1,174,160,162,-1,212,214,189,-1,189,214,216,-1,189,216,187,-1,187,216,199,-1,187,199,184,-1,184,199,202,-1,184,202,196,-1,196,202,204,-1,196,204,207,-1,192,175,218,-1,218,175,178,-1,218,178,228,-1,228,178,180,-1,228,180,225,-1,225,180,182,-1,225,182,223,-1,223,182,167,-1,223,167,164,-1,164,167,170,-1,164,170,162,-1,162,170,172,-1,162,172,174,-1,229,230,231,-1,231,230,232,-1,230,233,232,-1,232,233,234,-1,233,235,234,-1,234,235,236,-1,235,237,236,-1,236,237,238,-1,237,239,238,-1,238,239,240,-1,239,229,240,-1,240,229,231,-1,233,230,235,-1,235,230,229,-1,235,229,237,-1,237,229,239,-1,
        ]
    }
}
Shape{
    appearance Appearance {
        material  Material 	{
            diffuseColor 0.11372549019607843 0.11372549019607843 0.11372549019607843
            specularColor 0.058823529411764705 0.058823529411764705 0.058823529411764705
            ambientIntensity 0.1137
            transparency 0.0
            shininess 0.5
        }
    }
    geometry IndexedFaceSet {
        ccw TRUE
        solid FALSE
        coord DEF co Coordinate {
            point [
                -0.4123 -1.2333 0.1969, -0.3429 -1.0829 0.1969, -0.2717 -1.2333 0.1969, 0.1841 -1.0465 0.1969, 0.1841 -1.3595 0.1969, 0.1564 -1.0465 0.1969, 0.1389 -1.3595 0.1969, 0.0956 -1.0484 0.1969, 0.0823 -1.3579 0.1969, 0.0355 -1.0576 0.1969, 0.0264 -1.3495 0.1969, -0.0299 -1.3145 0.1969, -0.062 -1.2569 0.1969, -0.0683 -1.2079 0.1969, -0.051 -1.1293 0.1969, -0.0081 -1.0786 0.1969, -3.2409 0.3811 3.937, -3.2409 0.3811 0.0, -3.3 0.3653 0.0, -3.3 0.3653 3.937, -3.3432 0.3221 0.0, -3.3432 0.3221 3.937, -3.3591 0.263 0.0, -3.3591 0.263 3.937, -3.2409 0.263 4.0551, 4.2591 0.263 4.0551, 4.2591 0.3221 4.0393, -3.2409 0.3221 4.0393, 4.2591 0.3653 3.9961, -3.2409 0.3653 3.9961, 4.2591 0.3811 3.937, 4.3772 0.263 3.937, 4.3772 0.263 0.0, 4.3613 0.3221 0.0, 4.3613 0.3221 3.937, 4.3181 0.3653 0.0, 4.3181 0.3653 3.937, 4.2591 0.3811 0.0, -3.3432 0.263 3.9961, -3.3295 0.3141 3.9961, -3.2705 0.3141 4.0393, -3.2921 0.2925 4.0393, -3.2921 0.3516 3.9961, -3.3 0.263 4.0393, 4.3102 0.3516 3.9961, 4.3181 0.263 4.0393, 4.3102 0.2925 4.0393, 4.2886 0.3141 4.0393, 4.3476 0.3141 3.9961, 4.3613 0.263 3.9961, -3.3591 -2.2764 3.937, -3.3591 -2.2764 0.0, -3.3432 -2.3354 0.0, -3.3432 -2.3354 3.937, -3.3 -2.3787 0.0, -3.3 -2.3787 3.937, -3.2409 -2.3945 0.0, -3.2409 -2.3945 3.937, -3.2409 -2.2764 4.0551, -3.3 -2.2764 4.0393, -3.3432 -2.2764 3.9961, 4.2591 -2.2764 4.0551, 4.3181 -2.2764 4.0393, 4.3613 -2.2764 3.9961, 4.3772 -2.2764 3.937, 4.2591 -2.3945 3.937, 4.2591 -2.3945 0.0, 4.3181 -2.3787 0.0, 4.3181 -2.3787 3.937, 4.3613 -2.3354 0.0, 4.3613 -2.3354 3.937, 4.3772 -2.2764 0.0, -3.2409 -2.3787 3.9961, -3.2921 -2.365 3.9961, -3.2921 -2.3059 4.0393, -3.2705 -2.3275 4.0393, -3.3295 -2.3275 3.9961, -3.2409 -2.3354 4.0393, 4.3476 -2.3275 3.9961, 4.2591 -2.3354 4.0393, 4.2886 -2.3275 4.0393, 4.3102 -2.3059 4.0393, 4.3102 -2.365 3.9961, 4.2591 -2.3787 3.9961
            ]
        }
        coordIndex [
            0,1,2,-1,3,4,5,-1,5,4,6,-1,5,6,7,-1,7,6,8,-1,7,8,9,-1,10,11,8,-1,8,11,12,-1,8,12,13,-1,13,14,8,-1,8,14,15,-1,8,15,9,-1,16,17,18,-1,16,18,19,-1,19,18,20,-1,19,20,21,-1,21,20,22,-1,21,22,23,-1,24,25,26,-1,24,26,27,-1,27,26,28,-1,27,28,29,-1,29,28,30,-1,29,30,16,-1,31,32,33,-1,31,33,34,-1,34,33,35,-1,34,35,36,-1,36,35,37,-1,36,37,30,-1,23,38,39,-1,24,27,40,-1,38,41,39,-1,39,41,40,-1,39,40,42,-1,42,40,27,-1,42,27,29,-1,23,39,21,-1,21,39,42,-1,21,42,19,-1,19,42,29,-1,19,29,16,-1,41,24,40,-1,38,43,41,-1,41,43,24,-1,30,28,44,-1,25,45,46,-1,28,47,44,-1,44,47,46,-1,44,46,48,-1,48,46,45,-1,48,45,49,-1,30,44,36,-1,36,44,48,-1,36,48,34,-1,34,48,49,-1,34,49,31,-1,47,25,46,-1,28,26,47,-1,47,26,25,-1,50,51,52,-1,50,52,53,-1,53,52,54,-1,53,54,55,-1,55,54,56,-1,55,56,57,-1,58,24,43,-1,58,43,59,-1,59,43,38,-1,59,38,60,-1,60,38,23,-1,60,23,50,-1,25,61,62,-1,25,62,45,-1,45,62,63,-1,45,63,49,-1,49,63,64,-1,49,64,31,-1,65,66,67,-1,65,67,68,-1,68,67,69,-1,68,69,70,-1,70,69,71,-1,70,71,64,-1,57,72,73,-1,58,59,74,-1,72,75,73,-1,73,75,74,-1,73,74,76,-1,76,74,59,-1,76,59,60,-1,57,73,55,-1,55,73,76,-1,55,76,53,-1,53,76,60,-1,53,60,50,-1,75,58,74,-1,72,77,75,-1,75,77,58,-1,64,63,78,-1,61,79,80,-1,63,81,78,-1,78,81,80,-1,78,80,82,-1,82,80,79,-1,82,79,83,-1,64,78,70,-1,70,78,82,-1,70,82,68,-1,68,82,83,-1,68,83,65,-1,81,61,80,-1,63,62,81,-1,81,62,61,-1,61,58,77,-1,61,77,79,-1,79,77,72,-1,79,72,83,-1,83,72,57,-1,83,57,65,-1,
        ]
    }
}