  0
SECTION
  2
BLOCKS
  0
ENDSEC
  0
SECTION
  2
ENTITIES
  0
LINE
  8
0
 10
188.392
 20
-125.974
 11
188.776
 21
-125.898
  0
LINE
  8
0
 10
188.776
 20
-125.898
 11
189.148
 21
-125.772
  0
LINE
  8
0
 10
189.148
 20
-125.772
 11
189.5
 21
-125.598
  0
LINE
  8
0
 10
189.5
 20
-125.598
 11
189.826
 21
-125.38
  0
LINE
  8
0
 10
189.826
 20
-125.38
 11
190.121
 21
-125.121
  0
LINE
  8
0
 10
190.121
 20
-125.121
 11
190.38
 21
-124.826
  0
LINE
  8
0
 10
190.38
 20
-124.826
 11
190.598
 21
-124.5
  0
LINE
  8
0
 10
190.598
 20
-124.5
 11
190.772
 21
-124.148
  0
LINE
  8
0
 10
190.772
 20
-124.148
 11
190.898
 21
-123.776
  0
LINE
  8
0
 10
190.898
 20
-123.776
 11
190.974
 21
-123.392
  0
LINE
  8
0
 10
190.974
 20
-123.392
 11
191
 21
-123
  0
LINE
  8
0
 10
191
 20
-123
 11
191
 21
-7
  0
LINE
  8
0
 10
191
 20
-7
 11
190.974
 21
-6.60843
  0
LINE
  8
0
 10
190.974
 20
-6.60843
 11
190.898
 21
-6.22354
  0
LINE
  8
0
 10
190.898
 20
-6.22354
 11
190.772
 21
-5.85194
  0
LINE
  8
0
 10
190.772
 20
-5.85194
 11
190.598
 21
-5.5
  0
LINE
  8
0
 10
190.598
 20
-5.5
 11
190.38
 21
-5.17372
  0
LINE
  8
0
 10
190.38
 20
-5.17372
 11
190.121
 21
-4.87868
  0
LINE
  8
0
 10
190.121
 20
-4.87868
 11
189.826
 21
-4.61993
  0
LINE
  8
0
 10
189.826
 20
-4.61993
 11
189.5
 21
-4.40192
  0
LINE
  8
0
 10
189.5
 20
-4.40192
 11
189.148
 21
-4.22836
  0
LINE
  8
0
 10
189.148
 20
-4.22836
 11
188.776
 21
-4.10222
  0
LINE
  8
0
 10
188.776
 20
-4.10222
 11
188.392
 21
-4.02567
  0
LINE
  8
0
 10
188.392
 20
-4.02567
 11
188
 21
-4
  0
LINE
  8
0
 10
188
 20
-4
 11
-8
 21
-4
  0
LINE
  8
0
 10
-8
 20
-4
 11
-8.39157
 21
-4.02567
  0
LINE
  8
0
 10
-8.39157
 20
-4.02567
 11
-8.77646
 21
-4.10222
  0
LINE
  8
0
 10
-8.77646
 20
-4.10222
 11
-9.14806
 21
-4.22836
  0
LINE
  8
0
 10
-9.14806
 20
-4.22836
 11
-9.5
 21
-4.40192
  0
LINE
  8
0
 10
-9.5
 20
-4.40192
 11
-9.82628
 21
-4.61993
  0
LINE
  8
0
 10
-9.82628
 20
-4.61993
 11
-10.1213
 21
-4.87868
  0
LINE
  8
0
 10
-10.1213
 20
-4.87868
 11
-10.3801
 21
-5.17372
  0
LINE
  8
0
 10
-10.3801
 20
-5.17372
 11
-10.5981
 21
-5.5
  0
LINE
  8
0
 10
-10.5981
 20
-5.5
 11
-10.7716
 21
-5.85194
  0
LINE
  8
0
 10
-10.7716
 20
-5.85194
 11
-10.8978
 21
-6.22354
  0
LINE
  8
0
 10
-10.8978
 20
-6.22354
 11
-10.9743
 21
-6.60843
  0
LINE
  8
0
 10
-10.9743
 20
-6.60843
 11
-11
 21
-7
  0
LINE
  8
0
 10
-11
 20
-7
 11
-11
 21
-123
  0
LINE
  8
0
 10
-11
 20
-123
 11
-10.9743
 21
-123.392
  0
LINE
  8
0
 10
-10.9743
 20
-123.392
 11
-10.8978
 21
-123.776
  0
LINE
  8
0
 10
-10.8978
 20
-123.776
 11
-10.7716
 21
-124.148
  0
LINE
  8
0
 10
-10.7716
 20
-124.148
 11
-10.5981
 21
-124.5
  0
LINE
  8
0
 10
-10.5981
 20
-124.5
 11
-10.3801
 21
-124.826
  0
LINE
  8
0
 10
-10.3801
 20
-124.826
 11
-10.1213
 21
-125.121
  0
LINE
  8
0
 10
-10.1213
 20
-125.121
 11
-9.82628
 21
-125.38
  0
LINE
  8
0
 10
-9.82628
 20
-125.38
 11
-9.5
 21
-125.598
  0
LINE
  8
0
 10
-9.5
 20
-125.598
 11
-9.14806
 21
-125.772
  0
LINE
  8
0
 10
-9.14806
 20
-125.772
 11
-8.77646
 21
-125.898
  0
LINE
  8
0
 10
-8.77646
 20
-125.898
 11
-8.39157
 21
-125.974
  0
LINE
  8
0
 10
-8.39157
 20
-125.974
 11
-8
 21
-126
  0
LINE
  8
0
 10
-8
 20
-126
 11
188
 21
-126
  0
LINE
  8
0
 10
188
 20
-126
 11
188.392
 21
-125.974
  0
LINE
  8
0
 10
-6.21536
 20
-10.6359
 11
-6.42705
 21
-10.5938
  0
LINE
  8
0
 10
-6.42705
 20
-10.5938
 11
-6.63142
 21
-10.5244
  0
LINE
  8
0
 10
-6.63142
 20
-10.5244
 11
-6.825
 21
-10.4289
  0
LINE
  8
0
 10
-6.825
 20
-10.4289
 11
-7.00446
 21
-10.309
  0
LINE
  8
0
 10
-7.00446
 20
-10.309
 11
-7.16672
 21
-10.1667
  0
LINE
  8
0
 10
-7.16672
 20
-10.1667
 11
-7.30902
 21
-10.0045
  0
LINE
  8
0
 10
-7.30902
 20
-10.0045
 11
-7.42894
 21
-9.825
  0
LINE
  8
0
 10
-7.42894
 20
-9.825
 11
-7.5244
 21
-9.63142
  0
LINE
  8
0
 10
-7.5244
 20
-9.63142
 11
-7.59377
 21
-9.42705
  0
LINE
  8
0
 10
-7.59377
 20
-9.42705
 11
-7.63588
 21
-9.21536
  0
LINE
  8
0
 10
-7.63588
 20
-9.21536
 11
-7.64999
 21
-9
  0
LINE
  8
0
 10
-7.64999
 20
-9
 11
-7.63588
 21
-8.78462
  0
LINE
  8
0
 10
-7.63588
 20
-8.78462
 11
-7.59377
 21
-8.57294
  0
LINE
  8
0
 10
-7.59377
 20
-8.57294
 11
-7.5244
 21
-8.36856
  0
LINE
  8
0
 10
-7.5244
 20
-8.36856
 11
-7.42894
 21
-8.17499
  0
LINE
  8
0
 10
-7.42894
 20
-8.17499
 11
-7.30902
 21
-7.99553
  0
LINE
  8
0
 10
-7.30902
 20
-7.99553
 11
-7.16672
 21
-7.83327
  0
LINE
  8
0
 10
-7.16672
 20
-7.83327
 11
-7.00446
 21
-7.69096
  0
LINE
  8
0
 10
-7.00446
 20
-7.69096
 11
-6.825
 21
-7.57104
  0
LINE
  8
0
 10
-6.825
 20
-7.57104
 11
-6.63142
 21
-7.47559
  0
LINE
  8
0
 10
-6.63142
 20
-7.47559
 11
-6.42705
 21
-7.40622
  0
LINE
  8
0
 10
-6.42705
 20
-7.40622
 11
-6.21536
 21
-7.36411
  0
LINE
  8
0
 10
-6.21536
 20
-7.36411
 11
-6
 21
-7.34999
  0
LINE
  8
0
 10
-6
 20
-7.34999
 11
-5.78462
 21
-7.36411
  0
LINE
  8
0
 10
-5.78462
 20
-7.36411
 11
-5.57294
 21
-7.40622
  0
LINE
  8
0
 10
-5.57294
 20
-7.40622
 11
-5.36856
 21
-7.47559
  0
LINE
  8
0
 10
-5.36856
 20
-7.47559
 11
-5.17499
 21
-7.57104
  0
LINE
  8
0
 10
-5.17499
 20
-7.57104
 11
-4.99553
 21
-7.69096
  0
LINE
  8
0
 10
-4.99553
 20
-7.69096
 11
-4.83327
 21
-7.83327
  0
LINE
  8
0
 10
-4.83327
 20
-7.83327
 11
-4.69096
 21
-7.99553
  0
LINE
  8
0
 10
-4.69096
 20
-7.99553
 11
-4.57104
 21
-8.17499
  0
LINE
  8
0
 10
-4.57104
 20
-8.17499
 11
-4.47559
 21
-8.36856
  0
LINE
  8
0
 10
-4.47559
 20
-8.36856
 11
-4.40622
 21
-8.57294
  0
LINE
  8
0
 10
-4.40622
 20
-8.57294
 11
-4.36411
 21
-8.78462
  0
LINE
  8
0
 10
-4.36411
 20
-8.78462
 11
-4.34999
 21
-9
  0
LINE
  8
0
 10
-4.34999
 20
-9
 11
-4.36411
 21
-9.21536
  0
LINE
  8
0
 10
-4.36411
 20
-9.21536
 11
-4.40622
 21
-9.42705
  0
LINE
  8
0
 10
-4.40622
 20
-9.42705
 11
-4.47559
 21
-9.63142
  0
LINE
  8
0
 10
-4.47559
 20
-9.63142
 11
-4.57104
 21
-9.825
  0
LINE
  8
0
 10
-4.57104
 20
-9.825
 11
-4.69096
 21
-10.0045
  0
LINE
  8
0
 10
-4.69096
 20
-10.0045
 11
-4.83327
 21
-10.1667
  0
LINE
  8
0
 10
-4.83327
 20
-10.1667
 11
-4.99553
 21
-10.309
  0
LINE
  8
0
 10
-4.99553
 20
-10.309
 11
-5.17499
 21
-10.4289
  0
LINE
  8
0
 10
-5.17499
 20
-10.4289
 11
-5.36856
 21
-10.5244
  0
LINE
  8
0
 10
-5.36856
 20
-10.5244
 11
-5.57294
 21
-10.5938
  0
LINE
  8
0
 10
-5.57294
 20
-10.5938
 11
-5.78462
 21
-10.6359
  0
LINE
  8
0
 10
-5.78462
 20
-10.6359
 11
-6
 21
-10.65
  0
LINE
  8
0
 10
-6
 20
-10.65
 11
-6.21536
 21
-10.6359
  0
LINE
  8
0
 10
185.785
 20
-10.6359
 11
185.573
 21
-10.5938
  0
LINE
  8
0
 10
185.573
 20
-10.5938
 11
185.369
 21
-10.5244
  0
LINE
  8
0
 10
185.369
 20
-10.5244
 11
185.175
 21
-10.4289
  0
LINE
  8
0
 10
185.175
 20
-10.4289
 11
184.996
 21
-10.309
  0
LINE
  8
0
 10
184.996
 20
-10.309
 11
184.833
 21
-10.1667
  0
LINE
  8
0
 10
184.833
 20
-10.1667
 11
184.691
 21
-10.0045
  0
LINE
  8
0
 10
184.691
 20
-10.0045
 11
184.571
 21
-9.825
  0
LINE
  8
0
 10
184.571
 20
-9.825
 11
184.476
 21
-9.63142
  0
LINE
  8
0
 10
184.476
 20
-9.63142
 11
184.406
 21
-9.42705
  0
LINE
  8
0
 10
184.406
 20
-9.42705
 11
184.364
 21
-9.21536
  0
LINE
  8
0
 10
184.364
 20
-9.21536
 11
184.35
 21
-9
  0
LINE
  8
0
 10
184.35
 20
-9
 11
184.364
 21
-8.78462
  0
LINE
  8
0
 10
184.364
 20
-8.78462
 11
184.406
 21
-8.57294
  0
LINE
  8
0
 10
184.406
 20
-8.57294
 11
184.476
 21
-8.36856
  0
LINE
  8
0
 10
184.476
 20
-8.36856
 11
184.571
 21
-8.17499
  0
LINE
  8
0
 10
184.571
 20
-8.17499
 11
184.691
 21
-7.99553
  0
LINE
  8
0
 10
184.691
 20
-7.99553
 11
184.833
 21
-7.83327
  0
LINE
  8
0
 10
184.833
 20
-7.83327
 11
184.996
 21
-7.69096
  0
LINE
  8
0
 10
184.996
 20
-7.69096
 11
185.175
 21
-7.57104
  0
LINE
  8
0
 10
185.175
 20
-7.57104
 11
185.369
 21
-7.47559
  0
LINE
  8
0
 10
185.369
 20
-7.47559
 11
185.573
 21
-7.40622
  0
LINE
  8
0
 10
185.573
 20
-7.40622
 11
185.785
 21
-7.36411
  0
LINE
  8
0
 10
185.785
 20
-7.36411
 11
186
 21
-7.34999
  0
LINE
  8
0
 10
186
 20
-7.34999
 11
186.215
 21
-7.36411
  0
LINE
  8
0
 10
186.215
 20
-7.36411
 11
186.427
 21
-7.40622
  0
LINE
  8
0
 10
186.427
 20
-7.40622
 11
186.631
 21
-7.47559
  0
LINE
  8
0
 10
186.631
 20
-7.47559
 11
186.825
 21
-7.57104
  0
LINE
  8
0
 10
186.825
 20
-7.57104
 11
187.004
 21
-7.69096
  0
LINE
  8
0
 10
187.004
 20
-7.69096
 11
187.167
 21
-7.83327
  0
LINE
  8
0
 10
187.167
 20
-7.83327
 11
187.309
 21
-7.99553
  0
LINE
  8
0
 10
187.309
 20
-7.99553
 11
187.429
 21
-8.17499
  0
LINE
  8
0
 10
187.429
 20
-8.17499
 11
187.524
 21
-8.36856
  0
LINE
  8
0
 10
187.524
 20
-8.36856
 11
187.594
 21
-8.57294
  0
LINE
  8
0
 10
187.594
 20
-8.57294
 11
187.636
 21
-8.78462
  0
LINE
  8
0
 10
187.636
 20
-8.78462
 11
187.65
 21
-9
  0
LINE
  8
0
 10
187.65
 20
-9
 11
187.636
 21
-9.21536
  0
LINE
  8
0
 10
187.636
 20
-9.21536
 11
187.594
 21
-9.42705
  0
LINE
  8
0
 10
187.594
 20
-9.42705
 11
187.524
 21
-9.63142
  0
LINE
  8
0
 10
187.524
 20
-9.63142
 11
187.429
 21
-9.825
  0
LINE
  8
0
 10
187.429
 20
-9.825
 11
187.309
 21
-10.0045
  0
LINE
  8
0
 10
187.309
 20
-10.0045
 11
187.167
 21
-10.1667
  0
LINE
  8
0
 10
187.167
 20
-10.1667
 11
187.004
 21
-10.309
  0
LINE
  8
0
 10
187.004
 20
-10.309
 11
186.825
 21
-10.4289
  0
LINE
  8
0
 10
186.825
 20
-10.4289
 11
186.631
 21
-10.5244
  0
LINE
  8
0
 10
186.631
 20
-10.5244
 11
186.427
 21
-10.5938
  0
LINE
  8
0
 10
186.427
 20
-10.5938
 11
186.215
 21
-10.6359
  0
LINE
  8
0
 10
186.215
 20
-10.6359
 11
186
 21
-10.65
  0
LINE
  8
0
 10
186
 20
-10.65
 11
185.785
 21
-10.6359
  0
LINE
  8
0
 10
-6.21536
 20
-122.636
 11
-6.42705
 21
-122.594
  0
LINE
  8
0
 10
-6.42705
 20
-122.594
 11
-6.63142
 21
-122.524
  0
LINE
  8
0
 10
-6.63142
 20
-122.524
 11
-6.825
 21
-122.429
  0
LINE
  8
0
 10
-6.825
 20
-122.429
 11
-7.00446
 21
-122.309
  0
LINE
  8
0
 10
-7.00446
 20
-122.309
 11
-7.16672
 21
-122.167
  0
LINE
  8
0
 10
-7.16672
 20
-122.167
 11
-7.30902
 21
-122.004
  0
LINE
  8
0
 10
-7.30902
 20
-122.004
 11
-7.42894
 21
-121.825
  0
LINE
  8
0
 10
-7.42894
 20
-121.825
 11
-7.5244
 21
-121.631
  0
LINE
  8
0
 10
-7.5244
 20
-121.631
 11
-7.59377
 21
-121.427
  0
LINE
  8
0
 10
-7.59377
 20
-121.427
 11
-7.63588
 21
-121.215
  0
LINE
  8
0
 10
-7.63588
 20
-121.215
 11
-7.64999
 21
-121
  0
LINE
  8
0
 10
-7.64999
 20
-121
 11
-7.63588
 21
-120.785
  0
LINE
  8
0
 10
-7.63588
 20
-120.785
 11
-7.59377
 21
-120.573
  0
LINE
  8
0
 10
-7.59377
 20
-120.573
 11
-7.5244
 21
-120.369
  0
LINE
  8
0
 10
-7.5244
 20
-120.369
 11
-7.42894
 21
-120.175
  0
LINE
  8
0
 10
-7.42894
 20
-120.175
 11
-7.30902
 21
-119.996
  0
LINE
  8
0
 10
-7.30902
 20
-119.996
 11
-7.16672
 21
-119.833
  0
LINE
  8
0
 10
-7.16672
 20
-119.833
 11
-7.00446
 21
-119.691
  0
LINE
  8
0
 10
-7.00446
 20
-119.691
 11
-6.825
 21
-119.571
  0
LINE
  8
0
 10
-6.825
 20
-119.571
 11
-6.63142
 21
-119.476
  0
LINE
  8
0
 10
-6.63142
 20
-119.476
 11
-6.42705
 21
-119.406
  0
LINE
  8
0
 10
-6.42705
 20
-119.406
 11
-6.21536
 21
-119.364
  0
LINE
  8
0
 10
-6.21536
 20
-119.364
 11
-6
 21
-119.35
  0
LINE
  8
0
 10
-6
 20
-119.35
 11
-5.78462
 21
-119.364
  0
LINE
  8
0
 10
-5.78462
 20
-119.364
 11
-5.57294
 21
-119.406
  0
LINE
  8
0
 10
-5.57294
 20
-119.406
 11
-5.36856
 21
-119.476
  0
LINE
  8
0
 10
-5.36856
 20
-119.476
 11
-5.17499
 21
-119.571
  0
LINE
  8
0
 10
-5.17499
 20
-119.571
 11
-4.99553
 21
-119.691
  0
LINE
  8
0
 10
-4.99553
 20
-119.691
 11
-4.83327
 21
-119.833
  0
LINE
  8
0
 10
-4.83327
 20
-119.833
 11
-4.69096
 21
-119.996
  0
LINE
  8
0
 10
-4.69096
 20
-119.996
 11
-4.57104
 21
-120.175
  0
LINE
  8
0
 10
-4.57104
 20
-120.175
 11
-4.47559
 21
-120.369
  0
LINE
  8
0
 10
-4.47559
 20
-120.369
 11
-4.40622
 21
-120.573
  0
LINE
  8
0
 10
-4.40622
 20
-120.573
 11
-4.36411
 21
-120.785
  0
LINE
  8
0
 10
-4.36411
 20
-120.785
 11
-4.34999
 21
-121
  0
LINE
  8
0
 10
-4.34999
 20
-121
 11
-4.36411
 21
-121.215
  0
LINE
  8
0
 10
-4.36411
 20
-121.215
 11
-4.40622
 21
-121.427
  0
LINE
  8
0
 10
-4.40622
 20
-121.427
 11
-4.47559
 21
-121.631
  0
LINE
  8
0
 10
-4.47559
 20
-121.631
 11
-4.57104
 21
-121.825
  0
LINE
  8
0
 10
-4.57104
 20
-121.825
 11
-4.69096
 21
-122.004
  0
LINE
  8
0
 10
-4.69096
 20
-122.004
 11
-4.83327
 21
-122.167
  0
LINE
  8
0
 10
-4.83327
 20
-122.167
 11
-4.99553
 21
-122.309
  0
LINE
  8
0
 10
-4.99553
 20
-122.309
 11
-5.17499
 21
-122.429
  0
LINE
  8
0
 10
-5.17499
 20
-122.429
 11
-5.36856
 21
-122.524
  0
LINE
  8
0
 10
-5.36856
 20
-122.524
 11
-5.57294
 21
-122.594
  0
LINE
  8
0
 10
-5.57294
 20
-122.594
 11
-5.78462
 21
-122.636
  0
LINE
  8
0
 10
-5.78462
 20
-122.636
 11
-6
 21
-122.65
  0
LINE
  8
0
 10
-6
 20
-122.65
 11
-6.21536
 21
-122.636
  0
LINE
  8
0
 10
185.785
 20
-122.636
 11
185.573
 21
-122.594
  0
LINE
  8
0
 10
185.573
 20
-122.594
 11
185.369
 21
-122.524
  0
LINE
  8
0
 10
185.369
 20
-122.524
 11
185.175
 21
-122.429
  0
LINE
  8
0
 10
185.175
 20
-122.429
 11
184.996
 21
-122.309
  0
LINE
  8
0
 10
184.996
 20
-122.309
 11
184.833
 21
-122.167
  0
LINE
  8
0
 10
184.833
 20
-122.167
 11
184.691
 21
-122.004
  0
LINE
  8
0
 10
184.691
 20
-122.004
 11
184.571
 21
-121.825
  0
LINE
  8
0
 10
184.571
 20
-121.825
 11
184.476
 21
-121.631
  0
LINE
  8
0
 10
184.476
 20
-121.631
 11
184.406
 21
-121.427
  0
LINE
  8
0
 10
184.406
 20
-121.427
 11
184.364
 21
-121.215
  0
LINE
  8
0
 10
184.364
 20
-121.215
 11
184.35
 21
-121
  0
LINE
  8
0
 10
184.35
 20
-121
 11
184.364
 21
-120.785
  0
LINE
  8
0
 10
184.364
 20
-120.785
 11
184.406
 21
-120.573
  0
LINE
  8
0
 10
184.406
 20
-120.573
 11
184.476
 21
-120.369
  0
LINE
  8
0
 10
184.476
 20
-120.369
 11
184.571
 21
-120.175
  0
LINE
  8
0
 10
184.571
 20
-120.175
 11
184.691
 21
-119.996
  0
LINE
  8
0
 10
184.691
 20
-119.996
 11
184.833
 21
-119.833
  0
LINE
  8
0
 10
184.833
 20
-119.833
 11
184.996
 21
-119.691
  0
LINE
  8
0
 10
184.996
 20
-119.691
 11
185.175
 21
-119.571
  0
LINE
  8
0
 10
185.175
 20
-119.571
 11
185.369
 21
-119.476
  0
LINE
  8
0
 10
185.369
 20
-119.476
 11
185.573
 21
-119.406
  0
LINE
  8
0
 10
185.573
 20
-119.406
 11
185.785
 21
-119.364
  0
LINE
  8
0
 10
185.785
 20
-119.364
 11
186
 21
-119.35
  0
LINE
  8
0
 10
186
 20
-119.35
 11
186.215
 21
-119.364
  0
LINE
  8
0
 10
186.215
 20
-119.364
 11
186.427
 21
-119.406
  0
LINE
  8
0
 10
186.427
 20
-119.406
 11
186.631
 21
-119.476
  0
LINE
  8
0
 10
186.631
 20
-119.476
 11
186.825
 21
-119.571
  0
LINE
  8
0
 10
186.825
 20
-119.571
 11
187.004
 21
-119.691
  0
LINE
  8
0
 10
187.004
 20
-119.691
 11
187.167
 21
-119.833
  0
LINE
  8
0
 10
187.167
 20
-119.833
 11
187.309
 21
-119.996
  0
LINE
  8
0
 10
187.309
 20
-119.996
 11
187.429
 21
-120.175
  0
LINE
  8
0
 10
187.429
 20
-120.175
 11
187.524
 21
-120.369
  0
LINE
  8
0
 10
187.524
 20
-120.369
 11
187.594
 21
-120.573
  0
LINE
  8
0
 10
187.594
 20
-120.573
 11
187.636
 21
-120.785
  0
LINE
  8
0
 10
187.636
 20
-120.785
 11
187.65
 21
-121
  0
LINE
  8
0
 10
187.65
 20
-121
 11
187.636
 21
-121.215
  0
LINE
  8
0
 10
187.636
 20
-121.215
 11
187.594
 21
-121.427
  0
LINE
  8
0
 10
187.594
 20
-121.427
 11
187.524
 21
-121.631
  0
LINE
  8
0
 10
187.524
 20
-121.631
 11
187.429
 21
-121.825
  0
LINE
  8
0
 10
187.429
 20
-121.825
 11
187.309
 21
-122.004
  0
LINE
  8
0
 10
187.309
 20
-122.004
 11
187.167
 21
-122.167
  0
LINE
  8
0
 10
187.167
 20
-122.167
 11
187.004
 21
-122.309
  0
LINE
  8
0
 10
187.004
 20
-122.309
 11
186.825
 21
-122.429
  0
LINE
  8
0
 10
186.825
 20
-122.429
 11
186.631
 21
-122.524
  0
LINE
  8
0
 10
186.631
 20
-122.524
 11
186.427
 21
-122.594
  0
LINE
  8
0
 10
186.427
 20
-122.594
 11
186.215
 21
-122.636
  0
LINE
  8
0
 10
186.215
 20
-122.636
 11
186
 21
-122.65
  0
LINE
  8
0
 10
186
 20
-122.65
 11
185.785
 21
-122.636
  0
ENDSEC
  0
SECTION
  2
OBJECTS
  0
DICTIONARY
  0
ENDSEC
  0
EOF
