%TF.GenerationSoftware,KiCad,Pcbnew,10.0.3*%
%TF.CreationDate,2026-10-01T05:43:45+08:00*%
%TF.ProjectId,class-board,636c6173-732d-4626-9f61-72642e6b6963,A*%
%TF.SameCoordinates,Original*%
%TF.FileFunction,Legend,Bot*%
%TF.FilePolarity,Positive*%
%FSLAX46Y46*%
G04 Gerber Fmt 4.6, Leading zero omitted, Abs format (unit mm)*
G04 Created by KiCad (PCBNEW 10.0.3) date 2026-10-01 05:43:45*
%MOMM*%
%LPD*%
G01*
G04 APERTURE LIST*
%ADD10C,0.150000*%
%ADD11C,0.120000*%
%ADD12R,1.600000X1.600000*%
%ADD13C,1.600000*%
%ADD14C,3.200000*%
%ADD15C,2.200000*%
%ADD16O,4.600000X2.000000*%
%ADD17O,2.000000X4.600000*%
%ADD18R,1.700000X1.700000*%
%ADD19C,1.700000*%
%ADD20C,0.700000*%
%ADD21O,1.100000X1.900000*%
%ADD22O,1.200000X1.600000*%
%ADD23R,2.000000X2.000000*%
%ADD24C,2.000000*%
G04 APERTURE END LIST*
D10*
X177923333Y45545181D02*
X177923333Y44830896D01*
X177923333Y44830896D02*
X177970952Y44688039D01*
X177970952Y44688039D02*
X178066190Y44592800D01*
X178066190Y44592800D02*
X178209047Y44545181D01*
X178209047Y44545181D02*
X178304285Y44545181D01*
X177542380Y45545181D02*
X176875714Y45545181D01*
X176875714Y45545181D02*
X177304285Y44545181D01*
X137949819Y84178334D02*
X138664104Y84178334D01*
X138664104Y84178334D02*
X138806961Y84225953D01*
X138806961Y84225953D02*
X138902200Y84321191D01*
X138902200Y84321191D02*
X138949819Y84464048D01*
X138949819Y84464048D02*
X138949819Y84559286D01*
X137949819Y83273572D02*
X137949819Y83464048D01*
X137949819Y83464048D02*
X137997438Y83559286D01*
X137997438Y83559286D02*
X138045057Y83606905D01*
X138045057Y83606905D02*
X138187914Y83702143D01*
X138187914Y83702143D02*
X138378390Y83749762D01*
X138378390Y83749762D02*
X138759342Y83749762D01*
X138759342Y83749762D02*
X138854580Y83702143D01*
X138854580Y83702143D02*
X138902200Y83654524D01*
X138902200Y83654524D02*
X138949819Y83559286D01*
X138949819Y83559286D02*
X138949819Y83368810D01*
X138949819Y83368810D02*
X138902200Y83273572D01*
X138902200Y83273572D02*
X138854580Y83225953D01*
X138854580Y83225953D02*
X138759342Y83178334D01*
X138759342Y83178334D02*
X138521247Y83178334D01*
X138521247Y83178334D02*
X138426009Y83225953D01*
X138426009Y83225953D02*
X138378390Y83273572D01*
X138378390Y83273572D02*
X138330771Y83368810D01*
X138330771Y83368810D02*
X138330771Y83559286D01*
X138330771Y83559286D02*
X138378390Y83654524D01*
X138378390Y83654524D02*
X138426009Y83702143D01*
X138426009Y83702143D02*
X138521247Y83749762D01*
X9923333Y22925181D02*
X9923333Y22210896D01*
X9923333Y22210896D02*
X9970952Y22068039D01*
X9970952Y22068039D02*
X10066190Y21972800D01*
X10066190Y21972800D02*
X10209047Y21925181D01*
X10209047Y21925181D02*
X10304285Y21925181D01*
X9304285Y22496610D02*
X9399523Y22544229D01*
X9399523Y22544229D02*
X9447142Y22591848D01*
X9447142Y22591848D02*
X9494761Y22687086D01*
X9494761Y22687086D02*
X9494761Y22734705D01*
X9494761Y22734705D02*
X9447142Y22829943D01*
X9447142Y22829943D02*
X9399523Y22877562D01*
X9399523Y22877562D02*
X9304285Y22925181D01*
X9304285Y22925181D02*
X9113809Y22925181D01*
X9113809Y22925181D02*
X9018571Y22877562D01*
X9018571Y22877562D02*
X8970952Y22829943D01*
X8970952Y22829943D02*
X8923333Y22734705D01*
X8923333Y22734705D02*
X8923333Y22687086D01*
X8923333Y22687086D02*
X8970952Y22591848D01*
X8970952Y22591848D02*
X9018571Y22544229D01*
X9018571Y22544229D02*
X9113809Y22496610D01*
X9113809Y22496610D02*
X9304285Y22496610D01*
X9304285Y22496610D02*
X9399523Y22448991D01*
X9399523Y22448991D02*
X9447142Y22401372D01*
X9447142Y22401372D02*
X9494761Y22306134D01*
X9494761Y22306134D02*
X9494761Y22115658D01*
X9494761Y22115658D02*
X9447142Y22020420D01*
X9447142Y22020420D02*
X9399523Y21972800D01*
X9399523Y21972800D02*
X9304285Y21925181D01*
X9304285Y21925181D02*
X9113809Y21925181D01*
X9113809Y21925181D02*
X9018571Y21972800D01*
X9018571Y21972800D02*
X8970952Y22020420D01*
X8970952Y22020420D02*
X8923333Y22115658D01*
X8923333Y22115658D02*
X8923333Y22306134D01*
X8923333Y22306134D02*
X8970952Y22401372D01*
X8970952Y22401372D02*
X9018571Y22448991D01*
X9018571Y22448991D02*
X9113809Y22496610D01*
%TO.C,J7*%
D11*
X170400000Y70460000D02*
X170400000Y69130000D01*
X170400000Y67860000D02*
X170400000Y19540000D01*
X171730000Y70460000D02*
X170400000Y70460000D01*
X173000000Y70460000D02*
X173000000Y67860000D01*
X173000000Y67860000D02*
X170400000Y67860000D01*
X175600000Y70460000D02*
X173000000Y70460000D01*
X175600000Y70460000D02*
X175600000Y19540000D01*
X175600000Y19540000D02*
X170400000Y19540000D01*
%TO.C,J6*%
X113035000Y76655000D02*
X113035000Y81855000D01*
X161355000Y81855000D02*
X113035000Y81855000D01*
X161355000Y79255000D02*
X161355000Y81855000D01*
X163955000Y81855000D02*
X162625000Y81855000D01*
X163955000Y80525000D02*
X163955000Y81855000D01*
X163955000Y79255000D02*
X161355000Y79255000D01*
X163955000Y76655000D02*
X113035000Y76655000D01*
X163955000Y76655000D02*
X163955000Y79255000D01*
%TO.C,J8*%
X2400000Y47840000D02*
X7600000Y47840000D01*
X2400000Y-3080000D02*
X2400000Y47840000D01*
X2400000Y-3080000D02*
X5000000Y-3080000D01*
X5000000Y-480000D02*
X7600000Y-480000D01*
X5000000Y-3080000D02*
X5000000Y-480000D01*
X6270000Y-3080000D02*
X7600000Y-3080000D01*
X7600000Y-480000D02*
X7600000Y47840000D01*
X7600000Y-3080000D02*
X7600000Y-1750000D01*
%TD*%
%LPC*%
D12*
%TO.C,J1*%
X53530000Y18700000D03*
D13*
X56070000Y18700000D03*
X58610000Y18700000D03*
X61150000Y18700000D03*
X63690000Y18700000D03*
X66230000Y18700000D03*
X68770000Y18700000D03*
X71310000Y18700000D03*
X73850000Y18700000D03*
X76390000Y18700000D03*
X78930000Y18700000D03*
X81470000Y18700000D03*
X84010000Y18700000D03*
X86550000Y18700000D03*
X89090000Y18700000D03*
X91630000Y18700000D03*
X94170000Y18700000D03*
X96710000Y18700000D03*
X99250000Y18700000D03*
X101790000Y18700000D03*
X104330000Y18700000D03*
X106870000Y18700000D03*
%TD*%
D14*
%TO.C,H4*%
X176000000Y-11000000D03*
%TD*%
%TO.C,H2*%
X176000000Y81000000D03*
%TD*%
%TO.C,H3*%
X4000000Y-11000000D03*
%TD*%
D15*
%TO.C,J901*%
X52375000Y80155000D03*
X47375000Y80155000D03*
%TD*%
D14*
%TO.C,H1*%
X4000000Y81000000D03*
%TD*%
D16*
%TO.C,J202*%
X34900000Y70350000D03*
X34900000Y76550000D03*
D17*
X30200000Y73600000D03*
%TD*%
D12*
%TO.C,J2*%
X53530000Y43700000D03*
D13*
X56070000Y43700000D03*
X58610000Y43700000D03*
X61150000Y43700000D03*
X63690000Y43700000D03*
X66230000Y43700000D03*
X68770000Y43700000D03*
X71310000Y43700000D03*
X73850000Y43700000D03*
X76390000Y43700000D03*
X78930000Y43700000D03*
X81470000Y43700000D03*
X84010000Y43700000D03*
X86550000Y43700000D03*
X89090000Y43700000D03*
X91630000Y43700000D03*
X94170000Y43700000D03*
X96710000Y43700000D03*
X99250000Y43700000D03*
X101790000Y43700000D03*
X104330000Y43700000D03*
X106870000Y43700000D03*
%TD*%
D18*
%TO.C,J14*%
X134359995Y69100000D03*
D19*
X136900000Y69100000D03*
X139440005Y69100000D03*
%TD*%
D15*
%TO.C,J905*%
X84900000Y80350000D03*
X79900000Y80350000D03*
X74900000Y80350000D03*
%TD*%
D18*
%TO.C,J15*%
X136059995Y72250000D03*
D19*
X138600000Y72250000D03*
X141140005Y72250000D03*
%TD*%
D20*
%TO.C,J201*%
X20890000Y78100000D03*
X15110000Y78100000D03*
D21*
X22320000Y77570000D03*
D22*
X22320000Y81780000D03*
D21*
X13680000Y77570000D03*
D22*
X13680000Y81780000D03*
%TD*%
D18*
%TO.C,J10*%
X155334995Y18050000D03*
D19*
X157875000Y18050000D03*
X160415005Y18050000D03*
%TD*%
D12*
%TO.C,PS202*%
X16850000Y30700000D03*
D13*
X16850000Y28160000D03*
X16850000Y23080000D03*
X16850000Y18000000D03*
%TD*%
D18*
%TO.C,J11*%
X151024998Y33459997D03*
D19*
X151024998Y36000002D03*
X151024998Y38540007D03*
%TD*%
D18*
%TO.C,J12*%
X69200000Y58090005D03*
D19*
X69200000Y55550000D03*
X69200000Y53009995D03*
%TD*%
D23*
%TO.C,J13*%
X79829997Y60050000D03*
D24*
X82370003Y60050000D03*
%TD*%
D12*
%TO.C,PS201*%
X33250000Y31050000D03*
D13*
X33250000Y28510000D03*
X33250000Y23430000D03*
X33250000Y18350000D03*
%TD*%
D15*
%TO.C,J903*%
X66775000Y80305000D03*
X61775000Y80305000D03*
%TD*%
D18*
%TO.C,J3*%
X36100000Y5125000D03*
D19*
X33559995Y5125000D03*
X31019990Y5125000D03*
%TD*%
D18*
%TO.C,J9*%
X21745006Y-7650000D03*
D19*
X19205001Y-7650000D03*
X16664996Y-7650000D03*
%TD*%
D18*
%TO.C,J7*%
X171730000Y69130000D03*
D19*
X174270000Y69130000D03*
X171730000Y66590000D03*
X174270000Y66590000D03*
X171730000Y64050000D03*
X174270000Y64050000D03*
X171730000Y61510000D03*
X174270000Y61510000D03*
X171730000Y58970000D03*
X174270000Y58970000D03*
X171730000Y56430000D03*
X174270000Y56430000D03*
X171730000Y53890000D03*
X174270000Y53890000D03*
X171730000Y51350000D03*
X174270000Y51350000D03*
X171730000Y48810000D03*
X174270000Y48810000D03*
X171730000Y46270000D03*
X174270000Y46270000D03*
X171730000Y43730000D03*
X174270000Y43730000D03*
X171730000Y41190000D03*
X174270000Y41190000D03*
X171730000Y38650000D03*
X174270000Y38650000D03*
X171730000Y36110000D03*
X174270000Y36110000D03*
X171730000Y33570000D03*
X174270000Y33570000D03*
X171730000Y31030000D03*
X174270000Y31030000D03*
X171730000Y28490000D03*
X174270000Y28490000D03*
X171730000Y25950000D03*
X174270000Y25950000D03*
X171730000Y23410000D03*
X174270000Y23410000D03*
X171730000Y20870000D03*
X174270000Y20870000D03*
%TD*%
D18*
%TO.C,J6*%
X162625000Y80525000D03*
D19*
X162625000Y77985000D03*
X160085000Y80525000D03*
X160085000Y77985000D03*
X157545000Y80525000D03*
X157545000Y77985000D03*
X155005000Y80525000D03*
X155005000Y77985000D03*
X152465000Y80525000D03*
X152465000Y77985000D03*
X149925000Y80525000D03*
X149925000Y77985000D03*
X147385000Y80525000D03*
X147385000Y77985000D03*
X144845000Y80525000D03*
X144845000Y77985000D03*
X142305000Y80525000D03*
X142305000Y77985000D03*
X139765000Y80525000D03*
X139765000Y77985000D03*
X137225000Y80525000D03*
X137225000Y77985000D03*
X134685000Y80525000D03*
X134685000Y77985000D03*
X132145000Y80525000D03*
X132145000Y77985000D03*
X129605000Y80525000D03*
X129605000Y77985000D03*
X127065000Y80525000D03*
X127065000Y77985000D03*
X124525000Y80525000D03*
X124525000Y77985000D03*
X121985000Y80525000D03*
X121985000Y77985000D03*
X119445000Y80525000D03*
X119445000Y77985000D03*
X116905000Y80525000D03*
X116905000Y77985000D03*
X114365000Y80525000D03*
X114365000Y77985000D03*
%TD*%
D18*
%TO.C,J8*%
X6270000Y-1750000D03*
D19*
X3730000Y-1750000D03*
X6270000Y790000D03*
X3730000Y790000D03*
X6270000Y3330000D03*
X3730000Y3330000D03*
X6270000Y5870000D03*
X3730000Y5870000D03*
X6270000Y8410000D03*
X3730000Y8410000D03*
X6270000Y10950000D03*
X3730000Y10950000D03*
X6270000Y13490000D03*
X3730000Y13490000D03*
X6270000Y16030000D03*
X3730000Y16030000D03*
X6270000Y18570000D03*
X3730000Y18570000D03*
X6270000Y21110000D03*
X3730000Y21110000D03*
X6270000Y23650000D03*
X3730000Y23650000D03*
X6270000Y26190000D03*
X3730000Y26190000D03*
X6270000Y28730000D03*
X3730000Y28730000D03*
X6270000Y31270000D03*
X3730000Y31270000D03*
X6270000Y33810000D03*
X3730000Y33810000D03*
X6270000Y36350000D03*
X3730000Y36350000D03*
X6270000Y38890000D03*
X3730000Y38890000D03*
X6270000Y41430000D03*
X3730000Y41430000D03*
X6270000Y43970000D03*
X3730000Y43970000D03*
X6270000Y46510000D03*
X3730000Y46510000D03*
%TD*%
%LPD*%
M02*
