%TF.GenerationSoftware,KiCad,Pcbnew,10.0.3*%
%TF.CreationDate,2026-10-05T04:03:26+08:00*%
%TF.ProjectId,class-board,636c6173-732d-4626-9f61-72642e6b6963,A*%
%TF.SameCoordinates,Original*%
%TF.FileFunction,Soldermask,Top*%
%TF.FilePolarity,Negative*%
%FSLAX46Y46*%
G04 Gerber Fmt 4.6, Leading zero omitted, Abs format (unit mm)*
G04 Created by KiCad (PCBNEW 10.0.3) date 2026-10-05 04:03:26*
%MOMM*%
%LPD*%
G01*
G04 APERTURE LIST*
G04 Aperture macros list*
%AMRoundRect*
0 Rectangle with rounded corners*
0 $1 Rounding radius*
0 $2 $3 $4 $5 $6 $7 $8 $9 X,Y pos of 4 corners*
0 Add a 4 corners polygon primitive as box body*
4,1,4,$2,$3,$4,$5,$6,$7,$8,$9,$2,$3,0*
0 Add four circle primitives for the rounded corners*
1,1,$1+$1,$2,$3*
1,1,$1+$1,$4,$5*
1,1,$1+$1,$6,$7*
1,1,$1+$1,$8,$9*
0 Add four rect primitives between the rounded corners*
20,1,$1+$1,$2,$3,$4,$5,0*
20,1,$1+$1,$4,$5,$6,$7,0*
20,1,$1+$1,$6,$7,$8,$9,0*
20,1,$1+$1,$8,$9,$2,$3,0*%
%AMFreePoly0*
4,1,245,0.928425,0.999946,0.972951,0.998879,0.975260,0.998770,1.019685,0.995646,1.022022,0.995426,1.066269,0.990219,1.068580,0.989893,1.112522,0.982629,1.114858,0.982185,1.158419,0.972837,1.160677,0.972297,1.203730,0.960944,1.205978,0.960295,1.248472,0.946934,1.250699,0.946176,1.292507,0.930835,1.294700,0.929971,1.335747,0.912673,1.337854,0.911727,1.378062,0.892550,
1.380178,0.891479,1.419421,0.870423,1.421464,0.869263,1.459691,0.846377,1.461664,0.845133,1.498773,0.820495,1.500686,0.819159,1.536602,0.792819,1.538469,0.791382,1.573089,0.763392,1.574882,0.761870,1.608181,0.732253,1.609891,0.730660,1.641743,0.699545,1.643378,0.697871,1.673756,0.665283,1.675313,0.663532,1.704117,0.629572,1.705596,0.627743,1.732774,0.592463,
1.734160,0.590573,1.759662,0.554047,1.760961,0.552090,1.784710,0.514422,1.785913,0.512413,1.807884,0.473653,1.808981,0.471607,1.829123,0.431881,1.833256,0.420476,1.842571,0.379971,3.500095,0.379971,3.535450,0.365326,3.550095,0.329971,3.550095,-0.330022,3.535450,-0.365377,3.500095,-0.380022,1.842578,-0.380022,1.833258,-0.420572,1.829123,-0.431983,1.808981,-0.471708,
1.807884,-0.473753,1.785913,-0.512514,1.784710,-0.514524,1.760961,-0.552192,1.759662,-0.554150,1.734160,-0.590675,1.732774,-0.592564,1.705596,-0.627845,1.704117,-0.629674,1.675313,-0.663634,1.673756,-0.665385,1.643378,-0.697973,1.641743,-0.699647,1.609891,-0.730762,1.608181,-0.732356,1.574882,-0.761972,1.573089,-0.763492,1.538469,-0.791483,1.536602,-0.792921,1.500686,-0.819261,
1.498773,-0.820597,1.461664,-0.845235,1.459691,-0.846480,1.421464,-0.869365,1.419422,-0.870523,1.380179,-0.891580,1.378062,-0.892652,1.337854,-0.911829,1.335746,-0.912775,1.294699,-0.930072,1.292508,-0.930935,1.250700,-0.946277,1.248471,-0.947036,1.205977,-0.960396,1.203731,-0.961045,1.160678,-0.972399,1.158418,-0.972939,1.114857,-0.982286,1.112523,-0.982729,1.068581,-0.989994,
1.066269,-0.990321,1.022022,-0.995528,1.019685,-0.995748,0.975260,-0.998872,0.972951,-0.998981,0.928425,-1.000048,0.927227,-1.000062,-0.926973,-1.000062,-0.928171,-1.000048,-0.972697,-0.998981,-0.975006,-0.998872,-1.019431,-0.995748,-1.021768,-0.995528,-1.066015,-0.990321,-1.068327,-0.989994,-1.112269,-0.982729,-1.114603,-0.982286,-1.158164,-0.972939,-1.160424,-0.972399,-1.203477,-0.961045,
-1.205723,-0.960396,-1.248217,-0.947036,-1.250446,-0.946277,-1.292254,-0.930935,-1.294445,-0.930072,-1.335492,-0.912775,-1.337600,-0.911829,-1.377808,-0.892652,-1.379925,-0.891580,-1.419168,-0.870523,-1.421210,-0.869365,-1.459437,-0.846480,-1.461410,-0.845235,-1.498519,-0.820597,-1.500432,-0.819261,-1.536348,-0.792921,-1.538215,-0.791483,-1.572835,-0.763492,-1.574628,-0.761972,-1.607927,-0.732356,
-1.609637,-0.730762,-1.641489,-0.699647,-1.643124,-0.697973,-1.673502,-0.665385,-1.675059,-0.663634,-1.703863,-0.629674,-1.705342,-0.627845,-1.732520,-0.592564,-1.733906,-0.590675,-1.759408,-0.554150,-1.760707,-0.552192,-1.784456,-0.514524,-1.785659,-0.512514,-1.807630,-0.473753,-1.808727,-0.471708,-1.828869,-0.431983,-1.829891,-0.429843,-1.848128,-0.389203,-1.849027,-0.387070,-1.865359,-0.345642,
-1.866176,-0.343414,-1.880527,-0.301250,-1.881228,-0.299023,-1.893598,-0.256224,-1.894199,-0.253944,-1.904537,-0.210612,-1.905024,-0.208337,-1.913330,-0.164598,-1.913714,-0.162281,-1.919962,-0.118161,-1.920237,-0.115826,-1.924403,-0.071478,-1.924567,-0.069140,-1.926649,-0.024665,-1.926704,-0.022327,-1.926704,0.022225,-1.926649,0.024563,-1.924567,0.069038,-1.924403,0.071376,-1.920237,0.115725,
-1.919962,0.118060,-1.913714,0.162180,-1.913330,0.164497,-1.905024,0.208235,-1.904537,0.210510,-1.894199,0.253843,-1.893598,0.256123,-1.881228,0.298922,-1.880527,0.301149,-1.866176,0.343313,-1.865359,0.345541,-1.849027,0.386968,-1.848128,0.389101,-1.829891,0.429741,-1.828869,0.431881,-1.808727,0.471607,-1.807630,0.473653,-1.785659,0.512413,-1.784456,0.514422,-1.760707,0.552090,
-1.759408,0.554047,-1.733906,0.590573,-1.732520,0.592463,-1.705342,0.627743,-1.703863,0.629572,-1.675059,0.663532,-1.673502,0.665283,-1.643124,0.697871,-1.641489,0.699545,-1.609637,0.730660,-1.607927,0.732253,-1.574628,0.761870,-1.572835,0.763392,-1.538215,0.791382,-1.536348,0.792819,-1.500432,0.819159,-1.498519,0.820495,-1.461410,0.845133,-1.459437,0.846377,-1.421210,0.869263,
-1.419167,0.870423,-1.379924,0.891479,-1.377808,0.892550,-1.337600,0.911727,-1.335493,0.912673,-1.294446,0.929971,-1.292253,0.930835,-1.250445,0.946176,-1.248218,0.946934,-1.205724,0.960295,-1.203476,0.960944,-1.160423,0.972297,-1.158165,0.972837,-1.114604,0.982185,-1.112268,0.982629,-1.068326,0.989893,-1.066015,0.990219,-1.021768,0.995426,-1.019431,0.995646,-0.975006,0.998770,
-0.972697,0.998879,-0.928171,0.999946,-0.926973,0.999960,0.927227,0.999960,0.928425,0.999946,0.928425,0.999946,$1*%
G04 Aperture macros list end*
%ADD10RoundRect,0.250000X0.475000X-0.250000X0.475000X0.250000X-0.475000X0.250000X-0.475000X-0.250000X0*%
%ADD11RoundRect,0.250000X-0.362500X-1.425000X0.362500X-1.425000X0.362500X1.425000X-0.362500X1.425000X0*%
%ADD12RoundRect,0.250000X-0.325000X-0.650000X0.325000X-0.650000X0.325000X0.650000X-0.325000X0.650000X0*%
%ADD13RoundRect,0.200000X0.275000X-0.200000X0.275000X0.200000X-0.275000X0.200000X-0.275000X-0.200000X0*%
%ADD14R,1.600000X1.600000*%
%ADD15C,1.600000*%
%ADD16R,0.500000X0.800000*%
%ADD17R,0.400000X0.800000*%
%ADD18C,1.500000*%
%ADD19RoundRect,0.225000X-0.250000X0.225000X-0.250000X-0.225000X0.250000X-0.225000X0.250000X0.225000X0*%
%ADD20RoundRect,0.200000X0.200000X0.275000X-0.200000X0.275000X-0.200000X-0.275000X0.200000X-0.275000X0*%
%ADD21RoundRect,0.250000X-0.250000X-0.475000X0.250000X-0.475000X0.250000X0.475000X-0.250000X0.475000X0*%
%ADD22RoundRect,0.225000X0.225000X0.250000X-0.225000X0.250000X-0.225000X-0.250000X0.225000X-0.250000X0*%
%ADD23RoundRect,0.225000X-0.225000X-0.250000X0.225000X-0.250000X0.225000X0.250000X-0.225000X0.250000X0*%
%ADD24R,2.063000X1.539000*%
%ADD25RoundRect,0.200000X-0.275000X0.200000X-0.275000X-0.200000X0.275000X-0.200000X0.275000X0.200000X0*%
%ADD26R,0.600000X1.070000*%
%ADD27RoundRect,0.250000X-0.475000X0.250000X-0.475000X-0.250000X0.475000X-0.250000X0.475000X0.250000X0*%
%ADD28R,1.000000X1.100000*%
%ADD29R,1.400000X1.000000*%
%ADD30R,1.070000X0.600000*%
%ADD31O,0.600000X1.600000*%
%ADD32R,3.200000X2.500000*%
%ADD33RoundRect,0.225000X0.250000X-0.225000X0.250000X0.225000X-0.250000X0.225000X-0.250000X-0.225000X0*%
%ADD34RoundRect,0.200000X-0.200000X-0.275000X0.200000X-0.275000X0.200000X0.275000X-0.200000X0.275000X0*%
%ADD35R,0.800000X0.864000*%
%ADD36R,1.000000X1.400000*%
%ADD37R,1.407000X3.499000*%
%ADD38R,2.500000X1.200000*%
%ADD39R,6.500000X6.000000*%
%ADD40O,0.280000X1.620000*%
%ADD41RoundRect,0.250000X0.325000X0.650000X-0.325000X0.650000X-0.325000X-0.650000X0.325000X-0.650000X0*%
%ADD42R,1.474000X2.600000*%
%ADD43RoundRect,0.250000X-0.450000X0.350000X-0.450000X-0.350000X0.450000X-0.350000X0.450000X0.350000X0*%
%ADD44R,0.864000X0.800000*%
%ADD45R,4.600000X1.600000*%
%ADD46C,2.200000*%
%ADD47O,2.038000X0.574000*%
%ADD48R,0.600000X1.100000*%
%ADD49O,0.364000X1.742000*%
%ADD50R,1.400000X1.200000*%
%ADD51RoundRect,0.250000X0.350000X0.450000X-0.350000X0.450000X-0.350000X-0.450000X0.350000X-0.450000X0*%
%ADD52R,1.700000X0.400000*%
%ADD53R,0.300000X1.300000*%
%ADD54R,0.600000X2.000000*%
%ADD55R,3.900000X3.265000*%
%ADD56O,4.600000X2.000000*%
%ADD57O,2.000000X4.600000*%
%ADD58R,1.728000X1.190000*%
%ADD59R,0.350000X0.850000*%
%ADD60R,1.575000X0.672000*%
%ADD61FreePoly0,0.000000*%
%ADD62R,1.700000X1.700000*%
%ADD63C,1.700000*%
%ADD64O,1.742000X0.364000*%
%ADD65R,2.047000X2.192000*%
%ADD66O,0.568000X1.950000*%
%ADD67R,2.500000X1.100000*%
%ADD68R,2.340000X3.600000*%
%ADD69O,1.800000X0.588000*%
%ADD70R,0.650000X1.000000*%
%ADD71R,1.600000X4.600000*%
%ADD72C,2.000000*%
%ADD73RoundRect,0.250000X0.362500X1.425000X-0.362500X1.425000X-0.362500X-1.425000X0.362500X-1.425000X0*%
%ADD74O,1.100000X1.900000*%
%ADD75O,1.200000X1.600000*%
%ADD76R,0.550000X0.900000*%
%ADD77R,0.300000X1.100000*%
%ADD78R,1.650000X0.400000*%
%ADD79R,1.200000X1.200000*%
%ADD80O,0.588000X1.800000*%
%ADD81R,2.800000X1.300000*%
%ADD82RoundRect,0.250000X0.250000X0.475000X-0.250000X0.475000X-0.250000X-0.475000X0.250000X-0.475000X0*%
%ADD83R,2.192000X2.047000*%
%ADD84R,1.200000X3.500000*%
%ADD85R,1.300000X0.300000*%
%ADD86O,1.620000X0.280000*%
%ADD87R,2.000000X2.000000*%
%ADD88RoundRect,0.250000X-0.262500X-0.450000X0.262500X-0.450000X0.262500X0.450000X-0.262500X0.450000X0*%
G04 APERTURE END LIST*
D10*
%TO.C,C811*%
X147770000Y-7899999D03*
X147770000Y-6000001D03*
%TD*%
D11*
%TO.C,R933*%
X79087500Y63850000D03*
X85012500Y63850000D03*
%TD*%
D12*
%TO.C,C214*%
X32375000Y63950000D03*
X35325000Y63950000D03*
%TD*%
D13*
%TO.C,R930*%
X75050000Y57075000D03*
X75050000Y58725000D03*
%TD*%
D14*
%TO.C,J1*%
X53530000Y18300000D03*
D15*
X56070000Y18300000D03*
X58610000Y18300000D03*
X61150000Y18300000D03*
X63690000Y18300000D03*
X66230000Y18300000D03*
X68770000Y18300000D03*
X71310000Y18300000D03*
X73850000Y18300000D03*
X76390000Y18300000D03*
X78930000Y18300000D03*
X81470000Y18300000D03*
X84010000Y18300000D03*
X86550000Y18300000D03*
X89090000Y18300000D03*
X91630000Y18300000D03*
X94170000Y18300000D03*
X96710000Y18300000D03*
X99250000Y18300000D03*
X101790000Y18300000D03*
X104330000Y18300000D03*
X106870000Y18300000D03*
%TD*%
D16*
%TO.C,RN501*%
X160350000Y71200000D03*
D17*
X159550000Y71200000D03*
X158750000Y71200000D03*
D16*
X157950000Y71200000D03*
X157950000Y69400000D03*
D17*
X158750000Y69400000D03*
X159550000Y69400000D03*
D16*
X160350000Y69400000D03*
%TD*%
D18*
%TO.C,TP301*%
X133150000Y17250000D03*
%TD*%
D19*
%TO.C,C816*%
X139000000Y17225000D03*
X139000000Y15675000D03*
%TD*%
D20*
%TO.C,R914*%
X81400001Y-8335001D03*
X79750001Y-8335001D03*
%TD*%
D21*
%TO.C,C211*%
X36457501Y10300000D03*
X38357499Y10300000D03*
%TD*%
D22*
%TO.C,C116*%
X131525000Y70500000D03*
X129975000Y70500000D03*
%TD*%
D13*
%TO.C,R309*%
X123450000Y31424999D03*
X123450000Y33074999D03*
%TD*%
D23*
%TO.C,C920*%
X60725000Y65750000D03*
X62275000Y65750000D03*
%TD*%
D20*
%TO.C,R910*%
X86300001Y-4985001D03*
X84650001Y-4985001D03*
%TD*%
D24*
%TO.C,D802*%
X155000000Y25850000D03*
X150000000Y25850000D03*
%TD*%
D25*
%TO.C,R908*%
X58755001Y-365003D03*
X58755001Y-2015003D03*
%TD*%
D13*
%TO.C,R906*%
X55555001Y-6415003D03*
X55555001Y-4765003D03*
%TD*%
D26*
%TO.C,D117*%
X133450000Y57235000D03*
X135350000Y57235000D03*
X134400000Y59714999D03*
%TD*%
D27*
%TO.C,C905*%
X45025000Y31799998D03*
X45025000Y29900000D03*
%TD*%
D28*
%TO.C,D704*%
X14575001Y-170001D03*
X14575001Y-3630001D03*
%TD*%
D29*
%TO.C,D204*%
X37700000Y63200000D03*
X37700000Y61100000D03*
%TD*%
D30*
%TO.C,D301*%
X118960000Y33975000D03*
X118960000Y32075000D03*
X121439999Y33025000D03*
%TD*%
D13*
%TO.C,R803*%
X132070000Y-5225000D03*
X132070000Y-3575000D03*
%TD*%
D31*
%TO.C,U903*%
X64950000Y67650000D03*
X66220000Y67650000D03*
X67490000Y67650000D03*
X68760000Y67650000D03*
X68760000Y73650000D03*
X67490000Y73650000D03*
X66220000Y73650000D03*
X64950000Y73650000D03*
D32*
X66850000Y70650000D03*
%TD*%
D33*
%TO.C,C712*%
X17025001Y-1625001D03*
X17025001Y-75001D03*
%TD*%
D34*
%TO.C,R705*%
X63150000Y6950000D03*
X64800000Y6950000D03*
%TD*%
D25*
%TO.C,R118*%
X138000000Y65325000D03*
X138000000Y63675000D03*
%TD*%
D20*
%TO.C,R911*%
X88600001Y7164999D03*
X86950001Y7164999D03*
%TD*%
D35*
%TO.C,FB202*%
X16950000Y36800000D03*
X15550000Y36800000D03*
%TD*%
D34*
%TO.C,R211*%
X36075000Y18500000D03*
X37725000Y18500000D03*
%TD*%
D25*
%TO.C,R114*%
X121800000Y73975000D03*
X121800000Y72325000D03*
%TD*%
D34*
%TO.C,R203*%
X36075000Y24350000D03*
X37725000Y24350000D03*
%TD*%
D18*
%TO.C,TP1*%
X58600000Y15400000D03*
%TD*%
D23*
%TO.C,C301*%
X128375000Y15474999D03*
X129925000Y15474999D03*
%TD*%
D22*
%TO.C,C804*%
X117120000Y-5750000D03*
X115570000Y-5750000D03*
%TD*%
D34*
%TO.C,R210*%
X32325000Y58750000D03*
X33975000Y58750000D03*
%TD*%
D36*
%TO.C,D205*%
X37385000Y15835000D03*
X39485000Y15835000D03*
%TD*%
D18*
%TO.C,TP702*%
X88000000Y-100000D03*
%TD*%
D36*
%TO.C,D206*%
X23450000Y15950000D03*
X21350000Y15950000D03*
%TD*%
D21*
%TO.C,C726*%
X43975001Y14125000D03*
X45874999Y14125000D03*
%TD*%
D23*
%TO.C,C209*%
X36125000Y26300000D03*
X37675000Y26300000D03*
%TD*%
D18*
%TO.C,TP202*%
X20800000Y63250000D03*
%TD*%
D25*
%TO.C,R941*%
X43550000Y63325000D03*
X43550000Y61675000D03*
%TD*%
D34*
%TO.C,R206*%
X19875000Y23950000D03*
X21525000Y23950000D03*
%TD*%
D37*
%TO.C,F201*%
X15600001Y69450000D03*
X11899999Y69450000D03*
%TD*%
D19*
%TO.C,C903*%
X58755001Y3434997D03*
X58755001Y1884997D03*
%TD*%
D25*
%TO.C,R111*%
X110750000Y73925000D03*
X110750000Y72275000D03*
%TD*%
D38*
%TO.C,Q901*%
X55770000Y63860000D03*
D39*
X48830000Y66150000D03*
D38*
X55770000Y68440000D03*
%TD*%
D40*
%TO.C,U902*%
X74650000Y-1890001D03*
X74150000Y-1890001D03*
X73650000Y-1890001D03*
X73150000Y-1890001D03*
X72650000Y-1890001D03*
X72650000Y-6110001D03*
X73150000Y-6110001D03*
X73650000Y-6110001D03*
X74150000Y-6110001D03*
X74650000Y-6110001D03*
%TD*%
D13*
%TO.C,R713*%
X28550000Y2400000D03*
X28550000Y4050000D03*
%TD*%
D41*
%TO.C,C201*%
X6525001Y65400000D03*
X3574999Y65400000D03*
%TD*%
D18*
%TO.C,TP501*%
X75700000Y1000000D03*
%TD*%
D22*
%TO.C,C805*%
X117120000Y-7350000D03*
X115570000Y-7350000D03*
%TD*%
D12*
%TO.C,C818*%
X141249999Y34349999D03*
X144200001Y34349999D03*
%TD*%
D42*
%TO.C,L801*%
X140170000Y-6700000D03*
X143050000Y-6700000D03*
%TD*%
D25*
%TO.C,R904*%
X42460001Y-8040000D03*
X42460001Y-9690000D03*
%TD*%
D43*
%TO.C,R715*%
X22150000Y-2000000D03*
X22150000Y-4000000D03*
%TD*%
D34*
%TO.C,R950*%
X73625000Y66650000D03*
X75275000Y66650000D03*
%TD*%
D23*
%TO.C,C931*%
X74175000Y53350000D03*
X75725000Y53350000D03*
%TD*%
D34*
%TO.C,R208*%
X19875000Y20200000D03*
X21525000Y20200000D03*
%TD*%
%TO.C,R912*%
X82925000Y-10200000D03*
X84575000Y-10200000D03*
%TD*%
D19*
%TO.C,C706*%
X68075000Y7625000D03*
X68075000Y6075000D03*
%TD*%
D33*
%TO.C,C807*%
X135470000Y-6225000D03*
X135470000Y-4675000D03*
%TD*%
D44*
%TO.C,FB901*%
X40700000Y34650000D03*
X40700000Y33250000D03*
%TD*%
D20*
%TO.C,R952*%
X157675000Y56150000D03*
X156025000Y56150000D03*
%TD*%
D25*
%TO.C,R918*%
X83375001Y8739999D03*
X83375001Y7089999D03*
%TD*%
D23*
%TO.C,C912*%
X84650001Y-8485001D03*
X86200001Y-8485001D03*
%TD*%
D45*
%TO.C,C940*%
X54720000Y56950000D03*
X47280000Y56950000D03*
%TD*%
D13*
%TO.C,R711*%
X18775001Y-1675001D03*
X18775001Y-25001D03*
%TD*%
D34*
%TO.C,R917*%
X84650001Y-3235001D03*
X86300001Y-3235001D03*
%TD*%
D26*
%TO.C,D111*%
X108800000Y64810000D03*
X110700000Y64810000D03*
X109750000Y67289999D03*
%TD*%
%TO.C,D118*%
X139250000Y59715000D03*
X137350000Y59715000D03*
X138300000Y57235000D03*
%TD*%
D46*
%TO.C,J901*%
X52375000Y80155000D03*
X47375000Y80155000D03*
%TD*%
D19*
%TO.C,C902*%
X55655001Y3384998D03*
X55655001Y1834998D03*
%TD*%
D13*
%TO.C,R301*%
X121074999Y23179999D03*
X121074999Y24829999D03*
%TD*%
%TO.C,R903*%
X44230001Y-9725001D03*
X44230001Y-8075001D03*
%TD*%
D12*
%TO.C,C206*%
X20024999Y28450000D03*
X22975001Y28450000D03*
%TD*%
D22*
%TO.C,C308*%
X120624999Y4949998D03*
X119074999Y4949998D03*
%TD*%
D19*
%TO.C,C707*%
X42950000Y31825000D03*
X42950000Y30275000D03*
%TD*%
D13*
%TO.C,R820*%
X151650000Y-7475000D03*
X151650000Y-5825000D03*
%TD*%
D27*
%TO.C,C303*%
X130150000Y13524999D03*
X130150000Y11625001D03*
%TD*%
D20*
%TO.C,R509*%
X100075000Y37125001D03*
X98425000Y37125001D03*
%TD*%
D25*
%TO.C,R112*%
X114350000Y74025000D03*
X114350000Y72375000D03*
%TD*%
D47*
%TO.C,U702*%
X75645001Y3939999D03*
X75645001Y5209999D03*
X75645001Y6479999D03*
X75645001Y7749999D03*
X75645001Y9019999D03*
X75645001Y10289999D03*
X75645001Y11559999D03*
X70405001Y11559999D03*
X70405001Y10289999D03*
X70405001Y9019999D03*
X70405001Y7749999D03*
X70405001Y6479999D03*
X70405001Y5209999D03*
X70405001Y3939999D03*
%TD*%
D20*
%TO.C,R710*%
X22700001Y-1D03*
X21050001Y-1D03*
%TD*%
D35*
%TO.C,FB201*%
X27800000Y35000000D03*
X29200000Y35000000D03*
%TD*%
D22*
%TO.C,C503*%
X72150000Y46400000D03*
X70600000Y46400000D03*
%TD*%
D34*
%TO.C,R207*%
X19875000Y22050000D03*
X21525000Y22050000D03*
%TD*%
D25*
%TO.C,R955*%
X167450000Y52175000D03*
X167450000Y50525000D03*
%TD*%
D20*
%TO.C,R913*%
X86600001Y11914999D03*
X84950001Y11914999D03*
%TD*%
D48*
%TO.C,U503*%
X74300000Y46300000D03*
X75250000Y46300000D03*
X76200000Y46300000D03*
X76200000Y49000000D03*
X75250000Y49000000D03*
X74300000Y49000000D03*
%TD*%
D19*
%TO.C,C725*%
X11350001Y11775000D03*
X11350001Y10225000D03*
%TD*%
D22*
%TO.C,C112*%
X114325000Y69100000D03*
X112775000Y69100000D03*
%TD*%
D49*
%TO.C,U501*%
X157665001Y60159999D03*
X158315000Y60159999D03*
X158964999Y60159999D03*
X159615000Y60159999D03*
X160275000Y60159999D03*
X160925000Y60159999D03*
X161575000Y60159999D03*
X162225001Y60159999D03*
X162875000Y60159999D03*
X163524999Y60159999D03*
X163524999Y65899999D03*
X162875000Y65899999D03*
X162225001Y65899999D03*
X161575000Y65899999D03*
X160925000Y65899999D03*
X160275000Y65899999D03*
X159615000Y65899999D03*
X158964999Y65899999D03*
X158315000Y65899999D03*
X157665001Y65899999D03*
%TD*%
D33*
%TO.C,C941*%
X58250000Y65675000D03*
X58250000Y67225000D03*
%TD*%
D21*
%TO.C,C213*%
X12150000Y58550000D03*
X14050000Y58550000D03*
%TD*%
D13*
%TO.C,R724*%
X40075001Y2024999D03*
X40075001Y3674999D03*
%TD*%
D22*
%TO.C,C803*%
X117475000Y-11400000D03*
X115925000Y-11400000D03*
%TD*%
D18*
%TO.C,TP203*%
X43950000Y21900000D03*
%TD*%
D13*
%TO.C,R308*%
X130850000Y24999999D03*
X130850000Y26649999D03*
%TD*%
D25*
%TO.C,R809*%
X153125000Y2675000D03*
X153125000Y1025000D03*
%TD*%
D34*
%TO.C,R102*%
X119825000Y43600000D03*
X121475000Y43600000D03*
%TD*%
D50*
%TO.C,Y701*%
X52910000Y11235000D03*
X50710000Y11235000D03*
X50710000Y9535000D03*
X52910000Y9535000D03*
%TD*%
D22*
%TO.C,C809*%
X142225000Y-3700000D03*
X140675000Y-3700000D03*
%TD*%
%TO.C,C202*%
X6575000Y63225000D03*
X5025000Y63225000D03*
%TD*%
D51*
%TO.C,R717*%
X19350000Y51100000D03*
X17350000Y51100000D03*
%TD*%
D43*
%TO.C,R716*%
X22200000Y4250000D03*
X22200000Y2250000D03*
%TD*%
D19*
%TO.C,C814*%
X150025000Y2774999D03*
X150025000Y1224999D03*
%TD*%
D22*
%TO.C,C702*%
X50650000Y7450000D03*
X49100000Y7450000D03*
%TD*%
D27*
%TO.C,C203*%
X5650000Y72249999D03*
X5650000Y70350001D03*
%TD*%
D52*
%TO.C,U302*%
X126100001Y6849999D03*
X126100001Y7499999D03*
X126100001Y8150000D03*
X126100001Y8799999D03*
X126100001Y9449998D03*
X126100001Y10099999D03*
X126100001Y10749999D03*
X120500001Y10749999D03*
X120500001Y10099999D03*
X120500001Y9449998D03*
X120500001Y8799999D03*
X120500001Y8150000D03*
X120500001Y7499999D03*
X120500001Y6849999D03*
%TD*%
D13*
%TO.C,R714*%
X31975001Y-425001D03*
X31975001Y1224999D03*
%TD*%
D25*
%TO.C,R2*%
X94650000Y15275000D03*
X94650000Y13625000D03*
%TD*%
D53*
%TO.C,U301*%
X126300000Y18025000D03*
X125799999Y18025000D03*
X125300000Y18025000D03*
X124800001Y18025000D03*
X124300000Y18025000D03*
X124300000Y13325000D03*
X124800001Y13325000D03*
X125300000Y13325000D03*
X125799999Y13325000D03*
X126300000Y13325000D03*
%TD*%
D19*
%TO.C,C908*%
X50725000Y31850000D03*
X50725000Y30300000D03*
%TD*%
D33*
%TO.C,C901*%
X55555002Y-10115002D03*
X55555002Y-8565002D03*
%TD*%
D20*
%TO.C,R901*%
X49025000Y1950000D03*
X47375000Y1950000D03*
%TD*%
D25*
%TO.C,R3*%
X61200000Y48175000D03*
X61200000Y46525000D03*
%TD*%
D18*
%TO.C,TP204*%
X21700000Y11700000D03*
%TD*%
D22*
%TO.C,C104*%
X121425000Y47750000D03*
X119875000Y47750000D03*
%TD*%
D34*
%TO.C,R703*%
X63150000Y10500000D03*
X64800000Y10500000D03*
%TD*%
D19*
%TO.C,C906*%
X47125000Y31825000D03*
X47125000Y30275000D03*
%TD*%
%TO.C,C704*%
X35175000Y56550000D03*
X35175000Y55000000D03*
%TD*%
D23*
%TO.C,C918*%
X43950000Y17875001D03*
X45500000Y17875001D03*
%TD*%
D54*
%TO.C,U802*%
X142455000Y5350002D03*
X143725000Y5350002D03*
X144995000Y5350003D03*
X146265000Y5350002D03*
X147535000Y5350002D03*
X148805000Y5350002D03*
X150075000Y5350002D03*
X151345000Y5350003D03*
X152615000Y5350002D03*
X153885000Y5350002D03*
X153885000Y14750002D03*
X152615000Y14750002D03*
X151345000Y14750001D03*
X150075000Y14750002D03*
X148805000Y14750002D03*
X147535000Y14750002D03*
X146265000Y14750002D03*
X144995000Y14750001D03*
X143725000Y14750002D03*
X142455000Y14750002D03*
D55*
X148175000Y10050002D03*
%TD*%
D56*
%TO.C,J202*%
X34900000Y70350000D03*
X34900000Y76550000D03*
D57*
X30200000Y73600000D03*
%TD*%
D58*
%TO.C,F901*%
X46875000Y74405000D03*
X46875000Y71505000D03*
%TD*%
D59*
%TO.C,U202*%
X18750000Y61100000D03*
X18100000Y61099999D03*
X17450000Y61100000D03*
X17450000Y58900000D03*
X18100000Y58900001D03*
X18750000Y58900000D03*
%TD*%
D22*
%TO.C,C914*%
X81150001Y-6185001D03*
X79600001Y-6185001D03*
%TD*%
D19*
%TO.C,C705*%
X38275000Y56500000D03*
X38275000Y54950000D03*
%TD*%
D34*
%TO.C,R817*%
X133470000Y-12600000D03*
X135120000Y-12600000D03*
%TD*%
D25*
%TO.C,R302*%
X118049999Y27929999D03*
X118049999Y26279999D03*
%TD*%
D20*
%TO.C,R807*%
X152200000Y18750000D03*
X150550000Y18750000D03*
%TD*%
D18*
%TO.C,TP3*%
X42850000Y52800000D03*
%TD*%
D25*
%TO.C,R116*%
X131400000Y73875000D03*
X131400000Y72225000D03*
%TD*%
D26*
%TO.C,D116*%
X131800000Y67240000D03*
X129900000Y67240000D03*
X130850000Y64760000D03*
%TD*%
D13*
%TO.C,R932*%
X73050000Y63475000D03*
X73050000Y65125000D03*
%TD*%
D60*
%TO.C,U203*%
X33467500Y8850000D03*
D61*
X30747500Y10350000D03*
D60*
X33467500Y11850000D03*
%TD*%
D14*
%TO.C,J2*%
X53530000Y43700000D03*
D15*
X56070000Y43700000D03*
X58610000Y43700000D03*
X61150000Y43700000D03*
X63690000Y43700000D03*
X66230000Y43700000D03*
X68770000Y43700000D03*
X71310000Y43700000D03*
X73850000Y43700000D03*
X76390000Y43700000D03*
X78930000Y43700000D03*
X81470000Y43700000D03*
X84010000Y43700000D03*
X86550000Y43700000D03*
X89090000Y43700000D03*
X91630000Y43700000D03*
X94170000Y43700000D03*
X96710000Y43700000D03*
X99250000Y43700000D03*
X101790000Y43700000D03*
X104330000Y43700000D03*
X106870000Y43700000D03*
%TD*%
D52*
%TO.C,U502*%
X102150000Y38725001D03*
X102150000Y38075001D03*
X102150000Y37425000D03*
X102150000Y36775001D03*
X102150000Y36125002D03*
X102150000Y35475001D03*
X102150000Y34825001D03*
X107750000Y34825001D03*
X107750000Y35475001D03*
X107750000Y36125002D03*
X107750000Y36775001D03*
X107750000Y37425000D03*
X107750000Y38075001D03*
X107750000Y38725001D03*
%TD*%
D62*
%TO.C,J14*%
X134359995Y69100000D03*
D63*
X136900000Y69100000D03*
X139440005Y69100000D03*
%TD*%
D20*
%TO.C,R956*%
X166575000Y54950000D03*
X164925000Y54950000D03*
%TD*%
D33*
%TO.C,C701*%
X55525000Y11175000D03*
X55525000Y12725000D03*
%TD*%
D30*
%TO.C,D907*%
X64405001Y-800001D03*
X64405001Y1099999D03*
X61925002Y149999D03*
%TD*%
D23*
%TO.C,C724*%
X43950000Y12125001D03*
X45500000Y12125001D03*
%TD*%
D41*
%TO.C,C105*%
X121375001Y50050000D03*
X118424999Y50050000D03*
%TD*%
D64*
%TO.C,U801*%
X124120000Y-5840001D03*
X124120000Y-6490000D03*
X124120000Y-7139999D03*
X124120000Y-7790000D03*
X124120000Y-8450000D03*
X124120000Y-9100000D03*
X124120000Y-9750000D03*
X124120000Y-10400001D03*
X124120000Y-11050000D03*
X124120000Y-11699999D03*
X129860000Y-11699999D03*
X129860000Y-11050000D03*
X129860000Y-10400001D03*
X129860000Y-9750000D03*
X129860000Y-9100000D03*
X129860000Y-8450000D03*
X129860000Y-7790000D03*
X129860000Y-7139999D03*
X129860000Y-6490000D03*
X129860000Y-5840001D03*
%TD*%
D34*
%TO.C,R205*%
X36075000Y20300000D03*
X37725000Y20300000D03*
%TD*%
D19*
%TO.C,C703*%
X32275000Y56600000D03*
X32275000Y55050000D03*
%TD*%
D22*
%TO.C,C117*%
X134000000Y61400000D03*
X132450000Y61400000D03*
%TD*%
D25*
%TO.C,R1*%
X96400000Y15275000D03*
X96400000Y13625000D03*
%TD*%
D20*
%TO.C,R958*%
X162975000Y58100000D03*
X161325000Y58100000D03*
%TD*%
D13*
%TO.C,R802*%
X133770000Y-6275000D03*
X133770000Y-4625000D03*
%TD*%
D21*
%TO.C,C306*%
X130975001Y29749999D03*
X132874999Y29749999D03*
%TD*%
D23*
%TO.C,C913*%
X85000001Y10264999D03*
X86550001Y10264999D03*
%TD*%
D19*
%TO.C,C917*%
X18650001Y11775001D03*
X18650001Y10225001D03*
%TD*%
D22*
%TO.C,C915*%
X81600001Y7114999D03*
X80050001Y7114999D03*
%TD*%
D25*
%TO.C,R306*%
X132625001Y26649999D03*
X132625001Y24999999D03*
%TD*%
%TO.C,R115*%
X127750000Y73875000D03*
X127750000Y72225000D03*
%TD*%
D34*
%TO.C,R201*%
X19725000Y74700000D03*
X21375000Y74700000D03*
%TD*%
D13*
%TO.C,R310*%
X128425000Y31274999D03*
X128425000Y32924999D03*
%TD*%
D65*
%TO.C,D934*%
X86190000Y72700000D03*
X90910000Y72700000D03*
%TD*%
D34*
%TO.C,R818*%
X133445000Y-11000000D03*
X135095000Y-11000000D03*
%TD*%
D23*
%TO.C,C208*%
X19925000Y25900000D03*
X21475000Y25900000D03*
%TD*%
D66*
%TO.C,U705*%
X48225001Y-350002D03*
X46955001Y-350001D03*
X45695001Y-350001D03*
X44425001Y-350002D03*
X44425001Y-5770000D03*
X45695001Y-5770001D03*
X46955001Y-5770001D03*
X48225001Y-5770000D03*
%TD*%
D22*
%TO.C,C802*%
X120820000Y-9250000D03*
X119270000Y-9250000D03*
%TD*%
%TO.C,C113*%
X118075000Y70750000D03*
X116525000Y70750000D03*
%TD*%
D16*
%TO.C,RN502*%
X164500000Y71150000D03*
D17*
X163700000Y71150000D03*
X162900000Y71150000D03*
D16*
X162100000Y71150000D03*
X162100000Y69350000D03*
D17*
X162900000Y69350000D03*
X163700000Y69350000D03*
D16*
X164500000Y69350000D03*
%TD*%
D20*
%TO.C,R953*%
X159075000Y57850000D03*
X157425000Y57850000D03*
%TD*%
D66*
%TO.C,U703*%
X30075001Y-140002D03*
X28805001Y-140001D03*
X27545001Y-140001D03*
X26275001Y-140002D03*
X26275001Y-5560000D03*
X27545001Y-5560001D03*
X28805001Y-5560001D03*
X30075001Y-5560000D03*
%TD*%
D46*
%TO.C,J905*%
X84900000Y80350000D03*
X79900000Y80350000D03*
X74900000Y80350000D03*
%TD*%
D67*
%TO.C,U204*%
X24009999Y63550000D03*
X24010000Y61250000D03*
X24009999Y58950000D03*
D68*
X29950000Y61250000D03*
%TD*%
D26*
%TO.C,D112*%
X114600000Y67290000D03*
X112700000Y67290000D03*
X113650000Y64810000D03*
%TD*%
D19*
%TO.C,C302*%
X128199999Y13524999D03*
X128199999Y11974999D03*
%TD*%
D20*
%TO.C,R209*%
X6550000Y61550000D03*
X4900000Y61550000D03*
%TD*%
D34*
%TO.C,R921*%
X68125000Y63800000D03*
X69775000Y63800000D03*
%TD*%
D65*
%TO.C,D931*%
X50290000Y72800000D03*
X55010000Y72800000D03*
%TD*%
D22*
%TO.C,C911*%
X87650001Y3014999D03*
X86100001Y3014999D03*
%TD*%
D19*
%TO.C,C710*%
X17025001Y3124999D03*
X17025001Y1574999D03*
%TD*%
D35*
%TO.C,FB801*%
X111520000Y-9250000D03*
X112920000Y-9250000D03*
%TD*%
D19*
%TO.C,C711*%
X18725001Y3124999D03*
X18725001Y1574999D03*
%TD*%
D69*
%TO.C,U303*%
X123474999Y27405000D03*
X123475000Y26135000D03*
X123475000Y24875000D03*
X123474999Y23605000D03*
X128675001Y23605000D03*
X128675000Y24875000D03*
X128675000Y26135000D03*
X128675001Y27405000D03*
%TD*%
D13*
%TO.C,R305*%
X130799999Y21805000D03*
X130799999Y23455000D03*
%TD*%
D70*
%TO.C,D932*%
X42200000Y68950000D03*
X44100000Y68950000D03*
X43150000Y70950000D03*
%TD*%
D25*
%TO.C,R202*%
X15750000Y74325000D03*
X15750000Y72675000D03*
%TD*%
D23*
%TO.C,C114*%
X120425000Y69200000D03*
X121975000Y69200000D03*
%TD*%
D13*
%TO.C,R303*%
X118024999Y23129999D03*
X118024999Y24779999D03*
%TD*%
D21*
%TO.C,C107*%
X128450000Y46250000D03*
X130350000Y46250000D03*
%TD*%
D20*
%TO.C,R957*%
X166125000Y56600000D03*
X164475000Y56600000D03*
%TD*%
D18*
%TO.C,TP2*%
X173200000Y4200000D03*
%TD*%
D13*
%TO.C,R811*%
X151625000Y-2425000D03*
X151625000Y-775000D03*
%TD*%
D21*
%TO.C,C102*%
X131100001Y50200000D03*
X132999999Y50200000D03*
%TD*%
D22*
%TO.C,C502*%
X108025000Y40475001D03*
X106475000Y40475001D03*
%TD*%
D71*
%TO.C,C921*%
X62600000Y61920000D03*
X62600000Y54480000D03*
%TD*%
D72*
%TO.C,FID3*%
X88550000Y22150000D03*
%TD*%
D34*
%TO.C,R806*%
X148075000Y-9700000D03*
X149725000Y-9700000D03*
%TD*%
D62*
%TO.C,J15*%
X136059995Y72250000D03*
D63*
X138600000Y72250000D03*
X141140005Y72250000D03*
%TD*%
D23*
%TO.C,C108*%
X127675000Y48200000D03*
X129225000Y48200000D03*
%TD*%
D51*
%TO.C,R718*%
X19350000Y53200000D03*
X17350000Y53200000D03*
%TD*%
D22*
%TO.C,C118*%
X138925000Y61900000D03*
X137375000Y61900000D03*
%TD*%
D23*
%TO.C,C722*%
X43950000Y16125000D03*
X45500000Y16125000D03*
%TD*%
D73*
%TO.C,R813*%
X147187499Y30449999D03*
X141262499Y30449999D03*
%TD*%
D34*
%TO.C,R204*%
X36075000Y22350000D03*
X37725000Y22350000D03*
%TD*%
D13*
%TO.C,R511*%
X78100000Y49125000D03*
X78100000Y50775000D03*
%TD*%
D59*
%TO.C,U201*%
X3450000Y70400000D03*
X2800000Y70399999D03*
X2150000Y70400000D03*
X2150000Y68200000D03*
X2800000Y68200001D03*
X3450000Y68200000D03*
%TD*%
D27*
%TO.C,C204*%
X17550000Y65499999D03*
X17550000Y63600001D03*
%TD*%
D36*
%TO.C,D203*%
X6025000Y59300000D03*
X3925000Y59300000D03*
%TD*%
D74*
%TO.C,J201*%
X22320000Y77570000D03*
D75*
X22320000Y81780000D03*
D74*
X13680000Y77570000D03*
D75*
X13680000Y81780000D03*
D76*
X21200000Y76920000D03*
X20400000Y76920000D03*
D77*
X19250000Y77020000D03*
X18250000Y77020000D03*
X17750000Y77020000D03*
X16750000Y77020000D03*
D76*
X14800000Y76920000D03*
X15600000Y76920000D03*
D77*
X16250000Y77020000D03*
X17250000Y77020000D03*
X18750000Y77020000D03*
X19750000Y77020000D03*
%TD*%
D18*
%TO.C,TP4*%
X8150000Y56050000D03*
%TD*%
D13*
%TO.C,R916*%
X82975001Y-4760001D03*
X82975001Y-3110001D03*
%TD*%
D78*
%TO.C,U505*%
X163400001Y44700000D03*
X163400001Y45350000D03*
X163400001Y46000000D03*
X163400000Y46650000D03*
X163400001Y47300000D03*
X163400001Y47950000D03*
X163400001Y48590000D03*
X163400001Y49250000D03*
X163400001Y49900001D03*
X163400001Y50550000D03*
X163400001Y51199999D03*
X163400001Y51840000D03*
X157360001Y51840000D03*
X157360001Y51199999D03*
X157360001Y50550000D03*
X157360001Y49900001D03*
X157360001Y49250000D03*
X157360001Y48590000D03*
X157360001Y47950000D03*
X157360001Y47300000D03*
X157360002Y46650000D03*
X157360001Y46000000D03*
X157360001Y45350000D03*
X157360001Y44700000D03*
%TD*%
D22*
%TO.C,C910*%
X86200001Y-6685001D03*
X84650001Y-6685001D03*
%TD*%
D30*
%TO.C,D906*%
X51325002Y1599999D03*
X51325002Y-300001D03*
X53805001Y649999D03*
%TD*%
D34*
%TO.C,R704*%
X63150000Y8700000D03*
X64800000Y8700000D03*
%TD*%
D20*
%TO.C,R816*%
X146449999Y38149999D03*
X144799999Y38149999D03*
%TD*%
D79*
%TO.C,D201*%
X8350000Y72130000D03*
X8350000Y68870000D03*
%TD*%
D25*
%TO.C,R805*%
X149750000Y-5875000D03*
X149750000Y-7525000D03*
%TD*%
D34*
%TO.C,R920*%
X68175000Y65600000D03*
X69825000Y65600000D03*
%TD*%
D23*
%TO.C,C916*%
X43950000Y19575001D03*
X45500000Y19575001D03*
%TD*%
D25*
%TO.C,R810*%
X146750000Y650000D03*
X146750000Y-1000000D03*
%TD*%
D23*
%TO.C,C212*%
X36632500Y8250000D03*
X38182500Y8250000D03*
%TD*%
D72*
%TO.C,FID1*%
X106400000Y-8300000D03*
%TD*%
D30*
%TO.C,D905*%
X51115002Y-6440003D03*
X51115002Y-8340003D03*
X53595001Y-7390003D03*
%TD*%
D26*
%TO.C,D114*%
X122200000Y67290000D03*
X120300000Y67290000D03*
X121250000Y64810001D03*
%TD*%
D80*
%TO.C,U704*%
X37625001Y-5600001D03*
X38895001Y-5600001D03*
X40155001Y-5600001D03*
X41425001Y-5600001D03*
X41425001Y-400001D03*
X40155001Y-400001D03*
X38895001Y-400001D03*
X37625001Y-400001D03*
%TD*%
D81*
%TO.C,Q904*%
X73985000Y73475000D03*
D39*
X80565000Y71205000D03*
D81*
X73985000Y68935000D03*
%TD*%
D13*
%TO.C,R712*%
X33725001Y-375001D03*
X33725001Y1274999D03*
%TD*%
D24*
%TO.C,D930*%
X86250000Y68350000D03*
X91250000Y68350000D03*
%TD*%
D40*
%TO.C,U901*%
X69305002Y-1940001D03*
X68805002Y-1940001D03*
X68305002Y-1940001D03*
X67805002Y-1940001D03*
X67305002Y-1940001D03*
X67305002Y-6160001D03*
X67805002Y-6160001D03*
X68305002Y-6160001D03*
X68805002Y-6160001D03*
X69305002Y-6160001D03*
%TD*%
D62*
%TO.C,J10*%
X155334995Y18050000D03*
D63*
X157875000Y18050000D03*
X160415005Y18050000D03*
%TD*%
D25*
%TO.C,R4*%
X63600000Y48075000D03*
X63600000Y46425000D03*
%TD*%
D14*
%TO.C,PS202*%
X16850000Y30700000D03*
D15*
X16850000Y28160000D03*
X16850000Y23080000D03*
X16850000Y18000000D03*
%TD*%
D25*
%TO.C,R940*%
X42750000Y67175000D03*
X42750000Y65525000D03*
%TD*%
D20*
%TO.C,R915*%
X81250001Y-3185001D03*
X79600001Y-3185001D03*
%TD*%
D13*
%TO.C,R909*%
X58655002Y-6365002D03*
X58655002Y-4715002D03*
%TD*%
D25*
%TO.C,R101*%
X126450000Y45425000D03*
X126450000Y43775000D03*
%TD*%
D21*
%TO.C,C216*%
X31450000Y34975000D03*
X33350000Y34975000D03*
%TD*%
D22*
%TO.C,C501*%
X155525000Y65999999D03*
X153975000Y65999999D03*
%TD*%
%TO.C,C507*%
X156855001Y42869998D03*
X155305001Y42869998D03*
%TD*%
D23*
%TO.C,C215*%
X32325000Y61800000D03*
X33875000Y61800000D03*
%TD*%
D21*
%TO.C,C217*%
X15350000Y34350000D03*
X17250000Y34350000D03*
%TD*%
D66*
%TO.C,U706*%
X80325001Y-845001D03*
X81595001Y-845001D03*
X82855001Y-845001D03*
X84125001Y-845001D03*
X84125001Y4574999D03*
X82855001Y4574999D03*
X81595001Y4574999D03*
X80325001Y4574999D03*
%TD*%
D34*
%TO.C,R722*%
X27650001Y-8500001D03*
X29300001Y-8500001D03*
%TD*%
%TO.C,R212*%
X19875000Y18300000D03*
X21525000Y18300000D03*
%TD*%
D23*
%TO.C,C930*%
X74175000Y55050000D03*
X75725000Y55050000D03*
%TD*%
D20*
%TO.C,R801*%
X124195000Y-3700000D03*
X122545000Y-3700000D03*
%TD*%
D82*
%TO.C,C806*%
X117570000Y-9400000D03*
X115670002Y-9400000D03*
%TD*%
D34*
%TO.C,R922*%
X68075000Y62100000D03*
X69725000Y62100000D03*
%TD*%
D37*
%TO.C,F202*%
X25250001Y68500000D03*
X21549999Y68500000D03*
%TD*%
D34*
%TO.C,R902*%
X51780002Y3459998D03*
X53430002Y3459998D03*
%TD*%
D22*
%TO.C,C812*%
X146475000Y-9750000D03*
X144925000Y-9750000D03*
%TD*%
D62*
%TO.C,J11*%
X151024998Y33459997D03*
D63*
X151024998Y36000002D03*
X151024998Y38540007D03*
%TD*%
D83*
%TO.C,D920*%
X61400000Y68285000D03*
X61400000Y73005000D03*
%TD*%
D22*
%TO.C,C305*%
X124000000Y21699999D03*
X122450000Y21699999D03*
%TD*%
D72*
%TO.C,FID2*%
X171950000Y-5000000D03*
%TD*%
D84*
%TO.C,C815*%
X143875000Y19230000D03*
X143875000Y24570000D03*
%TD*%
D48*
%TO.C,U904*%
X75150000Y60650000D03*
X76100000Y60650000D03*
X77050000Y60650000D03*
X77050000Y63250000D03*
X75150000Y63250000D03*
%TD*%
D85*
%TO.C,U101*%
X121550000Y61300000D03*
X121550000Y60800000D03*
X121550000Y60300000D03*
X121550000Y59800000D03*
X121550000Y59300000D03*
X121550000Y58800000D03*
X121550000Y58300000D03*
X121550000Y57800000D03*
X121550000Y57300000D03*
X121550000Y56800000D03*
X121550000Y56300000D03*
X121550000Y55800000D03*
X121550000Y55300000D03*
X121550000Y54800000D03*
X121550000Y54300000D03*
X121550000Y53800000D03*
X121550000Y53300000D03*
X121550000Y52800000D03*
X121550000Y52300000D03*
X127350000Y52300000D03*
X127350000Y52800000D03*
X127350000Y53300000D03*
X127350000Y53800000D03*
X127350000Y54300000D03*
X127350000Y54800000D03*
X127350000Y55300000D03*
X127350000Y55800000D03*
X127350000Y56300000D03*
X127350000Y56800000D03*
X127350000Y57300000D03*
X127350000Y57800000D03*
X127350000Y58300000D03*
X127350000Y58800000D03*
X127350000Y59300000D03*
X127350000Y59800000D03*
X127350000Y60300000D03*
X127350000Y60800000D03*
X127350000Y61300000D03*
%TD*%
D26*
%TO.C,D501*%
X81900000Y51690000D03*
X80000000Y51690000D03*
X80950000Y49210001D03*
%TD*%
D25*
%TO.C,R723*%
X25775001Y-8525001D03*
X25775001Y-10175001D03*
%TD*%
D62*
%TO.C,J12*%
X69200000Y58090005D03*
D63*
X69200000Y55550000D03*
X69200000Y53009995D03*
%TD*%
D13*
%TO.C,R812*%
X145050000Y-1000000D03*
X145050000Y650000D03*
%TD*%
D19*
%TO.C,C919*%
X16900000Y11775000D03*
X16900000Y10225000D03*
%TD*%
D44*
%TO.C,FB802*%
X138875000Y21099999D03*
X138875000Y19699999D03*
%TD*%
D34*
%TO.C,R923*%
X86000001Y5014999D03*
X87650001Y5014999D03*
%TD*%
D19*
%TO.C,C810*%
X145720000Y-6400000D03*
X145720000Y-7950000D03*
%TD*%
D22*
%TO.C,C304*%
X129125001Y29350000D03*
X127575001Y29350000D03*
%TD*%
D44*
%TO.C,FB204*%
X20000000Y32600000D03*
X20000000Y31200000D03*
%TD*%
D19*
%TO.C,C723*%
X15200001Y11775000D03*
X15200001Y10225000D03*
%TD*%
D13*
%TO.C,R304*%
X121074999Y26279999D03*
X121074999Y27929999D03*
%TD*%
D34*
%TO.C,R804*%
X132170000Y-7850000D03*
X133820000Y-7850000D03*
%TD*%
D22*
%TO.C,C115*%
X127775000Y69050000D03*
X126225000Y69050000D03*
%TD*%
D18*
%TO.C,TP701*%
X63550000Y4800000D03*
%TD*%
D25*
%TO.C,R808*%
X157850000Y7225000D03*
X157850000Y5575000D03*
%TD*%
D13*
%TO.C,R931*%
X76850000Y57075000D03*
X76850000Y58725000D03*
%TD*%
D28*
%TO.C,D703*%
X14575001Y5179999D03*
X14575001Y1719999D03*
%TD*%
D86*
%TO.C,U701*%
X56465000Y9000000D03*
X56465000Y8500000D03*
X56465000Y8000000D03*
X56465000Y7500000D03*
X56465000Y7000000D03*
X60685000Y7000000D03*
X60685000Y7500000D03*
X60685000Y8000000D03*
X60685000Y8500000D03*
X60685000Y9000000D03*
%TD*%
D82*
%TO.C,C106*%
X121449999Y45650000D03*
X119550001Y45650000D03*
%TD*%
D87*
%TO.C,J13*%
X79829997Y60050000D03*
D72*
X82370003Y60050000D03*
%TD*%
D22*
%TO.C,C801*%
X120820000Y-7550000D03*
X119270000Y-7550000D03*
%TD*%
D13*
%TO.C,R721*%
X35525001Y-5975001D03*
X35525001Y-4325001D03*
%TD*%
D79*
%TO.C,D202*%
X14900000Y65480000D03*
X14900000Y62220000D03*
%TD*%
D13*
%TO.C,R706*%
X68075000Y2724999D03*
X68075000Y4374999D03*
%TD*%
D19*
%TO.C,C907*%
X48900000Y31875000D03*
X48900000Y30325000D03*
%TD*%
D23*
%TO.C,C720*%
X33750001Y-2250001D03*
X35300001Y-2250001D03*
%TD*%
D33*
%TO.C,C904*%
X58655001Y-10215003D03*
X58655001Y-8665003D03*
%TD*%
D26*
%TO.C,D113*%
X116400000Y64860000D03*
X118300000Y64860000D03*
X117350000Y67339999D03*
%TD*%
D14*
%TO.C,PS201*%
X33250000Y31050000D03*
D15*
X33250000Y28510000D03*
X33250000Y23430000D03*
X33250000Y18350000D03*
%TD*%
D25*
%TO.C,R907*%
X55605002Y-515003D03*
X55605002Y-2165003D03*
%TD*%
D46*
%TO.C,J903*%
X66775000Y80305000D03*
X61775000Y80305000D03*
%TD*%
D62*
%TO.C,J3*%
X36100000Y5125000D03*
D63*
X33559995Y5125000D03*
X31019990Y5125000D03*
%TD*%
D20*
%TO.C,R510*%
X100075000Y35125001D03*
X98425000Y35125001D03*
%TD*%
D18*
%TO.C,TP201*%
X8800000Y66300000D03*
%TD*%
D27*
%TO.C,C727*%
X13250001Y11749998D03*
X13250001Y9850000D03*
%TD*%
D22*
%TO.C,C111*%
X110825000Y70650000D03*
X109275000Y70650000D03*
%TD*%
D20*
%TO.C,R919*%
X81600001Y10114999D03*
X79950001Y10114999D03*
%TD*%
D23*
%TO.C,C817*%
X153449999Y28849998D03*
X154999999Y28849998D03*
%TD*%
D20*
%TO.C,R951*%
X156625000Y54550000D03*
X154975000Y54550000D03*
%TD*%
D23*
%TO.C,C103*%
X127875000Y50600000D03*
X129425000Y50600000D03*
%TD*%
%TO.C,C210*%
X36675000Y13500000D03*
X38225000Y13500000D03*
%TD*%
D88*
%TO.C,R814*%
X149512500Y28849998D03*
X151337500Y28849998D03*
%TD*%
D34*
%TO.C,R954*%
X166075000Y48850000D03*
X167725000Y48850000D03*
%TD*%
D25*
%TO.C,R113*%
X118050000Y74075000D03*
X118050000Y72425000D03*
%TD*%
%TO.C,R117*%
X133875000Y66225000D03*
X133875000Y64575000D03*
%TD*%
D44*
%TO.C,FB203*%
X37300000Y32500000D03*
X37300000Y31100000D03*
%TD*%
D29*
%TO.C,D933*%
X42965000Y56235000D03*
X42965000Y58335000D03*
%TD*%
D22*
%TO.C,C504*%
X66475000Y50850000D03*
X64925000Y50850000D03*
%TD*%
D13*
%TO.C,R815*%
X146424999Y34575000D03*
X146424999Y36225000D03*
%TD*%
D18*
%TO.C,TP205*%
X118800000Y19150000D03*
%TD*%
D13*
%TO.C,R307*%
X132625000Y21774999D03*
X132625000Y23424999D03*
%TD*%
D30*
%TO.C,D302*%
X132775000Y32000000D03*
X132775000Y33900000D03*
X130295001Y32950000D03*
%TD*%
D25*
%TO.C,R311*%
X122550000Y18149998D03*
X122550000Y16499998D03*
%TD*%
D21*
%TO.C,C307*%
X125775001Y21449999D03*
X127674999Y21449999D03*
%TD*%
D24*
%TO.C,D801*%
X154550000Y22100000D03*
X149550000Y22100000D03*
%TD*%
D33*
%TO.C,C101*%
X118600000Y57525000D03*
X118600000Y59075000D03*
%TD*%
D34*
%TO.C,R905*%
X47825000Y-8250000D03*
X49475000Y-8250000D03*
%TD*%
D62*
%TO.C,J9*%
X21745006Y-7650000D03*
D63*
X19205001Y-7650000D03*
X16664996Y-7650000D03*
%TD*%
D26*
%TO.C,D115*%
X126050000Y64760000D03*
X127950000Y64760000D03*
X127000000Y67239999D03*
%TD*%
D30*
%TO.C,D908*%
X64395001Y-8390003D03*
X64395001Y-6490003D03*
X61915002Y-7440003D03*
%TD*%
D13*
%TO.C,R924*%
X85125001Y7039999D03*
X85125001Y8689999D03*
%TD*%
D12*
%TO.C,C207*%
X36975000Y28600000D03*
X39925000Y28600000D03*
%TD*%
D33*
%TO.C,C808*%
X137120000Y-6225000D03*
X137120000Y-4675000D03*
%TD*%
D23*
%TO.C,C721*%
X27700001Y-10200001D03*
X29250001Y-10200001D03*
%TD*%
D62*
%TO.C,J7*%
X171730000Y69130000D03*
D63*
X174270000Y69130000D03*
X171730000Y66590000D03*
X174270000Y66590000D03*
X171730000Y64050000D03*
X174270000Y64050000D03*
X171730000Y61510000D03*
X174270000Y61510000D03*
X171730000Y58970000D03*
X174270000Y58970000D03*
X171730000Y56430000D03*
X174270000Y56430000D03*
X171730000Y53890000D03*
X174270000Y53890000D03*
X171730000Y51350000D03*
X174270000Y51350000D03*
X171730000Y48810000D03*
X174270000Y48810000D03*
X171730000Y46270000D03*
X174270000Y46270000D03*
X171730000Y43730000D03*
X174270000Y43730000D03*
X171730000Y41190000D03*
X174270000Y41190000D03*
X171730000Y38650000D03*
X174270000Y38650000D03*
X171730000Y36110000D03*
X174270000Y36110000D03*
X171730000Y33570000D03*
X174270000Y33570000D03*
X171730000Y31030000D03*
X174270000Y31030000D03*
X171730000Y28490000D03*
X174270000Y28490000D03*
X171730000Y25950000D03*
X174270000Y25950000D03*
X171730000Y23410000D03*
X174270000Y23410000D03*
X171730000Y20870000D03*
X174270000Y20870000D03*
%TD*%
D62*
%TO.C,J6*%
X162625000Y80525000D03*
D63*
X162625000Y77985000D03*
X160085000Y80525000D03*
X160085000Y77985000D03*
X157545000Y80525000D03*
X157545000Y77985000D03*
X155005000Y80525000D03*
X155005000Y77985000D03*
X152465000Y80525000D03*
X152465000Y77985000D03*
X149925000Y80525000D03*
X149925000Y77985000D03*
X147385000Y80525000D03*
X147385000Y77985000D03*
X144845000Y80525000D03*
X144845000Y77985000D03*
X142305000Y80525000D03*
X142305000Y77985000D03*
X139765000Y80525000D03*
X139765000Y77985000D03*
X137225000Y80525000D03*
X137225000Y77985000D03*
X134685000Y80525000D03*
X134685000Y77985000D03*
X132145000Y80525000D03*
X132145000Y77985000D03*
X129605000Y80525000D03*
X129605000Y77985000D03*
X127065000Y80525000D03*
X127065000Y77985000D03*
X124525000Y80525000D03*
X124525000Y77985000D03*
X121985000Y80525000D03*
X121985000Y77985000D03*
X119445000Y80525000D03*
X119445000Y77985000D03*
X116905000Y80525000D03*
X116905000Y77985000D03*
X114365000Y80525000D03*
X114365000Y77985000D03*
%TD*%
D62*
%TO.C,J8*%
X6270000Y-1750000D03*
D63*
X3730000Y-1750000D03*
X6270000Y790000D03*
X3730000Y790000D03*
X6270000Y3330000D03*
X3730000Y3330000D03*
X6270000Y5870000D03*
X3730000Y5870000D03*
X6270000Y8410000D03*
X3730000Y8410000D03*
X6270000Y10950000D03*
X3730000Y10950000D03*
X6270000Y13490000D03*
X3730000Y13490000D03*
X6270000Y16030000D03*
X3730000Y16030000D03*
X6270000Y18570000D03*
X3730000Y18570000D03*
X6270000Y21110000D03*
X3730000Y21110000D03*
X6270000Y23650000D03*
X3730000Y23650000D03*
X6270000Y26190000D03*
X3730000Y26190000D03*
X6270000Y28730000D03*
X3730000Y28730000D03*
X6270000Y31270000D03*
X3730000Y31270000D03*
X6270000Y33810000D03*
X3730000Y33810000D03*
X6270000Y36350000D03*
X3730000Y36350000D03*
X6270000Y38890000D03*
X3730000Y38890000D03*
X6270000Y41430000D03*
X3730000Y41430000D03*
X6270000Y43970000D03*
X3730000Y43970000D03*
X6270000Y46510000D03*
X3730000Y46510000D03*
%TD*%
M02*
