M48
; DRILL file KiCad 10.0.3 date 2026-10-05T04:03:26
; FORMAT={-:-/ absolute / inch / decimal}
; #@! TF.CreationDate,2026-10-05T04:03:26+08:00
; #@! TF.GenerationSoftware,Kicad,Pcbnew,10.0.3
; #@! TF.FileFunction,Plated,1,4,PTH
FMAT,2
INCH
; #@! TA.AperFunction,Plated,PTH,ViaDrill
T1C0.0118
; #@! TA.AperFunction,Plated,PTH,ViaDrill
T2C0.0157
; #@! TA.AperFunction,Plated,PTH,ComponentDrill
T3C0.0236
; #@! TA.AperFunction,Plated,PTH,ComponentDrill
T4C0.0315
; #@! TA.AperFunction,Plated,PTH,ComponentDrill
T5C0.0354
; #@! TA.AperFunction,Plated,PTH,ComponentDrill
T6C0.0394
; #@! TA.AperFunction,Plated,PTH,ComponentDrill
T7C0.0413
; #@! TA.AperFunction,Plated,PTH,ComponentDrill
T8C0.0433
; #@! TA.AperFunction,Plated,PTH,ComponentDrill
T9C0.0472
; #@! TA.AperFunction,Plated,PTH,ComponentDrill
T10C0.0551
%
G90
G05
T1
X0.1102Y2.813
X0.1122Y2.6378
X0.1496Y2.4921
X0.2224Y2.7224
X0.2697Y2.7106
X0.2874Y2.3346
X0.5768Y2.3957
X0.5787Y2.1043
X0.5787Y2.0138
X0.6004Y2.3031
X0.6122Y2.0945
X0.6122Y2.0079
X0.6535Y2.8287
X0.687Y2.8248
X0.6975Y2.857
X0.6988Y2.4488
X0.7126Y2.2795
X0.7198Y2.8792
X0.7323Y1.3524
X0.7441Y2.9016
X0.8051Y2.3209
X0.8819Y2.939
X0.9469Y2.563
X1.3287Y2.1654
X1.372Y1.376
X1.374Y0.4075
X1.4547Y2.1634
X1.5689Y0.4774
X1.7264Y0.4154
X1.752Y2.2146
X1.7579Y0.4291
X1.7874Y-0.3524
X1.8189Y1.2539
X1.8622Y2.1831
X1.9193Y1.9035
X1.9626Y0.8228
X2.0285Y0.5162
X2.063Y-0.2047
X2.063Y-0.3287
X2.122Y-0.3287
X2.1358Y-0.1417
X2.2461Y-0.2953
X2.252Y-0.1713
X2.2579Y1.6791
X2.3784Y-0.1821
X2.4075Y1.4587
X2.439Y1.4567
X2.4587Y1.6772
X2.4829Y1.4272
X2.5075Y1.4012
X2.5472Y1.5315
X2.5669Y1.502
X2.5689Y1.5571
X2.5804Y-0.1145
X2.5945Y0.1161
X2.6083Y2.5394
X2.6102Y2.502
X2.6378Y1.8406
X2.6969Y0.4035
X2.7028Y0.435
X2.7303Y2.7953
X2.748Y1.6122
X2.7579Y1.75
X2.7638Y-0.1949
X2.7717Y1.5906
X2.785Y-0.1031
X2.7992Y1.6122
X2.8307Y1.5591
X2.8327Y0.1791
X2.8446Y0.3112
X2.8622Y1.5669
X2.8799Y0.3792
X2.8812Y0.1588
X2.9022Y0.3569
X2.9094Y-0.3622
X2.9144Y0.1604
X2.9429Y-0.187
X2.9547Y1.6811
X2.9724Y-0.2047
X3.0079Y-0.0787
X3.1161Y1.9016
X3.1417Y1.9272
X3.1929Y0.0768
X3.1949Y0.0453
X3.6024Y2.4646
X3.6102Y2.498
X3.6142Y2.5394
X3.622Y2.5728
X3.6555Y2.8602
X3.687Y-0.2657
X3.7146Y-0.2461
X3.7303Y0.4508
X3.7618Y0.4587
X3.7929Y0.4535
X3.9567Y1.6791
X4.0217Y1.5551
X4.0217Y1.3386
X4.1496Y1.5925
X4.185Y1.4882
X4.185Y1.4075
X4.2677Y-0.2421
X4.3878Y2.3976
X4.4213Y1.5315
X4.4213Y1.1752
X4.4219Y1.141
X4.4469Y1.5512
X4.4606Y-0.2638
X4.4921Y0.0965
X4.5118Y0.122
X4.5118Y0.0709
X4.5492Y0.6033
X4.5512Y2.6122
X4.5663Y1.6207
X4.5866Y1.6476
X4.5866Y0.6161
X4.622Y0.6179
X4.6496Y1.6152
X4.6693Y0.5276
X4.6772Y0.372
X4.6811Y1.626
X4.7028Y0.5256
X4.7146Y2.2648
X4.7402Y2.378
X4.7626Y1.6763
X4.8209Y2.0531
X4.8209Y-0.3067
X4.8602Y0.2992
X4.8612Y0.8937
X4.8878Y0.3996
X4.8937Y0.2972
X4.9016Y0.3701
X4.9232Y1.4114
X5.072Y2.6051
X5.0728Y1.7402
X5.0753Y2.3232
X5.1417Y1.876
X5.1614Y2.0157
X5.2579Y0.0157
X5.2717Y1.9961
X5.315Y2.0
X5.3445Y1.5177
X5.3619Y2.3054
X5.3878Y1.2087
X5.4094Y0.3386
X5.4232Y1.3917
X5.4606Y0.9252
X5.4764Y0.5709
X5.5472Y0.9252
X5.5906Y1.0256
X5.6496Y1.5039
X5.6555Y-0.372
X5.6929Y0.378
X5.7126Y0.4911
X5.7441Y0.4911
X5.7776Y-0.0827
X5.8169Y-0.1909
X5.8327Y0.2894
X5.872Y2.065
X5.874Y2.0335
X5.9055Y0.0039
X5.937Y-0.3465
X5.9528Y0.5079
X6.0295Y0.0
X6.0571Y0.2795
X6.0591Y0.5157
X6.062Y2.6555
X6.0728Y1.689
X6.0787Y0.1437
X6.0846Y2.0689
X6.0866Y2.0354
X6.0886Y1.8051
X6.0984Y2.1949
X6.1063Y1.8346
X6.1142Y1.7854
X6.1201Y-0.1614
X6.1496Y0.6181
X6.1516Y1.1358
X6.1535Y2.2835
X6.1772Y2.6594
X6.2106Y2.4311
X6.2657Y0.622
X6.2795Y0.4665
X6.2854Y0.435
X6.2894Y2.9173
X6.3031Y0.122
X6.3051Y2.9469
X6.311Y0.4596
X6.3215Y2.92
X6.3327Y2.2461
X6.372Y2.9252
X6.3917Y2.9528
X6.4124Y2.9281
X6.4272Y2.2264
X6.4469Y2.1634
X6.4724Y2.9311
X6.4921Y2.9567
X6.5085Y2.9298
X6.5689Y2.8917
X6.5965Y2.9114
X6.6043Y2.878
X6.6299Y1.9892
T2
X0.5719Y0.3573
X0.628Y-0.1437
X0.6496Y0.2165
X0.6988Y0.3602
X0.6988Y0.1732
X0.7028Y-0.1102
X0.815Y0.1752
X0.8327Y1.4587
X0.8406Y0.561
X0.8917Y1.0197
X0.8937Y0.9429
X0.8937Y0.8681
X0.8957Y0.7953
X0.9055Y1.0571
X1.0315Y0.061
X1.0984Y0.3976
X1.124Y0.2126
X1.2244Y-0.2736
X1.3898Y2.437
X1.4882Y0.5728
X1.5098Y2.2992
X1.5217Y0.0591
X1.5295Y0.9587
X1.5315Y1.0354
X1.5315Y0.7992
X1.5335Y0.8799
X1.5472Y0.5295
X1.5512Y0.3642
X1.5531Y-0.2874
X1.5974Y2.0787
X1.6063Y2.6831
X1.6181Y-0.3661
X1.622Y0.1417
X1.6299Y2.6457
X1.6319Y1.1122
X1.6634Y2.5335
X1.6811Y-0.2205
X1.687Y0.2244
X1.7165Y1.1457
X1.7313Y0.0384
X1.8051Y0.0591
X1.8091Y0.2933
X1.8307Y0.6713
X1.8307Y0.4961
X1.8406Y0.7717
X1.8937Y1.1496
X1.9173Y0.3465
X1.9311Y-0.1811
X1.9823Y0.0217
X1.9961Y0.502
X2.0Y1.1476
X2.0124Y-0.2185
X2.0492Y0.3287
X2.1575Y2.5768
X2.1988Y2.5768
X2.2303Y2.8937
X2.2362Y0.498
X2.2874Y0.4016
X2.2913Y2.7008
X2.3248Y0.3327
X2.3287Y2.0374
X2.3642Y-0.2146
X2.4173Y2.9528
X2.4547Y1.9035
X2.4961Y2.5906
X2.513Y-0.1655
X2.5374Y-0.0748
X2.5492Y2.0709
X2.561Y2.6102
X2.5846Y-0.2559
X2.5866Y-0.3346
X2.6043Y0.2402
X2.6476Y-0.1378
X2.689Y-0.1319
X2.6892Y-0.3012
X2.7638Y-0.0748
X2.7795Y1.8799
X2.7972Y2.5827
X2.7992Y2.435
X2.8287Y1.8819
X2.8622Y0.2441
X2.8636Y0.4106
X2.8976Y2.311
X2.8986Y-0.0177
X2.9016Y0.2441
X2.9094Y-0.3091
X2.9154Y0.2072
X2.9695Y-0.0768
X2.9961Y2.4409
X3.0295Y2.1673
X3.0295Y2.1004
X3.063Y1.872
X3.0635Y0.467
X3.1496Y0.1083
X3.2244Y2.0886
X3.2739Y2.4407
X3.312Y0.06
X3.3169Y0.311
X3.3976Y-0.0768
X3.4626Y2.0728
X4.122Y2.3307
X4.2844Y2.6348
X4.3051Y2.8287
X4.315Y1.6142
X4.3898Y-0.311
X4.3919Y2.6041
X4.4075Y1.065
X4.4606Y2.7657
X4.5Y-0.2283
X4.5098Y-0.3819
X4.5984Y2.8307
X4.6476Y1.1476
X4.6555Y-0.2972
X4.6575Y0.815
X4.6693Y2.3701
X4.6713Y0.2461
X4.6732Y1.8484
X4.6732Y1.7205
X4.6811Y0.3071
X4.6921Y2.6051
X4.6969Y-0.3947
X4.7106Y2.122
X4.7205Y2.0138
X4.7264Y2.3287
X4.7283Y2.2254
X4.7323Y1.3583
X4.7402Y0.4783
X4.7815Y-0.1457
X4.813Y2.5945
X4.813Y0.8996
X4.813Y0.1909
X4.8268Y2.7697
X4.9488Y1.5689
X4.9606Y1.3602
X4.9626Y2.6024
X4.9705Y2.7657
X4.9961Y0.4469
X5.002Y1.2008
X5.0295Y0.2697
X5.0354Y0.3484
X5.0394Y0.0886
X5.063Y0.4213
X5.0715Y2.2631
X5.0768Y2.3622
X5.0768Y0.8465
X5.0866Y0.1299
X5.0984Y2.1949
X5.0984Y2.0394
X5.1161Y2.7283
X5.1614Y0.6102
X5.1949Y2.5925
X5.2008Y1.2264
X5.2008Y-0.0945
X5.2185Y2.4567
X5.2205Y1.0945
X5.2539Y2.2992
X5.2657Y-0.1339
X5.2795Y1.1713
X5.2835Y1.3346
X5.313Y-0.3091
X5.3189Y-0.3839
X5.3327Y-0.1339
X5.3563Y2.437
X5.3976Y-0.1378
X5.4803Y2.2953
X5.5374Y-0.0925
X5.5551Y0.5807
X5.6083Y0.1417
X5.7087Y-0.0925
X5.7992Y2.4232
X5.8484Y2.2953
X5.9075Y0.2874
X6.0138Y-0.0965
X6.1004Y1.6083
X6.1122Y1.7402
X6.1378Y1.8535
X6.3709Y1.8
X6.4094Y1.4193
X6.4331Y2.0768
T5
X0.6634Y1.2087
X0.6634Y1.1087
X0.6634Y0.9087
X0.6634Y0.7087
X1.3091Y1.2224
X1.3091Y1.1224
X1.3091Y0.9224
X1.3091Y0.7224
T6
X0.1469Y1.8311
X0.1469Y1.7311
X0.1469Y1.6311
X0.1469Y1.5311
X0.1469Y1.4311
X0.1469Y1.3311
X0.1469Y1.2311
X0.1469Y1.1311
X0.1469Y1.0311
X0.1469Y0.9311
X0.1469Y0.8311
X0.1469Y0.7311
X0.1469Y0.6311
X0.1469Y0.5311
X0.1469Y0.4311
X0.1469Y0.3311
X0.1469Y0.2311
X0.1469Y0.1311
X0.1469Y0.0311
X0.1469Y-0.0689
X0.2469Y1.8311
X0.2469Y1.7311
X0.2469Y1.6311
X0.2469Y1.5311
X0.2469Y1.4311
X0.2469Y1.3311
X0.2469Y1.2311
X0.2469Y1.1311
X0.2469Y1.0311
X0.2469Y0.9311
X0.2469Y0.8311
X0.2469Y0.7311
X0.2469Y0.6311
X0.2469Y0.5311
X0.2469Y0.4311
X0.2469Y0.3311
X0.2469Y0.2311
X0.2469Y0.1311
X0.2469Y0.0311
X0.2469Y-0.0689
X4.5026Y3.1703
X4.5026Y3.0703
X4.6026Y3.1703
X4.6026Y3.0703
X4.7026Y3.1703
X4.7026Y3.0703
X4.8026Y3.1703
X4.8026Y3.0703
X4.9026Y3.1703
X4.9026Y3.0703
X5.0026Y3.1703
X5.0026Y3.0703
X5.1026Y3.1703
X5.1026Y3.0703
X5.2026Y3.1703
X5.2026Y3.0703
X5.3026Y3.1703
X5.3026Y3.0703
X5.4026Y3.1703
X5.4026Y3.0703
X5.5026Y3.1703
X5.5026Y3.0703
X5.6026Y3.1703
X5.6026Y3.0703
X5.7026Y3.1703
X5.7026Y3.0703
X5.8026Y3.1703
X5.8026Y3.0703
X5.9026Y3.1703
X5.9026Y3.0703
X6.0026Y3.1703
X6.0026Y3.0703
X6.1026Y3.1703
X6.1026Y3.0703
X6.2026Y3.1703
X6.2026Y3.0703
X6.3026Y3.1703
X6.3026Y3.0703
X6.4026Y3.1703
X6.4026Y3.0703
X6.761Y2.7217
X6.761Y2.6217
X6.761Y2.5217
X6.761Y2.4217
X6.761Y2.3217
X6.761Y2.2217
X6.761Y2.1217
X6.761Y2.0217
X6.761Y1.9217
X6.761Y1.8217
X6.761Y1.7217
X6.761Y1.6217
X6.761Y1.5217
X6.761Y1.4217
X6.761Y1.3217
X6.761Y1.2217
X6.761Y1.1217
X6.761Y1.0217
X6.761Y0.9217
X6.761Y0.8217
X6.861Y2.7217
X6.861Y2.6217
X6.861Y2.5217
X6.861Y2.4217
X6.861Y2.3217
X6.861Y2.2217
X6.861Y2.1217
X6.861Y2.0217
X6.861Y1.9217
X6.861Y1.8217
X6.861Y1.7217
X6.861Y1.6217
X6.861Y1.5217
X6.861Y1.4217
X6.861Y1.3217
X6.861Y1.2217
X6.861Y1.1217
X6.861Y1.0217
X6.861Y0.9217
X6.861Y0.8217
T7
X2.1075Y1.7205
X2.1075Y0.7205
X2.2075Y1.7205
X2.2075Y0.7205
X2.3075Y1.7205
X2.3075Y0.7205
X2.4075Y1.7205
X2.4075Y0.7205
X2.5075Y1.7205
X2.5075Y0.7205
X2.6075Y1.7205
X2.6075Y0.7205
X2.7075Y1.7205
X2.7075Y0.7205
X2.8075Y1.7205
X2.8075Y0.7205
X2.9075Y1.7205
X2.9075Y0.7205
X3.0075Y1.7205
X3.0075Y0.7205
X3.1075Y1.7205
X3.1075Y0.7205
X3.2075Y1.7205
X3.2075Y0.7205
X3.3075Y1.7205
X3.3075Y0.7205
X3.4075Y1.7205
X3.4075Y0.7205
X3.5075Y1.7205
X3.5075Y0.7205
X3.6075Y1.7205
X3.6075Y0.7205
X3.7075Y1.7205
X3.7075Y0.7205
X3.8075Y1.7205
X3.8075Y0.7205
X3.9075Y1.7205
X3.9075Y0.7205
X4.0075Y1.7205
X4.0075Y0.7205
X4.1075Y1.7205
X4.1075Y0.7205
X4.2075Y1.7205
X4.2075Y0.7205
T8
X0.6561Y-0.3012
X0.7561Y-0.3012
X0.8561Y-0.3012
X1.2213Y0.2018
X1.3213Y0.2018
X1.4213Y0.2018
X2.7244Y2.287
X2.7244Y2.187
X2.7244Y2.087
X5.2898Y2.7205
X5.3567Y2.8445
X5.3898Y2.7205
X5.4567Y2.8445
X5.4898Y2.7205
X5.5567Y2.8445
X5.9459Y1.5173
X5.9459Y1.4173
X5.9459Y1.3173
X6.1156Y0.7106
X6.2156Y0.7106
X6.3156Y0.7106
T9
X3.1429Y2.3642
X3.2429Y2.3642
T10
X1.8652Y3.1557
X2.062Y3.1557
X2.4321Y3.1616
X2.6289Y3.1616
X2.9488Y3.1634
X3.1457Y3.1634
X3.3425Y3.1634
T3
G00X0.5386Y3.2118
M15
G01X0.5386Y3.2276
M16
G05
G00X0.5386Y3.0402
M15
G01X0.5386Y3.0677
M16
G05
G00X0.8787Y3.2118
M15
G01X0.8787Y3.2276
M16
G05
G00X0.8787Y3.0402
M15
G01X0.8787Y3.0677
M16
G05
T4
G00X1.189Y2.8406
M15
G01X1.189Y2.9547
M16
G05
G00X1.4311Y3.0138
M15
G01X1.3169Y3.0138
M16
G05
G00X1.3169Y2.7697
M15
G01X1.4311Y2.7697
M16
G05
M30
