  0
SECTION
  2
BLOCKS
  0
ENDSEC
  0
SECTION
  2
ENTITIES
  0
LINE
  8
0
 10
105.3
 20
-117.7
 11
116.1
 21
-117.7
  0
LINE
  8
0
 10
116.1
 20
-117.7
 11
116.1
 21
-120
  0
LINE
  8
0
 10
116.1
 20
-120
 11
185
 21
-120
  0
LINE
  8
0
 10
185
 20
-120
 11
185
 21
-10
  0
LINE
  8
0
 10
185
 20
-10
 11
-5
 21
-10
  0
LINE
  8
0
 10
-5
 20
-10
 11
-5
 21
-120
  0
LINE
  8
0
 10
-5
 20
-120
 11
105.3
 21
-120
  0
LINE
  8
0
 10
105.3
 20
-120
 11
105.3
 21
-117.7
  0
LINE
  8
0
 10
175.801
 20
-20.638
 11
175.415
 21
-20.5428
  0
LINE
  8
0
 10
175.415
 20
-20.5428
 11
175.063
 21
-20.3579
  0
LINE
  8
0
 10
175.063
 20
-20.3579
 11
174.765
 21
-20.0941
  0
LINE
  8
0
 10
174.765
 20
-20.0941
 11
174.539
 21
-19.7668
  0
LINE
  8
0
 10
174.539
 20
-19.7668
 11
174.398
 21
-19.3949
  0
LINE
  8
0
 10
174.398
 20
-19.3949
 11
174.35
 21
-19
  0
LINE
  8
0
 10
174.35
 20
-19
 11
174.398
 21
-18.6051
  0
LINE
  8
0
 10
174.398
 20
-18.6051
 11
174.539
 21
-18.2332
  0
LINE
  8
0
 10
174.539
 20
-18.2332
 11
174.765
 21
-17.9058
  0
LINE
  8
0
 10
174.765
 20
-17.9058
 11
175.063
 21
-17.6421
  0
LINE
  8
0
 10
175.063
 20
-17.6421
 11
175.415
 21
-17.4572
  0
LINE
  8
0
 10
175.415
 20
-17.4572
 11
175.801
 21
-17.362
  0
LINE
  8
0
 10
175.801
 20
-17.362
 11
176.199
 21
-17.362
  0
LINE
  8
0
 10
176.199
 20
-17.362
 11
176.585
 21
-17.4572
  0
LINE
  8
0
 10
176.585
 20
-17.4572
 11
176.937
 21
-17.6421
  0
LINE
  8
0
 10
176.937
 20
-17.6421
 11
177.235
 21
-17.9058
  0
LINE
  8
0
 10
177.235
 20
-17.9058
 11
177.461
 21
-18.2332
  0
LINE
  8
0
 10
177.461
 20
-18.2332
 11
177.602
 21
-18.6051
  0
LINE
  8
0
 10
177.602
 20
-18.6051
 11
177.65
 21
-19
  0
LINE
  8
0
 10
177.65
 20
-19
 11
177.602
 21
-19.3949
  0
LINE
  8
0
 10
177.602
 20
-19.3949
 11
177.461
 21
-19.7668
  0
LINE
  8
0
 10
177.461
 20
-19.7668
 11
177.235
 21
-20.0941
  0
LINE
  8
0
 10
177.235
 20
-20.0941
 11
176.937
 21
-20.3579
  0
LINE
  8
0
 10
176.937
 20
-20.3579
 11
176.585
 21
-20.5428
  0
LINE
  8
0
 10
176.585
 20
-20.5428
 11
176.199
 21
-20.638
  0
LINE
  8
0
 10
176.199
 20
-20.638
 11
175.801
 21
-20.638
  0
LINE
  8
0
 10
3.8011
 20
-20.638
 11
3.4149
 21
-20.5428
  0
LINE
  8
0
 10
3.4149
 20
-20.5428
 11
3.06268
 21
-20.3579
  0
LINE
  8
0
 10
3.06268
 20
-20.3579
 11
2.76495
 21
-20.0941
  0
LINE
  8
0
 10
2.76495
 20
-20.0941
 11
2.53899
 21
-19.7668
  0
LINE
  8
0
 10
2.53899
 20
-19.7668
 11
2.39793
 21
-19.3949
  0
LINE
  8
0
 10
2.39793
 20
-19.3949
 11
2.34999
 21
-19
  0
LINE
  8
0
 10
2.34999
 20
-19
 11
2.39793
 21
-18.6051
  0
LINE
  8
0
 10
2.39793
 20
-18.6051
 11
2.53899
 21
-18.2332
  0
LINE
  8
0
 10
2.53899
 20
-18.2332
 11
2.76495
 21
-17.9058
  0
LINE
  8
0
 10
2.76495
 20
-17.9058
 11
3.06268
 21
-17.6421
  0
LINE
  8
0
 10
3.06268
 20
-17.6421
 11
3.4149
 21
-17.4572
  0
LINE
  8
0
 10
3.4149
 20
-17.4572
 11
3.8011
 21
-17.362
  0
LINE
  8
0
 10
3.8011
 20
-17.362
 11
4.19888
 21
-17.362
  0
LINE
  8
0
 10
4.19888
 20
-17.362
 11
4.58508
 21
-17.4572
  0
LINE
  8
0
 10
4.58508
 20
-17.4572
 11
4.9373
 21
-17.6421
  0
LINE
  8
0
 10
4.9373
 20
-17.6421
 11
5.23503
 21
-17.9058
  0
LINE
  8
0
 10
5.23503
 20
-17.9058
 11
5.461
 21
-18.2332
  0
LINE
  8
0
 10
5.461
 20
-18.2332
 11
5.60205
 21
-18.6051
  0
LINE
  8
0
 10
5.60205
 20
-18.6051
 11
5.64999
 21
-19
  0
LINE
  8
0
 10
5.64999
 20
-19
 11
5.60205
 21
-19.3949
  0
LINE
  8
0
 10
5.60205
 20
-19.3949
 11
5.461
 21
-19.7668
  0
LINE
  8
0
 10
5.461
 20
-19.7668
 11
5.23503
 21
-20.0941
  0
LINE
  8
0
 10
5.23503
 20
-20.0941
 11
4.9373
 21
-20.3579
  0
LINE
  8
0
 10
4.9373
 20
-20.3579
 11
4.58508
 21
-20.5428
  0
LINE
  8
0
 10
4.58508
 20
-20.5428
 11
4.19888
 21
-20.638
  0
LINE
  8
0
 10
4.19888
 20
-20.638
 11
3.8011
 21
-20.638
  0
LINE
  8
0
 10
129.252
 20
-28.9459
 11
128.86
 21
-28.8741
  0
LINE
  8
0
 10
128.86
 20
-28.8741
 11
128.48
 21
-28.7556
  0
LINE
  8
0
 10
128.48
 20
-28.7556
 11
128.116
 21
-28.592
  0
LINE
  8
0
 10
128.116
 20
-28.592
 11
127.775
 21
-28.3858
  0
LINE
  8
0
 10
127.775
 20
-28.3858
 11
127.462
 21
-28.1401
  0
LINE
  8
0
 10
127.462
 20
-28.1401
 11
127.18
 21
-27.8583
  0
LINE
  8
0
 10
127.18
 20
-27.8583
 11
126.934
 21
-27.5446
  0
LINE
  8
0
 10
126.934
 20
-27.5446
 11
126.728
 21
-27.2036
  0
LINE
  8
0
 10
126.728
 20
-27.2036
 11
126.564
 21
-26.8402
  0
LINE
  8
0
 10
126.564
 20
-26.8402
 11
126.446
 21
-26.4597
  0
LINE
  8
0
 10
126.446
 20
-26.4597
 11
126.374
 21
-26.0678
  0
LINE
  8
0
 10
126.374
 20
-26.0678
 11
126.35
 21
-25.67
  0
LINE
  8
0
 10
126.35
 20
-25.67
 11
126.374
 21
-25.2722
  0
LINE
  8
0
 10
126.374
 20
-25.2722
 11
126.446
 21
-24.8802
  0
LINE
  8
0
 10
126.446
 20
-24.8802
 11
126.564
 21
-24.4998
  0
LINE
  8
0
 10
126.564
 20
-24.4998
 11
126.728
 21
-24.1364
  0
LINE
  8
0
 10
126.728
 20
-24.1364
 11
126.934
 21
-23.7954
  0
LINE
  8
0
 10
126.934
 20
-23.7954
 11
127.18
 21
-23.4817
  0
LINE
  8
0
 10
127.18
 20
-23.4817
 11
127.462
 21
-23.1999
  0
LINE
  8
0
 10
127.462
 20
-23.1999
 11
127.775
 21
-22.9541
  0
LINE
  8
0
 10
127.775
 20
-22.9541
 11
128.116
 21
-22.748
  0
LINE
  8
0
 10
128.116
 20
-22.748
 11
128.48
 21
-22.5844
  0
LINE
  8
0
 10
128.48
 20
-22.5844
 11
128.86
 21
-22.4659
  0
LINE
  8
0
 10
128.86
 20
-22.4659
 11
129.252
 21
-22.3941
  0
LINE
  8
0
 10
129.252
 20
-22.3941
 11
129.65
 21
-22.37
  0
LINE
  8
0
 10
129.65
 20
-22.37
 11
130.048
 21
-22.3941
  0
LINE
  8
0
 10
130.048
 20
-22.3941
 11
130.44
 21
-22.4659
  0
LINE
  8
0
 10
130.44
 20
-22.4659
 11
130.82
 21
-22.5844
  0
LINE
  8
0
 10
130.82
 20
-22.5844
 11
131.184
 21
-22.748
  0
LINE
  8
0
 10
131.184
 20
-22.748
 11
131.525
 21
-22.9541
  0
LINE
  8
0
 10
131.525
 20
-22.9541
 11
131.838
 21
-23.1999
  0
LINE
  8
0
 10
131.838
 20
-23.1999
 11
132.12
 21
-23.4817
  0
LINE
  8
0
 10
132.12
 20
-23.4817
 11
132.366
 21
-23.7954
  0
LINE
  8
0
 10
132.366
 20
-23.7954
 11
132.572
 21
-24.1364
  0
LINE
  8
0
 10
132.572
 20
-24.1364
 11
132.736
 21
-24.4998
  0
LINE
  8
0
 10
132.736
 20
-24.4998
 11
132.854
 21
-24.8802
  0
LINE
  8
0
 10
132.854
 20
-24.8802
 11
132.926
 21
-25.2722
  0
LINE
  8
0
 10
132.926
 20
-25.2722
 11
132.95
 21
-25.67
  0
LINE
  8
0
 10
132.95
 20
-25.67
 11
132.926
 21
-26.0678
  0
LINE
  8
0
 10
132.926
 20
-26.0678
 11
132.854
 21
-26.4597
  0
LINE
  8
0
 10
132.854
 20
-26.4597
 11
132.736
 21
-26.8402
  0
LINE
  8
0
 10
132.736
 20
-26.8402
 11
132.572
 21
-27.2036
  0
LINE
  8
0
 10
132.572
 20
-27.2036
 11
132.366
 21
-27.5446
  0
LINE
  8
0
 10
132.366
 20
-27.5446
 11
132.12
 21
-27.8583
  0
LINE
  8
0
 10
132.12
 20
-27.8583
 11
131.838
 21
-28.1401
  0
LINE
  8
0
 10
131.838
 20
-28.1401
 11
131.525
 21
-28.3858
  0
LINE
  8
0
 10
131.525
 20
-28.3858
 11
131.184
 21
-28.592
  0
LINE
  8
0
 10
131.184
 20
-28.592
 11
130.82
 21
-28.7556
  0
LINE
  8
0
 10
130.82
 20
-28.7556
 11
130.44
 21
-28.8741
  0
LINE
  8
0
 10
130.44
 20
-28.8741
 11
130.048
 21
-28.9459
  0
LINE
  8
0
 10
130.048
 20
-28.9459
 11
129.65
 21
-28.97
  0
LINE
  8
0
 10
129.65
 20
-28.97
 11
129.252
 21
-28.9459
  0
LINE
  8
0
 10
111.252
 20
-28.9459
 11
110.86
 21
-28.8741
  0
LINE
  8
0
 10
110.86
 20
-28.8741
 11
110.48
 21
-28.7556
  0
LINE
  8
0
 10
110.48
 20
-28.7556
 11
110.116
 21
-28.592
  0
LINE
  8
0
 10
110.116
 20
-28.592
 11
109.775
 21
-28.3858
  0
LINE
  8
0
 10
109.775
 20
-28.3858
 11
109.462
 21
-28.1401
  0
LINE
  8
0
 10
109.462
 20
-28.1401
 11
109.18
 21
-27.8583
  0
LINE
  8
0
 10
109.18
 20
-27.8583
 11
108.934
 21
-27.5446
  0
LINE
  8
0
 10
108.934
 20
-27.5446
 11
108.728
 21
-27.2036
  0
LINE
  8
0
 10
108.728
 20
-27.2036
 11
108.564
 21
-26.8402
  0
LINE
  8
0
 10
108.564
 20
-26.8402
 11
108.446
 21
-26.4597
  0
LINE
  8
0
 10
108.446
 20
-26.4597
 11
108.374
 21
-26.0678
  0
LINE
  8
0
 10
108.374
 20
-26.0678
 11
108.35
 21
-25.67
  0
LINE
  8
0
 10
108.35
 20
-25.67
 11
108.374
 21
-25.2722
  0
LINE
  8
0
 10
108.374
 20
-25.2722
 11
108.446
 21
-24.8802
  0
LINE
  8
0
 10
108.446
 20
-24.8802
 11
108.564
 21
-24.4998
  0
LINE
  8
0
 10
108.564
 20
-24.4998
 11
108.728
 21
-24.1364
  0
LINE
  8
0
 10
108.728
 20
-24.1364
 11
108.934
 21
-23.7954
  0
LINE
  8
0
 10
108.934
 20
-23.7954
 11
109.18
 21
-23.4817
  0
LINE
  8
0
 10
109.18
 20
-23.4817
 11
109.462
 21
-23.1999
  0
LINE
  8
0
 10
109.462
 20
-23.1999
 11
109.775
 21
-22.9541
  0
LINE
  8
0
 10
109.775
 20
-22.9541
 11
110.116
 21
-22.748
  0
LINE
  8
0
 10
110.116
 20
-22.748
 11
110.48
 21
-22.5844
  0
LINE
  8
0
 10
110.48
 20
-22.5844
 11
110.86
 21
-22.4659
  0
LINE
  8
0
 10
110.86
 20
-22.4659
 11
111.252
 21
-22.3941
  0
LINE
  8
0
 10
111.252
 20
-22.3941
 11
111.65
 21
-22.37
  0
LINE
  8
0
 10
111.65
 20
-22.37
 11
112.048
 21
-22.3941
  0
LINE
  8
0
 10
112.048
 20
-22.3941
 11
112.44
 21
-22.4659
  0
LINE
  8
0
 10
112.44
 20
-22.4659
 11
112.82
 21
-22.5844
  0
LINE
  8
0
 10
112.82
 20
-22.5844
 11
113.184
 21
-22.748
  0
LINE
  8
0
 10
113.184
 20
-22.748
 11
113.525
 21
-22.9541
  0
LINE
  8
0
 10
113.525
 20
-22.9541
 11
113.838
 21
-23.1999
  0
LINE
  8
0
 10
113.838
 20
-23.1999
 11
114.12
 21
-23.4817
  0
LINE
  8
0
 10
114.12
 20
-23.4817
 11
114.366
 21
-23.7954
  0
LINE
  8
0
 10
114.366
 20
-23.7954
 11
114.572
 21
-24.1364
  0
LINE
  8
0
 10
114.572
 20
-24.1364
 11
114.736
 21
-24.4998
  0
LINE
  8
0
 10
114.736
 20
-24.4998
 11
114.854
 21
-24.8802
  0
LINE
  8
0
 10
114.854
 20
-24.8802
 11
114.926
 21
-25.2722
  0
LINE
  8
0
 10
114.926
 20
-25.2722
 11
114.95
 21
-25.67
  0
LINE
  8
0
 10
114.95
 20
-25.67
 11
114.926
 21
-26.0678
  0
LINE
  8
0
 10
114.926
 20
-26.0678
 11
114.854
 21
-26.4597
  0
LINE
  8
0
 10
114.854
 20
-26.4597
 11
114.736
 21
-26.8402
  0
LINE
  8
0
 10
114.736
 20
-26.8402
 11
114.572
 21
-27.2036
  0
LINE
  8
0
 10
114.572
 20
-27.2036
 11
114.366
 21
-27.5446
  0
LINE
  8
0
 10
114.366
 20
-27.5446
 11
114.12
 21
-27.8583
  0
LINE
  8
0
 10
114.12
 20
-27.8583
 11
113.838
 21
-28.1401
  0
LINE
  8
0
 10
113.838
 20
-28.1401
 11
113.525
 21
-28.3858
  0
LINE
  8
0
 10
113.525
 20
-28.3858
 11
113.184
 21
-28.592
  0
LINE
  8
0
 10
113.184
 20
-28.592
 11
112.82
 21
-28.7556
  0
LINE
  8
0
 10
112.82
 20
-28.7556
 11
112.44
 21
-28.8741
  0
LINE
  8
0
 10
112.44
 20
-28.8741
 11
112.048
 21
-28.9459
  0
LINE
  8
0
 10
112.048
 20
-28.9459
 11
111.65
 21
-28.97
  0
LINE
  8
0
 10
111.65
 20
-28.97
 11
111.252
 21
-28.9459
  0
LINE
  8
0
 10
93.2522
 20
-28.9459
 11
92.8603
 21
-28.8741
  0
LINE
  8
0
 10
92.8603
 20
-28.8741
 11
92.4798
 21
-28.7556
  0
LINE
  8
0
 10
92.4798
 20
-28.7556
 11
92.1164
 21
-28.592
  0
LINE
  8
0
 10
92.1164
 20
-28.592
 11
91.7754
 21
-28.3858
  0
LINE
  8
0
 10
91.7754
 20
-28.3858
 11
91.4617
 21
-28.1401
  0
LINE
  8
0
 10
91.4617
 20
-28.1401
 11
91.1799
 21
-27.8583
  0
LINE
  8
0
 10
91.1799
 20
-27.8583
 11
90.9341
 21
-27.5446
  0
LINE
  8
0
 10
90.9341
 20
-27.5446
 11
90.728
 21
-27.2036
  0
LINE
  8
0
 10
90.728
 20
-27.2036
 11
90.5644
 21
-26.8402
  0
LINE
  8
0
 10
90.5644
 20
-26.8402
 11
90.4459
 21
-26.4597
  0
LINE
  8
0
 10
90.4459
 20
-26.4597
 11
90.3741
 21
-26.0678
  0
LINE
  8
0
 10
90.3741
 20
-26.0678
 11
90.35
 21
-25.67
  0
LINE
  8
0
 10
90.35
 20
-25.67
 11
90.3741
 21
-25.2722
  0
LINE
  8
0
 10
90.3741
 20
-25.2722
 11
90.4459
 21
-24.8802
  0
LINE
  8
0
 10
90.4459
 20
-24.8802
 11
90.5644
 21
-24.4998
  0
LINE
  8
0
 10
90.5644
 20
-24.4998
 11
90.728
 21
-24.1364
  0
LINE
  8
0
 10
90.728
 20
-24.1364
 11
90.9341
 21
-23.7954
  0
LINE
  8
0
 10
90.9341
 20
-23.7954
 11
91.1799
 21
-23.4817
  0
LINE
  8
0
 10
91.1799
 20
-23.4817
 11
91.4617
 21
-23.1999
  0
LINE
  8
0
 10
91.4617
 20
-23.1999
 11
91.7754
 21
-22.9541
  0
LINE
  8
0
 10
91.7754
 20
-22.9541
 11
92.1164
 21
-22.748
  0
LINE
  8
0
 10
92.1164
 20
-22.748
 11
92.4798
 21
-22.5844
  0
LINE
  8
0
 10
92.4798
 20
-22.5844
 11
92.8603
 21
-22.4659
  0
LINE
  8
0
 10
92.8603
 20
-22.4659
 11
93.2522
 21
-22.3941
  0
LINE
  8
0
 10
93.2522
 20
-22.3941
 11
93.65
 21
-22.37
  0
LINE
  8
0
 10
93.65
 20
-22.37
 11
94.0478
 21
-22.3941
  0
LINE
  8
0
 10
94.0478
 20
-22.3941
 11
94.4397
 21
-22.4659
  0
LINE
  8
0
 10
94.4397
 20
-22.4659
 11
94.8202
 21
-22.5844
  0
LINE
  8
0
 10
94.8202
 20
-22.5844
 11
95.1836
 21
-22.748
  0
LINE
  8
0
 10
95.1836
 20
-22.748
 11
95.5246
 21
-22.9541
  0
LINE
  8
0
 10
95.5246
 20
-22.9541
 11
95.8383
 21
-23.1999
  0
LINE
  8
0
 10
95.8383
 20
-23.1999
 11
96.1201
 21
-23.4817
  0
LINE
  8
0
 10
96.1201
 20
-23.4817
 11
96.3658
 21
-23.7954
  0
LINE
  8
0
 10
96.3658
 20
-23.7954
 11
96.572
 21
-24.1364
  0
LINE
  8
0
 10
96.572
 20
-24.1364
 11
96.7355
 21
-24.4998
  0
LINE
  8
0
 10
96.7355
 20
-24.4998
 11
96.8541
 21
-24.8802
  0
LINE
  8
0
 10
96.8541
 20
-24.8802
 11
96.9259
 21
-25.2722
  0
LINE
  8
0
 10
96.9259
 20
-25.2722
 11
96.95
 21
-25.67
  0
LINE
  8
0
 10
96.95
 20
-25.67
 11
96.9259
 21
-26.0678
  0
LINE
  8
0
 10
96.9259
 20
-26.0678
 11
96.8541
 21
-26.4597
  0
LINE
  8
0
 10
96.8541
 20
-26.4597
 11
96.7355
 21
-26.8402
  0
LINE
  8
0
 10
96.7355
 20
-26.8402
 11
96.572
 21
-27.2036
  0
LINE
  8
0
 10
96.572
 20
-27.2036
 11
96.3658
 21
-27.5446
  0
LINE
  8
0
 10
96.3658
 20
-27.5446
 11
96.1201
 21
-27.8583
  0
LINE
  8
0
 10
96.1201
 20
-27.8583
 11
95.8383
 21
-28.1401
  0
LINE
  8
0
 10
95.8383
 20
-28.1401
 11
95.5246
 21
-28.3858
  0
LINE
  8
0
 10
95.5246
 20
-28.3858
 11
95.1836
 21
-28.592
  0
LINE
  8
0
 10
95.1836
 20
-28.592
 11
94.8202
 21
-28.7556
  0
LINE
  8
0
 10
94.8202
 20
-28.7556
 11
94.4397
 21
-28.8741
  0
LINE
  8
0
 10
94.4397
 20
-28.8741
 11
94.0478
 21
-28.9459
  0
LINE
  8
0
 10
94.0478
 20
-28.9459
 11
93.65
 21
-28.97
  0
LINE
  8
0
 10
93.65
 20
-28.97
 11
93.2522
 21
-28.9459
  0
LINE
  8
0
 10
147.252
 20
-28.9459
 11
146.86
 21
-28.8741
  0
LINE
  8
0
 10
146.86
 20
-28.8741
 11
146.48
 21
-28.7556
  0
LINE
  8
0
 10
146.48
 20
-28.7556
 11
146.116
 21
-28.592
  0
LINE
  8
0
 10
146.116
 20
-28.592
 11
145.775
 21
-28.3858
  0
LINE
  8
0
 10
145.775
 20
-28.3858
 11
145.462
 21
-28.1401
  0
LINE
  8
0
 10
145.462
 20
-28.1401
 11
145.18
 21
-27.8583
  0
LINE
  8
0
 10
145.18
 20
-27.8583
 11
144.934
 21
-27.5446
  0
LINE
  8
0
 10
144.934
 20
-27.5446
 11
144.728
 21
-27.2036
  0
LINE
  8
0
 10
144.728
 20
-27.2036
 11
144.564
 21
-26.8402
  0
LINE
  8
0
 10
144.564
 20
-26.8402
 11
144.446
 21
-26.4597
  0
LINE
  8
0
 10
144.446
 20
-26.4597
 11
144.374
 21
-26.0678
  0
LINE
  8
0
 10
144.374
 20
-26.0678
 11
144.35
 21
-25.67
  0
LINE
  8
0
 10
144.35
 20
-25.67
 11
144.374
 21
-25.2722
  0
LINE
  8
0
 10
144.374
 20
-25.2722
 11
144.446
 21
-24.8802
  0
LINE
  8
0
 10
144.446
 20
-24.8802
 11
144.564
 21
-24.4998
  0
LINE
  8
0
 10
144.564
 20
-24.4998
 11
144.728
 21
-24.1364
  0
LINE
  8
0
 10
144.728
 20
-24.1364
 11
144.934
 21
-23.7954
  0
LINE
  8
0
 10
144.934
 20
-23.7954
 11
145.18
 21
-23.4817
  0
LINE
  8
0
 10
145.18
 20
-23.4817
 11
145.462
 21
-23.1999
  0
LINE
  8
0
 10
145.462
 20
-23.1999
 11
145.775
 21
-22.9541
  0
LINE
  8
0
 10
145.775
 20
-22.9541
 11
146.116
 21
-22.748
  0
LINE
  8
0
 10
146.116
 20
-22.748
 11
146.48
 21
-22.5844
  0
LINE
  8
0
 10
146.48
 20
-22.5844
 11
146.86
 21
-22.4659
  0
LINE
  8
0
 10
146.86
 20
-22.4659
 11
147.252
 21
-22.3941
  0
LINE
  8
0
 10
147.252
 20
-22.3941
 11
147.65
 21
-22.37
  0
LINE
  8
0
 10
147.65
 20
-22.37
 11
148.048
 21
-22.3941
  0
LINE
  8
0
 10
148.048
 20
-22.3941
 11
148.44
 21
-22.4659
  0
LINE
  8
0
 10
148.44
 20
-22.4659
 11
148.82
 21
-22.5844
  0
LINE
  8
0
 10
148.82
 20
-22.5844
 11
149.184
 21
-22.748
  0
LINE
  8
0
 10
149.184
 20
-22.748
 11
149.525
 21
-22.9541
  0
LINE
  8
0
 10
149.525
 20
-22.9541
 11
149.838
 21
-23.1999
  0
LINE
  8
0
 10
149.838
 20
-23.1999
 11
150.12
 21
-23.4817
  0
LINE
  8
0
 10
150.12
 20
-23.4817
 11
150.366
 21
-23.7954
  0
LINE
  8
0
 10
150.366
 20
-23.7954
 11
150.572
 21
-24.1364
  0
LINE
  8
0
 10
150.572
 20
-24.1364
 11
150.736
 21
-24.4998
  0
LINE
  8
0
 10
150.736
 20
-24.4998
 11
150.854
 21
-24.8802
  0
LINE
  8
0
 10
150.854
 20
-24.8802
 11
150.926
 21
-25.2722
  0
LINE
  8
0
 10
150.926
 20
-25.2722
 11
150.95
 21
-25.67
  0
LINE
  8
0
 10
150.95
 20
-25.67
 11
150.926
 21
-26.0678
  0
LINE
  8
0
 10
150.926
 20
-26.0678
 11
150.854
 21
-26.4597
  0
LINE
  8
0
 10
150.854
 20
-26.4597
 11
150.736
 21
-26.8402
  0
LINE
  8
0
 10
150.736
 20
-26.8402
 11
150.572
 21
-27.2036
  0
LINE
  8
0
 10
150.572
 20
-27.2036
 11
150.366
 21
-27.5446
  0
LINE
  8
0
 10
150.366
 20
-27.5446
 11
150.12
 21
-27.8583
  0
LINE
  8
0
 10
150.12
 20
-27.8583
 11
149.838
 21
-28.1401
  0
LINE
  8
0
 10
149.838
 20
-28.1401
 11
149.525
 21
-28.3858
  0
LINE
  8
0
 10
149.525
 20
-28.3858
 11
149.184
 21
-28.592
  0
LINE
  8
0
 10
149.184
 20
-28.592
 11
148.82
 21
-28.7556
  0
LINE
  8
0
 10
148.82
 20
-28.7556
 11
148.44
 21
-28.8741
  0
LINE
  8
0
 10
148.44
 20
-28.8741
 11
148.048
 21
-28.9459
  0
LINE
  8
0
 10
148.048
 20
-28.9459
 11
147.65
 21
-28.97
  0
LINE
  8
0
 10
147.65
 20
-28.97
 11
147.252
 21
-28.9459
  0
LINE
  8
0
 10
75.2522
 20
-28.9459
 11
74.8603
 21
-28.8741
  0
LINE
  8
0
 10
74.8603
 20
-28.8741
 11
74.4798
 21
-28.7556
  0
LINE
  8
0
 10
74.4798
 20
-28.7556
 11
74.1164
 21
-28.592
  0
LINE
  8
0
 10
74.1164
 20
-28.592
 11
73.7754
 21
-28.3858
  0
LINE
  8
0
 10
73.7754
 20
-28.3858
 11
73.4617
 21
-28.1401
  0
LINE
  8
0
 10
73.4617
 20
-28.1401
 11
73.1799
 21
-27.8583
  0
LINE
  8
0
 10
73.1799
 20
-27.8583
 11
72.9341
 21
-27.5446
  0
LINE
  8
0
 10
72.9341
 20
-27.5446
 11
72.728
 21
-27.2036
  0
LINE
  8
0
 10
72.728
 20
-27.2036
 11
72.5644
 21
-26.8402
  0
LINE
  8
0
 10
72.5644
 20
-26.8402
 11
72.4459
 21
-26.4597
  0
LINE
  8
0
 10
72.4459
 20
-26.4597
 11
72.3741
 21
-26.0678
  0
LINE
  8
0
 10
72.3741
 20
-26.0678
 11
72.35
 21
-25.67
  0
LINE
  8
0
 10
72.35
 20
-25.67
 11
72.3741
 21
-25.2722
  0
LINE
  8
0
 10
72.3741
 20
-25.2722
 11
72.4459
 21
-24.8802
  0
LINE
  8
0
 10
72.4459
 20
-24.8802
 11
72.5644
 21
-24.4998
  0
LINE
  8
0
 10
72.5644
 20
-24.4998
 11
72.728
 21
-24.1364
  0
LINE
  8
0
 10
72.728
 20
-24.1364
 11
72.9341
 21
-23.7954
  0
LINE
  8
0
 10
72.9341
 20
-23.7954
 11
73.1799
 21
-23.4817
  0
LINE
  8
0
 10
73.1799
 20
-23.4817
 11
73.4617
 21
-23.1999
  0
LINE
  8
0
 10
73.4617
 20
-23.1999
 11
73.7754
 21
-22.9541
  0
LINE
  8
0
 10
73.7754
 20
-22.9541
 11
74.1164
 21
-22.748
  0
LINE
  8
0
 10
74.1164
 20
-22.748
 11
74.4798
 21
-22.5844
  0
LINE
  8
0
 10
74.4798
 20
-22.5844
 11
74.8603
 21
-22.4659
  0
LINE
  8
0
 10
74.8603
 20
-22.4659
 11
75.2522
 21
-22.3941
  0
LINE
  8
0
 10
75.2522
 20
-22.3941
 11
75.65
 21
-22.37
  0
LINE
  8
0
 10
75.65
 20
-22.37
 11
76.0478
 21
-22.3941
  0
LINE
  8
0
 10
76.0478
 20
-22.3941
 11
76.4397
 21
-22.4659
  0
LINE
  8
0
 10
76.4397
 20
-22.4659
 11
76.8202
 21
-22.5844
  0
LINE
  8
0
 10
76.8202
 20
-22.5844
 11
77.1836
 21
-22.748
  0
LINE
  8
0
 10
77.1836
 20
-22.748
 11
77.5246
 21
-22.9541
  0
LINE
  8
0
 10
77.5246
 20
-22.9541
 11
77.8383
 21
-23.1999
  0
LINE
  8
0
 10
77.8383
 20
-23.1999
 11
78.1201
 21
-23.4817
  0
LINE
  8
0
 10
78.1201
 20
-23.4817
 11
78.3658
 21
-23.7954
  0
LINE
  8
0
 10
78.3658
 20
-23.7954
 11
78.572
 21
-24.1364
  0
LINE
  8
0
 10
78.572
 20
-24.1364
 11
78.7355
 21
-24.4998
  0
LINE
  8
0
 10
78.7355
 20
-24.4998
 11
78.8541
 21
-24.8802
  0
LINE
  8
0
 10
78.8541
 20
-24.8802
 11
78.9259
 21
-25.2722
  0
LINE
  8
0
 10
78.9259
 20
-25.2722
 11
78.95
 21
-25.67
  0
LINE
  8
0
 10
78.95
 20
-25.67
 11
78.9259
 21
-26.0678
  0
LINE
  8
0
 10
78.9259
 20
-26.0678
 11
78.8541
 21
-26.4597
  0
LINE
  8
0
 10
78.8541
 20
-26.4597
 11
78.7355
 21
-26.8402
  0
LINE
  8
0
 10
78.7355
 20
-26.8402
 11
78.572
 21
-27.2036
  0
LINE
  8
0
 10
78.572
 20
-27.2036
 11
78.3658
 21
-27.5446
  0
LINE
  8
0
 10
78.3658
 20
-27.5446
 11
78.1201
 21
-27.8583
  0
LINE
  8
0
 10
78.1201
 20
-27.8583
 11
77.8383
 21
-28.1401
  0
LINE
  8
0
 10
77.8383
 20
-28.1401
 11
77.5246
 21
-28.3858
  0
LINE
  8
0
 10
77.5246
 20
-28.3858
 11
77.1836
 21
-28.592
  0
LINE
  8
0
 10
77.1836
 20
-28.592
 11
76.8202
 21
-28.7556
  0
LINE
  8
0
 10
76.8202
 20
-28.7556
 11
76.4397
 21
-28.8741
  0
LINE
  8
0
 10
76.4397
 20
-28.8741
 11
76.0478
 21
-28.9459
  0
LINE
  8
0
 10
76.0478
 20
-28.9459
 11
75.65
 21
-28.97
  0
LINE
  8
0
 10
75.65
 20
-28.97
 11
75.2522
 21
-28.9459
  0
LINE
  8
0
 10
165.252
 20
-28.9459
 11
164.86
 21
-28.8741
  0
LINE
  8
0
 10
164.86
 20
-28.8741
 11
164.48
 21
-28.7556
  0
LINE
  8
0
 10
164.48
 20
-28.7556
 11
164.116
 21
-28.592
  0
LINE
  8
0
 10
164.116
 20
-28.592
 11
163.775
 21
-28.3858
  0
LINE
  8
0
 10
163.775
 20
-28.3858
 11
163.462
 21
-28.1401
  0
LINE
  8
0
 10
163.462
 20
-28.1401
 11
163.18
 21
-27.8583
  0
LINE
  8
0
 10
163.18
 20
-27.8583
 11
162.934
 21
-27.5446
  0
LINE
  8
0
 10
162.934
 20
-27.5446
 11
162.728
 21
-27.2036
  0
LINE
  8
0
 10
162.728
 20
-27.2036
 11
162.564
 21
-26.8402
  0
LINE
  8
0
 10
162.564
 20
-26.8402
 11
162.446
 21
-26.4597
  0
LINE
  8
0
 10
162.446
 20
-26.4597
 11
162.374
 21
-26.0678
  0
LINE
  8
0
 10
162.374
 20
-26.0678
 11
162.35
 21
-25.67
  0
LINE
  8
0
 10
162.35
 20
-25.67
 11
162.374
 21
-25.2722
  0
LINE
  8
0
 10
162.374
 20
-25.2722
 11
162.446
 21
-24.8802
  0
LINE
  8
0
 10
162.446
 20
-24.8802
 11
162.564
 21
-24.4998
  0
LINE
  8
0
 10
162.564
 20
-24.4998
 11
162.728
 21
-24.1364
  0
LINE
  8
0
 10
162.728
 20
-24.1364
 11
162.934
 21
-23.7954
  0
LINE
  8
0
 10
162.934
 20
-23.7954
 11
163.18
 21
-23.4817
  0
LINE
  8
0
 10
163.18
 20
-23.4817
 11
163.462
 21
-23.1999
  0
LINE
  8
0
 10
163.462
 20
-23.1999
 11
163.775
 21
-22.9541
  0
LINE
  8
0
 10
163.775
 20
-22.9541
 11
164.116
 21
-22.748
  0
LINE
  8
0
 10
164.116
 20
-22.748
 11
164.48
 21
-22.5844
  0
LINE
  8
0
 10
164.48
 20
-22.5844
 11
164.86
 21
-22.4659
  0
LINE
  8
0
 10
164.86
 20
-22.4659
 11
165.252
 21
-22.3941
  0
LINE
  8
0
 10
165.252
 20
-22.3941
 11
165.65
 21
-22.37
  0
LINE
  8
0
 10
165.65
 20
-22.37
 11
166.048
 21
-22.3941
  0
LINE
  8
0
 10
166.048
 20
-22.3941
 11
166.44
 21
-22.4659
  0
LINE
  8
0
 10
166.44
 20
-22.4659
 11
166.82
 21
-22.5844
  0
LINE
  8
0
 10
166.82
 20
-22.5844
 11
167.184
 21
-22.748
  0
LINE
  8
0
 10
167.184
 20
-22.748
 11
167.525
 21
-22.9541
  0
LINE
  8
0
 10
167.525
 20
-22.9541
 11
167.838
 21
-23.1999
  0
LINE
  8
0
 10
167.838
 20
-23.1999
 11
168.12
 21
-23.4817
  0
LINE
  8
0
 10
168.12
 20
-23.4817
 11
168.366
 21
-23.7954
  0
LINE
  8
0
 10
168.366
 20
-23.7954
 11
168.572
 21
-24.1364
  0
LINE
  8
0
 10
168.572
 20
-24.1364
 11
168.736
 21
-24.4998
  0
LINE
  8
0
 10
168.736
 20
-24.4998
 11
168.854
 21
-24.8802
  0
LINE
  8
0
 10
168.854
 20
-24.8802
 11
168.926
 21
-25.2722
  0
LINE
  8
0
 10
168.926
 20
-25.2722
 11
168.95
 21
-25.67
  0
LINE
  8
0
 10
168.95
 20
-25.67
 11
168.926
 21
-26.0678
  0
LINE
  8
0
 10
168.926
 20
-26.0678
 11
168.854
 21
-26.4597
  0
LINE
  8
0
 10
168.854
 20
-26.4597
 11
168.736
 21
-26.8402
  0
LINE
  8
0
 10
168.736
 20
-26.8402
 11
168.572
 21
-27.2036
  0
LINE
  8
0
 10
168.572
 20
-27.2036
 11
168.366
 21
-27.5446
  0
LINE
  8
0
 10
168.366
 20
-27.5446
 11
168.12
 21
-27.8583
  0
LINE
  8
0
 10
168.12
 20
-27.8583
 11
167.838
 21
-28.1401
  0
LINE
  8
0
 10
167.838
 20
-28.1401
 11
167.525
 21
-28.3858
  0
LINE
  8
0
 10
167.525
 20
-28.3858
 11
167.184
 21
-28.592
  0
LINE
  8
0
 10
167.184
 20
-28.592
 11
166.82
 21
-28.7556
  0
LINE
  8
0
 10
166.82
 20
-28.7556
 11
166.44
 21
-28.8741
  0
LINE
  8
0
 10
166.44
 20
-28.8741
 11
166.048
 21
-28.9459
  0
LINE
  8
0
 10
166.048
 20
-28.9459
 11
165.65
 21
-28.97
  0
LINE
  8
0
 10
165.65
 20
-28.97
 11
165.252
 21
-28.9459
  0
LINE
  8
0
 10
165.252
 20
-46.9459
 11
164.86
 21
-46.8741
  0
LINE
  8
0
 10
164.86
 20
-46.8741
 11
164.48
 21
-46.7556
  0
LINE
  8
0
 10
164.48
 20
-46.7556
 11
164.116
 21
-46.592
  0
LINE
  8
0
 10
164.116
 20
-46.592
 11
163.775
 21
-46.3858
  0
LINE
  8
0
 10
163.775
 20
-46.3858
 11
163.462
 21
-46.1401
  0
LINE
  8
0
 10
163.462
 20
-46.1401
 11
163.18
 21
-45.8583
  0
LINE
  8
0
 10
163.18
 20
-45.8583
 11
162.934
 21
-45.5446
  0
LINE
  8
0
 10
162.934
 20
-45.5446
 11
162.728
 21
-45.2036
  0
LINE
  8
0
 10
162.728
 20
-45.2036
 11
162.564
 21
-44.8402
  0
LINE
  8
0
 10
162.564
 20
-44.8402
 11
162.446
 21
-44.4597
  0
LINE
  8
0
 10
162.446
 20
-44.4597
 11
162.374
 21
-44.0678
  0
LINE
  8
0
 10
162.374
 20
-44.0678
 11
162.35
 21
-43.67
  0
LINE
  8
0
 10
162.35
 20
-43.67
 11
162.374
 21
-43.2722
  0
LINE
  8
0
 10
162.374
 20
-43.2722
 11
162.446
 21
-42.8802
  0
LINE
  8
0
 10
162.446
 20
-42.8802
 11
162.564
 21
-42.4998
  0
LINE
  8
0
 10
162.564
 20
-42.4998
 11
162.728
 21
-42.1364
  0
LINE
  8
0
 10
162.728
 20
-42.1364
 11
162.934
 21
-41.7954
  0
LINE
  8
0
 10
162.934
 20
-41.7954
 11
163.18
 21
-41.4817
  0
LINE
  8
0
 10
163.18
 20
-41.4817
 11
163.462
 21
-41.1999
  0
LINE
  8
0
 10
163.462
 20
-41.1999
 11
163.775
 21
-40.9541
  0
LINE
  8
0
 10
163.775
 20
-40.9541
 11
164.116
 21
-40.748
  0
LINE
  8
0
 10
164.116
 20
-40.748
 11
164.48
 21
-40.5844
  0
LINE
  8
0
 10
164.48
 20
-40.5844
 11
164.86
 21
-40.4659
  0
LINE
  8
0
 10
164.86
 20
-40.4659
 11
165.252
 21
-40.3941
  0
LINE
  8
0
 10
165.252
 20
-40.3941
 11
165.65
 21
-40.37
  0
LINE
  8
0
 10
165.65
 20
-40.37
 11
166.048
 21
-40.3941
  0
LINE
  8
0
 10
166.048
 20
-40.3941
 11
166.44
 21
-40.4659
  0
LINE
  8
0
 10
166.44
 20
-40.4659
 11
166.82
 21
-40.5844
  0
LINE
  8
0
 10
166.82
 20
-40.5844
 11
167.184
 21
-40.748
  0
LINE
  8
0
 10
167.184
 20
-40.748
 11
167.525
 21
-40.9541
  0
LINE
  8
0
 10
167.525
 20
-40.9541
 11
167.838
 21
-41.1999
  0
LINE
  8
0
 10
167.838
 20
-41.1999
 11
168.12
 21
-41.4817
  0
LINE
  8
0
 10
168.12
 20
-41.4817
 11
168.366
 21
-41.7954
  0
LINE
  8
0
 10
168.366
 20
-41.7954
 11
168.572
 21
-42.1364
  0
LINE
  8
0
 10
168.572
 20
-42.1364
 11
168.736
 21
-42.4998
  0
LINE
  8
0
 10
168.736
 20
-42.4998
 11
168.854
 21
-42.8802
  0
LINE
  8
0
 10
168.854
 20
-42.8802
 11
168.926
 21
-43.2722
  0
LINE
  8
0
 10
168.926
 20
-43.2722
 11
168.95
 21
-43.67
  0
LINE
  8
0
 10
168.95
 20
-43.67
 11
168.926
 21
-44.0678
  0
LINE
  8
0
 10
168.926
 20
-44.0678
 11
168.854
 21
-44.4597
  0
LINE
  8
0
 10
168.854
 20
-44.4597
 11
168.736
 21
-44.8402
  0
LINE
  8
0
 10
168.736
 20
-44.8402
 11
168.572
 21
-45.2036
  0
LINE
  8
0
 10
168.572
 20
-45.2036
 11
168.366
 21
-45.5446
  0
LINE
  8
0
 10
168.366
 20
-45.5446
 11
168.12
 21
-45.8583
  0
LINE
  8
0
 10
168.12
 20
-45.8583
 11
167.838
 21
-46.1401
  0
LINE
  8
0
 10
167.838
 20
-46.1401
 11
167.525
 21
-46.3858
  0
LINE
  8
0
 10
167.525
 20
-46.3858
 11
167.184
 21
-46.592
  0
LINE
  8
0
 10
167.184
 20
-46.592
 11
166.82
 21
-46.7556
  0
LINE
  8
0
 10
166.82
 20
-46.7556
 11
166.44
 21
-46.8741
  0
LINE
  8
0
 10
166.44
 20
-46.8741
 11
166.048
 21
-46.9459
  0
LINE
  8
0
 10
166.048
 20
-46.9459
 11
165.65
 21
-46.97
  0
LINE
  8
0
 10
165.65
 20
-46.97
 11
165.252
 21
-46.9459
  0
LINE
  8
0
 10
129.252
 20
-46.9459
 11
128.86
 21
-46.8741
  0
LINE
  8
0
 10
128.86
 20
-46.8741
 11
128.48
 21
-46.7556
  0
LINE
  8
0
 10
128.48
 20
-46.7556
 11
128.116
 21
-46.592
  0
LINE
  8
0
 10
128.116
 20
-46.592
 11
127.775
 21
-46.3858
  0
LINE
  8
0
 10
127.775
 20
-46.3858
 11
127.462
 21
-46.1401
  0
LINE
  8
0
 10
127.462
 20
-46.1401
 11
127.18
 21
-45.8583
  0
LINE
  8
0
 10
127.18
 20
-45.8583
 11
126.934
 21
-45.5446
  0
LINE
  8
0
 10
126.934
 20
-45.5446
 11
126.728
 21
-45.2036
  0
LINE
  8
0
 10
126.728
 20
-45.2036
 11
126.564
 21
-44.8402
  0
LINE
  8
0
 10
126.564
 20
-44.8402
 11
126.446
 21
-44.4597
  0
LINE
  8
0
 10
126.446
 20
-44.4597
 11
126.374
 21
-44.0678
  0
LINE
  8
0
 10
126.374
 20
-44.0678
 11
126.35
 21
-43.67
  0
LINE
  8
0
 10
126.35
 20
-43.67
 11
126.374
 21
-43.2722
  0
LINE
  8
0
 10
126.374
 20
-43.2722
 11
126.446
 21
-42.8802
  0
LINE
  8
0
 10
126.446
 20
-42.8802
 11
126.564
 21
-42.4998
  0
LINE
  8
0
 10
126.564
 20
-42.4998
 11
126.728
 21
-42.1364
  0
LINE
  8
0
 10
126.728
 20
-42.1364
 11
126.934
 21
-41.7954
  0
LINE
  8
0
 10
126.934
 20
-41.7954
 11
127.18
 21
-41.4817
  0
LINE
  8
0
 10
127.18
 20
-41.4817
 11
127.462
 21
-41.1999
  0
LINE
  8
0
 10
127.462
 20
-41.1999
 11
127.775
 21
-40.9541
  0
LINE
  8
0
 10
127.775
 20
-40.9541
 11
128.116
 21
-40.748
  0
LINE
  8
0
 10
128.116
 20
-40.748
 11
128.48
 21
-40.5844
  0
LINE
  8
0
 10
128.48
 20
-40.5844
 11
128.86
 21
-40.4659
  0
LINE
  8
0
 10
128.86
 20
-40.4659
 11
129.252
 21
-40.3941
  0
LINE
  8
0
 10
129.252
 20
-40.3941
 11
129.65
 21
-40.37
  0
LINE
  8
0
 10
129.65
 20
-40.37
 11
130.048
 21
-40.3941
  0
LINE
  8
0
 10
130.048
 20
-40.3941
 11
130.44
 21
-40.4659
  0
LINE
  8
0
 10
130.44
 20
-40.4659
 11
130.82
 21
-40.5844
  0
LINE
  8
0
 10
130.82
 20
-40.5844
 11
131.184
 21
-40.748
  0
LINE
  8
0
 10
131.184
 20
-40.748
 11
131.525
 21
-40.9541
  0
LINE
  8
0
 10
131.525
 20
-40.9541
 11
131.838
 21
-41.1999
  0
LINE
  8
0
 10
131.838
 20
-41.1999
 11
132.12
 21
-41.4817
  0
LINE
  8
0
 10
132.12
 20
-41.4817
 11
132.366
 21
-41.7954
  0
LINE
  8
0
 10
132.366
 20
-41.7954
 11
132.572
 21
-42.1364
  0
LINE
  8
0
 10
132.572
 20
-42.1364
 11
132.736
 21
-42.4998
  0
LINE
  8
0
 10
132.736
 20
-42.4998
 11
132.854
 21
-42.8802
  0
LINE
  8
0
 10
132.854
 20
-42.8802
 11
132.926
 21
-43.2722
  0
LINE
  8
0
 10
132.926
 20
-43.2722
 11
132.95
 21
-43.67
  0
LINE
  8
0
 10
132.95
 20
-43.67
 11
132.926
 21
-44.0678
  0
LINE
  8
0
 10
132.926
 20
-44.0678
 11
132.854
 21
-44.4597
  0
LINE
  8
0
 10
132.854
 20
-44.4597
 11
132.736
 21
-44.8402
  0
LINE
  8
0
 10
132.736
 20
-44.8402
 11
132.572
 21
-45.2036
  0
LINE
  8
0
 10
132.572
 20
-45.2036
 11
132.366
 21
-45.5446
  0
LINE
  8
0
 10
132.366
 20
-45.5446
 11
132.12
 21
-45.8583
  0
LINE
  8
0
 10
132.12
 20
-45.8583
 11
131.838
 21
-46.1401
  0
LINE
  8
0
 10
131.838
 20
-46.1401
 11
131.525
 21
-46.3858
  0
LINE
  8
0
 10
131.525
 20
-46.3858
 11
131.184
 21
-46.592
  0
LINE
  8
0
 10
131.184
 20
-46.592
 11
130.82
 21
-46.7556
  0
LINE
  8
0
 10
130.82
 20
-46.7556
 11
130.44
 21
-46.8741
  0
LINE
  8
0
 10
130.44
 20
-46.8741
 11
130.048
 21
-46.9459
  0
LINE
  8
0
 10
130.048
 20
-46.9459
 11
129.65
 21
-46.97
  0
LINE
  8
0
 10
129.65
 20
-46.97
 11
129.252
 21
-46.9459
  0
LINE
  8
0
 10
75.2522
 20
-46.9459
 11
74.8603
 21
-46.8741
  0
LINE
  8
0
 10
74.8603
 20
-46.8741
 11
74.4798
 21
-46.7556
  0
LINE
  8
0
 10
74.4798
 20
-46.7556
 11
74.1164
 21
-46.592
  0
LINE
  8
0
 10
74.1164
 20
-46.592
 11
73.7754
 21
-46.3858
  0
LINE
  8
0
 10
73.7754
 20
-46.3858
 11
73.4617
 21
-46.1401
  0
LINE
  8
0
 10
73.4617
 20
-46.1401
 11
73.1799
 21
-45.8583
  0
LINE
  8
0
 10
73.1799
 20
-45.8583
 11
72.9341
 21
-45.5446
  0
LINE
  8
0
 10
72.9341
 20
-45.5446
 11
72.728
 21
-45.2036
  0
LINE
  8
0
 10
72.728
 20
-45.2036
 11
72.5644
 21
-44.8402
  0
LINE
  8
0
 10
72.5644
 20
-44.8402
 11
72.4459
 21
-44.4597
  0
LINE
  8
0
 10
72.4459
 20
-44.4597
 11
72.3741
 21
-44.0678
  0
LINE
  8
0
 10
72.3741
 20
-44.0678
 11
72.35
 21
-43.67
  0
LINE
  8
0
 10
72.35
 20
-43.67
 11
72.3741
 21
-43.2722
  0
LINE
  8
0
 10
72.3741
 20
-43.2722
 11
72.4459
 21
-42.8802
  0
LINE
  8
0
 10
72.4459
 20
-42.8802
 11
72.5644
 21
-42.4998
  0
LINE
  8
0
 10
72.5644
 20
-42.4998
 11
72.728
 21
-42.1364
  0
LINE
  8
0
 10
72.728
 20
-42.1364
 11
72.9341
 21
-41.7954
  0
LINE
  8
0
 10
72.9341
 20
-41.7954
 11
73.1799
 21
-41.4817
  0
LINE
  8
0
 10
73.1799
 20
-41.4817
 11
73.4617
 21
-41.1999
  0
LINE
  8
0
 10
73.4617
 20
-41.1999
 11
73.7754
 21
-40.9541
  0
LINE
  8
0
 10
73.7754
 20
-40.9541
 11
74.1164
 21
-40.748
  0
LINE
  8
0
 10
74.1164
 20
-40.748
 11
74.4798
 21
-40.5844
  0
LINE
  8
0
 10
74.4798
 20
-40.5844
 11
74.8603
 21
-40.4659
  0
LINE
  8
0
 10
74.8603
 20
-40.4659
 11
75.2522
 21
-40.3941
  0
LINE
  8
0
 10
75.2522
 20
-40.3941
 11
75.65
 21
-40.37
  0
LINE
  8
0
 10
75.65
 20
-40.37
 11
76.0478
 21
-40.3941
  0
LINE
  8
0
 10
76.0478
 20
-40.3941
 11
76.4397
 21
-40.4659
  0
LINE
  8
0
 10
76.4397
 20
-40.4659
 11
76.8202
 21
-40.5844
  0
LINE
  8
0
 10
76.8202
 20
-40.5844
 11
77.1836
 21
-40.748
  0
LINE
  8
0
 10
77.1836
 20
-40.748
 11
77.5246
 21
-40.9541
  0
LINE
  8
0
 10
77.5246
 20
-40.9541
 11
77.8383
 21
-41.1999
  0
LINE
  8
0
 10
77.8383
 20
-41.1999
 11
78.1201
 21
-41.4817
  0
LINE
  8
0
 10
78.1201
 20
-41.4817
 11
78.3658
 21
-41.7954
  0
LINE
  8
0
 10
78.3658
 20
-41.7954
 11
78.572
 21
-42.1364
  0
LINE
  8
0
 10
78.572
 20
-42.1364
 11
78.7355
 21
-42.4998
  0
LINE
  8
0
 10
78.7355
 20
-42.4998
 11
78.8541
 21
-42.8802
  0
LINE
  8
0
 10
78.8541
 20
-42.8802
 11
78.9259
 21
-43.2722
  0
LINE
  8
0
 10
78.9259
 20
-43.2722
 11
78.95
 21
-43.67
  0
LINE
  8
0
 10
78.95
 20
-43.67
 11
78.9259
 21
-44.0678
  0
LINE
  8
0
 10
78.9259
 20
-44.0678
 11
78.8541
 21
-44.4597
  0
LINE
  8
0
 10
78.8541
 20
-44.4597
 11
78.7355
 21
-44.8402
  0
LINE
  8
0
 10
78.7355
 20
-44.8402
 11
78.572
 21
-45.2036
  0
LINE
  8
0
 10
78.572
 20
-45.2036
 11
78.3658
 21
-45.5446
  0
LINE
  8
0
 10
78.3658
 20
-45.5446
 11
78.1201
 21
-45.8583
  0
LINE
  8
0
 10
78.1201
 20
-45.8583
 11
77.8383
 21
-46.1401
  0
LINE
  8
0
 10
77.8383
 20
-46.1401
 11
77.5246
 21
-46.3858
  0
LINE
  8
0
 10
77.5246
 20
-46.3858
 11
77.1836
 21
-46.592
  0
LINE
  8
0
 10
77.1836
 20
-46.592
 11
76.8202
 21
-46.7556
  0
LINE
  8
0
 10
76.8202
 20
-46.7556
 11
76.4397
 21
-46.8741
  0
LINE
  8
0
 10
76.4397
 20
-46.8741
 11
76.0478
 21
-46.9459
  0
LINE
  8
0
 10
76.0478
 20
-46.9459
 11
75.65
 21
-46.97
  0
LINE
  8
0
 10
75.65
 20
-46.97
 11
75.2522
 21
-46.9459
  0
LINE
  8
0
 10
93.2522
 20
-46.9459
 11
92.8603
 21
-46.8741
  0
LINE
  8
0
 10
92.8603
 20
-46.8741
 11
92.4798
 21
-46.7556
  0
LINE
  8
0
 10
92.4798
 20
-46.7556
 11
92.1164
 21
-46.592
  0
LINE
  8
0
 10
92.1164
 20
-46.592
 11
91.7754
 21
-46.3858
  0
LINE
  8
0
 10
91.7754
 20
-46.3858
 11
91.4617
 21
-46.1401
  0
LINE
  8
0
 10
91.4617
 20
-46.1401
 11
91.1799
 21
-45.8583
  0
LINE
  8
0
 10
91.1799
 20
-45.8583
 11
90.9341
 21
-45.5446
  0
LINE
  8
0
 10
90.9341
 20
-45.5446
 11
90.728
 21
-45.2036
  0
LINE
  8
0
 10
90.728
 20
-45.2036
 11
90.5644
 21
-44.8402
  0
LINE
  8
0
 10
90.5644
 20
-44.8402
 11
90.4459
 21
-44.4597
  0
LINE
  8
0
 10
90.4459
 20
-44.4597
 11
90.3741
 21
-44.0678
  0
LINE
  8
0
 10
90.3741
 20
-44.0678
 11
90.35
 21
-43.67
  0
LINE
  8
0
 10
90.35
 20
-43.67
 11
90.3741
 21
-43.2722
  0
LINE
  8
0
 10
90.3741
 20
-43.2722
 11
90.4459
 21
-42.8802
  0
LINE
  8
0
 10
90.4459
 20
-42.8802
 11
90.5644
 21
-42.4998
  0
LINE
  8
0
 10
90.5644
 20
-42.4998
 11
90.728
 21
-42.1364
  0
LINE
  8
0
 10
90.728
 20
-42.1364
 11
90.9341
 21
-41.7954
  0
LINE
  8
0
 10
90.9341
 20
-41.7954
 11
91.1799
 21
-41.4817
  0
LINE
  8
0
 10
91.1799
 20
-41.4817
 11
91.4617
 21
-41.1999
  0
LINE
  8
0
 10
91.4617
 20
-41.1999
 11
91.7754
 21
-40.9541
  0
LINE
  8
0
 10
91.7754
 20
-40.9541
 11
92.1164
 21
-40.748
  0
LINE
  8
0
 10
92.1164
 20
-40.748
 11
92.4798
 21
-40.5844
  0
LINE
  8
0
 10
92.4798
 20
-40.5844
 11
92.8603
 21
-40.4659
  0
LINE
  8
0
 10
92.8603
 20
-40.4659
 11
93.2522
 21
-40.3941
  0
LINE
  8
0
 10
93.2522
 20
-40.3941
 11
93.65
 21
-40.37
  0
LINE
  8
0
 10
93.65
 20
-40.37
 11
94.0478
 21
-40.3941
  0
LINE
  8
0
 10
94.0478
 20
-40.3941
 11
94.4397
 21
-40.4659
  0
LINE
  8
0
 10
94.4397
 20
-40.4659
 11
94.8202
 21
-40.5844
  0
LINE
  8
0
 10
94.8202
 20
-40.5844
 11
95.1836
 21
-40.748
  0
LINE
  8
0
 10
95.1836
 20
-40.748
 11
95.5246
 21
-40.9541
  0
LINE
  8
0
 10
95.5246
 20
-40.9541
 11
95.8383
 21
-41.1999
  0
LINE
  8
0
 10
95.8383
 20
-41.1999
 11
96.1201
 21
-41.4817
  0
LINE
  8
0
 10
96.1201
 20
-41.4817
 11
96.3658
 21
-41.7954
  0
LINE
  8
0
 10
96.3658
 20
-41.7954
 11
96.572
 21
-42.1364
  0
LINE
  8
0
 10
96.572
 20
-42.1364
 11
96.7355
 21
-42.4998
  0
LINE
  8
0
 10
96.7355
 20
-42.4998
 11
96.8541
 21
-42.8802
  0
LINE
  8
0
 10
96.8541
 20
-42.8802
 11
96.9259
 21
-43.2722
  0
LINE
  8
0
 10
96.9259
 20
-43.2722
 11
96.95
 21
-43.67
  0
LINE
  8
0
 10
96.95
 20
-43.67
 11
96.9259
 21
-44.0678
  0
LINE
  8
0
 10
96.9259
 20
-44.0678
 11
96.8541
 21
-44.4597
  0
LINE
  8
0
 10
96.8541
 20
-44.4597
 11
96.7355
 21
-44.8402
  0
LINE
  8
0
 10
96.7355
 20
-44.8402
 11
96.572
 21
-45.2036
  0
LINE
  8
0
 10
96.572
 20
-45.2036
 11
96.3658
 21
-45.5446
  0
LINE
  8
0
 10
96.3658
 20
-45.5446
 11
96.1201
 21
-45.8583
  0
LINE
  8
0
 10
96.1201
 20
-45.8583
 11
95.8383
 21
-46.1401
  0
LINE
  8
0
 10
95.8383
 20
-46.1401
 11
95.5246
 21
-46.3858
  0
LINE
  8
0
 10
95.5246
 20
-46.3858
 11
95.1836
 21
-46.592
  0
LINE
  8
0
 10
95.1836
 20
-46.592
 11
94.8202
 21
-46.7556
  0
LINE
  8
0
 10
94.8202
 20
-46.7556
 11
94.4397
 21
-46.8741
  0
LINE
  8
0
 10
94.4397
 20
-46.8741
 11
94.0478
 21
-46.9459
  0
LINE
  8
0
 10
94.0478
 20
-46.9459
 11
93.65
 21
-46.97
  0
LINE
  8
0
 10
93.65
 20
-46.97
 11
93.2522
 21
-46.9459
  0
LINE
  8
0
 10
111.252
 20
-46.9459
 11
110.86
 21
-46.8741
  0
LINE
  8
0
 10
110.86
 20
-46.8741
 11
110.48
 21
-46.7556
  0
LINE
  8
0
 10
110.48
 20
-46.7556
 11
110.116
 21
-46.592
  0
LINE
  8
0
 10
110.116
 20
-46.592
 11
109.775
 21
-46.3858
  0
LINE
  8
0
 10
109.775
 20
-46.3858
 11
109.462
 21
-46.1401
  0
LINE
  8
0
 10
109.462
 20
-46.1401
 11
109.18
 21
-45.8583
  0
LINE
  8
0
 10
109.18
 20
-45.8583
 11
108.934
 21
-45.5446
  0
LINE
  8
0
 10
108.934
 20
-45.5446
 11
108.728
 21
-45.2036
  0
LINE
  8
0
 10
108.728
 20
-45.2036
 11
108.564
 21
-44.8402
  0
LINE
  8
0
 10
108.564
 20
-44.8402
 11
108.446
 21
-44.4597
  0
LINE
  8
0
 10
108.446
 20
-44.4597
 11
108.374
 21
-44.0678
  0
LINE
  8
0
 10
108.374
 20
-44.0678
 11
108.35
 21
-43.67
  0
LINE
  8
0
 10
108.35
 20
-43.67
 11
108.374
 21
-43.2722
  0
LINE
  8
0
 10
108.374
 20
-43.2722
 11
108.446
 21
-42.8802
  0
LINE
  8
0
 10
108.446
 20
-42.8802
 11
108.564
 21
-42.4998
  0
LINE
  8
0
 10
108.564
 20
-42.4998
 11
108.728
 21
-42.1364
  0
LINE
  8
0
 10
108.728
 20
-42.1364
 11
108.934
 21
-41.7954
  0
LINE
  8
0
 10
108.934
 20
-41.7954
 11
109.18
 21
-41.4817
  0
LINE
  8
0
 10
109.18
 20
-41.4817
 11
109.462
 21
-41.1999
  0
LINE
  8
0
 10
109.462
 20
-41.1999
 11
109.775
 21
-40.9541
  0
LINE
  8
0
 10
109.775
 20
-40.9541
 11
110.116
 21
-40.748
  0
LINE
  8
0
 10
110.116
 20
-40.748
 11
110.48
 21
-40.5844
  0
LINE
  8
0
 10
110.48
 20
-40.5844
 11
110.86
 21
-40.4659
  0
LINE
  8
0
 10
110.86
 20
-40.4659
 11
111.252
 21
-40.3941
  0
LINE
  8
0
 10
111.252
 20
-40.3941
 11
111.65
 21
-40.37
  0
LINE
  8
0
 10
111.65
 20
-40.37
 11
112.048
 21
-40.3941
  0
LINE
  8
0
 10
112.048
 20
-40.3941
 11
112.44
 21
-40.4659
  0
LINE
  8
0
 10
112.44
 20
-40.4659
 11
112.82
 21
-40.5844
  0
LINE
  8
0
 10
112.82
 20
-40.5844
 11
113.184
 21
-40.748
  0
LINE
  8
0
 10
113.184
 20
-40.748
 11
113.525
 21
-40.9541
  0
LINE
  8
0
 10
113.525
 20
-40.9541
 11
113.838
 21
-41.1999
  0
LINE
  8
0
 10
113.838
 20
-41.1999
 11
114.12
 21
-41.4817
  0
LINE
  8
0
 10
114.12
 20
-41.4817
 11
114.366
 21
-41.7954
  0
LINE
  8
0
 10
114.366
 20
-41.7954
 11
114.572
 21
-42.1364
  0
LINE
  8
0
 10
114.572
 20
-42.1364
 11
114.736
 21
-42.4998
  0
LINE
  8
0
 10
114.736
 20
-42.4998
 11
114.854
 21
-42.8802
  0
LINE
  8
0
 10
114.854
 20
-42.8802
 11
114.926
 21
-43.2722
  0
LINE
  8
0
 10
114.926
 20
-43.2722
 11
114.95
 21
-43.67
  0
LINE
  8
0
 10
114.95
 20
-43.67
 11
114.926
 21
-44.0678
  0
LINE
  8
0
 10
114.926
 20
-44.0678
 11
114.854
 21
-44.4597
  0
LINE
  8
0
 10
114.854
 20
-44.4597
 11
114.736
 21
-44.8402
  0
LINE
  8
0
 10
114.736
 20
-44.8402
 11
114.572
 21
-45.2036
  0
LINE
  8
0
 10
114.572
 20
-45.2036
 11
114.366
 21
-45.5446
  0
LINE
  8
0
 10
114.366
 20
-45.5446
 11
114.12
 21
-45.8583
  0
LINE
  8
0
 10
114.12
 20
-45.8583
 11
113.838
 21
-46.1401
  0
LINE
  8
0
 10
113.838
 20
-46.1401
 11
113.525
 21
-46.3858
  0
LINE
  8
0
 10
113.525
 20
-46.3858
 11
113.184
 21
-46.592
  0
LINE
  8
0
 10
113.184
 20
-46.592
 11
112.82
 21
-46.7556
  0
LINE
  8
0
 10
112.82
 20
-46.7556
 11
112.44
 21
-46.8741
  0
LINE
  8
0
 10
112.44
 20
-46.8741
 11
112.048
 21
-46.9459
  0
LINE
  8
0
 10
112.048
 20
-46.9459
 11
111.65
 21
-46.97
  0
LINE
  8
0
 10
111.65
 20
-46.97
 11
111.252
 21
-46.9459
  0
LINE
  8
0
 10
147.252
 20
-46.9459
 11
146.86
 21
-46.8741
  0
LINE
  8
0
 10
146.86
 20
-46.8741
 11
146.48
 21
-46.7556
  0
LINE
  8
0
 10
146.48
 20
-46.7556
 11
146.116
 21
-46.592
  0
LINE
  8
0
 10
146.116
 20
-46.592
 11
145.775
 21
-46.3858
  0
LINE
  8
0
 10
145.775
 20
-46.3858
 11
145.462
 21
-46.1401
  0
LINE
  8
0
 10
145.462
 20
-46.1401
 11
145.18
 21
-45.8583
  0
LINE
  8
0
 10
145.18
 20
-45.8583
 11
144.934
 21
-45.5446
  0
LINE
  8
0
 10
144.934
 20
-45.5446
 11
144.728
 21
-45.2036
  0
LINE
  8
0
 10
144.728
 20
-45.2036
 11
144.564
 21
-44.8402
  0
LINE
  8
0
 10
144.564
 20
-44.8402
 11
144.446
 21
-44.4597
  0
LINE
  8
0
 10
144.446
 20
-44.4597
 11
144.374
 21
-44.0678
  0
LINE
  8
0
 10
144.374
 20
-44.0678
 11
144.35
 21
-43.67
  0
LINE
  8
0
 10
144.35
 20
-43.67
 11
144.374
 21
-43.2722
  0
LINE
  8
0
 10
144.374
 20
-43.2722
 11
144.446
 21
-42.8802
  0
LINE
  8
0
 10
144.446
 20
-42.8802
 11
144.564
 21
-42.4998
  0
LINE
  8
0
 10
144.564
 20
-42.4998
 11
144.728
 21
-42.1364
  0
LINE
  8
0
 10
144.728
 20
-42.1364
 11
144.934
 21
-41.7954
  0
LINE
  8
0
 10
144.934
 20
-41.7954
 11
145.18
 21
-41.4817
  0
LINE
  8
0
 10
145.18
 20
-41.4817
 11
145.462
 21
-41.1999
  0
LINE
  8
0
 10
145.462
 20
-41.1999
 11
145.775
 21
-40.9541
  0
LINE
  8
0
 10
145.775
 20
-40.9541
 11
146.116
 21
-40.748
  0
LINE
  8
0
 10
146.116
 20
-40.748
 11
146.48
 21
-40.5844
  0
LINE
  8
0
 10
146.48
 20
-40.5844
 11
146.86
 21
-40.4659
  0
LINE
  8
0
 10
146.86
 20
-40.4659
 11
147.252
 21
-40.3941
  0
LINE
  8
0
 10
147.252
 20
-40.3941
 11
147.65
 21
-40.37
  0
LINE
  8
0
 10
147.65
 20
-40.37
 11
148.048
 21
-40.3941
  0
LINE
  8
0
 10
148.048
 20
-40.3941
 11
148.44
 21
-40.4659
  0
LINE
  8
0
 10
148.44
 20
-40.4659
 11
148.82
 21
-40.5844
  0
LINE
  8
0
 10
148.82
 20
-40.5844
 11
149.184
 21
-40.748
  0
LINE
  8
0
 10
149.184
 20
-40.748
 11
149.525
 21
-40.9541
  0
LINE
  8
0
 10
149.525
 20
-40.9541
 11
149.838
 21
-41.1999
  0
LINE
  8
0
 10
149.838
 20
-41.1999
 11
150.12
 21
-41.4817
  0
LINE
  8
0
 10
150.12
 20
-41.4817
 11
150.366
 21
-41.7954
  0
LINE
  8
0
 10
150.366
 20
-41.7954
 11
150.572
 21
-42.1364
  0
LINE
  8
0
 10
150.572
 20
-42.1364
 11
150.736
 21
-42.4998
  0
LINE
  8
0
 10
150.736
 20
-42.4998
 11
150.854
 21
-42.8802
  0
LINE
  8
0
 10
150.854
 20
-42.8802
 11
150.926
 21
-43.2722
  0
LINE
  8
0
 10
150.926
 20
-43.2722
 11
150.95
 21
-43.67
  0
LINE
  8
0
 10
150.95
 20
-43.67
 11
150.926
 21
-44.0678
  0
LINE
  8
0
 10
150.926
 20
-44.0678
 11
150.854
 21
-44.4597
  0
LINE
  8
0
 10
150.854
 20
-44.4597
 11
150.736
 21
-44.8402
  0
LINE
  8
0
 10
150.736
 20
-44.8402
 11
150.572
 21
-45.2036
  0
LINE
  8
0
 10
150.572
 20
-45.2036
 11
150.366
 21
-45.5446
  0
LINE
  8
0
 10
150.366
 20
-45.5446
 11
150.12
 21
-45.8583
  0
LINE
  8
0
 10
150.12
 20
-45.8583
 11
149.838
 21
-46.1401
  0
LINE
  8
0
 10
149.838
 20
-46.1401
 11
149.525
 21
-46.3858
  0
LINE
  8
0
 10
149.525
 20
-46.3858
 11
149.184
 21
-46.592
  0
LINE
  8
0
 10
149.184
 20
-46.592
 11
148.82
 21
-46.7556
  0
LINE
  8
0
 10
148.82
 20
-46.7556
 11
148.44
 21
-46.8741
  0
LINE
  8
0
 10
148.44
 20
-46.8741
 11
148.048
 21
-46.9459
  0
LINE
  8
0
 10
148.048
 20
-46.9459
 11
147.65
 21
-46.97
  0
LINE
  8
0
 10
147.65
 20
-46.97
 11
147.252
 21
-46.9459
  0
LINE
  8
0
 10
129.252
 20
-64.9459
 11
128.86
 21
-64.8741
  0
LINE
  8
0
 10
128.86
 20
-64.8741
 11
128.48
 21
-64.7556
  0
LINE
  8
0
 10
128.48
 20
-64.7556
 11
128.116
 21
-64.592
  0
LINE
  8
0
 10
128.116
 20
-64.592
 11
127.775
 21
-64.3858
  0
LINE
  8
0
 10
127.775
 20
-64.3858
 11
127.462
 21
-64.1401
  0
LINE
  8
0
 10
127.462
 20
-64.1401
 11
127.18
 21
-63.8583
  0
LINE
  8
0
 10
127.18
 20
-63.8583
 11
126.934
 21
-63.5446
  0
LINE
  8
0
 10
126.934
 20
-63.5446
 11
126.728
 21
-63.2036
  0
LINE
  8
0
 10
126.728
 20
-63.2036
 11
126.564
 21
-62.8402
  0
LINE
  8
0
 10
126.564
 20
-62.8402
 11
126.446
 21
-62.4597
  0
LINE
  8
0
 10
126.446
 20
-62.4597
 11
126.374
 21
-62.0678
  0
LINE
  8
0
 10
126.374
 20
-62.0678
 11
126.35
 21
-61.67
  0
LINE
  8
0
 10
126.35
 20
-61.67
 11
126.374
 21
-61.2722
  0
LINE
  8
0
 10
126.374
 20
-61.2722
 11
126.446
 21
-60.8802
  0
LINE
  8
0
 10
126.446
 20
-60.8802
 11
126.564
 21
-60.4998
  0
LINE
  8
0
 10
126.564
 20
-60.4998
 11
126.728
 21
-60.1364
  0
LINE
  8
0
 10
126.728
 20
-60.1364
 11
126.934
 21
-59.7954
  0
LINE
  8
0
 10
126.934
 20
-59.7954
 11
127.18
 21
-59.4817
  0
LINE
  8
0
 10
127.18
 20
-59.4817
 11
127.462
 21
-59.1999
  0
LINE
  8
0
 10
127.462
 20
-59.1999
 11
127.775
 21
-58.9541
  0
LINE
  8
0
 10
127.775
 20
-58.9541
 11
128.116
 21
-58.748
  0
LINE
  8
0
 10
128.116
 20
-58.748
 11
128.48
 21
-58.5844
  0
LINE
  8
0
 10
128.48
 20
-58.5844
 11
128.86
 21
-58.4659
  0
LINE
  8
0
 10
128.86
 20
-58.4659
 11
129.252
 21
-58.3941
  0
LINE
  8
0
 10
129.252
 20
-58.3941
 11
129.65
 21
-58.37
  0
LINE
  8
0
 10
129.65
 20
-58.37
 11
130.048
 21
-58.3941
  0
LINE
  8
0
 10
130.048
 20
-58.3941
 11
130.44
 21
-58.4659
  0
LINE
  8
0
 10
130.44
 20
-58.4659
 11
130.82
 21
-58.5844
  0
LINE
  8
0
 10
130.82
 20
-58.5844
 11
131.184
 21
-58.748
  0
LINE
  8
0
 10
131.184
 20
-58.748
 11
131.525
 21
-58.9541
  0
LINE
  8
0
 10
131.525
 20
-58.9541
 11
131.838
 21
-59.1999
  0
LINE
  8
0
 10
131.838
 20
-59.1999
 11
132.12
 21
-59.4817
  0
LINE
  8
0
 10
132.12
 20
-59.4817
 11
132.366
 21
-59.7954
  0
LINE
  8
0
 10
132.366
 20
-59.7954
 11
132.572
 21
-60.1364
  0
LINE
  8
0
 10
132.572
 20
-60.1364
 11
132.736
 21
-60.4998
  0
LINE
  8
0
 10
132.736
 20
-60.4998
 11
132.854
 21
-60.8802
  0
LINE
  8
0
 10
132.854
 20
-60.8802
 11
132.926
 21
-61.2722
  0
LINE
  8
0
 10
132.926
 20
-61.2722
 11
132.95
 21
-61.67
  0
LINE
  8
0
 10
132.95
 20
-61.67
 11
132.926
 21
-62.0678
  0
LINE
  8
0
 10
132.926
 20
-62.0678
 11
132.854
 21
-62.4597
  0
LINE
  8
0
 10
132.854
 20
-62.4597
 11
132.736
 21
-62.8402
  0
LINE
  8
0
 10
132.736
 20
-62.8402
 11
132.572
 21
-63.2036
  0
LINE
  8
0
 10
132.572
 20
-63.2036
 11
132.366
 21
-63.5446
  0
LINE
  8
0
 10
132.366
 20
-63.5446
 11
132.12
 21
-63.8583
  0
LINE
  8
0
 10
132.12
 20
-63.8583
 11
131.838
 21
-64.1401
  0
LINE
  8
0
 10
131.838
 20
-64.1401
 11
131.525
 21
-64.3858
  0
LINE
  8
0
 10
131.525
 20
-64.3858
 11
131.184
 21
-64.592
  0
LINE
  8
0
 10
131.184
 20
-64.592
 11
130.82
 21
-64.7556
  0
LINE
  8
0
 10
130.82
 20
-64.7556
 11
130.44
 21
-64.8741
  0
LINE
  8
0
 10
130.44
 20
-64.8741
 11
130.048
 21
-64.9459
  0
LINE
  8
0
 10
130.048
 20
-64.9459
 11
129.65
 21
-64.97
  0
LINE
  8
0
 10
129.65
 20
-64.97
 11
129.252
 21
-64.9459
  0
LINE
  8
0
 10
75.2522
 20
-64.9459
 11
74.8603
 21
-64.8741
  0
LINE
  8
0
 10
74.8603
 20
-64.8741
 11
74.4798
 21
-64.7556
  0
LINE
  8
0
 10
74.4798
 20
-64.7556
 11
74.1164
 21
-64.592
  0
LINE
  8
0
 10
74.1164
 20
-64.592
 11
73.7754
 21
-64.3858
  0
LINE
  8
0
 10
73.7754
 20
-64.3858
 11
73.4617
 21
-64.1401
  0
LINE
  8
0
 10
73.4617
 20
-64.1401
 11
73.1799
 21
-63.8583
  0
LINE
  8
0
 10
73.1799
 20
-63.8583
 11
72.9341
 21
-63.5446
  0
LINE
  8
0
 10
72.9341
 20
-63.5446
 11
72.728
 21
-63.2036
  0
LINE
  8
0
 10
72.728
 20
-63.2036
 11
72.5644
 21
-62.8402
  0
LINE
  8
0
 10
72.5644
 20
-62.8402
 11
72.4459
 21
-62.4597
  0
LINE
  8
0
 10
72.4459
 20
-62.4597
 11
72.3741
 21
-62.0678
  0
LINE
  8
0
 10
72.3741
 20
-62.0678
 11
72.35
 21
-61.67
  0
LINE
  8
0
 10
72.35
 20
-61.67
 11
72.3741
 21
-61.2722
  0
LINE
  8
0
 10
72.3741
 20
-61.2722
 11
72.4459
 21
-60.8802
  0
LINE
  8
0
 10
72.4459
 20
-60.8802
 11
72.5644
 21
-60.4998
  0
LINE
  8
0
 10
72.5644
 20
-60.4998
 11
72.728
 21
-60.1364
  0
LINE
  8
0
 10
72.728
 20
-60.1364
 11
72.9341
 21
-59.7954
  0
LINE
  8
0
 10
72.9341
 20
-59.7954
 11
73.1799
 21
-59.4817
  0
LINE
  8
0
 10
73.1799
 20
-59.4817
 11
73.4617
 21
-59.1999
  0
LINE
  8
0
 10
73.4617
 20
-59.1999
 11
73.7754
 21
-58.9541
  0
LINE
  8
0
 10
73.7754
 20
-58.9541
 11
74.1164
 21
-58.748
  0
LINE
  8
0
 10
74.1164
 20
-58.748
 11
74.4798
 21
-58.5844
  0
LINE
  8
0
 10
74.4798
 20
-58.5844
 11
74.8603
 21
-58.4659
  0
LINE
  8
0
 10
74.8603
 20
-58.4659
 11
75.2522
 21
-58.3941
  0
LINE
  8
0
 10
75.2522
 20
-58.3941
 11
75.65
 21
-58.37
  0
LINE
  8
0
 10
75.65
 20
-58.37
 11
76.0478
 21
-58.3941
  0
LINE
  8
0
 10
76.0478
 20
-58.3941
 11
76.4397
 21
-58.4659
  0
LINE
  8
0
 10
76.4397
 20
-58.4659
 11
76.8202
 21
-58.5844
  0
LINE
  8
0
 10
76.8202
 20
-58.5844
 11
77.1836
 21
-58.748
  0
LINE
  8
0
 10
77.1836
 20
-58.748
 11
77.5246
 21
-58.9541
  0
LINE
  8
0
 10
77.5246
 20
-58.9541
 11
77.8383
 21
-59.1999
  0
LINE
  8
0
 10
77.8383
 20
-59.1999
 11
78.1201
 21
-59.4817
  0
LINE
  8
0
 10
78.1201
 20
-59.4817
 11
78.3658
 21
-59.7954
  0
LINE
  8
0
 10
78.3658
 20
-59.7954
 11
78.572
 21
-60.1364
  0
LINE
  8
0
 10
78.572
 20
-60.1364
 11
78.7355
 21
-60.4998
  0
LINE
  8
0
 10
78.7355
 20
-60.4998
 11
78.8541
 21
-60.8802
  0
LINE
  8
0
 10
78.8541
 20
-60.8802
 11
78.9259
 21
-61.2722
  0
LINE
  8
0
 10
78.9259
 20
-61.2722
 11
78.95
 21
-61.67
  0
LINE
  8
0
 10
78.95
 20
-61.67
 11
78.9259
 21
-62.0678
  0
LINE
  8
0
 10
78.9259
 20
-62.0678
 11
78.8541
 21
-62.4597
  0
LINE
  8
0
 10
78.8541
 20
-62.4597
 11
78.7355
 21
-62.8402
  0
LINE
  8
0
 10
78.7355
 20
-62.8402
 11
78.572
 21
-63.2036
  0
LINE
  8
0
 10
78.572
 20
-63.2036
 11
78.3658
 21
-63.5446
  0
LINE
  8
0
 10
78.3658
 20
-63.5446
 11
78.1201
 21
-63.8583
  0
LINE
  8
0
 10
78.1201
 20
-63.8583
 11
77.8383
 21
-64.1401
  0
LINE
  8
0
 10
77.8383
 20
-64.1401
 11
77.5246
 21
-64.3858
  0
LINE
  8
0
 10
77.5246
 20
-64.3858
 11
77.1836
 21
-64.592
  0
LINE
  8
0
 10
77.1836
 20
-64.592
 11
76.8202
 21
-64.7556
  0
LINE
  8
0
 10
76.8202
 20
-64.7556
 11
76.4397
 21
-64.8741
  0
LINE
  8
0
 10
76.4397
 20
-64.8741
 11
76.0478
 21
-64.9459
  0
LINE
  8
0
 10
76.0478
 20
-64.9459
 11
75.65
 21
-64.97
  0
LINE
  8
0
 10
75.65
 20
-64.97
 11
75.2522
 21
-64.9459
  0
LINE
  8
0
 10
93.2522
 20
-64.9459
 11
92.8603
 21
-64.8741
  0
LINE
  8
0
 10
92.8603
 20
-64.8741
 11
92.4798
 21
-64.7556
  0
LINE
  8
0
 10
92.4798
 20
-64.7556
 11
92.1164
 21
-64.592
  0
LINE
  8
0
 10
92.1164
 20
-64.592
 11
91.7754
 21
-64.3858
  0
LINE
  8
0
 10
91.7754
 20
-64.3858
 11
91.4617
 21
-64.1401
  0
LINE
  8
0
 10
91.4617
 20
-64.1401
 11
91.1799
 21
-63.8583
  0
LINE
  8
0
 10
91.1799
 20
-63.8583
 11
90.9341
 21
-63.5446
  0
LINE
  8
0
 10
90.9341
 20
-63.5446
 11
90.728
 21
-63.2036
  0
LINE
  8
0
 10
90.728
 20
-63.2036
 11
90.5644
 21
-62.8402
  0
LINE
  8
0
 10
90.5644
 20
-62.8402
 11
90.4459
 21
-62.4597
  0
LINE
  8
0
 10
90.4459
 20
-62.4597
 11
90.3741
 21
-62.0678
  0
LINE
  8
0
 10
90.3741
 20
-62.0678
 11
90.35
 21
-61.67
  0
LINE
  8
0
 10
90.35
 20
-61.67
 11
90.3741
 21
-61.2722
  0
LINE
  8
0
 10
90.3741
 20
-61.2722
 11
90.4459
 21
-60.8802
  0
LINE
  8
0
 10
90.4459
 20
-60.8802
 11
90.5644
 21
-60.4998
  0
LINE
  8
0
 10
90.5644
 20
-60.4998
 11
90.728
 21
-60.1364
  0
LINE
  8
0
 10
90.728
 20
-60.1364
 11
90.9341
 21
-59.7954
  0
LINE
  8
0
 10
90.9341
 20
-59.7954
 11
91.1799
 21
-59.4817
  0
LINE
  8
0
 10
91.1799
 20
-59.4817
 11
91.4617
 21
-59.1999
  0
LINE
  8
0
 10
91.4617
 20
-59.1999
 11
91.7754
 21
-58.9541
  0
LINE
  8
0
 10
91.7754
 20
-58.9541
 11
92.1164
 21
-58.748
  0
LINE
  8
0
 10
92.1164
 20
-58.748
 11
92.4798
 21
-58.5844
  0
LINE
  8
0
 10
92.4798
 20
-58.5844
 11
92.8603
 21
-58.4659
  0
LINE
  8
0
 10
92.8603
 20
-58.4659
 11
93.2522
 21
-58.3941
  0
LINE
  8
0
 10
93.2522
 20
-58.3941
 11
93.65
 21
-58.37
  0
LINE
  8
0
 10
93.65
 20
-58.37
 11
94.0478
 21
-58.3941
  0
LINE
  8
0
 10
94.0478
 20
-58.3941
 11
94.4397
 21
-58.4659
  0
LINE
  8
0
 10
94.4397
 20
-58.4659
 11
94.8202
 21
-58.5844
  0
LINE
  8
0
 10
94.8202
 20
-58.5844
 11
95.1836
 21
-58.748
  0
LINE
  8
0
 10
95.1836
 20
-58.748
 11
95.5246
 21
-58.9541
  0
LINE
  8
0
 10
95.5246
 20
-58.9541
 11
95.8383
 21
-59.1999
  0
LINE
  8
0
 10
95.8383
 20
-59.1999
 11
96.1201
 21
-59.4817
  0
LINE
  8
0
 10
96.1201
 20
-59.4817
 11
96.3658
 21
-59.7954
  0
LINE
  8
0
 10
96.3658
 20
-59.7954
 11
96.572
 21
-60.1364
  0
LINE
  8
0
 10
96.572
 20
-60.1364
 11
96.7355
 21
-60.4998
  0
LINE
  8
0
 10
96.7355
 20
-60.4998
 11
96.8541
 21
-60.8802
  0
LINE
  8
0
 10
96.8541
 20
-60.8802
 11
96.9259
 21
-61.2722
  0
LINE
  8
0
 10
96.9259
 20
-61.2722
 11
96.95
 21
-61.67
  0
LINE
  8
0
 10
96.95
 20
-61.67
 11
96.9259
 21
-62.0678
  0
LINE
  8
0
 10
96.9259
 20
-62.0678
 11
96.8541
 21
-62.4597
  0
LINE
  8
0
 10
96.8541
 20
-62.4597
 11
96.7355
 21
-62.8402
  0
LINE
  8
0
 10
96.7355
 20
-62.8402
 11
96.572
 21
-63.2036
  0
LINE
  8
0
 10
96.572
 20
-63.2036
 11
96.3658
 21
-63.5446
  0
LINE
  8
0
 10
96.3658
 20
-63.5446
 11
96.1201
 21
-63.8583
  0
LINE
  8
0
 10
96.1201
 20
-63.8583
 11
95.8383
 21
-64.1401
  0
LINE
  8
0
 10
95.8383
 20
-64.1401
 11
95.5246
 21
-64.3858
  0
LINE
  8
0
 10
95.5246
 20
-64.3858
 11
95.1836
 21
-64.592
  0
LINE
  8
0
 10
95.1836
 20
-64.592
 11
94.8202
 21
-64.7556
  0
LINE
  8
0
 10
94.8202
 20
-64.7556
 11
94.4397
 21
-64.8741
  0
LINE
  8
0
 10
94.4397
 20
-64.8741
 11
94.0478
 21
-64.9459
  0
LINE
  8
0
 10
94.0478
 20
-64.9459
 11
93.65
 21
-64.97
  0
LINE
  8
0
 10
93.65
 20
-64.97
 11
93.2522
 21
-64.9459
  0
LINE
  8
0
 10
111.252
 20
-64.9459
 11
110.86
 21
-64.8741
  0
LINE
  8
0
 10
110.86
 20
-64.8741
 11
110.48
 21
-64.7556
  0
LINE
  8
0
 10
110.48
 20
-64.7556
 11
110.116
 21
-64.592
  0
LINE
  8
0
 10
110.116
 20
-64.592
 11
109.775
 21
-64.3858
  0
LINE
  8
0
 10
109.775
 20
-64.3858
 11
109.462
 21
-64.1401
  0
LINE
  8
0
 10
109.462
 20
-64.1401
 11
109.18
 21
-63.8583
  0
LINE
  8
0
 10
109.18
 20
-63.8583
 11
108.934
 21
-63.5446
  0
LINE
  8
0
 10
108.934
 20
-63.5446
 11
108.728
 21
-63.2036
  0
LINE
  8
0
 10
108.728
 20
-63.2036
 11
108.564
 21
-62.8402
  0
LINE
  8
0
 10
108.564
 20
-62.8402
 11
108.446
 21
-62.4597
  0
LINE
  8
0
 10
108.446
 20
-62.4597
 11
108.374
 21
-62.0678
  0
LINE
  8
0
 10
108.374
 20
-62.0678
 11
108.35
 21
-61.67
  0
LINE
  8
0
 10
108.35
 20
-61.67
 11
108.374
 21
-61.2722
  0
LINE
  8
0
 10
108.374
 20
-61.2722
 11
108.446
 21
-60.8802
  0
LINE
  8
0
 10
108.446
 20
-60.8802
 11
108.564
 21
-60.4998
  0
LINE
  8
0
 10
108.564
 20
-60.4998
 11
108.728
 21
-60.1364
  0
LINE
  8
0
 10
108.728
 20
-60.1364
 11
108.934
 21
-59.7954
  0
LINE
  8
0
 10
108.934
 20
-59.7954
 11
109.18
 21
-59.4817
  0
LINE
  8
0
 10
109.18
 20
-59.4817
 11
109.462
 21
-59.1999
  0
LINE
  8
0
 10
109.462
 20
-59.1999
 11
109.775
 21
-58.9541
  0
LINE
  8
0
 10
109.775
 20
-58.9541
 11
110.116
 21
-58.748
  0
LINE
  8
0
 10
110.116
 20
-58.748
 11
110.48
 21
-58.5844
  0
LINE
  8
0
 10
110.48
 20
-58.5844
 11
110.86
 21
-58.4659
  0
LINE
  8
0
 10
110.86
 20
-58.4659
 11
111.252
 21
-58.3941
  0
LINE
  8
0
 10
111.252
 20
-58.3941
 11
111.65
 21
-58.37
  0
LINE
  8
0
 10
111.65
 20
-58.37
 11
112.048
 21
-58.3941
  0
LINE
  8
0
 10
112.048
 20
-58.3941
 11
112.44
 21
-58.4659
  0
LINE
  8
0
 10
112.44
 20
-58.4659
 11
112.82
 21
-58.5844
  0
LINE
  8
0
 10
112.82
 20
-58.5844
 11
113.184
 21
-58.748
  0
LINE
  8
0
 10
113.184
 20
-58.748
 11
113.525
 21
-58.9541
  0
LINE
  8
0
 10
113.525
 20
-58.9541
 11
113.838
 21
-59.1999
  0
LINE
  8
0
 10
113.838
 20
-59.1999
 11
114.12
 21
-59.4817
  0
LINE
  8
0
 10
114.12
 20
-59.4817
 11
114.366
 21
-59.7954
  0
LINE
  8
0
 10
114.366
 20
-59.7954
 11
114.572
 21
-60.1364
  0
LINE
  8
0
 10
114.572
 20
-60.1364
 11
114.736
 21
-60.4998
  0
LINE
  8
0
 10
114.736
 20
-60.4998
 11
114.854
 21
-60.8802
  0
LINE
  8
0
 10
114.854
 20
-60.8802
 11
114.926
 21
-61.2722
  0
LINE
  8
0
 10
114.926
 20
-61.2722
 11
114.95
 21
-61.67
  0
LINE
  8
0
 10
114.95
 20
-61.67
 11
114.926
 21
-62.0678
  0
LINE
  8
0
 10
114.926
 20
-62.0678
 11
114.854
 21
-62.4597
  0
LINE
  8
0
 10
114.854
 20
-62.4597
 11
114.736
 21
-62.8402
  0
LINE
  8
0
 10
114.736
 20
-62.8402
 11
114.572
 21
-63.2036
  0
LINE
  8
0
 10
114.572
 20
-63.2036
 11
114.366
 21
-63.5446
  0
LINE
  8
0
 10
114.366
 20
-63.5446
 11
114.12
 21
-63.8583
  0
LINE
  8
0
 10
114.12
 20
-63.8583
 11
113.838
 21
-64.1401
  0
LINE
  8
0
 10
113.838
 20
-64.1401
 11
113.525
 21
-64.3858
  0
LINE
  8
0
 10
113.525
 20
-64.3858
 11
113.184
 21
-64.592
  0
LINE
  8
0
 10
113.184
 20
-64.592
 11
112.82
 21
-64.7556
  0
LINE
  8
0
 10
112.82
 20
-64.7556
 11
112.44
 21
-64.8741
  0
LINE
  8
0
 10
112.44
 20
-64.8741
 11
112.048
 21
-64.9459
  0
LINE
  8
0
 10
112.048
 20
-64.9459
 11
111.65
 21
-64.97
  0
LINE
  8
0
 10
111.65
 20
-64.97
 11
111.252
 21
-64.9459
  0
LINE
  8
0
 10
137.8
 20
-101.3
 11
137.8
 21
-73
  0
LINE
  8
0
 10
137.8
 20
-73
 11
164.3
 21
-73
  0
LINE
  8
0
 10
164.3
 20
-73
 11
164.3
 21
-101.3
  0
LINE
  8
0
 10
164.3
 20
-101.3
 11
137.8
 21
-101.3
  0
LINE
  8
0
 10
118.9
 20
-81.1
 11
118.9
 21
-74.5
  0
LINE
  8
0
 10
118.9
 20
-74.5
 11
123.1
 21
-74.5
  0
LINE
  8
0
 10
123.1
 20
-74.5
 11
123.1
 21
-81.1
  0
LINE
  8
0
 10
123.1
 20
-81.1
 11
118.9
 21
-81.1
  0
LINE
  8
0
 10
115.1
 20
-93.8
 11
115.1
 21
-86
  0
LINE
  8
0
 10
115.1
 20
-86
 11
117.8
 21
-86
  0
LINE
  8
0
 10
117.8
 20
-86
 11
117.8
 21
-93.8
  0
LINE
  8
0
 10
117.8
 20
-93.8
 11
115.1
 21
-93.8
  0
LINE
  8
0
 10
22
 20
-113.3
 11
22
 21
-103.6
  0
LINE
  8
0
 10
22
 20
-103.6
 11
45.5
 21
-103.6
  0
LINE
  8
0
 10
45.5
 20
-103.6
 11
45.5
 21
-113.3
  0
LINE
  8
0
 10
45.5
 20
-113.3
 11
22
 21
-113.3
  0
LINE
  8
0
 10
105.3
 20
-115.7
 11
105.3
 21
-103.8
  0
LINE
  8
0
 10
105.3
 20
-103.8
 11
116.1
 21
-103.8
  0
LINE
  8
0
 10
116.1
 20
-103.8
 11
116.1
 21
-115.7
  0
LINE
  8
0
 10
116.1
 20
-115.7
 11
105.3
 21
-115.7
  0
LINE
  8
0
 10
3.8011
 20
-112.638
 11
3.4149
 21
-112.543
  0
LINE
  8
0
 10
3.4149
 20
-112.543
 11
3.06268
 21
-112.358
  0
LINE
  8
0
 10
3.06268
 20
-112.358
 11
2.76495
 21
-112.094
  0
LINE
  8
0
 10
2.76495
 20
-112.094
 11
2.53899
 21
-111.767
  0
LINE
  8
0
 10
2.53899
 20
-111.767
 11
2.39793
 21
-111.395
  0
LINE
  8
0
 10
2.39793
 20
-111.395
 11
2.34999
 21
-111
  0
LINE
  8
0
 10
2.34999
 20
-111
 11
2.39793
 21
-110.605
  0
LINE
  8
0
 10
2.39793
 20
-110.605
 11
2.53899
 21
-110.233
  0
LINE
  8
0
 10
2.53899
 20
-110.233
 11
2.76495
 21
-109.906
  0
LINE
  8
0
 10
2.76495
 20
-109.906
 11
3.06268
 21
-109.642
  0
LINE
  8
0
 10
3.06268
 20
-109.642
 11
3.4149
 21
-109.457
  0
LINE
  8
0
 10
3.4149
 20
-109.457
 11
3.8011
 21
-109.362
  0
LINE
  8
0
 10
3.8011
 20
-109.362
 11
4.19888
 21
-109.362
  0
LINE
  8
0
 10
4.19888
 20
-109.362
 11
4.58508
 21
-109.457
  0
LINE
  8
0
 10
4.58508
 20
-109.457
 11
4.9373
 21
-109.642
  0
LINE
  8
0
 10
4.9373
 20
-109.642
 11
5.23503
 21
-109.906
  0
LINE
  8
0
 10
5.23503
 20
-109.906
 11
5.461
 21
-110.233
  0
LINE
  8
0
 10
5.461
 20
-110.233
 11
5.60205
 21
-110.605
  0
LINE
  8
0
 10
5.60205
 20
-110.605
 11
5.64999
 21
-111
  0
LINE
  8
0
 10
5.64999
 20
-111
 11
5.60205
 21
-111.395
  0
LINE
  8
0
 10
5.60205
 20
-111.395
 11
5.461
 21
-111.767
  0
LINE
  8
0
 10
5.461
 20
-111.767
 11
5.23503
 21
-112.094
  0
LINE
  8
0
 10
5.23503
 20
-112.094
 11
4.9373
 21
-112.358
  0
LINE
  8
0
 10
4.9373
 20
-112.358
 11
4.58508
 21
-112.543
  0
LINE
  8
0
 10
4.58508
 20
-112.543
 11
4.19888
 21
-112.638
  0
LINE
  8
0
 10
4.19888
 20
-112.638
 11
3.8011
 21
-112.638
  0
LINE
  8
0
 10
175.801
 20
-112.638
 11
175.415
 21
-112.543
  0
LINE
  8
0
 10
175.415
 20
-112.543
 11
175.063
 21
-112.358
  0
LINE
  8
0
 10
175.063
 20
-112.358
 11
174.765
 21
-112.094
  0
LINE
  8
0
 10
174.765
 20
-112.094
 11
174.539
 21
-111.767
  0
LINE
  8
0
 10
174.539
 20
-111.767
 11
174.398
 21
-111.395
  0
LINE
  8
0
 10
174.398
 20
-111.395
 11
174.35
 21
-111
  0
LINE
  8
0
 10
174.35
 20
-111
 11
174.398
 21
-110.605
  0
LINE
  8
0
 10
174.398
 20
-110.605
 11
174.539
 21
-110.233
  0
LINE
  8
0
 10
174.539
 20
-110.233
 11
174.765
 21
-109.906
  0
LINE
  8
0
 10
174.765
 20
-109.906
 11
175.063
 21
-109.642
  0
LINE
  8
0
 10
175.063
 20
-109.642
 11
175.415
 21
-109.457
  0
LINE
  8
0
 10
175.415
 20
-109.457
 11
175.801
 21
-109.362
  0
LINE
  8
0
 10
175.801
 20
-109.362
 11
176.199
 21
-109.362
  0
LINE
  8
0
 10
176.199
 20
-109.362
 11
176.585
 21
-109.457
  0
LINE
  8
0
 10
176.585
 20
-109.457
 11
176.937
 21
-109.642
  0
LINE
  8
0
 10
176.937
 20
-109.642
 11
177.235
 21
-109.906
  0
LINE
  8
0
 10
177.235
 20
-109.906
 11
177.461
 21
-110.233
  0
LINE
  8
0
 10
177.461
 20
-110.233
 11
177.602
 21
-110.605
  0
LINE
  8
0
 10
177.602
 20
-110.605
 11
177.65
 21
-111
  0
LINE
  8
0
 10
177.65
 20
-111
 11
177.602
 21
-111.395
  0
LINE
  8
0
 10
177.602
 20
-111.395
 11
177.461
 21
-111.767
  0
LINE
  8
0
 10
177.461
 20
-111.767
 11
177.235
 21
-112.094
  0
LINE
  8
0
 10
177.235
 20
-112.094
 11
176.937
 21
-112.358
  0
LINE
  8
0
 10
176.937
 20
-112.358
 11
176.585
 21
-112.543
  0
LINE
  8
0
 10
176.585
 20
-112.543
 11
176.199
 21
-112.638
  0
LINE
  8
0
 10
176.199
 20
-112.638
 11
175.801
 21
-112.638
  0
ENDSEC
  0
SECTION
  2
OBJECTS
  0
DICTIONARY
  0
ENDSEC
  0
EOF
