%TF.GenerationSoftware,KiCad,Pcbnew,10.0.3*%
%TF.CreationDate,2026-10-01T05:35:26+08:00*%
%TF.ProjectId,front-panel,66726f6e-742d-4706-916e-656c2e6b6963,A*%
%TF.SameCoordinates,Original*%
%TF.FileFunction,Soldermask,Top*%
%TF.FilePolarity,Negative*%
%FSLAX46Y46*%
G04 Gerber Fmt 4.6, Leading zero omitted, Abs format (unit mm)*
G04 Created by KiCad (PCBNEW 10.0.3) date 2026-10-01 05:35:26*
%MOMM*%
%LPD*%
G01*
G04 APERTURE LIST*
G04 Aperture macros list*
%AMRoundRect*
0 Rectangle with rounded corners*
0 $1 Rounding radius*
0 $2 $3 $4 $5 $6 $7 $8 $9 X,Y pos of 4 corners*
0 Add a 4 corners polygon primitive as box body*
4,1,4,$2,$3,$4,$5,$6,$7,$8,$9,$2,$3,0*
0 Add four circle primitives for the rounded corners*
1,1,$1+$1,$2,$3*
1,1,$1+$1,$4,$5*
1,1,$1+$1,$6,$7*
1,1,$1+$1,$8,$9*
0 Add four rect primitives between the rounded corners*
20,1,$1+$1,$2,$3,$4,$5,0*
20,1,$1+$1,$4,$5,$6,$7,0*
20,1,$1+$1,$6,$7,$8,$9,0*
20,1,$1+$1,$8,$9,$2,$3,0*%
G04 Aperture macros list end*
%ADD10RoundRect,0.200000X0.275000X-0.200000X0.275000X0.200000X-0.275000X0.200000X-0.275000X-0.200000X0*%
%ADD11RoundRect,0.200000X-0.275000X0.200000X-0.275000X-0.200000X0.275000X-0.200000X0.275000X0.200000X0*%
%ADD12R,1.100000X1.000000*%
%ADD13C,2.200000*%
%ADD14C,2.000000*%
%ADD15O,0.364000X1.742000*%
%ADD16R,1.780000X1.525000*%
%ADD17RoundRect,0.200000X0.200000X0.275000X-0.200000X0.275000X-0.200000X-0.275000X0.200000X-0.275000X0*%
%ADD18RoundRect,0.225000X0.225000X0.250000X-0.225000X0.250000X-0.225000X-0.250000X0.225000X-0.250000X0*%
%ADD19R,1.000000X1.400000*%
%ADD20R,1.700000X1.700000*%
%ADD21C,1.700000*%
%ADD22R,1.550000X0.600000*%
%ADD23R,1.800000X1.200000*%
%ADD24R,0.600000X1.070000*%
%ADD25RoundRect,0.250000X-0.600000X0.600000X-0.600000X-0.600000X0.600000X-0.600000X0.600000X0.600000X0*%
%ADD26RoundRect,0.225000X-0.250000X0.225000X-0.250000X-0.225000X0.250000X-0.225000X0.250000X0.225000X0*%
%ADD27C,2.400000*%
%ADD28R,1.070000X0.600000*%
%ADD29RoundRect,0.225000X-0.225000X-0.250000X0.225000X-0.250000X0.225000X0.250000X-0.225000X0.250000X0*%
%ADD30R,1.000000X1.100000*%
G04 APERTURE END LIST*
D10*
%TO.C,R442*%
X66850000Y-125000D03*
X66850000Y1525000D03*
%TD*%
D11*
%TO.C,R495*%
X31850002Y21825000D03*
X31850002Y20175000D03*
%TD*%
D12*
%TO.C,D421*%
X94280000Y-2450000D03*
X90820000Y-2450000D03*
%TD*%
D11*
%TO.C,R483*%
X35500000Y5650000D03*
X35500000Y4000000D03*
%TD*%
%TO.C,R487*%
X27900001Y5649999D03*
X27900001Y3999999D03*
%TD*%
D10*
%TO.C,R441*%
X94300000Y-25000D03*
X94300000Y1625000D03*
%TD*%
D11*
%TO.C,R498*%
X26150001Y21824999D03*
X26150001Y20174999D03*
%TD*%
D13*
%TO.C,J21*%
X163100000Y53780000D03*
X163100000Y58880000D03*
X168200000Y58880000D03*
X168200000Y53780000D03*
D14*
X165650000Y56330000D03*
%TD*%
D15*
%TO.C,U410*%
X36729999Y14695000D03*
X36080000Y14695000D03*
X35430001Y14695000D03*
X34780000Y14695000D03*
X34120000Y14695000D03*
X33470000Y14695000D03*
X32820000Y14695000D03*
X32169999Y14695000D03*
X31520000Y14695000D03*
X30870001Y14695000D03*
X30870001Y8955000D03*
X31520000Y8955000D03*
X32169999Y8955000D03*
X32820000Y8955000D03*
X33470000Y8955000D03*
X34120000Y8955000D03*
X34780000Y8955000D03*
X35430001Y8955000D03*
X36080000Y8955000D03*
X36729999Y8955000D03*
%TD*%
D13*
%TO.C,J24*%
X109100000Y53780000D03*
X109100000Y58880000D03*
X114200000Y58880000D03*
X114200000Y53780000D03*
D14*
X111650000Y56330000D03*
%TD*%
D16*
%TO.C,U402*%
X59375002Y4985000D03*
X59375001Y7525000D03*
X59375001Y10065000D03*
X59375002Y12605000D03*
X50275002Y12605000D03*
X50275003Y10065000D03*
X50275003Y7525000D03*
X50275002Y4985000D03*
%TD*%
D13*
%TO.C,J17*%
X91100000Y71780000D03*
X91100000Y76880000D03*
X96200000Y76880000D03*
X96200000Y71780000D03*
D14*
X93650000Y74330000D03*
%TD*%
D13*
%TO.C,J13*%
X145100000Y53780000D03*
X145100000Y58880000D03*
X150200000Y58880000D03*
X150200000Y53780000D03*
D14*
X147650000Y56330000D03*
%TD*%
%TO.C,J31*%
X132670000Y-11000000D03*
X135210000Y-11000000D03*
X137750000Y-11000000D03*
X140290000Y-11000000D03*
X142830000Y-11000000D03*
X145370000Y-11000000D03*
X147910000Y-11000000D03*
X150450000Y-11000000D03*
X152990000Y-11000000D03*
X155530000Y-11000000D03*
%TD*%
D11*
%TO.C,R496*%
X29950001Y21825000D03*
X29950001Y20175000D03*
%TD*%
D10*
%TO.C,R431*%
X92100000Y-125000D03*
X92100000Y1525000D03*
%TD*%
D11*
%TO.C,R482*%
X37400002Y5649999D03*
X37400002Y3999999D03*
%TD*%
%TO.C,R484*%
X33600001Y5650000D03*
X33600001Y4000000D03*
%TD*%
D16*
%TO.C,U401*%
X86850001Y4910000D03*
X86850000Y7450000D03*
X86850000Y9990000D03*
X86850001Y12530000D03*
X77750001Y12530000D03*
X77750002Y9990000D03*
X77750002Y7450000D03*
X77750001Y4910000D03*
%TD*%
D11*
%TO.C,R491*%
X39450002Y21824999D03*
X39450002Y20174999D03*
%TD*%
D17*
%TO.C,R2*%
X124750000Y10049999D03*
X123100000Y10049999D03*
%TD*%
D18*
%TO.C,C401*%
X74675000Y8000000D03*
X73125000Y8000000D03*
%TD*%
D17*
%TO.C,R3*%
X124799998Y7350001D03*
X123149998Y7350001D03*
%TD*%
D19*
%TO.C,D3*%
X115400004Y7150000D03*
X117500004Y7150000D03*
%TD*%
D17*
%TO.C,R1*%
X124699999Y12750000D03*
X123049999Y12750000D03*
%TD*%
D13*
%TO.C,J16*%
X73100000Y71780000D03*
X73100000Y76880000D03*
X78200000Y76880000D03*
X78200000Y71780000D03*
D14*
X75650000Y74330000D03*
%TD*%
D11*
%TO.C,R488*%
X26000002Y5649999D03*
X26000002Y3999999D03*
%TD*%
%TO.C,R493*%
X35650000Y21825000D03*
X35650000Y20175000D03*
%TD*%
D13*
%TO.C,J25*%
X127100000Y53780000D03*
X127100000Y58880000D03*
X132200000Y58880000D03*
X132200000Y53780000D03*
D14*
X129650000Y56330000D03*
%TD*%
D10*
%TO.C,R432*%
X64400000Y-25000D03*
X64400000Y1625000D03*
%TD*%
%TO.C,R452*%
X66875002Y12970000D03*
X66875002Y14620000D03*
%TD*%
D20*
%TO.C,J30*%
X147240000Y25080000D03*
D21*
X149780000Y25080000D03*
X152320000Y25080000D03*
X154860000Y25080000D03*
%TD*%
D22*
%TO.C,J33*%
X122310000Y20750000D03*
X122310000Y21750000D03*
X122310000Y22750000D03*
X122310000Y23750000D03*
D23*
X119790000Y19450000D03*
X119790000Y25050000D03*
%TD*%
D11*
%TO.C,R486*%
X29800001Y5650000D03*
X29800001Y4000000D03*
%TD*%
D24*
%TO.C,Q421*%
X95500000Y10440000D03*
X93600000Y10440000D03*
X94550000Y7960001D03*
%TD*%
D11*
%TO.C,R492*%
X37550002Y21824999D03*
X37550002Y20174999D03*
%TD*%
%TO.C,R481*%
X39300002Y5649999D03*
X39300002Y3999999D03*
%TD*%
D13*
%TO.C,J22*%
X73100000Y53780000D03*
X73100000Y58880000D03*
X78200000Y58880000D03*
X78200000Y53780000D03*
D14*
X75650000Y56330000D03*
%TD*%
D13*
%TO.C,J23*%
X91100000Y53780000D03*
X91100000Y58880000D03*
X96200000Y58880000D03*
X96200000Y53780000D03*
D14*
X93650000Y56330000D03*
%TD*%
D13*
%TO.C,J20*%
X109100000Y35780000D03*
X109100000Y40880000D03*
X114200000Y40880000D03*
X114200000Y35780000D03*
D14*
X111650000Y38330000D03*
%TD*%
D13*
%TO.C,J12*%
X127100000Y35780000D03*
X127100000Y40880000D03*
X132200000Y40880000D03*
X132200000Y35780000D03*
D14*
X129650000Y38330000D03*
%TD*%
D13*
%TO.C,J11*%
X91100000Y35780000D03*
X91100000Y40880000D03*
X96200000Y40880000D03*
X96200000Y35780000D03*
D14*
X93650000Y38330000D03*
%TD*%
D24*
%TO.C,Q422*%
X66325002Y10535000D03*
X64425002Y10535000D03*
X65375002Y8055001D03*
%TD*%
D14*
%TO.C,FID1*%
X85000000Y77150000D03*
%TD*%
D11*
%TO.C,R461*%
X89350000Y9775000D03*
X89350000Y8125000D03*
%TD*%
%TO.C,R451*%
X91450000Y9725000D03*
X91450000Y8075000D03*
%TD*%
D25*
%TO.C,J40*%
X40100000Y-7050000D03*
D21*
X40100000Y-9590000D03*
X37560000Y-7050000D03*
X37560000Y-9590000D03*
X35020001Y-7050000D03*
X35020000Y-9590000D03*
X32480000Y-7050000D03*
X32480000Y-9590000D03*
X29940000Y-7050000D03*
X29940000Y-9590000D03*
X27400000Y-7050000D03*
X27400000Y-9590000D03*
%TD*%
D26*
%TO.C,C402*%
X47500000Y4875000D03*
X47500000Y3325000D03*
%TD*%
D19*
%TO.C,D2*%
X115450000Y10100000D03*
X117550000Y10100000D03*
%TD*%
D11*
%TO.C,R485*%
X31700002Y5650000D03*
X31700002Y4000000D03*
%TD*%
D27*
%TO.C,J32*%
X108350000Y-9350000D03*
X113350000Y-9350000D03*
%TD*%
D13*
%TO.C,J10*%
X73100000Y35780000D03*
X73100000Y40880000D03*
X78200000Y40880000D03*
X78200000Y35780000D03*
D14*
X75650000Y38330000D03*
%TD*%
D28*
%TO.C,Q411*%
X94540000Y3650000D03*
X94540000Y5550000D03*
X92060001Y4600000D03*
%TD*%
D14*
%TO.C,FID2*%
X161600000Y-10700000D03*
%TD*%
D13*
%TO.C,J411*%
X84350001Y-10680000D03*
X89350001Y-10680000D03*
%TD*%
D19*
%TO.C,D1*%
X115450000Y13050000D03*
X117550000Y13050000D03*
%TD*%
D13*
%TO.C,J19*%
X127100000Y71780000D03*
X127100000Y76880000D03*
X132200000Y76880000D03*
X132200000Y71780000D03*
D14*
X129650000Y74330000D03*
%TD*%
D10*
%TO.C,R472*%
X47350000Y7725000D03*
X47350000Y9375000D03*
%TD*%
D11*
%TO.C,R497*%
X28050001Y21824999D03*
X28050001Y20174999D03*
%TD*%
D13*
%TO.C,J412*%
X56875002Y-10605000D03*
X61875002Y-10605000D03*
%TD*%
D11*
%TO.C,R494*%
X33750002Y21825000D03*
X33750002Y20175000D03*
%TD*%
%TO.C,R471*%
X74750000Y11925000D03*
X74750000Y10275000D03*
%TD*%
D28*
%TO.C,Q412*%
X66615002Y3845001D03*
X66615002Y5745001D03*
X64135003Y4795001D03*
%TD*%
D10*
%TO.C,R462*%
X63875002Y12970000D03*
X63875002Y14620000D03*
%TD*%
D29*
%TO.C,C410*%
X38725000Y9100000D03*
X40275000Y9100000D03*
%TD*%
D30*
%TO.C,D422*%
X65375002Y-1975000D03*
X65375002Y-5435000D03*
%TD*%
D13*
%TO.C,J15*%
X163100000Y71780000D03*
X163100000Y76880000D03*
X168200000Y76880000D03*
X168200000Y71780000D03*
D14*
X165650000Y74330000D03*
%TD*%
D13*
%TO.C,J14*%
X145100000Y71780000D03*
X145100000Y76880000D03*
X150200000Y76880000D03*
X150200000Y71780000D03*
D14*
X147650000Y74330000D03*
%TD*%
D13*
%TO.C,J18*%
X109100000Y71780000D03*
X109100000Y76880000D03*
X114200000Y76880000D03*
X114200000Y71780000D03*
D14*
X111650000Y74330000D03*
%TD*%
D20*
%TO.C,J1*%
X17375000Y80525000D03*
D21*
X17375000Y77985000D03*
X19915000Y80525000D03*
X19915000Y77985000D03*
X22455000Y80525000D03*
X22455000Y77985000D03*
X24995000Y80525000D03*
X24995000Y77985000D03*
X27535000Y80525000D03*
X27535000Y77985000D03*
X30075000Y80525000D03*
X30075000Y77985000D03*
X32615000Y80525000D03*
X32615000Y77985000D03*
X35155000Y80525000D03*
X35155000Y77985000D03*
X37695000Y80525000D03*
X37695000Y77985000D03*
X40235000Y80525000D03*
X40235000Y77985000D03*
X42775000Y80525000D03*
X42775000Y77985000D03*
X45315000Y80525000D03*
X45315000Y77985000D03*
X47855000Y80525000D03*
X47855000Y77985000D03*
X50395000Y80525000D03*
X50395000Y77985000D03*
X52935000Y80525000D03*
X52935000Y77985000D03*
X55475000Y80525000D03*
X55475000Y77985000D03*
X58015000Y80525000D03*
X58015000Y77985000D03*
X60555000Y80525000D03*
X60555000Y77985000D03*
X63095000Y80525000D03*
X63095000Y77985000D03*
X65635000Y80525000D03*
X65635000Y77985000D03*
%TD*%
D20*
%TO.C,J2*%
X173730000Y-1750000D03*
D21*
X176270000Y-1750000D03*
X173730000Y790000D03*
X176270000Y790000D03*
X173730000Y3330000D03*
X176270000Y3330000D03*
X173730000Y5870000D03*
X176270000Y5870000D03*
X173730000Y8410000D03*
X176270000Y8410000D03*
X173730000Y10950000D03*
X176270000Y10950000D03*
X173730000Y13490000D03*
X176270000Y13490000D03*
X173730000Y16030000D03*
X176270000Y16030000D03*
X173730000Y18570000D03*
X176270000Y18570000D03*
X173730000Y21110000D03*
X176270000Y21110000D03*
X173730000Y23650000D03*
X176270000Y23650000D03*
X173730000Y26190000D03*
X176270000Y26190000D03*
X173730000Y28730000D03*
X176270000Y28730000D03*
X173730000Y31270000D03*
X176270000Y31270000D03*
X173730000Y33810000D03*
X176270000Y33810000D03*
X173730000Y36350000D03*
X176270000Y36350000D03*
X173730000Y38890000D03*
X176270000Y38890000D03*
X173730000Y41430000D03*
X176270000Y41430000D03*
X173730000Y43970000D03*
X176270000Y43970000D03*
X173730000Y46510000D03*
X176270000Y46510000D03*
%TD*%
D20*
%TO.C,J3*%
X8270000Y69130000D03*
D21*
X5730000Y69130000D03*
X8270000Y66590000D03*
X5730000Y66590000D03*
X8270000Y64050000D03*
X5730000Y64050000D03*
X8270000Y61510000D03*
X5730000Y61510000D03*
X8270000Y58970000D03*
X5730000Y58970000D03*
X8270000Y56430000D03*
X5730000Y56430000D03*
X8270000Y53890000D03*
X5730000Y53890000D03*
X8270000Y51350000D03*
X5730000Y51350000D03*
X8270000Y48810000D03*
X5730000Y48810000D03*
X8270000Y46270000D03*
X5730000Y46270000D03*
X8270000Y43730000D03*
X5730000Y43730000D03*
X8270000Y41190000D03*
X5730000Y41190000D03*
X8270000Y38650000D03*
X5730000Y38650000D03*
X8270000Y36110000D03*
X5730000Y36110000D03*
X8270000Y33570000D03*
X5730000Y33570000D03*
X8270000Y31030000D03*
X5730000Y31030000D03*
X8270000Y28490000D03*
X5730000Y28490000D03*
X8270000Y25950000D03*
X5730000Y25950000D03*
X8270000Y23410000D03*
X5730000Y23410000D03*
X8270000Y20870000D03*
X5730000Y20870000D03*
%TD*%
M02*
