M48
; DRILL file KiCad 10.0.3 date 2026-10-01T05:35:26
; FORMAT={-:-/ absolute / inch / decimal}
; #@! TF.CreationDate,2026-10-01T05:35:26+08:00
; #@! TF.GenerationSoftware,Kicad,Pcbnew,10.0.3
; #@! TF.FileFunction,Plated,1,4,PTH
FMAT,2
INCH
; #@! TA.AperFunction,Plated,PTH,ViaDrill
T1C0.0118
; #@! TA.AperFunction,Plated,PTH,ViaDrill
T2C0.0157
; #@! TA.AperFunction,Plated,PTH,ComponentDrill
T3C0.0394
; #@! TA.AperFunction,Plated,PTH,ComponentDrill
T4C0.0512
; #@! TA.AperFunction,Plated,PTH,ComponentDrill
T5C0.0531
; #@! TA.AperFunction,Plated,PTH,ComponentDrill
T6C0.0551
; #@! TA.AperFunction,Plated,PTH,ComponentDrill
T7C0.0591
; #@! TA.AperFunction,Plated,PTH,ComponentDrill
T8C0.0630
%
G90
G05
T1
X1.0276Y0.7382
X1.1043Y0.7441
X1.1791Y0.7441
X1.1791Y0.5768
X1.2539Y0.7441
X1.3287Y0.7441
X1.3563Y2.9114
X1.4035Y0.7539
X1.4193Y0.4252
X1.4783Y0.7441
X1.4823Y0.5787
X1.5512Y0.7441
X1.626Y0.3563
X1.872Y0.0768
X1.9803Y0.565
X2.8799Y0.2559
X3.061Y0.565
X4.4744Y0.2835
X4.4764Y0.5138
X4.4783Y0.3976
X4.6457Y0.9862
X4.6476Y0.7657
T2
X1.7953Y0.3642
X2.065Y0.9311
X2.9764Y0.248
X4.9094Y0.6555
T3
X0.2256Y2.7217
X0.2256Y2.6217
X0.2256Y2.5217
X0.2256Y2.4217
X0.2256Y2.3217
X0.2256Y2.2217
X0.2256Y2.1217
X0.2256Y2.0217
X0.2256Y1.9217
X0.2256Y1.8217
X0.2256Y1.7217
X0.2256Y1.6217
X0.2256Y1.5217
X0.2256Y1.4217
X0.2256Y1.3217
X0.2256Y1.2217
X0.2256Y1.1217
X0.2256Y1.0217
X0.2256Y0.9217
X0.2256Y0.8217
X0.3256Y2.7217
X0.3256Y2.6217
X0.3256Y2.5217
X0.3256Y2.4217
X0.3256Y2.3217
X0.3256Y2.2217
X0.3256Y2.1217
X0.3256Y2.0217
X0.3256Y1.9217
X0.3256Y1.8217
X0.3256Y1.7217
X0.3256Y1.6217
X0.3256Y1.5217
X0.3256Y1.4217
X0.3256Y1.3217
X0.3256Y1.2217
X0.3256Y1.1217
X0.3256Y1.0217
X0.3256Y0.9217
X0.3256Y0.8217
X0.6841Y3.1703
X0.6841Y3.0703
X0.7841Y3.1703
X0.7841Y3.0703
X0.8841Y3.1703
X0.8841Y3.0703
X0.9841Y3.1703
X0.9841Y3.0703
X1.0787Y-0.2776
X1.0787Y-0.3776
X1.0841Y3.1703
X1.0841Y3.0703
X1.1787Y-0.2776
X1.1787Y-0.3776
X1.1841Y3.1703
X1.1841Y3.0703
X1.2787Y-0.2776
X1.2787Y-0.3776
X1.2841Y3.1703
X1.2841Y3.0703
X1.3787Y-0.3776
X1.3787Y-0.2776
X1.3841Y3.1703
X1.3841Y3.0703
X1.4787Y-0.2776
X1.4787Y-0.3776
X1.4841Y3.1703
X1.4841Y3.0703
X1.5787Y-0.2776
X1.5787Y-0.3776
X1.5841Y3.1703
X1.5841Y3.0703
X1.6841Y3.1703
X1.6841Y3.0703
X1.7841Y3.1703
X1.7841Y3.0703
X1.8841Y3.1703
X1.8841Y3.0703
X1.9841Y3.1703
X1.9841Y3.0703
X2.0841Y3.1703
X2.0841Y3.0703
X2.1841Y3.1703
X2.1841Y3.0703
X2.2841Y3.1703
X2.2841Y3.0703
X2.3841Y3.1703
X2.3841Y3.0703
X2.4841Y3.1703
X2.4841Y3.0703
X2.5841Y3.1703
X2.5841Y3.0703
X5.7969Y0.9874
X5.8969Y0.9874
X5.9969Y0.9874
X6.0969Y0.9874
X6.8398Y1.8311
X6.8398Y1.7311
X6.8398Y1.6311
X6.8398Y1.5311
X6.8398Y1.4311
X6.8398Y1.3311
X6.8398Y1.2311
X6.8398Y1.1311
X6.8398Y1.0311
X6.8398Y0.9311
X6.8398Y0.8311
X6.8398Y0.7311
X6.8398Y0.6311
X6.8398Y0.5311
X6.8398Y0.4311
X6.8398Y0.3311
X6.8398Y0.2311
X6.8398Y0.1311
X6.8398Y0.0311
X6.8398Y-0.0689
X6.9398Y1.8311
X6.9398Y1.7311
X6.9398Y1.6311
X6.9398Y1.5311
X6.9398Y1.4311
X6.9398Y1.3311
X6.9398Y1.2311
X6.9398Y1.1311
X6.9398Y1.0311
X6.9398Y0.9311
X6.9398Y0.8311
X6.9398Y0.7311
X6.9398Y0.6311
X6.9398Y0.5311
X6.9398Y0.4311
X6.9398Y0.3311
X6.9398Y0.2311
X6.9398Y0.1311
X6.9398Y0.0311
X6.9398Y-0.0689
T4
X5.2232Y-0.4331
X5.3232Y-0.4331
X5.4232Y-0.4331
X5.5232Y-0.4331
X5.6232Y-0.4331
X5.7232Y-0.4331
X5.8232Y-0.4331
X5.9232Y-0.4331
X6.0232Y-0.4331
X6.1232Y-0.4331
T5
X2.9783Y2.9264
X2.9783Y2.2177
X2.9783Y1.5091
X3.687Y2.9264
X3.687Y2.2177
X3.687Y1.5091
X4.3957Y2.9264
X4.3957Y2.2177
X4.3957Y1.5091
X5.1043Y2.9264
X5.1043Y2.2177
X5.1043Y1.5091
X5.813Y2.9264
X5.813Y2.2177
X6.5217Y2.9264
X6.5217Y2.2177
T6
X2.2392Y-0.4175
X2.436Y-0.4175
X3.3209Y-0.4205
X3.5177Y-0.4205
T7
X2.878Y3.0268
X2.878Y2.826
X2.878Y2.3181
X2.878Y2.1173
X2.878Y1.6094
X2.878Y1.4087
X3.0787Y3.0268
X3.0787Y2.826
X3.0787Y2.3181
X3.0787Y2.1173
X3.0787Y1.6094
X3.0787Y1.4087
X3.5866Y3.0268
X3.5866Y2.826
X3.5866Y2.3181
X3.5866Y2.1173
X3.5866Y1.6094
X3.5866Y1.4087
X3.7874Y3.0268
X3.7874Y2.826
X3.7874Y2.3181
X3.7874Y2.1173
X3.7874Y1.6094
X3.7874Y1.4087
X4.2953Y3.0268
X4.2953Y2.826
X4.2953Y2.3181
X4.2953Y2.1173
X4.2953Y1.6094
X4.2953Y1.4087
X4.4961Y3.0268
X4.4961Y2.826
X4.4961Y2.3181
X4.4961Y2.1173
X4.4961Y1.6094
X4.4961Y1.4087
X5.0039Y3.0268
X5.0039Y2.826
X5.0039Y2.3181
X5.0039Y2.1173
X5.0039Y1.6094
X5.0039Y1.4087
X5.2047Y3.0268
X5.2047Y2.826
X5.2047Y2.3181
X5.2047Y2.1173
X5.2047Y1.6094
X5.2047Y1.4087
X5.7126Y3.0268
X5.7126Y2.826
X5.7126Y2.3181
X5.7126Y2.1173
X5.9134Y3.0268
X5.9134Y2.826
X5.9134Y2.3181
X5.9134Y2.1173
X6.4213Y3.0268
X6.4213Y2.826
X6.4213Y2.3181
X6.4213Y2.1173
X6.622Y3.0268
X6.622Y2.826
X6.622Y2.3181
X6.622Y2.1173
T8
X4.2657Y-0.3681
X4.4626Y-0.3681
M30
