%TF.GenerationSoftware,KiCad,Pcbnew,10.0.3*%
%TF.CreationDate,2026-10-05T04:04:27+08:00*%
%TF.ProjectId,front-panel,66726f6e-742d-4706-916e-656c2e6b6963,A*%
%TF.SameCoordinates,Original*%
%TF.FileFunction,Copper,L4,Bot*%
%TF.FilePolarity,Positive*%
%FSLAX46Y46*%
G04 Gerber Fmt 4.6, Leading zero omitted, Abs format (unit mm)*
G04 Created by KiCad (PCBNEW 10.0.3) date 2026-10-05 04:04:27*
%MOMM*%
%LPD*%
G01*
G04 APERTURE LIST*
G04 Aperture macros list*
%AMRoundRect*
0 Rectangle with rounded corners*
0 $1 Rounding radius*
0 $2 $3 $4 $5 $6 $7 $8 $9 X,Y pos of 4 corners*
0 Add a 4 corners polygon primitive as box body*
4,1,4,$2,$3,$4,$5,$6,$7,$8,$9,$2,$3,0*
0 Add four circle primitives for the rounded corners*
1,1,$1+$1,$2,$3*
1,1,$1+$1,$4,$5*
1,1,$1+$1,$6,$7*
1,1,$1+$1,$8,$9*
0 Add four rect primitives between the rounded corners*
20,1,$1+$1,$2,$3,$4,$5,0*
20,1,$1+$1,$4,$5,$6,$7,0*
20,1,$1+$1,$6,$7,$8,$9,0*
20,1,$1+$1,$8,$9,$2,$3,0*%
G04 Aperture macros list end*
%TA.AperFunction,ComponentPad*%
%ADD10C,2.200000*%
%TD*%
%TA.AperFunction,ComponentPad*%
%ADD11C,2.000000*%
%TD*%
%TA.AperFunction,ComponentPad*%
%ADD12R,1.700000X1.700000*%
%TD*%
%TA.AperFunction,ComponentPad*%
%ADD13C,1.700000*%
%TD*%
%TA.AperFunction,ComponentPad*%
%ADD14RoundRect,0.250000X-0.600000X0.600000X-0.600000X-0.600000X0.600000X-0.600000X0.600000X0.600000X0*%
%TD*%
%TA.AperFunction,ComponentPad*%
%ADD15C,2.400000*%
%TD*%
%TA.AperFunction,ViaPad*%
%ADD16C,0.600000*%
%TD*%
%TA.AperFunction,ViaPad*%
%ADD17C,0.800000*%
%TD*%
%TA.AperFunction,Conductor*%
%ADD18C,1.000000*%
%TD*%
%TA.AperFunction,Conductor*%
%ADD19C,0.250000*%
%TD*%
G04 APERTURE END LIST*
D10*
%TO.P,J21,1,GND_1*%
%TO.N,GND*%
X163100000Y53780000D03*
%TO.P,J21,2,GND_2*%
X163100000Y58880000D03*
%TO.P,J21,3,GND_3*%
X168200000Y58880000D03*
%TO.P,J21,4,GND_4*%
X168200000Y53780000D03*
D11*
%TO.P,J21,5,SIG_5*%
%TO.N,/FASTTTL2*%
X165650000Y56330000D03*
%TD*%
D10*
%TO.P,J24,1,GND_1*%
%TO.N,GND*%
X109100000Y53780000D03*
%TO.P,J24,2,GND_2*%
X109100000Y58880000D03*
%TO.P,J24,3,GND_3*%
X114200000Y58880000D03*
%TO.P,J24,4,GND_4*%
X114200000Y53780000D03*
D11*
%TO.P,J24,5,SIG_5*%
%TO.N,/AI7*%
X111650000Y56330000D03*
%TD*%
D10*
%TO.P,J17,1,GND_1*%
%TO.N,GND*%
X91100000Y71780000D03*
%TO.P,J17,2,GND_2*%
X91100000Y76880000D03*
%TO.P,J17,3,GND_3*%
X96200000Y76880000D03*
%TO.P,J17,4,GND_4*%
X96200000Y71780000D03*
D11*
%TO.P,J17,5,SIG_5*%
%TO.N,/AI2*%
X93650000Y74330000D03*
%TD*%
D10*
%TO.P,J13,1,GND_1*%
%TO.N,GND*%
X145100000Y53780000D03*
%TO.P,J13,2,GND_2*%
X145100000Y58880000D03*
%TO.P,J13,3,GND_3*%
X150200000Y58880000D03*
%TO.P,J13,4,GND_4*%
X150200000Y53780000D03*
D11*
%TO.P,J13,5,SIG_5*%
%TO.N,/RX*%
X147650000Y56330000D03*
%TD*%
%TO.P,J31,1,1_1*%
%TO.N,/TTL1*%
X132670000Y-11000000D03*
%TO.P,J31,2,2_2*%
%TO.N,/TTL2*%
X135210000Y-11000000D03*
%TO.P,J31,3,3_3*%
%TO.N,/TTL3*%
X137750000Y-11000000D03*
%TO.P,J31,4,4_4*%
%TO.N,/TTL4*%
X140290000Y-11000000D03*
%TO.P,J31,5,5_5*%
%TO.N,/TTL5*%
X142830000Y-11000000D03*
%TO.P,J31,6,6_6*%
%TO.N,/TTL6*%
X145370000Y-11000000D03*
%TO.P,J31,7,7_7*%
%TO.N,/TTL7*%
X147910000Y-11000000D03*
%TO.P,J31,8,8_8*%
%TO.N,/TTL8*%
X150450000Y-11000000D03*
%TO.P,J31,9,9_9*%
%TO.N,GND*%
X152990000Y-11000000D03*
%TO.P,J31,10,10_10*%
X155530000Y-11000000D03*
%TD*%
D10*
%TO.P,J16,1,GND_1*%
%TO.N,GND*%
X73100000Y71780000D03*
%TO.P,J16,2,GND_2*%
X73100000Y76880000D03*
%TO.P,J16,3,GND_3*%
X78200000Y76880000D03*
%TO.P,J16,4,GND_4*%
X78200000Y71780000D03*
D11*
%TO.P,J16,5,SIG_5*%
%TO.N,/AI1*%
X75650000Y74330000D03*
%TD*%
D10*
%TO.P,J25,1,GND_1*%
%TO.N,GND*%
X127100000Y53780000D03*
%TO.P,J25,2,GND_2*%
X127100000Y58880000D03*
%TO.P,J25,3,GND_3*%
X132200000Y58880000D03*
%TO.P,J25,4,GND_4*%
X132200000Y53780000D03*
D11*
%TO.P,J25,5,SIG_5*%
%TO.N,/AI8*%
X129650000Y56330000D03*
%TD*%
D12*
%TO.P,J30,1,GND_1*%
%TO.N,GND*%
X147240000Y25080000D03*
D13*
%TO.P,J30,2,VCC_2*%
%TO.N,+3V3*%
X149780000Y25080000D03*
%TO.P,J30,3,SCL_3*%
%TO.N,/I2C_SCL*%
X152320000Y25080000D03*
%TO.P,J30,4,SDA_4*%
%TO.N,/I2C_SDA*%
X154860000Y25080000D03*
%TD*%
D10*
%TO.P,J22,1,GND_1*%
%TO.N,GND*%
X73100000Y53780000D03*
%TO.P,J22,2,GND_2*%
X73100000Y58880000D03*
%TO.P,J22,3,GND_3*%
X78200000Y58880000D03*
%TO.P,J22,4,GND_4*%
X78200000Y53780000D03*
D11*
%TO.P,J22,5,SIG_5*%
%TO.N,/AI5*%
X75650000Y56330000D03*
%TD*%
D10*
%TO.P,J23,1,GND_1*%
%TO.N,GND*%
X91100000Y53780000D03*
%TO.P,J23,2,GND_2*%
X91100000Y58880000D03*
%TO.P,J23,3,GND_3*%
X96200000Y58880000D03*
%TO.P,J23,4,GND_4*%
X96200000Y53780000D03*
D11*
%TO.P,J23,5,SIG_5*%
%TO.N,/AI6*%
X93650000Y56330000D03*
%TD*%
D10*
%TO.P,J20,1,GND_1*%
%TO.N,GND*%
X109100000Y35780000D03*
%TO.P,J20,2,GND_2*%
X109100000Y40880000D03*
%TO.P,J20,3,GND_3*%
X114200000Y40880000D03*
%TO.P,J20,4,GND_4*%
X114200000Y35780000D03*
D11*
%TO.P,J20,5,SIG_5*%
%TO.N,/TX*%
X111650000Y38330000D03*
%TD*%
D10*
%TO.P,J12,1,GND_1*%
%TO.N,GND*%
X127100000Y35780000D03*
%TO.P,J12,2,GND_2*%
X127100000Y40880000D03*
%TO.P,J12,3,GND_3*%
X132200000Y40880000D03*
%TO.P,J12,4,GND_4*%
X132200000Y35780000D03*
D11*
%TO.P,J12,5,SIG_5*%
%TO.N,/TRIG_5V*%
X129650000Y38330000D03*
%TD*%
D10*
%TO.P,J11,1,GND_1*%
%TO.N,GND*%
X91100000Y35780000D03*
%TO.P,J11,2,GND_2*%
X91100000Y40880000D03*
%TO.P,J11,3,GND_3*%
X96200000Y40880000D03*
%TO.P,J11,4,GND_4*%
X96200000Y35780000D03*
D11*
%TO.P,J11,5,SIG_5*%
%TO.N,/AO2*%
X93650000Y38330000D03*
%TD*%
D14*
%TO.P,J40,1,1_1*%
%TO.N,+5V_RAW*%
X40100000Y-7050000D03*
D13*
%TO.P,J40,2,2_2*%
X40100000Y-9590000D03*
%TO.P,J40,3,3_3*%
%TO.N,/MODOUT1*%
X37560000Y-7050000D03*
%TO.P,J40,4,4_4*%
%TO.N,/MODOUT2*%
X37560000Y-9590000D03*
%TO.P,J40,5,5_5*%
%TO.N,/MODOUT3*%
X35020001Y-7050000D03*
%TO.P,J40,6,6_6*%
%TO.N,/MODOUT4*%
X35020000Y-9590000D03*
%TO.P,J40,7,7_7*%
%TO.N,/MODOUT5*%
X32480000Y-7050000D03*
%TO.P,J40,8,8_8*%
%TO.N,/MODOUT6*%
X32480000Y-9590000D03*
%TO.P,J40,9,9_9*%
%TO.N,/MODOUT7*%
X29940000Y-7050000D03*
%TO.P,J40,10,10_10*%
%TO.N,/MODOUT8*%
X29940000Y-9590000D03*
%TO.P,J40,11,11_11*%
%TO.N,GND*%
X27400000Y-7050000D03*
%TO.P,J40,12,12_12*%
X27400000Y-9590000D03*
%TD*%
D15*
%TO.P,J32,1,1_1*%
%TO.N,/TX*%
X108350000Y-9350000D03*
%TO.P,J32,2,2_2*%
%TO.N,GND*%
X113350000Y-9350000D03*
%TD*%
D10*
%TO.P,J10,1,GND_1*%
%TO.N,GND*%
X73100000Y35780000D03*
%TO.P,J10,2,GND_2*%
X73100000Y40880000D03*
%TO.P,J10,3,GND_3*%
X78200000Y40880000D03*
%TO.P,J10,4,GND_4*%
X78200000Y35780000D03*
D11*
%TO.P,J10,5,SIG_5*%
%TO.N,/AO1*%
X75650000Y38330000D03*
%TD*%
D10*
%TO.P,J411,1,1_1*%
%TO.N,/ISO1_IN+*%
X84350001Y-10680000D03*
%TO.P,J411,2,2_2*%
%TO.N,/ISO1_IN-*%
X89350001Y-10680000D03*
%TD*%
%TO.P,J19,1,GND_1*%
%TO.N,GND*%
X127100000Y71780000D03*
%TO.P,J19,2,GND_2*%
X127100000Y76880000D03*
%TO.P,J19,3,GND_3*%
X132200000Y76880000D03*
%TO.P,J19,4,GND_4*%
X132200000Y71780000D03*
D11*
%TO.P,J19,5,SIG_5*%
%TO.N,/AI4*%
X129650000Y74330000D03*
%TD*%
D10*
%TO.P,J412,1,1_1*%
%TO.N,/ISO2_IN+*%
X56875002Y-10605000D03*
%TO.P,J412,2,2_2*%
%TO.N,/ISO2_IN-*%
X61875002Y-10605000D03*
%TD*%
%TO.P,J15,1,GND_1*%
%TO.N,GND*%
X163100000Y71780000D03*
%TO.P,J15,2,GND_2*%
X163100000Y76880000D03*
%TO.P,J15,3,GND_3*%
X168200000Y76880000D03*
%TO.P,J15,4,GND_4*%
X168200000Y71780000D03*
D11*
%TO.P,J15,5,SIG_5*%
%TO.N,/FASTTTL1*%
X165650000Y74330000D03*
%TD*%
D10*
%TO.P,J14,1,GND_1*%
%TO.N,GND*%
X145100000Y71780000D03*
%TO.P,J14,2,GND_2*%
X145100000Y76880000D03*
%TO.P,J14,3,GND_3*%
X150200000Y76880000D03*
%TO.P,J14,4,GND_4*%
X150200000Y71780000D03*
D11*
%TO.P,J14,5,SIG_5*%
%TO.N,/AUX*%
X147650000Y74330000D03*
%TD*%
D10*
%TO.P,J18,1,GND_1*%
%TO.N,GND*%
X109100000Y71780000D03*
%TO.P,J18,2,GND_2*%
X109100000Y76880000D03*
%TO.P,J18,3,GND_3*%
X114200000Y76880000D03*
%TO.P,J18,4,GND_4*%
X114200000Y71780000D03*
D11*
%TO.P,J18,5,SIG_5*%
%TO.N,/AI3*%
X111650000Y74330000D03*
%TD*%
D12*
%TO.P,J1,1,Pin_1_1*%
%TO.N,GND*%
X17375000Y80525000D03*
D13*
%TO.P,J1,2,Pin_2_2*%
%TO.N,unconnected-(J1-Pin_2-Pad2)*%
X17375000Y77985000D03*
%TO.P,J1,3,Pin_3_3*%
%TO.N,GND*%
X19915000Y80525000D03*
%TO.P,J1,4,Pin_4_4*%
%TO.N,unconnected-(J1-Pin_4-Pad4)*%
X19915000Y77985000D03*
%TO.P,J1,5,Pin_5_5*%
%TO.N,GND*%
X22455000Y80525000D03*
%TO.P,J1,6,Pin_6_6*%
%TO.N,unconnected-(J1-Pin_6-Pad6)*%
X22455000Y77985000D03*
%TO.P,J1,7,Pin_7_7*%
%TO.N,GND*%
X24995000Y80525000D03*
%TO.P,J1,8,Pin_8_8*%
%TO.N,unconnected-(J1-Pin_8-Pad8)*%
X24995000Y77985000D03*
%TO.P,J1,9,Pin_9_9*%
%TO.N,GND*%
X27535000Y80525000D03*
%TO.P,J1,10,Pin_10_10*%
%TO.N,/TX*%
X27535000Y77985000D03*
%TO.P,J1,11,Pin_11_11*%
%TO.N,GND*%
X30075000Y80525000D03*
%TO.P,J1,12,Pin_12_12*%
%TO.N,/TX*%
X30075000Y77985000D03*
%TO.P,J1,13,Pin_13_13*%
%TO.N,GND*%
X32615000Y80525000D03*
%TO.P,J1,14,Pin_14_14*%
%TO.N,unconnected-(J1-Pin_14-Pad14)*%
X32615000Y77985000D03*
%TO.P,J1,15,Pin_15_15*%
%TO.N,GND*%
X35155000Y80525000D03*
%TO.P,J1,16,Pin_16_16*%
%TO.N,/AO2*%
X35155000Y77985000D03*
%TO.P,J1,17,Pin_17_17*%
%TO.N,GND*%
X37695000Y80525000D03*
%TO.P,J1,18,Pin_18_18*%
%TO.N,/AO1*%
X37695000Y77985000D03*
%TO.P,J1,19,Pin_19_19*%
%TO.N,GND*%
X40235000Y80525000D03*
%TO.P,J1,20,Pin_20_20*%
%TO.N,/RX*%
X40235000Y77985000D03*
%TO.P,J1,21,Pin_21_21*%
%TO.N,GND*%
X42775000Y80525000D03*
%TO.P,J1,22,Pin_22_22*%
%TO.N,/AUX*%
X42775000Y77985000D03*
%TO.P,J1,23,Pin_23_23*%
%TO.N,GND*%
X45315000Y80525000D03*
%TO.P,J1,24,Pin_24_24*%
%TO.N,/AI8*%
X45315000Y77985000D03*
%TO.P,J1,25,Pin_25_25*%
%TO.N,GND*%
X47855000Y80525000D03*
%TO.P,J1,26,Pin_26_26*%
%TO.N,/AI7*%
X47855000Y77985000D03*
%TO.P,J1,27,Pin_27_27*%
%TO.N,GND*%
X50395000Y80525000D03*
%TO.P,J1,28,Pin_28_28*%
%TO.N,/AI6*%
X50395000Y77985000D03*
%TO.P,J1,29,Pin_29_29*%
%TO.N,GND*%
X52935000Y80525000D03*
%TO.P,J1,30,Pin_30_30*%
%TO.N,/AI5*%
X52935000Y77985000D03*
%TO.P,J1,31,Pin_31_31*%
%TO.N,GND*%
X55475000Y80525000D03*
%TO.P,J1,32,Pin_32_32*%
%TO.N,unconnected-(J1-Pin_32-Pad32)*%
X55475000Y77985000D03*
%TO.P,J1,33,Pin_33_33*%
%TO.N,GND*%
X58015000Y80525000D03*
%TO.P,J1,34,Pin_34_34*%
%TO.N,/AI4*%
X58015000Y77985000D03*
%TO.P,J1,35,Pin_35_35*%
%TO.N,GND*%
X60555000Y80525000D03*
%TO.P,J1,36,Pin_36_36*%
%TO.N,/AI3*%
X60555000Y77985000D03*
%TO.P,J1,37,Pin_37_37*%
%TO.N,GND*%
X63095000Y80525000D03*
%TO.P,J1,38,Pin_38_38*%
%TO.N,/AI2*%
X63095000Y77985000D03*
%TO.P,J1,39,Pin_39_39*%
%TO.N,GND*%
X65635000Y80525000D03*
%TO.P,J1,40,Pin_40_40*%
%TO.N,/AI1*%
X65635000Y77985000D03*
%TD*%
D12*
%TO.P,J2,1,Pin_1_1*%
%TO.N,/TTL8*%
X173730000Y-1750000D03*
D13*
%TO.P,J2,2,Pin_2_2*%
%TO.N,GND*%
X176270000Y-1750000D03*
%TO.P,J2,3,Pin_3_3*%
%TO.N,/TTL7*%
X173730000Y790000D03*
%TO.P,J2,4,Pin_4_4*%
%TO.N,GND*%
X176270000Y790000D03*
%TO.P,J2,5,Pin_5_5*%
%TO.N,/TTL6*%
X173730000Y3330000D03*
%TO.P,J2,6,Pin_6_6*%
%TO.N,GND*%
X176270000Y3330000D03*
%TO.P,J2,7,Pin_7_7*%
%TO.N,/TTL5*%
X173730000Y5870000D03*
%TO.P,J2,8,Pin_8_8*%
%TO.N,GND*%
X176270000Y5870000D03*
%TO.P,J2,9,Pin_9_9*%
%TO.N,/TTL4*%
X173730000Y8410000D03*
%TO.P,J2,10,Pin_10_10*%
%TO.N,GND*%
X176270000Y8410000D03*
%TO.P,J2,11,Pin_11_11*%
%TO.N,/TTL3*%
X173730000Y10950000D03*
%TO.P,J2,12,Pin_12_12*%
%TO.N,GND*%
X176270000Y10950000D03*
%TO.P,J2,13,Pin_13_13*%
%TO.N,/TTL2*%
X173730000Y13490000D03*
%TO.P,J2,14,Pin_14_14*%
%TO.N,GND*%
X176270000Y13490000D03*
%TO.P,J2,15,Pin_15_15*%
%TO.N,/TTL1*%
X173730000Y16030000D03*
%TO.P,J2,16,Pin_16_16*%
%TO.N,GND*%
X176270000Y16030000D03*
%TO.P,J2,17,Pin_17_17*%
%TO.N,unconnected-(J2-Pin_17-Pad17)*%
X173730000Y18570000D03*
%TO.P,J2,18,Pin_18_18*%
%TO.N,GND*%
X176270000Y18570000D03*
%TO.P,J2,19,Pin_19_19*%
%TO.N,unconnected-(J2-Pin_19-Pad19)*%
X173730000Y21110000D03*
%TO.P,J2,20,Pin_20_20*%
%TO.N,GND*%
X176270000Y21110000D03*
%TO.P,J2,21,Pin_21_21*%
%TO.N,unconnected-(J2-Pin_21-Pad21)*%
X173730000Y23650000D03*
%TO.P,J2,22,Pin_22_22*%
%TO.N,GND*%
X176270000Y23650000D03*
%TO.P,J2,23,Pin_23_23*%
%TO.N,/LED_ACT*%
X173730000Y26190000D03*
%TO.P,J2,24,Pin_24_24*%
%TO.N,GND*%
X176270000Y26190000D03*
%TO.P,J2,25,Pin_25_25*%
%TO.N,/LED_WIFI*%
X173730000Y28730000D03*
%TO.P,J2,26,Pin_26_26*%
%TO.N,GND*%
X176270000Y28730000D03*
%TO.P,J2,27,Pin_27_27*%
%TO.N,+3V3*%
X173730000Y31270000D03*
%TO.P,J2,28,Pin_28_28*%
%TO.N,GND*%
X176270000Y31270000D03*
%TO.P,J2,29,Pin_29_29*%
%TO.N,+3V3*%
X173730000Y33810000D03*
%TO.P,J2,30,Pin_30_30*%
%TO.N,GND*%
X176270000Y33810000D03*
%TO.P,J2,31,Pin_31_31*%
%TO.N,/I2C_SCL*%
X173730000Y36350000D03*
%TO.P,J2,32,Pin_32_32*%
%TO.N,GND*%
X176270000Y36350000D03*
%TO.P,J2,33,Pin_33_33*%
%TO.N,/I2C_SDA*%
X173730000Y38890000D03*
%TO.P,J2,34,Pin_34_34*%
%TO.N,GND*%
X176270000Y38890000D03*
%TO.P,J2,35,Pin_35_35*%
%TO.N,/TRIG_5V*%
X173730000Y41430000D03*
%TO.P,J2,36,Pin_36_36*%
%TO.N,GND*%
X176270000Y41430000D03*
%TO.P,J2,37,Pin_37_37*%
%TO.N,/FASTTTL2*%
X173730000Y43970000D03*
%TO.P,J2,38,Pin_38_38*%
%TO.N,GND*%
X176270000Y43970000D03*
%TO.P,J2,39,Pin_39_39*%
%TO.N,/FASTTTL1*%
X173730000Y46510000D03*
%TO.P,J2,40,Pin_40_40*%
%TO.N,GND*%
X176270000Y46510000D03*
%TD*%
D12*
%TO.P,J3,1,Pin_1_1*%
%TO.N,+5V_RAW*%
X8270000Y69130000D03*
D13*
%TO.P,J3,2,Pin_2_2*%
%TO.N,GND*%
X5730000Y69130000D03*
%TO.P,J3,3,Pin_3_3*%
%TO.N,+5V_RAW*%
X8270000Y66590000D03*
%TO.P,J3,4,Pin_4_4*%
%TO.N,GND*%
X5730000Y66590000D03*
%TO.P,J3,5,Pin_5_5*%
%TO.N,+3V3*%
X8270000Y64050000D03*
%TO.P,J3,6,Pin_6_6*%
%TO.N,GND*%
X5730000Y64050000D03*
%TO.P,J3,7,Pin_7_7*%
%TO.N,unconnected-(J3-Pin_7-Pad7)*%
X8270000Y61510000D03*
%TO.P,J3,8,Pin_8_8*%
%TO.N,GND*%
X5730000Y61510000D03*
%TO.P,J3,9,Pin_9_9*%
%TO.N,unconnected-(J3-Pin_9-Pad9)*%
X8270000Y58970000D03*
%TO.P,J3,10,Pin_10_10*%
%TO.N,GND*%
X5730000Y58970000D03*
%TO.P,J3,11,Pin_11_11*%
%TO.N,unconnected-(J3-Pin_11-Pad11)*%
X8270000Y56430000D03*
%TO.P,J3,12,Pin_12_12*%
%TO.N,GND*%
X5730000Y56430000D03*
%TO.P,J3,13,Pin_13_13*%
%TO.N,unconnected-(J3-Pin_13-Pad13)*%
X8270000Y53890000D03*
%TO.P,J3,14,Pin_14_14*%
%TO.N,GND*%
X5730000Y53890000D03*
%TO.P,J3,15,Pin_15_15*%
%TO.N,/OPTO_IN1*%
X8270000Y51350000D03*
%TO.P,J3,16,Pin_16_16*%
%TO.N,GND*%
X5730000Y51350000D03*
%TO.P,J3,17,Pin_17_17*%
%TO.N,/OPTO_IN2*%
X8270000Y48810000D03*
%TO.P,J3,18,Pin_18_18*%
%TO.N,GND*%
X5730000Y48810000D03*
%TO.P,J3,19,Pin_19_19*%
%TO.N,unconnected-(J3-Pin_19-Pad19)*%
X8270000Y46270000D03*
%TO.P,J3,20,Pin_20_20*%
%TO.N,GND*%
X5730000Y46270000D03*
%TO.P,J3,21,Pin_21_21*%
%TO.N,unconnected-(J3-Pin_21-Pad21)*%
X8270000Y43730000D03*
%TO.P,J3,22,Pin_22_22*%
%TO.N,GND*%
X5730000Y43730000D03*
%TO.P,J3,23,Pin_23_23*%
%TO.N,/MOD1*%
X8270000Y41190000D03*
%TO.P,J3,24,Pin_24_24*%
%TO.N,GND*%
X5730000Y41190000D03*
%TO.P,J3,25,Pin_25_25*%
%TO.N,/MOD2*%
X8270000Y38650000D03*
%TO.P,J3,26,Pin_26_26*%
%TO.N,GND*%
X5730000Y38650000D03*
%TO.P,J3,27,Pin_27_27*%
%TO.N,/MOD3*%
X8270000Y36110000D03*
%TO.P,J3,28,Pin_28_28*%
%TO.N,GND*%
X5730000Y36110000D03*
%TO.P,J3,29,Pin_29_29*%
%TO.N,/MOD4*%
X8270000Y33570000D03*
%TO.P,J3,30,Pin_30_30*%
%TO.N,GND*%
X5730000Y33570000D03*
%TO.P,J3,31,Pin_31_31*%
%TO.N,/MOD5*%
X8270000Y31030000D03*
%TO.P,J3,32,Pin_32_32*%
%TO.N,GND*%
X5730000Y31030000D03*
%TO.P,J3,33,Pin_33_33*%
%TO.N,/MOD6*%
X8270000Y28490000D03*
%TO.P,J3,34,Pin_34_34*%
%TO.N,GND*%
X5730000Y28490000D03*
%TO.P,J3,35,Pin_35_35*%
%TO.N,/MOD7*%
X8270000Y25950000D03*
%TO.P,J3,36,Pin_36_36*%
%TO.N,GND*%
X5730000Y25950000D03*
%TO.P,J3,37,Pin_37_37*%
%TO.N,unconnected-(J3-Pin_37-Pad37)*%
X8270000Y23410000D03*
%TO.P,J3,38,Pin_38_38*%
%TO.N,GND*%
X5730000Y23410000D03*
%TO.P,J3,39,Pin_39_39*%
%TO.N,unconnected-(J3-Pin_39-Pad39)*%
X8270000Y20870000D03*
%TO.P,J3,40,Pin_40_40*%
%TO.N,GND*%
X5730000Y20870000D03*
%TD*%
D16*
%TO.N,GND*%
X37650000Y14700000D03*
X77750000Y14350000D03*
X29950000Y14650000D03*
X50300000Y14350000D03*
X73150000Y6500000D03*
X113700000Y13050000D03*
X31850000Y18900000D03*
X28050000Y18900000D03*
X29950000Y18900000D03*
X41300000Y9050000D03*
X113750000Y10100000D03*
X113650000Y7200000D03*
X34450000Y73950000D03*
X35650000Y19150000D03*
X37550000Y18900000D03*
X39400000Y18900000D03*
X118000000Y25050000D03*
X36050000Y10800000D03*
X26100000Y18750000D03*
X47550000Y1950000D03*
X33750000Y18900000D03*
X118050000Y19450000D03*
D17*
%TO.N,+5V_RAW*%
X75600000Y6300000D03*
%TO.N,+3V3*%
X124699999Y16650000D03*
X45600000Y9250000D03*
X52450000Y23650000D03*
%TD*%
%TO.N,+5V_RAW*%
D18*
X72800000Y21300000D02*
X75600000Y18500000D01*
X48400000Y14900000D02*
X54800000Y21300000D01*
X43100000Y-4050000D02*
X40100000Y-7050000D01*
X43100000Y31760000D02*
X43100000Y4850000D01*
X47700000Y4850000D02*
X50250000Y7400000D01*
X8270000Y66590000D02*
X43100000Y31760000D01*
X75600000Y18500000D02*
X75600000Y6300000D01*
X48400000Y13000000D02*
X48400000Y14900000D01*
X43100000Y4850000D02*
X43100000Y-4050000D01*
X43100000Y4850000D02*
X47700000Y4850000D01*
X8270000Y69130000D02*
X8270000Y66590000D01*
X50250000Y11150000D02*
X48400000Y13000000D01*
X40100000Y-7050000D02*
X40100000Y-9590000D01*
X54800000Y21300000D02*
X72800000Y21300000D01*
X50250000Y7400000D02*
X50250000Y11150000D01*
%TO.N,+3V3*%
X117450000Y16650000D02*
X124699999Y16650000D01*
X45600000Y9250000D02*
X45550000Y9300000D01*
X45550000Y9300000D02*
X45550000Y16750000D01*
X110450000Y23650000D02*
X117450000Y16650000D01*
X52450000Y23650000D02*
X110450000Y23650000D01*
X45550000Y16750000D02*
X52450000Y23650000D01*
%TO.N,/TX*%
D19*
X30075000Y77675000D02*
X30075000Y77985000D01*
%TD*%
%TA.AperFunction,Conductor*%
%TO.N,GND*%
G36*
X179658691Y84680593D02*
G01*
X179694655Y84631093D01*
X179699500Y84600500D01*
X179699500Y-14600500D01*
X179680593Y-14658691D01*
X179631093Y-14694655D01*
X179600500Y-14699500D01*
X99049002Y-14699500D01*
X98990811Y-14680593D01*
X98954847Y-14631093D01*
X98950002Y-14600500D01*
X98950002Y-10901579D01*
X131419500Y-10901579D01*
X131419500Y-11098420D01*
X131450289Y-11292821D01*
X131450291Y-11292826D01*
X131511116Y-11480025D01*
X131600476Y-11655405D01*
X131716172Y-11814646D01*
X131855354Y-11953828D01*
X132014595Y-12069524D01*
X132189975Y-12158884D01*
X132377174Y-12219709D01*
X132377175Y-12219709D01*
X132377178Y-12219710D01*
X132571580Y-12250500D01*
X132571583Y-12250500D01*
X132768420Y-12250500D01*
X132962821Y-12219710D01*
X132962822Y-12219709D01*
X132962826Y-12219709D01*
X133150025Y-12158884D01*
X133325405Y-12069524D01*
X133484646Y-11953828D01*
X133623828Y-11814646D01*
X133739524Y-11655405D01*
X133828884Y-11480025D01*
X133845845Y-11427823D01*
X133881809Y-11378324D01*
X133940000Y-11359417D01*
X133998191Y-11378324D01*
X134034154Y-11427823D01*
X134051116Y-11480025D01*
X134140476Y-11655405D01*
X134256172Y-11814646D01*
X134395354Y-11953828D01*
X134554595Y-12069524D01*
X134729975Y-12158884D01*
X134917174Y-12219709D01*
X134917175Y-12219709D01*
X134917178Y-12219710D01*
X135111580Y-12250500D01*
X135111583Y-12250500D01*
X135308420Y-12250500D01*
X135502821Y-12219710D01*
X135502822Y-12219709D01*
X135502826Y-12219709D01*
X135690025Y-12158884D01*
X135865405Y-12069524D01*
X136024646Y-11953828D01*
X136163828Y-11814646D01*
X136279524Y-11655405D01*
X136368884Y-11480025D01*
X136385845Y-11427823D01*
X136421809Y-11378324D01*
X136480000Y-11359417D01*
X136538191Y-11378324D01*
X136574154Y-11427823D01*
X136591116Y-11480025D01*
X136680476Y-11655405D01*
X136796172Y-11814646D01*
X136935354Y-11953828D01*
X137094595Y-12069524D01*
X137269975Y-12158884D01*
X137457174Y-12219709D01*
X137457175Y-12219709D01*
X137457178Y-12219710D01*
X137651580Y-12250500D01*
X137651583Y-12250500D01*
X137848420Y-12250500D01*
X138042821Y-12219710D01*
X138042822Y-12219709D01*
X138042826Y-12219709D01*
X138230025Y-12158884D01*
X138405405Y-12069524D01*
X138564646Y-11953828D01*
X138703828Y-11814646D01*
X138819524Y-11655405D01*
X138908884Y-11480025D01*
X138925845Y-11427823D01*
X138961809Y-11378324D01*
X139020000Y-11359417D01*
X139078191Y-11378324D01*
X139114154Y-11427823D01*
X139131116Y-11480025D01*
X139220476Y-11655405D01*
X139336172Y-11814646D01*
X139475354Y-11953828D01*
X139634595Y-12069524D01*
X139809975Y-12158884D01*
X139997174Y-12219709D01*
X139997175Y-12219709D01*
X139997178Y-12219710D01*
X140191580Y-12250500D01*
X140191583Y-12250500D01*
X140388420Y-12250500D01*
X140582821Y-12219710D01*
X140582822Y-12219709D01*
X140582826Y-12219709D01*
X140770025Y-12158884D01*
X140945405Y-12069524D01*
X141104646Y-11953828D01*
X141243828Y-11814646D01*
X141359524Y-11655405D01*
X141448884Y-11480025D01*
X141465845Y-11427823D01*
X141501809Y-11378324D01*
X141560000Y-11359417D01*
X141618191Y-11378324D01*
X141654154Y-11427823D01*
X141671116Y-11480025D01*
X141760476Y-11655405D01*
X141876172Y-11814646D01*
X142015354Y-11953828D01*
X142174595Y-12069524D01*
X142349975Y-12158884D01*
X142537174Y-12219709D01*
X142537175Y-12219709D01*
X142537178Y-12219710D01*
X142731580Y-12250500D01*
X142731583Y-12250500D01*
X142928420Y-12250500D01*
X143122821Y-12219710D01*
X143122822Y-12219709D01*
X143122826Y-12219709D01*
X143310025Y-12158884D01*
X143485405Y-12069524D01*
X143644646Y-11953828D01*
X143783828Y-11814646D01*
X143899524Y-11655405D01*
X143988884Y-11480025D01*
X144005845Y-11427823D01*
X144041809Y-11378324D01*
X144100000Y-11359417D01*
X144158191Y-11378324D01*
X144194154Y-11427823D01*
X144211116Y-11480025D01*
X144300476Y-11655405D01*
X144416172Y-11814646D01*
X144555354Y-11953828D01*
X144714595Y-12069524D01*
X144889975Y-12158884D01*
X145077174Y-12219709D01*
X145077175Y-12219709D01*
X145077178Y-12219710D01*
X145271580Y-12250500D01*
X145271583Y-12250500D01*
X145468420Y-12250500D01*
X145662821Y-12219710D01*
X145662822Y-12219709D01*
X145662826Y-12219709D01*
X145850025Y-12158884D01*
X146025405Y-12069524D01*
X146184646Y-11953828D01*
X146323828Y-11814646D01*
X146439524Y-11655405D01*
X146528884Y-11480025D01*
X146545845Y-11427823D01*
X146581809Y-11378324D01*
X146640000Y-11359417D01*
X146698191Y-11378324D01*
X146734154Y-11427823D01*
X146751116Y-11480025D01*
X146840476Y-11655405D01*
X146956172Y-11814646D01*
X147095354Y-11953828D01*
X147254595Y-12069524D01*
X147429975Y-12158884D01*
X147617174Y-12219709D01*
X147617175Y-12219709D01*
X147617178Y-12219710D01*
X147811580Y-12250500D01*
X147811583Y-12250500D01*
X148008420Y-12250500D01*
X148202821Y-12219710D01*
X148202822Y-12219709D01*
X148202826Y-12219709D01*
X148390025Y-12158884D01*
X148565405Y-12069524D01*
X148724646Y-11953828D01*
X148863828Y-11814646D01*
X148979524Y-11655405D01*
X149068884Y-11480025D01*
X149085845Y-11427823D01*
X149121809Y-11378324D01*
X149180000Y-11359417D01*
X149238191Y-11378324D01*
X149274154Y-11427823D01*
X149291116Y-11480025D01*
X149380476Y-11655405D01*
X149496172Y-11814646D01*
X149635354Y-11953828D01*
X149794595Y-12069524D01*
X149969975Y-12158884D01*
X150157174Y-12219709D01*
X150157175Y-12219709D01*
X150157178Y-12219710D01*
X150351580Y-12250500D01*
X150351583Y-12250500D01*
X150548420Y-12250500D01*
X150742821Y-12219710D01*
X150742822Y-12219709D01*
X150742826Y-12219709D01*
X150930025Y-12158884D01*
X151105405Y-12069524D01*
X151264646Y-11953828D01*
X151403828Y-11814646D01*
X151519524Y-11655405D01*
X151608884Y-11480025D01*
X151669709Y-11292826D01*
X151669710Y-11292821D01*
X151700500Y-11098420D01*
X151700500Y-10901582D01*
X151699336Y-10894232D01*
X151699336Y-10894230D01*
X151697397Y-10881987D01*
X174199500Y-10881987D01*
X174199500Y-11118012D01*
X174230306Y-11352006D01*
X174230306Y-11352011D01*
X174291393Y-11579992D01*
X174381713Y-11798044D01*
X174499729Y-12002453D01*
X174643402Y-12189692D01*
X174643404Y-12189694D01*
X174643408Y-12189699D01*
X174810301Y-12356592D01*
X174810305Y-12356595D01*
X174810307Y-12356597D01*
X174997546Y-12500270D01*
X174997550Y-12500273D01*
X175201951Y-12618284D01*
X175201952Y-12618284D01*
X175201955Y-12618286D01*
X175420007Y-12708606D01*
X175647986Y-12769693D01*
X175881989Y-12800500D01*
X175881990Y-12800500D01*
X176118010Y-12800500D01*
X176118011Y-12800500D01*
X176352014Y-12769693D01*
X176579993Y-12708606D01*
X176798049Y-12618284D01*
X177002450Y-12500273D01*
X177189699Y-12356592D01*
X177356592Y-12189699D01*
X177500273Y-12002450D01*
X177618284Y-11798049D01*
X177708606Y-11579993D01*
X177769693Y-11352014D01*
X177800500Y-11118011D01*
X177800500Y-10881989D01*
X177769693Y-10647986D01*
X177708606Y-10420007D01*
X177618284Y-10201951D01*
X177500273Y-9997550D01*
X177500270Y-9997546D01*
X177356597Y-9810307D01*
X177356595Y-9810305D01*
X177356592Y-9810301D01*
X177189699Y-9643408D01*
X177189694Y-9643404D01*
X177189692Y-9643402D01*
X177002453Y-9499729D01*
X176798044Y-9381713D01*
X176579992Y-9291393D01*
X176424277Y-9249670D01*
X176352014Y-9230307D01*
X176352011Y-9230306D01*
X176352009Y-9230306D01*
X176118012Y-9199500D01*
X176118011Y-9199500D01*
X175881989Y-9199500D01*
X175881987Y-9199500D01*
X175647993Y-9230306D01*
X175647988Y-9230306D01*
X175420007Y-9291393D01*
X175201955Y-9381713D01*
X174997546Y-9499729D01*
X174810307Y-9643402D01*
X174643402Y-9810307D01*
X174499729Y-9997546D01*
X174381713Y-10201955D01*
X174291393Y-10420007D01*
X174230306Y-10647988D01*
X174230306Y-10647993D01*
X174199500Y-10881987D01*
X151697397Y-10881987D01*
X151669710Y-10707178D01*
X151669709Y-10707174D01*
X151608884Y-10519975D01*
X151519524Y-10344595D01*
X151403828Y-10185354D01*
X151264646Y-10046172D01*
X151105405Y-9930476D01*
X151105404Y-9930475D01*
X151105402Y-9930474D01*
X150930025Y-9841116D01*
X150742821Y-9780289D01*
X150548420Y-9749500D01*
X150548417Y-9749500D01*
X150351583Y-9749500D01*
X150351580Y-9749500D01*
X150157178Y-9780289D01*
X149969974Y-9841116D01*
X149794597Y-9930474D01*
X149635355Y-10046171D01*
X149496171Y-10185355D01*
X149380474Y-10344597D01*
X149291114Y-10519978D01*
X149291112Y-10519981D01*
X149274154Y-10572175D01*
X149238190Y-10621675D01*
X149179999Y-10640582D01*
X149121809Y-10621674D01*
X149085846Y-10572175D01*
X149068887Y-10519981D01*
X149068885Y-10519978D01*
X149068884Y-10519977D01*
X149068884Y-10519975D01*
X148979524Y-10344595D01*
X148863828Y-10185354D01*
X148724646Y-10046172D01*
X148565405Y-9930476D01*
X148565404Y-9930475D01*
X148565402Y-9930474D01*
X148390025Y-9841116D01*
X148202821Y-9780289D01*
X148008420Y-9749500D01*
X148008417Y-9749500D01*
X147811583Y-9749500D01*
X147811580Y-9749500D01*
X147617178Y-9780289D01*
X147429974Y-9841116D01*
X147254597Y-9930474D01*
X147095355Y-10046171D01*
X146956171Y-10185355D01*
X146840474Y-10344597D01*
X146751114Y-10519978D01*
X146751112Y-10519981D01*
X146734154Y-10572175D01*
X146698190Y-10621675D01*
X146639999Y-10640582D01*
X146581809Y-10621674D01*
X146545846Y-10572175D01*
X146528887Y-10519981D01*
X146528885Y-10519978D01*
X146528884Y-10519977D01*
X146528884Y-10519975D01*
X146439524Y-10344595D01*
X146323828Y-10185354D01*
X146184646Y-10046172D01*
X146025405Y-9930476D01*
X146025404Y-9930475D01*
X146025402Y-9930474D01*
X145850025Y-9841116D01*
X145662821Y-9780289D01*
X145468420Y-9749500D01*
X145468417Y-9749500D01*
X145271583Y-9749500D01*
X145271580Y-9749500D01*
X145077178Y-9780289D01*
X144889974Y-9841116D01*
X144714597Y-9930474D01*
X144555355Y-10046171D01*
X144416171Y-10185355D01*
X144300474Y-10344597D01*
X144211114Y-10519978D01*
X144211112Y-10519981D01*
X144194154Y-10572175D01*
X144158190Y-10621675D01*
X144099999Y-10640582D01*
X144041809Y-10621674D01*
X144005846Y-10572175D01*
X143988887Y-10519981D01*
X143988885Y-10519978D01*
X143988884Y-10519977D01*
X143988884Y-10519975D01*
X143899524Y-10344595D01*
X143783828Y-10185354D01*
X143644646Y-10046172D01*
X143485405Y-9930476D01*
X143485404Y-9930475D01*
X143485402Y-9930474D01*
X143310025Y-9841116D01*
X143122821Y-9780289D01*
X142928420Y-9749500D01*
X142928417Y-9749500D01*
X142731583Y-9749500D01*
X142731580Y-9749500D01*
X142537178Y-9780289D01*
X142349974Y-9841116D01*
X142174597Y-9930474D01*
X142015355Y-10046171D01*
X141876171Y-10185355D01*
X141760474Y-10344597D01*
X141671114Y-10519978D01*
X141671112Y-10519981D01*
X141654154Y-10572175D01*
X141618190Y-10621675D01*
X141559999Y-10640582D01*
X141501809Y-10621674D01*
X141465846Y-10572175D01*
X141448887Y-10519981D01*
X141448885Y-10519978D01*
X141448884Y-10519977D01*
X141448884Y-10519975D01*
X141359524Y-10344595D01*
X141243828Y-10185354D01*
X141104646Y-10046172D01*
X140945405Y-9930476D01*
X140945404Y-9930475D01*
X140945402Y-9930474D01*
X140770025Y-9841116D01*
X140582821Y-9780289D01*
X140388420Y-9749500D01*
X140388417Y-9749500D01*
X140191583Y-9749500D01*
X140191580Y-9749500D01*
X139997178Y-9780289D01*
X139809974Y-9841116D01*
X139634597Y-9930474D01*
X139475355Y-10046171D01*
X139336171Y-10185355D01*
X139220474Y-10344597D01*
X139131114Y-10519978D01*
X139131112Y-10519981D01*
X139114154Y-10572175D01*
X139078190Y-10621675D01*
X139019999Y-10640582D01*
X138961809Y-10621674D01*
X138925846Y-10572175D01*
X138908887Y-10519981D01*
X138908885Y-10519978D01*
X138908884Y-10519977D01*
X138908884Y-10519975D01*
X138819524Y-10344595D01*
X138703828Y-10185354D01*
X138564646Y-10046172D01*
X138405405Y-9930476D01*
X138405404Y-9930475D01*
X138405402Y-9930474D01*
X138230025Y-9841116D01*
X138042821Y-9780289D01*
X137848420Y-9749500D01*
X137848417Y-9749500D01*
X137651583Y-9749500D01*
X137651580Y-9749500D01*
X137457178Y-9780289D01*
X137269974Y-9841116D01*
X137094597Y-9930474D01*
X136935355Y-10046171D01*
X136796171Y-10185355D01*
X136680474Y-10344597D01*
X136591114Y-10519978D01*
X136591112Y-10519981D01*
X136574154Y-10572175D01*
X136538190Y-10621675D01*
X136479999Y-10640582D01*
X136421809Y-10621674D01*
X136385846Y-10572175D01*
X136368887Y-10519981D01*
X136368885Y-10519978D01*
X136368884Y-10519977D01*
X136368884Y-10519975D01*
X136279524Y-10344595D01*
X136163828Y-10185354D01*
X136024646Y-10046172D01*
X135865405Y-9930476D01*
X135865404Y-9930475D01*
X135865402Y-9930474D01*
X135690025Y-9841116D01*
X135502821Y-9780289D01*
X135308420Y-9749500D01*
X135308417Y-9749500D01*
X135111583Y-9749500D01*
X135111580Y-9749500D01*
X134917178Y-9780289D01*
X134729974Y-9841116D01*
X134554597Y-9930474D01*
X134395355Y-10046171D01*
X134256171Y-10185355D01*
X134140474Y-10344597D01*
X134051114Y-10519978D01*
X134051112Y-10519981D01*
X134034154Y-10572175D01*
X133998190Y-10621675D01*
X133939999Y-10640582D01*
X133881809Y-10621674D01*
X133845846Y-10572175D01*
X133828887Y-10519981D01*
X133828885Y-10519978D01*
X133828884Y-10519977D01*
X133828884Y-10519975D01*
X133739524Y-10344595D01*
X133623828Y-10185354D01*
X133484646Y-10046172D01*
X133325405Y-9930476D01*
X133325404Y-9930475D01*
X133325402Y-9930474D01*
X133150025Y-9841116D01*
X132962821Y-9780289D01*
X132768420Y-9749500D01*
X132768417Y-9749500D01*
X132571583Y-9749500D01*
X132571580Y-9749500D01*
X132377178Y-9780289D01*
X132189974Y-9841116D01*
X132014597Y-9930474D01*
X131855355Y-10046171D01*
X131716171Y-10185355D01*
X131600474Y-10344597D01*
X131511116Y-10519974D01*
X131450289Y-10707178D01*
X131419500Y-10901579D01*
X98950002Y-10901579D01*
X98950002Y-9235839D01*
X106899500Y-9235839D01*
X106899500Y-9464160D01*
X106935214Y-9689655D01*
X107005769Y-9906799D01*
X107109420Y-10110227D01*
X107109424Y-10110233D01*
X107243616Y-10294931D01*
X107243618Y-10294933D01*
X107243621Y-10294937D01*
X107405063Y-10456379D01*
X107405066Y-10456381D01*
X107405068Y-10456383D01*
X107564441Y-10572175D01*
X107589772Y-10590579D01*
X107793201Y-10694231D01*
X108010340Y-10764784D01*
X108010341Y-10764784D01*
X108010344Y-10764785D01*
X108235840Y-10800500D01*
X108235843Y-10800500D01*
X108464161Y-10800500D01*
X108467872Y-10799912D01*
X108467873Y-10799912D01*
X108689655Y-10764785D01*
X108689656Y-10764784D01*
X108689660Y-10764784D01*
X108906799Y-10694231D01*
X109110228Y-10590579D01*
X109294937Y-10456379D01*
X109456379Y-10294937D01*
X109590579Y-10110228D01*
X109694231Y-9906799D01*
X109764784Y-9689660D01*
X109782463Y-9578041D01*
X109800500Y-9464160D01*
X109800500Y-9235839D01*
X109764785Y-9010344D01*
X109720183Y-8873073D01*
X109694231Y-8793201D01*
X109590579Y-8589772D01*
X109456379Y-8405063D01*
X109294937Y-8243621D01*
X109294933Y-8243618D01*
X109294931Y-8243616D01*
X109110233Y-8109424D01*
X109110227Y-8109420D01*
X108906799Y-8005769D01*
X108689655Y-7935214D01*
X108464160Y-7899500D01*
X108464157Y-7899500D01*
X108235843Y-7899500D01*
X108235840Y-7899500D01*
X108010344Y-7935214D01*
X107793200Y-8005769D01*
X107589772Y-8109420D01*
X107589766Y-8109424D01*
X107405068Y-8243616D01*
X107243616Y-8405068D01*
X107109424Y-8589766D01*
X107109420Y-8589772D01*
X107005769Y-8793200D01*
X106935214Y-9010344D01*
X106899500Y-9235839D01*
X98950002Y-9235839D01*
X98950002Y-9231953D01*
X98950001Y-39774D01*
X137649500Y-39774D01*
X137649500Y-260225D01*
X137683984Y-477948D01*
X137752102Y-687599D01*
X137752104Y-687602D01*
X137752105Y-687606D01*
X137768305Y-719399D01*
X137847754Y-875327D01*
X137852185Y-884022D01*
X137981758Y-1062365D01*
X138137635Y-1218242D01*
X138315978Y-1347815D01*
X138512394Y-1447895D01*
X138722049Y-1516015D01*
X138809140Y-1529809D01*
X138939775Y-1550500D01*
X138939778Y-1550500D01*
X139160225Y-1550500D01*
X139269086Y-1533257D01*
X139377951Y-1516015D01*
X139587606Y-1447895D01*
X139784022Y-1347815D01*
X139962365Y-1218242D01*
X140118242Y-1062365D01*
X140247815Y-884022D01*
X140347895Y-687606D01*
X140416015Y-477951D01*
X140450500Y-260222D01*
X140450500Y-39778D01*
X140450500Y-39774D01*
X161649500Y-39774D01*
X161649500Y-260225D01*
X161683984Y-477948D01*
X161752102Y-687599D01*
X161752104Y-687602D01*
X161752105Y-687606D01*
X161768305Y-719399D01*
X161847754Y-875327D01*
X161852185Y-884022D01*
X161981758Y-1062365D01*
X162137635Y-1218242D01*
X162315978Y-1347815D01*
X162512394Y-1447895D01*
X162722049Y-1516015D01*
X162809140Y-1529809D01*
X162939775Y-1550500D01*
X162939778Y-1550500D01*
X163160225Y-1550500D01*
X163269086Y-1533257D01*
X163377951Y-1516015D01*
X163587606Y-1447895D01*
X163784022Y-1347815D01*
X163962365Y-1218242D01*
X164118242Y-1062365D01*
X164247815Y-884022D01*
X164252245Y-875327D01*
X172629500Y-875327D01*
X172629500Y-2624672D01*
X172629501Y-2624684D01*
X172644033Y-2697736D01*
X172644035Y-2697742D01*
X172699397Y-2780599D01*
X172699399Y-2780601D01*
X172782260Y-2835966D01*
X172837808Y-2847015D01*
X172855315Y-2850498D01*
X172855320Y-2850498D01*
X172855326Y-2850500D01*
X172855327Y-2850500D01*
X174604673Y-2850500D01*
X174604674Y-2850500D01*
X174677740Y-2835966D01*
X174760601Y-2780601D01*
X174815966Y-2697740D01*
X174830500Y-2624674D01*
X174830500Y-875326D01*
X174815966Y-802260D01*
X174760601Y-719399D01*
X174760599Y-719397D01*
X174677742Y-664035D01*
X174677740Y-664034D01*
X174677737Y-664033D01*
X174677736Y-664033D01*
X174604684Y-649501D01*
X174604674Y-649500D01*
X172855326Y-649500D01*
X172855325Y-649500D01*
X172855315Y-649501D01*
X172782263Y-664033D01*
X172782257Y-664035D01*
X172699400Y-719397D01*
X172699397Y-719400D01*
X172644035Y-802257D01*
X172644033Y-802263D01*
X172629501Y-875315D01*
X172629500Y-875327D01*
X164252245Y-875327D01*
X164347895Y-687606D01*
X164416015Y-477951D01*
X164450500Y-260222D01*
X164450500Y-39778D01*
X164450500Y-39774D01*
X164416015Y177949D01*
X164416015Y177951D01*
X164347895Y387606D01*
X164247815Y584022D01*
X164118242Y762365D01*
X164003992Y876615D01*
X172629500Y876615D01*
X172629500Y703386D01*
X172656597Y532298D01*
X172656598Y532294D01*
X172710123Y367562D01*
X172710125Y367559D01*
X172710126Y367556D01*
X172710127Y367555D01*
X172788768Y213212D01*
X172890586Y73072D01*
X173013072Y-49414D01*
X173153212Y-151232D01*
X173307555Y-229873D01*
X173307557Y-229873D01*
X173307558Y-229874D01*
X173307561Y-229876D01*
X173472293Y-283401D01*
X173472297Y-283402D01*
X173643386Y-310500D01*
X173643389Y-310500D01*
X173816614Y-310500D01*
X173987702Y-283402D01*
X173987706Y-283401D01*
X174152438Y-229876D01*
X174152440Y-229874D01*
X174152445Y-229873D01*
X174306788Y-151232D01*
X174446928Y-49414D01*
X174569414Y73072D01*
X174671232Y213212D01*
X174749873Y367555D01*
X174749874Y367560D01*
X174749876Y367562D01*
X174803401Y532294D01*
X174803402Y532298D01*
X174830500Y703386D01*
X174830500Y876615D01*
X174803402Y1047703D01*
X174803401Y1047707D01*
X174749876Y1212439D01*
X174749874Y1212442D01*
X174749873Y1212443D01*
X174749873Y1212445D01*
X174671232Y1366788D01*
X174569414Y1506928D01*
X174446928Y1629414D01*
X174306788Y1731232D01*
X174306787Y1731233D01*
X174306785Y1731234D01*
X174152441Y1809875D01*
X174152438Y1809877D01*
X173987706Y1863402D01*
X173987702Y1863403D01*
X173816614Y1890500D01*
X173816611Y1890500D01*
X173643389Y1890500D01*
X173643386Y1890500D01*
X173472297Y1863403D01*
X173472293Y1863402D01*
X173307561Y1809877D01*
X173307558Y1809875D01*
X173153214Y1731234D01*
X173013073Y1629415D01*
X172890585Y1506927D01*
X172788766Y1366786D01*
X172710125Y1212442D01*
X172710123Y1212439D01*
X172656598Y1047707D01*
X172656597Y1047703D01*
X172629500Y876615D01*
X164003992Y876615D01*
X163962365Y918242D01*
X163784022Y1047815D01*
X163784021Y1047816D01*
X163784019Y1047817D01*
X163694825Y1093264D01*
X163587606Y1147895D01*
X163587602Y1147896D01*
X163587599Y1147898D01*
X163377948Y1216016D01*
X163160225Y1250500D01*
X163160222Y1250500D01*
X162939778Y1250500D01*
X162939775Y1250500D01*
X162722051Y1216016D01*
X162512400Y1147898D01*
X162315980Y1047817D01*
X162226806Y983029D01*
X162137635Y918242D01*
X161981758Y762365D01*
X161938910Y703389D01*
X161852183Y584020D01*
X161752102Y387600D01*
X161683984Y177949D01*
X161649500Y-39774D01*
X140450500Y-39774D01*
X140416015Y177949D01*
X140416015Y177951D01*
X140347895Y387606D01*
X140247815Y584022D01*
X140118242Y762365D01*
X139962365Y918242D01*
X139784022Y1047815D01*
X139784021Y1047816D01*
X139784019Y1047817D01*
X139694825Y1093264D01*
X139587606Y1147895D01*
X139587602Y1147896D01*
X139587599Y1147898D01*
X139377948Y1216016D01*
X139160225Y1250500D01*
X139160222Y1250500D01*
X138939778Y1250500D01*
X138939775Y1250500D01*
X138722051Y1216016D01*
X138512400Y1147898D01*
X138315980Y1047817D01*
X138226806Y983029D01*
X138137635Y918242D01*
X137981758Y762365D01*
X137938910Y703389D01*
X137852183Y584020D01*
X137752102Y387600D01*
X137683984Y177949D01*
X137649500Y-39774D01*
X98950001Y-39774D01*
X98950001Y-35888D01*
X98950001Y1629415D01*
X98950001Y3416615D01*
X172629500Y3416615D01*
X172629500Y3243386D01*
X172656597Y3072298D01*
X172656598Y3072294D01*
X172710123Y2907562D01*
X172710125Y2907559D01*
X172710126Y2907556D01*
X172710127Y2907555D01*
X172788768Y2753212D01*
X172890586Y2613072D01*
X173013072Y2490586D01*
X173153212Y2388768D01*
X173307555Y2310127D01*
X173307557Y2310127D01*
X173307558Y2310126D01*
X173307561Y2310124D01*
X173472293Y2256599D01*
X173472297Y2256598D01*
X173643386Y2229500D01*
X173643389Y2229500D01*
X173816614Y2229500D01*
X173987702Y2256598D01*
X173987706Y2256599D01*
X174152438Y2310124D01*
X174152440Y2310126D01*
X174152445Y2310127D01*
X174306788Y2388768D01*
X174446928Y2490586D01*
X174569414Y2613072D01*
X174671232Y2753212D01*
X174749873Y2907555D01*
X174749874Y2907560D01*
X174749876Y2907562D01*
X174803401Y3072294D01*
X174803402Y3072298D01*
X174830500Y3243386D01*
X174830500Y3416615D01*
X174803402Y3587703D01*
X174803401Y3587707D01*
X174749876Y3752439D01*
X174749874Y3752442D01*
X174749873Y3752443D01*
X174749873Y3752445D01*
X174671232Y3906788D01*
X174569414Y4046928D01*
X174446928Y4169414D01*
X174306788Y4271232D01*
X174306787Y4271233D01*
X174306785Y4271234D01*
X174152441Y4349875D01*
X174152438Y4349877D01*
X173987706Y4403402D01*
X173987702Y4403403D01*
X173816614Y4430500D01*
X173816611Y4430500D01*
X173643389Y4430500D01*
X173643386Y4430500D01*
X173472297Y4403403D01*
X173472293Y4403402D01*
X173307561Y4349877D01*
X173307558Y4349875D01*
X173153214Y4271234D01*
X173013073Y4169415D01*
X172890585Y4046927D01*
X172788766Y3906786D01*
X172710125Y3752442D01*
X172710123Y3752439D01*
X172656598Y3587707D01*
X172656597Y3587703D01*
X172629500Y3416615D01*
X98950001Y3416615D01*
X98950000Y5956615D01*
X172629500Y5956615D01*
X172629500Y5783386D01*
X172656597Y5612298D01*
X172656598Y5612294D01*
X172710123Y5447562D01*
X172710125Y5447559D01*
X172710126Y5447556D01*
X172710127Y5447555D01*
X172788768Y5293212D01*
X172890586Y5153072D01*
X173013072Y5030586D01*
X173153212Y4928768D01*
X173307555Y4850127D01*
X173307557Y4850127D01*
X173307558Y4850126D01*
X173307561Y4850124D01*
X173472293Y4796599D01*
X173472297Y4796598D01*
X173643386Y4769500D01*
X173643389Y4769500D01*
X173816614Y4769500D01*
X173987702Y4796598D01*
X173987706Y4796599D01*
X174152438Y4850124D01*
X174152440Y4850126D01*
X174152445Y4850127D01*
X174306788Y4928768D01*
X174446928Y5030586D01*
X174569414Y5153072D01*
X174671232Y5293212D01*
X174749873Y5447555D01*
X174749874Y5447560D01*
X174749876Y5447562D01*
X174803401Y5612294D01*
X174803402Y5612298D01*
X174830500Y5783386D01*
X174830500Y5956615D01*
X174803402Y6127703D01*
X174803401Y6127707D01*
X174749876Y6292439D01*
X174749874Y6292442D01*
X174749873Y6292443D01*
X174749873Y6292445D01*
X174671232Y6446788D01*
X174569414Y6586928D01*
X174446928Y6709414D01*
X174306788Y6811232D01*
X174306787Y6811233D01*
X174306785Y6811234D01*
X174152441Y6889875D01*
X174152438Y6889877D01*
X173987706Y6943402D01*
X173987702Y6943403D01*
X173816614Y6970500D01*
X173816611Y6970500D01*
X173643389Y6970500D01*
X173643386Y6970500D01*
X173472297Y6943403D01*
X173472293Y6943402D01*
X173307561Y6889877D01*
X173307558Y6889875D01*
X173153214Y6811234D01*
X173013073Y6709415D01*
X172890585Y6586927D01*
X172788766Y6446786D01*
X172710125Y6292442D01*
X172710123Y6292439D01*
X172656598Y6127707D01*
X172656597Y6127703D01*
X172629500Y5956615D01*
X98950000Y5956615D01*
X98950000Y8496615D01*
X172629500Y8496615D01*
X172629500Y8323386D01*
X172656597Y8152298D01*
X172656598Y8152294D01*
X172710123Y7987562D01*
X172710125Y7987559D01*
X172710126Y7987556D01*
X172710127Y7987555D01*
X172788768Y7833212D01*
X172890586Y7693072D01*
X173013072Y7570586D01*
X173153212Y7468768D01*
X173307555Y7390127D01*
X173307557Y7390127D01*
X173307558Y7390126D01*
X173307561Y7390124D01*
X173472293Y7336599D01*
X173472297Y7336598D01*
X173643386Y7309500D01*
X173643389Y7309500D01*
X173816614Y7309500D01*
X173987702Y7336598D01*
X173987706Y7336599D01*
X174152438Y7390124D01*
X174152440Y7390126D01*
X174152445Y7390127D01*
X174306788Y7468768D01*
X174446928Y7570586D01*
X174569414Y7693072D01*
X174671232Y7833212D01*
X174749873Y7987555D01*
X174749874Y7987560D01*
X174749876Y7987562D01*
X174803401Y8152294D01*
X174803402Y8152298D01*
X174830500Y8323386D01*
X174830500Y8496615D01*
X174803402Y8667703D01*
X174803401Y8667707D01*
X174749876Y8832439D01*
X174749874Y8832442D01*
X174749873Y8832443D01*
X174749873Y8832445D01*
X174671232Y8986788D01*
X174569414Y9126928D01*
X174446928Y9249414D01*
X174306788Y9351232D01*
X174306787Y9351233D01*
X174306785Y9351234D01*
X174152441Y9429875D01*
X174152438Y9429877D01*
X173987706Y9483402D01*
X173987702Y9483403D01*
X173816614Y9510500D01*
X173816611Y9510500D01*
X173643389Y9510500D01*
X173643386Y9510500D01*
X173472297Y9483403D01*
X173472293Y9483402D01*
X173307561Y9429877D01*
X173307558Y9429875D01*
X173153214Y9351234D01*
X173013073Y9249415D01*
X172890585Y9126927D01*
X172788766Y8986786D01*
X172710125Y8832442D01*
X172710123Y8832439D01*
X172656598Y8667707D01*
X172656597Y8667703D01*
X172629500Y8496615D01*
X98950000Y8496615D01*
X98950000Y11036615D01*
X172629500Y11036615D01*
X172629500Y10863386D01*
X172656597Y10692298D01*
X172656598Y10692294D01*
X172710123Y10527562D01*
X172710125Y10527559D01*
X172710126Y10527556D01*
X172710127Y10527555D01*
X172788768Y10373212D01*
X172890586Y10233072D01*
X173013072Y10110586D01*
X173153212Y10008768D01*
X173307555Y9930127D01*
X173307557Y9930127D01*
X173307558Y9930126D01*
X173307561Y9930124D01*
X173472293Y9876599D01*
X173472297Y9876598D01*
X173643386Y9849500D01*
X173643389Y9849500D01*
X173816614Y9849500D01*
X173987702Y9876598D01*
X173987706Y9876599D01*
X174152438Y9930124D01*
X174152440Y9930126D01*
X174152445Y9930127D01*
X174306788Y10008768D01*
X174446928Y10110586D01*
X174569414Y10233072D01*
X174671232Y10373212D01*
X174749873Y10527555D01*
X174749874Y10527560D01*
X174749876Y10527562D01*
X174803401Y10692294D01*
X174803402Y10692298D01*
X174830500Y10863386D01*
X174830500Y11036615D01*
X174803402Y11207703D01*
X174803401Y11207707D01*
X174749876Y11372439D01*
X174749874Y11372442D01*
X174749873Y11372443D01*
X174749873Y11372445D01*
X174671232Y11526788D01*
X174569414Y11666928D01*
X174446928Y11789414D01*
X174306788Y11891232D01*
X174306787Y11891233D01*
X174306785Y11891234D01*
X174152441Y11969875D01*
X174152438Y11969877D01*
X173987706Y12023402D01*
X173987702Y12023403D01*
X173816614Y12050500D01*
X173816611Y12050500D01*
X173643389Y12050500D01*
X173643386Y12050500D01*
X173472297Y12023403D01*
X173472293Y12023402D01*
X173307561Y11969877D01*
X173307558Y11969875D01*
X173153214Y11891234D01*
X173013073Y11789415D01*
X172890585Y11666927D01*
X172788766Y11526786D01*
X172710125Y11372442D01*
X172710123Y11372439D01*
X172656598Y11207707D01*
X172656597Y11207703D01*
X172629500Y11036615D01*
X98950000Y11036615D01*
X98950000Y13576615D01*
X172629500Y13576615D01*
X172629500Y13403386D01*
X172656597Y13232298D01*
X172656598Y13232294D01*
X172710123Y13067562D01*
X172710125Y13067559D01*
X172710126Y13067556D01*
X172710127Y13067555D01*
X172788768Y12913212D01*
X172890586Y12773072D01*
X173013072Y12650586D01*
X173153212Y12548768D01*
X173307555Y12470127D01*
X173307557Y12470127D01*
X173307558Y12470126D01*
X173307561Y12470124D01*
X173472293Y12416599D01*
X173472297Y12416598D01*
X173643386Y12389500D01*
X173643389Y12389500D01*
X173816614Y12389500D01*
X173987702Y12416598D01*
X173987706Y12416599D01*
X174152438Y12470124D01*
X174152440Y12470126D01*
X174152445Y12470127D01*
X174306788Y12548768D01*
X174446928Y12650586D01*
X174569414Y12773072D01*
X174671232Y12913212D01*
X174749873Y13067555D01*
X174749874Y13067560D01*
X174749876Y13067562D01*
X174803401Y13232294D01*
X174803402Y13232298D01*
X174830500Y13403386D01*
X174830500Y13576615D01*
X174803402Y13747703D01*
X174803401Y13747707D01*
X174749876Y13912439D01*
X174749874Y13912442D01*
X174749873Y13912443D01*
X174749873Y13912445D01*
X174671232Y14066788D01*
X174569414Y14206928D01*
X174446928Y14329414D01*
X174306788Y14431232D01*
X174306787Y14431233D01*
X174306785Y14431234D01*
X174152441Y14509875D01*
X174152438Y14509877D01*
X173987706Y14563402D01*
X173987702Y14563403D01*
X173816614Y14590500D01*
X173816611Y14590500D01*
X173643389Y14590500D01*
X173643386Y14590500D01*
X173472297Y14563403D01*
X173472293Y14563402D01*
X173307561Y14509877D01*
X173307558Y14509875D01*
X173153214Y14431234D01*
X173013073Y14329415D01*
X172890585Y14206927D01*
X172788766Y14066786D01*
X172710125Y13912442D01*
X172710123Y13912439D01*
X172656598Y13747707D01*
X172656597Y13747703D01*
X172629500Y13576615D01*
X98950000Y13576615D01*
X98950000Y17320001D01*
X98949999Y17320001D01*
X79800001Y17320001D01*
X79800000Y17319999D01*
X79800000Y-14600500D01*
X79781093Y-14658691D01*
X79731593Y-14694655D01*
X79701000Y-14699500D01*
X71249002Y-14699500D01*
X71190811Y-14680593D01*
X71154847Y-14631093D01*
X71150002Y-14600500D01*
X71150000Y18049999D01*
X71150000Y18050000D01*
X71149999Y18050000D01*
X52850374Y18050000D01*
X52792183Y18068907D01*
X52756219Y18118407D01*
X52756219Y18179593D01*
X52780368Y18219002D01*
X55081872Y20520504D01*
X55136389Y20548281D01*
X55151876Y20549500D01*
X72448124Y20549500D01*
X72506315Y20530593D01*
X72518128Y20520504D01*
X74820504Y18218128D01*
X74848281Y18163611D01*
X74849500Y18148124D01*
X74849500Y6226082D01*
X74878342Y6081086D01*
X74934915Y5944507D01*
X74934916Y5944505D01*
X75017049Y5821584D01*
X75121584Y5717049D01*
X75244505Y5634916D01*
X75381087Y5578342D01*
X75526082Y5549500D01*
X75526083Y5549500D01*
X75673917Y5549500D01*
X75673918Y5549500D01*
X75818913Y5578342D01*
X75955495Y5634916D01*
X76078416Y5717049D01*
X76182951Y5821584D01*
X76265084Y5944505D01*
X76321658Y6081087D01*
X76350500Y6226082D01*
X76350500Y18573918D01*
X76321658Y18718913D01*
X76265084Y18855495D01*
X76218312Y18925495D01*
X76182952Y18978416D01*
X73278416Y21882952D01*
X73187944Y21943402D01*
X73155495Y21965084D01*
X73155492Y21965086D01*
X73155491Y21965086D01*
X73018914Y22021658D01*
X72873918Y22050500D01*
X54726082Y22050500D01*
X54726081Y22050500D01*
X54581085Y22021658D01*
X54444508Y21965086D01*
X54412056Y21943402D01*
X54321587Y21882955D01*
X47817048Y15378416D01*
X47817044Y15378411D01*
X47773389Y15313074D01*
X47773388Y15313072D01*
X47734914Y15255494D01*
X47734914Y15255493D01*
X47678342Y15118915D01*
X47649500Y14973919D01*
X47649500Y12926082D01*
X47678342Y12781086D01*
X47734914Y12644508D01*
X47767813Y12595271D01*
X47798884Y12548768D01*
X47817048Y12521584D01*
X48671705Y11666928D01*
X49470504Y10868129D01*
X49498281Y10813612D01*
X49499500Y10798125D01*
X49499500Y7751876D01*
X49480593Y7693685D01*
X49470504Y7681872D01*
X47418128Y5629496D01*
X47363611Y5601719D01*
X47348124Y5600500D01*
X43949500Y5600500D01*
X43891309Y5619407D01*
X43855345Y5668907D01*
X43850500Y5699500D01*
X43850500Y16823919D01*
X44799500Y16823919D01*
X44799500Y9226082D01*
X44828342Y9081086D01*
X44884914Y8944510D01*
X44884917Y8944502D01*
X44886665Y8941888D01*
X44886670Y8941870D01*
X44886675Y8941873D01*
X44967047Y8821585D01*
X44967052Y8821579D01*
X45017044Y8771588D01*
X45121585Y8667048D01*
X45244506Y8584916D01*
X45381088Y8528341D01*
X45526083Y8499500D01*
X45526084Y8499500D01*
X45673917Y8499500D01*
X45673918Y8499500D01*
X45818913Y8528341D01*
X45955495Y8584916D01*
X46078416Y8667048D01*
X46182952Y8771584D01*
X46265084Y8894505D01*
X46321659Y9031087D01*
X46350500Y9176082D01*
X46350500Y9323917D01*
X46321659Y9468912D01*
X46308034Y9501804D01*
X46300500Y9539687D01*
X46300500Y16398125D01*
X46319407Y16456316D01*
X46329496Y16468129D01*
X52731871Y22870504D01*
X52786388Y22898281D01*
X52801875Y22899500D01*
X110098124Y22899500D01*
X110156315Y22880593D01*
X110168128Y22870504D01*
X116971584Y16067048D01*
X117029513Y16028342D01*
X117094505Y15984916D01*
X117231087Y15928342D01*
X117376082Y15899500D01*
X117376083Y15899500D01*
X124773916Y15899500D01*
X124773917Y15899500D01*
X124918912Y15928342D01*
X125055494Y15984916D01*
X125178415Y16067049D01*
X125227981Y16116615D01*
X172629500Y16116615D01*
X172629500Y15943386D01*
X172656597Y15772298D01*
X172656598Y15772294D01*
X172710123Y15607562D01*
X172710125Y15607559D01*
X172710126Y15607556D01*
X172710127Y15607555D01*
X172788768Y15453212D01*
X172890586Y15313072D01*
X173013072Y15190586D01*
X173153212Y15088768D01*
X173307555Y15010127D01*
X173307557Y15010127D01*
X173307558Y15010126D01*
X173307561Y15010124D01*
X173472293Y14956599D01*
X173472297Y14956598D01*
X173643386Y14929500D01*
X173643389Y14929500D01*
X173816614Y14929500D01*
X173987702Y14956598D01*
X173987706Y14956599D01*
X174152438Y15010124D01*
X174152440Y15010126D01*
X174152445Y15010127D01*
X174306788Y15088768D01*
X174446928Y15190586D01*
X174569414Y15313072D01*
X174671232Y15453212D01*
X174749873Y15607555D01*
X174749874Y15607560D01*
X174749876Y15607562D01*
X174803401Y15772294D01*
X174803402Y15772298D01*
X174830500Y15943386D01*
X174830500Y16116615D01*
X174803402Y16287703D01*
X174803401Y16287707D01*
X174749876Y16452439D01*
X174749874Y16452442D01*
X174749873Y16452443D01*
X174749873Y16452445D01*
X174671232Y16606788D01*
X174569414Y16746928D01*
X174446928Y16869414D01*
X174306788Y16971232D01*
X174306787Y16971233D01*
X174306785Y16971234D01*
X174152441Y17049875D01*
X174152438Y17049877D01*
X173987706Y17103402D01*
X173987702Y17103403D01*
X173816614Y17130500D01*
X173816611Y17130500D01*
X173643389Y17130500D01*
X173643386Y17130500D01*
X173472297Y17103403D01*
X173472293Y17103402D01*
X173307561Y17049877D01*
X173307558Y17049875D01*
X173153214Y16971234D01*
X173013073Y16869415D01*
X172890585Y16746927D01*
X172788766Y16606786D01*
X172710125Y16452442D01*
X172710123Y16452439D01*
X172656598Y16287707D01*
X172656597Y16287703D01*
X172629500Y16116615D01*
X125227981Y16116615D01*
X125282950Y16171584D01*
X125365083Y16294505D01*
X125421657Y16431087D01*
X125450499Y16576082D01*
X125450499Y16723918D01*
X125421657Y16868913D01*
X125365083Y17005495D01*
X125282950Y17128416D01*
X125178415Y17232951D01*
X125055494Y17315084D01*
X125055492Y17315085D01*
X124918913Y17371658D01*
X124773917Y17400500D01*
X117801876Y17400500D01*
X117743685Y17419407D01*
X117731872Y17429496D01*
X116570871Y18590497D01*
X116504753Y18656615D01*
X172629500Y18656615D01*
X172629500Y18483386D01*
X172656597Y18312298D01*
X172656598Y18312294D01*
X172710123Y18147562D01*
X172710125Y18147559D01*
X172724978Y18118407D01*
X172788768Y17993212D01*
X172890586Y17853072D01*
X173013072Y17730586D01*
X173153212Y17628768D01*
X173307555Y17550127D01*
X173307557Y17550127D01*
X173307558Y17550126D01*
X173307561Y17550124D01*
X173472293Y17496599D01*
X173472297Y17496598D01*
X173643386Y17469500D01*
X173643389Y17469500D01*
X173816614Y17469500D01*
X173987702Y17496598D01*
X173987706Y17496599D01*
X174152438Y17550124D01*
X174152440Y17550126D01*
X174152445Y17550127D01*
X174306788Y17628768D01*
X174446928Y17730586D01*
X174569414Y17853072D01*
X174671232Y17993212D01*
X174749873Y18147555D01*
X174749874Y18147560D01*
X174749876Y18147562D01*
X174803401Y18312294D01*
X174803402Y18312298D01*
X174830500Y18483386D01*
X174830500Y18656615D01*
X174803402Y18827703D01*
X174803401Y18827707D01*
X174749876Y18992439D01*
X174749874Y18992442D01*
X174749873Y18992443D01*
X174749873Y18992445D01*
X174671232Y19146788D01*
X174569414Y19286928D01*
X174446928Y19409414D01*
X174306788Y19511232D01*
X174306787Y19511233D01*
X174306785Y19511234D01*
X174152441Y19589875D01*
X174152438Y19589877D01*
X173987706Y19643402D01*
X173987702Y19643403D01*
X173816614Y19670500D01*
X173816611Y19670500D01*
X173643389Y19670500D01*
X173643386Y19670500D01*
X173472297Y19643403D01*
X173472293Y19643402D01*
X173307561Y19589877D01*
X173307558Y19589875D01*
X173153214Y19511234D01*
X173013073Y19409415D01*
X172890585Y19286927D01*
X172788766Y19146786D01*
X172710125Y18992442D01*
X172710123Y18992439D01*
X172656598Y18827707D01*
X172656597Y18827703D01*
X172629500Y18656615D01*
X116504753Y18656615D01*
X115311241Y19850127D01*
X113964753Y21196615D01*
X172629500Y21196615D01*
X172629500Y21023386D01*
X172656597Y20852298D01*
X172656598Y20852294D01*
X172710123Y20687562D01*
X172710125Y20687559D01*
X172748471Y20612299D01*
X172788768Y20533212D01*
X172890586Y20393072D01*
X173013072Y20270586D01*
X173153212Y20168768D01*
X173307555Y20090127D01*
X173307557Y20090127D01*
X173307558Y20090126D01*
X173307561Y20090124D01*
X173472293Y20036599D01*
X173472297Y20036598D01*
X173643386Y20009500D01*
X173643389Y20009500D01*
X173816614Y20009500D01*
X173987702Y20036598D01*
X173987706Y20036599D01*
X174152438Y20090124D01*
X174152440Y20090126D01*
X174152445Y20090127D01*
X174306788Y20168768D01*
X174446928Y20270586D01*
X174569414Y20393072D01*
X174671232Y20533212D01*
X174749873Y20687555D01*
X174749874Y20687560D01*
X174749876Y20687562D01*
X174803401Y20852294D01*
X174803402Y20852298D01*
X174830500Y21023386D01*
X174830500Y21196615D01*
X174803402Y21367703D01*
X174803401Y21367707D01*
X174749876Y21532439D01*
X174749874Y21532442D01*
X174749873Y21532443D01*
X174749873Y21532445D01*
X174671232Y21686788D01*
X174569414Y21826928D01*
X174446928Y21949414D01*
X174306788Y22051232D01*
X174306787Y22051233D01*
X174306785Y22051234D01*
X174152441Y22129875D01*
X174152438Y22129877D01*
X173987706Y22183402D01*
X173987702Y22183403D01*
X173816614Y22210500D01*
X173816611Y22210500D01*
X173643389Y22210500D01*
X173643386Y22210500D01*
X173472297Y22183403D01*
X173472293Y22183402D01*
X173307561Y22129877D01*
X173307558Y22129875D01*
X173153214Y22051234D01*
X173013073Y21949415D01*
X172890585Y21826927D01*
X172788766Y21686786D01*
X172710125Y21532442D01*
X172710123Y21532439D01*
X172656598Y21367707D01*
X172656597Y21367703D01*
X172629500Y21196615D01*
X113964753Y21196615D01*
X111424753Y23736615D01*
X172629500Y23736615D01*
X172629500Y23563386D01*
X172656597Y23392298D01*
X172656598Y23392294D01*
X172710123Y23227562D01*
X172710125Y23227559D01*
X172748471Y23152299D01*
X172788768Y23073212D01*
X172890586Y22933072D01*
X173013072Y22810586D01*
X173153212Y22708768D01*
X173307555Y22630127D01*
X173307557Y22630127D01*
X173307558Y22630126D01*
X173307561Y22630124D01*
X173472293Y22576599D01*
X173472297Y22576598D01*
X173643386Y22549500D01*
X173643389Y22549500D01*
X173816614Y22549500D01*
X173987702Y22576598D01*
X173987706Y22576599D01*
X174152438Y22630124D01*
X174152440Y22630126D01*
X174152445Y22630127D01*
X174306788Y22708768D01*
X174446928Y22810586D01*
X174569414Y22933072D01*
X174671232Y23073212D01*
X174749873Y23227555D01*
X174749874Y23227560D01*
X174749876Y23227562D01*
X174803401Y23392294D01*
X174803402Y23392298D01*
X174830500Y23563386D01*
X174830500Y23736615D01*
X174803402Y23907703D01*
X174803401Y23907707D01*
X174749876Y24072439D01*
X174749874Y24072442D01*
X174749873Y24072443D01*
X174749873Y24072445D01*
X174671232Y24226788D01*
X174569414Y24366928D01*
X174446928Y24489414D01*
X174306788Y24591232D01*
X174306787Y24591233D01*
X174306785Y24591234D01*
X174152441Y24669875D01*
X174152438Y24669877D01*
X173987706Y24723402D01*
X173987702Y24723403D01*
X173816614Y24750500D01*
X173816611Y24750500D01*
X173643389Y24750500D01*
X173643386Y24750500D01*
X173472297Y24723403D01*
X173472293Y24723402D01*
X173307561Y24669877D01*
X173307558Y24669875D01*
X173153214Y24591234D01*
X173013073Y24489415D01*
X172890585Y24366927D01*
X172788766Y24226786D01*
X172710125Y24072442D01*
X172710123Y24072439D01*
X172656598Y23907707D01*
X172656597Y23907703D01*
X172629500Y23736615D01*
X111424753Y23736615D01*
X110928416Y24232952D01*
X110903778Y24249414D01*
X110854729Y24282187D01*
X110805492Y24315086D01*
X110668914Y24371658D01*
X110523918Y24400500D01*
X52376082Y24400500D01*
X52376075Y24400500D01*
X52347241Y24394765D01*
X52347241Y24394764D01*
X52327970Y24390931D01*
X52231088Y24371660D01*
X52185704Y24352861D01*
X52185693Y24352856D01*
X52181774Y24351232D01*
X52094505Y24315084D01*
X52035265Y24275501D01*
X52030713Y24272460D01*
X52030710Y24272458D01*
X51971588Y24232955D01*
X44967048Y17228416D01*
X44967044Y17228411D01*
X44918180Y17155278D01*
X44918179Y17155276D01*
X44884914Y17105494D01*
X44884914Y17105493D01*
X44828342Y16968915D01*
X44799500Y16823919D01*
X43850500Y16823919D01*
X43850500Y25960226D01*
X137649500Y25960226D01*
X137649500Y25739775D01*
X137683984Y25522052D01*
X137752102Y25312401D01*
X137752104Y25312398D01*
X137752105Y25312394D01*
X137784525Y25248767D01*
X137852182Y25115982D01*
X137852185Y25115978D01*
X137981758Y24937635D01*
X138137635Y24781758D01*
X138315978Y24652185D01*
X138512394Y24552105D01*
X138722049Y24483985D01*
X138809140Y24470191D01*
X138939775Y24449500D01*
X138939778Y24449500D01*
X139160225Y24449500D01*
X139269086Y24466743D01*
X139377951Y24483985D01*
X139587606Y24552105D01*
X139784022Y24652185D01*
X139962365Y24781758D01*
X140118242Y24937635D01*
X140247815Y25115978D01*
X140248132Y25116599D01*
X140273616Y25166615D01*
X148679500Y25166615D01*
X148679500Y24993386D01*
X148706597Y24822298D01*
X148706598Y24822294D01*
X148760123Y24657562D01*
X148760125Y24657559D01*
X148835054Y24510500D01*
X148838768Y24503212D01*
X148940586Y24363072D01*
X149063072Y24240586D01*
X149203212Y24138768D01*
X149357555Y24060127D01*
X149357557Y24060127D01*
X149357558Y24060126D01*
X149357561Y24060124D01*
X149522293Y24006599D01*
X149522297Y24006598D01*
X149693386Y23979500D01*
X149693389Y23979500D01*
X149866614Y23979500D01*
X150037702Y24006598D01*
X150037706Y24006599D01*
X150202438Y24060124D01*
X150202440Y24060126D01*
X150202445Y24060127D01*
X150356788Y24138768D01*
X150496928Y24240586D01*
X150619414Y24363072D01*
X150721232Y24503212D01*
X150799873Y24657555D01*
X150799874Y24657560D01*
X150799876Y24657562D01*
X150853401Y24822294D01*
X150853402Y24822298D01*
X150880500Y24993386D01*
X150880500Y25166615D01*
X151219500Y25166615D01*
X151219500Y24993386D01*
X151246597Y24822298D01*
X151246598Y24822294D01*
X151300123Y24657562D01*
X151300125Y24657559D01*
X151375054Y24510500D01*
X151378768Y24503212D01*
X151480586Y24363072D01*
X151603072Y24240586D01*
X151743212Y24138768D01*
X151897555Y24060127D01*
X151897557Y24060127D01*
X151897558Y24060126D01*
X151897561Y24060124D01*
X152062293Y24006599D01*
X152062297Y24006598D01*
X152233386Y23979500D01*
X152233389Y23979500D01*
X152406614Y23979500D01*
X152577702Y24006598D01*
X152577706Y24006599D01*
X152742438Y24060124D01*
X152742440Y24060126D01*
X152742445Y24060127D01*
X152896788Y24138768D01*
X153036928Y24240586D01*
X153159414Y24363072D01*
X153261232Y24503212D01*
X153339873Y24657555D01*
X153339874Y24657560D01*
X153339876Y24657562D01*
X153393401Y24822294D01*
X153393402Y24822298D01*
X153420500Y24993386D01*
X153420500Y25166615D01*
X153759500Y25166615D01*
X153759500Y24993386D01*
X153786597Y24822298D01*
X153786598Y24822294D01*
X153840123Y24657562D01*
X153840125Y24657559D01*
X153915054Y24510500D01*
X153918768Y24503212D01*
X154020586Y24363072D01*
X154143072Y24240586D01*
X154283212Y24138768D01*
X154437555Y24060127D01*
X154437557Y24060127D01*
X154437558Y24060126D01*
X154437561Y24060124D01*
X154602293Y24006599D01*
X154602297Y24006598D01*
X154773386Y23979500D01*
X154773389Y23979500D01*
X154946614Y23979500D01*
X155117702Y24006598D01*
X155117706Y24006599D01*
X155282438Y24060124D01*
X155282440Y24060126D01*
X155282445Y24060127D01*
X155436788Y24138768D01*
X155576928Y24240586D01*
X155699414Y24363072D01*
X155801232Y24503212D01*
X155879873Y24657555D01*
X155879874Y24657560D01*
X155879876Y24657562D01*
X155933401Y24822294D01*
X155933402Y24822298D01*
X155960500Y24993386D01*
X155960500Y25166615D01*
X155933402Y25337703D01*
X155933401Y25337707D01*
X155879876Y25502439D01*
X155879874Y25502442D01*
X155879873Y25502443D01*
X155879873Y25502445D01*
X155801232Y25656788D01*
X155699414Y25796928D01*
X155576928Y25919414D01*
X155520755Y25960226D01*
X161649500Y25960226D01*
X161649500Y25739775D01*
X161683984Y25522052D01*
X161752102Y25312401D01*
X161752104Y25312398D01*
X161752105Y25312394D01*
X161784525Y25248767D01*
X161852182Y25115982D01*
X161852185Y25115978D01*
X161981758Y24937635D01*
X162137635Y24781758D01*
X162315978Y24652185D01*
X162512394Y24552105D01*
X162722049Y24483985D01*
X162809140Y24470191D01*
X162939775Y24449500D01*
X162939778Y24449500D01*
X163160225Y24449500D01*
X163269086Y24466743D01*
X163377951Y24483985D01*
X163587606Y24552105D01*
X163784022Y24652185D01*
X163962365Y24781758D01*
X164118242Y24937635D01*
X164247815Y25115978D01*
X164347895Y25312394D01*
X164416015Y25522049D01*
X164437356Y25656788D01*
X164450500Y25739775D01*
X164450500Y25960226D01*
X164416015Y26177949D01*
X164416015Y26177951D01*
X164383958Y26276615D01*
X172629500Y26276615D01*
X172629500Y26103386D01*
X172656597Y25932298D01*
X172656598Y25932294D01*
X172710123Y25767562D01*
X172710125Y25767559D01*
X172748471Y25692299D01*
X172788768Y25613212D01*
X172890586Y25473072D01*
X173013072Y25350586D01*
X173153212Y25248768D01*
X173307555Y25170127D01*
X173307557Y25170127D01*
X173307558Y25170126D01*
X173307561Y25170124D01*
X173472293Y25116599D01*
X173472297Y25116598D01*
X173643386Y25089500D01*
X173643389Y25089500D01*
X173816614Y25089500D01*
X173987702Y25116598D01*
X173987706Y25116599D01*
X174152438Y25170124D01*
X174152440Y25170126D01*
X174152445Y25170127D01*
X174306788Y25248768D01*
X174446928Y25350586D01*
X174569414Y25473072D01*
X174671232Y25613212D01*
X174749873Y25767555D01*
X174749874Y25767560D01*
X174749876Y25767562D01*
X174803401Y25932294D01*
X174803402Y25932298D01*
X174830500Y26103386D01*
X174830500Y26276615D01*
X174803402Y26447703D01*
X174803401Y26447707D01*
X174749876Y26612439D01*
X174749874Y26612442D01*
X174749873Y26612443D01*
X174749873Y26612445D01*
X174671232Y26766788D01*
X174569414Y26906928D01*
X174446928Y27029414D01*
X174306788Y27131232D01*
X174306787Y27131233D01*
X174306785Y27131234D01*
X174152441Y27209875D01*
X174152438Y27209877D01*
X173987706Y27263402D01*
X173987702Y27263403D01*
X173816614Y27290500D01*
X173816611Y27290500D01*
X173643389Y27290500D01*
X173643386Y27290500D01*
X173472297Y27263403D01*
X173472293Y27263402D01*
X173307561Y27209877D01*
X173307558Y27209875D01*
X173153214Y27131234D01*
X173013073Y27029415D01*
X172890585Y26906927D01*
X172788766Y26766786D01*
X172710125Y26612442D01*
X172710123Y26612439D01*
X172656598Y26447707D01*
X172656597Y26447703D01*
X172629500Y26276615D01*
X164383958Y26276615D01*
X164347895Y26387606D01*
X164247815Y26584022D01*
X164118242Y26762365D01*
X163962365Y26918242D01*
X163784022Y27047815D01*
X163784021Y27047816D01*
X163784019Y27047817D01*
X163694825Y27093264D01*
X163587606Y27147895D01*
X163587602Y27147896D01*
X163587599Y27147898D01*
X163377948Y27216016D01*
X163160225Y27250500D01*
X163160222Y27250500D01*
X162939778Y27250500D01*
X162939775Y27250500D01*
X162722051Y27216016D01*
X162512400Y27147898D01*
X162315980Y27047817D01*
X162282376Y27023402D01*
X162137635Y26918242D01*
X161981758Y26762365D01*
X161916971Y26673194D01*
X161852183Y26584020D01*
X161752102Y26387600D01*
X161683984Y26177949D01*
X161649500Y25960226D01*
X155520755Y25960226D01*
X155436788Y26021232D01*
X155436787Y26021233D01*
X155436785Y26021234D01*
X155282441Y26099875D01*
X155282438Y26099877D01*
X155117706Y26153402D01*
X155117702Y26153403D01*
X154946614Y26180500D01*
X154946611Y26180500D01*
X154773389Y26180500D01*
X154773386Y26180500D01*
X154602297Y26153403D01*
X154602293Y26153402D01*
X154437561Y26099877D01*
X154437558Y26099875D01*
X154283214Y26021234D01*
X154143073Y25919415D01*
X154020585Y25796927D01*
X153918766Y25656786D01*
X153840125Y25502442D01*
X153840123Y25502439D01*
X153786598Y25337707D01*
X153786597Y25337703D01*
X153759500Y25166615D01*
X153420500Y25166615D01*
X153393402Y25337703D01*
X153393401Y25337707D01*
X153339876Y25502439D01*
X153339874Y25502442D01*
X153339873Y25502443D01*
X153339873Y25502445D01*
X153261232Y25656788D01*
X153159414Y25796928D01*
X153036928Y25919414D01*
X152896788Y26021232D01*
X152896787Y26021233D01*
X152896785Y26021234D01*
X152742441Y26099875D01*
X152742438Y26099877D01*
X152577706Y26153402D01*
X152577702Y26153403D01*
X152406614Y26180500D01*
X152406611Y26180500D01*
X152233389Y26180500D01*
X152233386Y26180500D01*
X152062297Y26153403D01*
X152062293Y26153402D01*
X151897561Y26099877D01*
X151897558Y26099875D01*
X151743214Y26021234D01*
X151603073Y25919415D01*
X151480585Y25796927D01*
X151378766Y25656786D01*
X151300125Y25502442D01*
X151300123Y25502439D01*
X151246598Y25337707D01*
X151246597Y25337703D01*
X151219500Y25166615D01*
X150880500Y25166615D01*
X150853402Y25337703D01*
X150853401Y25337707D01*
X150799876Y25502439D01*
X150799874Y25502442D01*
X150799873Y25502443D01*
X150799873Y25502445D01*
X150721232Y25656788D01*
X150619414Y25796928D01*
X150496928Y25919414D01*
X150356788Y26021232D01*
X150356787Y26021233D01*
X150356785Y26021234D01*
X150202441Y26099875D01*
X150202438Y26099877D01*
X150037706Y26153402D01*
X150037702Y26153403D01*
X149866614Y26180500D01*
X149866611Y26180500D01*
X149693389Y26180500D01*
X149693386Y26180500D01*
X149522297Y26153403D01*
X149522293Y26153402D01*
X149357561Y26099877D01*
X149357558Y26099875D01*
X149203214Y26021234D01*
X149063073Y25919415D01*
X148940585Y25796927D01*
X148838766Y25656786D01*
X148760125Y25502442D01*
X148760123Y25502439D01*
X148706598Y25337707D01*
X148706597Y25337703D01*
X148679500Y25166615D01*
X140273616Y25166615D01*
X140298492Y25215436D01*
X140298497Y25215446D01*
X140315475Y25248767D01*
X140347895Y25312394D01*
X140416015Y25522049D01*
X140437356Y25656788D01*
X140450500Y25739775D01*
X140450500Y25960226D01*
X140416015Y26177949D01*
X140416015Y26177951D01*
X140347895Y26387606D01*
X140247815Y26584022D01*
X140118242Y26762365D01*
X139962365Y26918242D01*
X139784022Y27047815D01*
X139784021Y27047816D01*
X139784019Y27047817D01*
X139694825Y27093264D01*
X139587606Y27147895D01*
X139587602Y27147896D01*
X139587599Y27147898D01*
X139377948Y27216016D01*
X139160225Y27250500D01*
X139160222Y27250500D01*
X138939778Y27250500D01*
X138939775Y27250500D01*
X138722051Y27216016D01*
X138512400Y27147898D01*
X138315980Y27047817D01*
X138282376Y27023402D01*
X138137635Y26918242D01*
X137981758Y26762365D01*
X137916971Y26673194D01*
X137852183Y26584020D01*
X137752102Y26387600D01*
X137683984Y26177949D01*
X137649500Y25960226D01*
X43850500Y25960226D01*
X43850500Y28816615D01*
X172629500Y28816615D01*
X172629500Y28643386D01*
X172656597Y28472298D01*
X172656598Y28472294D01*
X172710123Y28307562D01*
X172710125Y28307559D01*
X172748471Y28232299D01*
X172788768Y28153212D01*
X172890586Y28013072D01*
X173013072Y27890586D01*
X173153212Y27788768D01*
X173307555Y27710127D01*
X173307557Y27710127D01*
X173307558Y27710126D01*
X173307561Y27710124D01*
X173472293Y27656599D01*
X173472297Y27656598D01*
X173643386Y27629500D01*
X173643389Y27629500D01*
X173816614Y27629500D01*
X173987702Y27656598D01*
X173987706Y27656599D01*
X174152438Y27710124D01*
X174152440Y27710126D01*
X174152445Y27710127D01*
X174306788Y27788768D01*
X174446928Y27890586D01*
X174569414Y28013072D01*
X174671232Y28153212D01*
X174749873Y28307555D01*
X174749874Y28307560D01*
X174749876Y28307562D01*
X174803401Y28472294D01*
X174803402Y28472298D01*
X174830500Y28643386D01*
X174830500Y28816615D01*
X174803402Y28987703D01*
X174803401Y28987707D01*
X174749876Y29152439D01*
X174749874Y29152442D01*
X174749873Y29152443D01*
X174749873Y29152445D01*
X174671232Y29306788D01*
X174569414Y29446928D01*
X174446928Y29569414D01*
X174306788Y29671232D01*
X174306787Y29671233D01*
X174306785Y29671234D01*
X174152441Y29749875D01*
X174152438Y29749877D01*
X173987706Y29803402D01*
X173987702Y29803403D01*
X173816614Y29830500D01*
X173816611Y29830500D01*
X173643389Y29830500D01*
X173643386Y29830500D01*
X173472297Y29803403D01*
X173472293Y29803402D01*
X173307561Y29749877D01*
X173307558Y29749875D01*
X173153214Y29671234D01*
X173013073Y29569415D01*
X172890585Y29446927D01*
X172788766Y29306786D01*
X172710125Y29152442D01*
X172710123Y29152439D01*
X172656598Y28987707D01*
X172656597Y28987703D01*
X172629500Y28816615D01*
X43850500Y28816615D01*
X43850500Y31356615D01*
X172629500Y31356615D01*
X172629500Y31183386D01*
X172656597Y31012298D01*
X172656598Y31012294D01*
X172710123Y30847562D01*
X172710125Y30847559D01*
X172748471Y30772299D01*
X172788768Y30693212D01*
X172890586Y30553072D01*
X173013072Y30430586D01*
X173153212Y30328768D01*
X173307555Y30250127D01*
X173307557Y30250127D01*
X173307558Y30250126D01*
X173307561Y30250124D01*
X173472293Y30196599D01*
X173472297Y30196598D01*
X173643386Y30169500D01*
X173643389Y30169500D01*
X173816614Y30169500D01*
X173987702Y30196598D01*
X173987706Y30196599D01*
X174152438Y30250124D01*
X174152440Y30250126D01*
X174152445Y30250127D01*
X174306788Y30328768D01*
X174446928Y30430586D01*
X174569414Y30553072D01*
X174671232Y30693212D01*
X174749873Y30847555D01*
X174749874Y30847560D01*
X174749876Y30847562D01*
X174803401Y31012294D01*
X174803402Y31012298D01*
X174830500Y31183386D01*
X174830500Y31356615D01*
X174803402Y31527703D01*
X174803401Y31527707D01*
X174749876Y31692439D01*
X174749874Y31692442D01*
X174749873Y31692443D01*
X174749873Y31692445D01*
X174671232Y31846788D01*
X174569414Y31986928D01*
X174446928Y32109414D01*
X174306788Y32211232D01*
X174306787Y32211233D01*
X174306785Y32211234D01*
X174152441Y32289875D01*
X174152438Y32289877D01*
X173987706Y32343402D01*
X173987702Y32343403D01*
X173816614Y32370500D01*
X173816611Y32370500D01*
X173643389Y32370500D01*
X173643386Y32370500D01*
X173472297Y32343403D01*
X173472293Y32343402D01*
X173307561Y32289877D01*
X173307558Y32289875D01*
X173153214Y32211234D01*
X173013073Y32109415D01*
X172890585Y31986927D01*
X172788766Y31846786D01*
X172710125Y31692442D01*
X172710123Y31692439D01*
X172656598Y31527707D01*
X172656597Y31527703D01*
X172629500Y31356615D01*
X43850500Y31356615D01*
X43850500Y31833917D01*
X43850500Y31833918D01*
X43821658Y31978913D01*
X43765084Y32115495D01*
X43682951Y32238416D01*
X43631490Y32289877D01*
X43578416Y32342952D01*
X43578416Y32342951D01*
X42024752Y33896615D01*
X172629500Y33896615D01*
X172629500Y33723386D01*
X172656597Y33552298D01*
X172656598Y33552294D01*
X172710123Y33387562D01*
X172710125Y33387559D01*
X172748471Y33312299D01*
X172788768Y33233212D01*
X172890586Y33093072D01*
X173013072Y32970586D01*
X173153212Y32868768D01*
X173307555Y32790127D01*
X173307557Y32790127D01*
X173307558Y32790126D01*
X173307561Y32790124D01*
X173472293Y32736599D01*
X173472297Y32736598D01*
X173643386Y32709500D01*
X173643389Y32709500D01*
X173816614Y32709500D01*
X173987702Y32736598D01*
X173987706Y32736599D01*
X174152438Y32790124D01*
X174152440Y32790126D01*
X174152445Y32790127D01*
X174306788Y32868768D01*
X174446928Y32970586D01*
X174569414Y33093072D01*
X174671232Y33233212D01*
X174749873Y33387555D01*
X174749874Y33387560D01*
X174749876Y33387562D01*
X174803401Y33552294D01*
X174803402Y33552298D01*
X174830500Y33723386D01*
X174830500Y33896615D01*
X174803402Y34067703D01*
X174803401Y34067707D01*
X174749876Y34232439D01*
X174749874Y34232442D01*
X174749873Y34232443D01*
X174749873Y34232445D01*
X174671232Y34386788D01*
X174569414Y34526928D01*
X174446928Y34649414D01*
X174306788Y34751232D01*
X174306787Y34751233D01*
X174306785Y34751234D01*
X174152441Y34829875D01*
X174152438Y34829877D01*
X173987706Y34883402D01*
X173987702Y34883403D01*
X173816614Y34910500D01*
X173816611Y34910500D01*
X173643389Y34910500D01*
X173643386Y34910500D01*
X173472297Y34883403D01*
X173472293Y34883402D01*
X173307561Y34829877D01*
X173307558Y34829875D01*
X173153214Y34751234D01*
X173013073Y34649415D01*
X172890585Y34526927D01*
X172788766Y34386786D01*
X172710125Y34232442D01*
X172710123Y34232439D01*
X172656598Y34067707D01*
X172656597Y34067703D01*
X172629500Y33896615D01*
X42024752Y33896615D01*
X39484752Y36436615D01*
X172629500Y36436615D01*
X172629500Y36263386D01*
X172656597Y36092298D01*
X172656598Y36092294D01*
X172710123Y35927562D01*
X172710125Y35927559D01*
X172748471Y35852299D01*
X172788768Y35773212D01*
X172890586Y35633072D01*
X173013072Y35510586D01*
X173153212Y35408768D01*
X173307555Y35330127D01*
X173307557Y35330127D01*
X173307558Y35330126D01*
X173307561Y35330124D01*
X173472293Y35276599D01*
X173472297Y35276598D01*
X173643386Y35249500D01*
X173643389Y35249500D01*
X173816614Y35249500D01*
X173987702Y35276598D01*
X173987706Y35276599D01*
X174152438Y35330124D01*
X174152440Y35330126D01*
X174152445Y35330127D01*
X174306788Y35408768D01*
X174446928Y35510586D01*
X174569414Y35633072D01*
X174671232Y35773212D01*
X174749873Y35927555D01*
X174749874Y35927560D01*
X174749876Y35927562D01*
X174803401Y36092294D01*
X174803402Y36092298D01*
X174830500Y36263386D01*
X174830500Y36436615D01*
X174803402Y36607703D01*
X174803401Y36607707D01*
X174749876Y36772439D01*
X174749874Y36772442D01*
X174749873Y36772443D01*
X174749873Y36772445D01*
X174671232Y36926788D01*
X174569414Y37066928D01*
X174446928Y37189414D01*
X174306788Y37291232D01*
X174306787Y37291233D01*
X174306785Y37291234D01*
X174152441Y37369875D01*
X174152438Y37369877D01*
X173987706Y37423402D01*
X173987702Y37423403D01*
X173816614Y37450500D01*
X173816611Y37450500D01*
X173643389Y37450500D01*
X173643386Y37450500D01*
X173472297Y37423403D01*
X173472293Y37423402D01*
X173307561Y37369877D01*
X173307558Y37369875D01*
X173153214Y37291234D01*
X173013073Y37189415D01*
X172890585Y37066927D01*
X172788766Y36926786D01*
X172710125Y36772442D01*
X172710123Y36772439D01*
X172656598Y36607707D01*
X172656597Y36607703D01*
X172629500Y36436615D01*
X39484752Y36436615D01*
X37492946Y38428421D01*
X74399500Y38428421D01*
X74399500Y38231580D01*
X74430289Y38037179D01*
X74491116Y37849975D01*
X74563064Y37708767D01*
X74580476Y37674595D01*
X74696172Y37515354D01*
X74835354Y37376172D01*
X74994595Y37260476D01*
X75169975Y37171116D01*
X75357174Y37110291D01*
X75357175Y37110291D01*
X75357178Y37110290D01*
X75551580Y37079500D01*
X75551583Y37079500D01*
X75748420Y37079500D01*
X75942821Y37110290D01*
X75942822Y37110291D01*
X75942826Y37110291D01*
X76130025Y37171116D01*
X76305405Y37260476D01*
X76464646Y37376172D01*
X76603828Y37515354D01*
X76719524Y37674595D01*
X76808884Y37849975D01*
X76869709Y38037174D01*
X76875417Y38073212D01*
X76900500Y38231580D01*
X76900500Y38428421D01*
X92399500Y38428421D01*
X92399500Y38231580D01*
X92430289Y38037179D01*
X92491116Y37849975D01*
X92563064Y37708767D01*
X92580476Y37674595D01*
X92696172Y37515354D01*
X92835354Y37376172D01*
X92994595Y37260476D01*
X93169975Y37171116D01*
X93357174Y37110291D01*
X93357175Y37110291D01*
X93357178Y37110290D01*
X93551580Y37079500D01*
X93551583Y37079500D01*
X93748420Y37079500D01*
X93942821Y37110290D01*
X93942822Y37110291D01*
X93942826Y37110291D01*
X94130025Y37171116D01*
X94305405Y37260476D01*
X94464646Y37376172D01*
X94603828Y37515354D01*
X94719524Y37674595D01*
X94808884Y37849975D01*
X94869709Y38037174D01*
X94875417Y38073212D01*
X94900500Y38231580D01*
X94900500Y38428421D01*
X110399500Y38428421D01*
X110399500Y38231580D01*
X110430289Y38037179D01*
X110491116Y37849975D01*
X110563064Y37708767D01*
X110580476Y37674595D01*
X110696172Y37515354D01*
X110835354Y37376172D01*
X110994595Y37260476D01*
X111169975Y37171116D01*
X111357174Y37110291D01*
X111357175Y37110291D01*
X111357178Y37110290D01*
X111551580Y37079500D01*
X111551583Y37079500D01*
X111748420Y37079500D01*
X111942821Y37110290D01*
X111942822Y37110291D01*
X111942826Y37110291D01*
X112130025Y37171116D01*
X112305405Y37260476D01*
X112464646Y37376172D01*
X112603828Y37515354D01*
X112719524Y37674595D01*
X112808884Y37849975D01*
X112869709Y38037174D01*
X112875417Y38073212D01*
X112900500Y38231580D01*
X112900500Y38428421D01*
X128399500Y38428421D01*
X128399500Y38231580D01*
X128430289Y38037179D01*
X128491116Y37849975D01*
X128563064Y37708767D01*
X128580476Y37674595D01*
X128696172Y37515354D01*
X128835354Y37376172D01*
X128994595Y37260476D01*
X129169975Y37171116D01*
X129357174Y37110291D01*
X129357175Y37110291D01*
X129357178Y37110290D01*
X129551580Y37079500D01*
X129551583Y37079500D01*
X129748420Y37079500D01*
X129942821Y37110290D01*
X129942822Y37110291D01*
X129942826Y37110291D01*
X130130025Y37171116D01*
X130305405Y37260476D01*
X130464646Y37376172D01*
X130603828Y37515354D01*
X130719524Y37674595D01*
X130808884Y37849975D01*
X130869709Y38037174D01*
X130875417Y38073212D01*
X130900500Y38231580D01*
X130900500Y38428421D01*
X130869710Y38622822D01*
X130869709Y38622826D01*
X130808884Y38810025D01*
X130724003Y38976615D01*
X172629500Y38976615D01*
X172629500Y38803386D01*
X172656597Y38632298D01*
X172656598Y38632294D01*
X172710123Y38467562D01*
X172710125Y38467559D01*
X172748471Y38392299D01*
X172788768Y38313212D01*
X172890586Y38173072D01*
X173013072Y38050586D01*
X173153212Y37948768D01*
X173307555Y37870127D01*
X173307557Y37870127D01*
X173307558Y37870126D01*
X173307561Y37870124D01*
X173472293Y37816599D01*
X173472297Y37816598D01*
X173643386Y37789500D01*
X173643389Y37789500D01*
X173816614Y37789500D01*
X173987702Y37816598D01*
X173987706Y37816599D01*
X174152438Y37870124D01*
X174152440Y37870126D01*
X174152445Y37870127D01*
X174306788Y37948768D01*
X174446928Y38050586D01*
X174569414Y38173072D01*
X174671232Y38313212D01*
X174749873Y38467555D01*
X174749874Y38467560D01*
X174749876Y38467562D01*
X174803401Y38632294D01*
X174803402Y38632298D01*
X174830500Y38803386D01*
X174830500Y38976615D01*
X174803402Y39147703D01*
X174803401Y39147707D01*
X174749876Y39312439D01*
X174749874Y39312442D01*
X174749873Y39312443D01*
X174749873Y39312445D01*
X174671232Y39466788D01*
X174569414Y39606928D01*
X174446928Y39729414D01*
X174306788Y39831232D01*
X174306787Y39831233D01*
X174306785Y39831234D01*
X174152441Y39909875D01*
X174152438Y39909877D01*
X173987706Y39963402D01*
X173987702Y39963403D01*
X173816614Y39990500D01*
X173816611Y39990500D01*
X173643389Y39990500D01*
X173643386Y39990500D01*
X173472297Y39963403D01*
X173472293Y39963402D01*
X173307561Y39909877D01*
X173307558Y39909875D01*
X173153214Y39831234D01*
X173013073Y39729415D01*
X172890585Y39606927D01*
X172788766Y39466786D01*
X172710125Y39312442D01*
X172710123Y39312439D01*
X172656598Y39147707D01*
X172656597Y39147703D01*
X172629500Y38976615D01*
X130724003Y38976615D01*
X130719524Y38985405D01*
X130603828Y39144646D01*
X130464646Y39283828D01*
X130305405Y39399524D01*
X130305404Y39399525D01*
X130305402Y39399526D01*
X130130025Y39488884D01*
X129942821Y39549711D01*
X129748420Y39580500D01*
X129748417Y39580500D01*
X129551583Y39580500D01*
X129551580Y39580500D01*
X129357178Y39549711D01*
X129169974Y39488884D01*
X128994597Y39399526D01*
X128835355Y39283829D01*
X128696171Y39144645D01*
X128580474Y38985403D01*
X128491116Y38810026D01*
X128430289Y38622822D01*
X128399500Y38428421D01*
X112900500Y38428421D01*
X112869710Y38622822D01*
X112869709Y38622826D01*
X112808884Y38810025D01*
X112719524Y38985405D01*
X112603828Y39144646D01*
X112464646Y39283828D01*
X112305405Y39399524D01*
X112305404Y39399525D01*
X112305402Y39399526D01*
X112130025Y39488884D01*
X111942821Y39549711D01*
X111748420Y39580500D01*
X111748417Y39580500D01*
X111551583Y39580500D01*
X111551580Y39580500D01*
X111357178Y39549711D01*
X111169974Y39488884D01*
X110994597Y39399526D01*
X110835355Y39283829D01*
X110696171Y39144645D01*
X110580474Y38985403D01*
X110491116Y38810026D01*
X110430289Y38622822D01*
X110399500Y38428421D01*
X94900500Y38428421D01*
X94869710Y38622822D01*
X94869709Y38622826D01*
X94808884Y38810025D01*
X94719524Y38985405D01*
X94603828Y39144646D01*
X94464646Y39283828D01*
X94305405Y39399524D01*
X94305404Y39399525D01*
X94305402Y39399526D01*
X94130025Y39488884D01*
X93942821Y39549711D01*
X93748420Y39580500D01*
X93748417Y39580500D01*
X93551583Y39580500D01*
X93551580Y39580500D01*
X93357178Y39549711D01*
X93169974Y39488884D01*
X92994597Y39399526D01*
X92835355Y39283829D01*
X92696171Y39144645D01*
X92580474Y38985403D01*
X92491116Y38810026D01*
X92430289Y38622822D01*
X92399500Y38428421D01*
X76900500Y38428421D01*
X76869710Y38622822D01*
X76869709Y38622826D01*
X76808884Y38810025D01*
X76719524Y38985405D01*
X76603828Y39144646D01*
X76464646Y39283828D01*
X76305405Y39399524D01*
X76305404Y39399525D01*
X76305402Y39399526D01*
X76130025Y39488884D01*
X75942821Y39549711D01*
X75748420Y39580500D01*
X75748417Y39580500D01*
X75551583Y39580500D01*
X75551580Y39580500D01*
X75357178Y39549711D01*
X75169974Y39488884D01*
X74994597Y39399526D01*
X74835355Y39283829D01*
X74696171Y39144645D01*
X74580474Y38985403D01*
X74491116Y38810026D01*
X74430289Y38622822D01*
X74399500Y38428421D01*
X37492946Y38428421D01*
X34404752Y41516615D01*
X172629500Y41516615D01*
X172629500Y41343386D01*
X172656597Y41172298D01*
X172656598Y41172294D01*
X172710123Y41007562D01*
X172710125Y41007559D01*
X172748471Y40932299D01*
X172788768Y40853212D01*
X172890586Y40713072D01*
X173013072Y40590586D01*
X173153212Y40488768D01*
X173307555Y40410127D01*
X173307557Y40410127D01*
X173307558Y40410126D01*
X173307561Y40410124D01*
X173472293Y40356599D01*
X173472297Y40356598D01*
X173643386Y40329500D01*
X173643389Y40329500D01*
X173816614Y40329500D01*
X173987702Y40356598D01*
X173987706Y40356599D01*
X174152438Y40410124D01*
X174152440Y40410126D01*
X174152445Y40410127D01*
X174306788Y40488768D01*
X174446928Y40590586D01*
X174569414Y40713072D01*
X174671232Y40853212D01*
X174749873Y41007555D01*
X174749874Y41007560D01*
X174749876Y41007562D01*
X174803401Y41172294D01*
X174803402Y41172298D01*
X174830500Y41343386D01*
X174830500Y41516615D01*
X174803402Y41687703D01*
X174803401Y41687707D01*
X174749876Y41852439D01*
X174749874Y41852442D01*
X174749873Y41852443D01*
X174749873Y41852445D01*
X174671232Y42006788D01*
X174569414Y42146928D01*
X174446928Y42269414D01*
X174306788Y42371232D01*
X174306787Y42371233D01*
X174306785Y42371234D01*
X174152441Y42449875D01*
X174152438Y42449877D01*
X173987706Y42503402D01*
X173987702Y42503403D01*
X173816614Y42530500D01*
X173816611Y42530500D01*
X173643389Y42530500D01*
X173643386Y42530500D01*
X173472297Y42503403D01*
X173472293Y42503402D01*
X173307561Y42449877D01*
X173307558Y42449875D01*
X173153214Y42371234D01*
X173013073Y42269415D01*
X172890585Y42146927D01*
X172788766Y42006786D01*
X172710125Y41852442D01*
X172710123Y41852439D01*
X172656598Y41687707D01*
X172656597Y41687703D01*
X172629500Y41516615D01*
X34404752Y41516615D01*
X31864752Y44056615D01*
X172629500Y44056615D01*
X172629500Y43883386D01*
X172656597Y43712298D01*
X172656598Y43712294D01*
X172710123Y43547562D01*
X172710125Y43547559D01*
X172748471Y43472299D01*
X172788768Y43393212D01*
X172890586Y43253072D01*
X173013072Y43130586D01*
X173153212Y43028768D01*
X173307555Y42950127D01*
X173307557Y42950127D01*
X173307558Y42950126D01*
X173307561Y42950124D01*
X173472293Y42896599D01*
X173472297Y42896598D01*
X173643386Y42869500D01*
X173643389Y42869500D01*
X173816614Y42869500D01*
X173987702Y42896598D01*
X173987706Y42896599D01*
X174152438Y42950124D01*
X174152440Y42950126D01*
X174152445Y42950127D01*
X174306788Y43028768D01*
X174446928Y43130586D01*
X174569414Y43253072D01*
X174671232Y43393212D01*
X174749873Y43547555D01*
X174749874Y43547560D01*
X174749876Y43547562D01*
X174803401Y43712294D01*
X174803402Y43712298D01*
X174830500Y43883386D01*
X174830500Y44056615D01*
X174803402Y44227703D01*
X174803401Y44227707D01*
X174749876Y44392439D01*
X174749874Y44392442D01*
X174749873Y44392443D01*
X174749873Y44392445D01*
X174671232Y44546788D01*
X174569414Y44686928D01*
X174446928Y44809414D01*
X174306788Y44911232D01*
X174306787Y44911233D01*
X174306785Y44911234D01*
X174152441Y44989875D01*
X174152438Y44989877D01*
X173987706Y45043402D01*
X173987702Y45043403D01*
X173816614Y45070500D01*
X173816611Y45070500D01*
X173643389Y45070500D01*
X173643386Y45070500D01*
X173472297Y45043403D01*
X173472293Y45043402D01*
X173307561Y44989877D01*
X173307558Y44989875D01*
X173153214Y44911234D01*
X173013073Y44809415D01*
X172890585Y44686927D01*
X172788766Y44546786D01*
X172710125Y44392442D01*
X172710123Y44392439D01*
X172656598Y44227707D01*
X172656597Y44227703D01*
X172629500Y44056615D01*
X31864752Y44056615D01*
X29324752Y46596615D01*
X172629500Y46596615D01*
X172629500Y46423386D01*
X172656597Y46252298D01*
X172656598Y46252294D01*
X172710123Y46087562D01*
X172710125Y46087559D01*
X172748471Y46012299D01*
X172788768Y45933212D01*
X172890586Y45793072D01*
X173013072Y45670586D01*
X173153212Y45568768D01*
X173307555Y45490127D01*
X173307557Y45490127D01*
X173307558Y45490126D01*
X173307561Y45490124D01*
X173472293Y45436599D01*
X173472297Y45436598D01*
X173643386Y45409500D01*
X173643389Y45409500D01*
X173816614Y45409500D01*
X173987702Y45436598D01*
X173987706Y45436599D01*
X174152438Y45490124D01*
X174152440Y45490126D01*
X174152445Y45490127D01*
X174306788Y45568768D01*
X174446928Y45670586D01*
X174569414Y45793072D01*
X174671232Y45933212D01*
X174749873Y46087555D01*
X174749874Y46087560D01*
X174749876Y46087562D01*
X174803401Y46252294D01*
X174803402Y46252298D01*
X174830500Y46423386D01*
X174830500Y46596615D01*
X174803402Y46767703D01*
X174803401Y46767707D01*
X174749876Y46932439D01*
X174749874Y46932442D01*
X174749873Y46932443D01*
X174749873Y46932445D01*
X174671232Y47086788D01*
X174569414Y47226928D01*
X174446928Y47349414D01*
X174306788Y47451232D01*
X174306787Y47451233D01*
X174306785Y47451234D01*
X174152441Y47529875D01*
X174152438Y47529877D01*
X173987706Y47583402D01*
X173987702Y47583403D01*
X173816614Y47610500D01*
X173816611Y47610500D01*
X173643389Y47610500D01*
X173643386Y47610500D01*
X173472297Y47583403D01*
X173472293Y47583402D01*
X173307561Y47529877D01*
X173307558Y47529875D01*
X173153214Y47451234D01*
X173013073Y47349415D01*
X172890585Y47226927D01*
X172788766Y47086786D01*
X172710125Y46932442D01*
X172710123Y46932439D01*
X172656598Y46767707D01*
X172656597Y46767703D01*
X172629500Y46596615D01*
X29324752Y46596615D01*
X19492947Y56428421D01*
X74399500Y56428421D01*
X74399500Y56231580D01*
X74430289Y56037179D01*
X74439915Y56007555D01*
X74491116Y55849975D01*
X74580476Y55674595D01*
X74696172Y55515354D01*
X74835354Y55376172D01*
X74994595Y55260476D01*
X75169975Y55171116D01*
X75357174Y55110291D01*
X75357175Y55110291D01*
X75357178Y55110290D01*
X75551580Y55079500D01*
X75551583Y55079500D01*
X75748420Y55079500D01*
X75942821Y55110290D01*
X75942822Y55110291D01*
X75942826Y55110291D01*
X76130025Y55171116D01*
X76305405Y55260476D01*
X76464646Y55376172D01*
X76603828Y55515354D01*
X76719524Y55674595D01*
X76808884Y55849975D01*
X76869709Y56037174D01*
X76891110Y56172294D01*
X76900500Y56231580D01*
X76900500Y56428421D01*
X92399500Y56428421D01*
X92399500Y56231580D01*
X92430289Y56037179D01*
X92439915Y56007555D01*
X92491116Y55849975D01*
X92580476Y55674595D01*
X92696172Y55515354D01*
X92835354Y55376172D01*
X92994595Y55260476D01*
X93169975Y55171116D01*
X93357174Y55110291D01*
X93357175Y55110291D01*
X93357178Y55110290D01*
X93551580Y55079500D01*
X93551583Y55079500D01*
X93748420Y55079500D01*
X93942821Y55110290D01*
X93942822Y55110291D01*
X93942826Y55110291D01*
X94130025Y55171116D01*
X94305405Y55260476D01*
X94464646Y55376172D01*
X94603828Y55515354D01*
X94719524Y55674595D01*
X94808884Y55849975D01*
X94869709Y56037174D01*
X94891110Y56172294D01*
X94900500Y56231580D01*
X94900500Y56428421D01*
X110399500Y56428421D01*
X110399500Y56231580D01*
X110430289Y56037179D01*
X110439915Y56007555D01*
X110491116Y55849975D01*
X110580476Y55674595D01*
X110696172Y55515354D01*
X110835354Y55376172D01*
X110994595Y55260476D01*
X111169975Y55171116D01*
X111357174Y55110291D01*
X111357175Y55110291D01*
X111357178Y55110290D01*
X111551580Y55079500D01*
X111551583Y55079500D01*
X111748420Y55079500D01*
X111942821Y55110290D01*
X111942822Y55110291D01*
X111942826Y55110291D01*
X112130025Y55171116D01*
X112305405Y55260476D01*
X112464646Y55376172D01*
X112603828Y55515354D01*
X112719524Y55674595D01*
X112808884Y55849975D01*
X112869709Y56037174D01*
X112891110Y56172294D01*
X112900500Y56231580D01*
X112900500Y56428421D01*
X128399500Y56428421D01*
X128399500Y56231580D01*
X128430289Y56037179D01*
X128439915Y56007555D01*
X128491116Y55849975D01*
X128580476Y55674595D01*
X128696172Y55515354D01*
X128835354Y55376172D01*
X128994595Y55260476D01*
X129169975Y55171116D01*
X129357174Y55110291D01*
X129357175Y55110291D01*
X129357178Y55110290D01*
X129551580Y55079500D01*
X129551583Y55079500D01*
X129748420Y55079500D01*
X129942821Y55110290D01*
X129942822Y55110291D01*
X129942826Y55110291D01*
X130130025Y55171116D01*
X130305405Y55260476D01*
X130464646Y55376172D01*
X130603828Y55515354D01*
X130719524Y55674595D01*
X130808884Y55849975D01*
X130869709Y56037174D01*
X130891110Y56172294D01*
X130900500Y56231580D01*
X130900500Y56428421D01*
X146399500Y56428421D01*
X146399500Y56231580D01*
X146430289Y56037179D01*
X146439915Y56007555D01*
X146491116Y55849975D01*
X146580476Y55674595D01*
X146696172Y55515354D01*
X146835354Y55376172D01*
X146994595Y55260476D01*
X147169975Y55171116D01*
X147357174Y55110291D01*
X147357175Y55110291D01*
X147357178Y55110290D01*
X147551580Y55079500D01*
X147551583Y55079500D01*
X147748420Y55079500D01*
X147942821Y55110290D01*
X147942822Y55110291D01*
X147942826Y55110291D01*
X148130025Y55171116D01*
X148305405Y55260476D01*
X148464646Y55376172D01*
X148603828Y55515354D01*
X148719524Y55674595D01*
X148808884Y55849975D01*
X148869709Y56037174D01*
X148891110Y56172294D01*
X148900500Y56231580D01*
X148900500Y56428421D01*
X164399500Y56428421D01*
X164399500Y56231580D01*
X164430289Y56037179D01*
X164439915Y56007555D01*
X164491116Y55849975D01*
X164580476Y55674595D01*
X164696172Y55515354D01*
X164835354Y55376172D01*
X164994595Y55260476D01*
X165169975Y55171116D01*
X165357174Y55110291D01*
X165357175Y55110291D01*
X165357178Y55110290D01*
X165551580Y55079500D01*
X165551583Y55079500D01*
X165748420Y55079500D01*
X165942821Y55110290D01*
X165942822Y55110291D01*
X165942826Y55110291D01*
X166130025Y55171116D01*
X166305405Y55260476D01*
X166464646Y55376172D01*
X166603828Y55515354D01*
X166719524Y55674595D01*
X166808884Y55849975D01*
X166869709Y56037174D01*
X166891110Y56172294D01*
X166900500Y56231580D01*
X166900500Y56428421D01*
X166869710Y56622822D01*
X166869709Y56622826D01*
X166808884Y56810025D01*
X166719524Y56985405D01*
X166603828Y57144646D01*
X166464646Y57283828D01*
X166305405Y57399524D01*
X166305404Y57399525D01*
X166305402Y57399526D01*
X166130025Y57488884D01*
X165942821Y57549711D01*
X165748420Y57580500D01*
X165748417Y57580500D01*
X165551583Y57580500D01*
X165551580Y57580500D01*
X165357178Y57549711D01*
X165169974Y57488884D01*
X164994597Y57399526D01*
X164835355Y57283829D01*
X164696171Y57144645D01*
X164580474Y56985403D01*
X164491116Y56810026D01*
X164430289Y56622822D01*
X164399500Y56428421D01*
X148900500Y56428421D01*
X148869710Y56622822D01*
X148869709Y56622826D01*
X148808884Y56810025D01*
X148719524Y56985405D01*
X148603828Y57144646D01*
X148464646Y57283828D01*
X148305405Y57399524D01*
X148305404Y57399525D01*
X148305402Y57399526D01*
X148130025Y57488884D01*
X147942821Y57549711D01*
X147748420Y57580500D01*
X147748417Y57580500D01*
X147551583Y57580500D01*
X147551580Y57580500D01*
X147357178Y57549711D01*
X147169974Y57488884D01*
X146994597Y57399526D01*
X146835355Y57283829D01*
X146696171Y57144645D01*
X146580474Y56985403D01*
X146491116Y56810026D01*
X146430289Y56622822D01*
X146399500Y56428421D01*
X130900500Y56428421D01*
X130869710Y56622822D01*
X130869709Y56622826D01*
X130808884Y56810025D01*
X130719524Y56985405D01*
X130603828Y57144646D01*
X130464646Y57283828D01*
X130305405Y57399524D01*
X130305404Y57399525D01*
X130305402Y57399526D01*
X130130025Y57488884D01*
X129942821Y57549711D01*
X129748420Y57580500D01*
X129748417Y57580500D01*
X129551583Y57580500D01*
X129551580Y57580500D01*
X129357178Y57549711D01*
X129169974Y57488884D01*
X128994597Y57399526D01*
X128835355Y57283829D01*
X128696171Y57144645D01*
X128580474Y56985403D01*
X128491116Y56810026D01*
X128430289Y56622822D01*
X128399500Y56428421D01*
X112900500Y56428421D01*
X112869710Y56622822D01*
X112869709Y56622826D01*
X112808884Y56810025D01*
X112719524Y56985405D01*
X112603828Y57144646D01*
X112464646Y57283828D01*
X112305405Y57399524D01*
X112305404Y57399525D01*
X112305402Y57399526D01*
X112130025Y57488884D01*
X111942821Y57549711D01*
X111748420Y57580500D01*
X111748417Y57580500D01*
X111551583Y57580500D01*
X111551580Y57580500D01*
X111357178Y57549711D01*
X111169974Y57488884D01*
X110994597Y57399526D01*
X110835355Y57283829D01*
X110696171Y57144645D01*
X110580474Y56985403D01*
X110491116Y56810026D01*
X110430289Y56622822D01*
X110399500Y56428421D01*
X94900500Y56428421D01*
X94869710Y56622822D01*
X94869709Y56622826D01*
X94808884Y56810025D01*
X94719524Y56985405D01*
X94603828Y57144646D01*
X94464646Y57283828D01*
X94305405Y57399524D01*
X94305404Y57399525D01*
X94305402Y57399526D01*
X94130025Y57488884D01*
X93942821Y57549711D01*
X93748420Y57580500D01*
X93748417Y57580500D01*
X93551583Y57580500D01*
X93551580Y57580500D01*
X93357178Y57549711D01*
X93169974Y57488884D01*
X92994597Y57399526D01*
X92835355Y57283829D01*
X92696171Y57144645D01*
X92580474Y56985403D01*
X92491116Y56810026D01*
X92430289Y56622822D01*
X92399500Y56428421D01*
X76900500Y56428421D01*
X76869710Y56622822D01*
X76869709Y56622826D01*
X76808884Y56810025D01*
X76719524Y56985405D01*
X76603828Y57144646D01*
X76464646Y57283828D01*
X76305405Y57399524D01*
X76305404Y57399525D01*
X76305402Y57399526D01*
X76130025Y57488884D01*
X75942821Y57549711D01*
X75748420Y57580500D01*
X75748417Y57580500D01*
X75551583Y57580500D01*
X75551580Y57580500D01*
X75357178Y57549711D01*
X75169974Y57488884D01*
X74994597Y57399526D01*
X74835355Y57283829D01*
X74696171Y57144645D01*
X74580474Y56985403D01*
X74491116Y56810026D01*
X74430289Y56622822D01*
X74399500Y56428421D01*
X19492947Y56428421D01*
X9399496Y66521872D01*
X9371719Y66576389D01*
X9370500Y66591876D01*
X9370500Y66676615D01*
X9343402Y66847703D01*
X9343401Y66847707D01*
X9289876Y67012439D01*
X9289874Y67012442D01*
X9289873Y67012443D01*
X9289873Y67012445D01*
X9211232Y67166788D01*
X9109414Y67306928D01*
X9109411Y67306931D01*
X9049496Y67366847D01*
X9021719Y67421364D01*
X9020500Y67436850D01*
X9020500Y67930500D01*
X9039407Y67988691D01*
X9088907Y68024655D01*
X9119500Y68029500D01*
X9144673Y68029500D01*
X9144674Y68029500D01*
X9217740Y68044034D01*
X9300601Y68099399D01*
X9355966Y68182260D01*
X9370500Y68255326D01*
X9370500Y70004674D01*
X9355966Y70077740D01*
X9300601Y70160601D01*
X9300599Y70160603D01*
X9217742Y70215965D01*
X9217740Y70215966D01*
X9217737Y70215967D01*
X9217736Y70215967D01*
X9144684Y70230499D01*
X9144674Y70230500D01*
X7395326Y70230500D01*
X7395325Y70230500D01*
X7395315Y70230499D01*
X7322263Y70215967D01*
X7322257Y70215965D01*
X7239400Y70160603D01*
X7239397Y70160600D01*
X7184035Y70077743D01*
X7184033Y70077737D01*
X7169501Y70004685D01*
X7169500Y70004673D01*
X7169500Y68255328D01*
X7169501Y68255316D01*
X7184033Y68182264D01*
X7184035Y68182258D01*
X7239397Y68099401D01*
X7239399Y68099399D01*
X7322260Y68044034D01*
X7377808Y68032985D01*
X7395315Y68029502D01*
X7395320Y68029502D01*
X7395326Y68029500D01*
X7420500Y68029500D01*
X7478691Y68010593D01*
X7514655Y67961093D01*
X7519500Y67930500D01*
X7519500Y67436850D01*
X7500593Y67378659D01*
X7490504Y67366847D01*
X7430588Y67306931D01*
X7328766Y67166786D01*
X7250125Y67012442D01*
X7250123Y67012439D01*
X7196598Y66847707D01*
X7196597Y66847703D01*
X7169500Y66676615D01*
X7169500Y66503386D01*
X7196597Y66332298D01*
X7196598Y66332294D01*
X7250123Y66167562D01*
X7250125Y66167559D01*
X7250126Y66167556D01*
X7250127Y66167555D01*
X7328768Y66013212D01*
X7430586Y65873072D01*
X7553072Y65750586D01*
X7693212Y65648768D01*
X7847555Y65570127D01*
X7847557Y65570127D01*
X7847558Y65570126D01*
X7847561Y65570124D01*
X8012293Y65516599D01*
X8012297Y65516598D01*
X8183386Y65489500D01*
X8183389Y65489500D01*
X8268124Y65489500D01*
X8326315Y65470593D01*
X8338128Y65460504D01*
X8487543Y65311089D01*
X8515320Y65256572D01*
X8505749Y65196140D01*
X8462484Y65152875D01*
X8402053Y65143304D01*
X8356615Y65150500D01*
X8356611Y65150500D01*
X8183389Y65150500D01*
X8183386Y65150500D01*
X8012297Y65123403D01*
X8012293Y65123402D01*
X7847561Y65069877D01*
X7847558Y65069875D01*
X7693214Y64991234D01*
X7553073Y64889415D01*
X7430585Y64766927D01*
X7328766Y64626786D01*
X7250125Y64472442D01*
X7250123Y64472439D01*
X7196598Y64307707D01*
X7196597Y64307703D01*
X7169500Y64136615D01*
X7169500Y63963386D01*
X7196597Y63792298D01*
X7196598Y63792294D01*
X7250123Y63627562D01*
X7250125Y63627559D01*
X7250126Y63627556D01*
X7250127Y63627555D01*
X7328768Y63473212D01*
X7430586Y63333072D01*
X7553072Y63210586D01*
X7693212Y63108768D01*
X7847555Y63030127D01*
X7847557Y63030127D01*
X7847558Y63030126D01*
X7847561Y63030124D01*
X8012293Y62976599D01*
X8012297Y62976598D01*
X8183386Y62949500D01*
X8183389Y62949500D01*
X8356614Y62949500D01*
X8527702Y62976598D01*
X8527706Y62976599D01*
X8692438Y63030124D01*
X8692440Y63030126D01*
X8692445Y63030127D01*
X8846788Y63108768D01*
X8986928Y63210586D01*
X9109414Y63333072D01*
X9211232Y63473212D01*
X9289873Y63627555D01*
X9289874Y63627560D01*
X9289876Y63627562D01*
X9343401Y63792294D01*
X9343402Y63792298D01*
X9370500Y63963386D01*
X9370500Y64136614D01*
X9363303Y64182053D01*
X9372874Y64242485D01*
X9416139Y64285749D01*
X9476571Y64295321D01*
X9531087Y64267544D01*
X9531088Y64267544D01*
X42320504Y31478129D01*
X42348281Y31423612D01*
X42349500Y31408125D01*
X42349500Y-3698123D01*
X42330593Y-3756314D01*
X42320504Y-3768127D01*
X40168126Y-5920504D01*
X40113609Y-5948281D01*
X40098122Y-5949500D01*
X39452133Y-5949500D01*
X39452129Y-5949500D01*
X39452128Y-5949501D01*
X39444949Y-5950272D01*
X39392519Y-5955908D01*
X39392514Y-5955909D01*
X39257670Y-6006202D01*
X39142458Y-6092450D01*
X39142450Y-6092458D01*
X39056202Y-6207670D01*
X39005910Y-6342511D01*
X39005908Y-6342522D01*
X38999500Y-6402129D01*
X38999500Y-7697866D01*
X38999501Y-7697870D01*
X39005908Y-7757480D01*
X39005909Y-7757485D01*
X39056202Y-7892329D01*
X39142450Y-8007541D01*
X39142454Y-8007546D01*
X39257669Y-8093796D01*
X39285093Y-8104024D01*
X39333009Y-8142073D01*
X39349500Y-8196783D01*
X39349500Y-8743150D01*
X39330593Y-8801341D01*
X39320504Y-8813153D01*
X39260588Y-8873069D01*
X39158766Y-9013214D01*
X39080125Y-9167558D01*
X39080123Y-9167561D01*
X39026598Y-9332293D01*
X39026597Y-9332297D01*
X38999500Y-9503385D01*
X38999500Y-9676614D01*
X39026597Y-9847702D01*
X39026598Y-9847706D01*
X39080123Y-10012438D01*
X39080125Y-10012441D01*
X39080126Y-10012444D01*
X39080127Y-10012445D01*
X39158768Y-10166788D01*
X39260586Y-10306928D01*
X39383072Y-10429414D01*
X39523212Y-10531232D01*
X39677555Y-10609873D01*
X39677557Y-10609873D01*
X39677558Y-10609874D01*
X39677561Y-10609876D01*
X39842293Y-10663401D01*
X39842297Y-10663402D01*
X40013386Y-10690500D01*
X40013389Y-10690500D01*
X40186614Y-10690500D01*
X40357702Y-10663402D01*
X40357706Y-10663401D01*
X40522438Y-10609876D01*
X40522440Y-10609874D01*
X40522445Y-10609873D01*
X40676788Y-10531232D01*
X40816928Y-10429414D01*
X40939414Y-10306928D01*
X41041232Y-10166788D01*
X41119873Y-10012445D01*
X41119874Y-10012440D01*
X41119876Y-10012438D01*
X41173401Y-9847706D01*
X41173402Y-9847702D01*
X41200500Y-9676614D01*
X41200500Y-9503385D01*
X41173402Y-9332297D01*
X41173401Y-9332293D01*
X41119876Y-9167561D01*
X41119874Y-9167558D01*
X41119873Y-9167557D01*
X41119873Y-9167555D01*
X41041232Y-9013212D01*
X40939414Y-8873072D01*
X40939411Y-8873069D01*
X40879496Y-8813153D01*
X40851719Y-8758636D01*
X40850500Y-8743150D01*
X40850500Y-8196783D01*
X40869407Y-8138592D01*
X40914906Y-8104024D01*
X40942331Y-8093796D01*
X41057546Y-8007546D01*
X41143796Y-7892331D01*
X41194091Y-7757483D01*
X41200500Y-7697873D01*
X41200499Y-7051874D01*
X41219406Y-6993684D01*
X41229489Y-6981877D01*
X43682952Y-4528415D01*
X43710205Y-4487627D01*
X43765084Y-4405495D01*
X43788518Y-4348920D01*
X43821659Y-4268912D01*
X43850500Y-4123917D01*
X43850500Y-3976082D01*
X43850500Y4000500D01*
X43869407Y4058691D01*
X43918907Y4094655D01*
X43949500Y4099500D01*
X47773917Y4099500D01*
X47773918Y4099500D01*
X47918913Y4128342D01*
X48055495Y4184916D01*
X48104729Y4217814D01*
X48178416Y4267048D01*
X50832952Y6921585D01*
X50860205Y6962373D01*
X50915084Y7044505D01*
X50938518Y7101080D01*
X50971659Y7181088D01*
X50994763Y7297241D01*
X51000500Y7326082D01*
X51000500Y11223918D01*
X50971658Y11368913D01*
X50915084Y11505495D01*
X50832951Y11628416D01*
X50794439Y11666928D01*
X50728416Y11732952D01*
X50728416Y11732951D01*
X49179496Y13281872D01*
X49151719Y13336389D01*
X49150500Y13351876D01*
X49150500Y14548124D01*
X49169407Y14606315D01*
X49179496Y14618128D01*
X51980996Y17419628D01*
X52035513Y17447405D01*
X52095945Y17437834D01*
X52139210Y17394569D01*
X52150000Y17349624D01*
X52150000Y-14600500D01*
X52131093Y-14658691D01*
X52081593Y-14694655D01*
X52051000Y-14699500D01*
X399500Y-14699500D01*
X341309Y-14680593D01*
X305345Y-14631093D01*
X300500Y-14600500D01*
X300500Y-10881987D01*
X2199500Y-10881987D01*
X2199500Y-11118012D01*
X2230306Y-11352006D01*
X2230306Y-11352011D01*
X2291393Y-11579992D01*
X2381713Y-11798044D01*
X2499729Y-12002453D01*
X2643402Y-12189692D01*
X2643404Y-12189694D01*
X2643408Y-12189699D01*
X2810301Y-12356592D01*
X2810305Y-12356595D01*
X2810307Y-12356597D01*
X2997546Y-12500270D01*
X2997550Y-12500273D01*
X3201951Y-12618284D01*
X3201952Y-12618284D01*
X3201955Y-12618286D01*
X3420007Y-12708606D01*
X3647986Y-12769693D01*
X3881989Y-12800500D01*
X3881990Y-12800500D01*
X4118010Y-12800500D01*
X4118011Y-12800500D01*
X4352014Y-12769693D01*
X4579993Y-12708606D01*
X4798049Y-12618284D01*
X5002450Y-12500273D01*
X5189699Y-12356592D01*
X5356592Y-12189699D01*
X5500273Y-12002450D01*
X5618284Y-11798049D01*
X5708606Y-11579993D01*
X5769693Y-11352014D01*
X5800500Y-11118011D01*
X5800500Y-10881989D01*
X5769693Y-10647986D01*
X5708606Y-10420007D01*
X5618284Y-10201951D01*
X5500273Y-9997550D01*
X5500270Y-9997546D01*
X5356597Y-9810307D01*
X5356595Y-9810305D01*
X5356592Y-9810301D01*
X5189699Y-9643408D01*
X5189694Y-9643404D01*
X5189692Y-9643402D01*
X5104511Y-9578041D01*
X5007218Y-9503385D01*
X28839500Y-9503385D01*
X28839500Y-9676614D01*
X28866597Y-9847702D01*
X28866598Y-9847706D01*
X28920123Y-10012438D01*
X28920125Y-10012441D01*
X28920126Y-10012444D01*
X28920127Y-10012445D01*
X28998768Y-10166788D01*
X29100586Y-10306928D01*
X29223072Y-10429414D01*
X29363212Y-10531232D01*
X29517555Y-10609873D01*
X29517557Y-10609873D01*
X29517558Y-10609874D01*
X29517561Y-10609876D01*
X29682293Y-10663401D01*
X29682297Y-10663402D01*
X29853386Y-10690500D01*
X29853389Y-10690500D01*
X30026614Y-10690500D01*
X30197702Y-10663402D01*
X30197706Y-10663401D01*
X30362438Y-10609876D01*
X30362440Y-10609874D01*
X30362445Y-10609873D01*
X30516788Y-10531232D01*
X30656928Y-10429414D01*
X30779414Y-10306928D01*
X30881232Y-10166788D01*
X30959873Y-10012445D01*
X30959874Y-10012440D01*
X30959876Y-10012438D01*
X31013401Y-9847706D01*
X31013402Y-9847702D01*
X31040500Y-9676614D01*
X31040500Y-9503385D01*
X31379500Y-9503385D01*
X31379500Y-9676614D01*
X31406597Y-9847702D01*
X31406598Y-9847706D01*
X31460123Y-10012438D01*
X31460125Y-10012441D01*
X31460126Y-10012444D01*
X31460127Y-10012445D01*
X31538768Y-10166788D01*
X31640586Y-10306928D01*
X31763072Y-10429414D01*
X31903212Y-10531232D01*
X32057555Y-10609873D01*
X32057557Y-10609873D01*
X32057558Y-10609874D01*
X32057561Y-10609876D01*
X32222293Y-10663401D01*
X32222297Y-10663402D01*
X32393386Y-10690500D01*
X32393389Y-10690500D01*
X32566614Y-10690500D01*
X32737702Y-10663402D01*
X32737706Y-10663401D01*
X32902438Y-10609876D01*
X32902440Y-10609874D01*
X32902445Y-10609873D01*
X33056788Y-10531232D01*
X33196928Y-10429414D01*
X33319414Y-10306928D01*
X33421232Y-10166788D01*
X33499873Y-10012445D01*
X33499874Y-10012440D01*
X33499876Y-10012438D01*
X33553401Y-9847706D01*
X33553402Y-9847702D01*
X33580500Y-9676614D01*
X33580500Y-9503385D01*
X33919500Y-9503385D01*
X33919500Y-9676614D01*
X33946597Y-9847702D01*
X33946598Y-9847706D01*
X34000123Y-10012438D01*
X34000125Y-10012441D01*
X34000126Y-10012444D01*
X34000127Y-10012445D01*
X34078768Y-10166788D01*
X34180586Y-10306928D01*
X34303072Y-10429414D01*
X34443212Y-10531232D01*
X34597555Y-10609873D01*
X34597557Y-10609873D01*
X34597558Y-10609874D01*
X34597561Y-10609876D01*
X34762293Y-10663401D01*
X34762297Y-10663402D01*
X34933386Y-10690500D01*
X34933389Y-10690500D01*
X35106614Y-10690500D01*
X35277702Y-10663402D01*
X35277706Y-10663401D01*
X35442438Y-10609876D01*
X35442440Y-10609874D01*
X35442445Y-10609873D01*
X35596788Y-10531232D01*
X35736928Y-10429414D01*
X35859414Y-10306928D01*
X35961232Y-10166788D01*
X36039873Y-10012445D01*
X36039874Y-10012440D01*
X36039876Y-10012438D01*
X36093401Y-9847706D01*
X36093402Y-9847702D01*
X36120500Y-9676614D01*
X36120500Y-9503385D01*
X36459500Y-9503385D01*
X36459500Y-9676614D01*
X36486597Y-9847702D01*
X36486598Y-9847706D01*
X36540123Y-10012438D01*
X36540125Y-10012441D01*
X36540126Y-10012444D01*
X36540127Y-10012445D01*
X36618768Y-10166788D01*
X36720586Y-10306928D01*
X36843072Y-10429414D01*
X36983212Y-10531232D01*
X37137555Y-10609873D01*
X37137557Y-10609873D01*
X37137558Y-10609874D01*
X37137561Y-10609876D01*
X37302293Y-10663401D01*
X37302297Y-10663402D01*
X37473386Y-10690500D01*
X37473389Y-10690500D01*
X37646614Y-10690500D01*
X37817702Y-10663402D01*
X37817706Y-10663401D01*
X37982438Y-10609876D01*
X37982440Y-10609874D01*
X37982445Y-10609873D01*
X38136788Y-10531232D01*
X38276928Y-10429414D01*
X38399414Y-10306928D01*
X38501232Y-10166788D01*
X38579873Y-10012445D01*
X38579874Y-10012440D01*
X38579876Y-10012438D01*
X38633401Y-9847706D01*
X38633402Y-9847702D01*
X38660500Y-9676614D01*
X38660500Y-9503385D01*
X38633402Y-9332297D01*
X38633401Y-9332293D01*
X38579876Y-9167561D01*
X38579874Y-9167558D01*
X38579873Y-9167557D01*
X38579873Y-9167555D01*
X38501232Y-9013212D01*
X38399414Y-8873072D01*
X38276928Y-8750586D01*
X38136788Y-8648768D01*
X38136787Y-8648767D01*
X38136785Y-8648766D01*
X37982441Y-8570125D01*
X37982438Y-8570123D01*
X37817706Y-8516598D01*
X37817702Y-8516597D01*
X37646614Y-8489500D01*
X37646611Y-8489500D01*
X37473389Y-8489500D01*
X37473386Y-8489500D01*
X37302297Y-8516597D01*
X37302293Y-8516598D01*
X37137561Y-8570123D01*
X37137558Y-8570125D01*
X36983214Y-8648766D01*
X36843073Y-8750585D01*
X36720585Y-8873073D01*
X36618766Y-9013214D01*
X36540125Y-9167558D01*
X36540123Y-9167561D01*
X36486598Y-9332293D01*
X36486597Y-9332297D01*
X36459500Y-9503385D01*
X36120500Y-9503385D01*
X36093402Y-9332297D01*
X36093401Y-9332293D01*
X36039876Y-9167561D01*
X36039874Y-9167558D01*
X36039873Y-9167557D01*
X36039873Y-9167555D01*
X35961232Y-9013212D01*
X35859414Y-8873072D01*
X35736928Y-8750586D01*
X35596788Y-8648768D01*
X35596787Y-8648767D01*
X35596785Y-8648766D01*
X35442441Y-8570125D01*
X35442438Y-8570123D01*
X35277706Y-8516598D01*
X35277702Y-8516597D01*
X35106614Y-8489500D01*
X35106611Y-8489500D01*
X34933389Y-8489500D01*
X34933386Y-8489500D01*
X34762297Y-8516597D01*
X34762293Y-8516598D01*
X34597561Y-8570123D01*
X34597558Y-8570125D01*
X34443214Y-8648766D01*
X34303073Y-8750585D01*
X34180585Y-8873073D01*
X34078766Y-9013214D01*
X34000125Y-9167558D01*
X34000123Y-9167561D01*
X33946598Y-9332293D01*
X33946597Y-9332297D01*
X33919500Y-9503385D01*
X33580500Y-9503385D01*
X33553402Y-9332297D01*
X33553401Y-9332293D01*
X33499876Y-9167561D01*
X33499874Y-9167558D01*
X33499873Y-9167557D01*
X33499873Y-9167555D01*
X33421232Y-9013212D01*
X33319414Y-8873072D01*
X33196928Y-8750586D01*
X33056788Y-8648768D01*
X33056787Y-8648767D01*
X33056785Y-8648766D01*
X32902441Y-8570125D01*
X32902438Y-8570123D01*
X32737706Y-8516598D01*
X32737702Y-8516597D01*
X32566614Y-8489500D01*
X32566611Y-8489500D01*
X32393389Y-8489500D01*
X32393386Y-8489500D01*
X32222297Y-8516597D01*
X32222293Y-8516598D01*
X32057561Y-8570123D01*
X32057558Y-8570125D01*
X31903214Y-8648766D01*
X31763073Y-8750585D01*
X31640585Y-8873073D01*
X31538766Y-9013214D01*
X31460125Y-9167558D01*
X31460123Y-9167561D01*
X31406598Y-9332293D01*
X31406597Y-9332297D01*
X31379500Y-9503385D01*
X31040500Y-9503385D01*
X31013402Y-9332297D01*
X31013401Y-9332293D01*
X30959876Y-9167561D01*
X30959874Y-9167558D01*
X30959873Y-9167557D01*
X30959873Y-9167555D01*
X30881232Y-9013212D01*
X30779414Y-8873072D01*
X30656928Y-8750586D01*
X30516788Y-8648768D01*
X30516787Y-8648767D01*
X30516785Y-8648766D01*
X30362441Y-8570125D01*
X30362438Y-8570123D01*
X30197706Y-8516598D01*
X30197702Y-8516597D01*
X30026614Y-8489500D01*
X30026611Y-8489500D01*
X29853389Y-8489500D01*
X29853386Y-8489500D01*
X29682297Y-8516597D01*
X29682293Y-8516598D01*
X29517561Y-8570123D01*
X29517558Y-8570125D01*
X29363214Y-8648766D01*
X29223073Y-8750585D01*
X29100585Y-8873073D01*
X28998766Y-9013214D01*
X28920125Y-9167558D01*
X28920123Y-9167561D01*
X28866598Y-9332293D01*
X28866597Y-9332297D01*
X28839500Y-9503385D01*
X5007218Y-9503385D01*
X5002453Y-9499729D01*
X4798044Y-9381713D01*
X4579992Y-9291393D01*
X4424277Y-9249670D01*
X4352014Y-9230307D01*
X4352011Y-9230306D01*
X4352009Y-9230306D01*
X4118012Y-9199500D01*
X4118011Y-9199500D01*
X3881989Y-9199500D01*
X3881987Y-9199500D01*
X3647993Y-9230306D01*
X3647988Y-9230306D01*
X3420007Y-9291393D01*
X3201955Y-9381713D01*
X2997546Y-9499729D01*
X2810307Y-9643402D01*
X2643402Y-9810307D01*
X2499729Y-9997546D01*
X2381713Y-10201955D01*
X2291393Y-10420007D01*
X2230306Y-10647988D01*
X2230306Y-10647993D01*
X2199500Y-10881987D01*
X300500Y-10881987D01*
X300500Y-6963385D01*
X28839500Y-6963385D01*
X28839500Y-7136614D01*
X28866597Y-7307702D01*
X28866598Y-7307706D01*
X28920123Y-7472438D01*
X28920125Y-7472441D01*
X28920126Y-7472444D01*
X28920127Y-7472445D01*
X28998768Y-7626788D01*
X29100586Y-7766928D01*
X29223072Y-7889414D01*
X29363212Y-7991232D01*
X29517555Y-8069873D01*
X29517557Y-8069873D01*
X29517558Y-8069874D01*
X29517561Y-8069876D01*
X29682293Y-8123401D01*
X29682297Y-8123402D01*
X29853386Y-8150500D01*
X29853389Y-8150500D01*
X30026614Y-8150500D01*
X30197702Y-8123402D01*
X30197706Y-8123401D01*
X30362438Y-8069876D01*
X30362440Y-8069874D01*
X30362445Y-8069873D01*
X30516788Y-7991232D01*
X30656928Y-7889414D01*
X30779414Y-7766928D01*
X30881232Y-7626788D01*
X30959873Y-7472445D01*
X30959874Y-7472440D01*
X30959876Y-7472438D01*
X31013401Y-7307706D01*
X31013402Y-7307702D01*
X31040500Y-7136614D01*
X31040500Y-6963385D01*
X31379500Y-6963385D01*
X31379500Y-7136614D01*
X31406597Y-7307702D01*
X31406598Y-7307706D01*
X31460123Y-7472438D01*
X31460125Y-7472441D01*
X31460126Y-7472444D01*
X31460127Y-7472445D01*
X31538768Y-7626788D01*
X31640586Y-7766928D01*
X31763072Y-7889414D01*
X31903212Y-7991232D01*
X32057555Y-8069873D01*
X32057557Y-8069873D01*
X32057558Y-8069874D01*
X32057561Y-8069876D01*
X32222293Y-8123401D01*
X32222297Y-8123402D01*
X32393386Y-8150500D01*
X32393389Y-8150500D01*
X32566614Y-8150500D01*
X32737702Y-8123402D01*
X32737706Y-8123401D01*
X32902438Y-8069876D01*
X32902440Y-8069874D01*
X32902445Y-8069873D01*
X33056788Y-7991232D01*
X33196928Y-7889414D01*
X33319414Y-7766928D01*
X33421232Y-7626788D01*
X33499873Y-7472445D01*
X33499874Y-7472440D01*
X33499876Y-7472438D01*
X33553401Y-7307706D01*
X33553402Y-7307702D01*
X33580500Y-7136614D01*
X33580500Y-6963385D01*
X33919501Y-6963385D01*
X33919501Y-7136614D01*
X33946598Y-7307702D01*
X33946599Y-7307706D01*
X34000124Y-7472438D01*
X34000126Y-7472441D01*
X34000127Y-7472444D01*
X34000128Y-7472445D01*
X34078769Y-7626788D01*
X34180587Y-7766928D01*
X34303073Y-7889414D01*
X34443213Y-7991232D01*
X34597556Y-8069873D01*
X34597558Y-8069873D01*
X34597559Y-8069874D01*
X34597562Y-8069876D01*
X34762294Y-8123401D01*
X34762298Y-8123402D01*
X34933387Y-8150500D01*
X34933390Y-8150500D01*
X35106615Y-8150500D01*
X35277703Y-8123402D01*
X35277707Y-8123401D01*
X35442439Y-8069876D01*
X35442441Y-8069874D01*
X35442446Y-8069873D01*
X35596789Y-7991232D01*
X35736929Y-7889414D01*
X35859415Y-7766928D01*
X35961233Y-7626788D01*
X36039874Y-7472445D01*
X36039875Y-7472440D01*
X36039877Y-7472438D01*
X36093402Y-7307706D01*
X36093403Y-7307702D01*
X36120501Y-7136614D01*
X36120501Y-6963385D01*
X36459500Y-6963385D01*
X36459500Y-7136614D01*
X36486597Y-7307702D01*
X36486598Y-7307706D01*
X36540123Y-7472438D01*
X36540125Y-7472441D01*
X36540126Y-7472444D01*
X36540127Y-7472445D01*
X36618768Y-7626788D01*
X36720586Y-7766928D01*
X36843072Y-7889414D01*
X36983212Y-7991232D01*
X37137555Y-8069873D01*
X37137557Y-8069873D01*
X37137558Y-8069874D01*
X37137561Y-8069876D01*
X37302293Y-8123401D01*
X37302297Y-8123402D01*
X37473386Y-8150500D01*
X37473389Y-8150500D01*
X37646614Y-8150500D01*
X37817702Y-8123402D01*
X37817706Y-8123401D01*
X37982438Y-8069876D01*
X37982440Y-8069874D01*
X37982445Y-8069873D01*
X38136788Y-7991232D01*
X38276928Y-7889414D01*
X38399414Y-7766928D01*
X38501232Y-7626788D01*
X38579873Y-7472445D01*
X38579874Y-7472440D01*
X38579876Y-7472438D01*
X38633401Y-7307706D01*
X38633402Y-7307702D01*
X38660500Y-7136614D01*
X38660500Y-6963385D01*
X38633402Y-6792297D01*
X38633401Y-6792293D01*
X38579876Y-6627561D01*
X38579874Y-6627558D01*
X38579873Y-6627557D01*
X38579873Y-6627555D01*
X38501232Y-6473212D01*
X38399414Y-6333072D01*
X38276928Y-6210586D01*
X38136788Y-6108768D01*
X38136787Y-6108767D01*
X38136785Y-6108766D01*
X37982441Y-6030125D01*
X37982438Y-6030123D01*
X37817706Y-5976598D01*
X37817702Y-5976597D01*
X37646614Y-5949500D01*
X37646611Y-5949500D01*
X37473389Y-5949500D01*
X37473386Y-5949500D01*
X37302297Y-5976597D01*
X37302293Y-5976598D01*
X37137561Y-6030123D01*
X37137558Y-6030125D01*
X36983214Y-6108766D01*
X36843073Y-6210585D01*
X36720585Y-6333073D01*
X36618766Y-6473214D01*
X36540125Y-6627558D01*
X36540123Y-6627561D01*
X36486598Y-6792293D01*
X36486597Y-6792297D01*
X36459500Y-6963385D01*
X36120501Y-6963385D01*
X36093403Y-6792297D01*
X36093402Y-6792293D01*
X36039877Y-6627561D01*
X36039875Y-6627558D01*
X36039874Y-6627557D01*
X36039874Y-6627555D01*
X35961233Y-6473212D01*
X35859415Y-6333072D01*
X35736929Y-6210586D01*
X35596789Y-6108768D01*
X35596788Y-6108767D01*
X35596786Y-6108766D01*
X35442442Y-6030125D01*
X35442439Y-6030123D01*
X35277707Y-5976598D01*
X35277703Y-5976597D01*
X35106615Y-5949500D01*
X35106612Y-5949500D01*
X34933390Y-5949500D01*
X34933387Y-5949500D01*
X34762298Y-5976597D01*
X34762294Y-5976598D01*
X34597562Y-6030123D01*
X34597559Y-6030125D01*
X34443215Y-6108766D01*
X34303074Y-6210585D01*
X34180586Y-6333073D01*
X34078767Y-6473214D01*
X34000126Y-6627558D01*
X34000124Y-6627561D01*
X33946599Y-6792293D01*
X33946598Y-6792297D01*
X33919501Y-6963385D01*
X33580500Y-6963385D01*
X33553402Y-6792297D01*
X33553401Y-6792293D01*
X33499876Y-6627561D01*
X33499874Y-6627558D01*
X33499873Y-6627557D01*
X33499873Y-6627555D01*
X33421232Y-6473212D01*
X33319414Y-6333072D01*
X33196928Y-6210586D01*
X33056788Y-6108768D01*
X33056787Y-6108767D01*
X33056785Y-6108766D01*
X32902441Y-6030125D01*
X32902438Y-6030123D01*
X32737706Y-5976598D01*
X32737702Y-5976597D01*
X32566614Y-5949500D01*
X32566611Y-5949500D01*
X32393389Y-5949500D01*
X32393386Y-5949500D01*
X32222297Y-5976597D01*
X32222293Y-5976598D01*
X32057561Y-6030123D01*
X32057558Y-6030125D01*
X31903214Y-6108766D01*
X31763073Y-6210585D01*
X31640585Y-6333073D01*
X31538766Y-6473214D01*
X31460125Y-6627558D01*
X31460123Y-6627561D01*
X31406598Y-6792293D01*
X31406597Y-6792297D01*
X31379500Y-6963385D01*
X31040500Y-6963385D01*
X31013402Y-6792297D01*
X31013401Y-6792293D01*
X30959876Y-6627561D01*
X30959874Y-6627558D01*
X30959873Y-6627557D01*
X30959873Y-6627555D01*
X30881232Y-6473212D01*
X30779414Y-6333072D01*
X30656928Y-6210586D01*
X30516788Y-6108768D01*
X30516787Y-6108767D01*
X30516785Y-6108766D01*
X30362441Y-6030125D01*
X30362438Y-6030123D01*
X30197706Y-5976598D01*
X30197702Y-5976597D01*
X30026614Y-5949500D01*
X30026611Y-5949500D01*
X29853389Y-5949500D01*
X29853386Y-5949500D01*
X29682297Y-5976597D01*
X29682293Y-5976598D01*
X29517561Y-6030123D01*
X29517558Y-6030125D01*
X29363214Y-6108766D01*
X29223073Y-6210585D01*
X29100585Y-6333073D01*
X28998766Y-6473214D01*
X28920125Y-6627558D01*
X28920123Y-6627561D01*
X28866598Y-6792293D01*
X28866597Y-6792297D01*
X28839500Y-6963385D01*
X300500Y-6963385D01*
X300500Y20956615D01*
X7169500Y20956615D01*
X7169500Y20783386D01*
X7196597Y20612298D01*
X7196598Y20612294D01*
X7250123Y20447562D01*
X7250125Y20447559D01*
X7250126Y20447556D01*
X7250127Y20447555D01*
X7328768Y20293212D01*
X7430586Y20153072D01*
X7553072Y20030586D01*
X7693212Y19928768D01*
X7847555Y19850127D01*
X7847557Y19850127D01*
X7847558Y19850126D01*
X7847561Y19850124D01*
X8012293Y19796599D01*
X8012297Y19796598D01*
X8183386Y19769500D01*
X8183389Y19769500D01*
X8356614Y19769500D01*
X8527702Y19796598D01*
X8527706Y19796599D01*
X8692438Y19850124D01*
X8692440Y19850126D01*
X8692445Y19850127D01*
X8846788Y19928768D01*
X8986928Y20030586D01*
X9109414Y20153072D01*
X9211232Y20293212D01*
X9289873Y20447555D01*
X9289874Y20447560D01*
X9289876Y20447562D01*
X9343401Y20612294D01*
X9343402Y20612298D01*
X9370500Y20783386D01*
X9370500Y20956615D01*
X9343402Y21127703D01*
X9343401Y21127707D01*
X9289876Y21292439D01*
X9289874Y21292442D01*
X9289873Y21292443D01*
X9289873Y21292445D01*
X9211232Y21446788D01*
X9109414Y21586928D01*
X8986928Y21709414D01*
X8846788Y21811232D01*
X8846787Y21811233D01*
X8846785Y21811234D01*
X8692441Y21889875D01*
X8692438Y21889877D01*
X8527706Y21943402D01*
X8527702Y21943403D01*
X8356614Y21970500D01*
X8356611Y21970500D01*
X8183389Y21970500D01*
X8183386Y21970500D01*
X8012297Y21943403D01*
X8012293Y21943402D01*
X7847561Y21889877D01*
X7847558Y21889875D01*
X7693214Y21811234D01*
X7553073Y21709415D01*
X7430585Y21586927D01*
X7328766Y21446786D01*
X7250125Y21292442D01*
X7250123Y21292439D01*
X7196598Y21127707D01*
X7196597Y21127703D01*
X7169500Y20956615D01*
X300500Y20956615D01*
X300500Y23496615D01*
X7169500Y23496615D01*
X7169500Y23323386D01*
X7196597Y23152298D01*
X7196598Y23152294D01*
X7250123Y22987562D01*
X7250125Y22987559D01*
X7250126Y22987556D01*
X7250127Y22987555D01*
X7328768Y22833212D01*
X7430586Y22693072D01*
X7553072Y22570586D01*
X7693212Y22468768D01*
X7847555Y22390127D01*
X7847557Y22390127D01*
X7847558Y22390126D01*
X7847561Y22390124D01*
X8012293Y22336599D01*
X8012297Y22336598D01*
X8183386Y22309500D01*
X8183389Y22309500D01*
X8356614Y22309500D01*
X8527702Y22336598D01*
X8527706Y22336599D01*
X8692438Y22390124D01*
X8692440Y22390126D01*
X8692445Y22390127D01*
X8846788Y22468768D01*
X8986928Y22570586D01*
X9109414Y22693072D01*
X9211232Y22833212D01*
X9289873Y22987555D01*
X9289874Y22987560D01*
X9289876Y22987562D01*
X9343401Y23152294D01*
X9343402Y23152298D01*
X9370500Y23323386D01*
X9370500Y23496615D01*
X9343402Y23667703D01*
X9343401Y23667707D01*
X9289876Y23832439D01*
X9289874Y23832442D01*
X9289873Y23832443D01*
X9289873Y23832445D01*
X9211232Y23986788D01*
X9109414Y24126928D01*
X8986928Y24249414D01*
X8846788Y24351232D01*
X8846787Y24351233D01*
X8846785Y24351234D01*
X8692441Y24429875D01*
X8692438Y24429877D01*
X8527706Y24483402D01*
X8527702Y24483403D01*
X8356614Y24510500D01*
X8356611Y24510500D01*
X8183389Y24510500D01*
X8183386Y24510500D01*
X8012297Y24483403D01*
X8012293Y24483402D01*
X7847561Y24429877D01*
X7847558Y24429875D01*
X7693214Y24351234D01*
X7553073Y24249415D01*
X7430585Y24126927D01*
X7328766Y23986786D01*
X7250125Y23832442D01*
X7250123Y23832439D01*
X7196598Y23667707D01*
X7196597Y23667703D01*
X7169500Y23496615D01*
X300500Y23496615D01*
X300500Y26036615D01*
X7169500Y26036615D01*
X7169500Y25863386D01*
X7196597Y25692298D01*
X7196598Y25692294D01*
X7250123Y25527562D01*
X7250125Y25527559D01*
X7250126Y25527556D01*
X7250127Y25527555D01*
X7328768Y25373212D01*
X7430586Y25233072D01*
X7553072Y25110586D01*
X7693212Y25008768D01*
X7847555Y24930127D01*
X7847557Y24930127D01*
X7847558Y24930126D01*
X7847561Y24930124D01*
X8012293Y24876599D01*
X8012297Y24876598D01*
X8183386Y24849500D01*
X8183389Y24849500D01*
X8356614Y24849500D01*
X8527702Y24876598D01*
X8527706Y24876599D01*
X8692438Y24930124D01*
X8692440Y24930126D01*
X8692445Y24930127D01*
X8846788Y25008768D01*
X8986928Y25110586D01*
X9109414Y25233072D01*
X9211232Y25373212D01*
X9289873Y25527555D01*
X9289874Y25527560D01*
X9289876Y25527562D01*
X9343401Y25692294D01*
X9343402Y25692298D01*
X9370500Y25863386D01*
X9370500Y26036615D01*
X9343402Y26207703D01*
X9343401Y26207707D01*
X9289876Y26372439D01*
X9289874Y26372442D01*
X9289873Y26372443D01*
X9289873Y26372445D01*
X9211232Y26526788D01*
X9109414Y26666928D01*
X8986928Y26789414D01*
X8846788Y26891232D01*
X8846787Y26891233D01*
X8846785Y26891234D01*
X8692441Y26969875D01*
X8692438Y26969877D01*
X8527706Y27023402D01*
X8527702Y27023403D01*
X8356614Y27050500D01*
X8356611Y27050500D01*
X8183389Y27050500D01*
X8183386Y27050500D01*
X8012297Y27023403D01*
X8012293Y27023402D01*
X7847561Y26969877D01*
X7847558Y26969875D01*
X7693214Y26891234D01*
X7553073Y26789415D01*
X7430585Y26666927D01*
X7328766Y26526786D01*
X7250125Y26372442D01*
X7250123Y26372439D01*
X7196598Y26207707D01*
X7196597Y26207703D01*
X7169500Y26036615D01*
X300500Y26036615D01*
X300500Y28576615D01*
X7169500Y28576615D01*
X7169500Y28403386D01*
X7196597Y28232298D01*
X7196598Y28232294D01*
X7250123Y28067562D01*
X7250125Y28067559D01*
X7250126Y28067556D01*
X7250127Y28067555D01*
X7328768Y27913212D01*
X7430586Y27773072D01*
X7553072Y27650586D01*
X7693212Y27548768D01*
X7847555Y27470127D01*
X7847557Y27470127D01*
X7847558Y27470126D01*
X7847561Y27470124D01*
X8012293Y27416599D01*
X8012297Y27416598D01*
X8183386Y27389500D01*
X8183389Y27389500D01*
X8356614Y27389500D01*
X8527702Y27416598D01*
X8527706Y27416599D01*
X8692438Y27470124D01*
X8692440Y27470126D01*
X8692445Y27470127D01*
X8846788Y27548768D01*
X8986928Y27650586D01*
X9109414Y27773072D01*
X9211232Y27913212D01*
X9289873Y28067555D01*
X9289874Y28067560D01*
X9289876Y28067562D01*
X9343401Y28232294D01*
X9343402Y28232298D01*
X9370500Y28403386D01*
X9370500Y28576615D01*
X9343402Y28747703D01*
X9343401Y28747707D01*
X9289876Y28912439D01*
X9289874Y28912442D01*
X9289873Y28912443D01*
X9289873Y28912445D01*
X9211232Y29066788D01*
X9109414Y29206928D01*
X8986928Y29329414D01*
X8846788Y29431232D01*
X8846787Y29431233D01*
X8846785Y29431234D01*
X8692441Y29509875D01*
X8692438Y29509877D01*
X8527706Y29563402D01*
X8527702Y29563403D01*
X8356614Y29590500D01*
X8356611Y29590500D01*
X8183389Y29590500D01*
X8183386Y29590500D01*
X8012297Y29563403D01*
X8012293Y29563402D01*
X7847561Y29509877D01*
X7847558Y29509875D01*
X7693214Y29431234D01*
X7553073Y29329415D01*
X7430585Y29206927D01*
X7328766Y29066786D01*
X7250125Y28912442D01*
X7250123Y28912439D01*
X7196598Y28747707D01*
X7196597Y28747703D01*
X7169500Y28576615D01*
X300500Y28576615D01*
X300500Y31116615D01*
X7169500Y31116615D01*
X7169500Y30943386D01*
X7196597Y30772298D01*
X7196598Y30772294D01*
X7250123Y30607562D01*
X7250125Y30607559D01*
X7250126Y30607556D01*
X7250127Y30607555D01*
X7328768Y30453212D01*
X7430586Y30313072D01*
X7553072Y30190586D01*
X7693212Y30088768D01*
X7847555Y30010127D01*
X7847557Y30010127D01*
X7847558Y30010126D01*
X7847561Y30010124D01*
X8012293Y29956599D01*
X8012297Y29956598D01*
X8183386Y29929500D01*
X8183389Y29929500D01*
X8356614Y29929500D01*
X8527702Y29956598D01*
X8527706Y29956599D01*
X8692438Y30010124D01*
X8692440Y30010126D01*
X8692445Y30010127D01*
X8846788Y30088768D01*
X8986928Y30190586D01*
X9109414Y30313072D01*
X9211232Y30453212D01*
X9289873Y30607555D01*
X9289874Y30607560D01*
X9289876Y30607562D01*
X9343401Y30772294D01*
X9343402Y30772298D01*
X9370500Y30943386D01*
X9370500Y31116615D01*
X9343402Y31287703D01*
X9343401Y31287707D01*
X9289876Y31452439D01*
X9289874Y31452442D01*
X9289873Y31452443D01*
X9289873Y31452445D01*
X9211232Y31606788D01*
X9109414Y31746928D01*
X8986928Y31869414D01*
X8846788Y31971232D01*
X8846787Y31971233D01*
X8846785Y31971234D01*
X8692441Y32049875D01*
X8692438Y32049877D01*
X8527706Y32103402D01*
X8527702Y32103403D01*
X8356614Y32130500D01*
X8356611Y32130500D01*
X8183389Y32130500D01*
X8183386Y32130500D01*
X8012297Y32103403D01*
X8012293Y32103402D01*
X7847561Y32049877D01*
X7847558Y32049875D01*
X7693214Y31971234D01*
X7553073Y31869415D01*
X7430585Y31746927D01*
X7328766Y31606786D01*
X7250125Y31452442D01*
X7250123Y31452439D01*
X7196598Y31287707D01*
X7196597Y31287703D01*
X7169500Y31116615D01*
X300500Y31116615D01*
X300500Y33656615D01*
X7169500Y33656615D01*
X7169500Y33483386D01*
X7196597Y33312298D01*
X7196598Y33312294D01*
X7250123Y33147562D01*
X7250125Y33147559D01*
X7250126Y33147556D01*
X7250127Y33147555D01*
X7328768Y32993212D01*
X7430586Y32853072D01*
X7553072Y32730586D01*
X7693212Y32628768D01*
X7847555Y32550127D01*
X7847557Y32550127D01*
X7847558Y32550126D01*
X7847561Y32550124D01*
X8012293Y32496599D01*
X8012297Y32496598D01*
X8183386Y32469500D01*
X8183389Y32469500D01*
X8356614Y32469500D01*
X8527702Y32496598D01*
X8527706Y32496599D01*
X8692438Y32550124D01*
X8692440Y32550126D01*
X8692445Y32550127D01*
X8846788Y32628768D01*
X8986928Y32730586D01*
X9109414Y32853072D01*
X9211232Y32993212D01*
X9289873Y33147555D01*
X9289874Y33147560D01*
X9289876Y33147562D01*
X9343401Y33312294D01*
X9343402Y33312298D01*
X9370500Y33483386D01*
X9370500Y33656615D01*
X9343402Y33827703D01*
X9343401Y33827707D01*
X9289876Y33992439D01*
X9289874Y33992442D01*
X9289873Y33992443D01*
X9289873Y33992445D01*
X9211232Y34146788D01*
X9109414Y34286928D01*
X8986928Y34409414D01*
X8846788Y34511232D01*
X8846787Y34511233D01*
X8846785Y34511234D01*
X8692441Y34589875D01*
X8692438Y34589877D01*
X8527706Y34643402D01*
X8527702Y34643403D01*
X8356614Y34670500D01*
X8356611Y34670500D01*
X8183389Y34670500D01*
X8183386Y34670500D01*
X8012297Y34643403D01*
X8012293Y34643402D01*
X7847561Y34589877D01*
X7847558Y34589875D01*
X7693214Y34511234D01*
X7553073Y34409415D01*
X7430585Y34286927D01*
X7328766Y34146786D01*
X7250125Y33992442D01*
X7250123Y33992439D01*
X7196598Y33827707D01*
X7196597Y33827703D01*
X7169500Y33656615D01*
X300500Y33656615D01*
X300500Y36196615D01*
X7169500Y36196615D01*
X7169500Y36023386D01*
X7196597Y35852298D01*
X7196598Y35852294D01*
X7250123Y35687562D01*
X7250125Y35687559D01*
X7250126Y35687556D01*
X7250127Y35687555D01*
X7328768Y35533212D01*
X7430586Y35393072D01*
X7553072Y35270586D01*
X7693212Y35168768D01*
X7847555Y35090127D01*
X7847557Y35090127D01*
X7847558Y35090126D01*
X7847561Y35090124D01*
X8012293Y35036599D01*
X8012297Y35036598D01*
X8183386Y35009500D01*
X8183389Y35009500D01*
X8356614Y35009500D01*
X8527702Y35036598D01*
X8527706Y35036599D01*
X8692438Y35090124D01*
X8692440Y35090126D01*
X8692445Y35090127D01*
X8846788Y35168768D01*
X8986928Y35270586D01*
X9109414Y35393072D01*
X9211232Y35533212D01*
X9289873Y35687555D01*
X9289874Y35687560D01*
X9289876Y35687562D01*
X9343401Y35852294D01*
X9343402Y35852298D01*
X9370500Y36023386D01*
X9370500Y36196615D01*
X9343402Y36367703D01*
X9343401Y36367707D01*
X9289876Y36532439D01*
X9289874Y36532442D01*
X9289873Y36532443D01*
X9289873Y36532445D01*
X9211232Y36686788D01*
X9109414Y36826928D01*
X8986928Y36949414D01*
X8846788Y37051232D01*
X8846787Y37051233D01*
X8846785Y37051234D01*
X8692441Y37129875D01*
X8692438Y37129877D01*
X8527706Y37183402D01*
X8527702Y37183403D01*
X8356614Y37210500D01*
X8356611Y37210500D01*
X8183389Y37210500D01*
X8183386Y37210500D01*
X8012297Y37183403D01*
X8012293Y37183402D01*
X7847561Y37129877D01*
X7847558Y37129875D01*
X7693214Y37051234D01*
X7553073Y36949415D01*
X7430585Y36826927D01*
X7328766Y36686786D01*
X7250125Y36532442D01*
X7250123Y36532439D01*
X7196598Y36367707D01*
X7196597Y36367703D01*
X7169500Y36196615D01*
X300500Y36196615D01*
X300500Y38736615D01*
X7169500Y38736615D01*
X7169500Y38563386D01*
X7196597Y38392298D01*
X7196598Y38392294D01*
X7250123Y38227562D01*
X7250125Y38227559D01*
X7250126Y38227556D01*
X7250127Y38227555D01*
X7328768Y38073212D01*
X7430586Y37933072D01*
X7553072Y37810586D01*
X7693212Y37708768D01*
X7847555Y37630127D01*
X7847557Y37630127D01*
X7847558Y37630126D01*
X7847561Y37630124D01*
X8012293Y37576599D01*
X8012297Y37576598D01*
X8183386Y37549500D01*
X8183389Y37549500D01*
X8356614Y37549500D01*
X8527702Y37576598D01*
X8527706Y37576599D01*
X8692438Y37630124D01*
X8692440Y37630126D01*
X8692445Y37630127D01*
X8846788Y37708768D01*
X8986928Y37810586D01*
X9109414Y37933072D01*
X9211232Y38073212D01*
X9289873Y38227555D01*
X9289874Y38227560D01*
X9289876Y38227562D01*
X9343401Y38392294D01*
X9343402Y38392298D01*
X9370500Y38563386D01*
X9370500Y38736615D01*
X9343402Y38907703D01*
X9343401Y38907707D01*
X9289876Y39072439D01*
X9289874Y39072442D01*
X9289873Y39072443D01*
X9289873Y39072445D01*
X9211232Y39226788D01*
X9109414Y39366928D01*
X8986928Y39489414D01*
X8846788Y39591232D01*
X8846787Y39591233D01*
X8846785Y39591234D01*
X8692441Y39669875D01*
X8692438Y39669877D01*
X8527706Y39723402D01*
X8527702Y39723403D01*
X8356614Y39750500D01*
X8356611Y39750500D01*
X8183389Y39750500D01*
X8183386Y39750500D01*
X8012297Y39723403D01*
X8012293Y39723402D01*
X7847561Y39669877D01*
X7847558Y39669875D01*
X7693214Y39591234D01*
X7553073Y39489415D01*
X7430585Y39366927D01*
X7328766Y39226786D01*
X7250125Y39072442D01*
X7250123Y39072439D01*
X7196598Y38907707D01*
X7196597Y38907703D01*
X7169500Y38736615D01*
X300500Y38736615D01*
X300500Y41276615D01*
X7169500Y41276615D01*
X7169500Y41103386D01*
X7196597Y40932298D01*
X7196598Y40932294D01*
X7250123Y40767562D01*
X7250125Y40767559D01*
X7250126Y40767556D01*
X7250127Y40767555D01*
X7328768Y40613212D01*
X7430586Y40473072D01*
X7553072Y40350586D01*
X7693212Y40248768D01*
X7847555Y40170127D01*
X7847557Y40170127D01*
X7847558Y40170126D01*
X7847561Y40170124D01*
X8012293Y40116599D01*
X8012297Y40116598D01*
X8183386Y40089500D01*
X8183389Y40089500D01*
X8356614Y40089500D01*
X8527702Y40116598D01*
X8527706Y40116599D01*
X8692438Y40170124D01*
X8692440Y40170126D01*
X8692445Y40170127D01*
X8846788Y40248768D01*
X8986928Y40350586D01*
X9109414Y40473072D01*
X9211232Y40613212D01*
X9289873Y40767555D01*
X9289874Y40767560D01*
X9289876Y40767562D01*
X9343401Y40932294D01*
X9343402Y40932298D01*
X9370500Y41103386D01*
X9370500Y41276615D01*
X9343402Y41447703D01*
X9343401Y41447707D01*
X9289876Y41612439D01*
X9289874Y41612442D01*
X9289873Y41612443D01*
X9289873Y41612445D01*
X9211232Y41766788D01*
X9109414Y41906928D01*
X8986928Y42029414D01*
X8846788Y42131232D01*
X8846787Y42131233D01*
X8846785Y42131234D01*
X8692441Y42209875D01*
X8692438Y42209877D01*
X8527706Y42263402D01*
X8527702Y42263403D01*
X8356614Y42290500D01*
X8356611Y42290500D01*
X8183389Y42290500D01*
X8183386Y42290500D01*
X8012297Y42263403D01*
X8012293Y42263402D01*
X7847561Y42209877D01*
X7847558Y42209875D01*
X7693214Y42131234D01*
X7553073Y42029415D01*
X7430585Y41906927D01*
X7328766Y41766786D01*
X7250125Y41612442D01*
X7250123Y41612439D01*
X7196598Y41447707D01*
X7196597Y41447703D01*
X7169500Y41276615D01*
X300500Y41276615D01*
X300500Y43816615D01*
X7169500Y43816615D01*
X7169500Y43643386D01*
X7196597Y43472298D01*
X7196598Y43472294D01*
X7250123Y43307562D01*
X7250125Y43307559D01*
X7250126Y43307556D01*
X7250127Y43307555D01*
X7328768Y43153212D01*
X7430586Y43013072D01*
X7553072Y42890586D01*
X7693212Y42788768D01*
X7847555Y42710127D01*
X7847557Y42710127D01*
X7847558Y42710126D01*
X7847561Y42710124D01*
X8012293Y42656599D01*
X8012297Y42656598D01*
X8183386Y42629500D01*
X8183389Y42629500D01*
X8356614Y42629500D01*
X8527702Y42656598D01*
X8527706Y42656599D01*
X8692438Y42710124D01*
X8692440Y42710126D01*
X8692445Y42710127D01*
X8846788Y42788768D01*
X8986928Y42890586D01*
X9109414Y43013072D01*
X9211232Y43153212D01*
X9289873Y43307555D01*
X9289874Y43307560D01*
X9289876Y43307562D01*
X9343401Y43472294D01*
X9343402Y43472298D01*
X9370500Y43643386D01*
X9370500Y43816615D01*
X9343402Y43987703D01*
X9343401Y43987707D01*
X9289876Y44152439D01*
X9289874Y44152442D01*
X9289873Y44152443D01*
X9289873Y44152445D01*
X9211232Y44306788D01*
X9109414Y44446928D01*
X8986928Y44569414D01*
X8846788Y44671232D01*
X8846787Y44671233D01*
X8846785Y44671234D01*
X8692441Y44749875D01*
X8692438Y44749877D01*
X8527706Y44803402D01*
X8527702Y44803403D01*
X8356614Y44830500D01*
X8356611Y44830500D01*
X8183389Y44830500D01*
X8183386Y44830500D01*
X8012297Y44803403D01*
X8012293Y44803402D01*
X7847561Y44749877D01*
X7847558Y44749875D01*
X7693214Y44671234D01*
X7553073Y44569415D01*
X7430585Y44446927D01*
X7328766Y44306786D01*
X7250125Y44152442D01*
X7250123Y44152439D01*
X7196598Y43987707D01*
X7196597Y43987703D01*
X7169500Y43816615D01*
X300500Y43816615D01*
X300500Y46356615D01*
X7169500Y46356615D01*
X7169500Y46183386D01*
X7196597Y46012298D01*
X7196598Y46012294D01*
X7250123Y45847562D01*
X7250125Y45847559D01*
X7250126Y45847556D01*
X7250127Y45847555D01*
X7328768Y45693212D01*
X7430586Y45553072D01*
X7553072Y45430586D01*
X7693212Y45328768D01*
X7847555Y45250127D01*
X7847557Y45250127D01*
X7847558Y45250126D01*
X7847561Y45250124D01*
X8012293Y45196599D01*
X8012297Y45196598D01*
X8183386Y45169500D01*
X8183389Y45169500D01*
X8356614Y45169500D01*
X8527702Y45196598D01*
X8527706Y45196599D01*
X8692438Y45250124D01*
X8692440Y45250126D01*
X8692445Y45250127D01*
X8846788Y45328768D01*
X8986928Y45430586D01*
X9109414Y45553072D01*
X9211232Y45693212D01*
X9289873Y45847555D01*
X9289874Y45847560D01*
X9289876Y45847562D01*
X9343401Y46012294D01*
X9343402Y46012298D01*
X9370500Y46183386D01*
X9370500Y46356615D01*
X9343402Y46527703D01*
X9343401Y46527707D01*
X9289876Y46692439D01*
X9289874Y46692442D01*
X9289873Y46692443D01*
X9289873Y46692445D01*
X9211232Y46846788D01*
X9109414Y46986928D01*
X8986928Y47109414D01*
X8846788Y47211232D01*
X8846787Y47211233D01*
X8846785Y47211234D01*
X8692441Y47289875D01*
X8692438Y47289877D01*
X8527706Y47343402D01*
X8527702Y47343403D01*
X8356614Y47370500D01*
X8356611Y47370500D01*
X8183389Y47370500D01*
X8183386Y47370500D01*
X8012297Y47343403D01*
X8012293Y47343402D01*
X7847561Y47289877D01*
X7847558Y47289875D01*
X7693214Y47211234D01*
X7553073Y47109415D01*
X7430585Y46986927D01*
X7328766Y46846786D01*
X7250125Y46692442D01*
X7250123Y46692439D01*
X7196598Y46527707D01*
X7196597Y46527703D01*
X7169500Y46356615D01*
X300500Y46356615D01*
X300500Y48896615D01*
X7169500Y48896615D01*
X7169500Y48723386D01*
X7196597Y48552298D01*
X7196598Y48552294D01*
X7250123Y48387562D01*
X7250125Y48387559D01*
X7250126Y48387556D01*
X7250127Y48387555D01*
X7328768Y48233212D01*
X7430586Y48093072D01*
X7553072Y47970586D01*
X7693212Y47868768D01*
X7847555Y47790127D01*
X7847557Y47790127D01*
X7847558Y47790126D01*
X7847561Y47790124D01*
X8012293Y47736599D01*
X8012297Y47736598D01*
X8183386Y47709500D01*
X8183389Y47709500D01*
X8356614Y47709500D01*
X8527702Y47736598D01*
X8527706Y47736599D01*
X8692438Y47790124D01*
X8692440Y47790126D01*
X8692445Y47790127D01*
X8846788Y47868768D01*
X8986928Y47970586D01*
X9109414Y48093072D01*
X9211232Y48233212D01*
X9289873Y48387555D01*
X9289874Y48387560D01*
X9289876Y48387562D01*
X9343401Y48552294D01*
X9343402Y48552298D01*
X9370500Y48723386D01*
X9370500Y48896615D01*
X9343402Y49067703D01*
X9343401Y49067707D01*
X9289876Y49232439D01*
X9289874Y49232442D01*
X9289873Y49232443D01*
X9289873Y49232445D01*
X9211232Y49386788D01*
X9109414Y49526928D01*
X8986928Y49649414D01*
X8846788Y49751232D01*
X8846787Y49751233D01*
X8846785Y49751234D01*
X8692441Y49829875D01*
X8692438Y49829877D01*
X8527706Y49883402D01*
X8527702Y49883403D01*
X8356614Y49910500D01*
X8356611Y49910500D01*
X8183389Y49910500D01*
X8183386Y49910500D01*
X8012297Y49883403D01*
X8012293Y49883402D01*
X7847561Y49829877D01*
X7847558Y49829875D01*
X7693214Y49751234D01*
X7553073Y49649415D01*
X7430585Y49526927D01*
X7328766Y49386786D01*
X7250125Y49232442D01*
X7250123Y49232439D01*
X7196598Y49067707D01*
X7196597Y49067703D01*
X7169500Y48896615D01*
X300500Y48896615D01*
X300500Y51436615D01*
X7169500Y51436615D01*
X7169500Y51263386D01*
X7196597Y51092298D01*
X7196598Y51092294D01*
X7250123Y50927562D01*
X7250125Y50927559D01*
X7250126Y50927556D01*
X7250127Y50927555D01*
X7328768Y50773212D01*
X7430586Y50633072D01*
X7553072Y50510586D01*
X7693212Y50408768D01*
X7847555Y50330127D01*
X7847557Y50330127D01*
X7847558Y50330126D01*
X7847561Y50330124D01*
X8012293Y50276599D01*
X8012297Y50276598D01*
X8183386Y50249500D01*
X8183389Y50249500D01*
X8356614Y50249500D01*
X8527702Y50276598D01*
X8527706Y50276599D01*
X8692438Y50330124D01*
X8692440Y50330126D01*
X8692445Y50330127D01*
X8846788Y50408768D01*
X8986928Y50510586D01*
X9109414Y50633072D01*
X9211232Y50773212D01*
X9289873Y50927555D01*
X9289874Y50927560D01*
X9289876Y50927562D01*
X9343401Y51092294D01*
X9343402Y51092298D01*
X9370500Y51263386D01*
X9370500Y51436615D01*
X9343402Y51607703D01*
X9343401Y51607707D01*
X9289876Y51772439D01*
X9289874Y51772442D01*
X9289873Y51772443D01*
X9289873Y51772445D01*
X9211232Y51926788D01*
X9109414Y52066928D01*
X8986928Y52189414D01*
X8846788Y52291232D01*
X8846787Y52291233D01*
X8846785Y52291234D01*
X8692441Y52369875D01*
X8692438Y52369877D01*
X8527706Y52423402D01*
X8527702Y52423403D01*
X8356614Y52450500D01*
X8356611Y52450500D01*
X8183389Y52450500D01*
X8183386Y52450500D01*
X8012297Y52423403D01*
X8012293Y52423402D01*
X7847561Y52369877D01*
X7847558Y52369875D01*
X7693214Y52291234D01*
X7553073Y52189415D01*
X7430585Y52066927D01*
X7328766Y51926786D01*
X7250125Y51772442D01*
X7250123Y51772439D01*
X7196598Y51607707D01*
X7196597Y51607703D01*
X7169500Y51436615D01*
X300500Y51436615D01*
X300500Y53976615D01*
X7169500Y53976615D01*
X7169500Y53803386D01*
X7196597Y53632298D01*
X7196598Y53632294D01*
X7250123Y53467562D01*
X7250125Y53467559D01*
X7250126Y53467556D01*
X7250127Y53467555D01*
X7328768Y53313212D01*
X7430586Y53173072D01*
X7553072Y53050586D01*
X7693212Y52948768D01*
X7847555Y52870127D01*
X7847557Y52870127D01*
X7847558Y52870126D01*
X7847561Y52870124D01*
X8012293Y52816599D01*
X8012297Y52816598D01*
X8183386Y52789500D01*
X8183389Y52789500D01*
X8356614Y52789500D01*
X8527702Y52816598D01*
X8527706Y52816599D01*
X8692438Y52870124D01*
X8692440Y52870126D01*
X8692445Y52870127D01*
X8846788Y52948768D01*
X8986928Y53050586D01*
X9109414Y53173072D01*
X9211232Y53313212D01*
X9289873Y53467555D01*
X9289874Y53467560D01*
X9289876Y53467562D01*
X9343401Y53632294D01*
X9343402Y53632298D01*
X9370500Y53803386D01*
X9370500Y53976615D01*
X9343402Y54147703D01*
X9343401Y54147707D01*
X9289876Y54312439D01*
X9289874Y54312442D01*
X9289873Y54312443D01*
X9289873Y54312445D01*
X9211232Y54466788D01*
X9109414Y54606928D01*
X8986928Y54729414D01*
X8846788Y54831232D01*
X8846787Y54831233D01*
X8846785Y54831234D01*
X8692441Y54909875D01*
X8692438Y54909877D01*
X8527706Y54963402D01*
X8527702Y54963403D01*
X8356614Y54990500D01*
X8356611Y54990500D01*
X8183389Y54990500D01*
X8183386Y54990500D01*
X8012297Y54963403D01*
X8012293Y54963402D01*
X7847561Y54909877D01*
X7847558Y54909875D01*
X7693214Y54831234D01*
X7553073Y54729415D01*
X7430585Y54606927D01*
X7328766Y54466786D01*
X7250125Y54312442D01*
X7250123Y54312439D01*
X7196598Y54147707D01*
X7196597Y54147703D01*
X7169500Y53976615D01*
X300500Y53976615D01*
X300500Y56516615D01*
X7169500Y56516615D01*
X7169500Y56343386D01*
X7196597Y56172298D01*
X7196598Y56172294D01*
X7250123Y56007562D01*
X7250125Y56007559D01*
X7250126Y56007556D01*
X7250127Y56007555D01*
X7328768Y55853212D01*
X7430586Y55713072D01*
X7553072Y55590586D01*
X7693212Y55488768D01*
X7847555Y55410127D01*
X7847557Y55410127D01*
X7847558Y55410126D01*
X7847561Y55410124D01*
X8012293Y55356599D01*
X8012297Y55356598D01*
X8183386Y55329500D01*
X8183389Y55329500D01*
X8356614Y55329500D01*
X8527702Y55356598D01*
X8527706Y55356599D01*
X8692438Y55410124D01*
X8692440Y55410126D01*
X8692445Y55410127D01*
X8846788Y55488768D01*
X8986928Y55590586D01*
X9109414Y55713072D01*
X9211232Y55853212D01*
X9289873Y56007555D01*
X9289874Y56007560D01*
X9289876Y56007562D01*
X9343401Y56172294D01*
X9343402Y56172298D01*
X9370500Y56343386D01*
X9370500Y56516615D01*
X9343402Y56687703D01*
X9343401Y56687707D01*
X9289876Y56852439D01*
X9289874Y56852442D01*
X9289873Y56852443D01*
X9289873Y56852445D01*
X9211232Y57006788D01*
X9109414Y57146928D01*
X8986928Y57269414D01*
X8846788Y57371232D01*
X8846787Y57371233D01*
X8846785Y57371234D01*
X8692441Y57449875D01*
X8692438Y57449877D01*
X8527706Y57503402D01*
X8527702Y57503403D01*
X8356614Y57530500D01*
X8356611Y57530500D01*
X8183389Y57530500D01*
X8183386Y57530500D01*
X8012297Y57503403D01*
X8012293Y57503402D01*
X7847561Y57449877D01*
X7847558Y57449875D01*
X7693214Y57371234D01*
X7553073Y57269415D01*
X7430585Y57146927D01*
X7328766Y57006786D01*
X7250125Y56852442D01*
X7250123Y56852439D01*
X7196598Y56687707D01*
X7196597Y56687703D01*
X7169500Y56516615D01*
X300500Y56516615D01*
X300500Y59056615D01*
X7169500Y59056615D01*
X7169500Y58883386D01*
X7196597Y58712298D01*
X7196598Y58712294D01*
X7250123Y58547562D01*
X7250125Y58547559D01*
X7250126Y58547556D01*
X7250127Y58547555D01*
X7328768Y58393212D01*
X7430586Y58253072D01*
X7553072Y58130586D01*
X7693212Y58028768D01*
X7847555Y57950127D01*
X7847557Y57950127D01*
X7847558Y57950126D01*
X7847561Y57950124D01*
X8012293Y57896599D01*
X8012297Y57896598D01*
X8183386Y57869500D01*
X8183389Y57869500D01*
X8356614Y57869500D01*
X8527702Y57896598D01*
X8527706Y57896599D01*
X8692438Y57950124D01*
X8692440Y57950126D01*
X8692445Y57950127D01*
X8846788Y58028768D01*
X8986928Y58130586D01*
X9109414Y58253072D01*
X9211232Y58393212D01*
X9289873Y58547555D01*
X9289874Y58547560D01*
X9289876Y58547562D01*
X9343401Y58712294D01*
X9343402Y58712298D01*
X9370500Y58883386D01*
X9370500Y59056615D01*
X9343402Y59227703D01*
X9343401Y59227707D01*
X9289876Y59392439D01*
X9289874Y59392442D01*
X9289873Y59392443D01*
X9289873Y59392445D01*
X9211232Y59546788D01*
X9109414Y59686928D01*
X8986928Y59809414D01*
X8846788Y59911232D01*
X8846787Y59911233D01*
X8846785Y59911234D01*
X8692441Y59989875D01*
X8692438Y59989877D01*
X8527706Y60043402D01*
X8527702Y60043403D01*
X8356614Y60070500D01*
X8356611Y60070500D01*
X8183389Y60070500D01*
X8183386Y60070500D01*
X8012297Y60043403D01*
X8012293Y60043402D01*
X7847561Y59989877D01*
X7847558Y59989875D01*
X7693214Y59911234D01*
X7553073Y59809415D01*
X7430585Y59686927D01*
X7328766Y59546786D01*
X7250125Y59392442D01*
X7250123Y59392439D01*
X7196598Y59227707D01*
X7196597Y59227703D01*
X7169500Y59056615D01*
X300500Y59056615D01*
X300500Y61596615D01*
X7169500Y61596615D01*
X7169500Y61423386D01*
X7196597Y61252298D01*
X7196598Y61252294D01*
X7250123Y61087562D01*
X7250125Y61087559D01*
X7250126Y61087556D01*
X7250127Y61087555D01*
X7328768Y60933212D01*
X7430586Y60793072D01*
X7553072Y60670586D01*
X7693212Y60568768D01*
X7847555Y60490127D01*
X7847557Y60490127D01*
X7847558Y60490126D01*
X7847561Y60490124D01*
X8012293Y60436599D01*
X8012297Y60436598D01*
X8183386Y60409500D01*
X8183389Y60409500D01*
X8356614Y60409500D01*
X8527702Y60436598D01*
X8527706Y60436599D01*
X8692438Y60490124D01*
X8692440Y60490126D01*
X8692445Y60490127D01*
X8846788Y60568768D01*
X8986928Y60670586D01*
X9109414Y60793072D01*
X9211232Y60933212D01*
X9289873Y61087555D01*
X9289874Y61087560D01*
X9289876Y61087562D01*
X9343401Y61252294D01*
X9343402Y61252298D01*
X9370500Y61423386D01*
X9370500Y61596615D01*
X9343402Y61767703D01*
X9343401Y61767707D01*
X9289876Y61932439D01*
X9289874Y61932442D01*
X9289873Y61932443D01*
X9289873Y61932445D01*
X9211232Y62086788D01*
X9109414Y62226928D01*
X8986928Y62349414D01*
X8846788Y62451232D01*
X8846787Y62451233D01*
X8846785Y62451234D01*
X8692441Y62529875D01*
X8692438Y62529877D01*
X8527706Y62583402D01*
X8527702Y62583403D01*
X8356614Y62610500D01*
X8356611Y62610500D01*
X8183389Y62610500D01*
X8183386Y62610500D01*
X8012297Y62583403D01*
X8012293Y62583402D01*
X7847561Y62529877D01*
X7847558Y62529875D01*
X7693214Y62451234D01*
X7553073Y62349415D01*
X7430585Y62226927D01*
X7328766Y62086786D01*
X7250125Y61932442D01*
X7250123Y61932439D01*
X7196598Y61767707D01*
X7196597Y61767703D01*
X7169500Y61596615D01*
X300500Y61596615D01*
X300500Y74428421D01*
X74399500Y74428421D01*
X74399500Y74231580D01*
X74430289Y74037179D01*
X74430291Y74037174D01*
X74491116Y73849975D01*
X74580476Y73674595D01*
X74696172Y73515354D01*
X74835354Y73376172D01*
X74994595Y73260476D01*
X75169975Y73171116D01*
X75357174Y73110291D01*
X75357175Y73110291D01*
X75357178Y73110290D01*
X75551580Y73079500D01*
X75551583Y73079500D01*
X75748420Y73079500D01*
X75942821Y73110290D01*
X75942822Y73110291D01*
X75942826Y73110291D01*
X76130025Y73171116D01*
X76305405Y73260476D01*
X76464646Y73376172D01*
X76603828Y73515354D01*
X76719524Y73674595D01*
X76808884Y73849975D01*
X76869709Y74037174D01*
X76900500Y74231583D01*
X76900500Y74428417D01*
X76900500Y74428421D01*
X92399500Y74428421D01*
X92399500Y74231580D01*
X92430289Y74037179D01*
X92430291Y74037174D01*
X92491116Y73849975D01*
X92580476Y73674595D01*
X92696172Y73515354D01*
X92835354Y73376172D01*
X92994595Y73260476D01*
X93169975Y73171116D01*
X93357174Y73110291D01*
X93357175Y73110291D01*
X93357178Y73110290D01*
X93551580Y73079500D01*
X93551583Y73079500D01*
X93748420Y73079500D01*
X93942821Y73110290D01*
X93942822Y73110291D01*
X93942826Y73110291D01*
X94130025Y73171116D01*
X94305405Y73260476D01*
X94464646Y73376172D01*
X94603828Y73515354D01*
X94719524Y73674595D01*
X94808884Y73849975D01*
X94869709Y74037174D01*
X94900500Y74231583D01*
X94900500Y74428417D01*
X94900500Y74428421D01*
X110399500Y74428421D01*
X110399500Y74231580D01*
X110430289Y74037179D01*
X110430291Y74037174D01*
X110491116Y73849975D01*
X110580476Y73674595D01*
X110696172Y73515354D01*
X110835354Y73376172D01*
X110994595Y73260476D01*
X111169975Y73171116D01*
X111357174Y73110291D01*
X111357175Y73110291D01*
X111357178Y73110290D01*
X111551580Y73079500D01*
X111551583Y73079500D01*
X111748420Y73079500D01*
X111942821Y73110290D01*
X111942822Y73110291D01*
X111942826Y73110291D01*
X112130025Y73171116D01*
X112305405Y73260476D01*
X112464646Y73376172D01*
X112603828Y73515354D01*
X112719524Y73674595D01*
X112808884Y73849975D01*
X112869709Y74037174D01*
X112900500Y74231583D01*
X112900500Y74428417D01*
X112900500Y74428421D01*
X128399500Y74428421D01*
X128399500Y74231580D01*
X128430289Y74037179D01*
X128430291Y74037174D01*
X128491116Y73849975D01*
X128580476Y73674595D01*
X128696172Y73515354D01*
X128835354Y73376172D01*
X128994595Y73260476D01*
X129169975Y73171116D01*
X129357174Y73110291D01*
X129357175Y73110291D01*
X129357178Y73110290D01*
X129551580Y73079500D01*
X129551583Y73079500D01*
X129748420Y73079500D01*
X129942821Y73110290D01*
X129942822Y73110291D01*
X129942826Y73110291D01*
X130130025Y73171116D01*
X130305405Y73260476D01*
X130464646Y73376172D01*
X130603828Y73515354D01*
X130719524Y73674595D01*
X130808884Y73849975D01*
X130869709Y74037174D01*
X130900500Y74231583D01*
X130900500Y74428417D01*
X130900500Y74428421D01*
X146399500Y74428421D01*
X146399500Y74231580D01*
X146430289Y74037179D01*
X146430291Y74037174D01*
X146491116Y73849975D01*
X146580476Y73674595D01*
X146696172Y73515354D01*
X146835354Y73376172D01*
X146994595Y73260476D01*
X147169975Y73171116D01*
X147357174Y73110291D01*
X147357175Y73110291D01*
X147357178Y73110290D01*
X147551580Y73079500D01*
X147551583Y73079500D01*
X147748420Y73079500D01*
X147942821Y73110290D01*
X147942822Y73110291D01*
X147942826Y73110291D01*
X148130025Y73171116D01*
X148305405Y73260476D01*
X148464646Y73376172D01*
X148603828Y73515354D01*
X148719524Y73674595D01*
X148808884Y73849975D01*
X148869709Y74037174D01*
X148900500Y74231583D01*
X148900500Y74428417D01*
X148900500Y74428421D01*
X164399500Y74428421D01*
X164399500Y74231580D01*
X164430289Y74037179D01*
X164430291Y74037174D01*
X164491116Y73849975D01*
X164580476Y73674595D01*
X164696172Y73515354D01*
X164835354Y73376172D01*
X164994595Y73260476D01*
X165169975Y73171116D01*
X165357174Y73110291D01*
X165357175Y73110291D01*
X165357178Y73110290D01*
X165551580Y73079500D01*
X165551583Y73079500D01*
X165748420Y73079500D01*
X165942821Y73110290D01*
X165942822Y73110291D01*
X165942826Y73110291D01*
X166130025Y73171116D01*
X166305405Y73260476D01*
X166464646Y73376172D01*
X166603828Y73515354D01*
X166719524Y73674595D01*
X166808884Y73849975D01*
X166869709Y74037174D01*
X166900500Y74231583D01*
X166900500Y74428417D01*
X166900500Y74428421D01*
X166869710Y74622822D01*
X166869709Y74622826D01*
X166808884Y74810025D01*
X166719524Y74985405D01*
X166603828Y75144646D01*
X166464646Y75283828D01*
X166305405Y75399524D01*
X166305404Y75399525D01*
X166305402Y75399526D01*
X166130025Y75488884D01*
X165942821Y75549711D01*
X165748420Y75580500D01*
X165748417Y75580500D01*
X165551583Y75580500D01*
X165551580Y75580500D01*
X165357178Y75549711D01*
X165169974Y75488884D01*
X164994597Y75399526D01*
X164835355Y75283829D01*
X164696171Y75144645D01*
X164580474Y74985403D01*
X164491116Y74810026D01*
X164430289Y74622822D01*
X164399500Y74428421D01*
X148900500Y74428421D01*
X148869710Y74622822D01*
X148869709Y74622826D01*
X148808884Y74810025D01*
X148719524Y74985405D01*
X148603828Y75144646D01*
X148464646Y75283828D01*
X148305405Y75399524D01*
X148305404Y75399525D01*
X148305402Y75399526D01*
X148130025Y75488884D01*
X147942821Y75549711D01*
X147748420Y75580500D01*
X147748417Y75580500D01*
X147551583Y75580500D01*
X147551580Y75580500D01*
X147357178Y75549711D01*
X147169974Y75488884D01*
X146994597Y75399526D01*
X146835355Y75283829D01*
X146696171Y75144645D01*
X146580474Y74985403D01*
X146491116Y74810026D01*
X146430289Y74622822D01*
X146399500Y74428421D01*
X130900500Y74428421D01*
X130869710Y74622822D01*
X130869709Y74622826D01*
X130808884Y74810025D01*
X130719524Y74985405D01*
X130603828Y75144646D01*
X130464646Y75283828D01*
X130305405Y75399524D01*
X130305404Y75399525D01*
X130305402Y75399526D01*
X130130025Y75488884D01*
X129942821Y75549711D01*
X129748420Y75580500D01*
X129748417Y75580500D01*
X129551583Y75580500D01*
X129551580Y75580500D01*
X129357178Y75549711D01*
X129169974Y75488884D01*
X128994597Y75399526D01*
X128835355Y75283829D01*
X128696171Y75144645D01*
X128580474Y74985403D01*
X128491116Y74810026D01*
X128430289Y74622822D01*
X128399500Y74428421D01*
X112900500Y74428421D01*
X112869710Y74622822D01*
X112869709Y74622826D01*
X112808884Y74810025D01*
X112719524Y74985405D01*
X112603828Y75144646D01*
X112464646Y75283828D01*
X112305405Y75399524D01*
X112305404Y75399525D01*
X112305402Y75399526D01*
X112130025Y75488884D01*
X111942821Y75549711D01*
X111748420Y75580500D01*
X111748417Y75580500D01*
X111551583Y75580500D01*
X111551580Y75580500D01*
X111357178Y75549711D01*
X111169974Y75488884D01*
X110994597Y75399526D01*
X110835355Y75283829D01*
X110696171Y75144645D01*
X110580474Y74985403D01*
X110491116Y74810026D01*
X110430289Y74622822D01*
X110399500Y74428421D01*
X94900500Y74428421D01*
X94869710Y74622822D01*
X94869709Y74622826D01*
X94808884Y74810025D01*
X94719524Y74985405D01*
X94603828Y75144646D01*
X94464646Y75283828D01*
X94305405Y75399524D01*
X94305404Y75399525D01*
X94305402Y75399526D01*
X94130025Y75488884D01*
X93942821Y75549711D01*
X93748420Y75580500D01*
X93748417Y75580500D01*
X93551583Y75580500D01*
X93551580Y75580500D01*
X93357178Y75549711D01*
X93169974Y75488884D01*
X92994597Y75399526D01*
X92835355Y75283829D01*
X92696171Y75144645D01*
X92580474Y74985403D01*
X92491116Y74810026D01*
X92430289Y74622822D01*
X92399500Y74428421D01*
X76900500Y74428421D01*
X76869710Y74622822D01*
X76869709Y74622826D01*
X76808884Y74810025D01*
X76719524Y74985405D01*
X76603828Y75144646D01*
X76464646Y75283828D01*
X76305405Y75399524D01*
X76305404Y75399525D01*
X76305402Y75399526D01*
X76130025Y75488884D01*
X75942821Y75549711D01*
X75748420Y75580500D01*
X75748417Y75580500D01*
X75551583Y75580500D01*
X75551580Y75580500D01*
X75357178Y75549711D01*
X75169974Y75488884D01*
X74994597Y75399526D01*
X74835355Y75283829D01*
X74696171Y75144645D01*
X74580474Y74985403D01*
X74491116Y74810026D01*
X74430289Y74622822D01*
X74399500Y74428421D01*
X300500Y74428421D01*
X300500Y78071615D01*
X16274500Y78071615D01*
X16274500Y77898386D01*
X16301597Y77727298D01*
X16301598Y77727294D01*
X16355123Y77562562D01*
X16355125Y77562559D01*
X16355126Y77562556D01*
X16355127Y77562555D01*
X16433768Y77408212D01*
X16535586Y77268072D01*
X16658072Y77145586D01*
X16798212Y77043768D01*
X16952555Y76965127D01*
X16952557Y76965127D01*
X16952558Y76965126D01*
X16952561Y76965124D01*
X17117293Y76911599D01*
X17117297Y76911598D01*
X17288386Y76884500D01*
X17288389Y76884500D01*
X17461614Y76884500D01*
X17632702Y76911598D01*
X17632706Y76911599D01*
X17797438Y76965124D01*
X17797440Y76965126D01*
X17797445Y76965127D01*
X17951788Y77043768D01*
X18091928Y77145586D01*
X18214414Y77268072D01*
X18316232Y77408212D01*
X18394873Y77562555D01*
X18394874Y77562560D01*
X18394876Y77562562D01*
X18448401Y77727294D01*
X18448402Y77727298D01*
X18475500Y77898386D01*
X18475500Y78071615D01*
X18814500Y78071615D01*
X18814500Y77898386D01*
X18841597Y77727298D01*
X18841598Y77727294D01*
X18895123Y77562562D01*
X18895125Y77562559D01*
X18895126Y77562556D01*
X18895127Y77562555D01*
X18973768Y77408212D01*
X19075586Y77268072D01*
X19198072Y77145586D01*
X19338212Y77043768D01*
X19492555Y76965127D01*
X19492557Y76965127D01*
X19492558Y76965126D01*
X19492561Y76965124D01*
X19657293Y76911599D01*
X19657297Y76911598D01*
X19828386Y76884500D01*
X19828389Y76884500D01*
X20001614Y76884500D01*
X20172702Y76911598D01*
X20172706Y76911599D01*
X20337438Y76965124D01*
X20337440Y76965126D01*
X20337445Y76965127D01*
X20491788Y77043768D01*
X20631928Y77145586D01*
X20754414Y77268072D01*
X20856232Y77408212D01*
X20934873Y77562555D01*
X20934874Y77562560D01*
X20934876Y77562562D01*
X20988401Y77727294D01*
X20988402Y77727298D01*
X21015500Y77898386D01*
X21015500Y78071615D01*
X21354500Y78071615D01*
X21354500Y77898386D01*
X21381597Y77727298D01*
X21381598Y77727294D01*
X21435123Y77562562D01*
X21435125Y77562559D01*
X21435126Y77562556D01*
X21435127Y77562555D01*
X21513768Y77408212D01*
X21615586Y77268072D01*
X21738072Y77145586D01*
X21878212Y77043768D01*
X22032555Y76965127D01*
X22032557Y76965127D01*
X22032558Y76965126D01*
X22032561Y76965124D01*
X22197293Y76911599D01*
X22197297Y76911598D01*
X22368386Y76884500D01*
X22368389Y76884500D01*
X22541614Y76884500D01*
X22712702Y76911598D01*
X22712706Y76911599D01*
X22877438Y76965124D01*
X22877440Y76965126D01*
X22877445Y76965127D01*
X23031788Y77043768D01*
X23171928Y77145586D01*
X23294414Y77268072D01*
X23396232Y77408212D01*
X23474873Y77562555D01*
X23474874Y77562560D01*
X23474876Y77562562D01*
X23528401Y77727294D01*
X23528402Y77727298D01*
X23555500Y77898386D01*
X23555500Y78071615D01*
X23894500Y78071615D01*
X23894500Y77898386D01*
X23921597Y77727298D01*
X23921598Y77727294D01*
X23975123Y77562562D01*
X23975125Y77562559D01*
X23975126Y77562556D01*
X23975127Y77562555D01*
X24053768Y77408212D01*
X24155586Y77268072D01*
X24278072Y77145586D01*
X24418212Y77043768D01*
X24572555Y76965127D01*
X24572557Y76965127D01*
X24572558Y76965126D01*
X24572561Y76965124D01*
X24737293Y76911599D01*
X24737297Y76911598D01*
X24908386Y76884500D01*
X24908389Y76884500D01*
X25081614Y76884500D01*
X25252702Y76911598D01*
X25252706Y76911599D01*
X25417438Y76965124D01*
X25417440Y76965126D01*
X25417445Y76965127D01*
X25571788Y77043768D01*
X25711928Y77145586D01*
X25834414Y77268072D01*
X25936232Y77408212D01*
X26014873Y77562555D01*
X26014874Y77562560D01*
X26014876Y77562562D01*
X26068401Y77727294D01*
X26068402Y77727298D01*
X26095500Y77898386D01*
X26095500Y78071615D01*
X26434500Y78071615D01*
X26434500Y77898386D01*
X26461597Y77727298D01*
X26461598Y77727294D01*
X26515123Y77562562D01*
X26515125Y77562559D01*
X26515126Y77562556D01*
X26515127Y77562555D01*
X26593768Y77408212D01*
X26695586Y77268072D01*
X26818072Y77145586D01*
X26958212Y77043768D01*
X27112555Y76965127D01*
X27112557Y76965127D01*
X27112558Y76965126D01*
X27112561Y76965124D01*
X27277293Y76911599D01*
X27277297Y76911598D01*
X27448386Y76884500D01*
X27448389Y76884500D01*
X27621614Y76884500D01*
X27792702Y76911598D01*
X27792706Y76911599D01*
X27957438Y76965124D01*
X27957440Y76965126D01*
X27957445Y76965127D01*
X28111788Y77043768D01*
X28251928Y77145586D01*
X28374414Y77268072D01*
X28476232Y77408212D01*
X28554873Y77562555D01*
X28554874Y77562560D01*
X28554876Y77562562D01*
X28608401Y77727294D01*
X28608402Y77727298D01*
X28635500Y77898386D01*
X28635500Y78071615D01*
X28974500Y78071615D01*
X28974500Y77898386D01*
X29001597Y77727298D01*
X29001598Y77727294D01*
X29055123Y77562562D01*
X29055125Y77562559D01*
X29055126Y77562556D01*
X29055127Y77562555D01*
X29133768Y77408212D01*
X29235586Y77268072D01*
X29358072Y77145586D01*
X29498212Y77043768D01*
X29652555Y76965127D01*
X29652557Y76965127D01*
X29652558Y76965126D01*
X29652561Y76965124D01*
X29817293Y76911599D01*
X29817297Y76911598D01*
X29988386Y76884500D01*
X29988389Y76884500D01*
X30161614Y76884500D01*
X30332702Y76911598D01*
X30332706Y76911599D01*
X30497438Y76965124D01*
X30497440Y76965126D01*
X30497445Y76965127D01*
X30651788Y77043768D01*
X30791928Y77145586D01*
X30914414Y77268072D01*
X31016232Y77408212D01*
X31094873Y77562555D01*
X31094874Y77562560D01*
X31094876Y77562562D01*
X31148401Y77727294D01*
X31148402Y77727298D01*
X31175500Y77898386D01*
X31175500Y78071615D01*
X31514500Y78071615D01*
X31514500Y77898386D01*
X31541597Y77727298D01*
X31541598Y77727294D01*
X31595123Y77562562D01*
X31595125Y77562559D01*
X31595126Y77562556D01*
X31595127Y77562555D01*
X31673768Y77408212D01*
X31775586Y77268072D01*
X31898072Y77145586D01*
X32038212Y77043768D01*
X32192555Y76965127D01*
X32192557Y76965127D01*
X32192558Y76965126D01*
X32192561Y76965124D01*
X32357293Y76911599D01*
X32357297Y76911598D01*
X32528386Y76884500D01*
X32528389Y76884500D01*
X32701614Y76884500D01*
X32872702Y76911598D01*
X32872706Y76911599D01*
X33037438Y76965124D01*
X33037440Y76965126D01*
X33037445Y76965127D01*
X33191788Y77043768D01*
X33331928Y77145586D01*
X33454414Y77268072D01*
X33556232Y77408212D01*
X33634873Y77562555D01*
X33634874Y77562560D01*
X33634876Y77562562D01*
X33688401Y77727294D01*
X33688402Y77727298D01*
X33715500Y77898386D01*
X33715500Y78071615D01*
X34054500Y78071615D01*
X34054500Y77898386D01*
X34081597Y77727298D01*
X34081598Y77727294D01*
X34135123Y77562562D01*
X34135125Y77562559D01*
X34135126Y77562556D01*
X34135127Y77562555D01*
X34213768Y77408212D01*
X34315586Y77268072D01*
X34438072Y77145586D01*
X34578212Y77043768D01*
X34732555Y76965127D01*
X34732557Y76965127D01*
X34732558Y76965126D01*
X34732561Y76965124D01*
X34897293Y76911599D01*
X34897297Y76911598D01*
X35068386Y76884500D01*
X35068389Y76884500D01*
X35241614Y76884500D01*
X35412702Y76911598D01*
X35412706Y76911599D01*
X35577438Y76965124D01*
X35577440Y76965126D01*
X35577445Y76965127D01*
X35731788Y77043768D01*
X35871928Y77145586D01*
X35994414Y77268072D01*
X36096232Y77408212D01*
X36174873Y77562555D01*
X36174874Y77562560D01*
X36174876Y77562562D01*
X36228401Y77727294D01*
X36228402Y77727298D01*
X36255500Y77898386D01*
X36255500Y78071615D01*
X36594500Y78071615D01*
X36594500Y77898386D01*
X36621597Y77727298D01*
X36621598Y77727294D01*
X36675123Y77562562D01*
X36675125Y77562559D01*
X36675126Y77562556D01*
X36675127Y77562555D01*
X36753768Y77408212D01*
X36855586Y77268072D01*
X36978072Y77145586D01*
X37118212Y77043768D01*
X37272555Y76965127D01*
X37272557Y76965127D01*
X37272558Y76965126D01*
X37272561Y76965124D01*
X37437293Y76911599D01*
X37437297Y76911598D01*
X37608386Y76884500D01*
X37608389Y76884500D01*
X37781614Y76884500D01*
X37952702Y76911598D01*
X37952706Y76911599D01*
X38117438Y76965124D01*
X38117440Y76965126D01*
X38117445Y76965127D01*
X38271788Y77043768D01*
X38411928Y77145586D01*
X38534414Y77268072D01*
X38636232Y77408212D01*
X38714873Y77562555D01*
X38714874Y77562560D01*
X38714876Y77562562D01*
X38768401Y77727294D01*
X38768402Y77727298D01*
X38795500Y77898386D01*
X38795500Y78071615D01*
X39134500Y78071615D01*
X39134500Y77898386D01*
X39161597Y77727298D01*
X39161598Y77727294D01*
X39215123Y77562562D01*
X39215125Y77562559D01*
X39215126Y77562556D01*
X39215127Y77562555D01*
X39293768Y77408212D01*
X39395586Y77268072D01*
X39518072Y77145586D01*
X39658212Y77043768D01*
X39812555Y76965127D01*
X39812557Y76965127D01*
X39812558Y76965126D01*
X39812561Y76965124D01*
X39977293Y76911599D01*
X39977297Y76911598D01*
X40148386Y76884500D01*
X40148389Y76884500D01*
X40321614Y76884500D01*
X40492702Y76911598D01*
X40492706Y76911599D01*
X40657438Y76965124D01*
X40657440Y76965126D01*
X40657445Y76965127D01*
X40811788Y77043768D01*
X40951928Y77145586D01*
X41074414Y77268072D01*
X41176232Y77408212D01*
X41254873Y77562555D01*
X41254874Y77562560D01*
X41254876Y77562562D01*
X41308401Y77727294D01*
X41308402Y77727298D01*
X41335500Y77898386D01*
X41335500Y78071615D01*
X41674500Y78071615D01*
X41674500Y77898386D01*
X41701597Y77727298D01*
X41701598Y77727294D01*
X41755123Y77562562D01*
X41755125Y77562559D01*
X41755126Y77562556D01*
X41755127Y77562555D01*
X41833768Y77408212D01*
X41935586Y77268072D01*
X42058072Y77145586D01*
X42198212Y77043768D01*
X42352555Y76965127D01*
X42352557Y76965127D01*
X42352558Y76965126D01*
X42352561Y76965124D01*
X42517293Y76911599D01*
X42517297Y76911598D01*
X42688386Y76884500D01*
X42688389Y76884500D01*
X42861614Y76884500D01*
X43032702Y76911598D01*
X43032706Y76911599D01*
X43197438Y76965124D01*
X43197440Y76965126D01*
X43197445Y76965127D01*
X43351788Y77043768D01*
X43491928Y77145586D01*
X43614414Y77268072D01*
X43716232Y77408212D01*
X43794873Y77562555D01*
X43794874Y77562560D01*
X43794876Y77562562D01*
X43848401Y77727294D01*
X43848402Y77727298D01*
X43875500Y77898386D01*
X43875500Y78071615D01*
X44214500Y78071615D01*
X44214500Y77898386D01*
X44241597Y77727298D01*
X44241598Y77727294D01*
X44295123Y77562562D01*
X44295125Y77562559D01*
X44295126Y77562556D01*
X44295127Y77562555D01*
X44373768Y77408212D01*
X44475586Y77268072D01*
X44598072Y77145586D01*
X44738212Y77043768D01*
X44892555Y76965127D01*
X44892557Y76965127D01*
X44892558Y76965126D01*
X44892561Y76965124D01*
X45057293Y76911599D01*
X45057297Y76911598D01*
X45228386Y76884500D01*
X45228389Y76884500D01*
X45401614Y76884500D01*
X45572702Y76911598D01*
X45572706Y76911599D01*
X45737438Y76965124D01*
X45737440Y76965126D01*
X45737445Y76965127D01*
X45891788Y77043768D01*
X46031928Y77145586D01*
X46154414Y77268072D01*
X46256232Y77408212D01*
X46334873Y77562555D01*
X46334874Y77562560D01*
X46334876Y77562562D01*
X46388401Y77727294D01*
X46388402Y77727298D01*
X46415500Y77898386D01*
X46415500Y78071615D01*
X46754500Y78071615D01*
X46754500Y77898386D01*
X46781597Y77727298D01*
X46781598Y77727294D01*
X46835123Y77562562D01*
X46835125Y77562559D01*
X46835126Y77562556D01*
X46835127Y77562555D01*
X46913768Y77408212D01*
X47015586Y77268072D01*
X47138072Y77145586D01*
X47278212Y77043768D01*
X47432555Y76965127D01*
X47432557Y76965127D01*
X47432558Y76965126D01*
X47432561Y76965124D01*
X47597293Y76911599D01*
X47597297Y76911598D01*
X47768386Y76884500D01*
X47768389Y76884500D01*
X47941614Y76884500D01*
X48112702Y76911598D01*
X48112706Y76911599D01*
X48277438Y76965124D01*
X48277440Y76965126D01*
X48277445Y76965127D01*
X48431788Y77043768D01*
X48571928Y77145586D01*
X48694414Y77268072D01*
X48796232Y77408212D01*
X48874873Y77562555D01*
X48874874Y77562560D01*
X48874876Y77562562D01*
X48928401Y77727294D01*
X48928402Y77727298D01*
X48955500Y77898386D01*
X48955500Y78071615D01*
X49294500Y78071615D01*
X49294500Y77898386D01*
X49321597Y77727298D01*
X49321598Y77727294D01*
X49375123Y77562562D01*
X49375125Y77562559D01*
X49375126Y77562556D01*
X49375127Y77562555D01*
X49453768Y77408212D01*
X49555586Y77268072D01*
X49678072Y77145586D01*
X49818212Y77043768D01*
X49972555Y76965127D01*
X49972557Y76965127D01*
X49972558Y76965126D01*
X49972561Y76965124D01*
X50137293Y76911599D01*
X50137297Y76911598D01*
X50308386Y76884500D01*
X50308389Y76884500D01*
X50481614Y76884500D01*
X50652702Y76911598D01*
X50652706Y76911599D01*
X50817438Y76965124D01*
X50817440Y76965126D01*
X50817445Y76965127D01*
X50971788Y77043768D01*
X51111928Y77145586D01*
X51234414Y77268072D01*
X51336232Y77408212D01*
X51414873Y77562555D01*
X51414874Y77562560D01*
X51414876Y77562562D01*
X51468401Y77727294D01*
X51468402Y77727298D01*
X51495500Y77898386D01*
X51495500Y78071615D01*
X51834500Y78071615D01*
X51834500Y77898386D01*
X51861597Y77727298D01*
X51861598Y77727294D01*
X51915123Y77562562D01*
X51915125Y77562559D01*
X51915126Y77562556D01*
X51915127Y77562555D01*
X51993768Y77408212D01*
X52095586Y77268072D01*
X52218072Y77145586D01*
X52358212Y77043768D01*
X52512555Y76965127D01*
X52512557Y76965127D01*
X52512558Y76965126D01*
X52512561Y76965124D01*
X52677293Y76911599D01*
X52677297Y76911598D01*
X52848386Y76884500D01*
X52848389Y76884500D01*
X53021614Y76884500D01*
X53192702Y76911598D01*
X53192706Y76911599D01*
X53357438Y76965124D01*
X53357440Y76965126D01*
X53357445Y76965127D01*
X53511788Y77043768D01*
X53651928Y77145586D01*
X53774414Y77268072D01*
X53876232Y77408212D01*
X53954873Y77562555D01*
X53954874Y77562560D01*
X53954876Y77562562D01*
X54008401Y77727294D01*
X54008402Y77727298D01*
X54035500Y77898386D01*
X54035500Y78071615D01*
X54374500Y78071615D01*
X54374500Y77898386D01*
X54401597Y77727298D01*
X54401598Y77727294D01*
X54455123Y77562562D01*
X54455125Y77562559D01*
X54455126Y77562556D01*
X54455127Y77562555D01*
X54533768Y77408212D01*
X54635586Y77268072D01*
X54758072Y77145586D01*
X54898212Y77043768D01*
X55052555Y76965127D01*
X55052557Y76965127D01*
X55052558Y76965126D01*
X55052561Y76965124D01*
X55217293Y76911599D01*
X55217297Y76911598D01*
X55388386Y76884500D01*
X55388389Y76884500D01*
X55561614Y76884500D01*
X55732702Y76911598D01*
X55732706Y76911599D01*
X55897438Y76965124D01*
X55897440Y76965126D01*
X55897445Y76965127D01*
X56051788Y77043768D01*
X56191928Y77145586D01*
X56314414Y77268072D01*
X56416232Y77408212D01*
X56494873Y77562555D01*
X56494874Y77562560D01*
X56494876Y77562562D01*
X56548401Y77727294D01*
X56548402Y77727298D01*
X56575500Y77898386D01*
X56575500Y78071615D01*
X56914500Y78071615D01*
X56914500Y77898386D01*
X56941597Y77727298D01*
X56941598Y77727294D01*
X56995123Y77562562D01*
X56995125Y77562559D01*
X56995126Y77562556D01*
X56995127Y77562555D01*
X57073768Y77408212D01*
X57175586Y77268072D01*
X57298072Y77145586D01*
X57438212Y77043768D01*
X57592555Y76965127D01*
X57592557Y76965127D01*
X57592558Y76965126D01*
X57592561Y76965124D01*
X57757293Y76911599D01*
X57757297Y76911598D01*
X57928386Y76884500D01*
X57928389Y76884500D01*
X58101614Y76884500D01*
X58272702Y76911598D01*
X58272706Y76911599D01*
X58437438Y76965124D01*
X58437440Y76965126D01*
X58437445Y76965127D01*
X58591788Y77043768D01*
X58731928Y77145586D01*
X58854414Y77268072D01*
X58956232Y77408212D01*
X59034873Y77562555D01*
X59034874Y77562560D01*
X59034876Y77562562D01*
X59088401Y77727294D01*
X59088402Y77727298D01*
X59115500Y77898386D01*
X59115500Y78071615D01*
X59454500Y78071615D01*
X59454500Y77898386D01*
X59481597Y77727298D01*
X59481598Y77727294D01*
X59535123Y77562562D01*
X59535125Y77562559D01*
X59535126Y77562556D01*
X59535127Y77562555D01*
X59613768Y77408212D01*
X59715586Y77268072D01*
X59838072Y77145586D01*
X59978212Y77043768D01*
X60132555Y76965127D01*
X60132557Y76965127D01*
X60132558Y76965126D01*
X60132561Y76965124D01*
X60297293Y76911599D01*
X60297297Y76911598D01*
X60468386Y76884500D01*
X60468389Y76884500D01*
X60641614Y76884500D01*
X60812702Y76911598D01*
X60812706Y76911599D01*
X60977438Y76965124D01*
X60977440Y76965126D01*
X60977445Y76965127D01*
X61131788Y77043768D01*
X61271928Y77145586D01*
X61394414Y77268072D01*
X61496232Y77408212D01*
X61574873Y77562555D01*
X61574874Y77562560D01*
X61574876Y77562562D01*
X61628401Y77727294D01*
X61628402Y77727298D01*
X61655500Y77898386D01*
X61655500Y78071615D01*
X61994500Y78071615D01*
X61994500Y77898386D01*
X62021597Y77727298D01*
X62021598Y77727294D01*
X62075123Y77562562D01*
X62075125Y77562559D01*
X62075126Y77562556D01*
X62075127Y77562555D01*
X62153768Y77408212D01*
X62255586Y77268072D01*
X62378072Y77145586D01*
X62518212Y77043768D01*
X62672555Y76965127D01*
X62672557Y76965127D01*
X62672558Y76965126D01*
X62672561Y76965124D01*
X62837293Y76911599D01*
X62837297Y76911598D01*
X63008386Y76884500D01*
X63008389Y76884500D01*
X63181614Y76884500D01*
X63352702Y76911598D01*
X63352706Y76911599D01*
X63517438Y76965124D01*
X63517440Y76965126D01*
X63517445Y76965127D01*
X63671788Y77043768D01*
X63811928Y77145586D01*
X63934414Y77268072D01*
X64036232Y77408212D01*
X64114873Y77562555D01*
X64114874Y77562560D01*
X64114876Y77562562D01*
X64168401Y77727294D01*
X64168402Y77727298D01*
X64195500Y77898386D01*
X64195500Y78071615D01*
X64534500Y78071615D01*
X64534500Y77898386D01*
X64561597Y77727298D01*
X64561598Y77727294D01*
X64615123Y77562562D01*
X64615125Y77562559D01*
X64615126Y77562556D01*
X64615127Y77562555D01*
X64693768Y77408212D01*
X64795586Y77268072D01*
X64918072Y77145586D01*
X65058212Y77043768D01*
X65212555Y76965127D01*
X65212557Y76965127D01*
X65212558Y76965126D01*
X65212561Y76965124D01*
X65377293Y76911599D01*
X65377297Y76911598D01*
X65548386Y76884500D01*
X65548389Y76884500D01*
X65721614Y76884500D01*
X65892702Y76911598D01*
X65892706Y76911599D01*
X66057438Y76965124D01*
X66057440Y76965126D01*
X66057445Y76965127D01*
X66211788Y77043768D01*
X66351928Y77145586D01*
X66474414Y77268072D01*
X66576232Y77408212D01*
X66654873Y77562555D01*
X66654874Y77562560D01*
X66654876Y77562562D01*
X66708401Y77727294D01*
X66708402Y77727298D01*
X66735500Y77898386D01*
X66735500Y78071615D01*
X66708402Y78242703D01*
X66708401Y78242707D01*
X66654876Y78407439D01*
X66654874Y78407442D01*
X66654873Y78407443D01*
X66654873Y78407445D01*
X66576232Y78561788D01*
X66474414Y78701928D01*
X66351928Y78824414D01*
X66211788Y78926232D01*
X66211787Y78926233D01*
X66211785Y78926234D01*
X66057441Y79004875D01*
X66057438Y79004877D01*
X65892706Y79058402D01*
X65892702Y79058403D01*
X65721614Y79085500D01*
X65721611Y79085500D01*
X65548389Y79085500D01*
X65548386Y79085500D01*
X65377297Y79058403D01*
X65377293Y79058402D01*
X65212561Y79004877D01*
X65212558Y79004875D01*
X65058214Y78926234D01*
X64918073Y78824415D01*
X64795585Y78701927D01*
X64693766Y78561786D01*
X64615125Y78407442D01*
X64615123Y78407439D01*
X64561598Y78242707D01*
X64561597Y78242703D01*
X64534500Y78071615D01*
X64195500Y78071615D01*
X64168402Y78242703D01*
X64168401Y78242707D01*
X64114876Y78407439D01*
X64114874Y78407442D01*
X64114873Y78407443D01*
X64114873Y78407445D01*
X64036232Y78561788D01*
X63934414Y78701928D01*
X63811928Y78824414D01*
X63671788Y78926232D01*
X63671787Y78926233D01*
X63671785Y78926234D01*
X63517441Y79004875D01*
X63517438Y79004877D01*
X63352706Y79058402D01*
X63352702Y79058403D01*
X63181614Y79085500D01*
X63181611Y79085500D01*
X63008389Y79085500D01*
X63008386Y79085500D01*
X62837297Y79058403D01*
X62837293Y79058402D01*
X62672561Y79004877D01*
X62672558Y79004875D01*
X62518214Y78926234D01*
X62378073Y78824415D01*
X62255585Y78701927D01*
X62153766Y78561786D01*
X62075125Y78407442D01*
X62075123Y78407439D01*
X62021598Y78242707D01*
X62021597Y78242703D01*
X61994500Y78071615D01*
X61655500Y78071615D01*
X61628402Y78242703D01*
X61628401Y78242707D01*
X61574876Y78407439D01*
X61574874Y78407442D01*
X61574873Y78407443D01*
X61574873Y78407445D01*
X61496232Y78561788D01*
X61394414Y78701928D01*
X61271928Y78824414D01*
X61131788Y78926232D01*
X61131787Y78926233D01*
X61131785Y78926234D01*
X60977441Y79004875D01*
X60977438Y79004877D01*
X60812706Y79058402D01*
X60812702Y79058403D01*
X60641614Y79085500D01*
X60641611Y79085500D01*
X60468389Y79085500D01*
X60468386Y79085500D01*
X60297297Y79058403D01*
X60297293Y79058402D01*
X60132561Y79004877D01*
X60132558Y79004875D01*
X59978214Y78926234D01*
X59838073Y78824415D01*
X59715585Y78701927D01*
X59613766Y78561786D01*
X59535125Y78407442D01*
X59535123Y78407439D01*
X59481598Y78242707D01*
X59481597Y78242703D01*
X59454500Y78071615D01*
X59115500Y78071615D01*
X59088402Y78242703D01*
X59088401Y78242707D01*
X59034876Y78407439D01*
X59034874Y78407442D01*
X59034873Y78407443D01*
X59034873Y78407445D01*
X58956232Y78561788D01*
X58854414Y78701928D01*
X58731928Y78824414D01*
X58591788Y78926232D01*
X58591787Y78926233D01*
X58591785Y78926234D01*
X58437441Y79004875D01*
X58437438Y79004877D01*
X58272706Y79058402D01*
X58272702Y79058403D01*
X58101614Y79085500D01*
X58101611Y79085500D01*
X57928389Y79085500D01*
X57928386Y79085500D01*
X57757297Y79058403D01*
X57757293Y79058402D01*
X57592561Y79004877D01*
X57592558Y79004875D01*
X57438214Y78926234D01*
X57298073Y78824415D01*
X57175585Y78701927D01*
X57073766Y78561786D01*
X56995125Y78407442D01*
X56995123Y78407439D01*
X56941598Y78242707D01*
X56941597Y78242703D01*
X56914500Y78071615D01*
X56575500Y78071615D01*
X56548402Y78242703D01*
X56548401Y78242707D01*
X56494876Y78407439D01*
X56494874Y78407442D01*
X56494873Y78407443D01*
X56494873Y78407445D01*
X56416232Y78561788D01*
X56314414Y78701928D01*
X56191928Y78824414D01*
X56051788Y78926232D01*
X56051787Y78926233D01*
X56051785Y78926234D01*
X55897441Y79004875D01*
X55897438Y79004877D01*
X55732706Y79058402D01*
X55732702Y79058403D01*
X55561614Y79085500D01*
X55561611Y79085500D01*
X55388389Y79085500D01*
X55388386Y79085500D01*
X55217297Y79058403D01*
X55217293Y79058402D01*
X55052561Y79004877D01*
X55052558Y79004875D01*
X54898214Y78926234D01*
X54758073Y78824415D01*
X54635585Y78701927D01*
X54533766Y78561786D01*
X54455125Y78407442D01*
X54455123Y78407439D01*
X54401598Y78242707D01*
X54401597Y78242703D01*
X54374500Y78071615D01*
X54035500Y78071615D01*
X54008402Y78242703D01*
X54008401Y78242707D01*
X53954876Y78407439D01*
X53954874Y78407442D01*
X53954873Y78407443D01*
X53954873Y78407445D01*
X53876232Y78561788D01*
X53774414Y78701928D01*
X53651928Y78824414D01*
X53511788Y78926232D01*
X53511787Y78926233D01*
X53511785Y78926234D01*
X53357441Y79004875D01*
X53357438Y79004877D01*
X53192706Y79058402D01*
X53192702Y79058403D01*
X53021614Y79085500D01*
X53021611Y79085500D01*
X52848389Y79085500D01*
X52848386Y79085500D01*
X52677297Y79058403D01*
X52677293Y79058402D01*
X52512561Y79004877D01*
X52512558Y79004875D01*
X52358214Y78926234D01*
X52218073Y78824415D01*
X52095585Y78701927D01*
X51993766Y78561786D01*
X51915125Y78407442D01*
X51915123Y78407439D01*
X51861598Y78242707D01*
X51861597Y78242703D01*
X51834500Y78071615D01*
X51495500Y78071615D01*
X51468402Y78242703D01*
X51468401Y78242707D01*
X51414876Y78407439D01*
X51414874Y78407442D01*
X51414873Y78407443D01*
X51414873Y78407445D01*
X51336232Y78561788D01*
X51234414Y78701928D01*
X51111928Y78824414D01*
X50971788Y78926232D01*
X50971787Y78926233D01*
X50971785Y78926234D01*
X50817441Y79004875D01*
X50817438Y79004877D01*
X50652706Y79058402D01*
X50652702Y79058403D01*
X50481614Y79085500D01*
X50481611Y79085500D01*
X50308389Y79085500D01*
X50308386Y79085500D01*
X50137297Y79058403D01*
X50137293Y79058402D01*
X49972561Y79004877D01*
X49972558Y79004875D01*
X49818214Y78926234D01*
X49678073Y78824415D01*
X49555585Y78701927D01*
X49453766Y78561786D01*
X49375125Y78407442D01*
X49375123Y78407439D01*
X49321598Y78242707D01*
X49321597Y78242703D01*
X49294500Y78071615D01*
X48955500Y78071615D01*
X48928402Y78242703D01*
X48928401Y78242707D01*
X48874876Y78407439D01*
X48874874Y78407442D01*
X48874873Y78407443D01*
X48874873Y78407445D01*
X48796232Y78561788D01*
X48694414Y78701928D01*
X48571928Y78824414D01*
X48431788Y78926232D01*
X48431787Y78926233D01*
X48431785Y78926234D01*
X48277441Y79004875D01*
X48277438Y79004877D01*
X48112706Y79058402D01*
X48112702Y79058403D01*
X47941614Y79085500D01*
X47941611Y79085500D01*
X47768389Y79085500D01*
X47768386Y79085500D01*
X47597297Y79058403D01*
X47597293Y79058402D01*
X47432561Y79004877D01*
X47432558Y79004875D01*
X47278214Y78926234D01*
X47138073Y78824415D01*
X47015585Y78701927D01*
X46913766Y78561786D01*
X46835125Y78407442D01*
X46835123Y78407439D01*
X46781598Y78242707D01*
X46781597Y78242703D01*
X46754500Y78071615D01*
X46415500Y78071615D01*
X46388402Y78242703D01*
X46388401Y78242707D01*
X46334876Y78407439D01*
X46334874Y78407442D01*
X46334873Y78407443D01*
X46334873Y78407445D01*
X46256232Y78561788D01*
X46154414Y78701928D01*
X46031928Y78824414D01*
X45891788Y78926232D01*
X45891787Y78926233D01*
X45891785Y78926234D01*
X45737441Y79004875D01*
X45737438Y79004877D01*
X45572706Y79058402D01*
X45572702Y79058403D01*
X45401614Y79085500D01*
X45401611Y79085500D01*
X45228389Y79085500D01*
X45228386Y79085500D01*
X45057297Y79058403D01*
X45057293Y79058402D01*
X44892561Y79004877D01*
X44892558Y79004875D01*
X44738214Y78926234D01*
X44598073Y78824415D01*
X44475585Y78701927D01*
X44373766Y78561786D01*
X44295125Y78407442D01*
X44295123Y78407439D01*
X44241598Y78242707D01*
X44241597Y78242703D01*
X44214500Y78071615D01*
X43875500Y78071615D01*
X43848402Y78242703D01*
X43848401Y78242707D01*
X43794876Y78407439D01*
X43794874Y78407442D01*
X43794873Y78407443D01*
X43794873Y78407445D01*
X43716232Y78561788D01*
X43614414Y78701928D01*
X43491928Y78824414D01*
X43351788Y78926232D01*
X43351787Y78926233D01*
X43351785Y78926234D01*
X43197441Y79004875D01*
X43197438Y79004877D01*
X43032706Y79058402D01*
X43032702Y79058403D01*
X42861614Y79085500D01*
X42861611Y79085500D01*
X42688389Y79085500D01*
X42688386Y79085500D01*
X42517297Y79058403D01*
X42517293Y79058402D01*
X42352561Y79004877D01*
X42352558Y79004875D01*
X42198214Y78926234D01*
X42058073Y78824415D01*
X41935585Y78701927D01*
X41833766Y78561786D01*
X41755125Y78407442D01*
X41755123Y78407439D01*
X41701598Y78242707D01*
X41701597Y78242703D01*
X41674500Y78071615D01*
X41335500Y78071615D01*
X41308402Y78242703D01*
X41308401Y78242707D01*
X41254876Y78407439D01*
X41254874Y78407442D01*
X41254873Y78407443D01*
X41254873Y78407445D01*
X41176232Y78561788D01*
X41074414Y78701928D01*
X40951928Y78824414D01*
X40811788Y78926232D01*
X40811787Y78926233D01*
X40811785Y78926234D01*
X40657441Y79004875D01*
X40657438Y79004877D01*
X40492706Y79058402D01*
X40492702Y79058403D01*
X40321614Y79085500D01*
X40321611Y79085500D01*
X40148389Y79085500D01*
X40148386Y79085500D01*
X39977297Y79058403D01*
X39977293Y79058402D01*
X39812561Y79004877D01*
X39812558Y79004875D01*
X39658214Y78926234D01*
X39518073Y78824415D01*
X39395585Y78701927D01*
X39293766Y78561786D01*
X39215125Y78407442D01*
X39215123Y78407439D01*
X39161598Y78242707D01*
X39161597Y78242703D01*
X39134500Y78071615D01*
X38795500Y78071615D01*
X38768402Y78242703D01*
X38768401Y78242707D01*
X38714876Y78407439D01*
X38714874Y78407442D01*
X38714873Y78407443D01*
X38714873Y78407445D01*
X38636232Y78561788D01*
X38534414Y78701928D01*
X38411928Y78824414D01*
X38271788Y78926232D01*
X38271787Y78926233D01*
X38271785Y78926234D01*
X38117441Y79004875D01*
X38117438Y79004877D01*
X37952706Y79058402D01*
X37952702Y79058403D01*
X37781614Y79085500D01*
X37781611Y79085500D01*
X37608389Y79085500D01*
X37608386Y79085500D01*
X37437297Y79058403D01*
X37437293Y79058402D01*
X37272561Y79004877D01*
X37272558Y79004875D01*
X37118214Y78926234D01*
X36978073Y78824415D01*
X36855585Y78701927D01*
X36753766Y78561786D01*
X36675125Y78407442D01*
X36675123Y78407439D01*
X36621598Y78242707D01*
X36621597Y78242703D01*
X36594500Y78071615D01*
X36255500Y78071615D01*
X36228402Y78242703D01*
X36228401Y78242707D01*
X36174876Y78407439D01*
X36174874Y78407442D01*
X36174873Y78407443D01*
X36174873Y78407445D01*
X36096232Y78561788D01*
X35994414Y78701928D01*
X35871928Y78824414D01*
X35731788Y78926232D01*
X35731787Y78926233D01*
X35731785Y78926234D01*
X35577441Y79004875D01*
X35577438Y79004877D01*
X35412706Y79058402D01*
X35412702Y79058403D01*
X35241614Y79085500D01*
X35241611Y79085500D01*
X35068389Y79085500D01*
X35068386Y79085500D01*
X34897297Y79058403D01*
X34897293Y79058402D01*
X34732561Y79004877D01*
X34732558Y79004875D01*
X34578214Y78926234D01*
X34438073Y78824415D01*
X34315585Y78701927D01*
X34213766Y78561786D01*
X34135125Y78407442D01*
X34135123Y78407439D01*
X34081598Y78242707D01*
X34081597Y78242703D01*
X34054500Y78071615D01*
X33715500Y78071615D01*
X33688402Y78242703D01*
X33688401Y78242707D01*
X33634876Y78407439D01*
X33634874Y78407442D01*
X33634873Y78407443D01*
X33634873Y78407445D01*
X33556232Y78561788D01*
X33454414Y78701928D01*
X33331928Y78824414D01*
X33191788Y78926232D01*
X33191787Y78926233D01*
X33191785Y78926234D01*
X33037441Y79004875D01*
X33037438Y79004877D01*
X32872706Y79058402D01*
X32872702Y79058403D01*
X32701614Y79085500D01*
X32701611Y79085500D01*
X32528389Y79085500D01*
X32528386Y79085500D01*
X32357297Y79058403D01*
X32357293Y79058402D01*
X32192561Y79004877D01*
X32192558Y79004875D01*
X32038214Y78926234D01*
X31898073Y78824415D01*
X31775585Y78701927D01*
X31673766Y78561786D01*
X31595125Y78407442D01*
X31595123Y78407439D01*
X31541598Y78242707D01*
X31541597Y78242703D01*
X31514500Y78071615D01*
X31175500Y78071615D01*
X31148402Y78242703D01*
X31148401Y78242707D01*
X31094876Y78407439D01*
X31094874Y78407442D01*
X31094873Y78407443D01*
X31094873Y78407445D01*
X31016232Y78561788D01*
X30914414Y78701928D01*
X30791928Y78824414D01*
X30651788Y78926232D01*
X30651787Y78926233D01*
X30651785Y78926234D01*
X30497441Y79004875D01*
X30497438Y79004877D01*
X30332706Y79058402D01*
X30332702Y79058403D01*
X30161614Y79085500D01*
X30161611Y79085500D01*
X29988389Y79085500D01*
X29988386Y79085500D01*
X29817297Y79058403D01*
X29817293Y79058402D01*
X29652561Y79004877D01*
X29652558Y79004875D01*
X29498214Y78926234D01*
X29358073Y78824415D01*
X29235585Y78701927D01*
X29133766Y78561786D01*
X29055125Y78407442D01*
X29055123Y78407439D01*
X29001598Y78242707D01*
X29001597Y78242703D01*
X28974500Y78071615D01*
X28635500Y78071615D01*
X28608402Y78242703D01*
X28608401Y78242707D01*
X28554876Y78407439D01*
X28554874Y78407442D01*
X28554873Y78407443D01*
X28554873Y78407445D01*
X28476232Y78561788D01*
X28374414Y78701928D01*
X28251928Y78824414D01*
X28111788Y78926232D01*
X28111787Y78926233D01*
X28111785Y78926234D01*
X27957441Y79004875D01*
X27957438Y79004877D01*
X27792706Y79058402D01*
X27792702Y79058403D01*
X27621614Y79085500D01*
X27621611Y79085500D01*
X27448389Y79085500D01*
X27448386Y79085500D01*
X27277297Y79058403D01*
X27277293Y79058402D01*
X27112561Y79004877D01*
X27112558Y79004875D01*
X26958214Y78926234D01*
X26818073Y78824415D01*
X26695585Y78701927D01*
X26593766Y78561786D01*
X26515125Y78407442D01*
X26515123Y78407439D01*
X26461598Y78242707D01*
X26461597Y78242703D01*
X26434500Y78071615D01*
X26095500Y78071615D01*
X26068402Y78242703D01*
X26068401Y78242707D01*
X26014876Y78407439D01*
X26014874Y78407442D01*
X26014873Y78407443D01*
X26014873Y78407445D01*
X25936232Y78561788D01*
X25834414Y78701928D01*
X25711928Y78824414D01*
X25571788Y78926232D01*
X25571787Y78926233D01*
X25571785Y78926234D01*
X25417441Y79004875D01*
X25417438Y79004877D01*
X25252706Y79058402D01*
X25252702Y79058403D01*
X25081614Y79085500D01*
X25081611Y79085500D01*
X24908389Y79085500D01*
X24908386Y79085500D01*
X24737297Y79058403D01*
X24737293Y79058402D01*
X24572561Y79004877D01*
X24572558Y79004875D01*
X24418214Y78926234D01*
X24278073Y78824415D01*
X24155585Y78701927D01*
X24053766Y78561786D01*
X23975125Y78407442D01*
X23975123Y78407439D01*
X23921598Y78242707D01*
X23921597Y78242703D01*
X23894500Y78071615D01*
X23555500Y78071615D01*
X23528402Y78242703D01*
X23528401Y78242707D01*
X23474876Y78407439D01*
X23474874Y78407442D01*
X23474873Y78407443D01*
X23474873Y78407445D01*
X23396232Y78561788D01*
X23294414Y78701928D01*
X23171928Y78824414D01*
X23031788Y78926232D01*
X23031787Y78926233D01*
X23031785Y78926234D01*
X22877441Y79004875D01*
X22877438Y79004877D01*
X22712706Y79058402D01*
X22712702Y79058403D01*
X22541614Y79085500D01*
X22541611Y79085500D01*
X22368389Y79085500D01*
X22368386Y79085500D01*
X22197297Y79058403D01*
X22197293Y79058402D01*
X22032561Y79004877D01*
X22032558Y79004875D01*
X21878214Y78926234D01*
X21738073Y78824415D01*
X21615585Y78701927D01*
X21513766Y78561786D01*
X21435125Y78407442D01*
X21435123Y78407439D01*
X21381598Y78242707D01*
X21381597Y78242703D01*
X21354500Y78071615D01*
X21015500Y78071615D01*
X20988402Y78242703D01*
X20988401Y78242707D01*
X20934876Y78407439D01*
X20934874Y78407442D01*
X20934873Y78407443D01*
X20934873Y78407445D01*
X20856232Y78561788D01*
X20754414Y78701928D01*
X20631928Y78824414D01*
X20491788Y78926232D01*
X20491787Y78926233D01*
X20491785Y78926234D01*
X20337441Y79004875D01*
X20337438Y79004877D01*
X20172706Y79058402D01*
X20172702Y79058403D01*
X20001614Y79085500D01*
X20001611Y79085500D01*
X19828389Y79085500D01*
X19828386Y79085500D01*
X19657297Y79058403D01*
X19657293Y79058402D01*
X19492561Y79004877D01*
X19492558Y79004875D01*
X19338214Y78926234D01*
X19198073Y78824415D01*
X19075585Y78701927D01*
X18973766Y78561786D01*
X18895125Y78407442D01*
X18895123Y78407439D01*
X18841598Y78242707D01*
X18841597Y78242703D01*
X18814500Y78071615D01*
X18475500Y78071615D01*
X18448402Y78242703D01*
X18448401Y78242707D01*
X18394876Y78407439D01*
X18394874Y78407442D01*
X18394873Y78407443D01*
X18394873Y78407445D01*
X18316232Y78561788D01*
X18214414Y78701928D01*
X18091928Y78824414D01*
X17951788Y78926232D01*
X17951787Y78926233D01*
X17951785Y78926234D01*
X17797441Y79004875D01*
X17797438Y79004877D01*
X17632706Y79058402D01*
X17632702Y79058403D01*
X17461614Y79085500D01*
X17461611Y79085500D01*
X17288389Y79085500D01*
X17288386Y79085500D01*
X17117297Y79058403D01*
X17117293Y79058402D01*
X16952561Y79004877D01*
X16952558Y79004875D01*
X16798214Y78926234D01*
X16658073Y78824415D01*
X16535585Y78701927D01*
X16433766Y78561786D01*
X16355125Y78407442D01*
X16355123Y78407439D01*
X16301598Y78242707D01*
X16301597Y78242703D01*
X16274500Y78071615D01*
X300500Y78071615D01*
X300500Y81118013D01*
X2199500Y81118013D01*
X2199500Y80881988D01*
X2230306Y80647994D01*
X2230306Y80647989D01*
X2291393Y80420008D01*
X2381713Y80201956D01*
X2499729Y79997547D01*
X2643402Y79810308D01*
X2643404Y79810306D01*
X2643408Y79810301D01*
X2810301Y79643408D01*
X2810305Y79643405D01*
X2810307Y79643403D01*
X2997546Y79499730D01*
X2997550Y79499727D01*
X3201951Y79381716D01*
X3201952Y79381716D01*
X3201955Y79381714D01*
X3420007Y79291394D01*
X3647986Y79230307D01*
X3881989Y79199500D01*
X3881990Y79199500D01*
X4118010Y79199500D01*
X4118011Y79199500D01*
X4352014Y79230307D01*
X4579993Y79291394D01*
X4798049Y79381716D01*
X5002450Y79499727D01*
X5189699Y79643408D01*
X5356592Y79810301D01*
X5500273Y79997550D01*
X5618284Y80201951D01*
X5708606Y80420007D01*
X5769693Y80647986D01*
X5800500Y80881989D01*
X5800500Y81118011D01*
X5800500Y81118013D01*
X174199500Y81118013D01*
X174199500Y80881988D01*
X174230306Y80647994D01*
X174230306Y80647989D01*
X174291393Y80420008D01*
X174381713Y80201956D01*
X174499729Y79997547D01*
X174643402Y79810308D01*
X174643404Y79810306D01*
X174643408Y79810301D01*
X174810301Y79643408D01*
X174810305Y79643405D01*
X174810307Y79643403D01*
X174997546Y79499730D01*
X174997550Y79499727D01*
X175201951Y79381716D01*
X175201952Y79381716D01*
X175201955Y79381714D01*
X175420007Y79291394D01*
X175647986Y79230307D01*
X175881989Y79199500D01*
X175881990Y79199500D01*
X176118010Y79199500D01*
X176118011Y79199500D01*
X176352014Y79230307D01*
X176579993Y79291394D01*
X176798049Y79381716D01*
X177002450Y79499727D01*
X177189699Y79643408D01*
X177356592Y79810301D01*
X177500273Y79997550D01*
X177618284Y80201951D01*
X177708606Y80420007D01*
X177769693Y80647986D01*
X177800500Y80881989D01*
X177800500Y81118011D01*
X177769693Y81352014D01*
X177708606Y81579993D01*
X177618284Y81798049D01*
X177500273Y82002450D01*
X177356592Y82189699D01*
X177189699Y82356592D01*
X177189694Y82356596D01*
X177189692Y82356598D01*
X177002453Y82500271D01*
X176798044Y82618287D01*
X176579992Y82708607D01*
X176424277Y82750330D01*
X176352014Y82769693D01*
X176352011Y82769694D01*
X176352009Y82769694D01*
X176118012Y82800500D01*
X176118011Y82800500D01*
X175881989Y82800500D01*
X175881987Y82800500D01*
X175647993Y82769694D01*
X175647988Y82769694D01*
X175420007Y82708607D01*
X175201955Y82618287D01*
X174997546Y82500271D01*
X174810307Y82356598D01*
X174643402Y82189693D01*
X174499729Y82002454D01*
X174381713Y81798045D01*
X174291393Y81579993D01*
X174230306Y81352012D01*
X174230306Y81352007D01*
X174199500Y81118013D01*
X5800500Y81118013D01*
X5769693Y81352014D01*
X5708606Y81579993D01*
X5618284Y81798049D01*
X5500273Y82002450D01*
X5356592Y82189699D01*
X5189699Y82356592D01*
X5189694Y82356596D01*
X5189692Y82356598D01*
X5002453Y82500271D01*
X4798044Y82618287D01*
X4579992Y82708607D01*
X4424277Y82750330D01*
X4352014Y82769693D01*
X4352011Y82769694D01*
X4352009Y82769694D01*
X4118012Y82800500D01*
X4118011Y82800500D01*
X3881989Y82800500D01*
X3881987Y82800500D01*
X3647993Y82769694D01*
X3647988Y82769694D01*
X3420007Y82708607D01*
X3201955Y82618287D01*
X2997546Y82500271D01*
X2810307Y82356598D01*
X2643402Y82189693D01*
X2499729Y82002454D01*
X2381713Y81798045D01*
X2291393Y81579993D01*
X2230306Y81352012D01*
X2230306Y81352007D01*
X2199500Y81118013D01*
X300500Y81118013D01*
X300500Y84600500D01*
X319407Y84658691D01*
X368907Y84694655D01*
X399500Y84699500D01*
X179600500Y84699500D01*
X179658691Y84680593D01*
G37*
%TD.AperFunction*%
%TD*%
M02*
